<?xml version="1.0" encoding="UTF-8" standalone="no"?>
<!-- Created with Inkscape (http://www.inkscape.org/) -->

<svg
   xmlns:dc="http://purl.org/dc/elements/1.1/"
   xmlns:cc="http://creativecommons.org/ns#"
   xmlns:rdf="http://www.w3.org/1999/02/22-rdf-syntax-ns#"
   xmlns:svg="http://www.w3.org/2000/svg"
   xmlns="http://www.w3.org/2000/svg"
   xmlns:sodipodi="http://sodipodi.sourceforge.net/DTD/sodipodi-0.dtd"
   xmlns:inkscape="http://www.inkscape.org/namespaces/inkscape"
   width="137.91335mm"
   height="161.34637mm"
   viewBox="0 0 137.91335 161.34637"
   version="1.1"
   id="svg843"
   inkscape:version="0.92.2 5c3e80d, 2017-08-06"
   sodipodi:docname="drawing-2.svg">
  <defs
     id="defs837" />
  <sodipodi:namedview
     id="base"
     pagecolor="#ffffff"
     bordercolor="#666666"
     borderopacity="1.0"
     inkscape:pageopacity="0.0"
     inkscape:pageshadow="2"
     inkscape:zoom="0.35"
     inkscape:cx="-293.53844"
     inkscape:cy="326.45593"
     inkscape:document-units="mm"
     inkscape:current-layer="layer1"
     showgrid="false"
     inkscape:window-width="3440"
     inkscape:window-height="1418"
     inkscape:window-x="0"
     inkscape:window-y="516"
     inkscape:window-maximized="1"
     fit-margin-top="0"
     fit-margin-left="0"
     fit-margin-right="0"
     fit-margin-bottom="0" />
  <metadata
     id="metadata840">
    <rdf:RDF>
      <cc:Work
         rdf:about="">
        <dc:format>image/svg+xml</dc:format>
        <dc:type
           rdf:resource="http://purl.org/dc/dcmitype/StillImage" />
        <dc:title></dc:title>
      </cc:Work>
    </rdf:RDF>
  </metadata>
  <g
     inkscape:label="Layer 1"
     inkscape:groupmode="layer"
     id="layer1"
     transform="translate(-43.647523,-73.861754)">
    <path
       style="fill:none;stroke:#000000;stroke-width:0.26458332px;stroke-linecap:butt;stroke-linejoin:miter;stroke-opacity:1"
       d="m 107.34524,77.773809 c -1.00794,-0.251983 -2.01588,-0.50397 -3.02381,-0.755954 -0.50397,-0.251984 -0.97737,-0.57777 -1.51191,-0.755951 -0.4781,-0.15937 -1.02298,0.122229 -1.5119,0 -0.77305,-0.193263 -1.471015,-0.755952 -2.26786,-0.755952 -1.22935,0 -0.190842,1.416484 -1.511904,0.755952 -0.318738,-0.15937 -0.437216,-0.596583 -0.755951,-0.755952 -0.225383,-0.112691 -0.516901,0.07969 -0.755955,0 -0.534537,-0.178181 -0.965274,-0.619294 -1.511903,-0.755952 -0.368295,-0.09207 -2.624082,0.199861 -3.023809,0 -0.318738,-0.159369 -0.399595,-0.755954 -0.755954,-0.755954 -1.333627,0 -2.446134,0.755954 -3.779761,0.755954 -2.015874,0 -4.031747,0 -6.047618,0 -1.007938,0 -2.015874,0 -3.023812,0 -0.251984,0 -0.755951,0.251984 -0.755951,0 0,-0.251986 1.007938,0 0.755951,0 -0.503968,0 -1.033798,-0.159369 -1.511903,0 -0.338071,0.112689 -0.406514,0.686062 -0.755952,0.755952 -0.988364,0.197673 -2.029587,-0.165703 -3.023811,0 -0.555787,0.09263 -0.977366,0.577773 -1.511904,0.755952 -0.239053,0.07968 -0.5169,-0.07968 -0.755951,0 -0.534541,0.178181 -0.977366,0.577773 -1.511906,0.755951 -0.239054,0.07968 -0.530572,-0.112688 -0.755952,0 -0.318738,0.159369 -0.41788,0.643263 -0.755954,0.755954 -0.0034,0.0011 -2.267135,-7.93e-4 -2.267855,0 -0.398423,0.398421 -0.251986,1.25992 -0.755954,1.511904 -0.318736,0.159369 -0.399592,-0.755952 -0.755952,-0.755952 -0.356359,0 -0.755951,0.399592 -0.755951,0.755952 0,0.251984 0.934132,-0.178179 0.755951,0 -0.398423,0.398423 -1.043083,0.443404 -1.511906,0.755954 -0.296508,0.19767 -0.437213,0.596582 -0.755951,0.755952 -0.22538,0.112691 -0.530572,-0.112692 -0.755952,0 -0.318738,0.159369 -0.503968,0.503967 -0.755952,0.755951 -0.251986,0.251984 -0.755954,0.399592 -0.755954,0.755952 0,0.251984 0.755954,-0.251984 0.755954,0 0,0.251984 -0.530571,-0.112689 -0.755954,0 -0.318735,0.159369 -0.503968,0.50397 -0.755951,0.755954 -0.251984,0.251984 -0.596583,0.437213 -0.755952,0.755952 -0.112691,0.22538 0.112689,0.530571 0,0.755951 -0.159369,0.318739 -0.596585,0.437216 -0.755954,0.755955 -0.112689,0.22538 0.178181,0.57777 0,0.755951 -0.178179,0.178179 -0.755952,-0.251984 -0.755952,0 0,0.35636 0.755952,0.399592 0.755952,0.755952 0,0.251984 -0.530569,-0.112692 -0.755952,0 -0.318738,0.159369 -0.755952,0.399592 -0.755952,0.755951 0,0.35636 0.755952,0.399595 0.755952,0.755955 0,0.251984 -0.577773,-0.178181 -0.755952,0 -0.178181,0.178178 0.178179,0.57777 0,0.755951 -0.178181,0.178179 -0.577773,-0.178181 -0.755951,0 -0.356359,0.35636 0.356359,1.155544 0,1.511906 -0.178181,0.178179 -0.755954,-0.251986 -0.755954,0 0,0.295217 1.416484,0.851374 0.755954,1.511903 -0.178181,0.178181 -0.577773,-0.178178 -0.755954,0 -0.178179,0.178181 0.178181,0.577774 0,0.755952 -0.178179,0.178181 -0.755952,-0.251984 -0.755952,0 0,1.229352 1.416484,0.190844 0.755952,1.511906 -0.15937,0.318738 -0.596583,0.437213 -0.755952,0.755952 -0.112691,0.225382 0,0.503967 0,0.755954 0,0.503968 0.159369,1.033796 0,1.511903 -0.112691,0.338071 -0.596582,0.437216 -0.755952,0.755952 -0.115033,0.230063 0,1.927408 0,2.267858 0,1.5119 0,3.02381 0,4.53571 0,1.36973 -0.228769,3.39188 0,4.53572 0.06989,0.34944 0.596583,0.43721 0.755952,0.75595 0.356359,0.71272 0.562689,1.49481 0.755952,2.26786 0.269216,1.07686 -0.338,2.76576 0,3.77976 0.112691,0.33807 0.596585,0.43721 0.755954,0.75595 0.112689,0.22538 -0.07969,0.5169 0,0.75595 0.178178,0.53454 0.57777,0.97737 0.755951,1.51191 0.148702,0.44611 0,3.35739 0,3.77976 0,0.25199 -0.112691,0.53057 0,0.75595 0.15937,0.31874 0.596583,0.43722 0.755952,0.75595 0.11503,0.23007 0,1.92741 0,2.26786 0,3.38437 0,2.61675 0,5.29167 0,1.5119 0,3.02381 0,4.53571 0,0.25199 0,0.50397 0,0.75596 0,0.25198 0.112691,0.53057 0,0.75595 -0.159369,0.31874 -0.596582,0.43721 -0.755952,0.75595 -0.112691,0.22538 0,0.50397 0,0.75595 0,0.50397 0.15937,1.0338 0,1.51191 -0.112691,0.33807 -0.596585,0.43721 -0.755951,0.75595 -0.112691,0.22538 0.112689,0.53057 0,0.75595 -0.159369,0.31874 -0.755954,0.39959 -0.755954,0.75596 0,0.56345 0.934132,0.97736 0.755954,1.5119 -0.178181,0.53454 -1.113483,0.35753 -1.511906,0.75595 -0.356359,0.35636 0.225383,1.06114 0,1.51191 -2.507178,2.50718 0.356359,-0.71272 -0.755952,1.5119 -0.159369,0.31874 -0.643263,0.41788 -0.755954,0.75595 -0.0011,0.003 7.94e-4,2.26714 0,2.26786 -0.178178,0.17818 -0.57777,-0.17818 -0.755951,0 -0.178179,0.17818 0.112691,0.53057 0,0.75595 -0.15937,0.31874 -0.596583,0.43722 -0.755952,0.75596 -0.225383,0.45076 0.356359,1.15554 0,1.5119 -0.178181,0.17818 -0.577773,-0.17818 -0.755952,0 -0.178181,0.17818 0.178179,0.57777 0,0.75595 -0.178181,0.17818 -0.755954,-0.25198 -0.755954,0 0,0.35636 0.755954,0.39959 0.755954,0.75595 0,0.24376 -1.30189,1.09188 -1.511906,1.51191 -0.112691,0.22538 0.112692,0.53057 0,0.75595 -0.159369,0.31874 -0.755951,0.39959 -0.755951,0.75596 0,0.29521 1.416484,0.85137 0.755951,1.5119 -0.451781,0.45178 -1.511905,-0.81709 -1.511905,0.75595 0,0.35636 0.755954,0.3996 0.755954,0.75596 0,0.24375 -1.301888,1.09186 -1.511906,1.5119 -0.22538,0.45076 0.159369,1.0338 0,1.5119 -0.178178,0.53454 -0.577773,0.97737 -0.755952,1.51191 -0.159369,0.4781 0.159369,1.0338 0,1.5119 -0.178181,0.53454 -0.577773,0.97737 -0.755951,1.51191 -0.142172,0.4265 0,1.77111 0,2.26785 0,1.51191 0,3.02382 0,4.53572 0,1.00793 0,2.01587 0,3.02381 0,0.50397 -0.122233,1.02298 0,1.5119 0.193262,0.77306 0.599678,1.48649 0.755951,2.26786 0.09883,0.49418 -0.225382,1.06114 0,1.5119 0.318739,0.63748 1.11656,0.91889 1.511904,1.51191 0.139776,0.20966 0,0.50397 0,0.75595 0,0.50397 -0.12223,1.02299 0,1.51191 0.273317,1.09326 1.238591,1.93055 1.511905,3.02381 0.12223,0.48892 -0.159369,1.0338 0,1.5119 0.112692,0.33807 0.558279,0.45944 0.755952,0.75595 0.31255,0.46883 0.443405,1.04309 0.755954,1.51191 0.19767,0.29651 0.558279,0.45944 0.755952,0.75595 0.625094,0.93764 0.886809,2.08617 1.511903,3.02381 0.395346,0.59302 1.11656,0.91889 1.511906,1.5119 0.312547,0.46883 0.443405,1.04309 0.755952,1.51191 0.197672,0.29651 0.558281,0.45944 0.755954,0.75595 0.312547,0.46883 0.443404,1.04308 0.755951,1.51191 0.395346,0.59301 1.007936,1.00793 1.511904,1.5119 0.755954,0.75596 1.511906,1.51191 2.267857,2.26786 0.755954,0.75595 1.626412,1.41259 2.267858,2.26786 0.338071,0.45076 0.287131,1.19935 0.755951,1.5119 0.419328,0.27955 1.061144,-0.22538 1.511906,0 0.09136,0.0457 2.846446,2.89079 3.023809,3.02381 0.450763,0.33807 1.043083,0.44341 1.511906,0.75595 1.048316,0.69888 1.86576,1.77155 3.023809,2.26786 0.694831,0.29778 1.611506,-0.37506 2.267858,0 1.237625,0.70722 1.863884,2.19529 3.023809,3.02381 0.648417,0.46316 1.555139,0.39959 2.267857,0.75595 0.812623,0.40631 1.405938,1.2246 2.267858,1.51191 0.717158,0.23905 1.565971,-0.28076 2.267855,0 6.426597,2.57064 -5.272932,0.86662 4.535715,2.26785 2.969059,0.42416 1.651513,-0.68614 4.535715,0.75596 5.55567,2.77783 -1.799947,0.40795 6.047618,3.02381 0.985642,0.32854 1.995292,0.60902 3.023812,0.75595 0.23279,0.0333 4.43293,-0.0343 4.53571,0 0.86192,0.2873 1.43278,1.15401 2.26786,1.5119 0.95495,0.40927 2.03817,0.42741 3.02381,0.75595 0.53454,0.17819 0.94845,0.75596 1.5119,0.75596 0.79685,0 1.47102,-0.75596 2.26786,-0.75596 0.17582,0 2.69149,1.42883 3.02381,1.51191 0.48892,0.12223 1.00794,0 1.5119,0 1.25993,0 2.53699,-0.20713 3.77977,0 0.786,0.131 1.47902,0.64326 2.26785,0.75595 0.99781,0.14255 2.01588,0 3.02381,0 2.26786,0 4.53572,0 6.80357,0 1.76389,0 3.52778,0 5.29167,0 0.50397,0 1.00794,0 1.51191,0 0.50396,0 1.02298,0.12223 1.5119,0 0.54663,-0.13666 0.96527,-0.61929 1.51191,-0.75595 0.48892,-0.12223 1.09257,0.27955 1.5119,0 0.46882,-0.31255 0.28713,-1.19936 0.75595,-1.51191 1.37919,-0.91945 1.64463,0.91946 3.02381,0 0.46882,-0.31254 0.22142,-1.33372 0.75595,-1.5119 0.53454,-0.17818 0.97737,0.93413 1.51191,0.75595 0.53454,-0.17818 0.35753,-1.11348 0.75595,-1.5119 0.17818,-0.17818 0.53057,0.11269 0.75595,0 2.50718,-2.50718 -0.71272,0.35636 1.51191,-0.75595 0.31874,-0.15937 0.50397,-0.50397 0.75595,-0.75596 0.25198,-0.25198 0.55828,-0.45944 0.75595,-0.75595 0.0939,-0.14081 1.46347,-2.97537 1.51191,-3.02381 0.17818,-0.17818 0.57777,0.17818 0.75595,0 0.39842,-0.39842 0.4434,-1.04308 0.75595,-1.5119 0.58103,-0.87155 2.76378,-2.2437 3.02381,-3.02381 0.11269,-0.33808 -0.91532,-0.43722 -0.75595,-0.75596 0.25199,-0.50396 1.11348,-0.35753 1.5119,-0.75595 0.39843,-0.39842 0.44341,-1.04308 0.75596,-1.5119 0.5815,-0.87226 1.68635,-1.39561 2.26785,-2.26786 0.31255,-0.46882 0.57778,-0.97736 0.75596,-1.5119 0.0797,-0.23906 -0.13978,-0.54629 0,-0.75596 0.39534,-0.59301 1.08427,-0.94173 1.5119,-1.5119 0.67615,-0.90153 0.88681,-2.08617 1.51191,-3.02381 0.19767,-0.29651 0.59658,-0.43721 0.75595,-0.75595 0.35636,-0.71272 0.39959,-1.55514 0.75595,-2.26786 0.57547,-1.15095 1.51191,-0.44263 1.51191,-2.26786 0,-0.35636 -0.91532,-0.43721 -0.75596,-0.75595 0.25199,-0.50397 1.25992,-0.25198 1.51191,-0.75595 0.15937,-0.31874 -0.91532,-0.43722 -0.75595,-0.75596 0.25198,-0.50396 1.19935,-0.28713 1.5119,-0.75595 0.27955,-0.41932 -0.12223,-1.02298 0,-1.5119 0.91261,-3.65045 0.35924,0.0375 1.51191,-2.26786 3.65045,-7.3009 -0.9739,1.40978 0.75595,-3.77976 0.11269,-0.33807 0.59658,-0.43721 0.75595,-0.75595 0.22538,-0.45077 -0.15937,-1.0338 0,-1.51191 0.17818,-0.53454 0.57777,-0.97736 0.75595,-1.5119 0.0797,-0.23906 0,-0.50397 0,-0.75596 0.25199,-0.50396 0.57777,-0.97736 0.75595,-1.5119 0.26777,-0.80328 -0.26776,-2.22053 0,-3.02381 0.17819,-0.53454 0.57778,-0.97736 0.75596,-1.5119 0.26776,-0.80329 -0.26776,-2.22053 0,-3.02381 0.11269,-0.33807 0.75595,-0.3996 0.75595,-0.75596 0,-0.56345 -0.6193,-0.96527 -0.75595,-1.5119 -0.12223,-0.48892 0,-1.00794 0,-1.5119 0,-1.51191 0,-3.02382 0,-4.53572 0,-2.77182 0,-5.54365 0,-8.31547 0,-0.71199 0.14334,-3.34974 0,-3.77977 -0.11269,-0.33807 -0.59659,-0.43721 -0.75596,-0.75595 -0.11269,-0.22538 0,-0.50397 0,-0.75595 0,-0.50397 0.12223,-1.02299 0,-1.51191 -0.13665,-0.54663 -0.61929,-0.96527 -0.75595,-1.5119 -0.12223,-0.48892 0.12223,-1.02299 0,-1.51191 -0.13665,-0.54663 -0.4434,-1.04308 -0.75595,-1.5119 -0.19767,-0.29651 -0.75595,-0.39959 -0.75595,-0.75595 0,-0.09 1.14442,-1.68516 0.75595,-2.26786 -0.39534,-0.59302 -1.28652,-0.83576 -1.5119,-1.5119 -0.1127,-0.33808 0.75595,-0.3996 0.75595,-0.75596 0,-0.25198 -0.57778,0.17818 -0.75595,0 -0.17819,-0.17818 0.11269,-0.53057 0,-0.75595 -0.15937,-0.31874 -0.59659,-0.43721 -0.75596,-0.75595 -0.22538,-0.45076 0.35636,-1.15555 0,-1.51191 -0.17818,-0.17818 -0.64326,0.22538 -0.75595,0 -0.22538,-0.45076 0.15937,-1.0338 0,-1.5119 -0.11269,-0.33808 -0.55828,-0.45944 -0.75595,-0.75596 -1.4321,0.0861 -0.50397,-1.76388 -0.75595,-2.26785 -1.57305,-3.14609 0.0522,0.80814 -1.51191,-0.75595 -0.39842,-0.39842 -0.61929,-0.96528 -0.75595,-1.51191 -0.12223,-0.48892 0.35636,-1.15554 0,-1.5119 -2.01587,-2.01588 0.50397,4.03174 -1.51191,0 -0.11269,-0.22538 0,-0.50397 0,-0.75596 -0.25198,-0.50396 -0.4434,-1.04308 -0.75595,-1.5119 0.0755,-1.49759 -1.11348,-0.35753 -1.5119,-0.75595 -0.39842,-0.39843 -0.35753,-1.11349 -0.75596,-1.51191 -0.17817,-0.17818 -0.57777,0.17818 -0.75595,0 -0.8909,-0.8909 -1.37696,-2.13291 -2.26786,-3.02381 -0.17818,-0.17818 0.17819,0.93413 0,0.75596 -0.92073,-0.92074 -0.3541,-1.68896 -1.5119,-2.26786 -0.45076,-0.22538 -1.06114,0.22538 -1.5119,0 -0.39221,-0.19611 -2.03323,-2.26786 -2.26786,-2.26786 -2.88765,0 2.14396,2.89992 -1.51191,-0.75595 -0.17818,-0.17818 0,1.00794 0,0.75595 0,-0.50397 0.45077,-1.28652 0,-1.5119 -0.50397,-0.25199 -0.94845,0.75595 -1.5119,0.75595 -0.35636,0 0.91532,-0.43722 0.75595,-0.75595 -0.25198,-0.50397 -0.94845,-0.75596 -1.5119,-0.75596 -0.35636,0 0.50397,0.50397 0.75595,0.75596 -0.25198,-0.50397 -0.22142,-1.33373 -0.75595,-1.51191 -0.53454,-0.17818 -1.11349,1.15438 -1.51191,0.75595 -0.39842,-0.39842 0.75595,-0.94845 0.75595,-1.5119 0,-1.73327 -2.26244,0 -2.26785,0 -0.35636,0 0.59658,-0.43722 0.75595,-0.75595 0.11269,-0.22538 0.25198,-0.75596 0,-0.75596 -0.56345,0 -1.11348,0.35753 -1.51191,0.75596 -0.17817,0.17818 0.64327,0.22538 0.75596,0 0.22538,-0.45077 0.35635,-1.15555 0,-1.51191 -0.25199,-0.25198 -0.50397,1.00794 -0.75596,0.75595 -2.01587,-2.01587 2.51985,-1.5119 -1.5119,-1.5119 -0.25199,0 0.75595,0.25198 0.75595,0 0,-0.35636 -0.64326,-0.41788 -0.75595,-0.75595 -0.15937,-0.47811 0.35636,-1.15555 0,-1.51191 -0.25199,-0.25198 -0.39959,0.75596 -0.75595,0.75596 -0.50397,0 0.45076,-1.28653 0,-1.51191 -0.45077,-0.22538 -1.00794,0 -1.51191,0 -0.25198,0 0.75595,0.25198 0.75595,0 0,-0.56345 -0.4434,-1.04308 -0.75595,-1.5119 -0.19767,-0.29651 -0.45944,-0.55828 -0.75595,-0.75596 -0.46882,-0.31254 -1.25992,-0.25198 -1.5119,-0.75595 -0.15937,-0.31874 1.00793,-0.50397 0.75595,-0.75595 -0.35636,-0.35636 -1.09258,0.27955 -1.51191,0 -3.52124,-2.3475 0.49376,-0.7866 0,-2.26786 -0.75595,-2.26786 -1.5119,-0.75595 -2.26785,-2.26786 -0.11269,-0.22538 0.13977,-0.54628 0,-0.75595 -0.39535,-0.59302 -1.28653,-0.83576 -1.51191,-1.5119 -0.11269,-0.33807 1.00794,-0.50397 0.75595,-0.75596 -0.35636,-0.35635 -1.15554,0.35636 -1.5119,0 -0.25198,-0.25198 0.91532,-0.43721 0.75595,-0.75595 -0.25198,-0.50397 -1.25992,-0.25198 -1.5119,-0.75595 -0.15937,-0.31874 0.59658,-0.43721 0.75595,-0.755953 0.11269,-0.225382 0.25198,-0.755951 0,-0.755951 -0.35636,0 -0.50397,1.007935 -0.75595,0.755951 -0.35636,-0.356359 0,-1.007935 0,-1.511905 0,-0.251984 -0.25199,-0.755952 0,-0.755952 0.25198,0 0.25198,0.755952 0,0.755952 -0.35636,0 -0.50397,-0.503968 -0.75596,-0.755952 -0.25198,-0.251984 -0.75595,-0.399592 -0.75595,-0.755952 0,-0.356359 1.00794,-0.503967 0.75595,-0.755951 -0.35636,-0.356362 -1.00793,0 -1.5119,0 -0.25198,0 0.64326,0.22538 0.75595,0 0.22538,-0.450766 0.35636,-1.155547 0,-1.511906 -0.35636,-0.356359 -1.15554,0.356359 -1.5119,0 -0.25199,-0.251984 0.59658,-0.437216 0.75595,-0.755952 0.11269,-0.225382 0.11269,-0.530571 0,-0.755954 -0.15937,-0.318736 -0.39959,-0.755952 -0.75595,-0.755952 -0.25199,0 0,1.007936 0,0.755952 0,-2.015871 0.50397,-1.511903 -1.51191,-1.511903 -0.50397,0 4.28373,0.251984 0.75595,-1.511906 -0.50396,-0.251984 -0.94845,0.755954 -1.5119,0.755954 -0.35636,0 0.59658,-0.437216 0.75595,-0.755954 0.11269,-0.22538 -0.25198,-0.755952 0,-0.755952 0.25199,0 0.25199,0.755952 0,0.755952 -0.56345,0 -1.25992,-0.251984 -1.5119,-0.755952 -0.15937,-0.318738 0.75595,-0.399592 0.75595,-0.755951 0,-0.35636 -0.39959,-0.755955 -0.75595,-0.755955 -0.25199,0 0.25198,0.755955 0,0.755955 -0.50397,0 0.50396,-1.511906 0,-1.511906 -0.56346,0 -0.94845,0.755951 -1.51191,0.755951 -0.35636,0 0.59659,-0.437213 0.75595,-0.755951 0.1127,-0.22538 0.25199,-0.755952 0,-0.755952 -0.56345,0 -0.94845,0.755952 -1.5119,0.755952 -0.35636,0 0.91532,-0.437214 0.75595,-0.755952 -0.25198,-0.503968 -0.94845,-0.755951 -1.5119,-0.755951 -0.35636,0 0.39959,0.755951 0.75595,0.755951 0.25199,0 0.22538,-0.643263 0,-0.755951 -0.45076,-0.225383 -1.15554,0.356359 -1.5119,0 -0.25199,-0.251987 0.75595,-0.399595 0.75595,-0.755955 0,-0.251984 -0.57778,0.178181 -0.75595,0 -0.17819,-0.178178 0.25198,-0.755951 0,-0.755951 -0.56346,0 -0.97737,0.934132 -1.51191,0.755951 C 127.22141,84.399201 127,83.62893 127,83.065476 c 0,-0.356359 0.75595,0.399592 0.75595,0.755952 0,0.251984 -0.57777,0.178178 -0.75595,0 -0.17818,-0.178181 0.17818,-0.577774 0,-0.755952 -0.17818,-0.178181 -0.5169,0.07968 -0.75595,0 -0.53454,-0.178181 -0.94846,-0.755954 -1.51191,-0.755954 -0.25198,0 0.25198,0.755954 0,0.755954 -0.71272,0 -0.79918,-1.511906 -1.5119,-1.511906 -0.35636,0 -0.3996,0.755952 -0.75596,0.755952 -0.35636,0 -0.43721,-0.596583 -0.75595,-0.755952 -0.22538,-0.112691 -0.53057,0.112692 -0.75595,0 -0.31874,-0.159369 -0.39959,-0.755951 -0.75595,-0.755951 -0.35636,0 -0.41788,0.64326 -0.75596,0.755951 -2.21481,0.738272 -1.1306,-0.37465 -2.26785,-1.511903 -0.17818,-0.178181 0.25198,0.755952 0,0.755952 -0.56346,0 -1.11349,-0.357532 -1.51191,-0.755952 -0.17818,-0.178181 1.00794,0 0.75596,0 -0.50397,0 -1.00794,0 -1.51191,0 -0.25198,0 0.75595,0.251984 0.75595,0 0,-1.112314 -1.97264,-0.755954 -2.26785,-0.755954 -0.25199,0 0.75595,-0.251984 0.75595,0 0,0.251984 -0.50397,0 -0.75595,0 -0.25199,0 -0.75596,0.251984 -0.75596,0 0,-0.251984 0.57778,0.178181 0.75596,0 0.17817,-0.178179 0.25198,-0.755952 0,-0.755952 -0.56346,0 -1.11349,0.357532 -1.51191,0.755952 -0.17818,0.178181 1.00794,0 0.75595,0 -5.01435,0 0.35636,0.356359 -0.75595,-0.755952 -0.35636,-0.356359 -1.00794,0 -1.5119,0 -0.25199,0 1.00041,0.06112 0.75595,0 -1.24651,-0.311626 -2.51984,-0.503968 -3.77976,-0.755952 z"
       id="path1388"
       inkscape:connector-curvature="0" />
  </g>
</svg>
