<svg class="retro" xmlns="http://www.w3.org/2000/svg" fill="none" viewBox="0 0 192 171">
  <circle cx="96" cy="97" r="58" fill="#FFC4CA" stroke="#fff" stroke-width="8"/>
  <circle cx="96" cy="97" r="57.75" stroke="#11269C" stroke-width="2.5"/>
  <path fill="#C4C4C4" stroke="#11269C" d="M128.596 105.018l-.001-.002-.048-1.236v-.001a.571.571 0 01.23-.491.666.666 0 01.368-.124c.164-.009.355.03.522.071.276.068.654.186 1.103.326l.396.124c1.271.393 3.102.928 5.367 1.27 4.526.684 10.79.599 17.739-2.954 4.516-2.308 7.473-4.868 9.403-7.952 1.932-3.088 2.866-6.749 3.253-11.314.082-.972-.302-2.016-.777-3.256l-.026-.07c-.45-1.176-.958-2.504-.966-3.906-.004-.84.351-1.72.816-2.574.416-.764.954-1.565 1.487-2.358l.203-.303c.606-.904 1.189-1.798 1.614-2.67.427-.876.673-1.684.647-2.416-.017-.488-.327-1.109-.905-1.871-.528-.695-1.216-1.43-1.939-2.201l-.161-.173c-.77-.823-1.566-1.684-2.173-2.535-.6-.84-1.07-1.742-1.095-2.646-.047-1.747.693-3.042 1.387-4.256l.069-.12c.721-1.264 1.391-2.492 1.391-4.244 0-.288-.113-.646-.346-1.044a5.509 5.509 0 00-.938-1.159c-.379-.364-.8-.68-1.206-.912-.412-.235-.779-.363-1.055-.388-.23-.02-.523.057-.862.266a4.222 4.222 0 00-.992.892c-.639.766-1.07 1.699-1.102 2.369-.069 1.455-.706 2.627-1.304 3.73-.082.15-.163.3-.241.447-.666 1.256-1.238 2.548-1.102 4.368.039.52.382 1.168.991 1.944.584.744 1.346 1.528 2.137 2.342l.058.06c.802.824 1.629 1.68 2.268 2.512.628.82 1.136 1.696 1.198 2.566.065.914-.238 1.858-.674 2.768-.438.914-1.039 1.85-1.626 2.753l-.121.187c-.553.847-1.084 1.663-1.49 2.444-.438.844-.694 1.584-.694 2.219.001 1.087.402 2.168.83 3.324l.05.134c.429 1.158.883 2.422.722 3.667-.694 5.36-2.431 9.863-6.252 12.064-6.653 3.833-15.818 4.824-26.818.25l-.258-.108-.044-.277c-1.587-10.114-5.074-19.122-10.78-25.33l-.152-.166.022-.223 1.021-10.202-5.041 6.3-.289.362-.382-.26c-4.704-3.2-10.517-4.905-17.579-4.537-7.153.866-12.584 3.049-16.668 6.068l-.232.172-.265-.115-8.533-3.71 3.215 9.288.083.239-.143.208c-4.348 6.326-5.708 14.256-5.574 21.82l.006.34-.314.13c-6.953 2.9-14.328 3.069-21.566-.227l.207-.455-.207.455c-4.085-1.86-6.422-6.352-7.803-11.81-.122-.48-.403-1-.797-1.572-.325-.473-.706-.952-1.105-1.453l-.252-.317c-.482-.61-.974-1.25-1.364-1.906-.39-.657-.697-1.358-.785-2.094-.118-.992.226-1.954.733-2.85.508-.897 1.217-1.791 1.903-2.65l.056-.071c.677-.85 1.33-1.667 1.814-2.478.498-.835.78-1.604.754-2.327-.026-.693-.316-1.419-.788-2.191-.47-.772-1.094-1.545-1.74-2.338l-.087-.107c-.61-.748-1.237-1.516-1.719-2.278-.503-.794-.888-1.642-.909-2.515-.041-1.72.439-3.348.869-4.785l.006-.019c.44-1.47.806-2.692.693-3.761l94.659 57.829zm0 0c.395 12.088-1.521 24.779-5.212 35.495-3.696 10.736-9.143 19.407-15.744 23.564a39.322 39.322 0 01-6.371 3.253l-.063.024-.053.041c-.172.129-.602.312-1.322.516-.695.197-1.592.396-2.635.586-2.084.38-4.717.718-7.404.928-2.688.209-5.415.289-7.689.156-1.137-.066-2.15-.185-2.983-.363-.844-.18-1.457-.413-1.83-.679l-.07-.049-.082-.024c-7.09-2.032-13.242-5.965-17.435-10.69m68.893-52.758l-68.893 52.758m0 0a1.39 1.39 0 00-.119-.238 6.493 6.493 0 00-.318-.464 48.896 48.896 0 00-.953-1.229l-.003-.003c-.349-.441-.69-.873-.936-1.206a5.836 5.836 0 01-.276-.399.73.73 0 00-.024-.141 1.485 1.485 0 00-.076-.202 6.097 6.097 0 00-.234-.449c-.189-.338-.45-.77-.704-1.192v-.001a47 47 0 01-.689-1.164 6.812 6.812 0 01-.16-.3l.011-.018-.092-.233c-1.31-3.305-1.633-6.695-.742-9.903 2.065-7.437 5.16-11.933 7.88-15.88h0l.02-.029c1.885-2.735 3.617-5.25 4.646-8.295 1.037-3.071 1.35-6.648.464-11.519v-.001a68.352 68.352 0 01-.214-1.235l-.095-.58-.558.188c-8.01 2.697-16.713 2.659-25.388-1.291-3.004-1.368-5.33-3.908-7.146-7.267-1.817-3.36-3.107-7.512-4.046-12.049-.14-.677-.482-1.332-.887-1.952-.369-.563-.811-1.129-1.24-1.678l-.13-.166c-.476-.61-.927-1.199-1.28-1.785-.354-.586-.589-1.136-.657-1.66-.092-.707.128-1.458.572-2.278.444-.821 1.08-1.654 1.751-2.525l.078-.1c.638-.826 1.301-1.685 1.793-2.547.512-.898.875-1.86.802-2.857-.069-.937-.488-1.832-1.03-2.666-.542-.836-1.24-1.658-1.91-2.442l-.07-.08c-.654-.766-1.277-1.494-1.755-2.208-.498-.742-.797-1.409-.835-2.02-.09-1.486.288-2.93.684-4.38l.041-.15c.374-1.365.76-2.772.62-4.099h0c-.122-1.142.119-1.92.59-2.441.48-.532 1.279-.886 2.45-1.01a4 4 0 014.399 3.556l25.766 110.588zm-2.692-3.202l.003-.004-.003.004"/>
  <path fill="#C4C4C4" stroke="#11269C" d="M128.596 105.018v-.002l-.049-1.236v-.001a.571.571 0 01.23-.491.666.666 0 01.368-.124c.164-.009.355.03.522.071.276.068.654.186 1.103.326l.396.124c1.272.393 3.102.928 5.367 1.27 4.526.684 10.79.599 17.739-2.954 4.516-2.308 7.473-4.868 9.403-7.952 1.932-3.088 2.866-6.749 3.253-11.314.055-.654.319-1.292.645-1.895.273-.506.61-1.021.939-1.525l.187-.287c.799-1.232 1.466-2.375 1.46-3.525-.003-.548-.309-1.228-.876-2.051-.517-.751-1.198-1.547-1.915-2.386l-.167-.195c-.768-.9-1.564-1.843-2.173-2.782-.605-.933-1.068-1.92-1.102-2.907-.028-.83.41-1.675.958-2.46.522-.747 1.209-1.528 1.883-2.293l.143-.164c.731-.83 1.434-1.643 1.952-2.429.524-.794.807-1.487.791-2.08-.038-1.43-.691-2.492-1.445-3.72l-.091-.147c-.782-1.274-1.617-2.708-1.617-4.753 0-.288-.113-.646-.346-1.044a5.477 5.477 0 00-.938-1.159c-.379-.364-.8-.68-1.206-.912-.412-.235-.779-.363-1.055-.388-.23-.02-.523.057-.862.266a4.222 4.222 0 00-.992.892c-.639.766-1.069 1.699-1.102 2.369-.063 1.329.597 2.364 1.434 3.674.82 1.282 1.762 2.77 1.919 4.87.064.851-.337 1.719-.857 2.525-.513.795-1.203 1.62-1.872 2.42l-.06.07c-.699.836-1.37 1.643-1.856 2.415-.493.782-.742 1.444-.703 1.995.046.647.407 1.405 1.005 2.267.58.838 1.335 1.709 2.11 2.604l.044.05c.781.9 1.58 1.827 2.183 2.722.594.883 1.053 1.816 1.053 2.728.001.722-.225 1.413-.54 2.056-.314.643-.731 1.268-1.137 1.859l-.201.29c-.341.493-.665.96-.932 1.421-.319.55-.529 1.045-.588 1.5-.694 5.36-2.431 9.862-6.251 12.063-6.654 3.833-15.819 4.824-26.819.25l-.258-.108-.044-.277c-1.586-10.114-5.074-19.122-10.78-25.33l-.152-.166.022-.223 1.021-10.202-5.041 6.3-.289.362-.382-.26c-4.704-3.2-10.517-4.905-17.579-4.537-7.153.866-12.584 3.049-16.668 6.068l-.232.172-.264-.115-8.534-3.71 3.215 9.288.083.239-.143.208c-4.348 6.326-5.708 14.256-5.574 21.82l.006.34-.314.13c-6.953 2.9-14.328 3.069-21.566-.227l.207-.455-.207.455c-4.085-1.86-6.422-6.352-7.803-11.81-.172-.677-.1-1.347.07-1.985.168-.632.444-1.266.71-1.87l.007-.014c.55-1.247 1.042-2.362.91-3.473-.084-.707-.483-1.47-1.107-2.304-.583-.78-1.321-1.57-2.086-2.388l-.146-.156c-.805-.862-1.63-1.757-2.26-2.66-.628-.898-1.104-1.862-1.141-2.868-.037-.995.464-1.925 1.12-2.76.663-.843 1.549-1.669 2.4-2.453l.134-.123c.817-.753 1.594-1.467 2.176-2.165.623-.748.94-1.38.927-1.928-.035-1.449-.973-2.88-2.054-4.344-.11-.15-.223-.3-.335-.45-.418-.56-.837-1.122-1.18-1.661-.432-.681-.787-1.395-.863-2.11l94.659 57.829zm0 0c.395 12.088-1.521 24.779-5.212 35.495-3.696 10.736-9.143 19.407-15.744 23.564a39.322 39.322 0 01-6.371 3.253l-.063.024-.053.041c-.172.129-.602.312-1.322.516-.695.197-1.592.396-2.635.586-2.084.38-4.717.718-7.404.928-2.688.209-5.415.289-7.689.156-1.137-.066-2.15-.185-2.983-.363-.844-.18-1.457-.413-1.83-.679l-.07-.049-.082-.024c-7.09-2.032-13.242-5.965-17.435-10.69m68.893-52.758l-68.893 52.758m0 0l-.01-.027a1.41 1.41 0 00-.108-.211 6.531 6.531 0 00-.32-.464c-.256-.349-.608-.794-.953-1.23l-.002-.002c-.349-.441-.69-.873-.936-1.206a5.875 5.875 0 01-.27-.39l-.006-.009a.715.715 0 00-.024-.141 1.459 1.459 0 00-.076-.202 6.091 6.091 0 00-.234-.449c-.189-.338-.45-.77-.704-1.192v-.001a46.722 46.722 0 01-.689-1.164 6.795 6.795 0 01-.16-.3l.011-.018-.092-.233c-1.31-3.305-1.633-6.695-.742-9.903 2.065-7.437 5.16-11.933 7.88-15.88h0l.02-.029c1.885-2.735 3.617-5.25 4.646-8.295 1.037-3.071 1.35-6.648.464-11.519v-.001a69.243 69.243 0 01-.214-1.235l-.095-.58-.558.188c-8.01 2.697-16.713 2.659-25.388-1.291-3.003-1.368-5.33-3.908-7.146-7.267-1.817-3.36-3.107-7.512-4.046-12.049-.204-.986.236-2.028.804-3.281l.054-.118c.522-1.15 1.125-2.478.948-3.841-.128-.988-.67-1.934-1.346-2.82-.655-.86-1.48-1.716-2.28-2.547l-.086-.089c-.837-.87-1.64-1.71-2.25-2.54-.615-.834-.99-1.6-1.042-2.312-.047-.635.248-1.324.826-2.094.574-.765 1.367-1.534 2.199-2.327l.137-.13c.774-.738 1.573-1.499 2.174-2.255.629-.792 1.122-1.674 1.064-2.61-.054-.894-.39-1.744-.833-2.537-.444-.793-1.015-1.559-1.568-2.28l-.243-.315c-.473-.613-.917-1.189-1.275-1.749-.42-.658-.682-1.234-.737-1.748h0c-.121-1.142.12-1.92.591-2.441.48-.532 1.279-.886 2.45-1.01a4 4 0 014.399 3.556l25.766 110.588"/>
  <path fill="#11269C" d="M98.406 94.237a2.237 2.237 0 100-4.474 2.237 2.237 0 000 4.474z"/>
  <path fill="#fff" stroke="#11269C" stroke-width="2" d="M113.137 95.67c3.926 6.252-3.123 13.238-13.6 13.939-10.476.701-18.264-4.29-16.266-10.938 2.151-7.16 8.813-3.096 15.298-3.53 5.488-.367 10.944-5.242 14.568.529z"/>
  <path stroke="#11269C" stroke-linecap="round" stroke-linejoin="round" stroke-width="2" d="M90.688 98.2c.45 1.43 1.415 3.327 2.882 3.933 1.462.605 2.921.012 3.852-1.159.565-.71 1.039-1.607 1.068-2.535.005-.177-.152-.729-.045-.26.279 1.225.788 2.646 1.965 3.278 1.077.579 2.448.206 3.404-.438 1.181-.795 1.482-1.85 1.827-3.15"/>
  <path fill="#11269C" d="M117.401 78.013c-5.291.11-15.387 2.064-13.439 9.003 2.435 8.672 18.762 4.185 13.439-9.003zM76.877 83.179c5.088-1.76 15.216-3.448 15.03 3.874-.233 9.153-16.933 10.616-15.03-3.874z"/>
  <path fill="#FF596A" stroke="#11269C" d="M59.977 80.569c1.835-2.407 9.775-.268 14.03 1.38l-1.84 3.105c-2.569-1.495-7.958-3.917-9.775-3.105-1.182.528 1.24 4.021-1.182 4.021-1.169 0-3.02-3.056-1.233-5.401z"/>
  <path fill="#FF596A" fill-rule="evenodd" d="M102.108 88.117c3.278 8.237 17.571 8.865 18.496-3.728.089-1.219.054-2.562-.129-4.034 1.423.21 2.479-.034 3.189-.511 2.022-1.358 1.243-4.603-1.802-4.62-6.713-.49-19.606.647-20.38 8.661-1.176-.26-2.263-.406-3.391-.395-1.233.013-2.468.211-3.884.597-2.251-7.658-15.066-5.184-21.519-2.843-2.959.861-3.09 4.234-.86 4.995.783.267 1.856.212 3.201-.386.106 1.483.331 2.8.654 3.96 3.356 12.073 17.296 7.364 18.744-1.672 1.496-.443 2.638-.635 3.719-.645 1.19-.012 2.376.194 3.962.62zm15.186-7.185l-.218-1.748c-2.504.13-5.187.51-7.491 1.276-1.94.645-3.314 1.467-4.112 2.33-.673.726-.863 1.358-.796 2.207.106 1.35.764 2.624 2.116 3.64 1.383 1.04 3.269 1.6 5.121 1.438 1.849-.161 3.347-1.003 4.267-2.286.853-1.19 1.562-3.244 1.113-6.857zm-39.185 2.84l.126 1.761c.261 3.64 1.348 5.442 2.407 6.362 1.144.994 2.764 1.397 4.594 1.042 1.833-.356 3.559-1.423 4.704-2.817 1.119-1.363 1.513-2.785 1.356-4.128-.1-.845-.406-1.407-1.202-1.927-.943-.618-2.438-1.038-4.451-1.127-2.389-.106-5.072.267-7.534.834z" clip-rule="evenodd"/>
  <path stroke="#11269C" d="M122.194 79.273l-.007-.003.007.004zm-49.047 6.004l.007-.005-.007.005zm43.929-6.093l.218 1.748c.449 3.613-.26 5.668-1.113 6.857-.92 1.283-2.418 2.125-4.267 2.286-1.852.162-3.738-.399-5.121-1.437-1.352-1.017-2.01-2.29-2.116-3.64-.067-.85.123-1.482.796-2.208.798-.863 2.172-1.685 4.112-2.33 2.304-.765 4.987-1.146 7.491-1.276zm3.528 5.205c-.925 12.593-15.218 11.965-18.496 3.728-1.586-.427-2.772-.633-3.962-.621-1.081.01-2.223.202-3.719.645-1.448 9.036-15.388 13.745-18.744 1.672-.323-1.16-.548-2.477-.654-3.96-1.345.598-2.418.653-3.201.386-2.23-.761-2.099-4.134.86-4.995 6.453-2.341 19.268-4.815 21.519 2.843 1.416-.386 2.651-.584 3.884-.597 1.128-.01 2.215.134 3.391.395.774-8.014 13.667-9.15 20.38-8.662 3.045.018 3.824 3.263 1.802 4.62-.71.478-1.766.722-3.189.512.183 1.472.218 2.815.129 4.034zm-42.369 1.144l-.126-1.76c2.462-.568 5.145-.941 7.534-.835 2.013.09 3.508.51 4.451 1.127.796.52 1.102 1.082 1.202 1.927.157 1.343-.237 2.765-1.356 4.128-1.145 1.394-2.871 2.461-4.704 2.817-1.83.355-3.45-.048-4.594-1.042-1.059-.92-2.146-2.723-2.407-6.362z"/>
  <path fill="#fff" stroke="#11269C" stroke-width="2" d="M169.26 47.275l-11.741-.824a3.249 3.249 0 11.455-6.482l11.74.824a3.25 3.25 0 01-.454 6.482z"/>
  <path fill="#fff" stroke="#11269C" stroke-linejoin="round" stroke-width="2" d="M150.346 30.98c.312 4.146 4.498 8.026 6.551 9.448 2.252 1.239 7.806 3.184 12.013 1.058 5.258-2.657 6.375-9.235 5.35-12.72-1.024-3.485 5.421-7.243 6.286-8.045 1.07-.992-1.048-4.234-3.317-3.577-3.984 1.154-6.866 4.888-7.711 7.15.687-3.225 5.112-8.288 6.094-10.085 1.227-2.246-1.257-6.248-3.869-4.173-2.451 1.947-7.029 9.472-7.955 14.027-1.065-2.34 2.656-10.223 3.29-11.92.634-1.696-1.577-4.081-3.909-3.027-5.902 2.666-7.116 17.313-7.093 22.096-.432-4.035-7.522-10.827-10.071-7.293-2.413 3.346 3.95 1.881 4.341 7.062z"/>
  <path fill="#fff" stroke="#11269C" stroke-width="2" d="M24.905 47.658l11.52-2.406a3.249 3.249 0 10-1.327-6.36l-11.521 2.405a3.249 3.249 0 101.328 6.36z"/>
  <path fill="#fff" stroke="#11269C" stroke-linejoin="round" stroke-width="2" d="M41.439 28.954c.252 4.149-3.37 8.56-5.212 10.247-2.063 1.532-7.303 4.211-11.759 2.674-5.57-1.921-7.566-8.288-7.023-11.88.543-3.59-6.35-6.442-7.316-7.12-1.195-.837.465-4.337 2.801-3.992 4.104.604 7.465 3.913 8.608 6.04-1.117-3.102-6.187-7.52-7.402-9.167-1.52-2.06.4-6.36 3.268-4.659 2.692 1.597 8.247 8.435 9.78 12.821.74-2.461-4.015-9.77-4.872-11.364-.858-1.595 1.01-4.257 3.463-3.529 6.208 1.843 9.393 16.191 10.019 20.933-.12-4.055 5.987-11.745 8.99-8.588 2.844 2.988-3.659 2.398-3.345 7.584z"/>
  <!-- <path fill="#FFC4CA" stroke="#fff" stroke-width="8" d="M39.95 111.97l-.792-2.97H4V4h184v105h-35.158l-.791 2.97C145.45 136.75 122.851 155 96 155c-26.851 0-49.45-18.25-56.05-43.03z"/> -->
</svg>