<svg width="192" height="171" viewBox="0 0 192 171" fill="none" xmlns="http://www.w3.org/2000/svg">
<circle cx="96" cy="97" r="58" fill="#FFC4CA" stroke="white" stroke-width="8"/>
<circle cx="96" cy="97" r="57.75" stroke="#11269C" stroke-width="2.5"/>
<path d="M118.947 57L112.85 64.6212C108.045 61.3526 102.117 59.6225 94.9473 59.9998C87.7153 60.8726 82.1933 63.0825 78.025 66.1643L68.447 62L72.0348 72.3647C67.6062 78.8091 66.2388 86.8577 66.3736 94.4766C59.538 97.3279 52.3093 97.4898 45.2064 94.2557C42.0225 92.806 39.9105 89.4213 38.4971 85C37.5512 82.0411 38.9182 78.618 38.4863 75C38.0848 71.6367 33.857 68.105 33.7131 64.6212C33.5763 61.3089 38.5153 58.0398 38.4529 55C38.366 50.7668 35.2763 46.9781 34.9754 44.1359C34.7137 41.6645 32.498 39.8731 30.0266 40.1348C27.5551 40.3964 25.7637 42.6121 26.0254 45.0836C26.3278 47.9399 29.4442 51.322 29.5299 55C29.601 58.0475 24.6511 61.2981 24.7687 64.6212C24.8901 68.0515 29.0835 71.559 29.4461 75C29.8094 78.4484 28.3427 81.8299 29.144 85C31.1247 92.8363 34.7425 99.3803 41.4769 102.447C50.2753 106.453 59.1103 106.491 67.2324 103.757C67.3009 104.176 67.3726 104.591 67.447 105C69.1936 114.606 66.1952 118.958 62.3981 124.47L62.398 124.47C59.6728 128.426 56.5362 132.979 54.4471 140.5C53.5218 143.831 53.1987 147.612 54.5413 151C54.8764 151.846 55.5413 153.5 56.3455 154.667C57.7205 156.662 58.0413 156.5 59.9251 158.169C66.5651 164.052 75.2967 169.777 86.0143 170.392C92.5349 170.575 96.0674 170.149 101.995 167.794C104.163 166.929 106.32 165.839 108.447 164.5C121.936 156.007 130.432 129.296 129.637 105C129.623 104.585 129.607 104.17 129.588 103.757C141.5 107 146.5 106.5 156.5 102.447C163.173 99.4918 166.41 92.8938 167.867 85C168.453 81.8254 170.751 78.4411 170.869 75C170.988 71.5463 166.924 68.0352 166.789 64.6212C166.656 61.2721 171.452 58.0165 171.282 55C171.069 51.2247 167.908 47.824 168 45.0836C168.383 42.0325 167 40.5 164 40.1348C161 39.7695 159.5 41.5 159 44.1359C159 44.1359 162.498 48.6598 162.866 55C163.035 57.9114 158.176 61.2059 158.228 64.6212C158.281 68.0474 162.244 71.5952 162.057 75C161.859 78.597 159.493 82.0344 158.886 85C157.938 89.6342 156.401 93.1164 154 94.2557C144 99 138 97 128.665 94.4766C127.069 84.3073 123.555 75.1926 117.758 68.885L118.947 57Z" fill="#C4C4C4"/>
<path d="M118.947 57L112.85 64.6212C108.045 61.3526 102.117 59.6225 94.9473 59.9998C87.7153 60.8726 82.1933 63.0825 78.025 66.1643L68.447 62L72.0348 72.3647C67.6062 78.8091 66.2388 86.8577 66.3736 94.4766C59.538 97.3279 52.3093 97.4898 45.2064 94.2557C42.0225 92.806 39.9104 89.4213 38.4971 85C37.5512 82.0411 34.9182 78.618 34.4863 75C34.0848 71.6367 37.857 68.105 37.7131 64.6212C37.5763 61.3089 32.5153 58.0398 32.4529 55C32.366 50.7668 35.2763 46.9781 34.9754 44.1359C34.7137 41.6645 32.498 39.8731 30.0266 40.1348C27.5551 40.3964 25.7637 42.6121 26.0254 45.0836C26.3278 47.9399 23.4442 51.322 23.5299 55C23.601 58.0475 28.6511 61.2981 28.7687 64.6212C28.8901 68.0515 25.0835 71.559 25.4461 75C25.8094 78.4484 28.3427 81.8299 29.144 85C31.1247 92.8363 34.7425 99.3803 41.4769 102.447C50.2753 106.453 59.1103 106.491 67.2324 103.757C67.3009 104.176 67.3726 104.591 67.447 105C69.1936 114.606 66.1952 118.958 62.3981 124.47L62.398 124.47C59.6728 128.426 56.5362 132.979 54.4471 140.5C53.5218 143.831 53.1987 147.612 54.5413 151C54.8764 151.846 55.5413 153.5 56.3455 154.667C57.7205 156.662 58.0413 156.5 59.9251 158.169C66.5651 164.052 75.2967 169.777 86.0143 170.392C92.5349 170.575 96.0674 170.149 101.995 167.794C104.163 166.929 106.32 165.839 108.447 164.5C121.936 156.007 130.432 129.296 129.637 105C129.623 104.585 129.607 104.17 129.588 103.757C141.5 107 146.5 106.5 156.5 102.447C163.173 99.4918 166.41 92.8938 167.867 85C168.453 81.8254 166.751 78.4411 166.869 75C166.988 71.5463 170.924 68.0352 170.789 64.6212C170.655 61.2721 165.452 58.0165 165.282 55C165.069 51.2247 167.908 47.824 168 45.0836C168.383 42.0325 167 40.5 164 40.1348C161 39.7695 159.5 41.5 159 44.1359C159 44.1359 156.498 48.6598 156.866 55C157.035 57.9114 162.176 61.2059 162.228 64.6212C162.281 68.0474 158.244 71.5952 158.057 75C157.859 78.597 159.493 82.0344 158.886 85C157.938 89.6342 156.401 93.1164 154 94.2557C144 99 138 97 128.665 94.4766C127.069 84.3073 123.555 75.1926 117.758 68.885L118.947 57Z" fill="#C4C4C4"/>
<path d="M98.406 94.2367C99.6412 94.2367 100.643 93.2354 100.643 92.0002C100.643 90.765 99.6412 89.7636 98.406 89.7636C97.1708 89.7636 96.1695 90.765 96.1695 92.0002C96.1695 93.2354 97.1708 94.2367 98.406 94.2367Z" fill="#11269C"/>
<path d="M113.137 95.6699C117.063 101.922 110.014 108.908 99.537 109.609C89.061 110.31 81.273 105.319 83.271 98.6706C85.422 91.511 92.084 95.5752 98.569 95.1412C104.057 94.774 109.513 89.899 113.137 95.6699Z" fill="white" stroke="#11269C" stroke-width="2"/>
<path d="M90.688 98.1997C91.138 99.6298 92.103 101.527 93.57 102.133C95.032 102.738 96.491 102.145 97.422 100.974C97.987 100.264 98.461 99.3674 98.49 98.4393C98.495 98.2623 98.338 97.71 98.445 98.1781C98.724 99.4041 99.233 100.825 100.41 101.457C101.487 102.036 102.858 101.663 103.814 101.019C104.995 100.224 105.296 99.1686 105.641 97.869" stroke="#11269C" stroke-width="2" stroke-linecap="round" stroke-linejoin="round"/>
<path d="M117.401 78.0131C112.11 78.1231 102.014 80.0774 103.962 87.0156C106.397 95.6883 122.724 91.2011 117.401 78.0131Z" fill="#11269C"/>
<path d="M76.877 83.179C81.965 81.4193 92.093 79.7305 91.907 87.0531C91.674 96.2063 74.974 97.6686 76.877 83.179Z" fill="#11269C"/>
<path d="M59.977 80.569C61.812 78.1622 69.752 80.3006 74.007 81.9489L72.167 85.0538C69.598 83.5589 64.209 81.137 62.392 81.9489C61.21 82.477 63.632 85.9702 61.21 85.9702C60.041 85.9702 58.19 82.9136 59.977 80.569Z" fill="#FF596A" stroke="#11269C"/>
<path fill-rule="evenodd" clip-rule="evenodd" d="M102.108 88.1166C105.386 96.3539 119.679 96.9822 120.604 84.3894C120.693 83.1703 120.658 81.8272 120.475 80.3552C121.898 80.5649 122.954 80.3206 123.664 79.8438C125.686 78.4857 124.907 75.2408 121.862 75.2231C115.149 74.7346 102.256 75.871 101.482 83.8854C100.306 83.6242 99.219 83.4792 98.091 83.4905C96.858 83.5028 95.623 83.701 94.207 84.0869C91.956 76.4293 79.141 78.9029 72.688 81.2442C69.729 82.1052 69.598 85.4779 71.828 86.2389C72.611 86.5061 73.684 86.4513 75.029 85.8528C75.135 87.3357 75.36 88.6522 75.683 89.8134C79.039 101.886 92.979 97.1771 94.427 88.1412C95.923 87.6982 97.065 87.5064 98.146 87.4957C99.336 87.4838 100.522 87.6899 102.108 88.1166ZM117.294 80.9324L117.076 79.1844C114.572 79.3141 111.889 79.6949 109.585 80.4601C107.645 81.1048 106.271 81.9273 105.473 82.7896C104.8 83.5163 104.61 84.148 104.677 84.9973C104.783 86.3477 105.441 87.6215 106.793 88.6376C108.176 89.6764 110.062 90.2368 111.914 90.0751C113.763 89.9138 115.261 89.0724 116.181 87.7889C117.034 86.5999 117.743 84.5449 117.294 80.9324ZM78.109 83.7723L78.235 85.5331C78.496 89.1721 79.583 90.9749 80.642 91.8954C81.786 92.889 83.406 93.2924 85.236 92.9372C87.069 92.5813 88.795 91.5137 89.94 90.12C91.059 88.7566 91.453 87.3352 91.296 85.992C91.196 85.1473 90.89 84.5854 90.094 84.0648C89.151 83.4471 87.656 83.0274 85.643 82.938C83.254 82.8318 80.571 83.2046 78.109 83.7723Z" fill="#FF596A"/>
<path d="M122.194 79.2735C122.194 79.2735 122.192 79.2721 122.187 79.2701L122.194 79.2735ZM73.147 85.2769C73.147 85.2769 73.149 85.275 73.154 85.2716L73.147 85.2769ZM117.076 79.1844L117.294 80.9324C117.743 84.5449 117.034 86.5999 116.181 87.7889C115.261 89.0724 113.763 89.9138 111.914 90.0751C110.062 90.2368 108.176 89.6764 106.793 88.6376C105.441 87.6215 104.783 86.3477 104.677 84.9973C104.61 84.148 104.8 83.5163 105.473 82.7896C106.271 81.9273 107.645 81.1048 109.585 80.4601C111.889 79.6949 114.572 79.3141 117.076 79.1844ZM120.604 84.3894C119.679 96.9822 105.386 96.3539 102.108 88.1166C100.522 87.6899 99.336 87.4838 98.146 87.4957C97.065 87.5064 95.923 87.6982 94.427 88.1412C92.979 97.1771 79.039 101.886 75.683 89.8134C75.36 88.6522 75.135 87.3357 75.029 85.8528C73.684 86.4513 72.611 86.5061 71.828 86.2389C69.598 85.4779 69.729 82.1052 72.688 81.2442C79.141 78.9029 91.956 76.4293 94.207 84.0869C95.623 83.701 96.858 83.5028 98.091 83.4905C99.219 83.4792 100.306 83.6242 101.482 83.8854C102.256 75.871 115.149 74.7346 121.862 75.2231C124.907 75.2408 125.686 78.4857 123.664 79.8438C122.954 80.3206 121.898 80.5649 120.475 80.3552C120.658 81.8272 120.693 83.1703 120.604 84.3894ZM78.235 85.5331L78.109 83.7723C80.571 83.2046 83.254 82.8318 85.643 82.938C87.656 83.0274 89.151 83.4471 90.094 84.0648C90.89 84.5854 91.196 85.1473 91.296 85.992C91.453 87.3352 91.059 88.7566 89.94 90.12C88.795 91.5137 87.069 92.5813 85.236 92.9372C83.406 93.2924 81.786 92.889 80.642 91.8954C79.583 90.9749 78.496 89.1721 78.235 85.5331Z" stroke="#11269C"/>
<path d="M169.26 47.275L157.519 46.451C155.654 46.3204 154.285 44.6471 154.524 42.7936C154.745 41.0869 156.258 39.8482 157.974 39.969L169.714 40.7929C171.579 40.9236 172.948 42.5968 172.709 44.4504C172.488 46.157 170.976 47.3957 169.26 47.275Z" fill="white" stroke="#11269C" stroke-width="2"/>
<path d="M150.346 30.9808C150.658 35.1259 154.844 39.0058 156.897 40.4279C159.149 41.6665 164.703 43.6124 168.91 41.4864C174.168 38.829 175.285 32.2505 174.26 28.7659C173.236 25.2808 179.681 21.5234 180.546 20.7213C181.616 19.729 179.498 16.4868 177.229 17.1441C173.245 18.2981 170.363 22.0318 169.518 24.2933C170.205 21.0692 174.63 16.006 175.612 14.2091C176.839 11.9627 174.355 7.96115 171.743 10.0356C169.292 11.9825 164.714 19.5084 163.788 24.0625C162.723 21.7238 166.444 13.8395 167.078 12.1433C167.712 10.4471 165.501 8.06187 163.169 9.11574C157.267 11.7819 156.053 26.4288 156.076 31.2122C155.644 27.1774 148.554 20.3854 146.005 23.919C143.592 27.2648 149.955 25.8 150.346 30.9808Z" fill="white" stroke="#11269C" stroke-width="2" stroke-linejoin="round"/>
<path d="M24.9048 47.6578L36.4257 45.2525C38.2556 44.8707 39.3859 43.0275 38.8979 41.2234C38.4482 39.5623 36.7818 38.5397 35.0979 38.8916L23.577 41.2968C21.7471 41.6787 20.6167 43.5219 21.1048 45.326C21.5545 46.9871 23.2209 48.0096 24.9048 47.6578Z" fill="white" stroke="#11269C" stroke-width="2"/>
<path d="M41.439 28.9538C41.6908 33.103 38.0686 37.5137 36.2265 39.2006C34.1635 40.7326 28.9235 43.4122 24.4681 41.8751C18.8987 39.9538 16.9017 33.587 17.4454 29.9957C17.9881 26.4041 11.0944 23.5534 10.1288 22.8758C8.93391 22.0375 10.5941 18.5384 12.9304 18.8827C17.0342 19.4869 20.3953 22.7962 21.5384 24.9225C20.4212 21.8211 15.3515 17.4033 14.1359 15.7558C12.6156 13.6962 14.5361 9.39518 17.4043 11.0971C20.0963 12.6944 25.6508 19.5315 27.1847 23.9183C27.9233 21.457 23.1695 14.1489 22.3119 12.554C21.4543 10.9592 23.3215 8.29682 25.7753 9.0253C31.9831 10.8682 35.1682 25.2161 35.7936 29.9585C35.6747 25.9025 41.7811 18.2133 44.7843 21.3695C47.628 24.358 41.125 23.7678 41.439 28.9538Z" fill="white" stroke="#11269C" stroke-width="2" stroke-linejoin="round"/>
<path opacity="0.3" fill-rule="evenodd" clip-rule="evenodd" d="M185 5H6V133H55.7501C65.6378 144.047 80.007 151 96 151C111.993 151 126.362 144.047 136.25 133H185V5Z" fill="#C4C4C4"/>
</svg>
