<svg width="148" height="131" viewBox="0 0 148 131" fill="none" xmlns="http://www.w3.org/2000/svg">
<path d="M95.9473 17L89.8503 24.6212C85.0453 21.3526 79.1173 19.6225 71.9473 19.9998C64.7153 20.8726 59.1933 23.0825 55.025 26.1643L45.447 22L49.0348 32.3647C44.6062 38.8091 43.2388 46.8577 43.3736 54.4766C36.538 57.3279 29.3093 57.4898 22.2064 54.2557C19.0225 52.806 16.9104 49.4213 15.4971 45C14.5512 42.0411 11.9182 38.618 11.4863 35C11.0848 31.6367 14.857 28.105 14.7131 24.6212C14.5763 21.3089 9.5153 18.0398 9.45288 15C9.36597 10.7668 12.2763 6.9781 11.9754 4.13592C11.7137 1.66446 9.49798 -0.12693 7.02658 0.13476C4.55508 0.39644 2.76368 2.6121 3.02538 5.08356C3.32782 7.93993 0.444156 11.322 0.529942 15C0.601022 18.0475 5.65113 21.2981 5.76874 24.6212C5.89014 28.0515 2.08347 31.559 2.44605 35C2.80941 38.4484 5.34274 41.8299 6.14399 45C8.12465 52.8363 11.7425 59.3803 18.4769 62.4466C27.2753 66.4527 36.1103 66.491 44.2324 63.7566C44.3009 64.176 44.3726 64.5906 44.447 65C46.1936 74.6058 43.1952 78.9583 39.3981 84.4701L39.398 84.4703C36.6728 88.4261 33.5362 92.9791 31.4471 100.5C30.5218 103.831 30.1987 107.612 31.5413 111C31.8764 111.846 32.5413 113.5 33.3455 114.667C34.7205 116.662 35.0413 116.5 36.9251 118.169C43.5651 124.052 52.2967 129.777 63.0143 130.392C69.5349 130.575 73.0674 130.149 78.9953 127.794C81.1633 126.929 83.3203 125.839 85.4473 124.5C98.9355 116.007 107.432 89.2958 106.637 65C106.623 64.5848 106.607 64.1703 106.588 63.7566C118.5 67 123.5 66.5 133.5 62.4466C140.173 59.4918 143.41 52.8938 144.867 45C145.453 41.8254 143.751 38.4411 143.869 35C143.988 31.5463 147.924 28.0352 147.789 24.6212C147.655 21.2721 142.452 18.0165 142.282 15C142.069 11.2247 144.908 7.82404 145 5.08356C145.383 2.03246 144 0.500007 141 0.13476C138 -0.2305 136.5 1.50001 136 4.13591C136 4.13591 133.498 8.65976 133.866 15C134.035 17.9114 139.176 21.2059 139.228 24.6212C139.281 28.0474 135.244 31.5952 135.057 35C134.859 38.597 136.493 42.0344 135.886 45C134.938 49.6342 133.401 53.1164 131 54.2557C121 59 115 57 105.665 54.4766C104.069 44.3073 100.555 35.1926 94.7583 28.885L95.9473 17Z" fill="black"/>
</svg>
