<?xml version="1.0" encoding="UTF-8" standalone="no"?>
<!-- Created with Vectornator for iOS (http://vectornator.io/) -->

<svg
   xmlns:vectornator="http://vectornator.io"
   xmlns:dc="http://purl.org/dc/elements/1.1/"
   xmlns:cc="http://creativecommons.org/ns#"
   xmlns:rdf="http://www.w3.org/1999/02/22-rdf-syntax-ns#"
   xmlns:svg="http://www.w3.org/2000/svg"
   xmlns="http://www.w3.org/2000/svg"
   xmlns:sodipodi="http://sodipodi.sourceforge.net/DTD/sodipodi-0.dtd"
   xmlns:inkscape="http://www.inkscape.org/namespaces/inkscape"
   height="568.72021"
   style="clip-rule:evenodd;fill-rule:evenodd;stroke-linecap:round;stroke-linejoin:round"
   xml:space="preserve"
   width="549.58386"
   version="1.1"
   viewBox="0 0 549.58386 568.72021"
   id="svg107"
   sodipodi:docname="mess.svg"
   inkscape:version="0.92.2 5c3e80d, 2017-08-06"><sodipodi:namedview
     pagecolor="#ffffff"
     bordercolor="#666666"
     borderopacity="1"
     objecttolerance="10"
     gridtolerance="10"
     guidetolerance="10"
     inkscape:pageopacity="0"
     inkscape:pageshadow="2"
     inkscape:window-width="1494"
     inkscape:window-height="863"
     id="namedview109"
     showgrid="false"
     fit-margin-top="0"
     fit-margin-left="0"
     fit-margin-right="0"
     fit-margin-bottom="0"
     inkscape:zoom="0.39333333"
     inkscape:cx="264.26071"
     inkscape:cy="796.77978"
     inkscape:window-x="253"
     inkscape:window-y="59"
     inkscape:window-maximized="0"
     inkscape:current-layer="g104" /><metadata
     id="metadata2"><vectornator:setting
       key="DisplayWhiteBackground"
       value="0" /><vectornator:setting
       key="RulersVisible"
       value="1" /><vectornator:setting
       key="GridSpacing"
       value="36" /><vectornator:setting
       key="Units"
       value="Pixels" /><vectornator:setting
       key="New"
       value="1" /><vectornator:setting
       key="DynamicGuides"
       value="0" /><vectornator:setting
       key="SnapToPoints"
       value="0" /><vectornator:setting
       key="SnapToGrid"
       value="0" /><vectornator:setting
       key="SnapToGuides"
       value="1" /><vectornator:setting
       key="SnapToEdges"
       value="0" /><rdf:RDF><cc:Work
         rdf:about=""><dc:format>image/svg+xml</dc:format><dc:type
           rdf:resource="http://purl.org/dc/dcmitype/StillImage" /><dc:title></dc:title></cc:Work></rdf:RDF></metadata><defs
     id="defs4" /><g
     id="Layer 1"
     vectornator:layerName="Layer 1"
     transform="translate(-35.73929,-24.695404)"><g
       id="g950"><path
         id="path6"
         d="m 117.969,432.813 c 18.554,30.923 53.957,60.737 93.75,49.218 12.707,-3.678 24.018,-15.787 32.422,-25.39 5.888,-6.729 12.422,-15.833 14.843,-24.61 6.421,-23.276 -11.938,-37.866 -28.125,-51.562 -27.608,-23.361 -64.745,-44.311 -65.625,-84.766 -0.631,-29.029 23.763,-82.238 50.782,-96.094 7.97,-4.087 16.116,-5.489 25,-5.859 66.083,-2.753 57.254,75.087 73.047,119.141 9.463,26.399 38.027,36.949 62.5,22.265 4.555,-2.733 8.593,-6.25 12.89,-9.375"
         inkscape:connector-curvature="0"
         style="opacity:1;fill:none;stroke:#000000;stroke-width:10.35000038;stroke-linecap:round;stroke-linejoin:round" /><path
         id="path8"
         d="m 156.25,60.9375 c -12.933,12.9331 -18.43,30.2886 -19.922,48.4375 -1.824,22.195 6.357,34.478 28.125,42.187 45.091,15.97 131.608,-42.07 157.422,20.313 2.534,6.123 3.849,12.992 4.688,19.531 3.572,27.865 -0.962,60.031 -18.75,82.813 -36.452,46.683 -104.858,71.443 -124.61,131.64 -25.474,77.636 31.305,123.611 106.641,118.75 41.407,-2.671 75.914,-47.184 89.453,-82.812 3.004,-7.905 7.826,-29.109 2.734,-37.109 -9.318,-14.643 -30.722,-25.373 -45.703,-32.422 -64.774,-30.482 -147.222,5.008 -205.859,-34.375 -23.733,-15.94 -38.6357,-52.914 -31.6409,-80.469 3.9039,-15.379 17.6999,-34.569 27.7339,-46.485 17.615,-20.917 46.243,-30.306 71.094,-38.671 37.35,-12.574 77.011,-20.22 111.328,-40.625 9.973,-5.93 18.847,-18.04 25.782,-25.782"
         inkscape:connector-curvature="0"
         style="opacity:1;fill:none;stroke:#000000;stroke-width:10.35000038;stroke-linecap:round;stroke-linejoin:round" /><path
         id="path12"
         d="m 374.442,249.195 c 11.228,11.229 23.265,21.689 35.851,31.37 18.024,13.865 47.221,22.48 55.271,46.308 3.846,11.384 4.163,23.844 3.735,35.852 -2.329,65.202 -82.983,115.468 -143.406,103.82 -18.786,-3.622 -33.069,-19.81 -47.055,-32.864 -28.666,-26.755 -2.527,-62.803 28.382,-74.691 39.787,-15.302 81.95,-10.999 120.999,-29.129 4.572,-2.123 9.216,-4.569 12.697,-8.216 26.384,-27.64 60.414,-99.739 47.055,-138.924 -9.349,-27.424 -28.941,-49.855 -53.777,-64.234 -58.013,-33.5866 -113.693,7.405 -152.369,48.549 -6.915,7.356 -21.831,22.36 -25.394,32.864 -10.051,29.624 -6.733,73.841 -3.735,103.819 2.747,27.466 21.11,52.603 25.395,79.919 2.454,15.643 2.599,31.294 2.241,47.055 -0.085,3.742 0.539,7.689 -0.747,11.204 -14.578,39.846 -53.207,60.866 -94.857,53.777 -12.885,-2.193 -26.314,-4.941 -37.346,-11.95 -24.528,-15.586 -42.114,-40.391 -59.7519,-63.487 -9.9467,-13.026 -15.3489,-33.839 -12.6974,-50.043 1.531,-9.356 3.1452,-18.856 6.7221,-27.636 5.2709,-12.937 27.9102,-26.598 35.8512,-32.116 31.556,-21.929 64.328,-33.906 101.579,-43.321 7.622,-1.926 15.455,-2.894 23.154,-4.481 16.452,-3.392 32.937,-6.645 49.296,-10.457 9.294,-2.165 18.503,-4.704 27.636,-7.469 18.01,-5.453 36.305,-10.19 53.777,-17.179 29.503,-11.801 57.324,-28.205 82.906,-47.055"
         inkscape:connector-curvature="0"
         style="opacity:1;fill:none;stroke:#000000;stroke-width:10.35000038;stroke-linecap:round;stroke-linejoin:round" /><path
         id="path14"
         d="m 98.8337,195.418 c 35.8713,81.991 130.6403,82.451 206.1453,94.11 32.257,4.981 68.911,18.585 98.592,29.876 28.477,10.834 61.808,30.874 73.943,60.5 4.392,10.72 5.103,22.774 5.229,34.357 0.413,38.021 -20.133,62.373 -47.055,86.641 -15.538,14.007 -29.283,32.749 -49.296,38.839 -55.327,16.839 -118.95,4.422 -144.153,-52.283 -6.171,-13.886 -4.097,-30.591 -1.493,-45.561 3.46,-19.899 18.465,-36.156 30.623,-52.284 11.485,-15.235 24.967,-24.616 38.839,-38.092 44.044,-42.785 91.607,-93.117 88.135,-159.09 -0.87,-16.53 -6.521,-34.313 -17.926,-46.309 -15.222,-16.009 -32.207,-30.627 -50.79,-42.573"
         inkscape:connector-curvature="0"
         style="opacity:1;fill:none;stroke:#000000;stroke-width:10.35000038;stroke-linecap:round;stroke-linejoin:round" /><path
         id="path16"
         d="m 122.735,302.973 c 31.706,-7.927 61.204,-37.445 70.209,-69.463 6.984,-24.834 -2.792,-52.504 3.734,-77.678 18.64,-71.8969 100.601,-108.8403 170.295,-98.5912 59.121,8.6944 56.722,70.5912 45.561,117.2642 -6.909,28.891 -31.941,55.196 -49.296,77.678 -25.327,32.81 -49.007,63.187 -61.993,103.073 -6.143,18.867 -8.998,52.539 1.494,70.209 27.546,46.394 77.924,68.198 131.455,52.283 18.838,-5.6 36.229,-24.856 47.802,-39.586 28.262,-35.97 50.293,-80.034 20.913,-123.239 -24.012,-35.312 -69.365,-48.09 -104.566,-69.462 -13.212,-8.022 -34.987,-20.371 -41.827,-35.105 -10.785,-23.228 -16.432,-52.351 -16.432,-77.678"
         inkscape:connector-curvature="0"
         style="opacity:1;fill:none;stroke:#000000;stroke-width:10.35000038;stroke-linecap:round;stroke-linejoin:round" /><path
         id="path18"
         d="m 80.9079,358.99 c 13.117,60.339 56.9651,114.431 120.2521,124.734 16.003,2.605 38.011,4.999 51.536,-6.723 29.135,-25.25 10.388,-63.815 -0.747,-91.122 -22.78,-55.866 -39.124,-100.051 -33.611,-162.078 1.182,-13.293 4.453,-26.574 9.71,-38.839 14.323,-33.421 76.453,-51.079 108.301,-34.358 16.054,8.428 17.106,40.936 20.914,57.512 9.921,43.188 29.03,93.285 84.4,79.172 13.733,-3.501 31.542,-26.035 37.345,-33.611 18.932,-24.716 -3.107,-81.131 -7.469,-109.048 -0.704,-4.506 -1.743,-15.418 0,-18.673 11.649,-21.745 49.72,-10.595 65.728,-3.734 8.355,3.58 15.82,8.656 23.901,12.697"
         inkscape:connector-curvature="0"
         style="opacity:1;fill:none;stroke:#000000;stroke-width:10.35000038;stroke-linecap:round;stroke-linejoin:round" /><path
         id="path20"
         d="m 168.296,183.468 c -17.222,17.816 -43.002,41.335 -48.549,67.221 -3.453,16.113 -5.374,32.899 -3.735,49.296 0.689,6.883 4.663,14.147 10.457,17.926 12.277,8.007 27.432,21.031 41.08,15.685 44.879,-17.58 81.995,-50.854 120.999,-79.172 36.474,-26.482 64.777,-64.117 103.819,-86.641 10.67,-6.156 23.595,-7.737 35.852,-8.963 7.989,-0.799 17.084,-1.254 23.901,2.987 5.769,3.591 9.989,11.136 9.709,17.926 -1.515,36.872 -39.763,63.591 -67.968,87.388 -47.952,40.46 -107.629,71.519 -147.887,120.252 -12.306,14.896 -31.235,38.676 -33.611,61.246 -1.329,12.63 -5.781,26.433 -0.747,38.092 5.306,12.288 17.993,20.211 29.13,27.636 20.592,13.728 49.307,9.091 73.943,6.722 25.114,-2.415 51.26,-20.516 67.969,-36.599 25.992,-25.017 34.227,-63.571 49.295,-96.35 3.77,-8.2 7.227,-16.547 11.204,-24.648 4.572,-9.315 7.904,-20.024 15.685,-26.889 14.673,-12.947 44.71,-24.049 61.993,-11.95"
         inkscape:connector-curvature="0"
         style="opacity:1;fill:none;stroke:#000000;stroke-width:10.35000038;stroke-linecap:round;stroke-linejoin:round" /><path
         id="path22"
         d="m 272.863,132.678 c 0,33.943 47.381,17.584 67.221,14.938 18.361,-2.448 46.967,-10.755 65.728,-1.494 11.054,5.458 23.974,13.416 26.888,25.395 2.581,10.611 -5.208,22.706 -13.444,29.876 -14.108,12.283 -32.399,19.183 -50.043,25.395 -18.009,6.341 -37.296,8.206 -56.018,11.951 -20.28,4.056 -55.784,3.864 -67.968,24.648 -14.456,24.659 55.469,16.868 45.561,37.345 -6.368,13.161 -21.241,20.103 -32.117,29.876 -11.526,10.357 -22.064,21.818 -32.117,33.611 -6.127,7.187 -11.527,20.437 -5.975,29.876 2.71,4.607 9.21,5.528 14.191,7.469 14.233,5.545 28.739,10.391 43.321,14.938 24.976,7.788 51.474,11.162 75.437,21.66 10.689,4.683 19.896,12.284 29.13,19.42 1.858,1.436 3.734,3.626 3.734,5.975 0,23.075 -40.675,32.662 -54.524,39.586 -19.789,9.894 -48.82,24.745 -71.703,14.938 -6.313,-2.705 -9.959,-9.461 -14.938,-14.191"
         inkscape:connector-curvature="0"
         style="opacity:1;fill:none;stroke:#000000;stroke-width:10.35000038;stroke-linecap:round;stroke-linejoin:round" /><path
         id="path24"
         d="m 164.561,90.1046 c -15.449,20.9024 -39.589,61.4324 -29.129,89.6284 3.846,10.369 8.036,22.161 17.179,28.383 10.336,7.034 24.129,9.136 36.598,8.216 42.488,-3.137 129.712,-54.444 138.178,23.154 1.836,16.837 2.204,34.261 -1.494,50.789 -4.392,19.626 -12.979,38.254 -22.407,56.018 -7.87,14.827 -16.887,29.595 -29.13,41.08 -24.526,23.009 -61.348,31.512 -94.857,34.357 -9.182,0.78 -19.747,4.018 -27.635,-0.746 -18.696,-11.292 -36.347,-26.219 -47.802,-44.815 -8.6557,-14.051 -8.0174,-32.132 -9.7098,-48.549 -0.8206,-7.959 -1.496,-16.825 2.2407,-23.901 13.0261,-24.666 34.7681,-47.381 58.2591,-62.74 16.904,-11.052 34.289,-21.449 52.283,-30.623 14.047,-7.161 37.47,-13.512 53.03,-6.722 6.208,2.709 8.548,10.576 11.951,16.432 7.329,12.613 12.685,26.316 20.166,38.839 29.444,49.286 78.432,54.567 129.962,57.512 8.202,0.469 17.136,3.329 24.647,0 32.35,-14.341 57.963,-43.92 75.438,-74.691 17.856,-31.442 8.575,-61.666 -3.735,-93.363 -16.022,-41.257 -43.816,-72.4264 -87.388,-85.8939 -29.022,-8.9706 -56.143,0.5442 -81.412,14.9381 -18.233,10.386 -25.704,43.1148 -29.13,58.2588 -1.538,6.799 -0.976,14.011 0,20.913 2.771,19.58 4.187,39.77 11.204,58.259 8.855,23.332 21.951,45.001 35.851,65.727 46.956,70.015 115.168,101.239 126.227,189.714"
         inkscape:connector-curvature="0"
         style="opacity:1;fill:none;stroke:#000000;stroke-width:10.35000038;stroke-linecap:round;stroke-linejoin:round" /><path
         id="path26"
         d="m 216.098,505.384 c 25.865,10.161 72.189,24.933 100.085,16.432 17.254,-5.259 35.112,-11.867 48.549,-23.901 16.105,-14.425 27.048,-34.02 37.345,-53.031 9.271,-17.116 19.221,-35.132 20.913,-54.524 1.677,-19.213 3.042,-43.763 -11.203,-56.764 -21.635,-19.747 -54.558,-21.759 -82.907,-29.13 -9.397,-2.443 -19.889,-2.983 -29.129,0 -15.372,4.964 -31.61,11.29 -42.573,23.154 -8.55,9.252 -10.531,23.335 -11.951,35.852 -2.611,23.006 -0.351,46.311 0,69.462 0.303,20.007 11.743,52.366 -14.191,62.74 -6.704,2.681 -14.779,2.187 -21.66,0 -20.19,-6.415 -40.972,-13.15 -58.259,-25.395 -19.252,-13.637 -34.141,-32.707 -49.296,-50.789 -6.8838,-8.214 -13.0105,-17.479 -16.4316,-27.636 -4.6776,-13.886 -9.5741,-28.819 -7.4691,-43.32 2.5642,-17.665 10.9426,-34.491 20.9134,-49.296 6.9093,-10.259 17.4623,-18.093 28.3823,-23.901 24.534,-13.05 50.422,-23.781 76.931,-32.117 38.511,-12.11 80.669,-7.034 120.999,-5.228 23.734,1.063 47.233,5.431 70.956,6.722 12.929,0.704 26.504,3.192 38.839,-0.747 18.152,-5.797 34.861,-16.119 50.043,-27.635 17.987,-13.646 20.782,-42.901 21.66,-61.994 0.381,-8.301 0.176,-17.315 -3.735,-24.647 -8.365,-15.686 -17.708,-32.1623 -32.117,-42.574 -20.776,-15.0134 -45.446,-24.7475 -70.209,-31.37 -18.785,-5.0239 -38.819,-3.4505 -58.258,-2.9877 -22.489,0.5355 -45.707,-0.5941 -67.222,5.9753 -12.384,3.7814 -23.637,12.9984 -30.623,23.9009 -10.111,15.7791 -15.083,34.6365 -18.672,53.0305 -2.48,12.709 -3.323,26.546 0.746,38.839 8.153,24.628 20.264,48.184 35.105,69.462 6.325,9.068 16.501,15.635 26.889,19.42 22.302,8.125 46.462,9.812 69.462,15.685 36.311,9.271 75.201,14.966 106.807,35.104 17.478,11.136 39.576,20.158 48.549,38.839 8.096,16.856 5.29,39.251 -2.988,56.018 -12.255,24.825 -33.788,44.53 -55.271,61.993 -17.716,14.402 -38.964,24.532 -60.499,32.117 -31.32,11.031 -66.181,9.278 -99.338,7.469"
         inkscape:connector-curvature="0"
         style="opacity:1;fill:none;stroke:#000000;stroke-width:10.35000038;stroke-linecap:round;stroke-linejoin:round" /><path
         id="path28"
         d="m 151.117,134.172 c -3.536,14.145 -10.145,49.682 -4.481,62.74 5.885,13.569 14.247,27.06 26.141,35.851 12.095,8.94 27.694,12.75 42.574,14.939 19.459,2.861 39.355,-0.844 59.005,0 20.967,0.9 43.204,-2.436 62.74,5.228 14.754,5.788 29.653,17.73 34.358,32.864 5.584,17.958 -0.335,38.329 -6.722,56.018 -6.875,19.038 -19.059,36.069 -32.117,51.536 -12.858,15.23 -29.13,27.288 -44.814,39.586 -6.319,4.954 -13.02,10.482 -20.914,11.95 -14.196,2.642 -33.004,10.104 -43.32,0 -18.266,-17.889 -21.935,-46.421 -29.13,-70.956 -2.662,-9.078 -1.49,-19.039 0,-28.382 2.275,-14.253 0.011,-32.714 11.204,-41.827 20.157,-16.411 48.416,-19.044 73.197,-26.888 9.915,-3.139 20.833,-2.466 30.623,-5.975 16.778,-6.015 35.322,-10.461 48.549,-22.408 11.238,-10.15 18.844,-25.33 20.913,-40.332 3.108,-22.531 -0.172,-45.978 -5.975,-67.969 -3.869,-14.66 -10.832,-29.792 -22.407,-39.586 -15.559,-13.1643 -35.013,-23.9096 -55.271,-26.1414 -12.174,-1.3412 -25.013,7.0321 -32.864,16.4319 -10.94,13.0965 -16.465,30.3965 -20.167,47.0555 -4.383,19.723 -4.375,40.304 -3.734,60.499 0.362,11.42 1.924,23.241 6.722,33.611 28.744,62.123 73.306,106.418 123.239,151.621 7.838,7.095 55.794,38.204 53.778,49.296 -1.612,8.865 -17.467,7.413 -21.661,7.469 -14.19,0.189 -28.394,0.591 -42.573,0 C 284.583,437.344 237.5,391.128 184.728,347.04 167.901,332.982 160.08,330.888 160.08,308.201 c 0,-6.473 0.984,-13.022 0,-19.42 -0.276,-1.791 -1.494,-7.041 -1.494,-5.228 0,18.847 15.417,40.642 25.395,56.018 33.193,51.15 62.215,94.745 120.998,116.517"
         inkscape:connector-curvature="0"
         style="opacity:1;fill:none;stroke:#000000;stroke-width:10.35000038;stroke-linecap:round;stroke-linejoin:round" /><path
         id="path30"
         d="m 378.923,140.894 c 24.013,0 49.306,-4.579 70.209,10.457 8.148,5.86 16.717,12.179 21.66,20.913 3.069,5.421 6.054,15.411 0.747,18.673 -21.802,13.399 -47.905,18.155 -72.45,25.395 -10.167,2.999 -20.779,4.759 -31.37,5.228 -17.666,0.782 -36.032,3.385 -53.03,-1.494 -11.25,-3.229 -21.322,-11.805 -27.635,-21.66 -4.731,-7.385 -3.353,-17.379 -2.988,-26.142 0.438,-10.516 18.772,-22.203 22.407,-26.142 0.676,-0.731 0.945,-2.672 0,-2.987 -11.205,-3.735 -31.206,3.79 -37.345,9.71 -8.097,7.807 -14.16,18.732 -15.685,29.876 -1.876,13.709 1.207,28.09 5.975,41.08 2.736,7.453 9.398,13.077 15.685,17.925 14.547,11.217 30.003,21.416 46.308,29.877 27.475,14.255 59.93,15.94 88.882,26.888 11.672,4.414 22.808,10.538 32.864,17.926 9.249,6.795 2.672,23.985 -2.241,34.357 -3.179,6.713 -9.079,11.791 -14.191,17.179 -13.328,14.049 -26.351,28.507 -41.08,41.08 -24.05,20.531 -62.831,24.756 -81.412,-3.734 -4.076,-6.25 -9.197,-12.724 -9.71,-20.167 -2.515,-36.465 5.535,-73.654 17.179,-108.301 5.543,-16.495 12.014,-32.679 17.178,-49.296 0.592,-1.902 1.921,-5.448 0,-5.975 -44.252,-12.148 -100.365,-2.286 -141.912,9.71 -32.843,9.483 -60.498,33.819 -84.4,58.258 -7.0172,7.175 -12.5471,16.395 -14.9379,26.142 -4.226,17.229 -7.4608,35.542 -4.4815,53.03 2.9381,17.245 12.8458,32.692 21.6604,47.802 11.596,19.879 37.341,28.085 59.005,35.852 32.558,11.671 68.058,12.505 102.326,17.178 10.434,1.423 20.858,3.116 31.37,3.735 14.915,0.877 29.879,1.116 44.815,0.747 5.279,-0.131 12.129,1.664 15.685,-2.241 10.209,-11.21 16.476,-25.631 22.407,-39.586 16.088,-37.856 -20.192,-91.343 -29.876,-128.468 -4.924,-18.872 -9.56,-37.818 -14.192,-56.764 -0.34,-1.393 -4.567,-19.136 -2.987,-20.914 2.889,-3.249 8.531,-1.743 12.697,-2.987 15.014,-4.485 29.466,-11.04 44.815,-14.192 12.719,-2.611 25.854,-2.987 38.839,-2.987 4.834,0 10.979,-0.626 14.191,2.987 42.79,48.139 24.468,113.068 41.08,169.548 4.789,16.284 36.946,27.191 41.826,5.228 8.638,-38.868 3.644,-72.012 -3.734,-110.542 -4.796,-25.044 -8.933,-50.217 -12.698,-75.437"
         inkscape:connector-curvature="0"
         style="opacity:1;fill:none;stroke:#000000;stroke-width:10.35000038;stroke-linecap:round;stroke-linejoin:round" /><path
         id="path32"
         d="m 106.303,183.468 c -23.8098,25.329 -47.8533,51.498 -64.2341,82.159 -3.8151,7.141 2.1332,17.081 11.2035,15.685 19.4694,-2.995 40.0969,-5.934 56.7646,-16.432 29.41,-18.523 52.996,-45.022 78.425,-68.715 25.633,-23.882 48.488,-50.689 74.691,-73.943 13.745,-12.2 29.252,-22.3411 44.814,-32.1174 4,-2.5128 14.418,-9.1039 13.444,-4.4814 -1.708,8.1132 -10.393,12.9918 -16.432,18.6728 -23.373,21.986 -48.002,42.601 -71.702,64.234 -36.02,32.877 -69.923,68.002 -104.567,102.326 -5.129,5.081 -10.765,9.653 -15.685,14.938 -1.835,1.971 -6.704,8.243 -4.482,6.722 67.222,-45.994 126.727,-101.61 194.196,-147.14 13.572,-9.159 28.442,-16.319 43.32,-23.154 3.683,-1.693 12.287,-6.28 11.951,-2.241 -0.671,8.051 -7.897,14.293 -13.445,20.166 -28.406,30.078 -59.893,57.155 -88.134,87.388 -31.8,34.043 -62.891,68.84 -91.87,105.314 -14.433,18.166 -26.556,38.127 -38.092,58.258 -1.361,2.376 -2.299,6.728 0,8.216 3.554,2.3 8.791,1.628 12.698,0 11.43,-4.763 22.749,-10.573 32.116,-18.672 23.971,-20.727 45.047,-44.585 67.222,-67.222 34.136,-34.847 69.109,-68.986 106.06,-100.832 15.672,-13.506 30.956,-27.577 47.802,-39.586 8.432,-6.011 19.209,-20.21 27.636,-14.191 7.499,5.356 -10.862,14.951 -17.179,21.66 -25.828,27.43 -52.959,53.604 -79.172,80.666 -27.566,28.459 -56.012,56.126 -82.159,85.894 -6.341,7.218 -21.913,18.041 -14.939,24.648 7.553,7.155 20.173,-5.911 29.13,-11.204 13.16,-7.777 24.632,-18.122 36.598,-27.635 28.123,-22.359 54.933,-46.382 83.653,-67.969 10.445,-7.85 21.955,-14.263 33.611,-20.166 7.591,-3.845 15.78,-6.425 23.901,-8.963 0.475,-0.148 0.309,1.104 0,1.494 -15.942,20.111 -31.928,40.199 -48.549,59.752 -13.016,15.313 -27.793,29.109 -40.333,44.815 -12.153,15.222 -22.407,31.868 -33.61,47.801"
         inkscape:connector-curvature="0"
         style="opacity:1;fill:none;stroke:#000000;stroke-width:10.35000038;stroke-linecap:round;stroke-linejoin:round" /><path
         id="path34"
         d="m 230.289,125.956 c 0,8.925 3.194,19.46 10.457,24.648 12.967,9.262 26.203,20.013 41.826,23.154 33.741,6.783 68.775,3.143 103.073,5.975 33.822,2.793 73.1,6.626 97.098,30.623 10.114,10.115 19.984,22.501 22.407,36.599 3.349,19.483 0.346,40.274 -5.975,59.005 -7.416,21.974 -20.199,42.132 -34.358,60.499 -30.379,39.411 -64.744,59.954 -108.301,82.16 -32.923,16.784 -70.607,27.606 -107.554,26.889 -24.196,-0.47 -45.669,-22.654 -58.259,-43.321 -4.75,-7.798 -4.845,-17.766 -5.228,-26.888 -0.868,-20.653 -0.393,-41.41 1.493,-61.994 0.866,-9.44 3.56,-18.698 6.723,-27.635 21.602,-61.052 93.493,-62.894 146.393,-75.437 37.915,-8.991 61.508,-40.429 82.16,-70.956 2.995,-4.428 5.975,-9.059 7.469,-14.192 2.538,-8.724 6.822,-18.109 4.481,-26.888 -3.007,-11.276 -9.233,-23.437 -19.42,-29.1295 C 397.8,89.5817 377.42,86.7878 358.01,85.6232 c -18.526,-1.1116 -37.49,1.4059 -55.271,6.7221 -7.271,2.1737 -13.012,8.5967 -17.179,14.9377 -6.072,9.24 2.241,22.038 4.481,32.864"
         inkscape:connector-curvature="0"
         style="opacity:1;fill:none;stroke:#000000;stroke-width:10.35000038;stroke-linecap:round;stroke-linejoin:round" /><path
         id="path36"
         d="m 123.482,270.856 c 0,20.02 3.266,40.626 11.203,59.005 4.9,11.348 8.13,24.443 17.179,32.864 34.671,32.266 71.825,62.363 112.036,87.388 8.032,4.999 19.018,1.347 28.382,0 27.113,-3.9 53.941,-9.677 80.666,-15.685 12.834,-2.885 25.989,-10.925 34.357,-20.914 9.455,-11.284 2.593,-24.872 -7.469,-33.61 -13.35,-11.594 -29.325,-19.853 -44.814,-28.383 -47.638,-26.235 -97.826,-41.902 -146.393,-65.727 -7.38,-3.62 -14.678,-8.073 -20.167,-14.191 -9.915,-11.054 -18.903,-23.244 -25.395,-36.599 -2.505,-5.155 -3.245,-12.02 -0.746,-17.179 14.484,-29.902 50.209,-46.096 81.412,-57.511 10.959,-4.01 22.689,-6.626 34.358,-6.722 18.778,-0.156 38.413,-0.559 56.018,5.975 8.311,3.084 14.598,12.239 16.432,20.913 4.895,23.161 4.121,47.31 2.987,70.956 -1.55,32.341 -13.698,63.413 -17.179,95.604 -0.909,8.416 -2.601,17.339 0,25.395 5.304,16.423 12.941,32.396 23.154,46.308 4.702,6.403 12.417,10.956 20.167,12.697 15.078,3.389 31.098,4.975 46.308,2.241 8.09,-1.454 14.088,-8.658 20.166,-14.191 20.538,-18.699 44.857,-42.503 47.802,-72.45 0.603,-6.13 0.259,-13.993 -4.481,-17.926 -43.514,-36.097 -95.825,-49.631 -147.14,-68.715 -14.127,-5.254 -28.244,-10.645 -41.827,-17.179 -5.419,-2.606 -20.634,-9.486 -20.913,-19.419 -0.421,-14.951 -1.092,-30.234 2.24,-44.815 2.755,-12.052 8.974,-23.227 15.685,-33.61 23.422,-36.238 43.564,-38.649 82.16,-24.648 17.211,6.243 37.088,8.769 50.789,20.913 10.034,8.893 15.394,23.946 14.939,37.345 -0.848,24.925 -13.222,48.114 -18.673,72.45 -1.533,6.842 -6.447,15.305 -2.241,20.913 3.585,4.781 12.173,1.615 17.926,0 8.791,-2.467 16.914,-7.097 24.648,-11.95 5.079,-3.187 10.555,-6.697 13.444,-11.951 8.288,-15.069 18.204,-30.646 19.42,-47.801 1.148,-16.206 -5.432,-32.525 -12.698,-47.055 -5.307,-10.615 -25.799,-8.651 -33.61,-8.963"
         inkscape:connector-curvature="0"
         style="opacity:1;fill:none;stroke:#000000;stroke-width:10.35000038;stroke-linecap:round;stroke-linejoin:round" /><path
         id="path38"
         d="m 171.283,173.758 c -29.549,26.863 -45.144,70.781 -17.178,106.06 9.748,12.298 20.911,24.676 35.104,31.37 13.407,6.324 29.257,5.363 44.068,5.976 45.035,1.863 90.448,-8.456 135.189,-2.988 21.828,2.668 44.395,7.016 63.487,17.926 13.646,7.797 24.338,21.446 30.623,35.851 6.213,14.238 7.6,30.956 5.229,46.308 -2.521,16.316 -10.767,31.501 -19.42,45.562 -5.536,8.995 -13.718,16.401 -22.407,22.407 -21.012,14.522 -49.899,13.039 -75.437,13.444"
         inkscape:connector-curvature="0"
         style="opacity:1;fill:none;stroke:#000000;stroke-width:10.35000038;stroke-linecap:round;stroke-linejoin:round" /><path
         id="path40"
         d="m 266.14,381.398 c 59.082,-9.09 160.429,-19.974 175.523,-92.617 1.364,-6.563 -4.508,-12.658 -7.469,-18.672 -5.02,-10.197 -11.868,-19.467 -16.432,-29.876 -9.654,-22.019 -15.39,-45.718 -26.142,-67.222 -22.56,-45.121 -92.612,-39.201 -126.973,-16.432 -8.557,5.67 -14.338,14.982 -19.42,23.901 -7.234,12.697 -15.177,25.858 -17.179,40.333 -1.406,10.168 -0.94,23.989 7.469,29.876 16.978,11.885 39.418,13.177 59.753,17.179 26.603,5.236 53.808,6.74 80.665,10.457 12.732,1.761 25.6,2.956 38.093,5.975 17.454,4.218 36.495,5.876 51.536,15.685 9.442,6.158 14.274,18.237 17.179,29.129 2.317,8.69 1.755,18.831 -2.241,26.889 -11.319,22.827 -25.656,44.434 -42.573,63.487 -9.17,10.327 -21.632,17.79 -34.358,23.154 -17.808,7.506 -36.733,13.694 -56.018,14.938 -12.534,0.808 -25.194,-3.7 -36.598,-8.963 -5.444,-2.513 -11.126,-7.505 -11.951,-13.444 -5.119,-36.857 -2.535,-80.312 20.167,-109.795 10.132,-13.16 23.38,-24.411 38.092,-32.117 7.281,-3.814 16.43,-0.569 24.648,-0.747 4.734,-0.103 21.297,1.667 22.407,-6.722 1.945,-14.696 -0.347,-30.354 -5.975,-44.068 -8.368,-20.385 -20.969,-39.113 -35.105,-56.018 -10.327,-12.349 -24.647,-20.728 -37.345,-30.623 -6.484,-5.052 -12.582,-11.023 -20.167,-14.191 -12.371,-5.168 -25.47,-11.474 -38.839,-10.457 -11.215,0.854 -21.748,7.911 -29.876,15.685 -4.276,4.091 -5.16,11.3 -4.481,17.179 0.895,7.763 1.974,18.166 8.963,21.661 9.8,4.9 22.285,2.112 32.863,-0.747 8.535,-2.307 14.325,-10.609 22.407,-14.192 13.965,-6.188 28.053,-14.482 43.321,-14.938 19.328,-0.577 38.666,5.143 56.765,11.951 9.647,3.629 17.472,11.273 24.648,18.672 8.908,9.187 20.887,18.029 23.154,30.624 2.664,14.803 -3.983,30.158 -9.71,44.067 -12.279,29.82 -37.189,52.726 -54.524,79.919 -2.337,3.666 -7.496,8.24 -5.228,11.95 2.351,3.848 8.968,2.044 13.444,1.494 25.185,-3.093 29.804,-8.448 52.283,-4.481"
         inkscape:connector-curvature="0"
         style="opacity:1;fill:none;stroke:#000000;stroke-width:10.35000038;stroke-linecap:round;stroke-linejoin:round" /><path
         id="path42"
         d="m 108.543,247.702 c -16.0456,-36.469 -17.4695,-73.393 14.192,-101.58 14.467,-12.879 28.724,-26.979 46.308,-35.104 19.295,-8.916 40.795,-13.368 61.993,-14.9382 6.885,-0.51 13.983,3.8955 18.672,8.9632 11.209,12.113 18.403,27.401 27.636,41.079 10.863,16.094 25.734,31.697 44.067,38.093 39.718,13.855 67.108,-14.772 76.932,-50.79 2.959,-10.851 5.658,-22.685 2.987,-33.6106 C 394.51,71.9137 364.924,51.1257 337.843,41.5558 294.615,26.2798 233.966,25.1956 191.45,43.7965 c -14.692,6.4278 -29.286,13.4289 -42.574,22.4071 -14.043,9.4885 -17.24,25.5502 -19.419,41.0794 -0.762,5.43 -2.581,12.075 0.747,16.432 26.786,35.078 76.234,37.257 115.023,44.068 74.426,13.067 166.024,26.12 174.776,118.011 2.389,25.091 -14.214,49.714 -29.876,69.462 -6.579,8.294 -15.093,15.041 -23.901,20.913 -60.651,40.434 -139.023,80.155 -213.615,53.03 -27.555,-10.02 -40.583,-41.723 -47.802,-66.474 -2.44,-8.365 -1.559,-17.568 0,-26.142 3.457,-19.013 7.46,-38.198 14.938,-56.018 4.413,-10.515 12.474,-19.217 20.166,-27.635 36.044,-39.444 87.11,-28.268 134.443,-36.598 20.639,-3.633 41.4,-7.464 61.247,-14.192 24.259,-8.223 44.074,-30.74 57.511,-50.789 7.193,-10.733 11.758,-23.06 16.432,-35.105 1.837,-4.734 4.662,-10.144 2.988,-14.938 -4.125,-11.8109 -9.986,-23.9001 -19.42,-32.1167 -7.067,-6.1553 -17.589,-7.0536 -26.888,-8.216 -14.825,-1.8531 -29.997,-2.6553 -44.815,-0.7469 -18.326,2.3602 -37.485,4.7268 -53.777,13.4443 -13.195,7.0604 -23.335,19.4915 -31.37,32.1173 -9.706,15.252 -15.851,32.686 -20.913,50.042 -2.022,6.932 -3.793,15.517 0,21.66 9.434,15.284 23.382,27.543 37.345,38.84 26.692,21.593 63.862,25.749 97.098,34.357 34.435,8.919 69.544,15.755 103.073,27.636 15.499,5.492 61.026,29.72 64.98,48.548 3.89,18.525 6.694,38.565 1.494,56.765 -6.193,21.678 -21.302,39.878 -34.357,58.259 -6.016,8.469 -13.823,15.81 -22.408,21.66 -30.273,20.629 -61.821,43.389 -97.844,50.043 -26.798,4.95 -54.179,8.447 -81.413,7.469 -34.233,-1.23 -58.435,-19.893 -83.653,-40.333 -10.945,-8.871 -21.104,-18.744 -30.623,-29.129 -6.965,-7.599 -18.875,-14.343 -18.673,-24.648 0.154,-7.872 12.117,-10.503 19.42,-13.445 10.922,-4.399 22.666,-6.813 34.357,-8.215 42.8,-5.136 86.108,-5.229 129.215,-5.229 6.478,0 16.522,-5.047 19.419,0.747 0.051,0.102 -1.728,4.154 -0.747,4.482 4.311,1.436 9.231,3.939 13.445,2.24 19.679,-7.935 37.592,-19.445 44.067,-40.333 5.581,-18.004 9.764,-36.548 11.951,-55.271 1.819,-15.579 1.893,-31.484 0,-47.055 -0.428,-3.512 -3.184,-8.216 -6.723,-8.216 -11.05,0 -24.573,0.141 -32.116,8.216 -12.029,12.876 -16.278,31.55 -20.914,48.549 -2.951,10.82 -3.375,22.555 -1.494,33.611 4.155,24.411 7.671,49.906 19.42,71.703 7.946,14.742 24.495,22.87 37.345,33.611 3.868,3.233 8.465,5.477 12.698,8.215"
         inkscape:connector-curvature="0"
         style="opacity:1;fill:none;stroke:#000000;stroke-width:10.35000038;stroke-linecap:round;stroke-linejoin:round" /><path
         id="path44"
         d="m 157.839,131.931 c -10.218,14.521 -21.689,25.864 -20.913,45.561 0.921,23.397 3.942,46.972 10.456,69.463 4.091,14.123 11.667,27.406 20.914,38.839 18.379,22.723 38.823,43.995 61.246,62.74 9.824,8.212 21.874,14.329 34.358,17.179 33.812,7.718 68.997,7.736 103.073,14.191 22.548,4.271 45.358,8.937 66.474,17.925 16.202,6.897 33.503,15.043 44.067,29.13 11.527,15.368 19.54,35.332 18.673,54.524 -0.989,21.892 -8.203,45.954 -23.901,61.246 -15.968,15.555 -41.292,17.077 -62.74,23.154 -55.692,15.78 -114.131,25.052 -171.788,21.66"
         inkscape:connector-curvature="0"
         style="opacity:1;fill:none;stroke:#000000;stroke-width:10.35000038;stroke-linecap:round;stroke-linejoin:round" /><path
         id="path46"
         d="m 118.253,421.73 c 0,-17.427 16.869,-32.159 31.37,-41.826 13.788,-9.192 44.871,-13.201 59.753,-14.938 111.061,-12.967 205.489,-8.311 271.873,-112.036 9.186,-14.353 17.589,-29.761 21.66,-46.308 3.809,-15.48 8.818,-33.642 1.494,-47.802 -9.256,-17.895 -27.884,-30.688 -46.308,-38.839 -23.934,-10.589 -50.834,-13.716 -76.931,-15.685 -27.089,-2.045 -55.003,-2.631 -81.413,3.734 -23.165,5.584 -44.435,18.112 -64.234,31.37 -8.691,5.82 -15.148,15.1 -19.419,24.648 -8.619,19.265 -18.913,39.396 -18.673,60.499 0.28,24.588 6.41,50.576 20.167,70.956 14.466,21.432 38.602,34.797 60.499,48.549 19.246,12.088 41.59,18.37 61.993,28.383 9.757,4.788 43.504,23.506 32.864,40.333 -34.429,54.446 -91.709,80.729 -147.887,108.301 -12.164,5.97 -24.827,11.427 -38.093,14.191 -16.881,3.517 -34.296,4.841 -51.536,4.481 -7.009,-0.146 -15.439,-0.797 -20.166,-5.975 -11.891,-13.023 -21.0199,-28.932 -26.889,-45.561 -3.3973,-9.626 -2.6937,-20.777 0,-30.623 4.6762,-17.093 11.621,-33.947 21.66,-48.549 4.234,-6.158 12.111,-9.643 19.42,-11.204 15.37,-3.281 31.34,-2.764 47.055,-2.987 19.424,-0.276 39.248,5.49 58.258,1.494 25.699,-5.403 50.646,-15.675 73.197,-29.13 8.184,-4.882 12.119,-15.064 15.685,-23.901 7.987,-19.792 14.956,-40.229 18.673,-61.246 3.559,-20.127 8.603,-41.593 2.987,-61.246 -5.446,-19.063 -17.706,-37.789 -34.357,-48.549 -18.01,-11.637 -41.31,-14.879 -62.74,-14.191 -26.375,0.846 -53.497,6.542 -76.932,18.673 -20.334,10.525 -37.741,27.743 -50.042,47.055 -11.634,18.264 -15.532,40.69 -19.42,61.993 -4.9417,27.082 1.283,53.141 15.685,76.184 7.014,11.221 14.219,24.136 26.142,29.876 23.122,11.133 49.072,17.166 74.69,18.673 26.05,1.532 51.757,-6.712 77.679,-9.71 32.16,-3.719 65.258,-8.106 97.097,-2.241 17.234,3.175 32.912,12.257 48.549,20.167 12.067,6.104 25.974,22.562 27.636,35.851 1.259,10.078 -0.751,21.168 -5.976,29.876 -5.808,9.681 -15.607,16.782 -25.394,22.408 -22.116,12.712 -44.965,25.004 -69.463,32.116 -22.391,6.501 -46.219,6.377 -69.462,8.216 -11.417,0.904 -23.493,3.622 -34.357,0 -21.342,-7.113 -45.806,-13.72 -59.753,-31.37 -16.401,-20.755 -19.057,-49.58 -24.648,-75.437 -2.473,-11.44 -4.015,-24.413 0.747,-35.104 8.024,-18.013 19.332,-36.287 35.852,-47.056 18.879,-12.306 43.005,-13.672 64.98,-18.672 25.145,-5.721 51.816,-5.009 76.185,-13.444 21.595,-7.476 41.097,-20.412 59.752,-33.611 41.806,-29.58 65.073,-151.212 -5.975,-162.825 -34.645,-5.664 -88.179,-0.907 -120.999,4.481 -11.272,1.851 -23.095,3.789 -32.864,9.71 -7.415,4.494 -15.605,11.535 -16.431,20.166 -1.62,16.915 3.142,34.371 9.709,50.043 4.719,11.261 12.058,23.289 23.154,28.382 20.99,9.635 44.883,14.104 67.969,13.445 13.367,-0.382 24.226,-11.357 36.598,-16.432 16.769,-6.88 32.834,-16.943 50.79,-19.42 12.092,-1.668 24.394,3.257 35.851,7.469 18.612,6.843 29.291,28.187 37.345,46.308 2.536,5.706 2.908,12.591 1.494,18.673 -3.657,15.725 -6.812,32.595 -16.432,45.561 -8.435,11.369 -22.697,17.086 -35.104,23.901 -21.399,11.754 -47.672,10.631 -71.703,14.938 -8.461,1.517 -16.859,3.471 -25.395,4.482 -10.411,1.232 -22.906,8.426 -31.37,2.24 -8.483,-6.199 -7.745,-20.12 -7.469,-30.623 0.242,-9.208 4.269,-18.215 8.963,-26.142 6.676,-11.275 15.121,-21.626 24.648,-30.623 11.194,-10.572 30.349,-8.562 42.573,-17.925 4.862,-3.724 10.184,-10.633 8.216,-16.432 -3.627,-10.691 -12.095,-20.801 -22.407,-25.395 -18.511,-8.246 -39.503,-10.43 -59.752,-11.204 -19.287,-0.737 -39.447,-0.073 -57.512,6.723 -10.546,3.966 -17.996,14.305 -23.901,23.901 -2.61,4.24 -2.882,10.877 0,14.938 8.765,12.35 18.795,25.765 32.864,31.37 18.343,7.307 39.26,5.383 59.005,5.228 29.51,-0.232 57.916,-12.672 87.388,-14.191 7.12,-0.367 15.501,-0.159 20.914,4.481 3.402,2.917 2.809,9.953 0,13.444 -14.352,17.831 -31.949,32.87 -49.296,47.802 -22.044,18.975 -44.515,37.644 -68.715,53.778 -8.196,5.463 -18.319,13.651 -27.636,10.456 -19.878,-6.815 -33.86,-24.897 -50.789,-37.345"
         inkscape:connector-curvature="0"
         style="opacity:1;fill:none;stroke:#000000;stroke-width:10.35000038;stroke-linecap:round;stroke-linejoin:round" /><path
         id="path48"
         d="m 131.697,180.48 c -13.674,23.551 -22.255,52.019 -20.166,79.172 0.873,11.343 6.416,22.424 13.444,31.37 15.228,19.38 32.774,37.223 52.284,52.283 9.369,7.233 21.132,11.875 32.863,13.445 24.185,3.236 48.924,3.236 73.197,0.747 45.466,-4.664 90.757,-24.829 135.937,-17.926 15.77,2.409 32.559,7.624 44.067,18.672 8.917,8.561 13.371,22.826 11.951,35.105 -2.285,19.748 -11.858,38.421 -22.407,55.271 -7.755,12.386 -19.251,22.459 -31.37,30.623 -24.028,16.185 -48.591,33.002 -76.185,41.827 -22.589,7.224 -47.287,6.728 -70.956,5.228 -12.336,-0.782 -26.632,-2.949 -35.104,-11.95 -20.783,-22.082 -42.578,-47.202 -48.549,-76.932 -6.483,-32.276 3.293,-66.527 13.444,-97.844 2.472,-7.627 13.865,-8.583 21.661,-10.457 18.349,-4.411 37.342,-5.499 56.017,-8.216 22.404,-3.259 45.772,-2.467 67.222,-9.71 17.679,-5.969 34.223,-16.331 47.802,-29.129 8.835,-8.327 13.129,-20.671 17.179,-32.117 1.827,-5.163 1.346,-11.122 0,-16.432 -3.194,-12.598 -5.814,-26.077 -13.445,-36.598 -9.323,-12.854 -21.237,-25.159 -35.851,-31.37 -16.626,-7.066 -35.741,-5.701 -53.777,-6.722 -8.485,-0.48 -17.922,-1.804 -25.395,2.241 -21.566,11.671 -42.883,31.412 -48.549,55.271 -2.834,11.93 -6.376,24.623 -3.734,36.598 1.479,6.707 8.407,12.063 14.938,14.191 47.603,15.511 97.989,3.67 146.393,5.975 16.011,0.763 33.154,-1.281 47.802,5.229 9.558,4.248 15.079,15.131 19.419,24.648 2.48,5.436 2.734,12.612 0,17.925 -10.836,21.06 -24.423,40.811 -39.585,59.006 -20.763,24.915 -56.758,35.124 -88.882,39.586 -18.698,2.597 -30.263,-3.437 -42.574,-17.179 -5.441,-6.075 -12.297,-12.768 -12.697,-20.913 -1.158,-23.535 1.676,-47.572 8.216,-70.21 3.43,-11.875 13.029,-21.102 20.913,-30.623 22.931,-27.689 50.456,-27.537 84.4,-30.623 7.348,-0.668 28.696,0.242 33.611,-6.722 3.736,-5.292 2.331,-13.719 -0.747,-19.419 -4.186,-7.752 -11.851,-13.417 -19.419,-17.926 -16.075,-9.576 -33.023,-18.035 -50.79,-23.901 -9.012,-2.976 -18.899,-2.609 -28.382,-2.241 -22.205,0.863 -54.867,-3.852 -65.728,23.154 -6.449,16.037 -9.092,33.559 -10.457,50.79 -0.659,8.324 -1.604,18.93 4.482,24.648 12.093,11.359 28.224,21.895 44.814,21.66 21.591,-0.306 40.578,-14.823 60.499,-23.154 16.38,-6.85 33.794,-14.056 51.537,-13.444 19.282,0.664 34.394,26.327 26.889,44.067 -6.14,14.511 -15.671,27.385 -24.648,40.333 -28.197,40.668 -80.059,30.572 -120.999,15.685 -18.435,-6.704 -36.606,-14.416 -53.777,-23.901 -8.365,-4.621 -32.271,-21.811 -34.358,-35.852 -1.905,-12.815 -5.469,-27.913 1.494,-38.839 10.761,-16.887 30.206,-26.524 47.055,-37.345 10.508,-6.748 22.502,-11.013 34.358,-14.938 45.068,-14.921 91.863,-25.123 138.924,-31.37 19.273,-2.558 39.121,-3.404 57.512,-9.71 16.463,-5.644 30.987,-23.135 38.092,-37.345 18.724,-37.4482 -8.976,-68.4104 -32.117,-94.8569"
         inkscape:connector-curvature="0"
         style="opacity:1;fill:none;stroke:#000000;stroke-width:10.35000038;stroke-linecap:round;stroke-linejoin:round" /><path
         id="path50"
         d="m 221.326,99.8144 c -8.322,6.8536 -37.875,26.1556 -33.611,41.0796 1.989,6.959 7.222,14.483 14.192,16.432 23.883,6.679 49.19,6.695 73.943,8.216 35.733,2.196 79.123,-1.494 115.024,-1.494 9.749,0 37.369,-4.15 44.814,11.204 2.175,4.486 2.244,10.949 -0.747,14.938 -8.883,11.844 -20.998,21.023 -32.864,29.876 -19.593,14.617 -39.757,28.682 -61.246,40.333 -20.002,10.845 -41.716,18.189 -62.74,26.889 -20.68,8.557 -41.922,17.096 -59.753,30.623 -3.575,2.712 -6.618,6.796 -7.469,11.203 -1.982,10.27 -3.471,21.272 -0.747,31.37 1.794,6.649 7.597,12.05 13.445,15.685 12.967,8.061 27.133,14.52 41.826,18.673 8.629,2.438 17.938,1.273 26.889,0.747 20.724,-1.219 41.52,-2.537 61.993,-5.976 32.715,-5.494 63.186,-20.601 95.604,-27.635 28.496,-6.183 55.482,0.039 56.765,32.117 0.24,6.017 1.153,12.952 -2.241,17.926 -11.526,16.891 -25.569,32.236 -41.08,45.561 -21.8,18.727 -46.216,34.221 -70.209,50.042 -10.417,6.87 -21.909,11.951 -32.864,17.926"
         inkscape:connector-curvature="0"
         style="opacity:1;fill:none;stroke:#000000;stroke-width:10.35000038;stroke-linecap:round;stroke-linejoin:round" /><path
         id="path52"
         d="m 157.092,100.561 c -21.239,9.44 -43.656,20.633 -53.03,44.068 -7.5193,18.798 -13.3677,38.374 -17.1788,58.258 -1.9684,10.27 -3.6318,21.565 0,31.37 6.6733,18.018 15.5748,36.465 29.8758,49.296 13.604,12.205 31.821,20.998 50.043,22.407 31.744,2.455 65.089,0.092 94.857,-11.203 34.867,-13.231 62.284,-41.061 94.11,-60.5 24.431,-14.921 54.283,-22.841 82.906,-22.407 15.676,0.238 31.934,1.96 46.309,8.216 13.334,5.803 24.445,16.247 34.357,26.889 7.305,7.842 12.802,17.551 16.432,27.635 17.444,48.455 -19.536,86.946 -48.549,119.505 -61.171,68.647 -128.024,109.917 -218.843,122.492 -10.358,1.435 -21.23,2.556 -31.37,0 -20.938,-5.277 -42.079,-11.887 -60.499,-23.154 -8.248,-5.044 -12.272,-15.174 -16.432,-23.901 -6.133,-12.865 -13.234,-26.112 -14.191,-40.333 -0.86,-12.773 2.987,-26.023 8.963,-37.345 3.957,-7.499 12.003,-12.319 19.419,-16.432 20.165,-11.182 41.389,-20.424 62.74,-29.129 42.137,-17.179 93.115,-15.165 131.455,-41.08 18.491,-12.498 37.536,-25.075 52.284,-41.826 11.409,-12.961 18.524,-29.417 24.648,-45.562 2.295,-6.052 1.873,-13.223 0,-19.419 -4.712,-15.584 -10.75,-31.035 -19.42,-44.814 -5.532,-8.793 -13.197,-16.855 -22.407,-21.661 -19.971,-10.419 -42.325,-15.436 -63.487,-23.154"
         inkscape:connector-curvature="0"
         style="opacity:1;fill:none;stroke:#000000;stroke-width:10.35000038;stroke-linecap:round;stroke-linejoin:round" /><path
         id="path54"
         d="m 537.267,170.77 c 12.593,19.677 27.626,41.294 33.611,64.234 3.895,14.932 12.032,30.609 8.216,45.561 -8.871,34.759 -26.132,67.221 -44.815,97.845 -6.016,9.862 -17.862,14.754 -27.635,20.913 -19.907,12.547 -39.768,25.492 -61.246,35.105 -24.325,10.887 -56.976,15.798 -79.919,2.241 -12.141,-7.174 -23.823,-16.472 -31.37,-28.383 -8.893,-14.033 -15.578,-30.463 -16.432,-47.055 -0.954,-18.53 4.944,-37.057 11.203,-54.524 24.3,-67.813 104.721,-84.359 85.148,-171.788 -3.694,-16.496 -20.629,-27.87 -35.105,-36.5984 -7.487,-4.5141 -16.061,-7.3235 -24.648,-8.9629 -18.959,-3.6194 -38.222,-7.3919 -57.512,-6.7222 -17.03,0.5914 -33.928,4.9121 -50.042,10.4567 -7.445,2.5616 -14.254,7.5028 -19.42,13.4448 -24.707,28.412 -45.589,63.618 -65.727,95.603"
         inkscape:connector-curvature="0"
         style="opacity:1;fill:none;stroke:#000000;stroke-width:10.35000038;stroke-linecap:round;stroke-linejoin:round" /><path
         id="path56"
         d="m 468.552,492.686 c -28.412,33.823 -58.179,60.948 -103.073,72.45 -13.274,3.401 -28.399,6.685 -41.08,1.494 -36.87,-15.092 -72.295,-35.205 -103.073,-60.499 -13.79,-11.333 -20.621,-29.595 -26.889,-46.308 -2.972,-7.926 -5.821,-19.25 0,-25.395 10.05,-10.609 26.491,-12.497 40.333,-17.179 20.086,-6.794 41.602,-9.198 61.247,-17.179 20.434,-8.301 39.974,-19.035 58.258,-31.37 28.914,-19.505 39.718,-35.214 56.765,-63.487 23.434,-38.866 24.871,-65.445 -14.938,-95.604 -6.747,-5.111 -14.239,-9.729 -22.407,-11.95 -49.512,-13.464 -94.528,-11.951 -144.9,-11.951 -8.465,0 -17.2,2.121 -25.395,0 -13.387,-3.465 -25.394,-10.954 -38.092,-16.431"
         inkscape:connector-curvature="0"
         style="opacity:1;fill:none;stroke:#000000;stroke-width:10.35000038;stroke-linecap:round;stroke-linejoin:round" /><path
         id="path58"
         d="m 148.876,344.052 c 11.818,-26.362 32.158,-48.805 53.777,-67.968 18.032,-15.982 48.646,-18.719 70.21,-16.432 17.311,1.836 33.009,11.345 50.042,14.938 51.507,10.865 86.74,7.93 118.011,-38.092 23.711,-34.895 10.429,-78.228 -7.469,-112.036 -15.769,-29.7864 -46.228,-45.2271 -75.437,-59.0053 -28.864,-13.615 -71.837,-8.2049 -101.579,0"
         inkscape:connector-curvature="0"
         style="opacity:1;fill:none;stroke:#000000;stroke-width:10.35000038;stroke-linecap:round;stroke-linejoin:round" /><path
         id="path60"
         d="m 160.08,234.257 c 15.591,-15.591 31.405,-32.391 56.018,-29.129 14.911,1.976 30.567,3.078 44.067,9.71 35.356,17.368 59.414,53.907 95.604,69.462 9.381,4.032 21.398,3.629 30.623,-0.747 11.612,-5.508 19.689,-16.787 27.636,-26.889 6.892,-8.762 11.659,-19.054 16.431,-29.129 16.587,-35.016 -7.016,-73.793 -26.888,-100.085 -16.236,-21.482 -41.698,-31.2372 -67.222,-37.3454 -13.095,-3.1339 -27.326,-5.7246 -40.332,-2.2407 -16.049,4.2986 -31.044,13.4541 -43.321,24.6481 -5.644,5.145 -6.709,14.061 -7.469,21.66 -1.759,17.589 -5.285,36.162 0,53.03 6.843,21.839 20.747,41.183 35.105,59.006 28.145,34.938 63.871,58.673 101.579,81.412 42.015,25.338 87.551,33.36 94.857,88.882 1.011,7.688 0.901,16.065 -2.241,23.154 -7.787,17.566 -16.951,35.079 -29.876,49.296 -12.461,13.707 -29.165,22.952 -44.815,32.864 -6.877,4.355 -14.377,8.371 -22.407,9.709 -17.709,2.952 -36.166,6.48 -53.777,2.988 -12.607,-2.5 -24.325,-10.56 -32.864,-20.166 -17.891,-20.128 -31.269,-43.946 -44.814,-67.222 -4.238,-7.281 -7.378,-15.518 -8.216,-23.901 -1.191,-11.914 -4.04,-25.657 2.241,-35.851 12.005,-19.488 32.403,-32.357 49.295,-47.802 13.942,-12.747 39.028,-31.47 54.524,-43.321"
         inkscape:connector-curvature="0"
         style="opacity:1;fill:none;stroke:#000000;stroke-width:10.35000038;stroke-linecap:round;stroke-linejoin:round" /><path
         id="path62"
         d="m 107.05,260.399 c 0,51.076 36.335,86.513 77.678,113.529 7.386,4.827 16.574,7.235 25.394,7.47 19.739,0.524 39.748,-0.868 59.006,-5.229 7.748,-1.754 14.901,-6.749 20.166,-12.697 53.437,-60.364 -1.17,-117.425 -29.129,-174.776 -4.707,-9.656 -11.08,-22.12 -7.469,-33.611 3.839,-12.215 8.059,-25.37 17.179,-34.357 9.042,-8.911 22.203,-12.769 34.358,-16.432 20.76,-6.2569 43.795,6.63 62.74,17.179 44.828,24.961 60.711,79.287 97.097,112.035 12.703,11.433 28.546,26.443 47.055,29.13 9.612,1.395 20.01,4.09 29.13,0.747 7.28,-2.67 10.456,-11.453 15.685,-17.179"
         inkscape:connector-curvature="0"
         style="opacity:1;fill:none;stroke:#000000;stroke-width:10.35000038;stroke-linecap:round;stroke-linejoin:round" /><path
         id="path64"
         d="m 375.935,467.292 c 32.577,-2.506 63.213,-30.887 83.654,-53.031 3.854,-4.175 6.887,-9.412 8.216,-14.938 3.466,-14.412 7.331,-29.306 5.975,-44.067 -0.969,-10.548 -5.645,-21.226 -12.697,-29.129 -34.408,-38.561 -94.712,-18.407 -135.19,-8.216 -37.374,9.408 -63.834,22.251 -103.073,20.913 -9.573,-0.326 -20.842,1.425 -28.383,-4.481 -9.119,-7.144 -13.231,-19.49 -16.431,-30.624 -2.684,-9.334 -3.051,-19.693 -0.747,-29.129 5.528,-22.648 14.099,-44.576 23.901,-65.728 4.502,-9.715 10.713,-18.978 18.672,-26.141 12.267,-11.04 25.622,-21.855 41.08,-27.636 15.996,-5.982 33.773,-5.277 50.79,-6.722 56.111,-4.764 98.273,12.103 151.621,-13.444 11.55,-5.531 16.856,-20.417 19.42,-31.37 3.739,-15.9747 -5.461,-29.1159 -17.926,-39.5861 -11.184,-9.3948 -23.827,-18.5193 -38.092,-21.6602 -14.155,-3.1166 -29.461,-0.505 -43.321,3.7345 -22.279,6.8148 -34.833,41.4072 -40.332,57.5118 -2.094,6.13 -2.615,13.216 -0.747,19.419 5.24,17.405 12.451,34.372 21.66,50.043 16.174,27.524 47.876,42.896 75.437,59.006 47.931,28.015 104.425,42.165 123.24,101.579 1.428,4.509 1.04,9.576 0,14.191 -2.978,13.214 -5.033,27.193 -11.951,38.839 -8.374,14.096 -20.03,26.394 -32.864,36.598 -17.848,14.191 -37.678,26.035 -58.258,35.852 -22.962,10.952 -46.941,20.307 -71.703,26.141 -40.757,9.604 -86.329,9.519 -117.264,-23.154 -12.538,-13.242 -23.273,-29.038 -29.129,-46.308 -4.238,-12.496 -2.17,-26.57 0,-39.586 4.099,-24.6 8.907,-49.502 18.672,-72.45 17.833,-41.906 73.652,-58.078 106.061,-81.412 13.008,-9.366 23.403,-21.909 35.104,-32.864"
         inkscape:connector-curvature="0"
         style="opacity:1;fill:none;stroke:#000000;stroke-width:10.35000038;stroke-linecap:round;stroke-linejoin:round" /><path
         id="path66"
         d="m 111.531,251.436 c -12.2428,32.277 -30.5798,105.939 -9.71,139.671 16.453,26.593 31.689,56.007 56.765,74.691 15.625,11.642 38.041,9.722 57.512,10.456 20.497,0.774 40.894,-3.412 61.246,-5.975 13.279,-1.672 26.305,-5.062 39.586,-6.722 4.694,-0.587 10.229,-2.584 14.191,0 10.341,6.744 -5.241,31.827 -14.938,44.814 -6.534,8.751 -14.35,17.112 -23.901,22.408 -16.055,8.901 -33.662,15.232 -51.536,19.419 -31.82,7.453 -64.747,-11.407 -91.123,-23.901 -9.112,-4.316 -17.512,-10.146 -25.395,-16.432 -11.849,-9.45 -26.6108,-17.18 -33.6103,-30.623 -9.4281,-18.108 -10.1509,-39.604 -13.4443,-59.752 -0.9648,-5.902 -2.4357,-12.863 0.7469,-17.926 17.5746,-27.96 45.4737,-45.725 74.6907,-59.006 60.937,-27.698 136.248,-13.156 193.448,-50.042 45.72,-29.483 87.996,-83.988 68.715,-141.165 -8.674,-25.725 -38.736,-38.295 -60.499,-54.5243"
         inkscape:connector-curvature="0"
         style="opacity:1;fill:none;stroke:#000000;stroke-width:10.35000038;stroke-linecap:round;stroke-linejoin:round" /><path
         id="path68"
         d="m 290.041,202.14 c -0.745,3.728 -5.839,25.167 -1.493,27.636 30.522,17.342 58.461,7.251 88.881,19.419 7.954,3.182 17.878,6.928 20.914,14.938 6.654,17.56 6.506,37.247 5.975,56.018 -0.637,22.505 -19.339,42.31 -36.599,56.765 -19.314,16.176 -44.352,20.262 -67.968,24.648 -14.212,2.639 -31.18,2.695 -43.32,-7.469 -4.723,-3.954 -4.072,-11.78 -4.482,-17.926 -0.845,-12.671 -3.97,-26.3 0.747,-38.092 3.481,-8.702 13.761,-12.883 21.66,-17.926 29.499,-18.829 77.081,2.273 102.326,-28.382 24.32,-29.531 0.945,-71.073 -26.888,-89.629 -2.563,-1.708 -5.884,-2.24 -8.963,-2.24 -21.596,0 -20.128,12.96 -21.66,32.117 -2.992,37.39 18.7,57.088 39.586,84.4 4.212,5.509 15.77,25.124 9.709,32.117 -15.231,17.575 -49.688,40.504 -72.449,42.573 -8.682,0.79 -21.774,6.798 -26.142,-0.747 -13.575,-23.448 14.483,-33.373 29.876,-43.32 38.727,-25.024 81.795,-33.228 84.4,-86.641 0.17,-3.481 1.832,-7.491 0,-10.457 -6.523,-10.562 -50.267,-36.066 -59.752,-22.407 -16.273,23.434 -8.4,55.161 6.722,76.184 11.122,15.463 83.61,18.862 76.931,47.802 -14.671,63.575 -72.404,96.558 -133.696,105.314 -16.313,2.33 -34.344,-9.102 -44.067,-22.407 -7.583,-10.377 -12.02,-23.184 -14.191,-35.852 -3.876,-22.609 -4.758,-45.799 -3.735,-68.715 0.393,-8.794 10.659,-15.03 18.673,-18.673 12.873,-5.851 25.346,-12.548 38.092,-18.672 18.586,-8.931 23.967,-9.171 40.333,-23.901 6.316,-5.685 -5.585,-18.429 -13.444,-21.66 -16.485,-6.777 -34.646,-8.635 -52.284,-11.204 -8.13,-1.184 -16.587,-1.591 -24.648,0 -13.784,2.721 -36.914,6.866 -36.598,20.913 0.427,19.022 1.896,38.182 5.975,56.765 6.614,30.128 23.751,57.724 42.574,82.16 8.732,11.336 35.778,11.377 44.814,11.95 22.967,1.458 49.757,-9.422 63.487,-28.382 2.171,-2.998 6.266,-7.757 3.735,-10.457 -3.423,-3.651 -9.951,-1.905 -14.939,-1.494 -19.266,1.589 -38.361,4.828 -57.511,7.469 -28.619,3.948 -58.757,5.317 -86.641,-2.24 -8.664,-2.349 -16.512,-8.169 -22.407,-14.938 -9.835,-11.293 -26.924,-38.62 -17.179,-56.765 11.003,-20.488 27.343,-37.697 42.573,-55.271 27.893,-32.184 64.809,-54.438 102.326,-73.197"
         inkscape:connector-curvature="0"
         style="opacity:1;fill:none;stroke:#000000;stroke-width:10.35000038;stroke-linecap:round;stroke-linejoin:round" /><path
         id="path70"
         d="m 166.802,173.758 c -6.495,16.599 -14.69,36.845 -11.204,55.271 2.284,12.069 0.279,29.491 11.204,35.104 20.912,10.744 46.705,7.249 70.209,6.723 10.395,-0.233 19.78,-6.482 29.876,-8.963 43.712,-10.743 70.481,-18.521 115.771,-12.698 36.702,4.719 82.606,19.974 91.869,60.5 1.886,8.252 2.972,17.468 0,25.394 -7.744,20.652 -19.173,39.882 -31.37,58.259 -6.623,9.979 -14.782,19.353 -24.648,26.142 -17.615,12.12 -36.205,24.002 -56.765,29.876 -18.697,5.342 -39.021,5.821 -58.258,2.988 -13.781,-2.03 -27.071,-8.663 -38.093,-17.179 -16.86,-13.029 -34.277,-27.382 -44.067,-46.308 -16.964,-32.798 -26.154,-69.311 -34.358,-105.314 -3.314,-14.548 34.003,-25.166 53.778,-28.382 46.215,-7.517 94.223,-3.674 139.671,-14.938 8.98,-2.226 18.852,-4.662 25.395,-11.204 4.109,-4.11 5.92,-12.161 2.987,-17.179 -9.16,-15.674 -21.371,-30.448 -36.598,-40.333 -14.202,-9.219 -32.02,-11.265 -48.549,-14.938 -20.527,-4.561 -41.545,-2.274 -38.092,23.154 2.011,14.807 2.265,30.362 8.216,44.068 2.757,6.349 9.818,10.653 16.432,12.697 29.586,9.145 61.818,-16.116 86.641,-26.889 2.067,-0.897 19.592,-0.137 19.419,0 -11.32,9.056 -33.108,6.833 -46.308,5.976 -12.731,-0.827 -25.498,-1.693 -38.092,-3.735 -6.447,-1.045 -30.403,-9.952 -35.851,-11.95 -1.259,-0.462 -4.479,-0.379 -3.735,-1.494 3.221,-4.832 43.714,2.763 56.018,3.734 4.716,0.373 18.663,1.542 14.191,0 -18.06,-6.227 -23.551,-8.766 -41.827,-11.203 -10.815,-1.442 -12.161,0.05 -20.913,-1.494 -2.022,-0.357 -7.811,-0.576 -5.975,-1.494 4.943,-2.471 20.663,3.286 23.154,3.735 7.659,1.378 15.435,1.998 23.154,2.987 1.991,0.256 3.991,0.442 5.975,0.747 1.255,0.193 4.84,1.372 3.735,0.747 -6.785,-3.835 -13.977,-6.903 -20.914,-10.457 -2.453,-1.256 -14.041,-8.216 -17.925,-8.216 -1.595,0 2.495,1.985 3.734,2.988 3.989,3.23 7.577,7.024 11.951,9.71 9.872,6.062 20.799,10.292 30.623,16.432 14.663,9.164 44.409,44.367 34.357,65.727 -5.338,11.345 -24.808,4.645 -37.345,4.482 -17.168,-0.223 -42.837,-2.504 -56.018,-15.685 -0.393,-0.394 0.971,-0.938 1.494,-0.747 9.856,3.606 19.281,8.322 29.129,11.95 11.415,4.206 16.82,4.35 29.13,5.229 13.059,0.933 -5.285,-9.031 -5.229,-8.963 21.636,25.963 34.757,16.995 26.889,50.043"
         inkscape:connector-curvature="0"
         style="opacity:1;fill:none;stroke:#000000;stroke-width:10.35000038;stroke-linecap:round;stroke-linejoin:round" /><path
         id="path72"
         d="m 216.098,202.887 c -23.333,27.575 -41.555,67.125 -27.636,103.82 2.002,5.278 7.504,13.414 12.698,11.204 10.56,-4.494 16.603,-16.241 22.407,-26.142 7.061,-12.045 8.971,-26.597 15.685,-38.839 1.963,-3.58 5.637,-7.767 9.71,-7.469 25.531,1.868 42.188,30.115 58.258,50.042 13.445,16.672 24.223,35.358 37.345,52.284 10.489,13.529 14.672,14.079 27.636,23.154 0.577,0.404 2.124,1.179 1.494,1.494 -18.459,9.229 -42.721,19.143 -63.487,21.66 -10.384,1.259 -21.495,4.195 -31.37,0.747 -11.791,-4.118 -20.6,-24.919 -17.179,-27.636 23.184,-18.411 60.691,-12.403 86.641,-26.141 0.907,-0.481 -1.979,-0.939 -2.988,-0.747 -9.551,1.819 -19.119,3.768 -28.382,6.722 -7.974,2.542 -16.267,4.954 -23.154,9.71 -7.588,5.239 -13.702,21.403 -5.975,29.129 5.694,5.694 8.969,5.228 16.432,5.228 0.995,0 3.784,0.598 2.987,0 -14.736,-11.052 -27.231,-23.953 -44.067,-32.117 -3.121,-1.512 -6.406,-2.683 -9.71,-3.734 -2.187,-0.696 -8.345,-3.117 -6.722,-1.494 14.389,14.389 52.202,20.837 68.715,24.648 1.019,0.235 24.057,2.922 24.648,2.988 0.247,0.027 0.996,0 0.747,0 -16.723,0 -27.851,0.593 -45.561,2.24 -2.286,0.213 -6.621,4.397 -4.482,5.229 14.198,5.521 41.89,2.915 52.284,-8.963 5.638,-6.444 -19.907,-11.918 -26.142,-12.698 -1.976,-0.247 -6.892,-1.768 -5.975,0 3.656,7.052 7.226,14.408 12.697,20.167 10.456,11.006 23.376,9.359 35.105,17.179 2.503,1.668 -6.669,1.155 -8.216,3.734 -0.897,1.495 0,5.228 0,5.228 0,0 -0.17,-13.006 0.747,-19.419"
         inkscape:connector-curvature="0"
         style="opacity:1;fill:none;stroke:#000000;stroke-width:10.35000038;stroke-linecap:round;stroke-linejoin:round" /><path
         id="path74"
         d="m 195.184,258.158 c -7.583,21.991 -19.983,54.001 -13.444,77.678 4.866,17.617 11.657,35.262 22.407,50.043 5.852,8.046 16.163,11.976 25.395,15.685 18.853,7.575 38.279,14.235 58.259,17.926 19.38,3.579 39.692,7.657 59.005,3.734 14.147,-2.873 27.306,-12.106 36.598,-23.154 13.84,-16.453 18.807,-38.804 30.624,-56.765 2.251,-3.422 17.569,3.195 27.635,14.938 5.218,6.088 10.154,13.649 10.457,21.661 0.729,19.318 3.494,41.589 -7.469,57.511 -12.229,17.761 -35.215,25.694 -55.271,33.611 -9.263,3.657 -20.567,3.536 -29.877,0 -23.646,-8.982 -47.644,-19.709 -66.474,-36.598 -7.197,-6.456 -11.19,-20.241 -5.975,-28.383 11.093,-17.321 29.982,-29.237 48.549,-38.092 14.814,-7.065 32.316,-5.79 48.548,-8.216 13.55,-2.024 31.468,-1.896 38.839,-13.444 4.153,-6.506 2.536,-15.864 0,-23.154 -7.609,-21.878 -15.128,-44.878 -29.876,-62.74 -8.861,-10.732 -24.124,-14.324 -37.345,-18.673 -6.149,-2.022 -13.799,-3.211 -19.42,0 -9.481,5.418 -17.999,13.91 -22.407,23.901 -3.617,8.201 -2.481,18.276 0,26.889 6.119,21.237 14.985,41.751 25.395,61.246 3.483,6.522 9.118,12.288 15.685,15.685 14.816,7.664 25.168,6.722 39.586,6.722 0.453,0 12.132,-2.987 8.963,2.988 -8.305,15.66 -16.184,31.643 -26.142,46.308 -3.858,5.682 -8.984,10.768 -14.938,14.191 -22.877,13.155 -26.555,-23.408 -21.66,-38.092 4.467,-13.402 23.985,-8.784 32.864,-7.469 3.239,0.48 12.638,0.029 9.709,1.494 -12.573,6.287 -32.211,-3.71 -46.308,0 -9.861,2.595 -4.428,9.741 2.988,14.191 18.647,11.188 31.27,16.143 50.79,14.191 3.017,-0.302 -18.232,-2.987 -19.42,-2.987 -5.975,0 -14.304,4.752 -17.926,0 -3.447,-4.525 -4.981,-10.27 -6.722,-15.685 -7.168,-22.302 21.383,-26.08 35.105,-29.13"
         inkscape:connector-curvature="0"
         style="opacity:1;fill:none;stroke:#000000;stroke-width:10.35000038;stroke-linecap:round;stroke-linejoin:round" /></g><g
       id="g104"
       transform="translate(-8.4047848,27.639516)"
       style="opacity:1;fill:#ff0000"><path
         d="m 258.565,218.371 c 0,0.624 -0.043,1.176 -0.128,1.658 -1.105,6.545 -4.207,9.817 -9.307,9.817 -2.607,0 -4.944,-0.666 -7.013,-1.997 v 0.892 c -0.028,1.899 0.142,3.202 0.51,3.91 0.539,0.992 0.808,1.559 0.808,1.7 0,0.567 -0.22,1.063 -0.659,1.488 -0.439,0.425 -0.942,0.637 -1.509,0.637 -1.275,0 -2.139,-0.453 -2.592,-1.36 -0.255,-0.538 -0.425,-1.544 -0.51,-3.017 -0.057,-0.964 -0.085,-2.069 -0.085,-3.315 0,-0.482 0.064,-1.204 0.191,-2.168 0.128,-0.963 0.191,-1.7 0.191,-2.21 v -2.89 c -0.028,-0.85 0.029,-2.104 0.17,-3.761 0.142,-1.658 0.213,-2.883 0.213,-3.676 v -3.825 c 0,-0.057 -0.142,-0.822 -0.425,-2.295 0.736,-0.68 1.431,-1.02 2.082,-1.02 0.765,0 1.374,0.276 1.828,0.828 0.453,0.553 0.68,1.226 0.68,2.019 0,0.199 -0.014,0.397 -0.043,0.595 1.87,-2.465 4.236,-3.697 7.098,-3.697 2.691,0 4.816,1.006 6.375,3.017 1.388,1.814 2.082,4.109 2.082,6.885 0,0.199 0,0.496 0,0.893 0.029,0.396 0.043,0.694 0.043,0.892 z m -3.825,-0.68 c 0,-1.955 -0.298,-3.626 -0.893,-5.015 -0.821,-1.87 -2.082,-2.805 -3.782,-2.805 -2.182,0 -4.052,1.332 -5.61,3.995 -1.389,2.324 -2.083,4.661 -2.083,7.013 0,3.938 1.984,5.907 5.95,5.907 2.125,0 3.684,-0.921 4.675,-2.762 0.567,-1.02 1.105,-2.876 1.615,-5.568 0.085,-0.538 0.128,-0.793 0.128,-0.765 z"
         id="path76"
         inkscape:connector-curvature="0"
         style="opacity:1;fill:#ff0000" /><path
         d="m 285.51,235.244 v 0.212 c -0.425,0.624 -0.949,0.935 -1.573,0.935 -0.481,0 -0.892,-0.212 -1.232,-0.637 -0.255,-1.02 -2.132,-2.678 -5.631,-4.973 -3.5,-2.295 -5.816,-3.442 -6.949,-3.442 -0.199,0 -0.454,0 -0.765,0 -0.397,0.028 -0.666,0.042 -0.808,0.042 v 1.658 c 0,0.566 0.071,1.317 0.213,2.252 0.141,1.134 0.297,1.828 0.467,2.083 0.51,0.68 0.765,1.105 0.765,1.275 0,0.51 -0.198,0.928 -0.595,1.253 -0.396,0.326 -0.85,0.489 -1.36,0.489 -1.076,0 -1.912,-0.382 -2.507,-1.147 -0.567,-0.68 -0.85,-3.485 -0.85,-8.415 -0.595,0 -1.219,-0.184 -1.87,-0.553 -0.737,-0.453 -1.105,-0.935 -1.105,-1.445 0,-1.048 0.949,-1.799 2.847,-2.252 0.114,-0.879 0.213,-2.083 0.298,-3.613 0.056,-1.728 0.127,-2.932 0.212,-3.612 0.17,-0.907 0.383,-2.267 0.638,-4.08 h -0.34 c -1.134,0.028 -1.7,-0.468 -1.7,-1.488 0,-0.878 0.34,-1.431 1.02,-1.657 0.481,-0.142 0.963,-0.284 1.445,-0.425 0.566,-0.51 1.013,-0.843 1.339,-0.999 0.325,-0.156 0.842,-0.234 1.551,-0.234 0.51,0 0.765,0.227 0.765,0.68 0,0.142 0.354,0.213 1.062,0.213 3.315,0 6.134,0.666 8.458,1.997 2.861,1.615 4.292,3.953 4.292,7.013 0,2.351 -0.736,4.292 -2.21,5.822 -0.991,1.049 -2.748,2.224 -5.27,3.528 2.012,1.275 4.009,2.55 5.993,3.825 2.295,1.728 3.428,3.626 3.4,5.695 z m -5.823,-19.04 c 0,-1.814 -0.921,-3.188 -2.762,-4.123 -1.474,-0.765 -3.202,-1.147 -5.185,-1.147 -0.255,0 -0.864,0.042 -1.828,0.127 0.029,1.02 -0.241,2.777 -0.807,5.27 -0.312,1.502 -0.524,3.698 -0.638,6.588 1.644,0.566 2.664,0.85 3.06,0.85 0.34,0 0.836,-0.099 1.488,-0.298 1.87,-0.566 3.4,-1.431 4.59,-2.592 1.388,-1.332 2.082,-2.89 2.082,-4.675 z"
         id="path78"
         inkscape:connector-curvature="0"
         style="opacity:1;fill:#ff0000" /><path
         d="m 312.242,221.559 c 0,4.08 -1.006,7.536 -3.017,10.37 -2.239,3.201 -5.313,4.802 -9.223,4.802 -1.105,0 -2.295,-0.212 -3.57,-0.637 -2.833,-0.907 -4.859,-2.479 -6.077,-4.718 -1.049,-1.926 -1.573,-4.505 -1.573,-7.735 0,-4.193 1.006,-7.891 3.018,-11.092 2.323,-3.769 5.468,-5.653 9.435,-5.653 3.485,0 6.261,1.629 8.33,4.888 1.785,2.805 2.677,6.063 2.677,9.775 z m -4.08,-0.383 c 0,-5.893 -1.898,-9.421 -5.695,-10.582 -0.396,-0.114 -0.85,-0.17 -1.36,-0.17 -1.586,0 -3.173,0.708 -4.76,2.125 -2.521,2.295 -3.782,6.389 -3.782,12.282 0,0.539 0.113,1.289 0.34,2.253 0.481,2.181 1.204,3.754 2.167,4.717 1.105,1.134 2.72,1.7 4.845,1.7 2.89,0 5.072,-1.402 6.545,-4.207 1.134,-2.21 1.7,-4.916 1.7,-8.118 z"
         id="path80"
         inkscape:connector-curvature="0"
         style="opacity:1;fill:#ff0000" /><path
         d="m 336.255,228.996 c 0,0.539 -0.142,1.19 -0.425,1.955 -0.709,1.87 -2.04,3.344 -3.995,4.42 -1.785,0.964 -3.74,1.445 -5.865,1.445 -3.485,0 -6.163,-1.317 -8.033,-3.952 -1.615,-2.295 -2.422,-5.256 -2.422,-8.883 0,-3.003 0.467,-5.822 1.402,-8.457 1.049,-3.004 2.593,-5.355 4.633,-7.055 1.615,-1.332 3.258,-1.998 4.93,-1.998 2.408,0 4.236,1.049 5.482,3.145 1.02,1.7 1.53,3.839 1.53,6.418 0,1.161 -0.297,2.621 -0.892,4.377 -0.709,2.154 -1.502,3.23 -2.38,3.23 -0.992,0 -1.743,-0.623 -2.253,-1.87 0.284,-0.198 0.68,-0.524 1.19,-0.977 0.567,-0.624 0.85,-1.842 0.85,-3.655 0,-1.757 -0.184,-3.244 -0.552,-4.463 -0.567,-1.841 -1.502,-2.762 -2.805,-2.762 -0.907,0 -1.899,0.581 -2.975,1.742 -0.822,0.879 -1.516,1.856 -2.083,2.933 -1.388,2.72 -2.082,6.106 -2.082,10.157 0,5.894 2.21,8.84 6.63,8.84 1.898,0 3.4,-0.538 4.505,-1.615 0.453,-0.481 1.119,-1.487 1.997,-3.017 0.595,-1.105 1.233,-1.658 1.913,-1.658 0.453,0 0.85,0.177 1.19,0.531 0.34,0.355 0.51,0.744 0.51,1.169 z"
         id="path82"
         inkscape:connector-curvature="0"
         style="opacity:1;fill:#ff0000" /><path
         d="m 359.12,232.779 c 0,0.481 -0.099,0.906 -0.298,1.275 -0.255,0.481 -0.595,0.722 -1.02,0.722 -0.113,0 -0.276,-0.021 -0.488,-0.064 -0.213,-0.042 -0.376,-0.063 -0.489,-0.063 -1.219,0 -2.982,0.368 -5.291,1.105 -2.31,0.736 -4.073,1.105 -5.292,1.105 -4.561,0 -6.842,-3.457 -6.842,-10.37 0,-5.44 0.141,-9.747 0.425,-12.92 0.028,-0.425 0.042,-0.652 0.042,-0.68 0,-0.199 -0.028,-0.489 -0.085,-0.872 -0.056,-0.382 -0.085,-0.658 -0.085,-0.828 0,-1.304 0.709,-2.069 2.125,-2.295 2.182,-0.397 4.364,-0.808 6.545,-1.233 2.862,-0.538 5.001,-0.807 6.418,-0.807 0.821,0 1.544,0.141 2.167,0.425 0.85,0.396 1.275,0.949 1.275,1.657 0,1.049 -0.694,1.573 -2.082,1.573 -0.17,0 -0.432,-0.022 -0.786,-0.064 -0.355,-0.043 -0.617,-0.064 -0.787,-0.064 -2.295,0 -5.426,0.51 -9.392,1.53 -0.227,0.029 -0.439,0.071 -0.638,0.128 -0.198,0.056 -0.34,0.269 -0.425,0.637 -0.311,1.36 -0.467,4.024 -0.467,7.99 0,0.595 0.269,0.893 0.807,0.893 0.737,0 1.799,-0.184 3.188,-0.553 1.388,-0.368 2.451,-0.552 3.187,-0.552 0.822,0 1.771,0.255 2.848,0.765 0.283,0.906 0.425,1.459 0.425,1.657 0,0.709 -0.213,1.091 -0.638,1.148 -0.425,0.056 -0.878,0.113 -1.36,0.17 -0.226,-0.142 -0.538,-0.213 -0.935,-0.213 -0.991,0 -2.181,0.128 -3.57,0.383 -1.161,0.255 -2.337,0.496 -3.527,0.722 -0.17,0.029 -0.319,0.057 -0.446,0.085 -0.128,0.029 -0.22,0.199 -0.277,0.51 -0.056,0.51 -0.085,0.921 -0.085,1.233 0,2.181 0.043,3.485 0.128,3.91 0.283,1.643 1.062,2.465 2.337,2.465 1.077,0 2.649,-0.333 4.718,-0.999 2.068,-0.666 3.711,-0.999 4.93,-0.999 1.926,0 3.173,0.496 3.74,1.488 z"
         id="path84"
         inkscape:connector-curvature="0"
         style="opacity:1;fill:#ff0000" /><path
         d="m 378.287,231.801 c 0,1.729 -1.006,3.06 -3.017,3.995 -1.587,0.765 -3.358,1.148 -5.313,1.148 -1.785,0 -3.881,-0.397 -6.29,-1.19 -2.975,-1.02 -4.462,-2.21 -4.462,-3.57 0,-0.51 0.184,-0.949 0.552,-1.318 0.369,-0.368 0.808,-0.552 1.318,-0.552 0.765,0 1.473,0.311 2.125,0.935 1.105,0.935 1.7,1.445 1.785,1.53 0.991,0.566 2.776,0.85 5.355,0.85 2.295,0 3.442,-0.524 3.442,-1.573 0,-0.878 -1.076,-2.096 -3.23,-3.655 -1.501,-0.963 -3.003,-1.926 -4.505,-2.89 -1.926,-1.303 -3.329,-2.536 -4.207,-3.697 -1.162,-1.53 -1.743,-3.287 -1.743,-5.27 0,-2.494 0.765,-4.718 2.295,-6.673 1.644,-2.153 3.684,-3.23 6.12,-3.23 2.097,0 3.868,0.574 5.313,1.721 1.445,1.148 2.366,2.756 2.762,4.824 0.085,0.794 0.255,1.969 0.51,3.528 0.114,0.453 0.17,0.793 0.17,1.02 0,1.02 -0.17,1.884 -0.51,2.592 -0.425,0.964 -1.091,1.445 -1.997,1.445 -0.51,0 -0.999,-0.234 -1.466,-0.701 -0.468,-0.468 -0.702,-0.956 -0.702,-1.466 0,-0.369 0.085,-0.914 0.255,-1.637 0.17,-0.722 0.255,-1.267 0.255,-1.636 0,-3.825 -1.275,-5.737 -3.825,-5.737 -1.416,0 -2.606,0.602 -3.57,1.806 -0.963,1.204 -1.445,2.529 -1.445,3.974 0,2.04 1.219,4.023 3.655,5.95 2.239,1.501 4.491,3.003 6.758,4.505 2.408,1.728 3.612,3.386 3.612,4.972 z"
         id="path86"
         inkscape:connector-curvature="0"
         style="opacity:1;fill:#ff0000" /><path
         d="m 399.792,231.801 c 0,1.729 -1.006,3.06 -3.017,3.995 -1.587,0.765 -3.358,1.148 -5.313,1.148 -1.785,0 -3.881,-0.397 -6.29,-1.19 -2.975,-1.02 -4.462,-2.21 -4.462,-3.57 0,-0.51 0.184,-0.949 0.552,-1.318 0.369,-0.368 0.808,-0.552 1.318,-0.552 0.765,0 1.473,0.311 2.125,0.935 1.105,0.935 1.7,1.445 1.785,1.53 0.991,0.566 2.776,0.85 5.355,0.85 2.295,0 3.442,-0.524 3.442,-1.573 0,-0.878 -1.076,-2.096 -3.23,-3.655 -1.501,-0.963 -3.003,-1.926 -4.505,-2.89 -1.926,-1.303 -3.329,-2.536 -4.207,-3.697 -1.162,-1.53 -1.743,-3.287 -1.743,-5.27 0,-2.494 0.765,-4.718 2.295,-6.673 1.644,-2.153 3.684,-3.23 6.12,-3.23 2.097,0 3.868,0.574 5.313,1.721 1.445,1.148 2.366,2.756 2.762,4.824 0.085,0.794 0.255,1.969 0.51,3.528 0.114,0.453 0.17,0.793 0.17,1.02 0,1.02 -0.17,1.884 -0.51,2.592 -0.425,0.964 -1.091,1.445 -1.997,1.445 -0.51,0 -0.999,-0.234 -1.466,-0.701 -0.468,-0.468 -0.702,-0.956 -0.702,-1.466 0,-0.369 0.085,-0.914 0.255,-1.637 0.17,-0.722 0.255,-1.267 0.255,-1.636 0,-3.825 -1.275,-5.737 -3.825,-5.737 -1.416,0 -2.606,0.602 -3.57,1.806 -0.963,1.204 -1.445,2.529 -1.445,3.974 0,2.04 1.219,4.023 3.655,5.95 2.239,1.501 4.491,3.003 6.758,4.505 2.408,1.728 3.612,3.386 3.612,4.972 z"
         id="path88"
         inkscape:connector-curvature="0"
         style="opacity:1;fill:#ff0000" /><path
         d="m 311.201,268.921 c 0,0.142 -0.127,0.453 -0.382,0.935 -0.114,0.227 -0.227,0.864 -0.34,1.913 -0.595,6.346 -0.893,11.914 -0.893,16.702 0,1.247 0.113,2.253 0.34,3.018 0.198,0.651 0.609,1.544 1.233,2.677 0.028,0.057 0.042,0.142 0.042,0.255 0,0.595 -0.694,0.893 -2.082,0.893 h -0.383 c -1.445,-0.029 -2.323,-1.19 -2.635,-3.485 -0.397,-2.805 -0.595,-6.673 -0.595,-11.603 0,-1.162 0.021,-2.911 0.064,-5.249 0.042,-2.337 0.064,-4.101 0.064,-5.291 0,-0.652 0.34,-1.275 1.02,-1.87 0.68,-0.595 1.345,-0.892 1.997,-0.892 0.51,0 1.063,0.212 1.658,0.637 0.595,0.425 0.892,0.878 0.892,1.36 z"
         id="path90"
         inkscape:connector-curvature="0"
         style="opacity:1;fill:#ff0000" /><path
         d="m 332.791,291.234 c 0,1.728 -1.006,3.06 -3.017,3.995 -1.587,0.765 -3.358,1.147 -5.313,1.147 -1.785,0 -3.882,-0.397 -6.29,-1.19 -2.975,-1.02 -4.462,-2.21 -4.462,-3.57 0,-0.51 0.184,-0.949 0.552,-1.317 0.368,-0.369 0.808,-0.553 1.318,-0.553 0.765,0 1.473,0.312 2.125,0.935 1.105,0.935 1.7,1.445 1.785,1.53 0.991,0.567 2.776,0.85 5.355,0.85 2.295,0 3.442,-0.524 3.442,-1.572 0,-0.879 -1.077,-2.097 -3.23,-3.655 -1.502,-0.964 -3.003,-1.927 -4.505,-2.89 -1.927,-1.304 -3.329,-2.536 -4.207,-3.698 -1.162,-1.53 -1.743,-3.287 -1.743,-5.27 0,-2.493 0.765,-4.717 2.295,-6.672 1.643,-2.154 3.683,-3.23 6.12,-3.23 2.097,0 3.868,0.573 5.313,1.721 1.445,1.147 2.365,2.755 2.762,4.824 0.085,0.793 0.255,1.969 0.51,3.527 0.113,0.453 0.17,0.793 0.17,1.02 0,1.02 -0.17,1.884 -0.51,2.593 -0.425,0.963 -1.091,1.445 -1.997,1.445 -0.51,0 -0.999,-0.234 -1.467,-0.702 -0.467,-0.467 -0.701,-0.956 -0.701,-1.466 0,-0.368 0.085,-0.914 0.255,-1.636 0.17,-0.723 0.255,-1.268 0.255,-1.636 0,-3.825 -1.275,-5.738 -3.825,-5.738 -1.417,0 -2.607,0.602 -3.57,1.806 -0.963,1.204 -1.445,2.529 -1.445,3.974 0,2.04 1.218,4.023 3.655,5.95 2.238,1.502 4.491,3.003 6.758,4.505 2.408,1.728 3.612,3.386 3.612,4.973 z"
         id="path92"
         inkscape:connector-curvature="0"
         style="opacity:1;fill:#ff0000" /><path
         d="m 288.825,327.333 c 0,0.397 -0.128,0.723 -0.383,0.978 -0.425,0.482 -0.651,0.737 -0.68,0.765 -0.17,0.283 -0.34,1.02 -0.51,2.21 -0.708,5.78 -1.062,11.489 -1.062,17.127 0,3.174 0.566,4.959 1.7,5.355 v 1.148 c -0.34,0.708 -0.864,1.062 -1.573,1.062 -1.445,0 -2.536,-1.26 -3.272,-3.782 -0.539,-1.785 -0.808,-3.655 -0.808,-5.61 0,-4.278 0.114,-7.848 0.34,-10.71 -0.85,3.315 -1.714,6.644 -2.592,9.987 -1.587,5.157 -3.117,7.735 -4.59,7.735 -1.672,0 -3.145,-1.515 -4.42,-4.547 -1.19,-2.748 -2.649,-7.367 -4.378,-13.855 -0.17,1.927 -0.255,3.896 -0.255,5.907 0,4.165 0.114,7.183 0.34,9.053 0.029,0.34 0.192,0.885 0.489,1.636 0.298,0.751 0.446,1.339 0.446,1.764 0,0.935 -0.779,1.402 -2.337,1.402 -1.842,0 -2.763,-2.479 -2.763,-7.437 0,-2.012 0.114,-5.015 0.34,-9.01 0.227,-3.995 0.34,-6.984 0.34,-8.968 0,-0.226 -0.113,-0.467 -0.34,-0.722 -0.226,-0.255 -0.34,-0.496 -0.34,-0.723 0,-1.586 1.417,-2.38 4.25,-2.38 0.652,0 1.431,0.411 2.338,1.233 0.085,0.878 0.226,2.21 0.425,3.995 0.283,2.493 0.949,5.794 1.997,9.902 1.389,5.299 2.593,7.948 3.613,7.948 0.226,0 0.524,-0.439 0.892,-1.318 0.709,-1.7 1.403,-4.094 2.083,-7.182 0.51,-2.465 1.02,-4.93 1.53,-7.395 0.226,-1.162 0.637,-2.833 1.232,-5.015 0.595,-1.615 1.842,-2.423 3.74,-2.423 0.68,0 1.502,0.156 2.465,0.468 1.162,0.397 1.743,0.864 1.743,1.402 z"
         id="path94"
         inkscape:connector-curvature="0"
         style="opacity:1;fill:#ff0000" /><path
         d="m 311.945,351.643 c 0,0.482 -0.099,0.907 -0.298,1.275 -0.255,0.482 -0.595,0.723 -1.02,0.723 -0.113,0 -0.276,-0.021 -0.488,-0.064 -0.213,-0.042 -0.376,-0.064 -0.489,-0.064 -1.219,0 -2.982,0.369 -5.291,1.105 -2.31,0.737 -4.073,1.105 -5.292,1.105 -4.561,0 -6.842,-3.456 -6.842,-10.37 0,-5.44 0.141,-9.746 0.425,-12.92 0.028,-0.425 0.042,-0.651 0.042,-0.68 0,-0.198 -0.028,-0.488 -0.085,-0.871 -0.056,-0.382 -0.085,-0.659 -0.085,-0.829 0,-1.303 0.709,-2.068 2.125,-2.295 2.182,-0.396 4.364,-0.807 6.545,-1.232 2.862,-0.538 5.001,-0.808 6.418,-0.808 0.821,0 1.544,0.142 2.167,0.425 0.85,0.397 1.275,0.95 1.275,1.658 0,1.048 -0.694,1.572 -2.082,1.572 -0.17,0 -0.432,-0.021 -0.786,-0.063 -0.355,-0.043 -0.617,-0.064 -0.787,-0.064 -2.295,0 -5.426,0.51 -9.392,1.53 -0.227,0.028 -0.439,0.071 -0.638,0.127 -0.198,0.057 -0.34,0.27 -0.425,0.638 -0.311,1.36 -0.467,4.023 -0.467,7.99 0,0.595 0.269,0.892 0.807,0.892 0.737,0 1.799,-0.184 3.188,-0.552 1.388,-0.368 2.451,-0.553 3.187,-0.553 0.822,0 1.771,0.255 2.848,0.765 0.283,0.907 0.425,1.46 0.425,1.658 0,0.708 -0.213,1.091 -0.638,1.147 -0.425,0.057 -0.878,0.114 -1.36,0.17 -0.226,-0.141 -0.538,-0.212 -0.935,-0.212 -0.991,0 -2.181,0.127 -3.57,0.382 -1.161,0.255 -2.337,0.496 -3.527,0.723 -0.17,0.028 -0.319,0.057 -0.446,0.085 -0.128,0.028 -0.22,0.198 -0.277,0.51 -0.056,0.51 -0.085,0.921 -0.085,1.232 0,2.182 0.043,3.485 0.128,3.91 0.283,1.644 1.062,2.465 2.337,2.465 1.077,0 2.649,-0.333 4.718,-0.998 2.068,-0.666 3.711,-0.999 4.93,-0.999 1.926,0 3.173,0.496 3.74,1.487 z"
         id="path96"
         inkscape:connector-curvature="0"
         style="opacity:1;fill:#ff0000" /><path
         d="m 331.112,350.666 c 0,1.728 -1.006,3.06 -3.017,3.995 -1.587,0.765 -3.358,1.147 -5.313,1.147 -1.785,0 -3.881,-0.396 -6.29,-1.19 -2.975,-1.02 -4.462,-2.21 -4.462,-3.57 0,-0.51 0.184,-0.949 0.552,-1.317 0.369,-0.368 0.808,-0.553 1.318,-0.553 0.765,0 1.473,0.312 2.125,0.935 1.105,0.935 1.7,1.445 1.785,1.53 0.991,0.567 2.776,0.85 5.355,0.85 2.295,0 3.442,-0.524 3.442,-1.572 0,-0.878 -1.076,-2.097 -3.23,-3.655 -1.501,-0.963 -3.003,-1.927 -4.505,-2.89 -1.926,-1.303 -3.329,-2.536 -4.207,-3.698 -1.162,-1.53 -1.743,-3.286 -1.743,-5.27 0,-2.493 0.765,-4.717 2.295,-6.672 1.644,-2.153 3.684,-3.23 6.12,-3.23 2.097,0 3.868,0.574 5.313,1.721 1.445,1.148 2.366,2.756 2.762,4.824 0.085,0.793 0.255,1.969 0.51,3.527 0.114,0.454 0.17,0.794 0.17,1.02 0,1.02 -0.17,1.885 -0.51,2.593 -0.425,0.963 -1.091,1.445 -1.997,1.445 -0.51,0 -0.999,-0.234 -1.466,-0.701 -0.468,-0.468 -0.702,-0.957 -0.702,-1.467 0,-0.368 0.085,-0.913 0.255,-1.636 0.17,-0.722 0.255,-1.268 0.255,-1.636 0,-3.825 -1.275,-5.738 -3.825,-5.738 -1.416,0 -2.606,0.602 -3.57,1.807 -0.963,1.204 -1.445,2.528 -1.445,3.973 0,2.04 1.219,4.024 3.655,5.95 2.239,1.502 4.491,3.004 6.758,4.505 2.408,1.729 3.612,3.386 3.612,4.973 z"
         id="path98"
         inkscape:connector-curvature="0"
         style="opacity:1;fill:#ff0000" /><path
         d="m 352.617,350.666 c 0,1.728 -1.006,3.06 -3.017,3.995 -1.587,0.765 -3.358,1.147 -5.313,1.147 -1.785,0 -3.881,-0.396 -6.29,-1.19 -2.975,-1.02 -4.462,-2.21 -4.462,-3.57 0,-0.51 0.184,-0.949 0.552,-1.317 0.369,-0.368 0.808,-0.553 1.318,-0.553 0.765,0 1.473,0.312 2.125,0.935 1.105,0.935 1.7,1.445 1.785,1.53 0.991,0.567 2.776,0.85 5.355,0.85 2.295,0 3.442,-0.524 3.442,-1.572 0,-0.878 -1.076,-2.097 -3.23,-3.655 -1.501,-0.963 -3.003,-1.927 -4.505,-2.89 -1.926,-1.303 -3.329,-2.536 -4.207,-3.698 -1.162,-1.53 -1.743,-3.286 -1.743,-5.27 0,-2.493 0.765,-4.717 2.295,-6.672 1.644,-2.153 3.684,-3.23 6.12,-3.23 2.097,0 3.868,0.574 5.313,1.721 1.445,1.148 2.366,2.756 2.762,4.824 0.085,0.793 0.255,1.969 0.51,3.527 0.114,0.454 0.17,0.794 0.17,1.02 0,1.02 -0.17,1.885 -0.51,2.593 -0.425,0.963 -1.091,1.445 -1.997,1.445 -0.51,0 -0.999,-0.234 -1.466,-0.701 -0.468,-0.468 -0.702,-0.957 -0.702,-1.467 0,-0.368 0.085,-0.913 0.255,-1.636 0.17,-0.722 0.255,-1.268 0.255,-1.636 0,-3.825 -1.275,-5.738 -3.825,-5.738 -1.416,0 -2.606,0.602 -3.57,1.807 -0.963,1.204 -1.445,2.528 -1.445,3.973 0,2.04 1.219,4.024 3.655,5.95 2.239,1.502 4.491,3.004 6.758,4.505 2.408,1.729 3.612,3.386 3.612,4.973 z"
         id="path100"
         inkscape:connector-curvature="0"
         style="opacity:1;fill:#ff0000" /><path
         d="m 375.737,328.438 c -0.311,0.539 -0.857,1.254 -1.636,2.147 -0.779,0.892 -1.303,1.579 -1.572,2.061 -0.27,0.482 -1.977,4.859 -5.122,13.132 -2.663,7.055 -4.434,10.583 -5.312,10.583 -0.765,0 -1.431,-0.213 -1.998,-0.638 -0.651,-0.453 -0.977,-1.048 -0.977,-1.785 0,-0.453 0.255,-1.02 0.765,-1.7 0.51,-0.68 1.076,-1.884 1.7,-3.612 0.453,-1.303 0.906,-2.607 1.36,-3.91 -1.7,-1.36 -3.202,-3.443 -4.505,-6.248 -2.267,-4.788 -3.4,-8.16 -3.4,-10.115 0,-1.643 0.736,-2.465 2.21,-2.465 1.7,0 2.55,0.978 2.55,2.933 0,0.198 -0.036,0.503 -0.106,0.914 -0.071,0.41 -0.107,0.729 -0.107,0.956 0,1.19 0.553,3.06 1.658,5.61 1.161,2.692 2.21,4.236 3.145,4.632 0.368,-0.538 1.176,-2.167 2.422,-4.887 1.36,-3.003 2.423,-5.157 3.188,-6.46 1.275,-2.125 2.337,-3.188 3.187,-3.188 0.624,0 1.183,0.192 1.679,0.574 0.496,0.383 0.786,0.871 0.871,1.466 z"
         id="path102"
         inkscape:connector-curvature="0"
         style="opacity:1;fill:#ff0000" /></g></g></svg>