<svg xmlns="http://www.w3.org/2000/svg" viewBox="0 0 550 569" clip-rule="evenodd" fill-rule="evenodd" stroke-linecap="round" stroke-linejoin="round">
  <g class='strands' fill="none" stroke-width="12">
    <path d="M82 408c19 31 54 61 94 49 13-3 24-15 32-25 6-7 13-16 15-25 7-23-12-38-28-51-27-24-65-45-66-85 0-29 24-82 51-96 8-4 16-6 25-6 66-3 58 75 73 119 10 27 38 37 63 22l13-9"/>
    <path d="M121 36a75 75 0 00-20 49c-2 22 6 34 28 42 45 16 131-42 157 20a114 114 0 01-14 102c-36 47-105 72-125 132-25 78 32 124 107 119 42-3 76-47 90-83 3-8 7-29 2-37-9-15-30-25-45-32-65-31-148 5-206-35a82 82 0 01-32-80c4-16 18-35 28-47 17-21 46-30 71-38 37-13 77-21 111-41 10-6 19-18 26-26"/>
    <path d="M339 224c11 12 23 22 36 32 18 14 47 22 55 46 4 12 4 24 4 36-3 65-83 115-144 104-19-4-33-20-47-33-29-27-2-63 28-75 40-15 82-11 121-29 5-2 10-4 13-8 27-28 61-100 47-139-9-27-29-50-54-64-58-34-113 7-152 48-7 8-22 23-25 33-10 30-7 74-4 104 3 27 21 53 25 80 3 16 3 31 3 47l-1 11a83 83 0 01-95 54c-13-2-26-5-37-12-25-16-42-40-60-63a71 71 0 01-13-51c2-9 3-18 7-27 5-13 28-27 36-32 31-22 64-34 101-44l23-4 50-11 27-7c18-5 37-10 54-17 30-12 58-28 83-47"/>
    <path d="M63 171c36 82 131 82 206 94 32 5 69 18 99 30 28 11 62 31 74 60 4 11 5 23 5 35 0 38-20 62-47 86-16 14-29 33-49 39-56 17-119 4-145-52-6-14-4-31-1-46 3-20 18-36 31-52 11-15 25-25 38-38 45-43 92-93 89-159-1-17-7-35-18-47-16-16-33-30-51-42"/>
    <path d="M87 278c32-8 61-37 70-69 7-25-3-53 4-78 19-72 101-109 170-98 59 8 57 70 46 117-7 29-32 55-50 77-25 33-49 64-61 104-7 18-9 52 1 70 28 46 78 68 131 52 19-6 37-25 48-40 29-36 51-80 21-123-24-35-69-48-104-69-14-8-35-21-42-35-11-24-17-53-17-78"/>
    <path d="M45 334c13 61 57 115 120 125 16 3 38 5 52-7 29-25 10-64-1-91-23-56-39-100-33-162 1-13 4-26 9-39 15-33 77-51 109-34 16 8 17 41 21 57 9 44 29 94 84 80 14-4 31-26 37-34 19-25-3-81-7-109-1-5-2-15 0-19 11-21 50-10 66-3 8 3 15 8 23 12"/>
    <path d="M133 159c-18 18-43 41-49 67-3 16-5 33-4 49 1 7 5 14 11 18 12 8 27 21 41 16 45-18 82-51 121-79 36-27 65-64 104-87 10-6 23-8 35-9 8-1 18-1 24 3s10 11 10 18c-1 37-40 64-68 87-48 41-108 72-148 121-12 15-31 38-33 61-2 13-6 26-1 38s18 20 29 28c21 13 49 9 74 6 25-2 51-20 68-36 26-25 34-64 49-97l11-24c5-10 8-20 16-27 15-13 45-24 62-12"/>
    <path d="M237 108c0 34 48 18 67 15s47-11 66-2c11 6 24 14 27 26 3 10-5 23-13 30-15 12-33 19-51 25s-37 8-56 12c-20 4-55 4-68 25-14 24 56 17 46 37-6 13-21 20-32 30-12 10-22 22-32 34-6 7-12 20-6 29 3 5 9 6 14 8l43 15c25 8 52 11 76 21 10 5 20 13 29 20 2 1 4 4 4 6 0 23-41 33-55 39-20 10-49 25-72 15-6-2-10-9-15-14"/>
    <path d="M129 65c-16 21-40 62-29 90 4 10 8 22 17 28 10 7 24 10 36 9 43-4 130-55 139 23a156 156 0 01-24 107c-8 14-17 29-29 41-25 23-62 31-95 34-9 1-20 4-28-1-19-11-36-26-48-45-8-14-8-32-9-48-1-8-2-17 2-24 13-25 35-47 58-63 17-11 34-21 52-30 14-8 38-14 53-7 7 3 9 11 12 16 8 13 13 27 21 39 29 49 78 55 130 58 8 0 17 3 24 0 33-15 58-44 76-75 17-31 8-62-4-93-16-42-44-73-88-86-29-9-56 0-81 15-18 10-26 43-29 58-2 7-1 14 0 21 3 19 4 40 11 58 9 23 22 45 36 66 47 70 115 101 126 190"/>
    <path d="M180 481c26 10 73 25 100 16 18-5 36-12 49-24 16-14 27-34 37-53 10-17 20-35 21-54 2-20 3-44-11-57-22-20-55-22-83-29-9-3-20-3-29 0-15 5-32 11-43 23-8 9-10 23-12 36-2 23 0 46 0 69 1 20 12 53-14 63-6 3-14 2-21 0-21-6-41-13-59-25-19-14-34-33-49-51-7-8-13-18-16-28-5-14-10-29-8-43 3-18 11-35 21-49 7-11 18-19 28-24 25-13 51-24 77-32 39-13 81-8 121-6 24 1 48 6 71 7 13 1 27 3 39-1 18-6 35-16 50-27 18-14 21-43 22-62 0-9 0-18-4-25-8-16-18-32-32-43-21-15-45-24-70-31-19-5-39-3-58-3-23 1-46-1-68 6-12 4-23 13-30 24-10 16-15 35-19 53-2 13-3 27 1 39 8 24 20 48 35 69 6 9 16 16 27 20 22 8 46 10 69 15 37 10 75 15 107 35 18 12 40 21 49 39 8 17 5 40-3 56-13 25-34 45-56 62-17 15-39 25-60 32-31 11-66 10-99 8"/>
    <path d="M115 109c-3 15-10 50-4 63 6 14 14 27 26 36s28 13 43 15c19 3 39-1 59 0 21 1 43-2 62 5 15 6 30 18 35 33 5 18-1 38-7 56-7 19-19 36-32 52-13 15-29 27-45 39-6 5-13 11-21 12-14 3-33 10-43 0-18-18-22-46-29-71-3-9-2-19 0-28 2-14 0-33 11-42 20-16 48-19 73-27 10-3 21-2 31-6 16-6 35-10 48-22 12-10 19-26 21-41 3-22 0-46-6-68-4-14-11-29-22-39-16-13-35-24-55-26-13-2-25 7-33 16-11 13-17 31-21 47-4 20-4 41-3 61 0 11 2 23 6 33 29 62 74 107 124 152 8 7 56 38 54 49-2 9-18 8-22 8h-43c-73-3-120-50-173-94-17-14-25-16-25-38v-20l-1-5c0 19 15 40 25 56 33 51 62 95 121 116"/>
    <path d="M343 116c24 0 49-4 70 11 9 6 17 12 22 21 3 5 6 15 1 18-22 14-48 18-73 26-10 3-20 4-31 5-18 1-36 3-53-2-11-3-21-11-28-21-4-8-3-18-3-26 1-11 19-23 23-27v-3c-11-3-31 4-38 10-8 8-14 19-15 30-2 14 1 28 6 41 2 8 9 13 15 18 15 11 30 21 47 30 27 14 60 16 89 27 11 4 22 10 32 18 10 7 3 24-2 34-3 7-9 12-14 17-13 14-26 29-41 41-24 21-63 25-82-3-4-7-9-13-9-21-3-36 5-73 17-108l17-49c1-2 2-6 0-6-44-12-100-2-142 10-33 9-60 33-84 58-7 7-13 16-15 26-4 17-8 36-5 53s13 33 22 48c12 20 37 28 59 36 33 11 68 12 102 17l32 4h45c5 0 12 2 15-2 10-11 17-26 23-40 16-37-21-91-30-128a3788 3788 0 01-17-78c3-3 8-1 12-3 15-4 30-11 45-14l39-3c5 0 11 0 14 3 43 48 25 113 41 170 5 16 37 27 42 5 9-39 4-72-4-111l-12-75"/>
    <path d="M71 159c-24 25-48 51-65 82-3 7 2 17 12 16 19-3 40-6 56-17 30-18 53-45 79-69 25-23 48-50 74-73 14-13 30-23 45-33 4-2 15-9 14-4-2 8-11 13-17 19l-71 64c-36 33-70 68-105 102l-16 15c-2 2-6 8-4 7 67-46 127-102 194-147 14-9 28-17 43-23 4-2 13-7 12-3 0 8-8 15-13 20-29 31-60 58-88 88-32 34-63 69-92 105-15 18-27 38-38 58-2 3-3 7 0 9s9 1 12 0c12-5 23-11 33-19 24-21 45-45 67-67 34-35 69-69 106-101 15-14 31-28 48-40 8-6 19-20 27-14 8 5-11 15-17 22l-79 80c-28 29-56 57-82 86-7 8-22 18-15 25s20-6 29-11c13-8 25-18 37-28 28-22 54-46 83-68a224 224 0 0158-29v2l-49 59c-13 16-28 29-40 45-12 15-23 32-34 48"/>
    <path d="M195 101c0 9 3 20 10 25 13 9 26 20 42 23 34 7 69 3 103 6s73 7 97 31c10 10 20 22 22 36 4 20 1 41-6 59-7 22-20 42-34 61-30 39-65 60-108 82-33 17-71 28-108 27-24-1-45-23-58-44-5-7-5-17-5-26-1-21-1-42 1-62 1-10 4-19 7-28 22-61 93-63 146-75 38-9 62-41 83-71l7-15c3-8 7-18 4-26-3-12-9-24-19-30-17-9-37-12-57-13-18-1-37 1-55 7-7 2-13 8-17 15-6 9 2 22 4 32"/>
    <path d="M88 246c0 20 3 41 11 59 5 12 8 25 17 33 35 32 72 62 112 87 8 5 19 2 29 0 27-3 53-9 80-15 13-3 26-11 35-21 9-11 2-25-8-34-13-11-29-20-45-28-47-26-98-42-146-66-7-4-15-8-20-14-10-11-19-23-26-37-2-5-3-12 0-17 14-30 50-46 81-57 11-4 23-7 34-7 19 0 39-1 56 6 9 3 15 12 17 21 5 23 4 47 3 71-2 32-14 63-17 95-1 9-3 18 0 26 5 16 13 32 23 46 4 6 12 11 20 13 15 3 31 5 46 2 8-1 14-9 20-14 21-19 45-43 48-73 1-6 0-14-4-18-44-36-96-49-147-68l-42-17c-6-3-21-10-21-20-1-15-1-30 2-45 3-12 9-23 16-33 23-37 43-39 82-25 17 6 37 9 51 21 10 9 15 24 15 37-1 25-14 48-19 73-2 7-6 15-2 21 3 4 12 1 18 0 8-3 17-7 24-12 5-3 11-7 14-12 8-15 18-31 19-48 1-16-5-33-13-47-5-11-25-9-33-9"/>
    <path d="M136 149c-30 27-46 71-18 106 10 12 21 25 35 31 14 7 30 6 45 6 45 2 90-8 135-3 22 3 44 7 63 18 14 8 25 22 31 36s7 31 5 47-11 31-19 45c-6 9-14 17-23 23-21 14-50 13-75 13"/>
    <path d="M230 357c59-9 161-20 176-93 1-6-5-13-8-19l-16-29c-10-22-15-46-26-68-23-45-93-39-127-16-9 6-14 15-20 24-7 12-15 26-17 40-1 10-1 24 8 30 17 12 39 13 60 17 26 5 53 7 80 11 13 1 26 3 38 6 18 4 37 5 52 15 9 6 14 19 17 29 2 9 2 19-2 27-12 23-26 45-43 64-9 10-21 18-34 23-18 7-37 14-56 15-13 1-25-4-37-9-5-3-11-8-12-14-5-36-2-80 20-109 11-13 24-25 39-32 7-4 16-1 24-1 5 0 21 1 23-7 2-15-1-30-6-44-9-20-21-39-36-56-10-12-24-21-37-31-6-5-12-11-20-14-12-5-25-11-39-10-11 1-22 8-30 15-4 5-5 12-4 18 1 7 2 18 9 21 10 5 22 2 33 0 8-3 14-11 22-15 14-6 28-14 43-15 20 0 39 6 57 12 10 4 18 12 25 19 9 9 21 18 23 31 3 14-4 30-10 44-12 30-37 52-54 80-3 3-8 8-6 12 3 3 9 2 14 1 25-3 30-8 52-4"/>
    <path d="M73 223c-16-36-18-73 14-102 14-12 29-27 46-35 20-9 41-13 62-15 7 0 14 4 19 9 11 12 18 28 28 41 10 17 25 32 44 39 39 13 67-15 77-51 3-11 5-23 3-34-7-28-37-49-64-58a217 217 0 00-189 25c-14 9-17 25-19 41-1 5-3 12 0 16 27 35 77 37 115 44 75 13 167 26 175 118 3 25-14 50-30 70-6 8-15 15-24 20-60 41-139 81-213 54-28-11-41-42-48-67-2-8-1-18 0-26 4-19 8-38 15-56 4-11 12-19 20-28 36-39 87-28 135-36 20-4 41-8 61-15 24-8 44-30 57-50 8-11 12-23 17-35 2-5 4-11 3-15-4-12-10-24-20-33-7-6-17-7-27-8-14-2-30-2-44 0-19 2-38 4-54 13-13 7-23 19-31 32-10 15-16 33-21 50-2 7-4 16 0 22 9 15 23 27 37 39 27 21 64 25 97 34 34 9 70 16 103 28 16 5 61 29 65 48s7 39 2 57c-7 22-22 40-35 58-6 9-14 16-22 22-30 20-62 43-98 50-27 5-54 8-81 7-35-1-59-20-84-40l-31-29c-7-8-19-14-18-25 0-8 12-10 19-13 11-5 23-7 34-8 43-6 87-6 130-6 6 0 16-5 19 1 0 0-2 4-1 5 5 1 10 4 14 2 19-8 37-20 44-40 5-18 10-37 12-56 2-15 2-31 0-47-1-3-3-8-7-8-11 0-25 0-32 8-12 13-16 32-21 49-3 11-3 22-1 33 4 25 7 50 19 72 8 15 24 23 37 34l13 8"/>
    <path d="M122 107c-10 15-22 26-21 46 1 23 4 47 11 69 4 14 11 28 21 39 18 23 38 44 61 63 10 8 22 14 34 17 34 8 69 8 103 14 23 4 46 9 67 18 16 7 33 15 44 29 11 16 19 36 18 55-1 22-8 46-23 61-16 16-42 17-63 23-56 16-114 25-172 22"/>
    <path d="M83 397c0-17 16-32 31-42 14-9 45-13 60-15 111-13 205-8 272-112 9-14 17-30 21-46s9-34 2-48c-10-18-28-31-47-39-24-10-50-13-77-15s-55-3-81 3c-23 6-44 18-64 32-9 6-15 15-20 24-8 20-19 40-18 61 0 24 6 50 20 71s38 35 60 48c20 12 42 19 62 29 10 5 44 23 33 40-34 55-92 81-148 108a163 163 0 01-89 19c-7 0-16-1-20-6-12-13-21-29-27-45-4-10-3-21 0-31 4-17 11-34 21-49 5-6 12-9 20-11 15-3 31-3 47-3 19 0 39 6 58 2 26-6 51-16 73-29 8-5 12-16 16-24 8-20 15-41 19-62 3-20 8-41 3-61-6-19-18-38-35-48-18-12-41-15-63-15-26 1-53 7-76 19-21 11-38 28-50 47-12 18-16 41-20 62-5 27 1 53 16 76 7 12 14 24 26 30 23 11 49 17 75 19 26 1 51-7 77-10 32-4 66-8 97-2 18 3 33 12 49 20 12 6 26 23 28 36 1 10-1 21-6 30-6 9-16 17-26 22-22 13-45 25-69 32-23 7-46 7-70 9-11 0-23 3-34 0-21-8-46-14-60-32-16-21-19-49-24-75-3-12-5-25 0-35 8-18 20-37 36-47 19-13 43-14 65-19 25-6 52-5 76-14 22-7 41-20 60-33 42-30 65-151-6-163-35-6-88-1-121 4-11 2-23 4-33 10-7 5-15 12-16 20-2 17 3 35 9 50 5 12 13 24 24 29 21 9 44 14 68 13 13 0 24-11 36-16 17-7 33-17 51-20 12-1 24 4 36 8 18 7 29 28 37 46 3 6 3 13 2 19-4 16-7 32-17 45-8 12-22 17-35 24-21 12-48 11-72 15l-25 5c-10 1-23 8-31 2-9-6-8-20-8-31 0-9 4-18 9-26 7-11 15-21 25-30 11-11 30-9 42-18 5-4 11-11 9-17-4-10-13-21-23-25-18-8-39-11-60-11-19-1-39 0-57 6-11 4-18 15-24 24-3 4-3 11 0 15 9 13 19 26 33 32 18 7 39 5 59 5 29 0 58-13 87-14 7-1 16-1 21 4 4 3 3 10 0 13-14 18-32 33-49 48-22 19-45 38-69 54-8 6-18 14-27 11-20-7-34-25-51-38"/>
    <path d="M96 156c-14 23-22 52-20 79 1 11 6 22 13 31 15 20 33 38 53 53 9 7 21 11 32 13 25 3 49 3 74 1 45-5 90-25 136-18 15 2 32 7 44 19 9 8 13 22 12 35-3 19-12 38-23 55-8 12-19 22-31 31-24 16-49 33-76 41-23 8-48 7-71 6-13-1-27-3-35-12-21-22-43-48-49-77-7-33 3-67 13-98 3-8 14-9 22-11 18-4 37-5 56-8 22-3 46-2 67-10 18-5 35-16 48-29 9-8 13-20 17-32 2-5 2-11 0-16-3-13-6-26-13-37-9-13-21-25-36-31-17-7-36-6-54-7-8 0-18-2-25 2-22 12-43 32-49 56-3 12-6 24-3 36 1 7 8 12 14 14 48 16 98 4 147 6 16 1 33-1 48 6 9 4 15 15 19 24 3 6 3 13 0 18-11 21-24 41-39 59-21 25-57 35-89 40-19 2-31-4-43-17-5-6-12-13-13-21-1-24 2-48 9-71 3-11 13-21 20-30 23-28 51-28 85-31 7 0 29 0 33-6s3-14 0-20c-4-8-12-13-20-18-16-9-33-18-50-24-9-3-19-2-29-2-22 1-55-4-66 23-6 16-9 34-10 51-1 8-2 19 4 25 13 11 29 22 45 21 22 0 41-15 61-23 16-7 34-14 51-13 20 0 35 26 27 44-6 14-15 27-24 40-29 41-81 31-121 16-19-7-37-15-54-24-9-5-33-22-35-36-1-13-5-28 2-39 11-17 30-26 47-37 10-7 22-11 34-15 45-15 92-25 139-31 20-3 39-4 58-10 16-6 31-23 38-38 19-37-9-68-32-94"/>
    <path d="M186 75c-9 7-38 26-34 41 2 7 7 15 14 17 24 6 49 6 74 8 36 2 79-2 115-2 10 0 38-4 45 12 2 4 2 11-1 14a510 510 0 01-94 70c-20 12-42 19-63 28-20 8-42 17-59 30-4 3-7 7-8 11-2 11-3 22-1 32 2 6 8 12 14 15 13 9 27 15 42 19 8 3 18 1 27 1l62-6c32-6 63-21 95-28 29-6 56 0 57 32 0 6 1 13-2 18-12 17-26 33-41 46-22 19-47 34-71 50-10 7-22 12-32 18"/>
    <path d="M121 76c-21 9-43 20-53 44-7 19-13 38-17 58-2 10-3 22 0 32 7 18 16 36 30 49 14 12 32 21 50 22 32 3 65 0 95-11 35-13 62-41 94-60a157 157 0 01129-15c14 6 25 17 35 27 7 8 12 18 16 28 17 48-20 87-49 119a343 343 0 01-218 123c-11 1-22 2-32 0-21-5-42-12-60-23-8-5-12-15-17-24-6-13-13-26-14-40-1-13 3-27 9-38 4-7 12-12 20-16 20-11 41-21 62-29 42-18 93-16 132-41 18-13 37-26 52-42 11-13 19-30 25-46 2-6 2-13 0-19-5-16-11-31-20-45-5-9-13-17-22-22-20-10-42-15-64-23"/>
    <path d="M502 146c12 20 27 41 33 64 4 15 12 31 8 46-9 35-26 67-44 98-6 10-18 14-28 21-20 12-40 25-61 35-25 11-57 16-80 2a92 92 0 01-48-75c-1-19 5-38 11-55 24-68 105-84 85-172-3-16-20-28-35-36-7-5-16-8-24-9-19-4-39-8-58-7-17 1-34 5-50 10-7 3-14 8-19 14-25 28-46 63-66 95"/>
    <path d="M433 468c-29 34-58 61-103 72-14 4-29 7-41 2-37-15-73-35-103-61-14-11-21-29-27-46-3-8-6-19 0-25 10-11 26-13 40-17 20-7 42-10 61-18 21-8 40-19 59-31 28-20 39-35 56-63 24-39 25-66-15-96-6-5-14-10-22-12-50-14-95-12-145-12-8 0-17 2-25 0-14-3-26-11-38-16"/>
    <path d="M113 319c12-26 32-48 54-68 18-16 49-18 70-16 17 2 33 11 50 15 52 11 87 8 118-38 24-35 11-78-7-112-16-30-47-45-76-59s-72-8-101 0"/>
    <path d="M124 210c16-16 32-33 56-30 15 2 31 4 44 10 36 18 60 54 96 70 9 4 21 3 31-1 11-6 19-17 27-27 7-9 12-19 17-29 16-35-7-74-27-100-16-22-42-31-67-38-13-3-28-5-41-2-16 4-31 14-43 25-6 5-7 14-8 21-1 18-5 37 0 54 7 21 21 41 36 59 28 34 63 58 101 81 42 25 88 33 95 89 1 7 1 16-2 23-8 18-17 35-30 49s-29 23-45 33c-7 4-14 8-22 10-18 3-36 6-54 3-13-3-24-11-33-20-18-20-31-44-45-68-4-7-7-15-8-23-1-12-4-26 2-36 12-20 33-33 50-48 13-13 39-32 54-43"/>
    <path d="M71 236c0 51 37 86 78 113 7 5 17 7 25 8 20 0 40-1 59-6 8-1 15-6 21-12 53-61-2-118-30-175-4-10-11-22-7-34s8-25 17-34 22-13 34-16c21-7 44 6 63 17 45 25 61 79 97 112 13 11 29 26 47 29 10 1 20 4 30 1 7-3 10-12 15-17"/>
    <path d="M340 443c33-3 63-31 84-53 4-5 7-10 8-15 4-15 7-30 6-44-1-11-6-22-13-30-34-38-94-18-135-8-37 10-64 22-103 21-9 0-21 2-28-4-9-7-14-20-17-31-2-9-3-20 0-29 5-23 14-45 23-66 5-10 11-19 19-26 12-11 26-22 41-28 16-6 34-5 51-6 56-5 98 12 152-14 11-5 16-20 19-31 4-16-5-29-18-40-11-9-24-18-38-21-14-4-29-1-43 3-23 7-35 42-41 58-2 6-2 13 0 19 5 18 12 35 21 50 16 28 48 43 76 59 48 28 104 42 123 102v14c-3 13-5 27-12 39-8 14-20 26-33 37a359 359 0 01-130 62c-41 9-86 9-117-24-13-13-23-29-29-46-4-12-2-27 0-40 4-24 9-49 18-72 18-42 74-58 106-81 13-10 24-22 36-33"/>
    <path d="M76 227c-12 32-31 106-10 139 17 27 32 56 57 75 15 12 38 10 57 11 21 0 41-4 62-6l39-7c5-1 10-3 14 0 11 7-5 32-15 45-6 8-14 17-23 22-17 9-34 15-52 20-32 7-65-12-91-24l-26-17c-11-9-26-17-33-30-10-19-10-40-14-60-1-6-2-13 1-18 18-28 46-46 75-59 61-28 136-13 193-50 46-30 88-84 69-141-9-26-39-39-60-55"/>
    <path d="M254 177c0 4-6 26-1 28 30 17 58 7 89 19 8 4 18 7 21 15 6 18 6 38 6 56-1 23-20 43-37 57-19 16-44 20-68 25-14 3-31 3-43-8-5-4-4-11-5-18-1-12-4-26 1-38 3-8 14-13 22-18 29-18 77 3 102-28 24-29 1-71-27-90l-9-2c-22 0-20 13-22 32-3 38 19 57 40 85 4 5 16 25 10 32-16 17-50 40-73 42-8 1-21 7-26 0-13-24 15-34 30-44 39-25 82-33 84-86 1-4 2-8 0-11-6-10-50-36-59-22-17 23-9 55 6 76 12 15 84 19 77 48-14 63-72 96-133 105-17 2-35-9-44-22-8-11-12-23-15-36-4-23-4-46-3-69 0-9 10-15 18-19 13-5 26-12 38-18 19-9 24-9 41-24 6-6-6-19-14-22-16-7-34-8-52-11-8-1-17-2-25 0-13 3-37 7-36 21 0 19 2 38 6 57 6 30 23 57 42 82 9 11 36 11 45 12 23 1 50-10 64-29 2-3 6-7 3-10-3-4-10-2-15-1-19 1-38 4-57 7-29 4-59 5-87-2-8-3-16-8-22-15-10-11-27-39-17-57 11-20 27-38 42-55 28-32 65-55 103-73"/>
    <path d="M131 149c-6 17-15 37-11 55 2 12 0 30 11 35 21 11 47 8 70 7 11 0 20-6 30-9 44-11 71-18 116-13 37 5 83 20 92 61 2 8 3 17 0 25-8 21-19 40-32 59-6 10-14 19-24 26-18 12-36 24-57 30-19 5-39 5-58 3-14-2-27-9-38-18-17-13-35-27-44-46-17-33-27-69-35-105-3-15 34-25 54-29 46-7 94-3 140-14 9-3 19-5 25-12 4-4 6-12 3-17-9-16-21-30-37-40-14-9-32-11-48-15-21-5-42-2-38 23 2 15 2 30 8 44 3 6 10 11 16 13 30 9 62-16 87-27h20c-12 9-34 7-47 6l-38-4-36-12c-1 0-4 0-3-1 3-5 43 2 56 3 4 1 18 2 14 0-18-6-24-8-42-11l-21-1c-2-1-8-1-6-2 5-2 21 4 23 4l23 3 6 1h4l-21-10c-2-1-14-8-18-8l4 3 12 9c10 7 21 11 31 17 14 9 44 44 34 66-5 11-25 4-37 4-18 0-43-2-56-16h1c10 3 19 8 29 12 12 4 17 4 29 5 13 1-5-9-5-9 22 26 35 17 27 50"/>
    <path d="M180 178c-23 28-41 67-27 104 2 5 7 13 12 11 11-4 17-16 23-26 7-12 9-27 16-39 1-3 5-8 9-7 26 2 42 30 58 50 14 16 25 35 38 52 10 14 14 14 27 23 1 1 3 1 2 2-19 9-43 19-64 21-10 2-21 5-31 1-12-4-21-25-17-27 23-19 61-13 87-27h-3c-10 1-20 3-29 6-8 3-16 5-23 10-8 5-14 21-6 29 6 6 9 5 16 5h3c-14-11-27-24-44-32l-9-3c-2-1-9-4-7-2 14 14 52 21 69 25l24 3h1c-17 0-28 0-45 2-3 0-7 4-5 5 14 6 42 3 52-9 6-6-20-12-26-12-2-1-7-2-6 0 4 7 7 14 13 20 10 11 23 9 35 17 3 2-7 1-8 4v5l1-20"/>
    <path d="M159 233c-7 22-20 54-13 78 5 18 12 35 22 50 6 8 17 12 26 16 19 7 38 14 58 18 19 3 40 7 59 4 14-3 27-13 37-24 14-16 18-38 30-56 3-4 18 3 28 15 5 6 10 13 10 21 1 20 4 42-7 58-12 17-35 25-55 33-10 4-21 4-30 0-24-9-48-19-67-36-7-7-11-21-6-29 11-17 30-29 49-38 15-7 32-6 48-8 14-2 32-2 39-13 4-7 3-16 0-24-7-21-15-44-30-62-8-11-24-15-37-19-6-2-14-3-19 0-10 5-18 14-23 24-3 8-2 18 0 27 6 21 15 42 26 61 3 7 9 12 15 16 15 7 25 6 40 6 0 0 12-3 9 3-8 16-16 32-26 47-4 5-9 11-15 14-23 13-27-23-22-38 5-14 24-9 33-8 3 1 13 0 10 2-13 6-33-4-47 0-10 2-4 10 3 14 19 11 32 16 51 14l-19-3c-6 0-15 5-18 0-4-4-5-10-7-15-7-23 21-26 35-30"/>
  </g>
  <g class='text'>
    <path d="M214 221v2c-1 7-4 10-9 10l-7-2v5l1 1v2h-2l-2-1-1-3a57 57 0 010-8v-3-3l1-4v-4l-1-2 2-1 2 1 1 2c2-2 4-3 7-3s5 1 6 3c2 1 2 4 2 7v1zm-3 0l-1-5c-1-2-2-3-4-3s-4 1-6 4l-2 7c0 4 2 6 6 6 2 0 4-1 5-3a21 21 0 002-6z"/>
    <path d="M241 238l-1 1h-1l-6-5-7-4h-1-1v2a16 16 0 001 4l1 2-1 1h-1l-3-1v-8l-2-1-1-1 2-2a52 52 0 001-8l1-4h-1l-1-1 1-2a609 609 0 016-1l8 2c3 2 4 4 4 7s0 5-2 6l-5 4 6 3 3 6zm-5-19c0-2-1-3-3-4l-5-1h-2l-1 5-1 7 3 1 2-1 4-2c2-2 3-3 3-5z"/>
    <path d="M268 225c0 4-1 7-3 10s-5 5-9 5l-4-1c-3-1-5-2-6-5l-1-7c0-5 1-8 3-12 2-3 5-5 9-5s6 1 8 5c2 3 3 6 3 10zm-4-1c0-6-2-9-6-10l-1-1-5 2c-2 3-4 7-4 13l1 2 2 5 5 1c3 0 5-1 6-4l2-8z"/>
    <path d="M292 232v2l-4 4-6 2c-4 0-6-2-8-4s-3-5-3-9l2-9 4-7 5-2c3 0 5 1 6 4l1 6-1 4c0 3-1 4-2 4l-2-2 1-1 1-4-1-4c0-2-1-3-2-3s-2 0-3 2l-3 3-2 10c0 6 3 9 7 9l5-2 1-3 2-2 2 1v1z"/>
    <path d="M315 236v1l-1 1h-1l-6 1-5 1c-4 0-7-4-7-11a153 153 0 011-15c0-1 0-2 2-2a534 534 0 0015-2l1 2-2 1h-1-1a40 40 0 00-10 2v10l4-1 3-1 3 1v2l-1 1a103 103 0 01-10 1v6c1 1 1 2 3 2l4-1 5-1 4 2z"/>
    <path d="M334 235l-3 4-5 1-6-1c-3-1-5-3-5-4l1-1 1-1 2 1 2 2 5 1 4-2-4-4-4-3-4-3-2-6 2-6 6-3 6 1 2 5a70 70 0 001 5v2l-2 2-2-1-1-1 1-2v-2c0-4-1-5-4-5l-3 1-2 4c0 2 1 4 4 6a1496 1496 0 0010 10z"/>
    <path d="M356 235l-3 4-6 1-6-1c-3-1-4-3-4-4v-1l1-1 3 1 1 2 6 1c2 0 3-1 3-2l-3-4-5-3-4-3-2-6 3-6c1-2 3-3 6-3l5 1c2 1 3 3 3 5a70 70 0 001 5l-1 2-2 2-1-1-1-1v-2-2c0-4-1-5-3-5l-4 1-1 4 3 6a1496 1496 0 0011 10z"/>
    <path d="M267 272v1l-1 2a182 182 0 000 19l1 3-2 1c-2 0-3-1-3-3a88 88 0 01-1-17 323 323 0 002-7l2-1 1 1 1 1z"/>
    <path d="M289 294c0 2-1 3-3 4l-6 1-6-1-4-3v-2h1l3 1 1 1 6 1c2 0 3-1 3-2l-3-3a11345 11345 0 00-9-7l-2-5c0-3 1-5 3-7 1-2 3-3 6-3l5 2c2 1 3 2 3 5a70 70 0 001 4l-1 3-2 1-1-1-1-1v-2-1c0-4-1-6-3-6l-4 2-1 4 3 6a1367 1367 0 0011 9z"/>
    <path d="M245 330l-1 1v1l-1 2-1 17c0 4 1 5 2 6v1l-2 1-3-4-1-5v-11a1768 1768 0 01-7 18c-1 0-3-2-4-5l-5-14a67 67 0 001 19l-2 1c-2 0-3-3-3-8a175 175 0 011-18l-1-1c0-2 2-2 5-2l2 1a300 300 0 002 14l4 8 1-2 2-7 2-7 1-5c0-2 2-3 3-3l3 1 2 1z"/>
    <path d="M268 355v1l-2 1v-1l-6 2-5 1c-5 0-7-4-7-11a153 153 0 010-15 515 515 0 0017-4l2 2-2 1h-1-1a40 40 0 00-10 2l-1 8 1 1h3l4-1 2 1 1 2-1 1a78 78 0 01-9 1h-1v6l2 2 5-1 5-1 4 2z"/>
    <path d="M287 354l-3 4-5 1-7-1c-3-1-4-3-4-4v-1l2-1 2 1 2 2h5l3-1-3-4-4-3-4-3c-2-2-2-4-2-6l2-6c2-2 4-4 6-4l6 2 2 5a70 70 0 001 5l-1 2-2 2-1-1-1-2 1-1v-2c0-4-1-6-4-6l-4 2-1 4c0 2 1 4 4 6a1344 1344 0 0010 10z"/>
    <path d="M308 354l-3 4-5 1-6-1c-3-1-5-3-5-4l1-1 1-1 2 1 2 2h6l3-1-3-4-5-3-4-3-2-6 3-6c1-2 3-4 6-4l5 2 3 5a70 70 0 000 5v2l-2 2-2-1v-2-1-2c0-4-1-6-4-6l-3 2-2 4c0 2 2 4 4 6a1344 1344 0 0010 10z"/>
    <path d="M332 331l-2 3-2 2a349 349 0 00-10 23h-2l-1-2 1-2 1-3 2-4-5-7-3-10 2-2c2 0 3 1 3 3v1l-1 1 2 5 3 5 3-5 3-6 3-4 2 1 1 1z"/>
  </g>
</svg>