<?xml version="1.0" encoding="UTF-8" standalone="no"?>
<!-- Created with Inkscape (http://www.inkscape.org/) -->

<svg
   xmlns:dc="http://purl.org/dc/elements/1.1/"
   xmlns:cc="http://creativecommons.org/ns#"
   xmlns:rdf="http://www.w3.org/1999/02/22-rdf-syntax-ns#"
   xmlns:svg="http://www.w3.org/2000/svg"
   xmlns="http://www.w3.org/2000/svg"
   xmlns:sodipodi="http://sodipodi.sourceforge.net/DTD/sodipodi-0.dtd"
   xmlns:inkscape="http://www.inkscape.org/namespaces/inkscape"
   width="215.66679mm"
   height="215.66682mm"
   viewBox="0 0 215.66679 215.66682"
   version="1.1"
   id="svg8"
   inkscape:version="0.92.2 5c3e80d, 2017-08-06"
   sodipodi:docname="globe--plain.svg">
  <defs
     id="defs2" />
  <sodipodi:namedview
     id="base"
     pagecolor="#ffffff"
     bordercolor="#666666"
     borderopacity="1.0"
     inkscape:pageopacity="0.0"
     inkscape:pageshadow="2"
     inkscape:zoom="0.5"
     inkscape:cx="185.12815"
     inkscape:cy="476.94339"
     inkscape:document-units="mm"
     inkscape:current-layer="layer3"
     showgrid="false"
     inkscape:window-width="1728"
     inkscape:window-height="864"
     inkscape:window-x="0"
     inkscape:window-y="0"
     inkscape:window-maximized="0"
     fit-margin-top="2"
     fit-margin-left="2"
     fit-margin-right="2"
     fit-margin-bottom="2" />
  <metadata
     id="metadata5">
    <rdf:RDF>
      <cc:Work
         rdf:about="">
        <dc:format>image/svg+xml</dc:format>
        <dc:type
           rdf:resource="http://purl.org/dc/dcmitype/StillImage" />
        <dc:title></dc:title>
      </cc:Work>
    </rdf:RDF>
  </metadata>
  <g
     inkscape:label="Body"
     inkscape:groupmode="layer"
     id="layer1"
     style="display:inline"
     transform="translate(72.303717,-37.976212)">
    <g
       id="g996">
      <circle
         r="105.83331"
         cy="145.80952"
         cx="35.529762"
         id="path815"
         style="opacity:1;fill:#55ddff;fill-opacity:1;fill-rule:nonzero;stroke:none;stroke-width:0.54075414;stroke-linecap:round;stroke-linejoin:round;stroke-miterlimit:4;stroke-dasharray:none;stroke-dashoffset:0;stroke-opacity:1" />
      <path
         inkscape:connector-curvature="0"
         id="path817"
         transform="scale(0.26458333)"
         d="M -102.97461,229.61914 A 399.99992,399.99992 0 0 0 -265.71484,551.0918 399.99992,399.99992 0 0 0 -249.375,663.39258 c 2.53683,-9.39853 4.19995,-21.23254 11.82812,-22.69336 14.95042,-2.86301 22.51595,31.51945 36.98438,26.78906 29.40287,-9.61319 10.71634,-62.99881 28.48047,-88.32422 24.70885,-35.22613 -11.74226,2.91903 102.027342,-79.07812 13.222738,-12.96779 14.976679,-33.96594 20.458985,-51.65625 5.363542,-17.30711 9.008274,-35.14146 12.070312,-53 2.873244,-16.75743 15.014512,-36.32201 5.886719,-50.66602 -11.326341,-17.79894 -53.942798,0.1856 -60.044922,-20.00976 -8.509926,-28.16412 61.463691,-41.07541 54.275391,-69.60547 -5.589315,-22.18377 -56.085246,-7.49634 -65.566407,-25.5293 z"
         style="opacity:1;fill:#71c837;fill-opacity:1;fill-rule:nonzero;stroke:none;stroke-width:6.36145687;stroke-linecap:round;stroke-linejoin:round;stroke-miterlimit:4;stroke-dasharray:none;stroke-dashoffset:0;stroke-opacity:1" />
      <path
         sodipodi:nodetypes="sssccccsasss"
         inkscape:connector-curvature="0"
         id="ellipse821"
         transform="scale(0.26458333)"
         d="m -41.292969,689.12695 c -10.0001,0.0595 -20.001693,0.53516 -29.421875,0.53516 -30.144586,0 -62.220156,1.24698 -89.248046,14.5957 -20.92072,10.33249 -33.23347,32.74816 -50.86523,48.0918 71.53911,122.87612 202.9290887,198.54035 345.11328,198.74219 1.72629,-0.05 3.45223,-0.11122 5.17773,-0.1836 0.38809,-1.07038 0.75826,-2.14728 1.08984,-3.24218 7.02357,-23.19209 -7.69531,-48.05678 -7.69531,-72.28907 0,-24.23229 48.44596,-72.8435 27.69531,-100.86049 C 136.90772,742.59158 66.183778,795.52161 41.416016,771.19922 24.590585,754.67633 36.542667,719.48148 18.533203,704.25781 2.7059333,690.87878 -19.292748,688.99601 -41.292969,689.12695 Z"
         style="opacity:1;fill:#71c837;fill-opacity:1;fill-rule:nonzero;stroke:none;stroke-width:6.75395393;stroke-linecap:round;stroke-linejoin:round;stroke-miterlimit:4;stroke-dasharray:none;stroke-dashoffset:0;stroke-opacity:1" />
      <path
         inkscape:connector-curvature="0"
         id="ellipse823"
         transform="scale(0.26458333)"
         d="m 148.66602,151.81055 c -12.58619,25.9188 -22.90639,53.67123 -8.16797,74.28125 38.86013,54.34152 153.5159,-26.42163 199.16992,22.35156 26.6281,28.44739 -18.21345,85.73378 5.3418,116.77344 29.65554,39.07823 106.71947,9.80284 139.7832,46.04297 29.96066,32.83894 -8.20034,107.1478 29.95898,129.94921 5.85288,3.49729 12.44752,3.88293 19.27149,2.48633 A 399.99992,399.99992 0 0 0 148.66602,151.81055 Z"
         style="opacity:1;fill:#71c837;fill-opacity:1;fill-rule:nonzero;stroke:none;stroke-width:9.03451252;stroke-linecap:round;stroke-linejoin:round;stroke-miterlimit:4;stroke-dasharray:none;stroke-dashoffset:0;stroke-opacity:1" />
      <path
         sodipodi:nodetypes="caaaacc"
         inkscape:connector-curvature="0"
         id="ellipse825"
         transform="scale(0.26458333)"
         d="m 533.08008,575.16406 c -10.68606,0.12221 -19.81209,3.8483 -28.82617,8.14258 -22.97586,10.94563 -38.40106,35.53809 -62.40988,43.98047 -34.81999,12.24398 -85.78835,-20.49997 -110.51452,6.90374 -35.89008,39.77655 10.45531,107.16833 6.46708,160.59459 -2.84204,38.07185 -30.53091,76.64014 -21.54854,112.488 C 442.1856,842.72163 524.64077,716.4297 533.08008,575.16406 Z"
         style="opacity:1;fill:#71c837;fill-opacity:1;fill-rule:nonzero;stroke:none;stroke-width:4.50412893;stroke-linecap:round;stroke-linejoin:round;stroke-miterlimit:4;stroke-dasharray:none;stroke-dashoffset:0;stroke-opacity:1" />
      <path
         sodipodi:nodetypes="ssass"
         inkscape:connector-curvature="0"
         id="ellipse827"
         d="m 75.973045,76.229266 c 6.431396,6.7983 6.481928,17.193899 0.112868,23.21922 -6.36906,6.025324 -5.708872,-8.709847 -9.233159,-12.509895 -4.20543,-4.534487 -20.426041,-6.08361 -14.056981,-12.10893 6.36906,-6.02532 16.745878,-5.398695 23.177272,1.399605 z"
         style="opacity:1;fill:#71c837;fill-opacity:1;fill-rule:nonzero;stroke:none;stroke-width:0.5368132;stroke-linecap:round;stroke-linejoin:round;stroke-miterlimit:4;stroke-dasharray:none;stroke-dashoffset:0;stroke-opacity:1" />
      <ellipse
         transform="rotate(-12.043911)"
         ry="6.992557"
         rx="10.723548"
         cy="54.959877"
         cx="8.9507599"
         id="ellipse837"
         style="opacity:1;fill:#71c837;fill-opacity:1;fill-rule:nonzero;stroke:none;stroke-width:0.28342241;stroke-linecap:round;stroke-linejoin:round;stroke-miterlimit:4;stroke-dasharray:none;stroke-dashoffset:0;stroke-opacity:1" />
      <path
         inkscape:connector-curvature="0"
         id="path867"
         transform="scale(0.26458333)"
         d="M 134.28516,193.08984 A 400.00004,400.00004 0 0 0 -264.84375,575.68555 399.99992,399.99992 0 0 0 134.28516,951.0918 399.99992,399.99992 0 0 0 533.41406,568.49609 400.00004,400.00004 0 0 0 134.28516,193.08984 Z"
         style="opacity:1;fill:#000000;fill-opacity:0.09803922;fill-rule:nonzero;stroke:none;stroke-width:4.62809896;stroke-linecap:round;stroke-linejoin:round;stroke-miterlimit:4;stroke-dasharray:none;stroke-dashoffset:0;stroke-opacity:1" />
      <path
         inkscape:connector-curvature="0"
         id="path872"
         d="m 140.46119,157.86014 a 125.11012,125.11012 0 0 1 -104.883513,57.11899 125.11012,125.11012 0 0 1 -104.97964,-57.09729 105.83331,105.83331 0 0 0 104.97964,93.7612 105.83331,105.83331 0 0 0 104.883513,-93.7829 z"
         style="opacity:1;fill:#000000;fill-opacity:0.09803922;fill-rule:nonzero;stroke:none;stroke-width:1.66813481;stroke-linecap:round;stroke-linejoin:round;stroke-miterlimit:4;stroke-dasharray:none;stroke-dashoffset:0;stroke-opacity:1" />
    </g>
  </g>
  <g
     inkscape:groupmode="layer"
     id="layer2"
     inkscape:label="Face--Open-Mouth"
     style="display:inline"
     transform="translate(72.303717,-37.976212)">
    <g
       id="g937"
       transform="translate(-1.3229166)">
      <g
         id="g957">
        <g
           transform="translate(1.3229166,-2.6458333)"
           id="g941">
          <circle
             style="opacity:1;fill:#000000;fill-opacity:1;fill-rule:nonzero;stroke:none;stroke-width:2.49019599;stroke-linecap:round;stroke-linejoin:round;stroke-miterlimit:4;stroke-dasharray:none;stroke-dashoffset:0;stroke-opacity:1"
             id="path882"
             cx="35.529762"
             cy="145.80952"
             r="15.119048" />
          <path
             inkscape:connector-curvature="0"
             style="opacity:1;fill:#ff0000;fill-opacity:1;fill-rule:nonzero;stroke:none;stroke-width:3.99999976;stroke-linecap:round;stroke-linejoin:round;stroke-miterlimit:4;stroke-dasharray:none;stroke-dashoffset:0;stroke-opacity:1"
             d="m 135.71484,576.80469 a 32.857145,32.857145 0 0 0 -31.30468,22.91406 57.142859,57.142859 0 0 0 29.875,8.51563 57.142859,57.142859 0 0 0 32.20898,-10.01172 32.857145,32.857145 0 0 0 -30.7793,-21.41797 z"
             transform="scale(0.26458333)"
             id="path910" />
        </g>
        <g
           id="g923">
          <circle
             style="opacity:1;fill:#000000;fill-opacity:1;fill-rule:nonzero;stroke:none;stroke-width:2.24117637;stroke-linecap:round;stroke-linejoin:round;stroke-miterlimit:4;stroke-dasharray:none;stroke-dashoffset:0;stroke-opacity:1"
             id="circle906"
             cx="4.1539136e-07"
             cy="131.44644"
             r="13.607143" />
          <circle
             r="2.9104166"
             cy="126.64613"
             cx="-6.1610074"
             id="path886"
             style="opacity:1;fill:#ffffff;fill-opacity:1;fill-rule:nonzero;stroke:none;stroke-width:0.81491667;stroke-linecap:round;stroke-linejoin:round;stroke-miterlimit:4;stroke-dasharray:none;stroke-dashoffset:0;stroke-opacity:1" />
        </g>
        <g
           id="g929"
           transform="translate(73.705357,0.75595238)">
          <circle
             r="13.607143"
             cy="131.44644"
             cx="4.1539136e-07"
             id="circle925"
             style="opacity:1;fill:#000000;fill-opacity:1;fill-rule:nonzero;stroke:none;stroke-width:2.24117637;stroke-linecap:round;stroke-linejoin:round;stroke-miterlimit:4;stroke-dasharray:none;stroke-dashoffset:0;stroke-opacity:1" />
          <circle
             r="2.9104166"
             style="opacity:1;fill:#ffffff;fill-opacity:1;fill-rule:nonzero;stroke:none;stroke-width:0.81491667;stroke-linecap:round;stroke-linejoin:round;stroke-miterlimit:4;stroke-dasharray:none;stroke-dashoffset:0;stroke-opacity:1"
             id="circle927"
             cx="-6.1610074"
             cy="126.64613" />
        </g>
      </g>
    </g>
  </g>
  <g
     style="display:inline"
     inkscape:label="Face--Smile"
     id="g881"
     inkscape:groupmode="layer"
     transform="translate(72.303717,-37.976212)">
    <g
       transform="translate(-1.3229166)"
       id="g879">
      <g
         id="g876">
        <path
           style="opacity:1;fill:none;fill-opacity:1;fill-rule:nonzero;stroke:#000000;stroke-width:3.29167604;stroke-linecap:round;stroke-linejoin:round;stroke-miterlimit:4;stroke-dasharray:none;stroke-dashoffset:0;stroke-opacity:1"
           id="circle858"
           sodipodi:type="arc"
           sodipodi:cx="36.85268"
           sodipodi:cy="145.05357"
           sodipodi:rx="13.435412"
           sodipodi:ry="13.435412"
           sodipodi:start="0"
           sodipodi:end="3.1415927"
           sodipodi:open="true"
           d="m 50.288093,145.05357 a 13.435412,13.435412 0 0 1 -6.717707,11.63541 13.435412,13.435412 0 0 1 -13.435412,0 13.435412,13.435412 0 0 1 -6.717706,-11.63541" />
        <g
           id="g868">
          <circle
             r="13.607143"
             cy="131.44644"
             cx="4.1539136e-07"
             id="circle864"
             style="opacity:1;fill:#000000;fill-opacity:1;fill-rule:nonzero;stroke:none;stroke-width:2.24117637;stroke-linecap:round;stroke-linejoin:round;stroke-miterlimit:4;stroke-dasharray:none;stroke-dashoffset:0;stroke-opacity:1" />
          <circle
             style="opacity:1;fill:#ffffff;fill-opacity:1;fill-rule:nonzero;stroke:none;stroke-width:0.81491667;stroke-linecap:round;stroke-linejoin:round;stroke-miterlimit:4;stroke-dasharray:none;stroke-dashoffset:0;stroke-opacity:1"
             id="circle866"
             cx="-6.1610074"
             cy="126.64613"
             r="2.9104166" />
        </g>
        <g
           transform="translate(73.705357,0.75595238)"
           id="g874">
          <circle
             style="opacity:1;fill:#000000;fill-opacity:1;fill-rule:nonzero;stroke:none;stroke-width:2.24117637;stroke-linecap:round;stroke-linejoin:round;stroke-miterlimit:4;stroke-dasharray:none;stroke-dashoffset:0;stroke-opacity:1"
             id="circle870"
             cx="4.1539136e-07"
             cy="131.44644"
             r="13.607143" />
          <circle
             cy="126.64613"
             cx="-6.1610074"
             id="circle872"
             style="opacity:1;fill:#ffffff;fill-opacity:1;fill-rule:nonzero;stroke:none;stroke-width:0.81491667;stroke-linecap:round;stroke-linejoin:round;stroke-miterlimit:4;stroke-dasharray:none;stroke-dashoffset:0;stroke-opacity:1"
             r="2.9104166" />
        </g>
      </g>
    </g>
  </g>
  <g
     inkscape:label="Face--Happy"
     id="g855"
     inkscape:groupmode="layer"
     style="display:inline"
     transform="translate(72.303717,-37.976212)">
    <g
       transform="translate(-1.3229166)"
       id="g853">
      <g
         id="g851">
        <g
           id="g878"
           transform="translate(0,-2.1166667)">
          <path
             transform="matrix(0.26458333,0,0,0.26458333,1.3229166,0)"
             id="circle833"
             d="m 77.244141,543.94922 a 57.142859,57.142859 0 0 0 57.041019,54.28516 57.142859,57.142859 0 0 0 57,-54.28516 z"
             style="opacity:1;fill:#000000;fill-opacity:1;fill-rule:nonzero;stroke:none;stroke-width:9.41176414;stroke-linecap:round;stroke-linejoin:round;stroke-miterlimit:4;stroke-dasharray:none;stroke-dashoffset:0;stroke-opacity:1"
             inkscape:connector-curvature="0" />
          <path
             id="path835"
             d="m 37.230801,149.96707 a 8.6934528,8.6934528 0 0 0 -8.282697,6.06268 15.119048,15.119048 0 0 0 7.904427,2.25309 15.119048,15.119048 0 0 0 8.52196,-2.64893 8.6934528,8.6934528 0 0 0 -8.14369,-5.66684 z"
             style="opacity:1;fill:#ff0000;fill-opacity:1;fill-rule:nonzero;stroke:none;stroke-width:1.05833328;stroke-linecap:round;stroke-linejoin:round;stroke-miterlimit:4;stroke-dasharray:none;stroke-dashoffset:0;stroke-opacity:1"
             inkscape:connector-curvature="0" />
        </g>
        <path
           style="opacity:1;fill:none;fill-opacity:1;fill-rule:nonzero;stroke:#000000;stroke-width:3.05118322;stroke-linecap:round;stroke-linejoin:round;stroke-miterlimit:4;stroke-dasharray:none;stroke-dashoffset:0;stroke-opacity:1"
           d="m -12.081399,133.11922 c 10e-7,-6.67245 5.4090867,-12.08153 12.08153167755,-12.08153 C 6.6725775,121.03769 12.081663,126.44678 12.081664,133.11922"
           id="circle839"
           inkscape:connector-curvature="0"
           sodipodi:nodetypes="csc" />
        <path
           sodipodi:nodetypes="csc"
           inkscape:connector-curvature="0"
           id="path883"
           d="m 61.623826,133.11922 c 10e-7,-6.67245 5.409087,-12.08153 12.081532,-12.08153 6.672445,0 12.08153,5.40909 12.081531,12.08153"
           style="opacity:1;fill:none;fill-opacity:1;fill-rule:nonzero;stroke:#000000;stroke-width:3.05118322;stroke-linecap:round;stroke-linejoin:round;stroke-miterlimit:4;stroke-dasharray:none;stroke-dashoffset:0;stroke-opacity:1" />
      </g>
    </g>
  </g>
  <g
     style="display:inline"
     inkscape:label="Face--Chew-2"
     id="g967"
     inkscape:groupmode="layer"
     transform="translate(72.303717,-37.976212)">
    <g
       transform="translate(-1.3229166,-1.5875)"
       id="g965"
       style="stroke:#000000">
      <g
         id="g963"
         style="stroke:#000000">
        <g
           id="g977"
           style="stroke:#000000;stroke-width:3.27439976;stroke-miterlimit:4;stroke-dasharray:none"
           transform="matrix(0.89004512,0,0,0.7014397,4.5674307e-8,39.244689)">
          <path
             style="opacity:1;fill:none;fill-opacity:1;fill-rule:nonzero;stroke:#000000;stroke-width:3.27439976;stroke-linecap:round;stroke-linejoin:round;stroke-miterlimit:4;stroke-dasharray:none;stroke-dashoffset:0;stroke-opacity:1"
             d="M -13.607143,131.44644 C -13.607141,123.93142 -7.5150161,117.8393 4.1539135e-7,117.8393 7.515017,117.8393 13.607142,123.93142 13.607144,131.44644"
             id="circle973"
             inkscape:connector-curvature="0"
             sodipodi:nodetypes="csc" />
        </g>
        <g
           transform="matrix(0.89004512,0,0,0.7014397,73.705357,39.244689)"
           style="stroke:#000000;stroke-width:3.27439976;stroke-miterlimit:4;stroke-dasharray:none"
           id="g982">
          <path
             sodipodi:nodetypes="csc"
             inkscape:connector-curvature="0"
             id="path980"
             d="M -13.607143,131.44644 C -13.607141,123.93142 -7.5150161,117.8393 4.1539135e-7,117.8393 7.515017,117.8393 13.607142,123.93142 13.607144,131.44644"
             style="opacity:1;fill:none;fill-opacity:1;fill-rule:nonzero;stroke:#000000;stroke-width:3.27439976;stroke-linecap:round;stroke-linejoin:round;stroke-miterlimit:4;stroke-dasharray:none;stroke-dashoffset:0;stroke-opacity:1" />
        </g>
      </g>
    </g>
    <g
       transform="translate(-0.13656123)"
       style="display:inline"
       id="g943">
      <path
         inkscape:connector-curvature="0"
         id="path933"
         d="M 26.413617,144.65637 H 44.91903"
         style="fill:none;stroke:#000000;stroke-width:3.70416665;stroke-linecap:round;stroke-linejoin:miter;stroke-miterlimit:4;stroke-dasharray:none;stroke-opacity:1" />
      <path
         sodipodi:nodetypes="cssc"
         inkscape:connector-curvature="0"
         id="path935"
         d="m 52.279305,153.03439 c -2.487837,0 -4.786693,-1.59684 -6.030612,-4.18901 -1.243918,-2.59216 -1.243918,-5.78586 0,-8.37802 1.243919,-2.59217 3.542775,-4.18901 6.030612,-4.18901"
         style="opacity:1;fill:none;fill-opacity:1;fill-rule:nonzero;stroke:#000000;stroke-width:3.70416665;stroke-linecap:round;stroke-linejoin:round;stroke-miterlimit:4;stroke-dasharray:none;stroke-dashoffset:0;stroke-opacity:1" />
      <path
         style="opacity:1;fill:none;fill-opacity:1;fill-rule:nonzero;stroke:#000000;stroke-width:3.70416665;stroke-linecap:round;stroke-linejoin:round;stroke-miterlimit:4;stroke-dasharray:none;stroke-dashoffset:0;stroke-opacity:1"
         d="m 19.053342,153.03439 c 2.487837,0 4.786693,-1.59684 6.030612,-4.18901 1.243918,-2.59216 1.243918,-5.78586 0,-8.37802 -1.243919,-2.59217 -3.542775,-4.18901 -6.030612,-4.18901"
         id="path938"
         inkscape:connector-curvature="0"
         sodipodi:nodetypes="cssc" />
    </g>
  </g>
  <g
     inkscape:groupmode="layer"
     id="layer3"
     inkscape:label="HitSpot"
     style="opacity:0.48300003"
     transform="translate(72.303717,-37.976212)">
    <circle
       style="opacity:1;fill:#ff00ff;fill-opacity:1;fill-rule:nonzero;stroke:none;stroke-width:2.64583325;stroke-linecap:round;stroke-linejoin:round;stroke-miterlimit:4;stroke-dasharray:none;stroke-dashoffset:0;stroke-opacity:1"
       id="path985"
       cx="35.529762"
       cy="145.80952"
       r="52.916664" />
  </g>
</svg>
