<svg class="cact-us cactus" viewbox="0 0 368 398" fill="none" xmlns="http://www.w3.org/2000/svg">
  <rect class="cact-u--primary cactus--stroke" x="154" y="173" width="56" height="24" fill="#578529" stroke="black" stroke-width="4" />
  <mask id="mask0_2_553" style="mask-type:alpha" maskunits="userSpaceOnUse" x="152" y="171" width="60" height="28">
    <rect x="152" y="171" width="60" height="28" fill="#578529" />
  </mask>
  <g mask="url(#mask0_2_553)">
    <rect class="cact-u--secondary" x="152" y="185" width="60" height="28" fill="#3D6E0B" />
  </g>
  <rect class="cact-i--primary cactus--stroke" x="154" y="197" width="56" height="24" fill="#578529" stroke="black" stroke-width="4" />
  <rect class="cactus--stroke" x="154" y="172" width="56" height="24" stroke="black" stroke-width="4" />
  <mask id="mask1_2_553" style="mask-type:alpha" maskunits="userSpaceOnUse" x="152" y="195" width="60" height="28">
    <rect x="152" y="195" width="60" height="28" fill="#578529" />
  </mask>
  <g mask="url(#mask1_2_553)">
    <rect class="cact-i--secondary cactus--stroke" x="152" y="209" width="60" height="28" fill="#3D6E0B" />
  </g>
  <rect class="cactus--stroke" x="154" y="197" width="56" height="24" stroke="black" stroke-width="4" />
  <line class="cactus--stroke" x1="177.563" y1="166.196" x2="180.196" y2="173.437" stroke="black" stroke-width="4" stroke-linecap="round" />
  <line class="cactus--stroke" x1="183.499" y1="217.399" x2="181.398" y2="226.501" stroke="black" stroke-width="4" stroke-linecap="round" />
  <line class="cactus--stroke" x1="195.399" y1="215.499" x2="197.499" y2="224.602" stroke="black" stroke-width="4" stroke-linecap="round" />
  <line class="cactus--stroke" x1="200.196" y1="191.563" x2="197.563" y2="198.804" stroke="black" stroke-width="4" stroke-linecap="round" />
  <line class="cactus--stroke" x1="197" y1="168" x2="197" y2="177" stroke="black" stroke-width="4" stroke-linecap="round" />
  <line class="cactus--stroke" x1="174.375" y1="190.537" x2="176.537" y2="200.625" stroke="black" stroke-width="4" stroke-linecap="round" />
  <path class="cact-u--primary" d="M32.625 175C22.891 175 7 190.039 7 199.955V236.045C7 245.961 14.891 254 24.625 254C34.359 254 42.25 245.961 42.25 236.045V216.909C42.25 213.595 44.9363 210.909 48.25 210.909H83.375C93.109 210.909 101 202.871 101 192.955C101 183.039 93.109 175 83.375 175H32.625Z" fill="#B6E37E" />
  <mask id="mask2_2_553" style="mask-type:alpha" maskunits="userSpaceOnUse" x="28" y="198" width="94" height="79">
    <path d="M45.625 198C35.891 198 28 206.039 28 215.955V259.045C28 268.961 35.891 277 45.625 277C55.359 277 63.25 268.961 63.25 259.045V233.909H104.375C114.109 233.909 122 225.871 122 215.955C122 206.039 114.109 198 104.375 198H45.625Z" fill="#C4C4C4" />
  </mask>
  <g mask="url(#mask2_2_553)">
    <path class="cact-u--secondary" d="M24.625 175C14.891 175 7 183.039 7 192.955V236.045C7 245.961 14.891 254 24.625 254C34.359 254 42.25 245.961 42.25 236.045V210.909H83.375C93.109 210.909 101 202.871 101 192.955C101 183.039 93.109 175 83.375 175H24.625Z" fill="#54991E" />
  </g>
  <path class="cactus--stroke" d="M9 196.955C9 189.807 11.7449 184.905 15.7013 181.745C19.7208 178.534 25.1532 177 30.625 177H83.375C91.9697 177 99 184.108 99 192.955C99 201.801 91.9697 208.909 83.375 208.909H48.25C43.8317 208.909 40.25 212.491 40.25 216.909V236.045C40.25 244.892 33.2197 252 24.625 252C16.0303 252 9 244.892 9 236.045V196.955Z" stroke="black" stroke-width="4" />
  <line class="cactus--stroke" x1="25.5298" y1="171.265" x2="29.2649" y2="182.47" stroke="black" stroke-width="4" stroke-linecap="round" />
  <line class="cactus--stroke" x1="9.7735" y1="181.445" x2="15.4453" y2="185.227" stroke="black" stroke-width="4" stroke-linecap="round" />
  <line class="cactus--stroke" x1="2.56307" y1="199.804" x2="9.8039" y2="202.437" stroke="black" stroke-width="4" stroke-linecap="round" />
  <line class="cactus--stroke" x1="4.13741" y1="221.148" x2="14.1476" y2="221.863" stroke="black" stroke-width="4" stroke-linecap="round" />
  <line class="cactus--stroke" x1="5.61357" y1="243.239" x2="13.2389" y2="238.386" stroke="black" stroke-width="4" stroke-linecap="round" />
  <line class="cactus--stroke" x1="21.8407" y1="247.148" x2="21.1475" y2="256.159" stroke="black" stroke-width="4" stroke-linecap="round" />
  <line class="cactus--stroke" x1="35.5997" y1="235.886" x2="41.8858" y2="238.4" stroke="black" stroke-width="4" stroke-linecap="round" />
  <line class="cactus--stroke" x1="35.6154" y1="220.923" x2="43.9231" y2="224.385" stroke="black" stroke-width="4" stroke-linecap="round" />
  <line class="cactus--stroke" x1="47.2627" y1="203.697" x2="48.6971" y2="213.737" stroke="black" stroke-width="4" stroke-linecap="round" />
  <line class="cactus--stroke" x1="48.7181" y1="170.247" x2="47.2468" y2="181.282" stroke="black" stroke-width="4" stroke-linecap="round" />
  <rect class="cact-u--secondary" x="59" y="36" width="105" height="346" rx="52.5" fill="#6ECE23" stroke="black" stroke-width="4" />
  <mask id="mask3_2_553" style="mask-type:alpha" maskunits="userSpaceOnUse" x="43" y="35" width="109" height="350">
    <rect x="43" y="35" width="109" height="350" rx="54.5" fill="#3A911B" />
  </mask>
  <g mask="url(#mask3_2_553)">
    <rect class="cact-u--primary" x="56" y="35" width="109" height="350" rx="54.5" fill="#8FEC6E" />
  </g>
  <rect class="cactus--stroke" x="58" y="35" width="105" height="346" rx="52.5" stroke="black" stroke-width="4" />
  <line class="cactus--stroke" x1="171.378" y1="87.3171" x2="158.317" y2="89.622" stroke="black" stroke-width="4" stroke-linecap="round" />
  <line class="cactus--stroke" x1="163.378" y1="61.3171" x2="150.317" y2="63.622" stroke="black" stroke-width="4" stroke-linecap="round" />
  <line class="cactus--stroke" x1="124.455" y1="27.4254" x2="121.425" y2="39.5448" stroke="black" stroke-width="4" stroke-linecap="round" />
  <line class="cactus--stroke" x1="108.425" y1="39.8296" x2="103.83" y2="27.5749" stroke="black" stroke-width="4" stroke-linecap="round" />
  <line class="cactus--stroke" x1="115" y1="38" x2="115" y2="25" stroke="black" stroke-width="4" stroke-linecap="round" />
  <line class="cactus--stroke" x1="66.4702" y1="67.2649" x2="55.2649" y2="63.5298" stroke="black" stroke-width="4" stroke-linecap="round" />
  <line class="cactus--stroke" x1="63.5522" y1="83.4171" x2="52.4171" y2="80.4478" stroke="black" stroke-width="4" stroke-linecap="round" />
  <line class="cactus--stroke" x1="62.7914" y1="104.767" x2="48.7669" y2="103.209" stroke="black" stroke-width="4" stroke-linecap="round" />
  <line class="cactus--stroke" x1="63" y1="123" x2="52" y2="123" stroke="black" stroke-width="4" stroke-linecap="round" />
  <line class="cactus--stroke" x1="92.8039" y1="128.563" x2="85.5631" y2="131.196" stroke="black" stroke-width="4" stroke-linecap="round" />
  <line class="cactus--stroke" x1="95.346" y1="103.978" x2="85.9778" y2="99.654" stroke="black" stroke-width="4" stroke-linecap="round" />
  <line class="cactus--stroke" x1="98.2146" y1="75.5085" x2="93.5085" y2="68.7854" stroke="black" stroke-width="4" stroke-linecap="round" />
  <line class="cactus--stroke" x1="124.735" y1="75.4702" x2="127.47" y2="67.2649" stroke="black" stroke-width="4" stroke-linecap="round" />
  <line class="cactus--stroke" x1="136.386" y1="103.239" x2="141.239" y2="95.6136" stroke="black" stroke-width="4" stroke-linecap="round" />
  <line class="cactus--stroke" x1="97.3864" y1="178.239" x2="102.239" y2="170.614" stroke="black" stroke-width="4" stroke-linecap="round" />
  <line class="cactus--stroke" x1="142.341" y1="197.51" x2="148.51" y2="195.659" stroke="black" stroke-width="4" stroke-linecap="round" />
  <line class="cactus--stroke" x1="136.6" y1="224.886" x2="142.886" y2="227.4" stroke="black" stroke-width="4" stroke-linecap="round" />
  <line class="cactus--stroke" x1="82.2627" y1="206.303" x2="92.3029" y2="207.737" stroke="black" stroke-width="4" stroke-linecap="round" />
  <line class="cactus--stroke" x1="88.3508" y1="241.807" x2="83.8066" y2="247.649" stroke="black" stroke-width="4" stroke-linecap="round" />
  <line class="cactus--stroke" x1="136.47" y1="247.265" x2="128.265" y2="244.53" stroke="black" stroke-width="4" stroke-linecap="round" />
  <line class="cactus--stroke" x1="76.7911" y1="160.811" x2="82.8109" y2="160.209" stroke="black" stroke-width="4" stroke-linecap="round" />
  <line class="cactus--stroke" x1="104.386" y1="232.239" x2="109.239" y2="224.614" stroke="black" stroke-width="4" stroke-linecap="round" />
  <line class="cactus--stroke" x1="63" y1="142" x2="53" y2="142" stroke="black" stroke-width="4" stroke-linecap="round" />
  <line class="cactus--stroke" x1="62.8626" y1="159.852" x2="52.8524" y2="159.137" stroke="black" stroke-width="4" stroke-linecap="round" />
  <line class="cactus--stroke" x1="63.8791" y1="187.871" x2="51.8713" y2="187.121" stroke="black" stroke-width="4" stroke-linecap="round" />
  <line class="cactus--stroke" x1="63" y1="221" x2="53" y2="221" stroke="black" stroke-width="4" stroke-linecap="round" />
  <line class="cactus--stroke" x1="63.3029" y1="243.263" x2="53.2627" y2="244.697" stroke="black" stroke-width="4" stroke-linecap="round" />
  <line class="cactus--stroke" x1="98.1735" y1="42.1047" x2="87.1047" y2="31.8265" stroke="black" stroke-width="4" stroke-linecap="round" />
  <line class="cactus--stroke" x1="82.1735" y1="50.1047" x2="71.1047" y2="39.8265" stroke="black" stroke-width="4" stroke-linecap="round" />
  <line class="cactus--stroke" x1="146.686" y1="37.744" x2="139.744" y2="49.314" stroke="black" stroke-width="4" stroke-linecap="round" />
  <line class="cactus--stroke" x1="171.378" y1="116.317" x2="158.317" y2="118.622" stroke="black" stroke-width="4" stroke-linecap="round" />
  <line class="cactus--stroke" x1="172.646" y1="152.483" x2="159.483" y2="156.354" stroke="black" stroke-width="4" stroke-linecap="round" />
  <line class="cactus--stroke" x1="171.121" y1="190.114" x2="158.114" y2="190.879" stroke="black" stroke-width="4" stroke-linecap="round" />
  <line class="cactus--stroke" x1="171.121" y1="226.114" x2="158.114" y2="226.879" stroke="black" stroke-width="4" stroke-linecap="round" />
  <line class="cactus--stroke" x1="172.121" y1="247.114" x2="159.114" y2="247.879" stroke="black" stroke-width="4" stroke-linecap="round" />
  <path class="cactus--stroke" d="M146 155C146 159.418 143.971 163 139 163C134.029 163 132 159.418 132 155" stroke="black" stroke-width="4" stroke-linecap="round" />
  <path class="cactus--stroke" d="M121 138C121 134.686 122.595 132 126.5 132C130.405 132 132 134.686 132 138" stroke="black" stroke-width="4" stroke-linecap="round" />
  <path class="cactus--stroke" d="M145 138C145 134.686 146.595 132 150.5 132C154.405 132 156 134.686 156 138" stroke="black" stroke-width="4" stroke-linecap="round" />
  <g class="cact-u__pot pot">
    <path class="pot__secondary" d="M57.9829 281.571H162.223C167.446 281.571 171.572 286.003 171.2 291.212L164.247 388.641C163.911 393.351 159.991 397 155.27 397H64.9367C60.2148 397 56.2957 393.351 55.9595 388.641L49.0057 291.212C48.6339 286.003 52.76 281.571 57.9829 281.571Z" fill="#C4C4C4" stroke="black" stroke-width="2" />
    <mask id="mask4_2_553" style="mask-type:alpha" maskunits="userSpaceOnUse" x="47" y="280" width="123" height="118">
      <path d="M47.9902 291.268C47.5866 285.485 52.169 280.571 57.9659 280.571H159.447C165.244 280.571 169.826 285.485 169.422 291.268L162.623 388.696C162.257 393.936 157.9 398 152.647 398H64.7652C59.5125 398 55.1551 393.936 54.7895 388.696L47.9902 291.268Z" fill="#C4C4C4" />
    </mask>
    <g mask="url(#mask4_2_553)">
      <path class="pot__primary" d="M23.8151 291.756C23.3753 285.952 27.9659 281 33.7865 281H145.213C151.034 281 155.625 285.952 155.185 291.756L147.834 388.756C147.439 393.97 143.092 398 137.862 398H41.1375C35.9078 398 31.5613 393.97 31.1661 388.756L23.8151 291.756Z" fill="#D91313" />
    </g>
    <path class="cactus--stroke" d="M57.9829 282.571H162.223C166.866 282.571 170.534 286.51 170.203 291.141L163.249 388.57C162.95 392.756 159.467 396 155.27 396H64.9367C60.7394 396 57.2558 392.756 56.957 388.57L50.0032 291.141C49.6727 286.51 53.3403 282.571 57.9829 282.571Z" stroke="black" stroke-width="4" />
    <path class="pot__secondary" d="M39.7937 271C39.7937 265.477 44.2709 261 49.7937 261H169.481C175.004 261 179.481 265.477 179.481 271V298.95C179.481 304.473 175.004 308.95 169.481 308.95H49.7938C44.2709 308.95 39.7937 304.473 39.7937 298.95V271Z" fill="#C4C4C4" />
    <mask id="mask5_2_553" style="mask-type:alpha" maskunits="userSpaceOnUse" x="39" y="261" width="147" height="48">
      <path d="M39.7937 271C39.7937 265.477 44.2709 261 49.7937 261H176C181.523 261 186 265.477 186 271V298.95C186 304.473 181.523 308.95 176 308.95H49.7938C44.2709 308.95 39.7937 304.473 39.7937 298.95V271Z" fill="#E56565" />
    </mask>
    <g mask="url(#mask5_2_553)">
      <rect class="pot__primary" x="-34" y="261" width="196" height="48" rx="10" fill="#E56565" />
    </g>
    <path class="cactus--stroke" d="M47 263H172.275C176.693 263 180.275 266.582 180.275 271V298.95C180.275 303.368 176.693 306.95 172.275 306.95H47C42.5817 306.95 39 303.368 39 298.95V271C39 266.582 42.5817 263 47 263Z" stroke="black" stroke-width="4" />
  </g>
  <!-- Cact-I -->
  <path class="cact-i--primary" d="M335.375 176C345.109 176 361 191.039 361 200.955V237.045C361 246.961 353.109 255 343.375 255C333.641 255 325.75 246.961 325.75 237.045V217.909C325.75 214.595 323.064 211.909 319.75 211.909H284.625C274.891 211.909 267 203.871 267 193.955C267 184.039 274.891 176 284.625 176H335.375Z" fill="#B6E37E" />
  <mask id="mask6_2_553" style="mask-type:alpha" maskunits="userSpaceOnUse" x="246" y="199" width="94" height="79">
    <path d="M322.375 199C332.109 199 340 207.039 340 216.955V260.045C340 269.961 332.109 278 322.375 278C312.641 278 304.75 269.961 304.75 260.045V234.909H263.625C253.891 234.909 246 226.871 246 216.955C246 207.039 253.891 199 263.625 199H322.375Z" fill="#C4C4C4" />
  </mask>
  <g mask="url(#mask6_2_553)">
    <path class="cact-i--secondary" d="M343.375 176C353.109 176 361 184.039 361 193.955V237.045C361 246.961 353.109 255 343.375 255C333.641 255 325.75 246.961 325.75 237.045V211.909H284.625C274.891 211.909 267 203.871 267 193.955C267 184.039 274.891 176 284.625 176H343.375Z" fill="#54991E" />
  </g>
  <path class="cactus--stroke" d="M359 197.955C359 190.807 356.255 185.905 352.299 182.745C348.279 179.534 342.847 178 337.375 178H284.625C276.03 178 269 185.108 269 193.955C269 202.801 276.03 209.909 284.625 209.909H319.75C324.168 209.909 327.75 213.491 327.75 217.909V237.045C327.75 245.892 334.78 253 343.375 253C351.97 253 359 245.892 359 237.045V197.955Z" stroke="black" stroke-width="4" />
  <line class="cactus--stroke" x1="2" y1="-2" x2="13.8114" y2="-2" transform="matrix(-0.316228 0.948683 0.948683 0.316228 345 171)" stroke="black" stroke-width="4" stroke-linecap="round" />
  <line class="cactus--stroke" x1="2" y1="-2" x2="8.81665" y2="-2" transform="matrix(-0.83205 0.5547 0.5547 0.83205 361 183)" stroke="black" stroke-width="4" stroke-linecap="round" />
  <line class="cactus--stroke" x1="2" y1="-2" x2="9.7047" y2="-2" transform="matrix(-0.939793 0.341743 0.341743 0.939793 368 202)" stroke="black" stroke-width="4" stroke-linecap="round" />
  <line class="cactus--stroke" x1="2" y1="-2" x2="12.0357" y2="-2" transform="matrix(-0.997459 0.0712471 0.0712471 0.997459 366 224)" stroke="black" stroke-width="4" stroke-linecap="round" />
  <line class="cactus--stroke" x1="2" y1="-2" x2="11.0384" y2="-2" transform="matrix(-0.843662 -0.536875 -0.536875 0.843662 363 247)" stroke="black" stroke-width="4" stroke-linecap="round" />
  <line class="cactus--stroke" x1="2" y1="-2" x2="11.0384" y2="-2" transform="matrix(0.0766965 0.997054 0.997054 -0.0766965 348 246)" stroke="black" stroke-width="4" stroke-linecap="round" />
  <line class="cactus--stroke" x1="2" y1="-2" x2="8.77033" y2="-2" transform="matrix(-0.928477 0.371391 0.371391 0.928477 335 238)" stroke="black" stroke-width="4" stroke-linecap="round" />
  <line class="cactus--stroke" x1="2" y1="-2" x2="11" y2="-2" transform="matrix(-0.923077 0.384615 0.384615 0.923077 335 223)" stroke="black" stroke-width="4" stroke-linecap="round" />
  <line class="cactus--stroke" x1="2" y1="-2" x2="12.1421" y2="-2" transform="matrix(-0.141421 0.98995 0.98995 0.141421 323 203)" stroke="black" stroke-width="4" stroke-linecap="round" />
  <line class="cactus--stroke" x1="2" y1="-2" x2="13.1327" y2="-2" transform="matrix(0.132164 0.991228 0.991228 -0.132164 321 169)" stroke="black" stroke-width="4" stroke-linecap="round" />
  <rect class="cact-i--secondary" x="204" y="34" width="105" height="346" rx="52.5" fill="#6ECE23" stroke="black" stroke-width="4" />
  <mask id="mask7_2_553" style="mask-type:alpha" maskunits="userSpaceOnUse" x="188" y="33" width="109" height="350">
    <rect x="188" y="33" width="109" height="350" rx="54.5" fill="#3A911B" />
  </mask>
  <g mask="url(#mask7_2_553)">
    <rect class="cact-i--primary" x="201" y="33" width="109" height="350" rx="54.5" fill="#8FEC6E" />
  </g>
  <rect class="cactus--stroke" x="203" y="33" width="105" height="346" rx="52.5" stroke="black" stroke-width="4" />
  <line class="cactus--stroke" x1="312.378" y1="79.3171" x2="299.317" y2="81.622" stroke="black" stroke-width="4" stroke-linecap="round" />
  <line class="cactus--stroke" x1="308.378" y1="59.3171" x2="295.317" y2="61.622" stroke="black" stroke-width="4" stroke-linecap="round" />
  <line class="cactus--stroke" x1="263.455" y1="27.4254" x2="260.425" y2="39.5448" stroke="black" stroke-width="4" stroke-linecap="round" />
  <line class="cactus--stroke" x1="246.425" y1="38.8296" x2="241.83" y2="26.5749" stroke="black" stroke-width="4" stroke-linecap="round" />
  <line class="cactus--stroke" x1="253" y1="38" x2="253" y2="25" stroke="black" stroke-width="4" stroke-linecap="round" />
  <line class="cactus--stroke" x1="214.47" y1="58.2649" x2="203.265" y2="54.5298" stroke="black" stroke-width="4" stroke-linecap="round" />
  <line class="cactus--stroke" x1="207.552" y1="70.4171" x2="196.417" y2="67.4478" stroke="black" stroke-width="4" stroke-linecap="round" />
  <line class="cactus--stroke" x1="206.791" y1="90.7669" x2="192.767" y2="89.2086" stroke="black" stroke-width="4" stroke-linecap="round" />
  <line class="cactus--stroke" x1="205" y1="109" x2="194" y2="109" stroke="black" stroke-width="4" stroke-linecap="round" />
  <line class="cactus--stroke" x1="223.828" y1="76" x2="229" y2="81.1716" stroke="black" stroke-width="4" stroke-linecap="round" />
  <line class="cactus--stroke" x1="248.223" y1="104.28" x2="251.28" y2="98.777" stroke="black" stroke-width="4" stroke-linecap="round" />
  <line class="cactus--stroke" x1="243.602" y1="72.5009" x2="241.501" y2="63.3985" stroke="black" stroke-width="4" stroke-linecap="round" />
  <line class="cactus--stroke" x1="270.735" y1="83.4702" x2="273.47" y2="75.2649" stroke="black" stroke-width="4" stroke-linecap="round" />
  <line class="cactus--stroke" x1="280.445" y1="121.226" x2="286.227" y2="112.555" stroke="black" stroke-width="4" stroke-linecap="round" />
  <line class="cactus--stroke" x1="286.445" y1="155.226" x2="292.227" y2="146.555" stroke="black" stroke-width="4" stroke-linecap="round" />
  <line class="cactus--stroke" x1="261.106" y1="183.317" x2="264.317" y2="176.894" stroke="black" stroke-width="4" stroke-linecap="round" />
  <line class="cactus--stroke" x1="285.569" y1="186.647" x2="291.647" y2="185.431" stroke="black" stroke-width="4" stroke-linecap="round" />
  <line class="cactus--stroke" x1="286.6" y1="217.886" x2="292.886" y2="220.4" stroke="black" stroke-width="4" stroke-linecap="round" />
  <line class="cactus--stroke" x1="223.64" y1="193.985" x2="228.985" y2="196.36" stroke="black" stroke-width="4" stroke-linecap="round" />
  <line class="cactus--stroke" x1="231.007" y1="248.648" x2="223.648" y2="251.993" stroke="black" stroke-width="4" stroke-linecap="round" />
  <path class="cactus--stroke" d="M281.47 245.265L290 248.5" stroke="black" stroke-width="4" stroke-linecap="round" />
  <path class="cactus--stroke" d="M225.118 223L233.647 226.235" stroke="black" stroke-width="4" stroke-linecap="round" />
  <line class="cactus--stroke" x1="257.791" y1="143.811" x2="263.811" y2="143.209" stroke="black" stroke-width="4" stroke-linecap="round" />
  <line class="cactus--stroke" x1="252.886" y1="245.4" x2="255.4" y2="239.114" stroke="black" stroke-width="4" stroke-linecap="round" />
  <line class="cactus--stroke" x1="312.583" y1="100.448" x2="301.448" y2="103.417" stroke="black" stroke-width="4" stroke-linecap="round" />
  <line class="cactus--stroke" x1="204.863" y1="131.852" x2="194.852" y2="131.137" stroke="black" stroke-width="4" stroke-linecap="round" />
  <line class="cactus--stroke" x1="315.879" y1="165.871" x2="303.871" y2="165.121" stroke="black" stroke-width="4" stroke-linecap="round" />
  <line class="cactus--stroke" x1="205" y1="231" x2="195" y2="231" stroke="black" stroke-width="4" stroke-linecap="round" />
  <line class="cactus--stroke" x1="204" y1="213" x2="194" y2="213" stroke="black" stroke-width="4" stroke-linecap="round" />
  <line class="cactus--stroke" x1="207.303" y1="249.263" x2="197.263" y2="250.697" stroke="black" stroke-width="4" stroke-linecap="round" />
  <line class="cactus--stroke" x1="232.174" y1="44.1047" x2="221.105" y2="33.8265" stroke="black" stroke-width="4" stroke-linecap="round" />
  <line class="cactus--stroke" x1="222.174" y1="51.1047" x2="211.105" y2="40.8265" stroke="black" stroke-width="4" stroke-linecap="round" />
  <line class="cactus--stroke" x1="285.686" y1="36.744" x2="278.744" y2="48.314" stroke="black" stroke-width="4" stroke-linecap="round" />
  <line class="cactus--stroke" x1="314.378" y1="120.317" x2="301.317" y2="122.622" stroke="black" stroke-width="4" stroke-linecap="round" />
  <line class="cactus--stroke" x1="316" y1="145" x2="304" y2="145" stroke="black" stroke-width="4" stroke-linecap="round" />
  <line class="cactus--stroke" x1="314.121" y1="238.114" x2="301.114" y2="238.879" stroke="black" stroke-width="4" stroke-linecap="round" />
  <line class="cactus--stroke" x1="316.121" y1="219.114" x2="303.114" y2="219.879" stroke="black" stroke-width="4" stroke-linecap="round" />
  <path class="cactus--stroke" d="M316 252L303 252" stroke="black" stroke-width="4" stroke-linecap="round" />
  <path class="cactus--stroke" d="M240 154C240 158.971 237.971 163 233 163C228.029 163 226 158.971 226 154" stroke="black" stroke-width="4" stroke-linecap="round" />
  <path class="cactus--stroke" d="M240 138C240 134.686 241.595 132 245.5 132C249.405 132 251 134.686 251 138" stroke="black" stroke-width="4" stroke-linecap="round" />
  <path class="cactus--stroke" d="M216 138C216 134.686 217.595 132 221.5 132C225.405 132 227 134.686 227 138" stroke="black" stroke-width="4" stroke-linecap="round" />
  <g class="cact-i__pot pot">
    <path class="pot__secondary" d="M203.043 288.143H307.163C312.406 288.143 316.539 292.606 316.136 297.834L309.295 386.691C308.934 391.38 305.024 395 300.322 395H209.885C205.182 395 201.272 391.38 200.911 386.691L194.07 297.834C193.667 292.606 197.8 288.143 203.043 288.143Z" fill="#C4C4C4" stroke="black" stroke-width="2" />
    <mask id="mask8_2_553" style="mask-type:alpha" maskunits="userSpaceOnUse" x="193" y="287" width="122" height="109">
      <path d="M193.053 297.894C192.616 292.091 197.206 287.143 203.025 287.143H304.388C310.206 287.143 314.796 292.091 314.359 297.894L307.67 386.751C307.277 391.968 302.93 396 297.698 396H209.714C204.483 396 200.135 391.968 199.742 386.751L193.053 297.894Z" fill="#C4C4C4" />
    </mask>
    <g mask="url(#mask8_2_553)">
      <path class="pot__primary" d="M168.884 298.355C168.408 292.53 173.007 287.54 178.851 287.54H290.149C295.993 287.54 300.592 292.53 300.116 298.355L292.884 386.815C292.46 392.004 288.124 396 282.918 396H186.083C180.876 396 176.54 392.004 176.116 386.815L168.884 298.355Z" fill="#D91313" />
    </g>
    <path class="cactus--stroke" d="M203.043 289.143H307.163C311.823 289.143 315.497 293.11 315.139 297.757L308.298 386.614C307.977 390.782 304.502 394 300.322 394H209.885C205.705 394 202.229 390.782 201.908 386.614L195.067 297.757C194.709 293.11 198.383 289.143 203.043 289.143Z" stroke="black" stroke-width="4" />
    <path class="pot__secondary" d="M184.794 279C184.794 273.477 189.271 269 194.794 269H314.481C320.004 269 324.481 273.477 324.481 279V303.45C324.481 308.973 320.004 313.45 314.481 313.45H194.794C189.271 313.45 184.794 308.973 184.794 303.45V279Z" fill="#C4C4C4" />
    <mask id="mask9_2_553" style="mask-type:alpha" maskunits="userSpaceOnUse" x="184" y="269" width="147" height="45">
      <path d="M184.794 279C184.794 273.477 189.271 269 194.794 269H321C326.523 269 331 273.477 331 279V303.45C331 308.973 326.523 313.45 321 313.45H194.794C189.271 313.45 184.794 308.973 184.794 303.45V279Z" fill="#E56565" />
    </mask>
    <g mask="url(#mask9_2_553)">
      <rect class="pot__primary" x="111" y="269" width="196" height="44.4963" rx="10" fill="#E56565" />
    </g>
    <path class="cactus--stroke" d="M192 271H317.275C321.693 271 325.275 274.582 325.275 279V303.45C325.275 307.868 321.693 311.45 317.275 311.45H192C187.582 311.45 184 307.868 184 303.45V279C184 274.582 187.582 271 192 271Z" stroke="black" stroke-width="4" />
  </g>
  <g class="hearts">
    <g class="heart">
      <mask id="path-148-inside-1_2_553" fill="white">
        <path d="M163.851 1.81528C159.683 4.9055 158.754 10.8667 161.774 15.13L170.738 27.7816C171.517 28.8803 172.482 29.7591 173.557 30.4053C177.699 33.2262 183.315 32.2192 186.262 28.0607L195.226 15.4091C198.246 11.1458 197.317 5.18458 193.149 2.09436C188.982 -0.995854 183.155 -0.0449016 180.134 4.21841L178.599 6.38533L176.866 3.93933C173.845 -0.323985 168.018 -1.27494 163.851 1.81528Z" />
      </mask>
      <path d="M163.851 1.81528C159.683 4.9055 158.754 10.8667 161.774 15.13L170.738 27.7816C171.517 28.8803 172.482 29.7591 173.557 30.4053C177.699 33.2262 183.315 32.2192 186.262 28.0607L195.226 15.4091C198.246 11.1458 197.317 5.18458 193.149 2.09436C188.982 -0.995854 183.155 -0.0449016 180.134 4.21841L178.599 6.38533L176.866 3.93933C173.845 -0.323985 168.018 -1.27494 163.851 1.81528Z" fill="#F22424" />
      <path d="M161.774 15.13L165.038 12.8175L165.038 12.8175L161.774 15.13ZM170.738 27.7816L174.002 25.4691L174.002 25.4691L170.738 27.7816ZM173.557 30.4053L175.808 27.0992L175.715 27.0355L175.618 26.9772L173.557 30.4053ZM186.262 28.0607L182.998 25.7482L182.998 25.7482L186.262 28.0607ZM195.226 15.4091L191.962 13.0966L191.962 13.0966L195.226 15.4091ZM193.149 2.09436L195.532 -1.11866L195.532 -1.11866L193.149 2.09436ZM180.134 4.21841L183.398 6.53092L183.398 6.53091L180.134 4.21841ZM178.599 6.38533L175.335 8.69784L178.599 13.3042L181.863 8.69784L178.599 6.38533ZM176.866 3.93933L173.602 6.25182L173.602 6.25183L176.866 3.93933ZM165.038 12.8175C163.26 10.3081 163.834 6.80738 166.233 5.0283L161.468 -1.39774C155.533 3.00361 154.247 11.4253 158.511 17.4425L165.038 12.8175ZM174.002 25.4691L165.038 12.8175L158.511 17.4425L167.475 30.0941L174.002 25.4691ZM175.618 26.9772C175.012 26.6131 174.458 26.1126 174.002 25.4691L167.475 30.0941C168.576 31.648 169.952 32.905 171.496 33.8334L175.618 26.9772ZM171.305 33.7114C177.266 37.7709 185.33 36.2941 189.525 30.3732L182.998 25.7482C181.3 28.1442 178.132 28.6815 175.808 27.0992L171.305 33.7114ZM189.525 30.3732L198.489 17.7216L191.962 13.0966L182.998 25.7482L189.525 30.3732ZM198.489 17.7216C202.753 11.7044 201.467 3.2827 195.532 -1.11866L190.767 5.30738C193.166 7.08646 193.74 10.5872 191.962 13.0966L198.489 17.7216ZM195.532 -1.11866C189.541 -5.56128 181.172 -4.16504 176.87 1.90591L183.398 6.53091C185.138 4.07523 188.423 3.56957 190.767 5.30738L195.532 -1.11866ZM176.87 1.9059L175.335 4.07283L181.863 8.69784L183.398 6.53092L176.87 1.9059ZM173.602 6.25183L175.335 8.69784L181.863 4.07282L180.13 1.62682L173.602 6.25183ZM166.233 5.0283C168.577 3.29049 171.862 3.79615 173.602 6.25182L180.13 1.62683C175.828 -4.44412 167.459 -5.84036 161.468 -1.39774L166.233 5.0283Z" fill="black" mask="url(#path-148-inside-1_2_553)" />
    </g>
    <g class="heart">
      <mask id="path-148-inside-1_2_553" fill="white">
        <path d="M163.851 1.81528C159.683 4.9055 158.754 10.8667 161.774 15.13L170.738 27.7816C171.517 28.8803 172.482 29.7591 173.557 30.4053C177.699 33.2262 183.315 32.2192 186.262 28.0607L195.226 15.4091C198.246 11.1458 197.317 5.18458 193.149 2.09436C188.982 -0.995854 183.155 -0.0449016 180.134 4.21841L178.599 6.38533L176.866 3.93933C173.845 -0.323985 168.018 -1.27494 163.851 1.81528Z" />
      </mask>
      <path d="M163.851 1.81528C159.683 4.9055 158.754 10.8667 161.774 15.13L170.738 27.7816C171.517 28.8803 172.482 29.7591 173.557 30.4053C177.699 33.2262 183.315 32.2192 186.262 28.0607L195.226 15.4091C198.246 11.1458 197.317 5.18458 193.149 2.09436C188.982 -0.995854 183.155 -0.0449016 180.134 4.21841L178.599 6.38533L176.866 3.93933C173.845 -0.323985 168.018 -1.27494 163.851 1.81528Z" fill="#F22424" />
      <path d="M161.774 15.13L165.038 12.8175L165.038 12.8175L161.774 15.13ZM170.738 27.7816L174.002 25.4691L174.002 25.4691L170.738 27.7816ZM173.557 30.4053L175.808 27.0992L175.715 27.0355L175.618 26.9772L173.557 30.4053ZM186.262 28.0607L182.998 25.7482L182.998 25.7482L186.262 28.0607ZM195.226 15.4091L191.962 13.0966L191.962 13.0966L195.226 15.4091ZM193.149 2.09436L195.532 -1.11866L195.532 -1.11866L193.149 2.09436ZM180.134 4.21841L183.398 6.53092L183.398 6.53091L180.134 4.21841ZM178.599 6.38533L175.335 8.69784L178.599 13.3042L181.863 8.69784L178.599 6.38533ZM176.866 3.93933L173.602 6.25182L173.602 6.25183L176.866 3.93933ZM165.038 12.8175C163.26 10.3081 163.834 6.80738 166.233 5.0283L161.468 -1.39774C155.533 3.00361 154.247 11.4253 158.511 17.4425L165.038 12.8175ZM174.002 25.4691L165.038 12.8175L158.511 17.4425L167.475 30.0941L174.002 25.4691ZM175.618 26.9772C175.012 26.6131 174.458 26.1126 174.002 25.4691L167.475 30.0941C168.576 31.648 169.952 32.905 171.496 33.8334L175.618 26.9772ZM171.305 33.7114C177.266 37.7709 185.33 36.2941 189.525 30.3732L182.998 25.7482C181.3 28.1442 178.132 28.6815 175.808 27.0992L171.305 33.7114ZM189.525 30.3732L198.489 17.7216L191.962 13.0966L182.998 25.7482L189.525 30.3732ZM198.489 17.7216C202.753 11.7044 201.467 3.2827 195.532 -1.11866L190.767 5.30738C193.166 7.08646 193.74 10.5872 191.962 13.0966L198.489 17.7216ZM195.532 -1.11866C189.541 -5.56128 181.172 -4.16504 176.87 1.90591L183.398 6.53091C185.138 4.07523 188.423 3.56957 190.767 5.30738L195.532 -1.11866ZM176.87 1.9059L175.335 4.07283L181.863 8.69784L183.398 6.53092L176.87 1.9059ZM173.602 6.25183L175.335 8.69784L181.863 4.07282L180.13 1.62682L173.602 6.25183ZM166.233 5.0283C168.577 3.29049 171.862 3.79615 173.602 6.25182L180.13 1.62683C175.828 -4.44412 167.459 -5.84036 161.468 -1.39774L166.233 5.0283Z" fill="black" mask="url(#path-148-inside-1_2_553)" />
    </g>
    <g class="heart">
      <mask id="path-148-inside-1_2_553" fill="white">
        <path d="M163.851 1.81528C159.683 4.9055 158.754 10.8667 161.774 15.13L170.738 27.7816C171.517 28.8803 172.482 29.7591 173.557 30.4053C177.699 33.2262 183.315 32.2192 186.262 28.0607L195.226 15.4091C198.246 11.1458 197.317 5.18458 193.149 2.09436C188.982 -0.995854 183.155 -0.0449016 180.134 4.21841L178.599 6.38533L176.866 3.93933C173.845 -0.323985 168.018 -1.27494 163.851 1.81528Z" />
      </mask>
      <path d="M163.851 1.81528C159.683 4.9055 158.754 10.8667 161.774 15.13L170.738 27.7816C171.517 28.8803 172.482 29.7591 173.557 30.4053C177.699 33.2262 183.315 32.2192 186.262 28.0607L195.226 15.4091C198.246 11.1458 197.317 5.18458 193.149 2.09436C188.982 -0.995854 183.155 -0.0449016 180.134 4.21841L178.599 6.38533L176.866 3.93933C173.845 -0.323985 168.018 -1.27494 163.851 1.81528Z" fill="#F22424" />
      <path d="M161.774 15.13L165.038 12.8175L165.038 12.8175L161.774 15.13ZM170.738 27.7816L174.002 25.4691L174.002 25.4691L170.738 27.7816ZM173.557 30.4053L175.808 27.0992L175.715 27.0355L175.618 26.9772L173.557 30.4053ZM186.262 28.0607L182.998 25.7482L182.998 25.7482L186.262 28.0607ZM195.226 15.4091L191.962 13.0966L191.962 13.0966L195.226 15.4091ZM193.149 2.09436L195.532 -1.11866L195.532 -1.11866L193.149 2.09436ZM180.134 4.21841L183.398 6.53092L183.398 6.53091L180.134 4.21841ZM178.599 6.38533L175.335 8.69784L178.599 13.3042L181.863 8.69784L178.599 6.38533ZM176.866 3.93933L173.602 6.25182L173.602 6.25183L176.866 3.93933ZM165.038 12.8175C163.26 10.3081 163.834 6.80738 166.233 5.0283L161.468 -1.39774C155.533 3.00361 154.247 11.4253 158.511 17.4425L165.038 12.8175ZM174.002 25.4691L165.038 12.8175L158.511 17.4425L167.475 30.0941L174.002 25.4691ZM175.618 26.9772C175.012 26.6131 174.458 26.1126 174.002 25.4691L167.475 30.0941C168.576 31.648 169.952 32.905 171.496 33.8334L175.618 26.9772ZM171.305 33.7114C177.266 37.7709 185.33 36.2941 189.525 30.3732L182.998 25.7482C181.3 28.1442 178.132 28.6815 175.808 27.0992L171.305 33.7114ZM189.525 30.3732L198.489 17.7216L191.962 13.0966L182.998 25.7482L189.525 30.3732ZM198.489 17.7216C202.753 11.7044 201.467 3.2827 195.532 -1.11866L190.767 5.30738C193.166 7.08646 193.74 10.5872 191.962 13.0966L198.489 17.7216ZM195.532 -1.11866C189.541 -5.56128 181.172 -4.16504 176.87 1.90591L183.398 6.53091C185.138 4.07523 188.423 3.56957 190.767 5.30738L195.532 -1.11866ZM176.87 1.9059L175.335 4.07283L181.863 8.69784L183.398 6.53092L176.87 1.9059ZM173.602 6.25183L175.335 8.69784L181.863 4.07282L180.13 1.62682L173.602 6.25183ZM166.233 5.0283C168.577 3.29049 171.862 3.79615 173.602 6.25182L180.13 1.62683C175.828 -4.44412 167.459 -5.84036 161.468 -1.39774L166.233 5.0283Z" fill="black" mask="url(#path-148-inside-1_2_553)" />
    </g>
    <g class="heart">
      <mask id="path-148-inside-1_2_553" fill="white">
        <path d="M163.851 1.81528C159.683 4.9055 158.754 10.8667 161.774 15.13L170.738 27.7816C171.517 28.8803 172.482 29.7591 173.557 30.4053C177.699 33.2262 183.315 32.2192 186.262 28.0607L195.226 15.4091C198.246 11.1458 197.317 5.18458 193.149 2.09436C188.982 -0.995854 183.155 -0.0449016 180.134 4.21841L178.599 6.38533L176.866 3.93933C173.845 -0.323985 168.018 -1.27494 163.851 1.81528Z" />
      </mask>
      <path d="M163.851 1.81528C159.683 4.9055 158.754 10.8667 161.774 15.13L170.738 27.7816C171.517 28.8803 172.482 29.7591 173.557 30.4053C177.699 33.2262 183.315 32.2192 186.262 28.0607L195.226 15.4091C198.246 11.1458 197.317 5.18458 193.149 2.09436C188.982 -0.995854 183.155 -0.0449016 180.134 4.21841L178.599 6.38533L176.866 3.93933C173.845 -0.323985 168.018 -1.27494 163.851 1.81528Z" fill="#F22424" />
      <path d="M161.774 15.13L165.038 12.8175L165.038 12.8175L161.774 15.13ZM170.738 27.7816L174.002 25.4691L174.002 25.4691L170.738 27.7816ZM173.557 30.4053L175.808 27.0992L175.715 27.0355L175.618 26.9772L173.557 30.4053ZM186.262 28.0607L182.998 25.7482L182.998 25.7482L186.262 28.0607ZM195.226 15.4091L191.962 13.0966L191.962 13.0966L195.226 15.4091ZM193.149 2.09436L195.532 -1.11866L195.532 -1.11866L193.149 2.09436ZM180.134 4.21841L183.398 6.53092L183.398 6.53091L180.134 4.21841ZM178.599 6.38533L175.335 8.69784L178.599 13.3042L181.863 8.69784L178.599 6.38533ZM176.866 3.93933L173.602 6.25182L173.602 6.25183L176.866 3.93933ZM165.038 12.8175C163.26 10.3081 163.834 6.80738 166.233 5.0283L161.468 -1.39774C155.533 3.00361 154.247 11.4253 158.511 17.4425L165.038 12.8175ZM174.002 25.4691L165.038 12.8175L158.511 17.4425L167.475 30.0941L174.002 25.4691ZM175.618 26.9772C175.012 26.6131 174.458 26.1126 174.002 25.4691L167.475 30.0941C168.576 31.648 169.952 32.905 171.496 33.8334L175.618 26.9772ZM171.305 33.7114C177.266 37.7709 185.33 36.2941 189.525 30.3732L182.998 25.7482C181.3 28.1442 178.132 28.6815 175.808 27.0992L171.305 33.7114ZM189.525 30.3732L198.489 17.7216L191.962 13.0966L182.998 25.7482L189.525 30.3732ZM198.489 17.7216C202.753 11.7044 201.467 3.2827 195.532 -1.11866L190.767 5.30738C193.166 7.08646 193.74 10.5872 191.962 13.0966L198.489 17.7216ZM195.532 -1.11866C189.541 -5.56128 181.172 -4.16504 176.87 1.90591L183.398 6.53091C185.138 4.07523 188.423 3.56957 190.767 5.30738L195.532 -1.11866ZM176.87 1.9059L175.335 4.07283L181.863 8.69784L183.398 6.53092L176.87 1.9059ZM173.602 6.25183L175.335 8.69784L181.863 4.07282L180.13 1.62682L173.602 6.25183ZM166.233 5.0283C168.577 3.29049 171.862 3.79615 173.602 6.25182L180.13 1.62683C175.828 -4.44412 167.459 -5.84036 161.468 -1.39774L166.233 5.0283Z" fill="black" mask="url(#path-148-inside-1_2_553)" />
    </g>
    <g class="heart">
      <mask id="path-148-inside-1_2_553" fill="white">
        <path d="M163.851 1.81528C159.683 4.9055 158.754 10.8667 161.774 15.13L170.738 27.7816C171.517 28.8803 172.482 29.7591 173.557 30.4053C177.699 33.2262 183.315 32.2192 186.262 28.0607L195.226 15.4091C198.246 11.1458 197.317 5.18458 193.149 2.09436C188.982 -0.995854 183.155 -0.0449016 180.134 4.21841L178.599 6.38533L176.866 3.93933C173.845 -0.323985 168.018 -1.27494 163.851 1.81528Z" />
      </mask>
      <path d="M163.851 1.81528C159.683 4.9055 158.754 10.8667 161.774 15.13L170.738 27.7816C171.517 28.8803 172.482 29.7591 173.557 30.4053C177.699 33.2262 183.315 32.2192 186.262 28.0607L195.226 15.4091C198.246 11.1458 197.317 5.18458 193.149 2.09436C188.982 -0.995854 183.155 -0.0449016 180.134 4.21841L178.599 6.38533L176.866 3.93933C173.845 -0.323985 168.018 -1.27494 163.851 1.81528Z" fill="#F22424" />
      <path d="M161.774 15.13L165.038 12.8175L165.038 12.8175L161.774 15.13ZM170.738 27.7816L174.002 25.4691L174.002 25.4691L170.738 27.7816ZM173.557 30.4053L175.808 27.0992L175.715 27.0355L175.618 26.9772L173.557 30.4053ZM186.262 28.0607L182.998 25.7482L182.998 25.7482L186.262 28.0607ZM195.226 15.4091L191.962 13.0966L191.962 13.0966L195.226 15.4091ZM193.149 2.09436L195.532 -1.11866L195.532 -1.11866L193.149 2.09436ZM180.134 4.21841L183.398 6.53092L183.398 6.53091L180.134 4.21841ZM178.599 6.38533L175.335 8.69784L178.599 13.3042L181.863 8.69784L178.599 6.38533ZM176.866 3.93933L173.602 6.25182L173.602 6.25183L176.866 3.93933ZM165.038 12.8175C163.26 10.3081 163.834 6.80738 166.233 5.0283L161.468 -1.39774C155.533 3.00361 154.247 11.4253 158.511 17.4425L165.038 12.8175ZM174.002 25.4691L165.038 12.8175L158.511 17.4425L167.475 30.0941L174.002 25.4691ZM175.618 26.9772C175.012 26.6131 174.458 26.1126 174.002 25.4691L167.475 30.0941C168.576 31.648 169.952 32.905 171.496 33.8334L175.618 26.9772ZM171.305 33.7114C177.266 37.7709 185.33 36.2941 189.525 30.3732L182.998 25.7482C181.3 28.1442 178.132 28.6815 175.808 27.0992L171.305 33.7114ZM189.525 30.3732L198.489 17.7216L191.962 13.0966L182.998 25.7482L189.525 30.3732ZM198.489 17.7216C202.753 11.7044 201.467 3.2827 195.532 -1.11866L190.767 5.30738C193.166 7.08646 193.74 10.5872 191.962 13.0966L198.489 17.7216ZM195.532 -1.11866C189.541 -5.56128 181.172 -4.16504 176.87 1.90591L183.398 6.53091C185.138 4.07523 188.423 3.56957 190.767 5.30738L195.532 -1.11866ZM176.87 1.9059L175.335 4.07283L181.863 8.69784L183.398 6.53092L176.87 1.9059ZM173.602 6.25183L175.335 8.69784L181.863 4.07282L180.13 1.62682L173.602 6.25183ZM166.233 5.0283C168.577 3.29049 171.862 3.79615 173.602 6.25182L180.13 1.62683C175.828 -4.44412 167.459 -5.84036 161.468 -1.39774L166.233 5.0283Z" fill="black" mask="url(#path-148-inside-1_2_553)" />
    </g>
  </g>
</svg>
