<svg width="60" height="60" viewBox="0 0 60 60" fill="none" xmlns="http://www.w3.org/2000/svg">
<mask id="path-1-inside-1_201_2" fill="white">
<path d="M39.6705 19.641C37.1018 17.1393 33.2815 17.5893 30.9238 20.3696L30.0003 21.4571L29.0769 20.3696C26.7238 17.5893 22.8989 17.1393 20.3302 19.641C17.3865 22.5124 17.2318 27.6659 19.8662 30.7783L28.9363 41.4817C29.5222 42.1728 30.4738 42.1728 31.0597 41.4817L40.1298 30.7783C42.7689 27.6659 42.6142 22.5124 39.6705 19.641Z"/>
</mask>
<path d="M39.6705 19.641L41.067 18.2093L41.0659 18.2083L39.6705 19.641ZM30.9238 20.3696L32.4483 21.6641L32.4491 21.6631L30.9238 20.3696ZM30.0003 21.4571L28.4758 22.7516C28.8558 23.1991 29.4133 23.4571 30.0003 23.4571C30.5874 23.4571 31.1449 23.1991 31.5249 22.7516L30.0003 21.4571ZM29.0769 20.3696L27.5503 21.6616L27.5524 21.6641L29.0769 20.3696ZM20.3302 19.641L18.9348 18.2083L18.9337 18.2093L20.3302 19.641ZM19.8662 30.7783L18.3396 32.0704L18.3403 32.0713L19.8662 30.7783ZM28.9363 41.4817L27.4105 42.7747L27.4108 42.7751L28.9363 41.4817ZM31.0597 41.4817L32.5852 42.7751L32.5855 42.7747L31.0597 41.4817ZM40.1298 30.7783L38.6044 29.4849L38.604 29.4853L40.1298 30.7783ZM41.0659 18.2083C37.5414 14.7757 32.3872 15.5516 29.3984 19.076L32.4491 21.6631C34.1759 19.627 36.6621 19.5029 38.2751 21.0738L41.0659 18.2083ZM29.3992 19.0751L28.4758 20.1625L31.5249 22.7516L32.4483 21.6641L29.3992 19.0751ZM31.5249 20.1625L30.6015 19.0751L27.5524 21.6641L28.4758 22.7516L31.5249 20.1625ZM30.6036 19.0775C27.6184 15.5503 22.4585 14.7765 18.9348 18.2083L21.7256 21.0738C23.3394 19.5021 25.8293 19.6282 27.5503 21.6616L30.6036 19.0775ZM18.9337 18.2093C15.2132 21.8385 15.0501 28.1839 18.3396 32.0704L21.3928 29.4862C19.4136 27.1479 19.5599 23.1863 21.7267 21.0727L18.9337 18.2093ZM18.3403 32.0713L27.4105 42.7747L30.4621 40.1887L21.392 29.4853L18.3403 32.0713ZM27.4108 42.7751C28.7955 44.4083 31.2005 44.4083 32.5852 42.7751L29.5342 40.1883C29.5981 40.113 29.7599 40 29.998 40C30.2361 40 30.3979 40.113 30.4618 40.1883L27.4108 42.7751ZM32.5855 42.7747L41.6557 32.0713L38.604 29.4853L29.5339 40.1887L32.5855 42.7747ZM41.6553 32.0718C44.9509 28.1849 44.7876 21.8386 41.067 18.2093L38.274 21.0727C40.4407 23.1862 40.5868 27.1469 38.6044 29.4849L41.6553 32.0718Z" fill="#DD0000" mask="url(#path-1-inside-1_201_2)"/>
</svg>
