<?xml version="1.0" encoding="UTF-8" standalone="no"?>
<svg
   xmlns:dc="http://purl.org/dc/elements/1.1/"
   xmlns:cc="http://creativecommons.org/ns#"
   xmlns:rdf="http://www.w3.org/1999/02/22-rdf-syntax-ns#"
   xmlns:svg="http://www.w3.org/2000/svg"
   xmlns="http://www.w3.org/2000/svg"
   id="svg1105"
   version="1.1"
   viewBox="0 0 294.44 122.55">
  <metadata
     id="metadata1111">
    <rdf:RDF>
      <cc:Work
         rdf:about="">
        <dc:format>image/svg+xml</dc:format>
        <dc:type
           rdf:resource="http://purl.org/dc/dcmitype/StillImage" />
        <dc:title></dc:title>
      </cc:Work>
    </rdf:RDF>
  </metadata>
  <defs
     id="defs1109" />
  <path
     style="opacity:0.33000004;fill:none;stroke:#000000"
     id="path1103"
     d="m 61.27,0.5 c 45.13,0.16 68.38354,25.591525 96.35354,57.071525 27.98,31.47 41.56483,54.924995 75.53646,54.478475 33.97163,-0.44652 50.78,-22.13 50.78,-50.78 0,-28.65 -14.58702,-51.5945743 -50.78,-50.77 -36.19298,0.824574 -60.40085,17.051525 -88.20085,47.071525 C 117.15915,87.581525 104.81,121.88 61.28,122.05 17.74,122.21 0.5,89.93 0.5,61.28 0.5,32.63 16.14,0.34 61.27,0.5 Z" />
  <path
     style="opacity:0.33000004;fill:none;stroke:#000000"
     d="m 61.27,10.49974 c 35.509683,-0.131525 57.97,19.3 85.94,50.78 27.98,31.47 41.78,60.92 85.95,60.77 44.18,-0.16 60.78,-32.13 60.78,-60.78 0,-28.65 -18.46,-60.71999968 -60.78,-60.76999968 -42.31,-0.05 -54.06865,35.26170268 -81.86865,65.28170268 -27.8,30.01 -56.388191,46.394817 -90.01135,46.268297 -33.623159,-0.12652 -50.78,-22.12 -50.78,-50.77 0,-28.65 15.260317,-50.648475 50.77,-50.78 z"
     id="path1113" />
</svg>
