<svg xmlns="http://www.w3.org/2000/svg" width="165.43" height="22.951" viewBox="0 0 43.77 6.072"><defs><filter id="a" x="-.066" width="1.132" y="-.65" height="2.3" color-interpolation-filters="sRGB"><feGaussianBlur stdDeviation=".717"/></filter></defs><g transform="translate(-35.05 -276.54)"><rect ry="0" y="278.046" x="49.723" height="1.191" width="1.833" fill="#999"/><rect width="15.694" height="2.646" x="35.051" y="278.253" ry="0" fill="#e6e6e6"/><g transform="translate(.064)"><rect transform="matrix(-1.00861 0 0 .99791 -.398 .848)" width="26.015" height="2.646" x="-76.759" y="277.989" ry="1.323" fill="#91ff82" filter="url(#a)"/><rect ry="1.058" y="278.518" x="-76.759" height="2.117" width="26.015" transform="scale(-1 1)" fill="#d8ffd3"/><rect transform="scale(-1 1)" width="25.665" height="1.587" x="-76.272" y="278.783" ry=".794" fill="#f5fff3"/></g><rect ry="0" y="278.253" x="40.822" height="2.646" width="9.923"/><path fill="#b3b3b3" d="M35.77 277.592h5.821v3.969H35.77z"/><path d="M36.299 280.767h4.762v.794h-4.762zM36.299 277.592h4.762v.794h-4.762zM36.299 279.179h4.762v.794h-4.762z"/><path fill="#333" d="M42.12 277.592h3.831v3.969H42.12z"/><path fill="#ccc" d="M46.204 277.728h3.747v3.696h-3.747z"/><rect transform="scale(-1 1)" width=".954" height="3.175" x="-51.699" y="277.989" ry=".342"/><path fill="red" d="M48.23 277.362h.837v.362h-.837z"/><rect ry=".32" y="277.317" x="50.553" height="1.582" width="1.799" fill="#999"/></g></svg>