<svg xmlns="http://www.w3.org/2000/svg" viewBox="0 0 140.22917 47.625001" height="180" width="530">
  <g transform="translate(30.4270831 -253.30314617)">
    <circle r="5.6576948" cy="282.25403" cx="17.056721"/>
    <circle cx="39.6875" cy="282.32205" r="5.6576948"/>
    <circle cx="28.37211" cy="282.25403" r="5.6576948"/>
    <circle r="5.6576948" cy="282.32205" cx="51.002892"/>
    <circle cx="62.318283" cy="282.25403" r="5.6576948"/>
    <path d="M28.400015 276.59647a1.904456 1.904456 0 00-1.374592.55759 1.904456 1.904456 0 00-.458886.74363 1.904456 1.904456 0 00-2.1947.35605 1.904456 1.904456 0 00-.35605 2.19624 1.904456 1.904456 0 00-.743624.45734 1.904456 1.904456 0 000 2.69338 1.904456 1.904456 0 00.743624.4594 1.904456 1.904456 0 00.35605 2.1947 1.904456 1.904456 0 002.196251.35605 1.904456 1.904456 0 00.457335.74311 1.904456 1.904456 0 002.693376 0 1.904456 1.904456 0 00.459404-.74363 1.904456 1.904456 0 002.194698-.35553 1.904456 1.904456 0 00.356049-2.19677 1.904456 1.904456 0 00.743107-.45733 1.904456 1.904456 0 000-2.69338 1.904456 1.904456 0 00-.743622-.45889 1.904456 1.904456 0 00-.355534-2.19469 1.904456 1.904456 0 00-2.196767-.35605 1.904456 1.904456 0 00-.457335-.74363 1.904456 1.904456 0 00-1.318784-.55759z" fill="#4d4d4d"/>
    <path d="M39.715405 276.66449a1.904456 1.904456 0 00-1.374592.55759 1.904456 1.904456 0 00-.458886.74363 1.904456 1.904456 0 00-2.1947.35605 1.904456 1.904456 0 00-.35605 2.19624 1.904456 1.904456 0 00-.743624.45734 1.904456 1.904456 0 000 2.69338 1.904456 1.904456 0 00.743624.4594 1.904456 1.904456 0 00.35605 2.1947 1.904456 1.904456 0 002.196251.35605 1.904456 1.904456 0 00.457335.74311 1.904456 1.904456 0 002.693376 0 1.904456 1.904456 0 00.459404-.74363 1.904456 1.904456 0 002.194698-.35553 1.904456 1.904456 0 00.356049-2.19677 1.904456 1.904456 0 00.743107-.45733 1.904456 1.904456 0 000-2.69338 1.904456 1.904456 0 00-.743622-.45889 1.904456 1.904456 0 00-.355534-2.19469 1.904456 1.904456 0 00-2.196767-.35605 1.904456 1.904456 0 00-.457335-.74363 1.904456 1.904456 0 00-1.318784-.55759z" fill="#4d4d4d"/>
    <path d="M51.030797 276.66449a1.904456 1.904456 0 00-1.374592.55759 1.904456 1.904456 0 00-.458886.74363 1.904456 1.904456 0 00-2.1947.35605 1.904456 1.904456 0 00-.35605 2.19624 1.904456 1.904456 0 00-.743624.45734 1.904456 1.904456 0 000 2.69338 1.904456 1.904456 0 00.743624.4594 1.904456 1.904456 0 00.35605 2.1947 1.904456 1.904456 0 002.196251.35605 1.904456 1.904456 0 00.457335.74311 1.904456 1.904456 0 002.693376 0 1.904456 1.904456 0 00.459404-.74363 1.904456 1.904456 0 002.194698-.35553 1.904456 1.904456 0 00.356049-2.19677 1.904456 1.904456 0 00.743107-.45733 1.904456 1.904456 0 000-2.69338 1.904456 1.904456 0 00-.743622-.45889 1.904456 1.904456 0 00-.355534-2.19469 1.904456 1.904456 0 00-2.196767-.35605 1.904456 1.904456 0 00-.457335-.74363 1.904456 1.904456 0 00-1.318784-.55759z" fill="#4d4d4d"/>
    <g transform="translate(-15.33403 12.199538)">
      <rect ry=".85020351" y="256.07568" x="76.802017" height="6.7336116" width="1.700407" fill="red"/>
      <rect transform="rotate(-90)" width="1.700407" height="6.7336116" x="-270.90472" y="84.897415" ry=".85020351" fill="red"/>
      <rect transform="rotate(90)" ry=".85020351" y="-70.407028" x="269.20432" height="6.7336116" width="1.700407" fill="red"/>
      <rect width="1.700407" height="6.7336116" x="76.802017" y="277.29971" ry=".85020351" fill="red"/>
      <path d="M81.652814 274.05511c-2.209469 2.20946-5.791721 2.20946-8.001189-.00001-2.209462-2.20946-2.209462-5.79172 0-8.00118 2.209468-2.20947 5.79172-2.20948 8.001189-.00001 2.209468 2.20947 2.209468 5.79173 0 8.0012z" fill="#0ff"/>
      <rect transform="rotate(-45)" ry=".85020351" y="231.88698" x="-136.89915" height="6.7336116" width="1.700407" fill="red"/>
      <rect transform="rotate(45)" width="1.700407" height="6.7336116" x="245.01558" y="122.07014" ry=".85020351" fill="red"/>
      <rect transform="rotate(45)" ry=".85020351" y="143.29417" x="245.01558" height="6.7336116" width="1.700407" fill="red"/>
      <rect ry=".85020351" y="-259.8446" x="135.19878" height="6.7336116" width="1.700407" transform="rotate(135)" fill="red"/>
      <path d="M77.680127 264.39695a1.904456 1.904456 0 00-1.374592.55759 1.904456 1.904456 0 00-.458886.74363 1.904456 1.904456 0 00-2.1947.35605 1.904456 1.904456 0 00-.35605 2.19624 1.904456 1.904456 0 00-.743624.45734 1.904456 1.904456 0 000 2.69338 1.904456 1.904456 0 00.743624.4594 1.904456 1.904456 0 00.35605 2.1947 1.904456 1.904456 0 002.196251.35605 1.904456 1.904456 0 00.457335.74311 1.904456 1.904456 0 002.693376 0 1.904456 1.904456 0 00.459404-.74363 1.904456 1.904456 0 002.194698-.35553 1.904456 1.904456 0 00.356049-2.19677 1.904456 1.904456 0 00.743107-.45733 1.904456 1.904456 0 000-2.69338 1.904456 1.904456 0 00-.743622-.45889 1.904456 1.904456 0 00-.355534-2.19469 1.904456 1.904456 0 00-2.196767-.35605 1.904456 1.904456 0 00-.457335-.74363 1.904456 1.904456 0 00-1.318784-.55759z" fill="#4d4d4d"/>
      <rect ry=".85020351" y="266.68771" x="76.802017" height="6.7336116" width="1.700407" fill="red"/>
      <rect width="1.700407" height="6.7336116" x="76.802017" y="266.68771" ry=".85020351" fill="red"/>
      <rect ry=".85020351" y="266.68771" x="76.802017" height="6.7336116" width="1.700407" fill="red"/>
      <rect width="1.700407" height="6.7336116" x="76.802017" y="266.68771" ry=".85020351" fill="red"/>
      <rect ry=".85020351" y="266.68771" x="76.802017" height="6.7336116" width="1.700407" fill="red"/>
      <rect width="1.700407" height="6.7336116" x="76.802017" y="266.68771" ry=".85020351" fill="red"/>
      <rect ry=".85020351" y="266.68771" x="76.802017" height="6.7336116" width="1.700407" fill="red"/>
      <rect width="1.700407" height="6.7336116" x="76.802017" y="266.68771" ry=".85020351" fill="red"/>
    </g>
    <path d="M22.714506 282.254048a5.6576948 5.6576948 0 01-5.657695 5.6577 5.6576948 5.6576948 0 01-5.657695-5.6577 5.6576948 5.6576948 0 015.657695-5.65769 5.6576948 5.6576948 0 015.657695 5.65769z" fill="#0ff"/>
    <path d="M17.084716 276.596488a1.904456 1.904456 0 00-1.374592.55759 1.904456 1.904456 0 00-.458886.74363 1.904456 1.904456 0 00-2.1947.35605 1.904456 1.904456 0 00-.35605 2.19624 1.904456 1.904456 0 00-.743624.45734 1.904456 1.904456 0 000 2.69338 1.904456 1.904456 0 00.743624.4594 1.904456 1.904456 0 00.35605 2.1947 1.904456 1.904456 0 002.196251.35605 1.904456 1.904456 0 00.457335.74311 1.904456 1.904456 0 002.693376 0 1.904456 1.904456 0 00.459404-.74363 1.904456 1.904456 0 002.194698-.35553 1.904456 1.904456 0 00.356049-2.19677 1.904456 1.904456 0 00.743107-.45733 1.904456 1.904456 0 000-2.69338 1.904456 1.904456 0 00-.743622-.45889 1.904456 1.904456 0 00-.355534-2.19469 1.904456 1.904456 0 00-2.196767-.35605 1.904456 1.904456 0 00-.457335-.74363 1.904456 1.904456 0 00-1.318784-.55759z" fill="#4d4d4d"/>
    <path d="M12.976038 277.820928a5.7937272 5.7937272 0 00-5.7763908 5.44153 3.4811737 3.4811737 0 00-.8211396-.10232 3.4811737 3.4811737 0 00-3.4814406 3.48092 3.4811737 3.4811737 0 003.4814406 3.48145H23.212106a3.1751005 3.1751005 0 003.175516-3.17552 3.1751005 3.1751005 0 00-3.133659-3.17293 3.9572877 3.9572877 0 00.0047-.0915 3.9572877 3.9572877 0 00-3.957381-3.95738 3.9572877 3.9572877 0 00-1.711523.39326 5.7937272 5.7937272 0 00-4.613672-2.29754z" fill="#df5"/>
    <path d="M5.9614505 278.866758l-.4571285.0119-.2493413.38332-.1525884-.43107-.4416133-.11869.3628235-.27833-.023591-.45667.3768259.25906.4270335-.16356-.1299326.43844zM3.941467 292.910448l-.241402-.27263-.361445.0443.184695-.31384-.153824-.33006.35555.0787.266377-.24829.03505.36246.318454.17661-.333889.14534zM20.1013131 294.160918l-.3719498.11234-.118324.37009-.221777-.31904-.3885392.002.234884-.3095-.1218064-.36896.3669433.12774.3132587-.22986-.0081.38846zM24.4298455 278.866778l-.2265258-.38682-.4470788-.0327.2978928-.33497-.1070641-.4353.4106337.1798.3809095-.23634-.044107.4461.3424792.28923-.4378936.0959zM27.903033 290.016758l-.395679-.64058-.752015-.0372.486962-.57426-.197-.72671.696638.28567.630263-.41192-.05642.75082.586523.47212-.731504.17836zM11.973298 294.066288l-.6300807.31096-.1010381.69534-.4904493-.50315-.6925256.11877.3269662-.62192-.3269662-.62193.6925256.11878.4904493-.50315.1010381.69533zM1.35803807 284.52489138l-.59904028-.4703737-.72707759.22685189.26220194-.71508846-.44042579-.62139275.76111464.0283961.45488053-.61088902.20819347.73263644.7215586.24383731-.63244349.42439945zM13.82230515 274.97269136l-.59904027-.47037371-.7270776.2268519.26220195-.71508846-.44042579-.62139276.76111464.0283961.45488052-.61088902.20819347.73263645.7215586.2438373-.63244348.42439945z" fill="#f0f"/>
  </g>
</svg>