<svg xmlns="http://www.w3.org/2000/svg" preserveAspectRatio="xMinYMin" viewBox="0 0 197.451 481.081">
  <defs>
    <marker id="e" orient="auto" overflow="visible" refX="0" refY="0">
      <path fill-rule="evenodd" stroke="#000" stroke-width=".2666" d="M.98 0a1 1 0 11-2 0 1 1 0 012 0z"/>
    </marker>
    <marker id="d" orient="auto" overflow="visible" refX="0" refY="0">
      <path fill-rule="evenodd" stroke="#000" stroke-width=".2666" d="M.98 0a1 1 0 11-2 0 1 1 0 012 0z"/>
    </marker>
    <marker id="c" orient="auto" overflow="visible" refX="0" refY="0">
      <path fill-rule="evenodd" stroke="#000" stroke-width=".2666" d="M.98 0a1 1 0 11-2 0 1 1 0 012 0z"/>
    </marker>
    <marker id="b" orient="auto" overflow="visible" refX="0" refY="0">
      <path fill-rule="evenodd" stroke="#000" stroke-width=".2666" d="M.98 0a1 1 0 11-2 0 1 1 0 012 0z"/>
    </marker>
    <marker id="a" orient="auto" overflow="visible" refX="0" refY="0">
      <path fill-rule="evenodd" stroke="#000" stroke-width=".2666" d="M.98 0a1 1 0 11-2 0 1 1 0 012 0z"/>
    </marker>
    <clipPath id="g" clipPathUnits="userSpaceOnUse">
      <path fill="#999" stroke="red" stroke-linecap="round" stroke-linejoin="round" stroke-width="4.677" d="M-774.546 827.629s12.917-13.473 29.203-13.412c16.53.062 29.203 13.412 29.203 13.412v53.6s-8.825 16-29.203 16c-21.674 0-29.203-16-29.203-16z"/>
    </clipPath>
    <clipPath id="f" clipPathUnits="userSpaceOnUse"/>
  </defs>
  <g transform="translate(905.657 -597.025)">
    <path fill="#784421" d="M-868.418 945.051c-4.188 73.011 78.255 53.244 150.216 52.941 82.387-.346 98.921-19.444 98.921-47.058 0-27.615-4.788-42.55-73.823-42.55-69.036 0-171.436-30.937-175.314 36.667z"/>
    <ellipse cx="804.83" cy="950.986" fill="#deaa87" rx="29.911" ry="29.414" transform="scale(-1 1)"/>
  </g>
  <path fill="none" stroke="#000" stroke-linecap="round" stroke-width="6" marker-end="url(#a)" d="M123.228-28.56v150.493" transform="translate(-24.503 256.106)"/>
  <path fill="none" stroke="#000" stroke-linecap="round" stroke-width="6" marker-end="url(#b)" d="M123.228-28.569s16 20.623 16 32.782c0 12.16-10.667 21.855-16 32.782-5.333 10.928-16 20.623-16 32.782 0 12.16 16 32.782 16 32.782" transform="translate(-24.503 256.106)"/>
  <path fill="none" stroke="#000" stroke-linecap="round" stroke-width="6" marker-end="url(#c)" d="M123.228-28.575s-20 16.871-20 28.468c0 11.597 13.333 18.978 20 28.468 6.667 9.489 20 16.87 20 28.467 0 11.597-20 28.468-20 28.468" transform="translate(-24.503 256.106)"/>
  <path fill="none" stroke="#000" stroke-linecap="round" stroke-width="6" marker-end="url(#d)" d="M123.228-28.59s28 8.131 28 19.506-18.667 13.005-28 19.507c-9.333 6.502-28 8.131-28 19.506s28 19.507 28 19.507" transform="translate(-24.503 256.106)"/>
  <path fill="none" stroke="#000" stroke-linecap="round" stroke-width="6" marker-end="url(#e)" d="M123.228-28.563s-10 24.647-10 37.623c0 12.977 6.667 25.082 10 37.623 3.333 12.541 10 24.647 10 37.623 0 12.977-10 37.623-10 37.623" transform="translate(-24.503 256.106)"/>
  <path fill="#784421" d="M-798.725 945.051c4.188 73.011-78.254 53.244-150.215 52.941-82.387-.346-98.922-19.444-98.922-47.058 0-27.615 4.788-42.55 73.824-42.55 69.035 0 171.436-30.937 175.313 36.667z" clip-path="url(#f)" transform="translate(905.657 -597.025)"/>
  <g>
    <g transform="translate(844.069 -645.213)">
      <path fill="none" stroke="#000" stroke-linecap="round" stroke-width="6" d="M-745.343 872.76v150.492"/>
      <path fill="#999" stroke="red" stroke-linecap="round" stroke-linejoin="round" stroke-width="4.677" d="M-774.546 827.629s12.917-13.473 29.203-13.412c16.53.062 29.203 13.412 29.203 13.412v53.6s-8.825 16-29.203 16c-21.674 0-29.203-16-29.203-16z"/>
      <path fill="red" d="M-778.379 802.873h25.512v118.409h-25.512z" clip-path="url(#g)" transform="matrix(.52452 0 0 .90177 -368.282 82.976)"/>
      <path fill="#f0f" stroke="red" stroke-linecap="round" stroke-linejoin="round" stroke-width="4" d="M-774.546 827.629s12.917-13.473 29.203-13.412c16.53.062 29.203 13.412 29.203 13.412v0s-8.439 10.115-28.817 10.115c-21.673 0-29.59-10.115-29.59-10.115z"/>
      <g fill="none" stroke="#000" stroke-linecap="round" stroke-width="5">
        <path d="M-752.914 823.875l-8.858-33.06"/>
        <path d="M-737.772 823.875l8.858-33.06"/>
      </g>
      <path fill="#fff6d5" fill-opacity=".55" stroke="#000" stroke-linecap="round" stroke-width="5" d="M-783.192 803.855c5.251 8.815 5.295 21.32 13.272 27.774 12.299 8.045 36.46 8.115 49.127 0 7.976-6.454 8.022-18.96 13.273-27.774 3.992-6.7 14.408-19.811 14.408-19.811 8.276-11.539 12.769-24.594 12.769-38.699 0-35.898-29.102-65-65-65-35.899 0-65 29.102-65 65 0 13.667 4.217 26.348 12.405 38.2 0 0 10.754 13.61 14.746 20.31z"/>
      <path fill="none" stroke="#000" stroke-linecap="round" stroke-linejoin="round" stroke-width="4.677" d="M-774.546 827.629s12.917-13.473 29.203-13.412c16.53.062 29.203 13.412 29.203 13.412v53.6s-8.825 16-29.203 16c-21.674 0-29.203-16-29.203-16z"/>
      <circle cx="-745.343" cy="743.939" r="83.725" fill="none" stroke="#fc0" stroke-dasharray="10,30" stroke-linecap="round" stroke-linejoin="round" stroke-width="10"/>
      <path fill="none" stroke="red" stroke-linecap="round" stroke-linejoin="round" stroke-width="12" d="M-789.19 757.501a45.897 45.897 0 013.915-36.189 45.897 45.897 0 0129.031-21.957"/>
    </g>
  </g>
</svg>