<svg class="shocked-bear" xmlns="http://www.w3.org/2000/svg" fill="none" viewBox="0 0 285 360">
  <g clip-path="url(#clip0)">
    <path fill="#784421" d="M282.984 359.737c-.444-31.431-15.443-61.447-41.746-83.544-26.303-22.096-61.792-34.494-98.776-34.505-36.98.016-72.463 12.415-98.762 34.512-26.299 22.096-41.294 52.109-41.738 83.537V463h281.022V359.737z"/>
    <path fill="#784421" d="M266.354 140.103c0 81.748-55.205 141.849-126.348 141.849S18.591 221.851 18.591 140.103c0-81.747 50.272-114.711 121.415-114.711s126.348 32.964 126.348 114.711z"/>
    <path fill="#E9C6AF" d="M225.119 225.834c0 26.569-37.554 51.808-83.88 51.808-46.325 0-81.413-25.239-81.413-51.808 0-26.57 35.088-44.407 81.413-44.407 46.326 0 83.88 17.837 83.88 44.407z"/>
    <path fill="#000" d="M181.329 190.678c0 10.219-25.41 32.689-40.398 32.689-14.988 0-42.865-22.47-42.865-32.689 0-10.219 27.877-16.653 42.865-16.653 14.988 0 40.398 6.434 40.398 16.653z"/>
    <path fill="#784421" d="M42.557 82.127c23.503 0 42.557-18.385 42.557-41.063C85.114 18.384 66.06 0 42.557 0 19.053 0 0 18.385 0 41.064c0 22.678 19.053 41.063 42.557 41.063z"/>
    <path fill="#E9C6AF" d="M42.557 12.199a30.86 30.86 0 00-11.448 2.197 30.008 30.008 0 00-9.705 6.258 28.819 28.819 0 00-6.484 9.364 27.988 27.988 0 00-2.276 11.046c.006 6.767 2.477 13.317 6.98 18.505 4.502 5.188 10.751 8.684 17.654 9.878.341-.502.622-1.07.971-1.563A87.575 87.575 0 0152.62 52.09a90.915 90.915 0 018.457-6.447 97.74 97.74 0 019.249-5.512c.666-.35 1.397-.618 2.074-.954-.496-7.312-3.856-14.169-9.398-19.179-5.541-5.01-12.85-7.798-20.445-7.8z"/>
    <path fill="#784421" d="M242.389 82.127c-23.504 0-42.557-18.385-42.557-41.063C199.832 18.384 218.885 0 242.389 0c23.503 0 42.557 18.385 42.557 41.064 0 22.678-19.054 41.063-42.557 41.063z"/>
    <path fill="#E9C6AF" d="M242.389 12.199c3.928 0 7.818.747 11.448 2.197a30 30 0 019.704 6.258 28.81 28.81 0 016.484 9.364 27.976 27.976 0 012.277 11.046c-.007 6.767-2.477 13.317-6.98 18.505-4.503 5.188-10.751 8.684-17.654 9.878-.341-.502-.622-1.07-.971-1.563a87.65 87.65 0 00-14.372-15.793 90.869 90.869 0 00-8.456-6.447 97.662 97.662 0 00-9.249-5.512c-.666-.35-1.398-.618-2.074-.954.496-7.312 3.855-14.169 9.397-19.179 5.542-5.01 12.852-7.798 20.446-7.8z"/>
    <path fill="#000" d="M87.989 148.375c6.315 0 11.434-5.345 11.434-11.939s-5.12-11.94-11.434-11.94c-6.316 0-11.435 5.346-11.435 11.94 0 6.594 5.12 11.939 11.435 11.939zM187.989 148.375c6.315 0 11.435-5.345 11.435-11.939s-5.12-11.94-11.435-11.94c-6.316 0-11.435 5.346-11.435 11.94 0 6.594 5.119 11.939 11.435 11.939z"/>
    <path class="shocked-bear__brows" stroke="#000" stroke-linecap="round" stroke-linejoin="round" stroke-width="6" d="M85.066 88.313c-25.81 4.87-34.071 14.011-39.726 39.693M194.028 88.216c25.101 3.992 34.513 11.881 41.472 37.864"/>
  </g>
</svg>