<svg xmlns="http://www.w3.org/2000/svg" width="268.9515" height="364.721" viewBox="0 0 71.1601 96.4991">
  <path d="M-305.0114 52.5477c-3.599 0-6.4963 2.8969-6.4963 6.4957v98.133c0 3.599 2.8974 6.4963 6.4963 6.4963H-232.1327V52.5477H-276.8411zM-155.1534-73.1491c-3.5989 0-6.4963 2.8968-6.4963 6.4957v98.133c0 3.5989 2.8974 6.4963 6.4963 6.4963H-82.2747v-111.125h-44.7083z" fill="none"/>
  <g transform="translate(36.5598 -185.5263)">
    <path d="M14.1322 186.1878l-11.145 13.9908h-38.8855v74.689c0 3.5989 2.8974 6.4963 6.4963 6.4963h63.3408v-95.1761z" fill="#fff" fill-opacity=".9041" stroke="#000" stroke-width="1.323" stroke-linecap="round" stroke-linejoin="round"/>
    <path d="M14.4554 186.1876L4.575 198.591h-.323l-1.2645 1.5875h-37.298v73.1014c0 3.599 2.8974 6.4963 6.4963 6.4963H33.939v-93.5886z" fill="red" fill-opacity=".9041"/>
    <path d="M14.1322 186.1878l-11.145 13.9908h-38.8855v74.689c0 3.5989 2.8974 6.4963 6.4963 6.4963h63.3408v-95.1761z" fill="none" stroke="#000" stroke-width="1.323" stroke-linecap="round" stroke-linejoin="round"/>
    <path d="M-30.805 231.4163l9.2604 9.355-9.2605 9.3549z" fill="#ff0" fill-opacity=".9041" stroke="#000" stroke-width="1.323" stroke-linecap="round" stroke-linejoin="round"/>
    <rect ry="1.3229" y="274.8884" x="-16.3443" height="2.6458" width="32.317" fill="#4d4d4d" fill-opacity=".9041" stroke="#000" stroke-width="1.323" stroke-linecap="round" stroke-linejoin="round"/>
  </g>
</svg>