<svg xmlns="http://www.w3.org/2000/svg" width="268.9515" height="364.721" viewBox="0 0 71.1601 96.4991">
  <g transform="translate(-27.9376 -180.1892)">
    <path d="M78.6296 180.8507l-9.88 12.4034-1.265 1.5875H28.599v81.1852h69.8371v-1.5875h.0005v-93.5886H78.6296z" fill="#fff" fill-opacity=".9041" stroke="#000" stroke-width="1.322979374" stroke-linecap="round" stroke-linejoin="round"/>
    <path d="M78.9526 180.8507l-8.6155 10.8159-1.265 1.5875h-.3225l-1.265 1.5875h-37.298v79.5977h68.2501v-93.5886H78.9526z" fill="red" fill-opacity=".9041"/>
    <path d="M-277.0738 232.737c-3.5989 0-6.4962 2.8968-6.4962 6.4957v98.133c0 3.5989 2.8973 6.4963 6.4962 6.4963h72.8788V232.737h-44.7084zM-127.2158 107.0401c-3.5988 0-6.4962 2.8969-6.4962 6.4957v98.133c0 3.599 2.8974 6.4963 6.4962 6.4963h72.8788v-111.125h-44.7084z" fill="none"/>
    <path d="M33.6924 226.0793l9.2604 9.355-9.2604 9.3548z" fill="#ff0" fill-opacity=".9041" stroke="#000" stroke-width="1.323" stroke-linecap="round" stroke-linejoin="round"/>
    <rect width="32.317" height="2.6458" x="48.1532" y="269.5514" ry="1.3229" fill="#4d4d4d" fill-opacity=".9041" stroke="#000" stroke-width="1.323" stroke-linecap="round" stroke-linejoin="round"/>
    <path d="M78.6296 180.8507l-9.88 12.4034-1.265 1.5875H28.599v81.1852h69.8371v-1.5875h.0005v-93.5886H78.6296z" fill="none" stroke="#000" stroke-width="1.322979374" stroke-linecap="round" stroke-linejoin="round"/>
  </g>
</svg>