<?xml version="1.0" encoding="UTF-8" standalone="no"?>
<svg
   xmlns:dc="http://purl.org/dc/elements/1.1/"
   xmlns:cc="http://creativecommons.org/ns#"
   xmlns:rdf="http://www.w3.org/1999/02/22-rdf-syntax-ns#"
   xmlns:svg="http://www.w3.org/2000/svg"
   xmlns="http://www.w3.org/2000/svg"
   xmlns:sodipodi="http://sodipodi.sourceforge.net/DTD/sodipodi-0.dtd"
   xmlns:inkscape="http://www.inkscape.org/namespaces/inkscape"
   version="1.1"
   id="svg4938"
   viewBox="0 0 300 300"
   height="300"
   width="300"
   sodipodi:docname="bear-coding-lines.svg"
   inkscape:version="0.92.2 5c3e80d, 2017-08-06">
  <sodipodi:namedview
     pagecolor="#ffffff"
     bordercolor="#666666"
     borderopacity="1"
     objecttolerance="10"
     gridtolerance="10"
     guidetolerance="10"
     inkscape:pageopacity="0"
     inkscape:pageshadow="2"
     inkscape:window-width="3422"
     inkscape:window-height="1376"
     id="namedview1021"
     showgrid="false"
     inkscape:zoom="2.0683334"
     inkscape:cx="105.51974"
     inkscape:cy="24.294925"
     inkscape:window-x="0"
     inkscape:window-y="516"
     inkscape:window-maximized="0"
     inkscape:current-layer="g4372" />
  <defs
     id="defs4940" />
  <metadata
     id="metadata4943">
    <rdf:RDF>
      <cc:Work
         rdf:about="">
        <dc:format>image/svg+xml</dc:format>
        <dc:type
           rdf:resource="http://purl.org/dc/dcmitype/StillImage" />
        <dc:title></dc:title>
      </cc:Work>
    </rdf:RDF>
  </metadata>
  <g
     transform="translate(0,-752.36216)"
     id="layer1">
    <g
       transform="matrix(1.3410461,0,0,1.3410461,-51.156929,-297.33196)"
       id="g5973">
      <path
         style="fill:#803300;fill-opacity:1;stroke:none;stroke-width:6;stroke-linecap:round;stroke-linejoin:round;stroke-miterlimit:4;stroke-dasharray:none;stroke-opacity:1"
         d="m 242.82182,893.86855 c 2e-5,61.25171 -36.05863,106.28475 -94.20821,106.28475 -54.325623,0 -91.435445,-45.03304 -91.435426,-106.28475 4e-6,-61.2517 37.667409,-85.95098 90.973296,-85.95098 53.3059,0 94.67034,24.69928 94.67034,85.95098 z"
         id="path5634"
         inkscape:connector-curvature="0"
         sodipodi:nodetypes="sssss" />
      <path
         style="fill:#e9c6af;fill-opacity:1;stroke:none;stroke-width:6;stroke-linecap:round;stroke-linejoin:round;stroke-miterlimit:4;stroke-dasharray:none;stroke-opacity:1"
         d="m 211.92542,958.10462 c 2e-5,19.90778 -28.60087,38.8189 -63.31181,38.8189 -34.71094,0 -60.539047,-18.91112 -60.539029,-38.8189 0,-19.90774 26.290239,-33.27336 61.001159,-33.27336 34.71092,0 62.84968,13.36562 62.84968,33.27336 z"
         id="path5639"
         inkscape:connector-curvature="0"
         sodipodi:nodetypes="csssc" />
      <path
         style="fill:#000000;fill-opacity:1;stroke:none;stroke-width:6;stroke-linecap:round;stroke-linejoin:round;stroke-miterlimit:4;stroke-dasharray:none;stroke-opacity:1"
         d="m 181.19378,931.76321 c 0,7.65682 -19.03951,24.49289 -30.26951,24.49289 -11.23,0 -32.11804,-16.83607 -32.11804,-24.49289 0,-7.65682 20.23914,-12.47751 31.46914,-12.47751 11.23,0 30.91841,4.82069 30.91841,12.47751 z"
         id="path5636"
         inkscape:connector-curvature="0"
         sodipodi:nodetypes="sssss" />
      <ellipse
         style="fill:#803300;fill-opacity:1;stroke:none;stroke-width:6;stroke-linecap:round;stroke-linejoin:round;stroke-miterlimit:4;stroke-dasharray:none;stroke-opacity:1"
         id="path5793"
         cx="68.304314"
         cy="827.68188"
         rx="23.761904"
         ry="23.110893" />
      <path
         style="fill:#e9c6af;fill-opacity:1;stroke:none;stroke-width:6;stroke-linecap:round;stroke-linejoin:round;stroke-miterlimit:4;stroke-dasharray:none;stroke-opacity:1"
         d="m 84.783829,826.31658 a 16.548868,16.095475 0 0 0 -16.479516,-14.73097 16.548868,16.095475 0 0 0 -16.548469,16.09586 16.548868,16.095475 0 0 0 16.548469,16.09587 16.548868,16.095475 0 0 0 1.131519,-0.0389 c 0.815278,-1.33699 1.581797,-2.72722 2.471662,-3.9833 1.572046,-2.21902 3.258302,-4.3124 5.054709,-6.28347 1.796407,-1.97106 3.702393,-3.81907 5.712404,-5.54798 0.668844,-0.57531 1.417521,-1.05819 2.109222,-1.60711 z"
         id="path5806" />
      <ellipse
         ry="23.110893"
         rx="23.761904"
         cy="827.68188"
         cx="-231.24309"
         id="ellipse5814"
         style="fill:#803300;fill-opacity:1;stroke:none;stroke-width:6;stroke-linecap:round;stroke-linejoin:round;stroke-miterlimit:4;stroke-dasharray:none;stroke-opacity:1"
         transform="scale(-1,1)" />
      <path
         id="path5816"
         d="m 214.76356,826.31658 a 16.548868,16.095475 0 0 1 16.47952,-14.73097 16.548868,16.095475 0 0 1 16.54847,16.09586 16.548868,16.095475 0 0 1 -16.54847,16.09587 16.548868,16.095475 0 0 1 -1.13152,-0.0389 c -0.81528,-1.33699 -1.5818,-2.72722 -2.47166,-3.9833 -1.57205,-2.21902 -3.2583,-4.3124 -5.05471,-6.28347 -1.79641,-1.97106 -3.70239,-3.81907 -5.7124,-5.54798 -0.66885,-0.57531 -1.41753,-1.05819 -2.10923,-1.60711 z"
         style="fill:#e9c6af;fill-opacity:1;stroke:none;stroke-width:6;stroke-linecap:round;stroke-linejoin:round;stroke-miterlimit:4;stroke-dasharray:none;stroke-opacity:1" />
      <g
         id="g5936"
         transform="translate(-175.49996,139.50023)">
        <path
           style="fill:#ff0000;fill-opacity:1;stroke:none;stroke-width:6;stroke-linecap:round;stroke-linejoin:round;stroke-miterlimit:4;stroke-dasharray:none;stroke-opacity:1"
           d="m 323.23144,675.8575 c -13.39625,0 -26.02272,1.07931 -37.67187,3.33442 l 0,11.35333 c 11.64929,-2.25501 24.27565,-3.33443 37.67187,-3.33442 15.1037,0 29.45807,1.37252 42.66602,4.25604 l 0,-11.35498 c -13.20738,-2.88322 -27.56311,-4.25439 -42.66602,-4.25439 z"
           id="path5921" />
        <path
           id="path5926"
           transform="translate(0,752.36216)"
           d="m 340.69531,-75.849609 a 15.875,7.8125 0 0 1 4.42969,5.412109 15.875,7.8125 0 0 1 -5.41406,5.863281 c 9.11632,0.65256 17.87758,1.865918 26.18554,3.679688 l 0,-11.355469 c -8.00689,-1.747935 -16.43955,-2.931738 -25.20117,-3.599609 z"
           style="fill:#e50000;fill-opacity:1;stroke:none;stroke-width:6;stroke-linecap:round;stroke-linejoin:round;stroke-miterlimit:4;stroke-dasharray:none;stroke-opacity:1" />
      </g>
      <path
         style="fill:#1a1a1a;fill-opacity:1;stroke:none;stroke-width:6;stroke-linecap:round;stroke-linejoin:round;stroke-miterlimit:4;stroke-dasharray:none;stroke-opacity:1"
         d="m 148.05961,789.03817 c -43.48918,0 -75.871835,19.48078 -83.283765,63.85644 12.32201,-10.51592 27.906385,-18.69449 45.284745,-22.65136 0,0 -2.44586,-12.49893 10.25,-16.02881 14.51339,-4.03521 18.40391,-3.94358 27.74902,-4 10.20029,-0.0616 15.07513,-0.0706 30.33887,4 14.18652,3.78334 12,17.11279 12,17.11279 17.21703,4.421 31.84526,10.7218 44.26307,21.56738 -7.27614,-46.02916 -42.37497,-63.85644 -86.60194,-63.85644 z"
         id="path5918"
         inkscape:connector-curvature="0"
         sodipodi:nodetypes="sccsasccs" />
      <circle
         style="fill:#ffaaaa;fill-opacity:0.57698957;stroke:none;stroke-width:8.41270065;stroke-linecap:round;stroke-linejoin:round;stroke-miterlimit:4;stroke-dasharray:none;stroke-dashoffset:0;stroke-opacity:1"
         id="path1046"
         cx="97.241508"
         cy="894.08136"
         r="11.185298" />
      <circle
         cy="894.08136"
         cx="201.85071"
         id="circle1048"
         style="fill:#ffaaaa;fill-opacity:0.57698957;stroke:none;stroke-width:8.41270065;stroke-linecap:round;stroke-linejoin:round;stroke-miterlimit:4;stroke-dasharray:none;stroke-dashoffset:0;stroke-opacity:1"
         r="11.185298" />
      <path
         style="fill:none;fill-opacity:0.57698957;stroke:#e9afaf;stroke-width:2.98274612;stroke-linecap:round;stroke-linejoin:round;stroke-miterlimit:4;stroke-dasharray:none;stroke-dashoffset:0;stroke-opacity:1"
         id="path1066"
         sodipodi:type="arc"
         sodipodi:cx="75.330406"
         sodipodi:cy="864.0412"
         sodipodi:rx="21.270994"
         sodipodi:ry="21.270994"
         sodipodi:start="0"
         sodipodi:end="1.642744"
         sodipodi:open="true"
         d="m 96.6014,864.0412 a 21.270994,21.270994 0 0 1 -6.780822,15.57209 21.270994,21.270994 0 0 1 -16.01925,5.64387" />
      <path
         d="m -203.52995,864.0412 a 21.270994,21.270994 0 0 1 -6.78083,15.57209 21.270994,21.270994 0 0 1 -16.01925,5.64387"
         sodipodi:open="true"
         sodipodi:end="1.642744"
         sodipodi:start="0"
         sodipodi:ry="21.270994"
         sodipodi:rx="21.270994"
         sodipodi:cy="864.0412"
         sodipodi:cx="-224.80095"
         sodipodi:type="arc"
         id="path1068"
         style="fill:none;fill-opacity:0.57698957;stroke:#e9afaf;stroke-width:2.98274612;stroke-linecap:round;stroke-linejoin:round;stroke-miterlimit:4;stroke-dasharray:none;stroke-dashoffset:0;stroke-opacity:1"
         transform="scale(-1,1)" />
      <g
         id="layer1-8"
         transform="matrix(1.1733291,0,0,1.1733291,-128.72315,-42.560955)">
        <g
           id="g4372">
          <path
             style="fill:#000000;fill-opacity:1;stroke:none;stroke-width:8;stroke-linecap:square;stroke-linejoin:round;stroke-miterlimit:4;stroke-dasharray:none;stroke-opacity:1"
             d="m 175.58026,764.63545 c -5.54684,-0.0595 -11.38885,0.15472 -19.43164,1.81641 l -12.20313,2.35937 1.9668,12.81641 c 1.78451,0.25007 4.24739,0.86604 5.41406,2.42773 3.00637,4.0243 1.02387,7.91461 1.70703,15.02149 2.27601,23.6772 10.1596,28.63254 22.36914,30.05664 6.39388,0.74577 19.44548,1.94528 28.36328,-1.2207 8.05947,-2.86125 15.53138,-8.41073 20.58985,-15.30664 5.34742,-7.28984 5.92198,-15.54177 9.24125,-21.92565 2.35233,-4.52418 6.56262,-3.55929 7.89063,0 2.51525,6.74129 3.73164,14.63581 9.07906,21.92565 5.05844,6.89591 12.53037,12.44539 20.58984,15.30664 8.9178,3.16598 21.9694,1.96647 28.36328,1.2207 12.20955,-1.4241 20.09508,-6.37944 22.37109,-30.05664 0.68316,-7.10688 -1.29933,-10.99719 1.70703,-15.02149 1.20511,-1.61315 3.80417,-2.22555 5.59766,-2.45898 l 1.95703,-12.75195 -12.37695,-2.39258 c -12.86847,-2.6587 -20.10562,-1.61027 -29.50781,-1.66797 -3.48845,-0.0214 -7.48048,0.0976 -11.19532,0.48828 -6.92544,0.72827 -13.78649,2.02979 -20.60351,3.45117 -6.80741,1.41938 -12.73274,5.19953 -19.68524,5.06446 -6.70646,-0.13029 -13.30888,-4.24134 -19.86945,-5.63868 -6.93041,-1.47611 -12.63435,-2.64733 -21.0625,-2.87695 -4.08528,-0.1113 -7.70687,-0.5097 -11.19531,-0.48828 -3.52582,0.0216 -6.74807,-0.11272 -10.07617,-0.14844 z"
             id="path4689"
             inkscape:connector-curvature="0"
             sodipodi:nodetypes="cccccssscsscsssccccccsssscc" />
          <path
             id="path4694"
             d="m 182.38959,769.63252 c -8.5978,0.14254 -21.1424,0.60165 -24.27344,10.4414 -2.7918,12.99576 -2.6597,27.92062 4.88867,38.88672 6.30362,9.15775 19.91341,7.36076 30.04899,7.00531 16.1072,-0.56488 29.94768,-13.11023 34.2264,-28.45648 1.64415,-6.60778 3.55218,-11.87093 0.59318,-16.51875 -5.06779,-7.96017 -17.13012,-10.03833 -26.06312,-11.05148 -6.40746,-0.26097 -12.95073,-0.37751 -19.42068,-0.30672 z"
             style="fill:#333333;fill-opacity:1;stroke:none;stroke-width:8;stroke-linecap:square;stroke-linejoin:round;stroke-miterlimit:4;stroke-dasharray:none;stroke-opacity:1"
             inkscape:connector-curvature="0"
             sodipodi:nodetypes="ccsscacc" />
          <path
             d="m 157.46945,772.89466 a 3.4764421,1.4421878 0 0 1 -3.45866,1.44217 3.4764421,1.4421878 0 0 1 -3.49404,-1.42742 3.4764421,1.4421878 0 0 1 3.42293,-1.45677 3.4764421,1.4421878 0 0 1 3.52905,1.41252"
             id="path4707"
             style="fill:#b3b3b3;fill-opacity:1;stroke:none;stroke-width:8;stroke-linecap:square;stroke-linejoin:round;stroke-miterlimit:4;stroke-dasharray:none;stroke-opacity:1" />
          <path
             style="fill:#333333;fill-opacity:1;stroke:none;stroke-width:8;stroke-linecap:square;stroke-linejoin:round;stroke-miterlimit:4;stroke-dasharray:none;stroke-opacity:1"
             d="m 292.5339,769.63252 c 8.5978,0.14254 21.1424,0.60165 24.27344,10.4414 2.7918,12.99576 2.6597,27.92062 -4.88867,38.88672 -6.30362,9.15775 -19.91341,7.36076 -30.04899,7.00531 -16.1072,-0.56488 -29.94768,-13.11023 -34.2264,-28.45648 -1.64415,-6.60778 -3.55218,-11.87093 -0.59318,-16.51875 5.06779,-7.96017 17.13012,-10.03833 26.06312,-11.05148 6.40746,-0.26097 12.95073,-0.37751 19.42068,-0.30672 z"
             id="path4810"
             inkscape:connector-curvature="0"
             sodipodi:nodetypes="ccsscacc" />
          <path
             style="fill:#b3b3b3;fill-opacity:1;stroke:none;stroke-width:8;stroke-linecap:square;stroke-linejoin:round;stroke-miterlimit:4;stroke-dasharray:none;stroke-opacity:1"
             id="path4812"
             d="m 317.45403,772.89466 a 3.4764421,1.4421878 0 0 0 3.45867,1.44217 3.4764421,1.4421878 0 0 0 3.49404,-1.42742 3.4764421,1.4421878 0 0 0 -3.42293,-1.45677 3.4764421,1.4421878 0 0 0 -3.52905,1.41252" />
          <path
             style="fill:#ffffff;fill-opacity:1;stroke:none;stroke-width:6;stroke-linecap:round;stroke-linejoin:round;stroke-miterlimit:4;stroke-dasharray:none;stroke-opacity:1"
             d="M 52.107422,5.1132812 35.755859,61.623047 c 4.985062,0.135233 9.950253,-0.03828 14.398438,-0.322266 L 65.994141,6.5664062 C 61.265599,5.4044907 56.591962,5.2279851 52.107422,5.1132812 Z"
             transform="translate(143.51971,764.62764)"
             id="rect4338"
             inkscape:connector-curvature="0"
             sodipodi:nodetypes="ccccc" />
          <path
             style="fill:#ffffff;fill-opacity:1;stroke:none;stroke-width:6;stroke-linecap:round;stroke-linejoin:round;stroke-miterlimit:4;stroke-dasharray:none;stroke-opacity:1"
             d="m 42.171875,4.9921875 c -1.101666,0.00143 -2.204272,-2.999e-4 -3.302734,0.011719 -0.921466,0.015277 -1.904704,0.042464 -2.900391,0.076172 L 20.916016,56.091797 c 1.473427,1.556973 3.213181,2.703102 5.134765,3.535156 L 42.171875,4.9921875 Z"
             transform="translate(143.51971,764.62764)"
             id="rect4348" />
        </g>
      </g>
      <g
         id="g1545">
        <rect
           ry="0"
           y="862.06976"
           x="60.366081"
           height="7.4568653"
           width="74.568649"
           id="rect1471"
           style="fill:#00d400;fill-opacity:0.41095892;stroke:none;stroke-width:7.43690252;stroke-linecap:round;stroke-linejoin:round;stroke-miterlimit:4;stroke-dasharray:none;stroke-dashoffset:0;stroke-opacity:1" />
        <rect
           style="fill:#00d400;fill-opacity:0.41095892;stroke:none;stroke-width:6.57833242;stroke-linecap:round;stroke-linejoin:round;stroke-miterlimit:4;stroke-dasharray:none;stroke-dashoffset:0;stroke-opacity:1"
           id="rect1475"
           width="58.345009"
           height="7.4568653"
           x="76.589722"
           y="1025.8893"
           ry="0" />
        <rect
           ry="0"
           y="1014.1879"
           x="76.229195"
           height="7.4568653"
           width="58.705536"
           id="rect1477"
           style="fill:#00d400;fill-opacity:0.41095892;stroke:none;stroke-width:6.59862566;stroke-linecap:round;stroke-linejoin:round;stroke-miterlimit:4;stroke-dasharray:none;stroke-dashoffset:0;stroke-opacity:1" />
        <rect
           style="fill:#00ffff;fill-opacity:0.41095892;stroke:none;stroke-width:5.56542826;stroke-linecap:round;stroke-linejoin:round;stroke-miterlimit:4;stroke-dasharray:none;stroke-dashoffset:0;stroke-opacity:1"
           id="rect1479"
           width="41.760845"
           height="7.4568653"
           x="93.173889"
           y="1002.4865"
           ry="0" />
        <rect
           ry="0"
           y="990.78516"
           x="60.366081"
           height="7.4568653"
           width="74.568649"
           id="rect1481"
           style="fill:#00d400;fill-opacity:0.41095892;stroke:none;stroke-width:7.43690252;stroke-linecap:round;stroke-linejoin:round;stroke-miterlimit:4;stroke-dasharray:none;stroke-dashoffset:0;stroke-opacity:1" />
        <rect
           style="fill:#999999;fill-opacity:0.41095892;stroke:none;stroke-width:7.43690252;stroke-linecap:round;stroke-linejoin:round;stroke-miterlimit:4;stroke-dasharray:none;stroke-dashoffset:0;stroke-opacity:1"
           id="rect1483"
           width="74.568649"
           height="7.4568653"
           x="60.366081"
           y="979.08374"
           ry="0" />
        <rect
           ry="0"
           y="967.38232"
           x="60.366081"
           height="7.4568653"
           width="74.568649"
           id="rect1485"
           style="fill:#999999;fill-opacity:0.41095892;stroke:none;stroke-width:7.43690252;stroke-linecap:round;stroke-linejoin:round;stroke-miterlimit:4;stroke-dasharray:none;stroke-dashoffset:0;stroke-opacity:1" />
        <rect
           style="fill:#00d400;fill-opacity:0.41095892;stroke:none;stroke-width:7.43690252;stroke-linecap:round;stroke-linejoin:round;stroke-miterlimit:4;stroke-dasharray:none;stroke-dashoffset:0;stroke-opacity:1"
           id="rect1487"
           width="74.568649"
           height="7.4568653"
           x="60.366081"
           y="955.68097"
           ry="0" />
        <rect
           ry="0"
           y="943.97955"
           x="72.26342"
           height="7.4568653"
           width="62.671314"
           id="rect1489"
           style="fill:#00d400;fill-opacity:0.41095892;stroke:none;stroke-width:6.81786442;stroke-linecap:round;stroke-linejoin:round;stroke-miterlimit:4;stroke-dasharray:none;stroke-dashoffset:0;stroke-opacity:1" />
        <rect
           style="fill:#ffd42a;fill-opacity:0.41095892;stroke:none;stroke-width:6.20171213;stroke-linecap:round;stroke-linejoin:round;stroke-miterlimit:4;stroke-dasharray:none;stroke-dashoffset:0;stroke-opacity:1"
           id="rect1491"
           width="51.855556"
           height="7.4568653"
           x="83.079178"
           y="932.27814"
           ry="0" />
        <rect
           ry="0"
           y="920.57678"
           x="83.439697"
           height="7.4568653"
           width="51.495029"
           id="rect1493"
           style="fill:#ffdd55;fill-opacity:0.41095892;stroke:none;stroke-width:6.1801157;stroke-linecap:round;stroke-linejoin:round;stroke-miterlimit:4;stroke-dasharray:none;stroke-dashoffset:0;stroke-opacity:1" />
        <rect
           style="fill:#00d400;fill-opacity:0.41095892;stroke:none;stroke-width:6.47591305;stroke-linecap:round;stroke-linejoin:round;stroke-miterlimit:4;stroke-dasharray:none;stroke-dashoffset:0;stroke-opacity:1"
           id="rect1495"
           width="56.542385"
           height="7.4568653"
           x="78.392349"
           y="908.87537"
           ry="0" />
        <rect
           ry="0"
           y="897.17395"
           x="60.366081"
           height="7.4568653"
           width="74.568649"
           id="rect1497"
           style="fill:#00d400;fill-opacity:0.41095892;stroke:none;stroke-width:7.43690252;stroke-linecap:round;stroke-linejoin:round;stroke-miterlimit:4;stroke-dasharray:none;stroke-dashoffset:0;stroke-opacity:1" />
        <rect
           style="fill:#00ffff;fill-opacity:0.41095892;stroke:none;stroke-width:6.35083008;stroke-linecap:round;stroke-linejoin:round;stroke-miterlimit:4;stroke-dasharray:none;stroke-dashoffset:0;stroke-opacity:1"
           id="rect1499"
           width="54.37923"
           height="7.4568653"
           x="80.555496"
           y="885.47253"
           ry="0" />
        <rect
           ry="0"
           y="873.77118"
           x="105.79227"
           height="7.4568653"
           width="29.14246"
           id="rect1501"
           style="fill:#ff00ff;fill-opacity:0.41095892;stroke:none;stroke-width:4.64918756;stroke-linecap:round;stroke-linejoin:round;stroke-miterlimit:4;stroke-dasharray:none;stroke-dashoffset:0;stroke-opacity:1" />
        <rect
           ry="0"
           y="1084.3964"
           x="83.079178"
           height="7.4568653"
           width="51.855556"
           id="rect1503"
           style="fill:#00d400;fill-opacity:0.41095892;stroke:none;stroke-width:6.20171213;stroke-linecap:round;stroke-linejoin:round;stroke-miterlimit:4;stroke-dasharray:none;stroke-dashoffset:0;stroke-opacity:1" />
        <rect
           style="fill:#00d400;fill-opacity:0.41095892;stroke:none;stroke-width:5.36980295;stroke-linecap:round;stroke-linejoin:round;stroke-miterlimit:4;stroke-dasharray:none;stroke-dashoffset:0;stroke-opacity:1"
           id="rect1505"
           width="38.876644"
           height="7.4568653"
           x="96.05809"
           y="1072.6949"
           ry="0" />
        <rect
           ry="0"
           y="1060.9935"
           x="114.8054"
           height="7.4568653"
           width="20.129328"
           id="rect1507"
           style="fill:#ff6600;fill-opacity:0.41095892;stroke:none;stroke-width:3.86392403;stroke-linecap:round;stroke-linejoin:round;stroke-miterlimit:4;stroke-dasharray:none;stroke-dashoffset:0;stroke-opacity:1" />
        <rect
           style="fill:#00d400;fill-opacity:0.41095892;stroke:none;stroke-width:5.91481304;stroke-linecap:round;stroke-linejoin:round;stroke-miterlimit:4;stroke-dasharray:none;stroke-dashoffset:0;stroke-opacity:1"
           id="rect1509"
           width="47.168724"
           height="7.4568653"
           x="87.766006"
           y="1049.2921"
           ry="0" />
        <rect
           ry="0"
           y="1037.5907"
           x="60.366081"
           height="7.4568653"
           width="74.568649"
           id="rect1511"
           style="fill:#00d400;fill-opacity:0.41095892;stroke:none;stroke-width:7.43690252;stroke-linecap:round;stroke-linejoin:round;stroke-miterlimit:4;stroke-dasharray:none;stroke-dashoffset:0;stroke-opacity:1" />
        <rect
           style="fill:#00d400;fill-opacity:0.41095892;stroke:none;stroke-width:7.43690252;stroke-linecap:round;stroke-linejoin:round;stroke-miterlimit:4;stroke-dasharray:none;stroke-dashoffset:0;stroke-opacity:1"
           id="rect1513"
           width="74.568649"
           height="7.4568653"
           x="60.366081"
           y="1131.2019"
           ry="0" />
        <rect
           ry="0"
           y="1119.5005"
           x="110.11858"
           height="7.4568653"
           width="24.816156"
           id="rect1515"
           style="fill:#00d400;fill-opacity:0.41095892;stroke:none;stroke-width:4.29023647;stroke-linecap:round;stroke-linejoin:round;stroke-miterlimit:4;stroke-dasharray:none;stroke-dashoffset:0;stroke-opacity:1" />
        <rect
           style="fill:#00d400;fill-opacity:0.41095892;stroke:none;stroke-width:6.47591305;stroke-linecap:round;stroke-linejoin:round;stroke-miterlimit:4;stroke-dasharray:none;stroke-dashoffset:0;stroke-opacity:1"
           id="rect1517"
           width="56.542385"
           height="7.4568653"
           x="78.392349"
           y="1107.7991"
           ry="0" />
        <rect
           ry="0"
           y="1096.0978"
           x="107.95542"
           height="7.4568653"
           width="26.979309"
           id="rect1519"
           style="fill:#ff00ff;fill-opacity:0.41095892;stroke:none;stroke-width:4.47331381;stroke-linecap:round;stroke-linejoin:round;stroke-miterlimit:4;stroke-dasharray:none;stroke-dashoffset:0;stroke-opacity:1" />
      </g>
      <g
         id="g1595"
         transform="translate(104.49443,-1.6223778)">
        <rect
           style="fill:#00d400;fill-opacity:0.41095892;stroke:none;stroke-width:7.43690252;stroke-linecap:round;stroke-linejoin:round;stroke-miterlimit:4;stroke-dasharray:none;stroke-dashoffset:0;stroke-opacity:1"
           id="rect1547"
           width="74.568649"
           height="7.4568653"
           x="60.366081"
           y="862.06976"
           ry="0" />
        <rect
           ry="0"
           y="1025.8893"
           x="76.589722"
           height="7.4568653"
           width="58.345009"
           id="rect1549"
           style="fill:#00d400;fill-opacity:0.41095892;stroke:none;stroke-width:6.57833242;stroke-linecap:round;stroke-linejoin:round;stroke-miterlimit:4;stroke-dasharray:none;stroke-dashoffset:0;stroke-opacity:1" />
        <rect
           style="fill:#00d400;fill-opacity:0.41095892;stroke:none;stroke-width:6.59862566;stroke-linecap:round;stroke-linejoin:round;stroke-miterlimit:4;stroke-dasharray:none;stroke-dashoffset:0;stroke-opacity:1"
           id="rect1551"
           width="58.705536"
           height="7.4568653"
           x="76.229195"
           y="1014.1879"
           ry="0" />
        <rect
           ry="0"
           y="1002.4865"
           x="93.173889"
           height="7.4568653"
           width="41.760845"
           id="rect1553"
           style="fill:#00ffff;fill-opacity:0.41095892;stroke:none;stroke-width:5.56542826;stroke-linecap:round;stroke-linejoin:round;stroke-miterlimit:4;stroke-dasharray:none;stroke-dashoffset:0;stroke-opacity:1" />
        <rect
           style="fill:#00d400;fill-opacity:0.41095892;stroke:none;stroke-width:7.43690252;stroke-linecap:round;stroke-linejoin:round;stroke-miterlimit:4;stroke-dasharray:none;stroke-dashoffset:0;stroke-opacity:1"
           id="rect1555"
           width="74.568649"
           height="7.4568653"
           x="60.366081"
           y="990.78516"
           ry="0" />
        <rect
           ry="0"
           y="979.08374"
           x="60.366081"
           height="7.4568653"
           width="74.568649"
           id="rect1557"
           style="fill:#999999;fill-opacity:0.41095892;stroke:none;stroke-width:7.43690252;stroke-linecap:round;stroke-linejoin:round;stroke-miterlimit:4;stroke-dasharray:none;stroke-dashoffset:0;stroke-opacity:1" />
        <rect
           style="fill:#999999;fill-opacity:0.41095892;stroke:none;stroke-width:7.43690252;stroke-linecap:round;stroke-linejoin:round;stroke-miterlimit:4;stroke-dasharray:none;stroke-dashoffset:0;stroke-opacity:1"
           id="rect1559"
           width="74.568649"
           height="7.4568653"
           x="60.366081"
           y="967.38232"
           ry="0" />
        <rect
           ry="0"
           y="955.68097"
           x="60.366081"
           height="7.4568653"
           width="74.568649"
           id="rect1561"
           style="fill:#00d400;fill-opacity:0.41095892;stroke:none;stroke-width:7.43690252;stroke-linecap:round;stroke-linejoin:round;stroke-miterlimit:4;stroke-dasharray:none;stroke-dashoffset:0;stroke-opacity:1" />
        <rect
           style="fill:#00d400;fill-opacity:0.41095892;stroke:none;stroke-width:6.81786442;stroke-linecap:round;stroke-linejoin:round;stroke-miterlimit:4;stroke-dasharray:none;stroke-dashoffset:0;stroke-opacity:1"
           id="rect1563"
           width="62.671314"
           height="7.4568653"
           x="72.26342"
           y="943.97955"
           ry="0" />
        <rect
           ry="0"
           y="932.27814"
           x="83.079178"
           height="7.4568653"
           width="51.855556"
           id="rect1565"
           style="fill:#ffd42a;fill-opacity:0.41095892;stroke:none;stroke-width:6.20171213;stroke-linecap:round;stroke-linejoin:round;stroke-miterlimit:4;stroke-dasharray:none;stroke-dashoffset:0;stroke-opacity:1" />
        <rect
           style="fill:#ffdd55;fill-opacity:0.41095892;stroke:none;stroke-width:6.1801157;stroke-linecap:round;stroke-linejoin:round;stroke-miterlimit:4;stroke-dasharray:none;stroke-dashoffset:0;stroke-opacity:1"
           id="rect1567"
           width="51.495029"
           height="7.4568653"
           x="83.439697"
           y="920.57678"
           ry="0" />
        <rect
           ry="0"
           y="908.87537"
           x="78.392349"
           height="7.4568653"
           width="56.542385"
           id="rect1569"
           style="fill:#00d400;fill-opacity:0.41095892;stroke:none;stroke-width:6.47591305;stroke-linecap:round;stroke-linejoin:round;stroke-miterlimit:4;stroke-dasharray:none;stroke-dashoffset:0;stroke-opacity:1" />
        <rect
           style="fill:#00d400;fill-opacity:0.41095892;stroke:none;stroke-width:7.43690252;stroke-linecap:round;stroke-linejoin:round;stroke-miterlimit:4;stroke-dasharray:none;stroke-dashoffset:0;stroke-opacity:1"
           id="rect1571"
           width="74.568649"
           height="7.4568653"
           x="60.366081"
           y="897.17395"
           ry="0" />
        <rect
           ry="0"
           y="885.47253"
           x="80.555496"
           height="7.4568653"
           width="54.37923"
           id="rect1573"
           style="fill:#00ffff;fill-opacity:0.41095892;stroke:none;stroke-width:6.35083008;stroke-linecap:round;stroke-linejoin:round;stroke-miterlimit:4;stroke-dasharray:none;stroke-dashoffset:0;stroke-opacity:1" />
        <rect
           style="fill:#ff00ff;fill-opacity:0.41095892;stroke:none;stroke-width:4.64918756;stroke-linecap:round;stroke-linejoin:round;stroke-miterlimit:4;stroke-dasharray:none;stroke-dashoffset:0;stroke-opacity:1"
           id="rect1575"
           width="29.14246"
           height="7.4568653"
           x="105.79227"
           y="873.77118"
           ry="0" />
        <rect
           style="fill:#00d400;fill-opacity:0.41095892;stroke:none;stroke-width:6.20171213;stroke-linecap:round;stroke-linejoin:round;stroke-miterlimit:4;stroke-dasharray:none;stroke-dashoffset:0;stroke-opacity:1"
           id="rect1577"
           width="51.855556"
           height="7.4568653"
           x="83.079178"
           y="1084.3964"
           ry="0" />
        <rect
           ry="0"
           y="1072.6949"
           x="96.05809"
           height="7.4568653"
           width="38.876644"
           id="rect1579"
           style="fill:#00d400;fill-opacity:0.41095892;stroke:none;stroke-width:5.36980295;stroke-linecap:round;stroke-linejoin:round;stroke-miterlimit:4;stroke-dasharray:none;stroke-dashoffset:0;stroke-opacity:1" />
        <rect
           style="fill:#ff6600;fill-opacity:0.41095892;stroke:none;stroke-width:3.86392403;stroke-linecap:round;stroke-linejoin:round;stroke-miterlimit:4;stroke-dasharray:none;stroke-dashoffset:0;stroke-opacity:1"
           id="rect1581"
           width="20.129328"
           height="7.4568653"
           x="114.8054"
           y="1060.9935"
           ry="0" />
        <rect
           ry="0"
           y="1049.2921"
           x="87.766006"
           height="7.4568653"
           width="47.168724"
           id="rect1583"
           style="fill:#00d400;fill-opacity:0.41095892;stroke:none;stroke-width:5.91481304;stroke-linecap:round;stroke-linejoin:round;stroke-miterlimit:4;stroke-dasharray:none;stroke-dashoffset:0;stroke-opacity:1" />
        <rect
           style="fill:#00d400;fill-opacity:0.41095892;stroke:none;stroke-width:7.43690252;stroke-linecap:round;stroke-linejoin:round;stroke-miterlimit:4;stroke-dasharray:none;stroke-dashoffset:0;stroke-opacity:1"
           id="rect1585"
           width="74.568649"
           height="7.4568653"
           x="60.366081"
           y="1037.5907"
           ry="0" />
        <rect
           ry="0"
           y="1131.2019"
           x="60.366081"
           height="7.4568653"
           width="74.568649"
           id="rect1587"
           style="fill:#00d400;fill-opacity:0.41095892;stroke:none;stroke-width:7.43690252;stroke-linecap:round;stroke-linejoin:round;stroke-miterlimit:4;stroke-dasharray:none;stroke-dashoffset:0;stroke-opacity:1" />
        <rect
           style="fill:#00d400;fill-opacity:0.41095892;stroke:none;stroke-width:4.29023647;stroke-linecap:round;stroke-linejoin:round;stroke-miterlimit:4;stroke-dasharray:none;stroke-dashoffset:0;stroke-opacity:1"
           id="rect1589"
           width="24.816156"
           height="7.4568653"
           x="110.11858"
           y="1119.5005"
           ry="0" />
        <rect
           ry="0"
           y="1107.7991"
           x="78.392349"
           height="7.4568653"
           width="56.542385"
           id="rect1591"
           style="fill:#00d400;fill-opacity:0.41095892;stroke:none;stroke-width:6.47591305;stroke-linecap:round;stroke-linejoin:round;stroke-miterlimit:4;stroke-dasharray:none;stroke-dashoffset:0;stroke-opacity:1" />
        <rect
           style="fill:#ff00ff;fill-opacity:0.41095892;stroke:none;stroke-width:4.47331381;stroke-linecap:round;stroke-linejoin:round;stroke-miterlimit:4;stroke-dasharray:none;stroke-dashoffset:0;stroke-opacity:1"
           id="rect1593"
           width="26.979309"
           height="7.4568653"
           x="107.95542"
           y="1096.0978"
           ry="0" />
      </g>
    </g>
  </g>
</svg>
