<svg
  class='shades'
  viewBox="0 0 1650 250"
  preserveAspectRatio="xMinYMin">
  <g
     transform="translate(300.44931,-163.51227)"
     id="layer1">
    <g
       id="g4237">
      <path
         style="fill:#000000;fill-opacity:1;stroke:none;stroke-width:5;stroke-linecap:round;stroke-linejoin:round;stroke-miterlimit:4;stroke-dasharray:none;stroke-opacity:1"
         d="m -300,0 0,50 -50,0 0,50 100,0 0,-50 250,0 0,50 50,0 0,50 50,0 0,50 50,0 0,50 300,0 0,-50 50,0 0,-50 50,0 0,-50 50,0 0,-50 50,0 50,0 0,50 50,0 0,50 50,0 0,50 50,0 0,50 300,0 0,-50 50,0 0,-50 50,0 0,-50 50,0 0,-50 0,-50 L 650,0 0,0 -300,0 Z"
         transform="translate(49.55069,163.51226)"
         id="rect4136" />
      <g
         id="g4179">
        <rect
           ry="0"
           y="213.51227"
           x="149.55069"
           height="50"
           width="50"
           id="rect4166"
           style="fill:#ffffff;fill-opacity:1;stroke:none;stroke-width:5;stroke-linecap:round;stroke-linejoin:round;stroke-miterlimit:4;stroke-dasharray:none;stroke-opacity:1" />
        <rect
           style="fill:#ffffff;fill-opacity:1;stroke:none;stroke-width:5;stroke-linecap:round;stroke-linejoin:round;stroke-miterlimit:4;stroke-dasharray:none;stroke-opacity:1"
           id="rect4168"
           width="50"
           height="50"
           x="249.55069"
           y="213.51227"
           ry="0" />
        <rect
           ry="0"
           y="263.51227"
           x="199.55069"
           height="50"
           width="50"
           id="rect4170"
           style="fill:#ffffff;fill-opacity:1;stroke:none;stroke-width:5;stroke-linecap:round;stroke-linejoin:round;stroke-miterlimit:4;stroke-dasharray:none;stroke-opacity:1" />
        <rect
           style="fill:#ffffff;fill-opacity:1;stroke:none;stroke-width:5;stroke-linecap:round;stroke-linejoin:round;stroke-miterlimit:4;stroke-dasharray:none;stroke-opacity:1"
           id="rect4172"
           width="50"
           height="50"
           x="299.55069"
           y="263.51227"
           ry="0" />
        <rect
           ry="0"
           y="313.51227"
           x="249.55069"
           height="50"
           width="50"
           id="rect4174"
           style="fill:#ffffff;fill-opacity:1;stroke:none;stroke-width:5;stroke-linecap:round;stroke-linejoin:round;stroke-miterlimit:4;stroke-dasharray:none;stroke-opacity:1" />
        <rect
           style="fill:#ffffff;fill-opacity:1;stroke:none;stroke-width:5;stroke-linecap:round;stroke-linejoin:round;stroke-miterlimit:4;stroke-dasharray:none;stroke-opacity:1"
           id="rect4176"
           width="50"
           height="50"
           x="349.55069"
           y="313.51227"
           ry="0" />
      </g>
      <g
         id="g4189"
         transform="translate(700,0)">
        <rect
           style="fill:#ffffff;fill-opacity:1;stroke:none;stroke-width:5;stroke-linecap:round;stroke-linejoin:round;stroke-miterlimit:4;stroke-dasharray:none;stroke-opacity:1"
           id="rect4191"
           width="50"
           height="50"
           x="149.55069"
           y="213.51227"
           ry="0" />
        <rect
           ry="0"
           y="213.51227"
           x="249.55069"
           height="50"
           width="50"
           id="rect4193"
           style="fill:#ffffff;fill-opacity:1;stroke:none;stroke-width:5;stroke-linecap:round;stroke-linejoin:round;stroke-miterlimit:4;stroke-dasharray:none;stroke-opacity:1" />
        <rect
           style="fill:#ffffff;fill-opacity:1;stroke:none;stroke-width:5;stroke-linecap:round;stroke-linejoin:round;stroke-miterlimit:4;stroke-dasharray:none;stroke-opacity:1"
           id="rect4195"
           width="50"
           height="50"
           x="199.55069"
           y="263.51227"
           ry="0" />
        <rect
           ry="0"
           y="263.51227"
           x="299.55069"
           height="50"
           width="50"
           id="rect4197"
           style="fill:#ffffff;fill-opacity:1;stroke:none;stroke-width:5;stroke-linecap:round;stroke-linejoin:round;stroke-miterlimit:4;stroke-dasharray:none;stroke-opacity:1" />
        <rect
           style="fill:#ffffff;fill-opacity:1;stroke:none;stroke-width:5;stroke-linecap:round;stroke-linejoin:round;stroke-miterlimit:4;stroke-dasharray:none;stroke-opacity:1"
           id="rect4199"
           width="50"
           height="50"
           x="249.55069"
           y="313.51227"
           ry="0" />
        <rect
           ry="0"
           y="313.51227"
           x="349.55069"
           height="50"
           width="50"
           id="rect4201"
           style="fill:#ffffff;fill-opacity:1;stroke:none;stroke-width:5;stroke-linecap:round;stroke-linejoin:round;stroke-miterlimit:4;stroke-dasharray:none;stroke-opacity:1" />
      </g>
    </g>
  </g>
</svg>
