<svg class="turtle" xmlns="http://www.w3.org/2000/svg" viewBox="0 0 86.35 53.77">
  <g transform="translate(-111.67 -18.6)">
    <g transform="matrix(.50001 0 0 .50001 74.01 29.2)">
      <ellipse transform="rotate(32.47)" ry=".87" rx="1.07" cy="-51.88" cx="121.98" fill="#f60"/>
      <path d="M171.58 33.39a4.9 4.9 0 01.47-3.27c.09-.16.25-.3.43-.35 4.5-1.01 8.96 2.15 13.45 3.15 6.77 1.5 12.62 4.54 20.36 4.29 3.45-.12 12.28 1.3 11.7 3.92-.62 2.85-9.95 4.82-14.53 5.37-12.49 1.51-17.83-1.6-28.2-8.73-1.24-.85-4.54-2.68-3.68-4.38z" fill="#338000"/>
      <path d="M173.96 29.58a5.24 5.24 0 00-.04 2.18c-.86 1.7 2.44 3.53 3.67 4.38 10.38 7.12 15.72 10.24 28.2 8.73 3.16-.38 8.55-1.43 11.82-2.97.2-.25.32-.5.38-.77.58-2.61-8.25-4.04-11.7-3.92-7.74.25-13.59-2.79-20.36-4.3-4-.88-7.97-3.48-11.97-3.33z" fill="#112b00"/>
      <path d="M156.87 30.14l5.47-.04c.2 0 .42-.13.54-.01 0 0 3.84 9.8 12.94 13.21 4.44 1.67 11.04 3.72 10.1 7.23-.85 3.23-7.7 3.21-11.88 3.14-3.74-.05-7.44-1.43-10.5-3.14-3.77-2.11-7.04-5-8.93-8.37-2.74-4.9 2.06-12.02 2.26-12.02z" fill="#cf0"/>
      <path d="M162.9 30.12l-2.33.02c-.2 0-5 7.12-2.25 12.02 1.88 3.37 5.16 6.26 8.93 8.37 2.99 1.67 6.6 3.03 10.26 3.14 3.74-.12 7.77-.71 8.42-3.14.93-3.5-5.67-5.56-10.1-7.23-9.02-3.39-12.86-13-12.93-13.18z" fill="#250"/>
      <rect ry="5.39" y="8.79" x="145.62" height="10.77" width="44.7" fill="#999"/>
      <path d="M121.35 23.4c-5.82-.3-10.32 3.26-10.9 9.05-.58 5.59 2.68 8.44 12.85 7.28 4.24-.48 5.29-2.34 10.57-.18 1.12.53 5.58 2.89 10.39 1.95 3.33-.65 3.21-6.14 3.21-6.14.4-1.08-8.36-1.27-9.5-1.42-3.02-.4-3.3-2.23-4.13-3.7-2.14-3.8-6.8-6.53-12.5-6.83z" fill="#aad400"/>
      <path d="M121.46 23.41c-5.09.32-8.9 3.75-9.43 9.04-.47 4.58 1.64 7.32 8 7.52 1-.03 2.09-.1 3.27-.24 3.08-.35 4.48-1.43 7.03-1.16 1.32-.14 2.82.03 5.13.98.87.41 3.76 1.93 7.26 2.14.5-.03 1.02-.1 1.54-.2 3.33-.64 3.21-6.13 3.21-6.13.4-1.08-8.36-1.27-9.5-1.42-3.02-.4-3.3-2.23-4.13-3.7-2.12-3.78-6.74-6.5-12.38-6.83z" fill="#4a0"/>
      <path d="M170.38 21.17c-16.6.02-31.28 2.03-33.85 16.5a90.24 90.24 0 0066.6-.03c-2.6-14.46-16.16-16.46-32.75-16.47z" fill="#c87137"/>
      <path d="M143.05 26.46l5.48-.04c.2 0 .41-.18.54-.02 0 0 3.83 12.42 12.94 16.76 4.43 2.11 11.04 4.72 10.1 9.17-.86 4.1-7.71 4.07-11.89 3.99-3.74-.08-7.44-1.83-10.5-4a26.41 26.41 0 01-8.93-10.6c-2.74-6.22 2.06-15.26 2.26-15.26z" fill="#250"/>
      <path d="M149.08 26.44l-2.33.02c-.2 0-5 9.04-2.25 15.25a26.41 26.41 0 008.93 10.61c2.99 2.13 6.6 3.84 10.26 3.99 3.74-.15 7.78-.9 8.42-3.98.94-4.45-5.67-7.06-10.1-9.17-9.02-4.3-12.86-16.48-12.93-16.72z" fill="#0ff"/>
      <path d="M169.82 15.24c-16.6.02-30.72 9.14-33.29 21.51 9.27 3.23 21.08 3.32 33.29 3.32 12.23-.01 24.04-.1 33.3-3.34-2.58-12.37-16.7-21.48-33.3-21.49z" fill="#f0f"/>
      <path d="M212.28 27.66a10.6 10.6 0 01-4.04 3.51c-3.74 1.92-8.1 1.76-10.4-.37.02 1.95-1.46 3.05-.14 4.05 2.83 2.13 9.68 1.32 12.54-2.48a10.73 10.73 0 002.04-4.7z" fill="#4a0"/>
      <path d="M211.87 29.3a10.93 10.93 0 01-3.63 2.93c-3.74 1.92-8.1 1.76-10.4-.38.01 1.03-.4 1.82-.59 2.49.09.17.23.34.45.51 2.83 2.13 9.68 1.32 12.54-2.48.71-.95 1.26-2 1.63-3.08z" fill="#0ff"/>
      <path d="M171.32 30.64a4.9 4.9 0 011.19-3.08.72.72 0 01.5-.24c4.6.03 8.24 4.11 12.4 6.1 6.25 3 11.26 7.28 18.86 8.78 3.39.67 11.66 4.05 10.51 6.46-1.25 2.64-10.78 2.45-15.37 1.95-12.5-1.35-17-5.6-25.5-14.87-1.01-1.1-3.81-3.64-2.6-5.1z" fill="#338000"/>
      <path d="M174.5 27.47c-.33.66-.5 1.4-.54 2.11-1.22 1.46 1.58 4 2.6 5.1 8.49 9.28 12.99 13.52 25.5 14.88 3.15.34 8.64.53 12.17-.24.25-.2.43-.41.55-.66 1.15-2.41-7.12-5.8-10.51-6.46-7.6-1.5-12.61-5.78-18.87-8.78-3.7-1.77-6.98-5.2-10.9-5.95z" fill="#112b00"/>
      <path d="M169.82 15.24c-1.38 0-2.73.07-4.07.2-13.69 2.04-24.65 10.72-27.03 22 8.9 2.55 19.82 2.63 31.1 2.63 12.23-.01 24.04-.1 33.3-3.34-2.58-12.37-16.7-21.48-33.3-21.49z" fill="purple"/>
      <path d="M152.06 9.85a5.37 5.37 0 00-4.3 8.63c.9.68 2.02 1.09 3.24 1.09h33.92a5.37 5.37 0 004.3-8.63 5.36 5.36 0 00-3.24-1.09z" fill="#333"/>
      <path d="M150.48 8.82a5.37 5.37 0 000 10.72 5.37 5.37 0 000-10.72z" fill="#666"/>
      <circle r="1.47" cy="14.18" cx="150.48" fill="#f95"/>
      <path d="M130.64 21.5s-4.35-8.67 2.7-9.21c6.13-.47.72 5.33 8.5 5.2 5.38-.1 5.33-7.28 8.45-3.4" fill="none" stroke="#000" stroke-width="1.32" stroke-linecap="round"/>
      <circle r="2.22" cy="29.56" cx="120.5"/>
      <circle cx="116.01" cy="38.52" r=".24"/>
      <path d="M125.1 32.94c-.35-.02-.46 1.5-.96 2.77-.6 1.5-3.96 3.28-5.76 4.26l1.07.01c1.78-.78 4.12-2.14 5.02-3.86.5-.98.98-3.16.64-3.18z"/>
      <g>
        <ellipse ry="1.07" rx="1.22" cy="21.75" cx="130.74" fill="#f60"/>
        <circle cx="121.09" cy="31.24" r="15.78" opacity=".36" fill="#80e5ff"/>
        <path d="M107.96 27.34a13.7 13.7 0 0110.43-9.54" opacity=".36" fill="none" stroke="#fff" stroke-width="1.11" stroke-linecap="round" stroke-linejoin="round"/>
        <path d="M107.69 34.06a13.7 13.7 0 01-.23-4.2" opacity=".36" fill="none" stroke="#fff" stroke-width="1.11" stroke-linecap="round" stroke-linejoin="round"/>
      </g>
      <path d="M138.72 37.44c9.26 3.78 18.89 3.12 31.1 3.13 12.23-.01 24.04-.12 33.3-3.92" fill="purple" stroke="#ff0" stroke-width="2.5" stroke-linecap="round" stroke-linejoin="round"/>
      <path d="M180.36 21.14a13.6 13.6 0 01-18.67.2" fill="none" stroke="#ff0" stroke-width="1.32" stroke-linecap="round" stroke-linejoin="round"/>
      <path d="M160.92 24.95l-5.24 5.25" fill="#ff0" stroke="#ff0" stroke-width="1.32" stroke-linecap="round"/>
      <path d="M180.55 24.95l5.24 5.25" fill="#ff0" stroke="#ff0" stroke-width="1.32" stroke-linecap="round"/>
      <g fill="none" stroke="#000" stroke-width="3.58">
        <path d="M138.4 28.7a17.5 17.5 0 01-3.33 13.06" stroke="#333" stroke-linecap="square" stroke-linejoin="round" stroke-width="3.9695398"/>
      </g>
    </g>
    <path d="M118.75 45.48l-1.07.53-.17 1.18-.83-.85-1.18.2.56-1.06-.56-1.05 1.18.2.83-.85.17 1.18z" fill="#fc0"/>
    <circle cx="121.96" cy="45.48" r="1.32" fill="#338000"/>
  </g>
</svg>