<?xml version="1.0" encoding="UTF-8" standalone="no"?>
<!-- Created with Inkscape (http://www.inkscape.org/) -->

<svg
   xmlns:dc="http://purl.org/dc/elements/1.1/"
   xmlns:cc="http://creativecommons.org/ns#"
   xmlns:rdf="http://www.w3.org/1999/02/22-rdf-syntax-ns#"
   xmlns:svg="http://www.w3.org/2000/svg"
   xmlns="http://www.w3.org/2000/svg"
   xmlns:sodipodi="http://sodipodi.sourceforge.net/DTD/sodipodi-0.dtd"
   xmlns:inkscape="http://www.inkscape.org/namespaces/inkscape"
   width="86.354416mm"
   height="53.772556mm"
   viewBox="0 0 86.354416 53.772556"
   version="1.1"
   id="svg821"
   inkscape:version="0.92.2 5c3e80d, 2017-08-06"
   sodipodi:docname="space-turtle.svg">
  <defs
     id="defs815" />
  <sodipodi:namedview
     id="base"
     pagecolor="#ffffff"
     bordercolor="#666666"
     borderopacity="1.0"
     inkscape:pageopacity="0.0"
     inkscape:pageshadow="2"
     inkscape:zoom="2.8019604"
     inkscape:cx="120.37262"
     inkscape:cy="101.61744"
     inkscape:document-units="mm"
     inkscape:current-layer="layer2"
     showgrid="false"
     inkscape:window-width="2236"
     inkscape:window-height="1141"
     inkscape:window-x="624"
     inkscape:window-y="806"
     inkscape:window-maximized="0"
     fit-margin-top="15"
     fit-margin-left="15"
     fit-margin-right="15"
     fit-margin-bottom="15"
     units="mm" />
  <metadata
     id="metadata818">
    <rdf:RDF>
      <cc:Work
         rdf:about="">
        <dc:format>image/svg+xml</dc:format>
        <dc:type
           rdf:resource="http://purl.org/dc/dcmitype/StillImage" />
        <dc:title></dc:title>
      </cc:Work>
    </rdf:RDF>
  </metadata>
  <g
     inkscape:groupmode="layer"
     id="layer2"
     inkscape:label="Turtle"
     style="display:inline;opacity:1"
     transform="translate(-111.66787,-18.597843)">
    <g
       id="g1279"
       transform="matrix(0.50001471,0,0,0.50001471,74.009518,29.201136)">
      <ellipse
         transform="rotate(32.471194)"
         ry="0.86862594"
         rx="1.0690781"
         cy="-51.884804"
         cx="121.97538"
         id="path1081"
         style="opacity:1;fill:#ff6600;fill-opacity:1;fill-rule:nonzero;stroke:none;stroke-width:1.32291663;stroke-linecap:round;stroke-linejoin:round;stroke-miterlimit:4;stroke-dasharray:none;stroke-dashoffset:0;stroke-opacity:1" />
      <g
         transform="rotate(-13.051553,184.25703,37.800616)"
         id="g1234">
        <path
           sodipodi:nodetypes="caaassssac"
           inkscape:connector-curvature="0"
           id="path1230"
           d="m 172.90621,30.64073 c 0.041,-1.099284 0.44248,-2.270782 1.18943,-3.078345 0.12693,-0.137183 0.31877,-0.24319 0.50565,-0.242166 4.60298,0.02521 8.23671,4.112959 12.38841,6.100783 6.25643,2.99557 11.27149,7.27937 18.86749,8.778689 3.38608,0.668352 11.66254,4.04633 10.51121,6.464947 -1.25276,2.631657 -10.77902,2.444959 -15.37184,1.948791 -12.50552,-1.350983 -17.00659,-5.595561 -25.50293,-14.876855 -1.00943,-1.102691 -3.80916,-3.634155 -2.58743,-5.095847 0,-3e-6 10e-6,3e-6 10e-6,3e-6 z"
           style="opacity:1;fill:#338000;fill-opacity:1;fill-rule:nonzero;stroke:none;stroke-width:1.57150936;stroke-linecap:round;stroke-linejoin:round;stroke-miterlimit:4;stroke-dasharray:none;stroke-dashoffset:0;stroke-opacity:1" />
        <path
           inkscape:connector-curvature="0"
           id="path1232"
           transform="scale(0.26458333)"
           d="m 665.52344,103.82422 c -1.23447,2.47704 -1.91889,5.28404 -2.01953,7.98242 -4.61757,5.52451 5.96412,15.09212 9.77929,19.25977 32.11215,35.0789 49.12372,51.12243 96.38868,56.22851 11.93355,1.2892 32.67925,2.02424 46.01953,-0.87304 0.93348,-0.74523 1.64018,-1.57221 2.07812,-2.49219 4.35148,-9.14123 -26.92878,-21.90949 -39.72656,-24.43555 -28.70929,-5.66672 -47.6642,-21.85589 -71.31055,-33.17773 -13.96541,-6.68661 -26.38231,-19.65181 -41.20898,-22.49219 z"
           style="opacity:1;fill:#112b00;fill-opacity:1;fill-rule:nonzero;stroke:none;stroke-width:5.9395628;stroke-linecap:round;stroke-linejoin:round;stroke-miterlimit:4;stroke-dasharray:none;stroke-dashoffset:0;stroke-opacity:1" />
      </g>
      <g
         transform="matrix(1,0,0,0.78841737,11.842793,8.8441584)"
         id="g1148">
        <path
           transform="matrix(0.72177302,-0.69212983,0.76546788,0.6434741,0,0)"
           style="opacity:1;fill:#ccff00;fill-opacity:1;fill-rule:nonzero;stroke:none;stroke-width:1.59048676;stroke-linecap:round;stroke-linejoin:round;stroke-miterlimit:4;stroke-dasharray:none;stroke-dashoffset:0;stroke-opacity:1"
           d="m 73.06609,120.56305 3.576576,3.7813 c 0.131261,0.13877 0.405736,0.16179 0.36277,0.36277 0,0 -7.078527,11.68591 -4.526659,21.17432 1.242664,4.6205 3.511498,11.11058 -0.520447,13.69217 -3.705171,2.37237 -8.122791,-2.41466 -10.763123,-5.38478 -2.364177,-2.65947 -3.412091,-6.50628 -3.719587,-10.20372 -0.379824,-4.56715 0.318297,-9.50771 2.388588,-13.92091 3.010634,-6.41772 13.070621,-9.63993 13.201882,-9.50115 z"
           id="path1144"
           inkscape:connector-curvature="0"
           sodipodi:nodetypes="ssssaaass" />
        <path
           inkscape:connector-curvature="0"
           id="path1146"
           transform="scale(0.26458333)"
           d="m 570.91211,102.00977 -8.78906,0.0683 c -0.75957,0.006 -18.87964,34.15697 -8.52539,57.64063 7.12021,16.14875 19.50839,29.99162 33.75781,40.10547 11.29736,8.01858 24.94723,14.51297 38.79101,15.04492 14.1303,-0.55701 29.37726,-3.39377 31.81641,-15.01953 3.53017,-16.82576 -21.43582,-26.67369 -38.19336,-34.66016 -34.08055,-16.24244 -48.58,-62.29033 -48.85742,-63.17968 z"
           style="opacity:1;fill:#225500;fill-opacity:1;fill-rule:nonzero;stroke:none;stroke-width:5.99396753;stroke-linecap:round;stroke-linejoin:round;stroke-miterlimit:4;stroke-dasharray:none;stroke-dashoffset:0;stroke-opacity:1" />
      </g>
      <rect
         ry="5.3861604"
         y="8.7931547"
         x="145.61534"
         height="10.772321"
         width="44.695686"
         id="rect1046"
         style="opacity:1;fill:#999999;fill-opacity:1;fill-rule:nonzero;stroke:none;stroke-width:1.40976393;stroke-linecap:round;stroke-linejoin:round;stroke-miterlimit:4;stroke-dasharray:none;stroke-dashoffset:0;stroke-opacity:1" />
      <g
         id="g1109">
        <path
           style="opacity:1;fill:#aad400;fill-opacity:1;fill-rule:nonzero;stroke:none;stroke-width:2.64583325;stroke-linecap:round;stroke-linejoin:round;stroke-miterlimit:4;stroke-dasharray:none;stroke-dashoffset:0;stroke-opacity:1"
           d="m 121.34556,23.40602 c -5.81407,-0.307312 -10.31602,3.252827 -10.9047,9.04517 -0.56795,5.58832 2.69343,8.437886 12.8591,7.278685 4.24119,-0.483626 5.28514,-2.343049 10.56983,-0.179393 1.11814,0.529609 5.57906,2.885274 10.38608,1.94717 3.33718,-0.651259 3.21641,-6.134733 3.21641,-6.134733 0.39372,-1.082402 -8.35865,-1.272421 -9.50042,-1.424053 -3.0267,-0.406445 -3.3083,-2.228432 -4.1299,-3.69265 -2.13777,-3.809821 -6.80786,-6.53952 -12.4964,-6.840196 z"
           id="path949"
           inkscape:connector-curvature="0"
           sodipodi:nodetypes="ssscsccss" />
        <path
           inkscape:connector-curvature="0"
           id="path1067"
           d="m 121.46287,23.413558 c -5.08931,0.316745 -8.89658,3.744106 -9.43457,9.037691 -0.46519,4.577267 1.64205,7.315366 8.00468,7.519955 1.0002,-0.02838 2.08491,-0.106537 3.26698,-0.241329 3.08078,-0.351303 4.47561,-1.427271 7.03317,-1.161171 1.7e-4,1.8e-5 2.6e-4,-1.6e-5 5.3e-4,0 1.3115,-0.141381 2.81166,0.03525 5.12372,0.981852 0.86946,0.411822 3.76018,1.927051 7.26312,2.139921 0.50546,-0.03105 1.0181,-0.09182 1.53531,-0.192751 3.33717,-0.651259 3.21634,-6.135026 3.21634,-6.135026 0.39372,-1.082403 -8.35843,-1.272056 -9.5002,-1.423686 -3.0267,-0.406445 -3.30838,-2.22858 -4.12998,-3.692798 -2.12299,-3.783483 -6.74393,-6.500772 -12.37909,-6.832658 z"
           style="opacity:1;fill:#44aa00;fill-opacity:1;fill-rule:nonzero;stroke:none;stroke-width:2.64583325;stroke-linecap:round;stroke-linejoin:round;stroke-miterlimit:4;stroke-dasharray:none;stroke-dashoffset:0;stroke-opacity:1" />
      </g>
      <path
         sodipodi:nodetypes="ccccc"
         inkscape:connector-curvature="0"
         id="path884"
         d="m 170.37575,21.169069 c -16.60097,0.01835 -31.27552,2.033452 -33.84353,16.509252 9.26494,3.781952 21.07308,6.359692 33.28753,6.363434 12.22819,-0.0106 24.04351,-2.599624 33.30325,-6.394471 -2.58447,-14.468656 -16.15172,-16.469097 -32.74725,-16.478215 z"
         style="opacity:1;fill:#c87137;fill-opacity:1;fill-rule:nonzero;stroke:none;stroke-width:10.38838577;stroke-linecap:round;stroke-linejoin:round;stroke-miterlimit:4;stroke-dasharray:none;stroke-dashoffset:0;stroke-opacity:1" />
      <g
         transform="translate(-1.9746362,-0.54528383)"
         id="g1142">
        <g
           id="g1152">
          <path
             transform="matrix(0.72177302,-0.69212983,0.76546788,0.6434741,0,0)"
             style="opacity:1;fill:#225500;fill-opacity:1;fill-rule:nonzero;stroke:none;stroke-width:1.59048676;stroke-linecap:round;stroke-linejoin:round;stroke-miterlimit:4;stroke-dasharray:none;stroke-dashoffset:0;stroke-opacity:1"
             d="m 73.06609,120.56305 3.576576,3.7813 c 0.131261,0.13877 0.405736,0.16179 0.36277,0.36277 0,0 -7.078527,11.68591 -4.526659,21.17432 1.242664,4.6205 3.511498,11.11058 -0.520447,13.69217 -3.705171,2.37237 -8.122791,-2.41466 -10.763123,-5.38478 -2.364177,-2.65947 -3.412091,-6.50628 -3.719587,-10.20372 -0.379824,-4.56715 0.318297,-9.50771 2.388588,-13.92091 3.010634,-6.41772 13.070621,-9.63993 13.201882,-9.50115 z"
             id="path1133"
             inkscape:connector-curvature="0"
             sodipodi:nodetypes="ssssaaass" />
          <path
             inkscape:connector-curvature="0"
             id="path1135"
             transform="scale(0.26458333)"
             d="m 570.91211,102.00977 -8.78906,0.0683 c -0.75957,0.006 -18.87964,34.15697 -8.52539,57.64063 7.12021,16.14875 19.50839,29.99162 33.75781,40.10547 11.29736,8.01858 24.94723,14.51297 38.79101,15.04492 14.1303,-0.55701 29.37726,-3.39377 31.81641,-15.01953 3.53017,-16.82576 -21.43582,-26.67369 -38.19336,-34.66016 -34.08055,-16.24244 -48.58,-62.29033 -48.85742,-63.17968 z"
             style="opacity:1;fill:#00ffff;fill-opacity:1;fill-rule:nonzero;stroke:none;stroke-width:5.99396753;stroke-linecap:round;stroke-linejoin:round;stroke-miterlimit:4;stroke-dasharray:none;stroke-dashoffset:0;stroke-opacity:1" />
        </g>
      </g>
      <path
         sodipodi:nodetypes="ccccc"
         inkscape:connector-curvature="0"
         id="path891"
         d="m 169.81975,15.23997 c -16.60097,0.01569 -30.71953,9.139961 -33.28753,21.51244 9.26494,3.232438 21.07308,3.313487 33.28753,3.316685 12.22819,-0.0091 24.04351,-0.09975 33.30324,-3.343212 C 200.53852,24.359509 186.41528,15.247764 169.81975,15.23997 Z"
         style="opacity:1;fill:#ff00ff;fill-opacity:1;fill-rule:nonzero;stroke:none;stroke-width:9.6040659;stroke-linecap:round;stroke-linejoin:round;stroke-miterlimit:4;stroke-dasharray:none;stroke-dashoffset:0;stroke-opacity:1" />
      <g
         id="g1169">
        <path
           style="opacity:1;fill:#44aa00;fill-opacity:1;fill-rule:nonzero;stroke:none;stroke-width:1.03716767;stroke-linecap:round;stroke-linejoin:round;stroke-miterlimit:4;stroke-dasharray:none;stroke-dashoffset:0;stroke-opacity:1"
           d="m 212.28098,27.663804 c -0.91444,1.398518 -2.33189,2.629684 -4.03663,3.506151 -3.74733,1.918858 -8.10925,1.761898 -10.4046,-0.374401 0.0231,1.952771 -1.46462,3.056739 -0.14209,4.05647 2.82929,2.128758 9.67979,1.319994 12.53859,-2.479212 1.07515,-1.432141 1.78925,-3.078705 2.04473,-4.709008 z"
           id="path1121"
           inkscape:connector-curvature="0"
           sodipodi:nodetypes="cccccc" />
        <path
           style="opacity:1;fill:#00ffff;fill-opacity:1;fill-rule:nonzero;stroke:none;stroke-width:3.92000389;stroke-linecap:round;stroke-linejoin:round;stroke-miterlimit:4;stroke-dasharray:none;stroke-dashoffset:0;stroke-opacity:1"
           d="m 800.77539,110.70508 c -3.41805,4.39366 -8.15752,8.24831 -13.71094,11.10351 -14.16313,7.25238 -30.64888,6.65819 -39.32422,-1.41601 0.0459,3.87793 -1.4749,6.86604 -2.21289,9.38086 0.31778,0.66957 0.83696,1.31708 1.67578,1.95117 10.69338,8.0457 36.58572,4.98811 47.39063,-9.37109 2.70891,-3.60838 4.79484,-7.57807 6.18164,-11.64844 z"
           transform="scale(0.26458333)"
           id="path1162"
           inkscape:connector-curvature="0" />
      </g>
      <g
         transform="translate(-1.5875)"
         id="g1228">
        <path
           style="opacity:1;fill:#338000;fill-opacity:1;fill-rule:nonzero;stroke:none;stroke-width:1.57150936;stroke-linecap:round;stroke-linejoin:round;stroke-miterlimit:4;stroke-dasharray:none;stroke-dashoffset:0;stroke-opacity:1"
           d="m 172.90621,30.64073 c 0.041,-1.099284 0.44248,-2.270782 1.18943,-3.078345 0.12693,-0.137183 0.31877,-0.24319 0.50565,-0.242166 4.60298,0.02521 8.23671,4.112959 12.38841,6.100783 6.25643,2.99557 11.27149,7.27937 18.86749,8.778689 3.38608,0.668352 11.66254,4.04633 10.51121,6.464947 -1.25276,2.631657 -10.77902,2.444959 -15.37184,1.948791 -12.50552,-1.350983 -17.00659,-5.595561 -25.50293,-14.876855 -1.00943,-1.102691 -3.80916,-3.634155 -2.58743,-5.095847 0,-3e-6 10e-6,3e-6 10e-6,3e-6 z"
           id="rect1171"
           inkscape:connector-curvature="0"
           sodipodi:nodetypes="caaassssac" />
        <path
           inkscape:connector-curvature="0"
           style="opacity:1;fill:#112b00;fill-opacity:1;fill-rule:nonzero;stroke:none;stroke-width:5.9395628;stroke-linecap:round;stroke-linejoin:round;stroke-miterlimit:4;stroke-dasharray:none;stroke-dashoffset:0;stroke-opacity:1"
           d="m 665.52344,103.82422 c -1.23447,2.47704 -1.91889,5.28404 -2.01953,7.98242 -4.61757,5.52451 5.96412,15.09212 9.77929,19.25977 32.11215,35.0789 49.12372,51.12243 96.38868,56.22851 11.93355,1.2892 32.67925,2.02424 46.01953,-0.87304 0.93348,-0.74523 1.64018,-1.57221 2.07812,-2.49219 4.35148,-9.14123 -26.92878,-21.90949 -39.72656,-24.43555 -28.70929,-5.66672 -47.6642,-21.85589 -71.31055,-33.17773 -13.96541,-6.68661 -26.38231,-19.65181 -41.20898,-22.49219 z"
           transform="scale(0.26458333)"
           id="path1221" />
      </g>
      <path
         id="path1076"
         transform="scale(0.26458333)"
         d="m 641.83789,57.599609 c -5.19991,0.0049 -10.32739,0.26917 -15.37891,0.734375 -51.72793,7.737545 -93.17519,40.522273 -102.17968,83.177736 33.64479,9.64991 74.94395,9.91853 117.55859,9.92969 46.21678,-0.0344 90.87369,-0.37602 125.87109,-12.63477 C 757.94091,92.067589 704.56115,57.629067 641.83789,57.599609 Z"
         style="opacity:1;fill:#800080;fill-opacity:1;fill-rule:nonzero;stroke:none;stroke-width:36.29883194;stroke-linecap:round;stroke-linejoin:round;stroke-miterlimit:4;stroke-dasharray:none;stroke-dashoffset:0;stroke-opacity:1"
         inkscape:connector-curvature="0" />
      <path
         id="rect1083"
         transform="scale(0.26458333)"
         d="m 574.71484,37.234375 c -11.27785,0 -20.35742,9.079565 -20.35742,20.357422 0,4.613527 1.53776,8.843348 4.10547,12.25 3.40665,2.567713 7.63843,4.107422 12.25195,4.107422 h 128.21289 c 11.27786,0 20.35743,-9.079566 20.35743,-20.357422 0,-4.613527 -1.53776,-8.845301 -4.10547,-12.251953 -3.40665,-2.567713 -7.63843,-4.105469 -12.25196,-4.105469 z"
         style="opacity:1;fill:#333333;fill-opacity:1;fill-rule:nonzero;stroke:none;stroke-width:5.32824183;stroke-linecap:round;stroke-linejoin:round;stroke-miterlimit:4;stroke-dasharray:none;stroke-dashoffset:0;stroke-opacity:1"
         inkscape:connector-curvature="0" />
      <path
         id="rect1048"
         transform="scale(0.26458333)"
         d="m 568.75,33.328125 c -10.34912,0.982417 -18.39258,9.648855 -18.39258,20.263672 0,10.614817 8.04346,19.279301 18.39258,20.261719 10.34912,-0.982418 18.39258,-9.646902 18.39258,-20.261719 0,-10.614817 -8.04346,-19.281255 -18.39258,-20.263672 z"
         style="opacity:1;fill:#666666;fill-opacity:1;fill-rule:nonzero;stroke:none;stroke-width:5.32824183;stroke-linecap:round;stroke-linejoin:round;stroke-miterlimit:4;stroke-dasharray:none;stroke-dashoffset:0;stroke-opacity:1"
         inkscape:connector-curvature="0" />
      <circle
         r="1.4706777"
         cy="14.179237"
         cx="150.48177"
         id="path1088"
         style="opacity:1;fill:#ff9955;fill-opacity:1;fill-rule:nonzero;stroke:none;stroke-width:1.81987095;stroke-linecap:round;stroke-linejoin:round;stroke-miterlimit:4;stroke-dasharray:none;stroke-dashoffset:0;stroke-opacity:1" />
      <path
         sodipodi:nodetypes="cssc"
         inkscape:connector-curvature="0"
         id="path1096"
         d="m 130.63802,21.502604 c 0,0 -4.34793,-8.671553 2.69308,-9.21317 6.14211,-0.47247 0.72897,5.333585 8.50446,5.197173 5.38616,-0.09449 5.33891,-7.276042 8.45722,-3.401786"
         style="fill:none;stroke:#000000;stroke-width:1.32291663;stroke-linecap:round;stroke-linejoin:miter;stroke-miterlimit:4;stroke-dasharray:none;stroke-opacity:1" />
      <circle
         r="2.2239678"
         cy="29.560186"
         cx="120.49561"
         id="path954"
         style="opacity:1;fill:#000000;fill-opacity:1;fill-rule:nonzero;stroke:none;stroke-width:7.00803947;stroke-linecap:round;stroke-linejoin:round;stroke-miterlimit:4;stroke-dasharray:none;stroke-dashoffset:0;stroke-opacity:1" />
      <circle
         style="opacity:1;fill:#000000;fill-opacity:1;fill-rule:nonzero;stroke:none;stroke-width:0.76876885;stroke-linecap:round;stroke-linejoin:round;stroke-miterlimit:4;stroke-dasharray:none;stroke-dashoffset:0;stroke-opacity:1"
         id="circle956"
         cx="116.00718"
         cy="38.515667"
         r="0.24396512" />
      <path
         inkscape:connector-curvature="0"
         id="rect1004"
         d="m 125.10554,32.944241 c -0.35337,-0.02159 -0.46556,1.489967 -0.96945,2.762623 -0.5937,1.499484 -3.95589,3.281106 -5.75779,4.26279 0.34424,0.01206 0.70369,0.0149 1.07332,0.01188 1.78138,-0.780743 4.12287,-2.140236 5.01675,-3.862298 0.50693,-0.97723 0.97707,-3.154259 0.63717,-3.175 z"
         style="opacity:1;fill:#000000;fill-opacity:1;fill-rule:nonzero;stroke:none;stroke-width:1.49910688;stroke-linecap:round;stroke-linejoin:round;stroke-miterlimit:4;stroke-dasharray:none;stroke-dashoffset:0;stroke-opacity:1" />
      <g
         id="g1033">
        <ellipse
           ry="1.0748699"
           rx="1.2166108"
           cy="21.750652"
           cx="130.74432"
           id="path1119"
           style="opacity:1;fill:#ff6600;fill-opacity:1;fill-rule:nonzero;stroke:none;stroke-width:1.98623002;stroke-linecap:round;stroke-linejoin:round;stroke-miterlimit:4;stroke-dasharray:none;stroke-dashoffset:0;stroke-opacity:1" />
        <circle
           style="opacity:0.36000001;fill:#80e5ff;fill-opacity:1;fill-rule:nonzero;stroke:none;stroke-width:1.27703524;stroke-linecap:round;stroke-linejoin:round;stroke-miterlimit:4;stroke-dasharray:none;stroke-dashoffset:0;stroke-opacity:1"
           id="path1016"
           cx="121.09412"
           cy="31.235489"
           r="15.780505" />
        <path
           id="circle1024"
           style="opacity:0.36000001;fill:none;fill-opacity:1;fill-rule:nonzero;stroke:#ffffff;stroke-width:1.10880303;stroke-linecap:round;stroke-linejoin:round;stroke-miterlimit:4;stroke-dasharray:none;stroke-dashoffset:0;stroke-opacity:1"
           sodipodi:type="arc"
           sodipodi:cx="121.09412"
           sodipodi:cy="31.235489"
           sodipodi:rx="13.701636"
           sodipodi:ry="13.701636"
           sodipodi:start="3.4299388"
           sodipodi:end="4.5138557"
           sodipodi:open="true"
           d="m 107.95815,27.339195 a 13.701636,13.701636 0 0 1 10.43357,-9.5362" />
        <path
           d="m 107.68766,34.064235 a 13.701636,13.701636 0 0 1 -0.22559,-4.207953"
           sodipodi:open="true"
           sodipodi:end="3.2424234"
           sodipodi:start="2.933644"
           sodipodi:ry="13.701636"
           sodipodi:rx="13.701636"
           sodipodi:cy="31.235489"
           sodipodi:cx="121.09412"
           sodipodi:type="arc"
           style="opacity:0.36000001;fill:none;fill-opacity:1;fill-rule:nonzero;stroke:#ffffff;stroke-width:1.10880303;stroke-linecap:round;stroke-linejoin:round;stroke-miterlimit:4;stroke-dasharray:none;stroke-dashoffset:0;stroke-opacity:1"
           id="path1028" />
      </g>
      <path
         style="opacity:1;fill:#800080;fill-opacity:1;fill-rule:nonzero;stroke:#ffff00;stroke-width:2.4994812;stroke-linecap:round;stroke-linejoin:round;stroke-miterlimit:4;stroke-dasharray:none;stroke-dashoffset:0;stroke-opacity:1"
         d="m 138.71556,37.441642 c 9.26494,3.781953 18.88974,3.120294 31.10419,3.124036 12.22819,-0.0106 24.04351,-0.116712 33.30324,-3.911558"
         id="path893"
         inkscape:connector-curvature="0"
         sodipodi:nodetypes="ccc" />
      <path
         sodipodi:open="true"
         d="m 180.36012,21.143718 a 13.607142,13.607142 0 0 1 -18.67328,0.19659"
         sodipodi:end="2.3165149"
         sodipodi:start="0.80402279"
         sodipodi:ry="13.607142"
         sodipodi:rx="13.607142"
         sodipodi:cy="11.344494"
         sodipodi:cx="170.91928"
         sodipodi:type="arc"
         id="path1090"
         style="opacity:1;fill:none;fill-opacity:1;fill-rule:nonzero;stroke:#ffff00;stroke-width:1.32291663;stroke-linecap:round;stroke-linejoin:round;stroke-miterlimit:4;stroke-dasharray:none;stroke-dashoffset:0;stroke-opacity:1" />
      <path
         inkscape:connector-curvature="0"
         id="path1092"
         d="m 160.92336,24.951637 -5.24442,5.24442"
         style="fill:#ffff00;stroke:#ffff00;stroke-width:1.32291663;stroke-linecap:round;stroke-linejoin:miter;stroke-miterlimit:4;stroke-dasharray:none;stroke-opacity:1" />
      <path
         style="fill:#ffff00;stroke:#ffff00;stroke-width:1.32291663;stroke-linecap:round;stroke-linejoin:miter;stroke-miterlimit:4;stroke-dasharray:none;stroke-opacity:1"
         d="m 180.54993,24.951637 5.24442,5.24442"
         id="path1094"
         inkscape:connector-curvature="0" />
      <g
         transform="matrix(1.1088139,0,0,1.1088139,-13.176727,-3.3988564)"
         style="fill:none;stroke:#000000;stroke-width:3.57927513;stroke-miterlimit:4;stroke-dasharray:none"
         id="g1117">
        <path
           sodipodi:open="true"
           d="m 136.7075,28.944942 a 15.780505,15.780505 0 0 1 -3.00549,11.780824"
           sodipodi:end="0.64524288"
           sodipodi:start="6.1375203"
           sodipodi:ry="15.780505"
           sodipodi:rx="15.780505"
           sodipodi:cy="31.235489"
           sodipodi:cx="121.09412"
           sodipodi:type="arc"
           id="circle1111"
           style="opacity:1;fill:none;fill-opacity:1;fill-rule:nonzero;stroke:#333333;stroke-width:3.57927513;stroke-linecap:square;stroke-linejoin:round;stroke-miterlimit:4;stroke-dasharray:none;stroke-dashoffset:0;stroke-opacity:1" />
      </g>
    </g>
    <path
       sodipodi:type="star"
       style="opacity:1;fill:#ffcc00;fill-opacity:1;fill-rule:nonzero;stroke:none;stroke-width:1.32291663;stroke-linecap:round;stroke-linejoin:round;stroke-miterlimit:4;stroke-dasharray:none;stroke-dashoffset:0;stroke-opacity:1"
       id="path876"
       sodipodi:sides="5"
       sodipodi:cx="116.95584"
       sodipodi:cy="45.484121"
       sodipodi:r1="1.7966141"
       sodipodi:r2="0.89830703"
       sodipodi:arg1="0"
       sodipodi:arg2="0.62831853"
       inkscape:flatsided="false"
       inkscape:rounded="0"
       inkscape:randomized="0"
       d="m 118.75246,45.484119 -1.06987,0.528012 -0.17156,1.18067 -0.83278,-0.854341 -1.1759,0.201683 0.55518,-1.056024 -0.55518,-1.056023 1.1759,0.201683 0.83278,-0.854341 0.17156,1.18067 z"
       inkscape:transform-center-x="-0.17156125" />
    <circle
       style="opacity:1;fill:#338000;fill-opacity:1;fill-rule:nonzero;stroke:none;stroke-width:1.32291663;stroke-linecap:round;stroke-linejoin:round;stroke-miterlimit:4;stroke-dasharray:none;stroke-dashoffset:0;stroke-opacity:1"
       id="path885"
       cx="121.96051"
       cy="45.484123"
       r="1.3219911" />
  </g>
</svg>
