<svg
   class="person person--cowboy"
   viewBox="0 0 100 130"
   preserveAspectRatio="xMinYMin">
  <g
     transform="translate(-2.4745831,-1.3664309)">
    <path
       d="M 53.78026,1.4948718 C 47.08582,2.4987334 36.581731,12.293948 36.581731,12.293948 l -1.799847,3.199721 c 0,0 0.85213,1.746912 0.599949,2.599775 -0.81541,2.757684 -6.199468,5.999492 -6.199468,5.999492 l -2.199814,7.599345 2.199814,4.59961 c 0,0 5.410067,1.722616 8.199296,2.199808 0.856708,0.14658 1.857275,-0.251809 2.599778,0.199985 1.406493,0.855825 2.599779,4.199642 2.599779,4.199642 l -0.799934,1.799848 -5.799501,7.599345 c 0,0 -11.248973,5.366202 -16.798567,8.199299 -1.009319,0.51527 -2.189486,0.807586 -2.999742,1.599866 -2.624882,2.566657 -4.026556,6.194383 -5.399536,9.599179 -3.2712995,8.112338 -6.5994374,25.397833 -6.5994374,25.397833 0,0 -1.522633,9.302794 -1.599864,13.998804 -0.040712,2.47422 0.00476,4.99745 0.5999483,7.39937 2.4420847,9.85543 11.9989761,27.99759 11.9989761,27.99759 l 9.399194,4.99958 2.399796,36.79685 25.997775,0 1.599865,-17.19853 3.599694,17.99846 21.59815,0 3.599692,-25.19783 -1.199896,-13.19889 3.599693,-9.59918 c 0,0 10.870918,-17.36534 12.798904,-27.19767 0.488106,-2.48921 -0.399962,-7.59934 -0.399962,-7.59934 L 96.176635,87.487507 c 0,0 -2.084745,-15.137315 -5.199554,-21.998109 C 90.028856,63.400806 88.734846,61.363903 86.97742,59.889875 81.997233,55.712764 74.52616,55.460039 69.378925,51.490593 67.581056,50.104107 64.979303,46.29104 64.979303,46.29104 c 0,0 1.968917,1.219734 2.999742,0.999911 1.061301,-0.226318 2.399795,-2.199807 2.399795,-2.199807 l -0.399967,-4.99958 c 0,0 -0.209908,-3.906005 0.59995,-5.599523 0.203357,-0.425231 0.95347,-0.530835 0.999914,-0.999911 0.142098,-1.435078 -2.399793,-3.599687 -2.399793,-3.599687 0,0 1.406707,-2.576791 1.599863,-3.999658 0.0812,-0.598156 -0.199984,-1.799849 -0.199984,-1.799849 l 10.599091,-8.199299 c 0,0 -1.284366,-1.71264 -2.199809,-2.199808 -2.458226,-1.308192 -8.199298,-1.599866 -8.199298,-1.599866 l -3.39971,0.399969 -5.199553,-9.5991791 -3.199729,0 c 0,0 -3.424501,-1.6660617 -5.199555,-1.3998811 z"
       style="fill:#000000;fill-opacity:1;fill-rule:evenodd;stroke:#000000;stroke-width:0.19797297px;stroke-linecap:butt;stroke-linejoin:miter;stroke-opacity:1" />
  </g>
</svg>
