<svg
   class="person person--left"
   viewBox="0 0 42 50"
   preserveAspectRatio="xMinYMin">
  <g
     transform="translate(-32.042077,-37.595703)">
    <path
       d="m 49.21465,37.994162 -1.968556,0.705057 c 0,0 -1.792311,0.714977 -2.41211,1.410156 -0.224836,0.252181 -0.304021,0.606342 -0.408203,0.927734 -0.199006,0.613918 -0.204802,1.280103 -0.408203,1.892579 -0.253145,0.762265 -0.765574,1.423776 -1.001953,2.191406 -0.173559,0.563625 -0.335152,1.155642 -0.296875,1.74414 0.04368,0.671571 0.358567,1.29913 0.59375,1.929688 0.160642,0.430701 0.556641,1.261719 0.556641,1.261719 l -1.150391,4.527343 -1.818359,2.931641 -3.228516,3.787109 c 0,0 -1.462332,1.505578 -1.966797,2.41211 -0.776088,1.394643 -1.134721,2.98862 -1.558594,4.527344 -0.610995,2.218003 -1.099845,4.476529 -1.412109,6.755859 -0.27498,2.00718 -0.402344,6.064453 -0.402344,6.064453 0,0 -0.20572,2.693845 0.316407,3.882812 0.766533,1.745518 2.262932,3.194035 3.882812,4.199219 0.52706,0.327056 1.785156,0.525391 1.785156,0.525391 l 1.259766,0.839844 -1.994141,6.404296 -0.466797,5.400388 2.523438,10.39258 0.148437,3.11719 22.306641,-0.18555 0.222656,-7.27539 -0.111328,-6.27148 -1.523437,-12.099612 2.339843,-2.078126 0.07422,-3.490234 -0.964844,-3.5625 c 0,0 -1.508064,-6.190053 0.222657,-8.386719 0.650044,-0.825049 3.042968,-0.818359 3.042968,-0.818359 l 8.238282,-4.453125 c 0,0 0.962209,-1.668162 1.041015,-2.597656 0.05986,-0.706037 -0.120876,-1.449204 -0.447265,-2.078125 -0.80645,-1.553953 -3.5625,-3.859375 -3.5625,-3.859375 0,0 -1.870566,-6.841164 -4.75,-7.423828 -0.941627,-0.190542 -2.375,1.632812 -2.375,1.632812 L 61.908203,52.134766 59.382812,47.533203 57.15625,45.455078 c 0,0 0.258897,-2.67569 -0.668065,-4.158203 -1.297758,-2.075535 -5.120997,-3.451172 -5.120997,-3.451172 z m 6.011912,15.921854 4.007813,1.484375 -0.148437,2.226562 -4.75,-0.296875 z"
       style="fill:#000000;fill-opacity:1;fill-rule:evenodd;stroke:#000000;stroke-width:0.5;stroke-linecap:round;stroke-linejoin:round;stroke-miterlimit:4;stroke-dasharray:none;stroke-opacity:1" />
  </g>
</svg>
