<?xml version="1.0" encoding="UTF-8" standalone="no"?>
<!-- Created with Inkscape (http://www.inkscape.org/) -->

<svg
   xmlns:dc="http://purl.org/dc/elements/1.1/"
   xmlns:cc="http://creativecommons.org/ns#"
   xmlns:rdf="http://www.w3.org/1999/02/22-rdf-syntax-ns#"
   xmlns:svg="http://www.w3.org/2000/svg"
   xmlns="http://www.w3.org/2000/svg"
   xmlns:sodipodi="http://sodipodi.sourceforge.net/DTD/sodipodi-0.dtd"
   xmlns:inkscape="http://www.inkscape.org/namespaces/inkscape"
   width="210mm"
   height="297mm"
   viewBox="0 0 210 297"
   version="1.1"
   id="svg8"
   inkscape:version="0.92.2 5c3e80d, 2017-08-06"
   sodipodi:docname="rainbow-cloud.svg">
  <defs
     id="defs2" />
  <sodipodi:namedview
     id="base"
     pagecolor="#ffffff"
     bordercolor="#666666"
     borderopacity="1.0"
     inkscape:pageopacity="0.0"
     inkscape:pageshadow="2"
     inkscape:zoom="1.4"
     inkscape:cx="-979.16497"
     inkscape:cy="788.57143"
     inkscape:document-units="mm"
     inkscape:current-layer="layer1"
     showgrid="false"
     inkscape:window-width="3440"
     inkscape:window-height="1418"
     inkscape:window-x="0"
     inkscape:window-y="516"
     inkscape:window-maximized="1" />
  <metadata
     id="metadata5">
    <rdf:RDF>
      <cc:Work
         rdf:about="">
        <dc:format>image/svg+xml</dc:format>
        <dc:type
           rdf:resource="http://purl.org/dc/dcmitype/StillImage" />
        <dc:title></dc:title>
      </cc:Work>
    </rdf:RDF>
  </metadata>
  <g
     inkscape:label="Layer 1"
     inkscape:groupmode="layer"
     id="layer1">
    <g
       id="g924"
       transform="translate(-44.223215,1.1339286)">
      <path
         id="path841"
         d="M -269.50046,18.856837 A 132.29141,132.29167 0 0 0 -401.79266,151.1485 h 13.2297 A 119.06226,119.0625 0 0 1 -269.50046,32.086004 119.06226,119.0625 0 0 1 -150.43849,151.1485 h 13.22916 A 132.29141,132.29167 0 0 0 -269.50046,18.856837 Z"
         style="fill:#ff2a2a;fill-opacity:1;stroke:#000000;stroke-width:1.32291663;stroke-linecap:round;stroke-linejoin:round;stroke-miterlimit:4;stroke-dasharray:none;stroke-dashoffset:0;stroke-opacity:1"
         inkscape:connector-curvature="0" />
      <path
         id="circle853"
         d="M -269.50046,25.47142 A 125.67709,125.67709 0 0 0 -395.17754,151.1485 h 13.22916 A 112.4479,112.4479 0 0 1 -269.50046,38.700587 112.4479,112.4479 0 0 1 -157.05255,151.1485 h 13.22917 A 125.67709,125.67709 0 0 0 -269.50046,25.47142 Z"
         style="fill:#ffd42a;fill-opacity:1;stroke:#000000;stroke-width:1.32291663;stroke-linecap:round;stroke-linejoin:round;stroke-miterlimit:4;stroke-dasharray:none;stroke-dashoffset:0;stroke-opacity:1"
         inkscape:connector-curvature="0" />
      <path
         id="circle843"
         d="M -269.50046,32.086004 A 119.0625,119.0625 0 0 0 -388.56296,151.1485 h 13.22917 A 105.83334,105.83334 0 0 1 -269.50046,45.314653 105.83334,105.83334 0 0 1 -163.66713,151.1485 h 13.22917 A 119.0625,119.0625 0 0 0 -269.50046,32.086004 Z"
         style="fill:#ff6600;fill-opacity:1;stroke:#000000;stroke-width:1.32291663;stroke-linecap:round;stroke-linejoin:round;stroke-miterlimit:4;stroke-dasharray:none;stroke-dashoffset:0;stroke-opacity:1"
         inkscape:connector-curvature="0" />
      <path
         id="circle847"
         d="M -269.50046,38.700587 A 112.4479,112.4479 0 0 0 -381.94838,151.1485 h 13.22917 a 99.218749,99.218749 0 0 1 99.21875,-99.218747 99.218749,99.218749 0 0 1 99.21875,99.218747 h 13.22916 A 112.4479,112.4479 0 0 0 -269.50046,38.700587 Z"
         style="fill:#66ff00;fill-opacity:1;stroke:#000000;stroke-width:1.32291663;stroke-linecap:round;stroke-linejoin:round;stroke-miterlimit:4;stroke-dasharray:none;stroke-dashoffset:0;stroke-opacity:1"
         inkscape:connector-curvature="0" />
      <path
         id="circle849"
         d="M -269.50046,45.31517 A 105.83334,105.83334 0 0 0 -375.33379,151.1485 h 13.22916 a 92.604163,92.604163 0 0 1 92.60417,-92.604162 92.604163,92.604163 0 0 1 92.60416,92.604162 h 13.22917 A 105.83334,105.83334 0 0 0 -269.50046,45.31517 Z"
         style="fill:#00aad4;fill-opacity:1;stroke:#000000;stroke-width:1.32291663;stroke-linecap:round;stroke-linejoin:round;stroke-miterlimit:4;stroke-dasharray:none;stroke-dashoffset:0;stroke-opacity:1"
         inkscape:connector-curvature="0" />
      <path
         id="circle851"
         d="m -269.50046,51.929753 a 99.218749,99.218749 0 0 0 -99.21875,99.218747 h 13.22917 a 85.989585,85.989585 0 0 1 85.98958,-85.989579 85.989585,85.989585 0 0 1 85.98958,85.989579 h 13.22917 a 99.218749,99.218749 0 0 0 -99.21875,-99.218747 z"
         style="fill:#800080;fill-opacity:1;stroke:#000000;stroke-width:1.32291663;stroke-linecap:round;stroke-linejoin:round;stroke-miterlimit:4;stroke-dasharray:none;stroke-dashoffset:0;stroke-opacity:1"
         inkscape:connector-curvature="0" />
      <path
         id="circle845"
         d="m -269.50046,58.544338 a 92.604163,92.604163 0 0 0 -92.60417,92.604162 h 6.61459 a 85.989585,85.989585 0 0 1 85.98958,-85.989579 85.989585,85.989585 0 0 1 85.98958,85.989579 h 6.61458 a 92.604163,92.604163 0 0 0 -92.60416,-92.604162 z"
         style="fill:#ff00ff;fill-opacity:1;stroke:#000000;stroke-width:1.32291663;stroke-linecap:round;stroke-linejoin:round;stroke-miterlimit:4;stroke-dasharray:none;stroke-dashoffset:0;stroke-opacity:1"
         inkscape:connector-curvature="0" />
    </g>
    <ellipse
       style="fill:#ffffff;fill-opacity:1;stroke:#000000;stroke-width:1.32291663;stroke-linecap:round;stroke-linejoin:round;stroke-miterlimit:4;stroke-dasharray:none;stroke-dashoffset:0;stroke-opacity:1"
       id="path926"
       cx="-177.45979"
       cy="85.805809"
       rx="19.465773"
       ry="19.560268" />
  </g>
</svg>
