<?xml version="1.0" encoding="UTF-8" standalone="no"?>
<svg
   xmlns:dc="http://purl.org/dc/elements/1.1/"
   xmlns:cc="http://creativecommons.org/ns#"
   xmlns:rdf="http://www.w3.org/1999/02/22-rdf-syntax-ns#"
   xmlns:svg="http://www.w3.org/2000/svg"
   xmlns="http://www.w3.org/2000/svg"
   id="svg8"
   version="1.1"
   viewBox="0 0 378.41663 215.17584"
   height="215.17584mm"
   width="378.41663mm">
  <defs
     id="defs2" />
  <metadata
     id="metadata5">
    <rdf:RDF>
      <cc:Work
         rdf:about="">
        <dc:format>image/svg+xml</dc:format>
        <dc:type
           rdf:resource="http://purl.org/dc/dcmitype/StillImage" />
        <dc:title></dc:title>
      </cc:Work>
    </rdf:RDF>
  </metadata>
  <g
     transform="translate(622.67509,-19.70004)"
     id="layer1">
    <g
       transform="translate(-164.84207,37.98969)"
       id="g924">
      <path
         style="fill:#ff2a2a;fill-opacity:1;stroke:#000000;stroke-width:1.32291663;stroke-linecap:round;stroke-linejoin:round;stroke-miterlimit:4;stroke-dasharray:none;stroke-dashoffset:0;stroke-opacity:1"
         d="M -269.50046,18.856837 A 132.29141,132.29167 0 0 0 -401.79266,151.1485 h 13.2297 A 119.06226,119.0625 0 0 1 -269.50046,32.086004 119.06226,119.0625 0 0 1 -150.43849,151.1485 h 13.22916 A 132.29141,132.29167 0 0 0 -269.50046,18.856837 Z"
         id="path841" />
      <path
         style="fill:#ffd42a;fill-opacity:1;stroke:#000000;stroke-width:1.32291663;stroke-linecap:round;stroke-linejoin:round;stroke-miterlimit:4;stroke-dasharray:none;stroke-dashoffset:0;stroke-opacity:1"
         d="M -269.50046,25.47142 A 125.67709,125.67709 0 0 0 -395.17754,151.1485 h 13.22916 A 112.4479,112.4479 0 0 1 -269.50046,38.700587 112.4479,112.4479 0 0 1 -157.05255,151.1485 h 13.22917 A 125.67709,125.67709 0 0 0 -269.50046,25.47142 Z"
         id="circle853" />
      <path
         style="fill:#ff6600;fill-opacity:1;stroke:#000000;stroke-width:1.32291663;stroke-linecap:round;stroke-linejoin:round;stroke-miterlimit:4;stroke-dasharray:none;stroke-dashoffset:0;stroke-opacity:1"
         d="M -269.50046,32.086004 A 119.0625,119.0625 0 0 0 -388.56296,151.1485 h 13.22917 A 105.83334,105.83334 0 0 1 -269.50046,45.314653 105.83334,105.83334 0 0 1 -163.66713,151.1485 h 13.22917 A 119.0625,119.0625 0 0 0 -269.50046,32.086004 Z"
         id="circle843" />
      <path
         style="fill:#66ff00;fill-opacity:1;stroke:#000000;stroke-width:1.32291663;stroke-linecap:round;stroke-linejoin:round;stroke-miterlimit:4;stroke-dasharray:none;stroke-dashoffset:0;stroke-opacity:1"
         d="M -269.50046,38.700587 A 112.4479,112.4479 0 0 0 -381.94838,151.1485 h 13.22917 a 99.218749,99.218749 0 0 1 99.21875,-99.218747 99.218749,99.218749 0 0 1 99.21875,99.218747 h 13.22916 A 112.4479,112.4479 0 0 0 -269.50046,38.700587 Z"
         id="circle847" />
      <path
         style="fill:#00aad4;fill-opacity:1;stroke:#000000;stroke-width:1.32291663;stroke-linecap:round;stroke-linejoin:round;stroke-miterlimit:4;stroke-dasharray:none;stroke-dashoffset:0;stroke-opacity:1"
         d="M -269.50046,45.31517 A 105.83334,105.83334 0 0 0 -375.33379,151.1485 h 13.22916 a 92.604163,92.604163 0 0 1 92.60417,-92.604162 92.604163,92.604163 0 0 1 92.60416,92.604162 h 13.22917 A 105.83334,105.83334 0 0 0 -269.50046,45.31517 Z"
         id="circle849" />
      <path
         style="fill:#800080;fill-opacity:1;stroke:#000000;stroke-width:1.32291663;stroke-linecap:round;stroke-linejoin:round;stroke-miterlimit:4;stroke-dasharray:none;stroke-dashoffset:0;stroke-opacity:1"
         d="m -269.50046,51.929753 a 99.218749,99.218749 0 0 0 -99.21875,99.218747 h 13.22917 a 85.989585,85.989585 0 0 1 85.98958,-85.989579 85.989585,85.989585 0 0 1 85.98958,85.989579 h 13.22917 a 99.218749,99.218749 0 0 0 -99.21875,-99.218747 z"
         id="circle851" />
      <path
         style="fill:#ff00ff;fill-opacity:1;stroke:#000000;stroke-width:1.32291663;stroke-linecap:round;stroke-linejoin:round;stroke-miterlimit:4;stroke-dasharray:none;stroke-dashoffset:0;stroke-opacity:1"
         d="m -269.50046,58.544338 a 92.604163,92.604163 0 0 0 -92.60417,92.604162 h 6.61459 a 85.989585,85.989585 0 0 1 85.98958,-85.989579 85.989585,85.989585 0 0 1 85.98958,85.989579 h 6.61458 a 92.604163,92.604163 0 0 0 -92.60416,-92.604162 z"
         id="circle845" />
    </g>
    <g
       transform="translate(-128.53989,50.004564)"
       id="g1153">
      <path
         style="fill:#cccccc;fill-opacity:1;stroke:#000000;stroke-width:1.63200927;stroke-linecap:round;stroke-linejoin:round;stroke-miterlimit:4;stroke-dasharray:none;stroke-dashoffset:0;stroke-opacity:1"
         d="m -398.29255,91.344811 a 25.771587,25.896694 0 0 0 -21.55064,11.734169 19.465772,19.560268 0 0 0 -12.18375,-4.327384 19.465772,19.560268 0 0 0 -19.16524,16.258444 24.013851,24.130424 0 0 0 -3.11299,-0.22893 24.013851,24.130424 0 0 0 -24.01403,24.13031 24.013851,24.130424 0 0 0 24.01403,24.13031 24.013851,24.130424 0 0 0 10.30635,-2.36161 19.465772,19.560268 0 0 0 15.94063,8.3752 19.465772,19.560268 0 0 0 13.42916,-5.41156 19.465772,19.560268 0 0 0 13.40745,5.41156 19.465772,19.560268 0 0 0 14.93914,-7.02696 19.465772,19.560268 0 0 0 14.92106,7.02696 19.465772,19.560268 0 0 0 19.46548,-19.56057 19.465772,19.560268 0 0 0 -8.17366,-15.91375 19.465772,19.560268 0 0 0 2.12596,-8.84339 19.465772,19.560268 0 0 0 -17.50487,-19.46031 25.771587,25.896694 0 0 0 -22.84408,-13.932489 z"
         id="path926" />
      <g
         id="g1019"
         transform="translate(-0.2414001,2.6600079)">
        <g
           id="g1003">
          <g
             id="g980"
             transform="translate(0,0.80180858)">
            <circle
               r="2.8731475"
               cy="126.01431"
               cx="-439.19064"
               id="path972"
               style="fill:#000000;fill-opacity:1;stroke:none;stroke-width:1.56925273;stroke-linecap:round;stroke-linejoin:round;stroke-miterlimit:4;stroke-dasharray:none;stroke-dashoffset:0;stroke-opacity:1" />
            <circle
               r="0.93544334"
               cy="124.95599"
               cx="-440.24899"
               id="path976"
               style="fill:#ffffff;fill-opacity:1;stroke:none;stroke-width:1.05833328;stroke-linecap:round;stroke-linejoin:round;stroke-miterlimit:4;stroke-dasharray:none;stroke-dashoffset:0;stroke-opacity:1" />
          </g>
          <g
             id="g986"
             transform="translate(46.237628,0.80180858)">
            <circle
               style="fill:#000000;fill-opacity:1;stroke:none;stroke-width:1.56925273;stroke-linecap:round;stroke-linejoin:round;stroke-miterlimit:4;stroke-dasharray:none;stroke-dashoffset:0;stroke-opacity:1"
               id="circle982"
               cx="-439.19064"
               cy="126.01431"
               r="2.8731475" />
            <circle
               style="fill:#ffffff;fill-opacity:1;stroke:none;stroke-width:1.05833328;stroke-linecap:round;stroke-linejoin:round;stroke-miterlimit:4;stroke-dasharray:none;stroke-dashoffset:0;stroke-opacity:1"
               id="circle984"
               cx="-440.24899"
               cy="124.95599"
               r="0.93544334" />
          </g>
        </g>
        <path
           id="path995"
           d="m -412.05444,137.0741 a 4.0183834,3.2760123 0 0 1 10e-4,0.0828 4.0183834,3.2760123 0 0 1 -4.01839,3.27602 4.0183834,3.2760123 0 0 1 -4.01839,-3.27602 v 0 a 4.0183834,3.2760123 0 0 1 10e-4,-0.0829"
           style="fill:none;fill-opacity:1;stroke:#000000;stroke-width:1.32291663;stroke-linecap:round;stroke-linejoin:round;stroke-miterlimit:4;stroke-dasharray:none;stroke-dashoffset:0;stroke-opacity:1" />
        <ellipse
           ry="2.6458335"
           rx="3.2028508"
           cy="135.79315"
           cx="-448.55328"
           id="path1005"
           style="fill:#ffff00;fill-opacity:1;stroke:none;stroke-width:1.29970753;stroke-linecap:round;stroke-linejoin:round;stroke-miterlimit:4;stroke-dasharray:none;stroke-dashoffset:0;stroke-opacity:1" />
        <ellipse
           style="fill:#ffff00;fill-opacity:1;stroke:none;stroke-width:1.29970753;stroke-linecap:round;stroke-linejoin:round;stroke-miterlimit:4;stroke-dasharray:none;stroke-dashoffset:0;stroke-opacity:1"
           id="ellipse1007"
           cx="-381.17902"
           cy="135.79315"
           rx="3.2028508"
           ry="2.6458335" />
      </g>
      <g
         id="g1063"
         transform="translate(-0.2414001,2.6600092)">
        <g
           id="g1055">
          <g
             transform="translate(0,0.80180858)"
             id="g1047">
            <path
               id="circle1043"
               d="m -436.3175,126.01431 a 2.8731475,2.8731475 0 0 1 -2.87314,2.87315 2.8731475,2.8731475 0 0 1 -2.87315,-2.87315 2.8731475,2.8731475 0 0 1 2.87315,-2.87314 2.8731475,2.8731475 0 0 1 2.87314,2.87314 z"
               style="fill:#000000;fill-opacity:1;stroke:none;stroke-width:1.56925273;stroke-linecap:round;stroke-linejoin:round;stroke-miterlimit:4;stroke-dasharray:none;stroke-dashoffset:0;stroke-opacity:1" />
            <path
               id="circle1045"
               d="m -439.31355,124.95599 a 0.93544334,0.93544334 0 0 1 -0.93544,0.93545 0.93544334,0.93544334 0 0 1 -0.93545,-0.93545 0.93544334,0.93544334 0 0 1 0.93545,-0.93544 0.93544334,0.93544334 0 0 1 0.93544,0.93544 z"
               style="fill:#ffffff;fill-opacity:1;stroke:none;stroke-width:1.05833328;stroke-linecap:round;stroke-linejoin:round;stroke-miterlimit:4;stroke-dasharray:none;stroke-dashoffset:0;stroke-opacity:1" />
          </g>
          <g
             transform="translate(46.237628,0.80180858)"
             id="g1053">
            <path
               id="circle1049"
               d="m -436.3175,126.01431 a 2.8731475,2.8731475 0 0 1 -2.87314,2.87315 2.8731475,2.8731475 0 0 1 -2.87315,-2.87315 2.8731475,2.8731475 0 0 1 2.87315,-2.87314 2.8731475,2.8731475 0 0 1 2.87314,2.87314 z"
               style="fill:#000000;fill-opacity:1;stroke:none;stroke-width:1.56925273;stroke-linecap:round;stroke-linejoin:round;stroke-miterlimit:4;stroke-dasharray:none;stroke-dashoffset:0;stroke-opacity:1" />
            <path
               id="circle1051"
               d="m -439.31355,124.95599 a 0.93544334,0.93544334 0 0 1 -0.93544,0.93545 0.93544334,0.93544334 0 0 1 -0.93545,-0.93545 0.93544334,0.93544334 0 0 1 0.93545,-0.93544 0.93544334,0.93544334 0 0 1 0.93544,0.93544 z"
               style="fill:#ffffff;fill-opacity:1;stroke:none;stroke-width:1.05833328;stroke-linecap:round;stroke-linejoin:round;stroke-miterlimit:4;stroke-dasharray:none;stroke-dashoffset:0;stroke-opacity:1" />
          </g>
        </g>
        <path
           style="fill:none;fill-opacity:1;stroke:#000000;stroke-width:1.32291663;stroke-linecap:round;stroke-linejoin:round;stroke-miterlimit:4;stroke-dasharray:none;stroke-dashoffset:0;stroke-opacity:1"
           d="m -420.08922,140.4234 a 4.0183834,3.2760123 0 0 1 -10e-4,-0.0828 4.0183834,3.2760123 0 0 1 4.01839,-3.27602 4.0183834,3.2760123 0 0 1 4.01839,3.27602 v 0 a 4.0183834,3.2760123 0 0 1 -10e-4,0.0829"
           id="path1057" />
        <ellipse
           style="fill:#ffff00;fill-opacity:1;stroke:none;stroke-width:1.29970753;stroke-linecap:round;stroke-linejoin:round;stroke-miterlimit:4;stroke-dasharray:none;stroke-dashoffset:0;stroke-opacity:1"
           id="ellipse1059"
           cx="-448.55328"
           cy="135.79315"
           rx="3.2028508"
           ry="2.6458335" />
        <ellipse
           ry="2.6458335"
           rx="3.2028508"
           cy="135.79315"
           cx="-381.17902"
           id="ellipse1061"
           style="fill:#ffff00;fill-opacity:1;stroke:none;stroke-width:1.29970753;stroke-linecap:round;stroke-linejoin:round;stroke-miterlimit:4;stroke-dasharray:none;stroke-dashoffset:0;stroke-opacity:1" />
      </g>
      <g
         transform="translate(-0.2414001,2.5513391)"
         id="g1085">
        <g
           id="g1077">
          <g
             transform="matrix(0.7854806,0,0,0.7854806,-94.999575,27.834323)"
             id="g1069"
             style="fill:none;stroke:#ff0000;stroke-width:1.34737039;stroke-miterlimit:4;stroke-dasharray:none">
            <path
               style="fill:none;fill-opacity:1;stroke:#ff0000;stroke-width:1.34737039;stroke-linecap:round;stroke-linejoin:round;stroke-miterlimit:4;stroke-dasharray:none;stroke-dashoffset:0;stroke-opacity:1"
               d="m -441.07333,125.97806 a 2.8731475,2.8731475 0 0 1 2.87289,-2.83689 2.8731475,2.8731475 0 0 1 2.87294,2.83694"
               id="circle1065" />
            <path
               id="path1111"
               d="m -382.1992,125.86708 a 2.8731475,2.8731475 0 0 1 2.87289,-2.8369 2.8731475,2.8731475 0 0 1 2.87293,2.83695"
               style="fill:none;fill-opacity:1;stroke:#ff0000;stroke-width:1.34737039;stroke-linecap:round;stroke-linejoin:round;stroke-miterlimit:4;stroke-dasharray:none;stroke-dashoffset:0;stroke-opacity:1" />
          </g>
        </g>
        <ellipse
           style="fill:#ffff00;fill-opacity:1;stroke:none;stroke-width:1.03343594;stroke-linecap:round;stroke-linejoin:round;stroke-miterlimit:4;stroke-dasharray:none;stroke-dashoffset:0;stroke-opacity:1"
           id="ellipse1081"
           cx="-448.55328"
           cy="134.8201"
           rx="3.2028508"
           ry="1.6727782" />
        <ellipse
           ry="1.6727782"
           rx="3.2028508"
           cy="134.8201"
           cx="-381.17902"
           id="ellipse1083"
           style="fill:#ffff00;fill-opacity:1;stroke:none;stroke-width:1.03343594;stroke-linecap:round;stroke-linejoin:round;stroke-miterlimit:4;stroke-dasharray:none;stroke-dashoffset:0;stroke-opacity:1" />
        <g
           id="g1118"
           transform="translate(0,-2.1166667)">
          <path
             id="path1087"
             transform="matrix(0.26458333,0,0,0.26458333,0.2414001,-1.4930057)"
             d="m -1591.1445,529.85938 a 17.6875,17.6875 0 0 0 -0.01,0.1875 17.6875,17.6875 0 0 0 17.6875,17.6875 17.6875,17.6875 0 0 0 17.6875,-17.6875 17.6875,17.6875 0 0 0 -0.01,-0.1875 z"
             style="fill:#000000;fill-opacity:1;stroke:none;stroke-width:5.93379784;stroke-linecap:round;stroke-linejoin:round;stroke-miterlimit:4;stroke-dasharray:none;stroke-dashoffset:0;stroke-opacity:1" />
          <path
             id="circle1091"
             transform="matrix(0.26458333,0,0,0.26458333,0.2414001,-1.4930057)"
             d="m -1573.4668,534.57617 a 14.394673,13.510789 0 0 0 -12.9004,7.55469 17.6875,17.6875 0 0 0 12.9004,5.60352 17.6875,17.6875 0 0 0 12.9023,-5.6211 14.394673,13.510789 0 0 0 -12.9023,-7.53711 z"
             style="fill:#ff0000;fill-opacity:1;stroke:none;stroke-width:5.93379784;stroke-linecap:round;stroke-linejoin:round;stroke-miterlimit:4;stroke-dasharray:none;stroke-dashoffset:0;stroke-opacity:1" />
        </g>
      </g>
    </g>
  </g>
</svg>
