<?xml version="1.0" encoding="UTF-8" standalone="no"?>
<!-- Created with Inkscape (http://www.inkscape.org/) -->

<svg
   xmlns:dc="http://purl.org/dc/elements/1.1/"
   xmlns:cc="http://creativecommons.org/ns#"
   xmlns:rdf="http://www.w3.org/1999/02/22-rdf-syntax-ns#"
   xmlns:svg="http://www.w3.org/2000/svg"
   xmlns="http://www.w3.org/2000/svg"
   xmlns:sodipodi="http://sodipodi.sourceforge.net/DTD/sodipodi-0.dtd"
   xmlns:inkscape="http://www.inkscape.org/namespaces/inkscape"
   width="378.41663mm"
   height="215.17584mm"
   viewBox="0 0 378.41663 215.17584"
   version="1.1"
   id="svg8"
   inkscape:version="0.92.2 5c3e80d, 2017-08-06"
   sodipodi:docname="rainbow-cloud--with-baby--inkscape.svg">
  <defs
     id="defs2" />
  <sodipodi:namedview
     id="base"
     pagecolor="#ffffff"
     bordercolor="#666666"
     borderopacity="1.0"
     inkscape:pageopacity="0.0"
     inkscape:pageshadow="2"
     inkscape:zoom="1.5634817"
     inkscape:cx="434.67549"
     inkscape:cy="380.73175"
     inkscape:document-units="mm"
     inkscape:current-layer="g2318"
     showgrid="false"
     inkscape:window-width="3440"
     inkscape:window-height="1418"
     inkscape:window-x="0"
     inkscape:window-y="516"
     inkscape:window-maximized="1"
     fit-margin-top="15"
     fit-margin-left="15"
     fit-margin-right="15"
     fit-margin-bottom="15" />
  <metadata
     id="metadata5">
    <rdf:RDF>
      <cc:Work
         rdf:about="">
        <dc:format>image/svg+xml</dc:format>
        <dc:type
           rdf:resource="http://purl.org/dc/dcmitype/StillImage" />
        <dc:title></dc:title>
      </cc:Work>
    </rdf:RDF>
  </metadata>
  <g
     inkscape:label="Layer 1"
     inkscape:groupmode="layer"
     id="layer1"
     transform="translate(622.67509,-19.70004)"
     style="display:inline">
    <g
       id="g924"
       transform="translate(-164.84207,37.98969)">
      <path
         id="path841"
         d="M -269.50046,18.856837 A 132.29141,132.29167 0 0 0 -401.79266,151.1485 h 13.2297 A 119.06226,119.0625 0 0 1 -269.50046,32.086004 119.06226,119.0625 0 0 1 -150.43849,151.1485 h 13.22916 A 132.29141,132.29167 0 0 0 -269.50046,18.856837 Z"
         style="fill:#ff2a2a;fill-opacity:1;stroke:#000000;stroke-width:1.32291663;stroke-linecap:round;stroke-linejoin:round;stroke-miterlimit:4;stroke-dasharray:none;stroke-dashoffset:0;stroke-opacity:1"
         inkscape:connector-curvature="0" />
      <path
         id="circle853"
         d="M -269.50046,25.47142 A 125.67709,125.67709 0 0 0 -395.17754,151.1485 h 13.22916 A 112.4479,112.4479 0 0 1 -269.50046,38.700587 112.4479,112.4479 0 0 1 -157.05255,151.1485 h 13.22917 A 125.67709,125.67709 0 0 0 -269.50046,25.47142 Z"
         style="fill:#ffd42a;fill-opacity:1;stroke:#000000;stroke-width:1.32291663;stroke-linecap:round;stroke-linejoin:round;stroke-miterlimit:4;stroke-dasharray:none;stroke-dashoffset:0;stroke-opacity:1"
         inkscape:connector-curvature="0" />
      <path
         id="circle843"
         d="M -269.50046,32.086004 A 119.0625,119.0625 0 0 0 -388.56296,151.1485 h 13.22917 A 105.83334,105.83334 0 0 1 -269.50046,45.314653 105.83334,105.83334 0 0 1 -163.66713,151.1485 h 13.22917 A 119.0625,119.0625 0 0 0 -269.50046,32.086004 Z"
         style="fill:#ff6600;fill-opacity:1;stroke:#000000;stroke-width:1.32291663;stroke-linecap:round;stroke-linejoin:round;stroke-miterlimit:4;stroke-dasharray:none;stroke-dashoffset:0;stroke-opacity:1"
         inkscape:connector-curvature="0" />
      <path
         id="circle847"
         d="M -269.50046,38.700587 A 112.4479,112.4479 0 0 0 -381.94838,151.1485 h 13.22917 a 99.218749,99.218749 0 0 1 99.21875,-99.218747 99.218749,99.218749 0 0 1 99.21875,99.218747 h 13.22916 A 112.4479,112.4479 0 0 0 -269.50046,38.700587 Z"
         style="fill:#66ff00;fill-opacity:1;stroke:#000000;stroke-width:1.32291663;stroke-linecap:round;stroke-linejoin:round;stroke-miterlimit:4;stroke-dasharray:none;stroke-dashoffset:0;stroke-opacity:1"
         inkscape:connector-curvature="0" />
      <path
         id="circle849"
         d="M -269.50046,45.31517 A 105.83334,105.83334 0 0 0 -375.33379,151.1485 h 13.22916 a 92.604163,92.604163 0 0 1 92.60417,-92.604162 92.604163,92.604163 0 0 1 92.60416,92.604162 h 13.22917 A 105.83334,105.83334 0 0 0 -269.50046,45.31517 Z"
         style="fill:#00aad4;fill-opacity:1;stroke:#000000;stroke-width:1.32291663;stroke-linecap:round;stroke-linejoin:round;stroke-miterlimit:4;stroke-dasharray:none;stroke-dashoffset:0;stroke-opacity:1"
         inkscape:connector-curvature="0" />
      <path
         id="circle851"
         d="m -269.50046,51.929753 a 99.218749,99.218749 0 0 0 -99.21875,99.218747 h 13.22917 a 85.989585,85.989585 0 0 1 85.98958,-85.989579 85.989585,85.989585 0 0 1 85.98958,85.989579 h 13.22917 a 99.218749,99.218749 0 0 0 -99.21875,-99.218747 z"
         style="fill:#800080;fill-opacity:1;stroke:#000000;stroke-width:1.32291663;stroke-linecap:round;stroke-linejoin:round;stroke-miterlimit:4;stroke-dasharray:none;stroke-dashoffset:0;stroke-opacity:1"
         inkscape:connector-curvature="0" />
      <path
         id="circle845"
         d="m -269.50046,58.544338 a 92.604163,92.604163 0 0 0 -92.60417,92.604162 h 6.61459 a 85.989585,85.989585 0 0 1 85.98958,-85.989579 85.989585,85.989585 0 0 1 85.98958,85.989579 h 6.61458 a 92.604163,92.604163 0 0 0 -92.60416,-92.604162 z"
         style="fill:#ff00ff;fill-opacity:1;stroke:#000000;stroke-width:1.32291663;stroke-linecap:round;stroke-linejoin:round;stroke-miterlimit:4;stroke-dasharray:none;stroke-dashoffset:0;stroke-opacity:1"
         inkscape:connector-curvature="0" />
    </g>
    <g
       id="g1153"
       transform="translate(-128.53989,50.004564)">
      <g
         id="g1520"
         transform="translate(107.02644,-62.543592)" />
      <g
         style="display:inline"
         transform="translate(118.15627,-34.911226)"
         id="g1497">
        <g
           id="g1506"
           transform="translate(-20.307241,-1.8614971)" />
      </g>
      <g
         id="g2426">
        <g
           transform="translate(99.181821,-58.386283)"
           id="g2083">
          <path
             transform="translate(-99.181823,58.386282)"
             inkscape:connector-curvature="0"
             id="path1403"
             d="m -419.08456,101.93926 a 15.73811,15.73811 0 0 0 -15.02596,11.06237 15.73811,15.73811 0 0 0 -11.53779,15.0735 15.73811,15.73811 0 0 0 -9.98906,14.64768 15.73811,15.73811 0 0 0 15.73806,15.73806 15.73811,15.73811 0 0 0 12.60595,-6.34741 15.73811,15.73811 0 0 0 12.60853,6.34741 15.73811,15.73811 0 0 0 8.21345,-2.32854 15.73811,15.73811 0 0 0 8.20157,2.32854 15.73811,15.73811 0 0 0 15.25798,-11.96051 15.73811,15.73811 0 0 0 8.43411,-13.93093 15.73811,15.73811 0 0 0 -15.73806,-15.73806 15.73811,15.73811 0 0 0 -2.61276,0.22118 15.73811,15.73811 0 0 0 -11.50834,-5.12424 15.73811,15.73811 0 0 0 -14.64768,-9.98905 z"
             style="display:inline;fill:#ffffff;fill-opacity:0.913242;stroke:#000000;stroke-width:1.58749998;stroke-linecap:round;stroke-linejoin:round;stroke-miterlimit:4;stroke-dasharray:none;stroke-dashoffset:0;stroke-opacity:1" />
          <g
             transform="translate(-96.010099,56.442809)"
             id="g2038"
             style="display:inline">
            <g
               transform="translate(-0.52564841,6.3500003)"
               id="g2030">
              <g
                 style="fill:none;stroke:#ff0000;stroke-width:1.34737039;stroke-miterlimit:4;stroke-dasharray:none"
                 id="g2028"
                 transform="matrix(0.7854806,0,0,0.7854806,-94.999575,27.834323)">
                <path
                   inkscape:connector-curvature="0"
                   id="path2024"
                   d="m -430.29429,130.0202 a 2.8731475,2.8731475 0 0 1 2.87289,-2.83689 2.8731475,2.8731475 0 0 1 2.87294,2.83694"
                   style="fill:none;fill-opacity:1;stroke:#ff0000;stroke-width:1.34737039;stroke-linecap:round;stroke-linejoin:round;stroke-miterlimit:4;stroke-dasharray:none;stroke-dashoffset:0;stroke-opacity:1" />
                <path
                   inkscape:connector-curvature="0"
                   style="fill:none;fill-opacity:1;stroke:#ff0000;stroke-width:1.34737039;stroke-linecap:round;stroke-linejoin:round;stroke-miterlimit:4;stroke-dasharray:none;stroke-dashoffset:0;stroke-opacity:1"
                   d="m -391.63086,130.58291 a 2.8731475,2.8731475 0 0 1 2.87289,-2.8369 2.8731475,2.8731475 0 0 1 2.87293,2.83695"
                   id="path2026" />
              </g>
            </g>
            <g
               transform="translate(0,-2.1166667)"
               id="g2036">
              <path
                 style="fill:#000000;fill-opacity:1;stroke:none;stroke-width:5.93379784;stroke-linecap:round;stroke-linejoin:round;stroke-miterlimit:4;stroke-dasharray:none;stroke-dashoffset:0;stroke-opacity:1"
                 d="m -1591.1445,529.85938 a 17.6875,17.6875 0 0 0 -0.01,0.1875 17.6875,17.6875 0 0 0 17.6875,17.6875 17.6875,17.6875 0 0 0 17.6875,-17.6875 17.6875,17.6875 0 0 0 -0.01,-0.1875 z"
                 transform="matrix(0.26458333,0,0,0.26458333,0.2414001,-1.4930057)"
                 id="path2032"
                 inkscape:connector-curvature="0" />
              <path
                 style="fill:#ff0000;fill-opacity:1;stroke:none;stroke-width:5.93379784;stroke-linecap:round;stroke-linejoin:round;stroke-miterlimit:4;stroke-dasharray:none;stroke-dashoffset:0;stroke-opacity:1"
                 d="m -1573.4668,534.57617 a 14.394673,13.510789 0 0 0 -12.9004,7.55469 17.6875,17.6875 0 0 0 12.9004,5.60352 17.6875,17.6875 0 0 0 12.9023,-5.6211 14.394673,13.510789 0 0 0 -12.9023,-7.53711 z"
                 transform="matrix(0.26458333,0,0,0.26458333,0.2414001,-1.4930057)"
                 id="path2034"
                 inkscape:connector-curvature="0" />
            </g>
          </g>
        </g>
        <g
           id="g2401">
          <g
             style="display:inline"
             id="g2058"
             transform="translate(4.5045031,-1.72614)">
            <g
               id="g2046"
               transform="translate(1.2499999e-6,9.2684758)"
               style="display:inline">
              <g
                 transform="translate(6.5193985)"
                 id="g2044">
                <path
                   inkscape:connector-curvature="0"
                   id="path2040"
                   d="m -436.3175,126.01431 a 2.8731475,2.8731475 0 0 1 -2.87314,2.87315 2.8731475,2.8731475 0 0 1 -2.87315,-2.87315 2.8731475,2.8731475 0 0 1 2.87315,-2.87314 2.8731475,2.8731475 0 0 1 2.87314,2.87314 z"
                   style="fill:#000000;fill-opacity:1;stroke:none;stroke-width:1.56925273;stroke-linecap:round;stroke-linejoin:round;stroke-miterlimit:4;stroke-dasharray:none;stroke-dashoffset:0;stroke-opacity:1" />
                <path
                   inkscape:connector-curvature="0"
                   id="path2042"
                   d="m -439.31355,124.95599 a 0.93544334,0.93544334 0 0 1 -0.93544,0.93545 0.93544334,0.93544334 0 0 1 -0.93545,-0.93545 0.93544334,0.93544334 0 0 1 0.93545,-0.93544 0.93544334,0.93544334 0 0 1 0.93544,0.93544 z"
                   style="fill:#ffffff;fill-opacity:1;stroke:none;stroke-width:1.05833328;stroke-linecap:round;stroke-linejoin:round;stroke-miterlimit:4;stroke-dasharray:none;stroke-dashoffset:0;stroke-opacity:1" />
              </g>
            </g>
            <g
               id="g2052"
               transform="translate(36.714352,3.9768088)"
               style="display:inline">
              <path
                 style="fill:#000000;fill-opacity:1;stroke:none;stroke-width:1.56925273;stroke-linecap:round;stroke-linejoin:round;stroke-miterlimit:4;stroke-dasharray:none;stroke-dashoffset:0;stroke-opacity:1"
                 d="m -436.3175,131.30601 a 2.8731475,2.8731475 0 0 1 -2.87314,2.87315 2.8731475,2.8731475 0 0 1 -2.87315,-2.87315 2.8731475,2.8731475 0 0 1 2.87315,-2.87314 2.8731475,2.8731475 0 0 1 2.87314,2.87314 z"
                 id="path2048"
                 inkscape:connector-curvature="0" />
              <path
                 style="fill:#ffffff;fill-opacity:1;stroke:none;stroke-width:1.05833328;stroke-linecap:round;stroke-linejoin:round;stroke-miterlimit:4;stroke-dasharray:none;stroke-dashoffset:0;stroke-opacity:1"
                 d="m -439.31355,130.24769 a 0.93544334,0.93544334 0 0 1 -0.93544,0.93545 0.93544334,0.93544334 0 0 1 -0.93545,-0.93545 0.93544334,0.93544334 0 0 1 0.93545,-0.93544 0.93544334,0.93544334 0 0 1 0.93544,0.93544 z"
                 id="path2050"
                 inkscape:connector-curvature="0" />
            </g>
            <path
               inkscape:connector-curvature="0"
               id="path2054"
               d="m -421.59117,140.4234 a 4.0183834,3.2760123 0 0 1 -0.001,-0.0828 4.0183834,3.2760123 0 0 1 4.01839,-3.27602 4.0183834,3.2760123 0 0 1 4.01839,3.27602 v 0 a 4.0183834,3.2760123 0 0 1 -0.001,0.0829"
               style="fill:none;fill-opacity:1;stroke:#000000;stroke-width:1.32291663;stroke-linecap:round;stroke-linejoin:round;stroke-miterlimit:4;stroke-dasharray:none;stroke-dashoffset:0;stroke-opacity:1" />
            <path
               style="fill:none;fill-opacity:1;stroke:#000000;stroke-width:1.32291663;stroke-linecap:round;stroke-linejoin:round;stroke-miterlimit:4;stroke-dasharray:none;stroke-dashoffset:0;stroke-opacity:1"
               d="m -413.55639,137.0741 a 4.0183834,3.2760123 0 0 1 0.001,0.0828 4.0183834,3.2760123 0 0 1 -4.01839,3.27602 4.0183834,3.2760123 0 0 1 -4.01839,-3.27602 v 0 a 4.0183834,3.2760123 0 0 1 0.001,-0.0829"
               id="path2056"
               inkscape:connector-curvature="0" />
          </g>
          <circle
             r="2.7076321"
             cy="136.66061"
             cx="-439.03925"
             id="path2242"
             style="fill:#ffaaaa;fill-opacity:0.50228307;stroke:none;stroke-width:1.58749998;stroke-linecap:round;stroke-linejoin:round;stroke-miterlimit:4;stroke-dasharray:none;stroke-dashoffset:0;stroke-opacity:1" />
          <circle
             style="fill:#ffaaaa;fill-opacity:0.50228307;stroke:none;stroke-width:1.58749998;stroke-linecap:round;stroke-linejoin:round;stroke-miterlimit:4;stroke-dasharray:none;stroke-dashoffset:0;stroke-opacity:1"
             id="circle2244"
             cx="-387.09924"
             cy="136.66061"
             r="2.7076321" />
        </g>
      </g>
      <g
         transform="translate(0,-2.1166667)"
         id="g2318">
        <g
           transform="translate(1.3e-5,2.1166667)"
           id="g2290">
          <g
             transform="translate(4.5045031,-38.786855)"
             id="g2022"
             style="display:inline">
            <g
               style="display:inline"
               id="g1994"
               transform="translate(-1.3327941,36.843381)">
              <g
                 id="g1485"
                 transform="translate(-0.52564841,6.3500003)">
                <g
                   transform="matrix(0.7854806,0,0,0.7854806,-94.999575,27.834323)"
                   id="g1483"
                   style="fill:none;stroke:#ff0000;stroke-width:1.34737039;stroke-miterlimit:4;stroke-dasharray:none">
                  <path
                     style="fill:none;fill-opacity:1;stroke:#ff0000;stroke-width:1.34737039;stroke-linecap:round;stroke-linejoin:round;stroke-miterlimit:4;stroke-dasharray:none;stroke-dashoffset:0;stroke-opacity:1"
                     d="m -430.29429,130.0202 a 2.8731475,2.8731475 0 0 1 2.87289,-2.83689 2.8731475,2.8731475 0 0 1 2.87294,2.83694"
                     id="path1479"
                     inkscape:connector-curvature="0" />
                  <path
                     id="path1481"
                     d="m -391.63086,130.58291 a 2.8731475,2.8731475 0 0 1 2.87289,-2.8369 2.8731475,2.8731475 0 0 1 2.87293,2.83695"
                     style="fill:none;fill-opacity:1;stroke:#ff0000;stroke-width:1.34737039;stroke-linecap:round;stroke-linejoin:round;stroke-miterlimit:4;stroke-dasharray:none;stroke-dashoffset:0;stroke-opacity:1"
                     inkscape:connector-curvature="0" />
                </g>
              </g>
              <g
                 id="g1495"
                 transform="translate(0,-2.1166667)">
                <path
                   inkscape:connector-curvature="0"
                   id="path1491"
                   transform="matrix(0.26458333,0,0,0.26458333,0.2414001,-1.4930057)"
                   d="m -1591.1445,529.85938 a 17.6875,17.6875 0 0 0 -0.01,0.1875 17.6875,17.6875 0 0 0 17.6875,17.6875 17.6875,17.6875 0 0 0 17.6875,-17.6875 17.6875,17.6875 0 0 0 -0.01,-0.1875 z"
                   style="fill:#000000;fill-opacity:1;stroke:none;stroke-width:5.93379784;stroke-linecap:round;stroke-linejoin:round;stroke-miterlimit:4;stroke-dasharray:none;stroke-dashoffset:0;stroke-opacity:1" />
                <path
                   inkscape:connector-curvature="0"
                   id="path1493"
                   transform="matrix(0.26458333,0,0,0.26458333,0.2414001,-1.4930057)"
                   d="m -1573.4668,534.57617 a 14.394673,13.510789 0 0 0 -12.9004,7.55469 17.6875,17.6875 0 0 0 12.9004,5.60352 17.6875,17.6875 0 0 0 12.9023,-5.6211 14.394673,13.510789 0 0 0 -12.9023,-7.53711 z"
                   style="fill:#ff0000;fill-opacity:1;stroke:none;stroke-width:5.93379784;stroke-linecap:round;stroke-linejoin:round;stroke-miterlimit:4;stroke-dasharray:none;stroke-dashoffset:0;stroke-opacity:1" />
              </g>
            </g>
            <g
               id="g1700"
               transform="translate(0,37.060716)">
              <g
                 id="g1512"
                 transform="translate(1.2499999e-6,9.2684758)"
                 style="display:inline">
                <g
                   transform="translate(6.5193985)"
                   id="g1532">
                  <path
                     inkscape:connector-curvature="0"
                     id="path1508"
                     d="m -436.3175,126.01431 a 2.8731475,2.8731475 0 0 1 -2.87314,2.87315 2.8731475,2.8731475 0 0 1 -2.87315,-2.87315 2.8731475,2.8731475 0 0 1 2.87315,-2.87314 2.8731475,2.8731475 0 0 1 2.87314,2.87314 z"
                     style="fill:#000000;fill-opacity:1;stroke:none;stroke-width:1.56925273;stroke-linecap:round;stroke-linejoin:round;stroke-miterlimit:4;stroke-dasharray:none;stroke-dashoffset:0;stroke-opacity:1" />
                  <path
                     inkscape:connector-curvature="0"
                     id="path1510"
                     d="m -439.31355,124.95599 a 0.93544334,0.93544334 0 0 1 -0.93544,0.93545 0.93544334,0.93544334 0 0 1 -0.93545,-0.93545 0.93544334,0.93544334 0 0 1 0.93545,-0.93544 0.93544334,0.93544334 0 0 1 0.93544,0.93544 z"
                     style="fill:#ffffff;fill-opacity:1;stroke:none;stroke-width:1.05833328;stroke-linecap:round;stroke-linejoin:round;stroke-miterlimit:4;stroke-dasharray:none;stroke-dashoffset:0;stroke-opacity:1" />
                </g>
              </g>
              <g
                 id="g1518"
                 transform="translate(36.714352,3.9768088)"
                 style="display:inline">
                <path
                   style="fill:#000000;fill-opacity:1;stroke:none;stroke-width:1.56925273;stroke-linecap:round;stroke-linejoin:round;stroke-miterlimit:4;stroke-dasharray:none;stroke-dashoffset:0;stroke-opacity:1"
                   d="m -436.3175,131.30601 a 2.8731475,2.8731475 0 0 1 -2.87314,2.87315 2.8731475,2.8731475 0 0 1 -2.87315,-2.87315 2.8731475,2.8731475 0 0 1 2.87315,-2.87314 2.8731475,2.8731475 0 0 1 2.87314,2.87314 z"
                   id="path1514"
                   inkscape:connector-curvature="0" />
                <path
                   style="fill:#ffffff;fill-opacity:1;stroke:none;stroke-width:1.05833328;stroke-linecap:round;stroke-linejoin:round;stroke-miterlimit:4;stroke-dasharray:none;stroke-dashoffset:0;stroke-opacity:1"
                   d="m -439.31355,130.24769 a 0.93544334,0.93544334 0 0 1 -0.93544,0.93545 0.93544334,0.93544334 0 0 1 -0.93545,-0.93545 0.93544334,0.93544334 0 0 1 0.93545,-0.93544 0.93544334,0.93544334 0 0 1 0.93544,0.93544 z"
                   id="path1516"
                   inkscape:connector-curvature="0" />
              </g>
              <path
                 inkscape:connector-curvature="0"
                 id="path1522"
                 d="m -421.59117,140.4234 a 4.0183834,3.2760123 0 0 1 -0.001,-0.0828 4.0183834,3.2760123 0 0 1 4.01839,-3.27602 4.0183834,3.2760123 0 0 1 4.01839,3.27602 v 0 a 4.0183834,3.2760123 0 0 1 -0.001,0.0829"
                 style="fill:none;fill-opacity:1;stroke:#000000;stroke-width:1.32291663;stroke-linecap:round;stroke-linejoin:round;stroke-miterlimit:4;stroke-dasharray:none;stroke-dashoffset:0;stroke-opacity:1" />
              <path
                 style="fill:none;fill-opacity:1;stroke:#000000;stroke-width:1.32291663;stroke-linecap:round;stroke-linejoin:round;stroke-miterlimit:4;stroke-dasharray:none;stroke-dashoffset:0;stroke-opacity:1"
                 d="m -413.55639,137.0741 a 4.0183834,3.2760123 0 0 1 0.001,0.0828 4.0183834,3.2760123 0 0 1 -4.01839,3.27602 4.0183834,3.2760123 0 0 1 -4.01839,-3.27602 v 0 a 4.0183834,3.2760123 0 0 1 0.001,-0.0829"
                 id="path1553"
                 inkscape:connector-curvature="0" />
            </g>
          </g>
          <circle
             r="2.7076321"
             cy="136.66061"
             cx="-439.03925"
             id="circle2246"
             style="fill:#ffaaaa;fill-opacity:0.50228307;stroke:none;stroke-width:1.58749998;stroke-linecap:round;stroke-linejoin:round;stroke-miterlimit:4;stroke-dasharray:none;stroke-dashoffset:0;stroke-opacity:1" />
          <circle
             style="fill:#ffaaaa;fill-opacity:0.50228307;stroke:none;stroke-width:1.58749998;stroke-linecap:round;stroke-linejoin:round;stroke-miterlimit:4;stroke-dasharray:none;stroke-dashoffset:0;stroke-opacity:1"
             id="circle2248"
             cx="-386.93002"
             cy="136.66061"
             r="2.7076321" />
        </g>
        <g
           transform="translate(0.758628,0.9769457)"
           id="g2240">
          <g
             style="fill:#808080;fill-opacity:0.50228307"
             id="g1962">
            <g
               style="fill:#808080;fill-opacity:0.50228307"
               id="g1333">
              <path
                 inkscape:connector-curvature="0"
                 id="path926"
                 d="m -398.29255,91.344811 a 25.771587,25.896694 0 0 0 -21.55064,11.734169 19.465772,19.560268 0 0 0 -12.18375,-4.327384 19.465772,19.560268 0 0 0 -19.16524,16.258444 24.013851,24.130424 0 0 0 -3.11299,-0.22893 24.013851,24.130424 0 0 0 -24.01403,24.13031 24.013851,24.130424 0 0 0 24.01403,24.13031 24.013851,24.130424 0 0 0 10.30635,-2.36161 19.465772,19.560268 0 0 0 15.94063,8.3752 19.465772,19.560268 0 0 0 13.42916,-5.41156 19.465772,19.560268 0 0 0 13.40745,5.41156 19.465772,19.560268 0 0 0 14.93914,-7.02696 19.465772,19.560268 0 0 0 14.92106,7.02696 19.465772,19.560268 0 0 0 19.46548,-19.56057 19.465772,19.560268 0 0 0 -8.17366,-15.91375 19.465772,19.560268 0 0 0 2.12596,-8.84339 19.465772,19.560268 0 0 0 -17.50487,-19.46031 25.771587,25.896694 0 0 0 -22.84408,-13.932489 z"
                 style="fill:#808080;fill-opacity:0.50228307;stroke:#000000;stroke-width:1.58749998;stroke-linecap:round;stroke-linejoin:round;stroke-miterlimit:4;stroke-dasharray:none;stroke-dashoffset:0;stroke-opacity:1" />
            </g>
          </g>
        </g>
      </g>
    </g>
  </g>
</svg>
