<?xml version="1.0" encoding="UTF-8" standalone="no"?>
<svg
   xmlns:dc="http://purl.org/dc/elements/1.1/"
   xmlns:cc="http://creativecommons.org/ns#"
   xmlns:rdf="http://www.w3.org/1999/02/22-rdf-syntax-ns#"
   xmlns:svg="http://www.w3.org/2000/svg"
   xmlns="http://www.w3.org/2000/svg"
   id="svg8"
   version="1.1"
   viewBox="0 0 77.048897 76.311661"
   height="76.311661mm"
   width="77.048897mm">
  <defs
     id="defs2" />
  <metadata
     id="metadata5">
    <rdf:RDF>
      <cc:Work
         rdf:about="">
        <dc:format>image/svg+xml</dc:format>
        <dc:type
           rdf:resource="http://purl.org/dc/dcmitype/StillImage" />
        <dc:title></dc:title>
      </cc:Work>
    </rdf:RDF>
  </metadata>
  <g
     transform="translate(-44.02418,-169.45134)"
     id="g1502"
     style="display:inline">
    <path
       style="fill:#225500;fill-opacity:1;fill-rule:nonzero;stroke:none;stroke-width:3.08110309;stroke-linecap:round;stroke-linejoin:round;stroke-miterlimit:4;stroke-dasharray:none;stroke-dashoffset:0;stroke-opacity:1"
       d="m 70.163379,186.76421 -0.529167,5.64358 c -0.234101,2.49669 2.018697,4.52634 4.526339,4.52634 h 16.696654 c 2.507641,0 4.526338,-2.0187 4.526338,-4.52634 l -0.529167,-5.64358 z"
       id="path1440" />
    <rect
       style="fill:#008000;fill-opacity:1;fill-rule:nonzero;stroke:none;stroke-width:2.95878124;stroke-linecap:round;stroke-linejoin:round;stroke-miterlimit:4;stroke-dasharray:none;stroke-dashoffset:0;stroke-opacity:1"
       id="rect1442"
       width="24.726957"
       height="19.654762"
       x="70.145302"
       y="175.4084"
       ry="4.3467264" />
    <path
       style="fill:#ffffff;fill-opacity:1;fill-rule:nonzero;stroke:none;stroke-width:2.64583325;stroke-linecap:round;stroke-linejoin:round;stroke-miterlimit:4;stroke-dasharray:none;stroke-dashoffset:0;stroke-opacity:1"
       d="m 75.909435,188.52419 12.945682,1.5119 v 2.45685 H 75.909435 Z"
       id="path1454" />
    <path
       id="path1466"
       d="m 70.145302,175.4084 h 24.726957 v 5.38616 l -1.545435,-1.5875 -1.545435,1.5875 -1.545434,-1.5875 -1.545435,1.5875 -1.545435,-1.5875 -1.545435,1.5875 -1.545435,-1.5875 -1.545435,1.5875 -1.545434,-1.5875 -1.545435,1.5875 -1.545435,-1.5875 -1.545435,1.5875 -1.545435,-1.5875 -1.545435,1.5875 -1.545435,-1.5875 -1.545434,1.5875 z"
       style="fill:#000000;fill-opacity:1;fill-rule:nonzero;stroke:none;stroke-width:2.59992599;stroke-linecap:round;stroke-linejoin:round;stroke-miterlimit:4;stroke-dasharray:none;stroke-dashoffset:0;stroke-opacity:1" />
    <g
       id="g1472"
       transform="rotate(-3.2735132,-919.98268,-909.73771)">
      <rect
         ry="2.4388344"
         y="243.74654"
         x="15.234363"
         height="4.8776689"
         width="5.4790254"
         id="rect1468"
         style="fill:#000000;fill-opacity:1;fill-rule:nonzero;stroke:none;stroke-width:1.32291663;stroke-linecap:round;stroke-linejoin:round;stroke-miterlimit:4;stroke-dasharray:none;stroke-dashoffset:0;stroke-opacity:1" />
      <path
         id="path1470"
         transform="scale(0.26458333)"
         d="m 66.796875,921.24609 c -3.703762,0 -6.876072,2.16815 -8.34375,5.30469 h 18.958984 c -1.467678,-3.13654 -4.639988,-5.30469 -8.34375,-5.30469 z"
         style="fill:#ffffff;fill-opacity:1;fill-rule:nonzero;stroke:none;stroke-width:5;stroke-linecap:round;stroke-linejoin:round;stroke-miterlimit:4;stroke-dasharray:none;stroke-dashoffset:0;stroke-opacity:1" />
    </g>
    <rect
       style="fill:#008000;fill-opacity:1;fill-rule:nonzero;stroke:#225500;stroke-width:1.32291663;stroke-linecap:round;stroke-linejoin:round;stroke-miterlimit:4;stroke-dasharray:none;stroke-dashoffset:0;stroke-opacity:1"
       id="rect1412"
       width="7.9939871"
       height="12.628129"
       x="72.511284"
       y="226.12866" />
    <rect
       y="226.12866"
       x="84.877731"
       height="12.628129"
       width="7.9939871"
       id="rect1414"
       style="fill:#008000;fill-opacity:1;fill-rule:nonzero;stroke:#225500;stroke-width:1.32291663;stroke-linecap:round;stroke-linejoin:round;stroke-miterlimit:4;stroke-dasharray:none;stroke-dashoffset:0;stroke-opacity:1" />
    <path
       style="fill:#008000;fill-opacity:1;fill-rule:nonzero;stroke:#225500;stroke-width:1.16310418;stroke-linecap:round;stroke-linejoin:round;stroke-miterlimit:4;stroke-dasharray:none;stroke-dashoffset:0;stroke-opacity:1"
       d="m 75.968333,187.01231 c -4.028763,0 -8.296974,1.71486 -11.595674,4.23953 a 8.2185371,8.2185371 0 0 0 -3.25355,-0.67438 8.2185371,8.2185371 0 0 0 -8.218619,8.21811 8.2185371,8.2185371 0 0 0 8.218619,8.21862 8.2185371,8.2185371 0 0 0 0.879533,-0.0568 c 17.092015,17.65062 3.771533,17.65371 13.969691,17.65371 h 13.182658 c 10.247556,0 -3.256386,-5.3e-4 15.616109,-17.65422 a 8.2185371,8.2185371 0 0 0 7.3334,-8.16126 8.2185371,8.2185371 0 0 0 -8.21862,-8.21811 8.2185371,8.2185371 0 0 0 -3.23133,0.6718 c -3.437687,-2.504 -7.652846,-4.23695 -11.499559,-4.23695 z"
       id="path1438" />
    <path
       style="display:inline;fill:#800080;fill-opacity:1;fill-rule:nonzero;stroke:#2b0000;stroke-width:1.32291663;stroke-linecap:round;stroke-linejoin:round;stroke-miterlimit:4;stroke-dasharray:none;stroke-dashoffset:0;stroke-opacity:1"
       d="m 72.142915,224.1321 c -0.08925,0 -0.160799,0.0521 -0.160799,0.11654 v 5.03329 c 0,0.009 0.0042,0.0166 0.0067,0.0248 v 3.24676 c 0,0.0561 0.06233,0.10113 0.139982,0.10113 l 1.205073,-1.05833 1.205074,1.05833 1.205074,-1.05833 1.205073,1.05833 1.205073,-1.05833 1.205074,1.05833 1.205073,-1.05833 1.205074,1.05833 c 0.05834,0.0512 0.140502,-0.045 0.140502,-0.10113 v -3.15502 h 1.563227 v 3.15502 c 0,0.0561 0.06286,0.10113 0.140502,0.10113 l 1.205073,-1.05833 1.205073,1.05833 1.205073,-1.05833 1.205073,1.05833 1.205074,-1.05833 1.205073,1.05833 1.205073,-1.05833 1.205073,1.05833 c 0.05834,0.0512 0.139985,-0.045 0.139985,-0.10113 v -3.24676 c 0.0025,-0.008 0.0067,-0.016 0.0067,-0.0248 v -5.03329 c 0,-0.0645 -0.07155,-0.11654 -0.1608,-0.11654 z"
       id="path1498" />
    <g
       transform="matrix(1,0,0,-1,0,396.47155)"
       id="g1642"
       style="display:inline">
      <g
         transform="translate(0.52916667)"
         id="g1632">
        <path
           id="path1626"
           transform="scale(0.26458333)"
           d="m 235.57812,734.83203 c 0.52723,-2.30619 0.79776,-4.66363 0.80665,-7.0293 -0.0205,-17.16946 -13.55524,-31.27924 -30.70899,-32.01367 l -2.5293,-3.30273 c -0.33843,-0.44187 -0.96633,-0.52399 -1.4082,-0.18555 l -0.85742,0.65625 v -21.83398 c 0,-0.55659 -0.44732,-1.00391 -1.00391,-1.00391 h -30.82031 c -0.55659,0 -1.00586,0.44732 -1.00586,1.00391 v 45.97461 c 0,0.3619 0.2008,0.66303 0.48633,0.83984 -0.11892,0.31386 -0.0949,0.67379 0.125,0.96094 l 3.82617,4.99609 c -0.16807,1.29611 -0.25677,2.60127 -0.26562,3.9082 0.0197,15.95419 11.76009,29.46961 27.55468,31.72071"
           style="fill:#008000;fill-opacity:1;fill-rule:nonzero;stroke:#225500;stroke-width:5;stroke-linecap:round;stroke-linejoin:round;stroke-miterlimit:4;stroke-dasharray:none;stroke-dashoffset:0;stroke-opacity:1" />
        <path
           id="path1628"
           d="m 44.429971,180.04394 c -0.168901,0 -0.304876,-0.13597 -0.304876,-0.30487 v -9.35277 c 0,-0.1689 0.135975,-0.30488 0.304876,-0.30488 h 9.116816 c 0.168901,0 0.304876,0.13598 0.304876,0.30488 v 9.35277 c 0,0.1689 -0.135975,0.30487 -0.304876,0.30487"
           style="fill:#008000;fill-opacity:1;fill-rule:nonzero;stroke:#225500;stroke-width:1.26016331;stroke-linecap:round;stroke-linejoin:round;stroke-miterlimit:4;stroke-dasharray:none;stroke-dashoffset:0;stroke-opacity:1" />
        <path
           id="path1630"
           d="m 51.04848,179.93594 -3.073601,-6.14719 1.870887,0.26726 v 1.20272"
           style="fill:#008000;stroke:#225500;stroke-width:1.32291663;stroke-linecap:round;stroke-linejoin:round;stroke-miterlimit:4;stroke-dasharray:none;stroke-opacity:1" />
      </g>
      <g
         transform="matrix(-1,0,0,1,164.56809,0)"
         id="g1640">
        <path
           style="fill:#008000;fill-opacity:1;fill-rule:nonzero;stroke:#225500;stroke-width:5;stroke-linecap:round;stroke-linejoin:round;stroke-miterlimit:4;stroke-dasharray:none;stroke-dashoffset:0;stroke-opacity:1"
           d="m 235.57812,734.83203 c 0.52723,-2.30619 0.79776,-4.66363 0.80665,-7.0293 -0.0205,-17.16946 -13.55524,-31.27924 -30.70899,-32.01367 l -2.5293,-3.30273 c -0.33843,-0.44187 -0.96633,-0.52399 -1.4082,-0.18555 l -0.85742,0.65625 v -21.83398 c 0,-0.55659 -0.44732,-1.00391 -1.00391,-1.00391 h -30.82031 c -0.55659,0 -1.00586,0.44732 -1.00586,1.00391 v 45.97461 c 0,0.3619 0.2008,0.66303 0.48633,0.83984 -0.11892,0.31386 -0.0949,0.67379 0.125,0.96094 l 3.82617,4.99609 c -0.16807,1.29611 -0.25677,2.60127 -0.26562,3.9082 0.0197,15.95419 11.76009,29.46961 27.55468,31.72071"
           transform="scale(0.26458333)"
           id="path1634" />
        <path
           style="fill:#008000;fill-opacity:1;fill-rule:nonzero;stroke:#225500;stroke-width:1.26016331;stroke-linecap:round;stroke-linejoin:round;stroke-miterlimit:4;stroke-dasharray:none;stroke-dashoffset:0;stroke-opacity:1"
           d="m 44.429971,180.04394 c -0.168901,0 -0.304876,-0.13597 -0.304876,-0.30487 v -9.35277 c 0,-0.1689 0.135975,-0.30488 0.304876,-0.30488 h 9.116816 c 0.168901,0 0.304876,0.13598 0.304876,0.30488 v 9.35277 c 0,0.1689 -0.135975,0.30487 -0.304876,0.30487"
           id="path1636" />
        <path
           style="fill:#008000;stroke:#225500;stroke-width:1.32291663;stroke-linecap:round;stroke-linejoin:round;stroke-miterlimit:4;stroke-dasharray:none;stroke-opacity:1"
           d="m 51.04848,179.93594 -3.073601,-6.14719 1.870887,0.26726 v 1.20272"
           id="path1638" />
      </g>
    </g>
    <path
       id="path1669"
       d="m 80.77105,190.61989 c -0.586221,0.0509 -1.177456,0.11583 -1.767798,0.19848 -0.590341,0.0827 -1.179789,0.18307 -1.762434,0.30506 -0.582646,0.12198 -1.158489,0.26553 -1.721622,0.43446 -0.563133,0.16893 -1.113555,0.36323 -1.645358,0.58671 -0.531803,0.22348 -1.044987,0.47613 -1.533644,0.76178 -0.488656,0.28564 -0.952786,0.60427 -1.386479,0.95968 -0.433694,0.35542 -0.836952,0.74763 -1.203866,1.18043 m 25.501287,-0.0155 c -0.285113,-0.34424 -0.612358,-0.67308 -0.977458,-0.98499 -0.3651,-0.3119 -0.768055,-0.60688 -1.204588,-0.88342 -0.436533,-0.27654 -0.906644,-0.53463 -1.406057,-0.77275 -0.499414,-0.23813 -1.028129,-0.45629 -1.581869,-0.65296 -0.553741,-0.19668 -1.132506,-0.37187 -1.732021,-0.52407 -0.599514,-0.15219 -1.219778,-0.28138 -1.856513,-0.38604 -0.636736,-0.10467 -1.289944,-0.18482 -1.955347,-0.23892"
       style="fill:#008000;fill-opacity:1;fill-rule:nonzero;stroke:#225500;stroke-width:1.32291663;stroke-linecap:round;stroke-linejoin:round;stroke-miterlimit:4;stroke-dasharray:none;stroke-dashoffset:0;stroke-opacity:1" />
  </g>
  <g
     transform="translate(-44.02418,-169.45134)"
     style="display:inline"
     id="layer2">
    <g
       transform="translate(-0.02276356,1.1290553)"
       id="g1410">
      <g
         style="display:inline"
         id="g1351">
        <rect
           y="224.9996"
           x="72.53405"
           height="12.628129"
           width="7.9939871"
           id="rect1311"
           style="fill:#008000;fill-opacity:1;fill-rule:nonzero;stroke:#225500;stroke-width:1.32291663;stroke-linecap:round;stroke-linejoin:round;stroke-miterlimit:4;stroke-dasharray:none;stroke-dashoffset:0;stroke-opacity:1" />
        <rect
           style="fill:#008000;fill-opacity:1;fill-rule:nonzero;stroke:#225500;stroke-width:1.32291663;stroke-linecap:round;stroke-linejoin:round;stroke-miterlimit:4;stroke-dasharray:none;stroke-dashoffset:0;stroke-opacity:1"
           id="rect1313"
           width="7.9939871"
           height="12.628129"
           x="84.900497"
           y="224.9996" />
        <g
           transform="translate(-49.181391,7.7485119)"
           id="g1327">
          <ellipse
             ry="1.6997976"
             rx="1.567561"
             cy="229.95505"
             cx="122.08632"
             id="ellipse1321"
             style="fill:#008000;fill-opacity:1;fill-rule:nonzero;stroke:#225500;stroke-width:1.32291663;stroke-linecap:round;stroke-linejoin:round;stroke-miterlimit:4;stroke-dasharray:none;stroke-dashoffset:0;stroke-opacity:1" />
          <ellipse
             style="fill:#008000;fill-opacity:1;fill-rule:nonzero;stroke:#225500;stroke-width:0.91946644;stroke-linecap:round;stroke-linejoin:round;stroke-miterlimit:4;stroke-dasharray:none;stroke-dashoffset:0;stroke-opacity:1"
             id="path1315"
             cx="128.79539"
             cy="229.24777"
             rx="2.1107154"
             ry="2.2887714" />
          <ellipse
             style="fill:#008000;fill-opacity:1;fill-rule:nonzero;stroke:#225500;stroke-width:1.32291663;stroke-linecap:round;stroke-linejoin:round;stroke-miterlimit:4;stroke-dasharray:none;stroke-dashoffset:0;stroke-opacity:1"
             id="ellipse1319"
             cx="124.96838"
             cy="229.70245"
             rx="1.7615447"
             ry="1.9101454" />
          <ellipse
             ry="2.2887714"
             rx="2.1107154"
             cy="229.24777"
             cx="128.79539"
             id="ellipse1317"
             style="fill:#008000;fill-opacity:1;fill-rule:nonzero;stroke:#225500;stroke-width:1.32291663;stroke-linecap:round;stroke-linejoin:round;stroke-miterlimit:4;stroke-dasharray:none;stroke-dashoffset:0;stroke-opacity:1" />
        </g>
        <g
           id="g1337"
           transform="matrix(-1,0,0,1,214.60993,7.7485119)">
          <ellipse
             style="fill:#008000;fill-opacity:1;fill-rule:nonzero;stroke:#225500;stroke-width:1.32291663;stroke-linecap:round;stroke-linejoin:round;stroke-miterlimit:4;stroke-dasharray:none;stroke-dashoffset:0;stroke-opacity:1"
             id="ellipse1329"
             cx="122.08632"
             cy="229.95505"
             rx="1.567561"
             ry="1.6997976" />
          <ellipse
             ry="2.2887714"
             rx="2.1107154"
             cy="229.24777"
             cx="128.79539"
             id="ellipse1331"
             style="fill:#008000;fill-opacity:1;fill-rule:nonzero;stroke:#225500;stroke-width:0.91946644;stroke-linecap:round;stroke-linejoin:round;stroke-miterlimit:4;stroke-dasharray:none;stroke-dashoffset:0;stroke-opacity:1" />
          <ellipse
             ry="1.9101454"
             rx="1.7615447"
             cy="229.70245"
             cx="124.96838"
             id="ellipse1333"
             style="fill:#008000;fill-opacity:1;fill-rule:nonzero;stroke:#225500;stroke-width:1.32291663;stroke-linecap:round;stroke-linejoin:round;stroke-miterlimit:4;stroke-dasharray:none;stroke-dashoffset:0;stroke-opacity:1" />
          <ellipse
             style="fill:#008000;fill-opacity:1;fill-rule:nonzero;stroke:#225500;stroke-width:1.32291663;stroke-linecap:round;stroke-linejoin:round;stroke-miterlimit:4;stroke-dasharray:none;stroke-dashoffset:0;stroke-opacity:1"
             id="ellipse1335"
             cx="128.79539"
             cy="229.24777"
             rx="2.1107154"
             ry="2.2887714" />
        </g>
      </g>
      <g
         id="g1253">
        <path
           id="rect999"
           d="m 75.991097,185.88325 c -4.028763,0 -8.296974,1.71486 -11.595674,4.23953 a 8.2185371,8.2185371 0 0 0 -3.25355,-0.67438 8.2185371,8.2185371 0 0 0 -8.218619,8.21811 8.2185371,8.2185371 0 0 0 8.218619,8.21862 8.2185371,8.2185371 0 0 0 0.879533,-0.0568 c 17.092015,17.65062 3.771533,17.65371 13.969691,17.65371 h 13.182658 c 10.247556,0 -3.256386,-5.3e-4 15.616105,-17.65422 a 8.2185371,8.2185371 0 0 0 7.3334,-8.16126 8.2185371,8.2185371 0 0 0 -8.21862,-8.21811 8.2185371,8.2185371 0 0 0 -3.23133,0.6718 c -3.437683,-2.504 -7.652842,-4.23695 -11.499555,-4.23695 z"
           style="fill:#008000;fill-opacity:1;fill-rule:nonzero;stroke:#225500;stroke-width:1.16310418;stroke-linecap:round;stroke-linejoin:round;stroke-miterlimit:4;stroke-dasharray:none;stroke-dashoffset:0;stroke-opacity:1" />
        <g
           id="g954"
           transform="translate(-52.094843,-14.613504)">
          <g
             id="g1045"
             transform="translate(51.379497,16.570711)">
            <path
               id="rect1022"
               transform="matrix(0.26458333,0,0,0.26458333,51.905749,11.49259)"
               d="m 71.794922,650.7793 -2,21.33008 c -0.884789,9.43631 7.629721,17.10742 17.107422,17.10742 h 63.105466 c 9.4777,0 17.10742,-7.62972 17.10742,-17.10742 l -2,-21.33008 z"
               style="fill:#225500;fill-opacity:1;fill-rule:nonzero;stroke:none;stroke-width:11.64511395;stroke-linecap:round;stroke-linejoin:round;stroke-miterlimit:4;stroke-dasharray:none;stroke-dashoffset:0;stroke-opacity:1" />
            <rect
               ry="4.3467264"
               y="172.32214"
               x="70.883415"
               height="19.654762"
               width="24.726957"
               id="rect832"
               style="fill:#008000;fill-opacity:1;fill-rule:nonzero;stroke:none;stroke-width:2.95878124;stroke-linecap:round;stroke-linejoin:round;stroke-miterlimit:4;stroke-dasharray:none;stroke-dashoffset:0;stroke-opacity:1" />
            <g
               id="g898"
               transform="matrix(-1,0,0,1,101.2338,-55.886194)">
              <g
                 id="g888"
                 transform="matrix(-1,0,0,1,30.128364,15.497023)">
                <circle
                   style="fill:#000000;fill-opacity:1;fill-rule:nonzero;stroke:none;stroke-width:2.64583325;stroke-linecap:round;stroke-linejoin:round;stroke-miterlimit:4;stroke-dasharray:none;stroke-dashoffset:0;stroke-opacity:1"
                   id="circle884"
                   cx="17.670387"
                   cy="222.72768"
                   r="1.4174107" />
                <circle
                   style="fill:#ffffff;fill-opacity:1;fill-rule:nonzero;stroke:none;stroke-width:2.64583325;stroke-linecap:round;stroke-linejoin:round;stroke-miterlimit:4;stroke-dasharray:none;stroke-dashoffset:0;stroke-opacity:1"
                   id="circle886"
                   cx="17.197916"
                   cy="222.34969"
                   r="0.47247022" />
              </g>
              <path
                 style="fill:none;stroke:#000000;stroke-width:1.32291663;stroke-linecap:butt;stroke-linejoin:miter;stroke-miterlimit:4;stroke-dasharray:none;stroke-opacity:1"
                 d="m 11.055803,234.35044 5.764137,3.02381"
                 id="path890" />
            </g>
            <path
               id="rect856"
               d="m 76.647545,185.43793 12.945682,1.5119 v 2.45685 H 76.647545 Z"
               style="fill:#ffffff;fill-opacity:1;fill-rule:nonzero;stroke:none;stroke-width:2.64583325;stroke-linecap:round;stroke-linejoin:round;stroke-miterlimit:4;stroke-dasharray:none;stroke-dashoffset:0;stroke-opacity:1" />
            <g
               id="g882"
               transform="translate(65.213765,-55.886194)">
              <g
                 id="g846"
                 transform="translate(-5.2124107,15.497023)">
                <circle
                   style="fill:#000000;fill-opacity:1;fill-rule:nonzero;stroke:none;stroke-width:2.64583325;stroke-linecap:round;stroke-linejoin:round;stroke-miterlimit:4;stroke-dasharray:none;stroke-dashoffset:0;stroke-opacity:1"
                   id="circle842"
                   cx="17.670387"
                   cy="222.72768"
                   r="1.4174107" />
                <circle
                   style="fill:#ffffff;fill-opacity:1;fill-rule:nonzero;stroke:none;stroke-width:2.64583325;stroke-linecap:round;stroke-linejoin:round;stroke-miterlimit:4;stroke-dasharray:none;stroke-dashoffset:0;stroke-opacity:1"
                   id="circle844"
                   cx="17.197916"
                   cy="222.34969"
                   r="0.47247022" />
              </g>
              <path
                 style="fill:none;stroke:#000000;stroke-width:1.32291663;stroke-linecap:butt;stroke-linejoin:miter;stroke-miterlimit:4;stroke-dasharray:none;stroke-opacity:1"
                 d="m 11.055803,234.35044 5.764137,3.02381"
                 id="path859" />
            </g>
            <path
               style="fill:#000000;fill-opacity:1;fill-rule:nonzero;stroke:none;stroke-width:2.59992599;stroke-linecap:round;stroke-linejoin:round;stroke-miterlimit:4;stroke-dasharray:none;stroke-dashoffset:0;stroke-opacity:1"
               d="m 70.883412,172.32214 h 24.726957 v 5.38616 l -1.545435,-1.5875 -1.545435,1.5875 -1.545434,-1.5875 -1.545435,1.5875 -1.545435,-1.5875 -1.545435,1.5875 -1.545435,-1.5875 -1.545435,1.5875 -1.545434,-1.5875 -1.545435,1.5875 -1.545435,-1.5875 -1.545435,1.5875 -1.545435,-1.5875 -1.545435,1.5875 -1.545435,-1.5875 -1.545434,1.5875 z"
               id="rect935" />
            <g
               transform="rotate(-3.2735132,-973.61728,-924.19635)"
               id="g975">
              <rect
                 style="fill:#000000;fill-opacity:1;fill-rule:nonzero;stroke:none;stroke-width:1.32291663;stroke-linecap:round;stroke-linejoin:round;stroke-miterlimit:4;stroke-dasharray:none;stroke-dashoffset:0;stroke-opacity:1"
                 id="rect958"
                 width="5.4790254"
                 height="4.8776689"
                 x="15.234363"
                 y="243.74654"
                 ry="2.4388344" />
              <path
                 style="fill:#ffffff;fill-opacity:1;fill-rule:nonzero;stroke:none;stroke-width:5;stroke-linecap:round;stroke-linejoin:round;stroke-miterlimit:4;stroke-dasharray:none;stroke-dashoffset:0;stroke-opacity:1"
                 d="m 66.796875,921.24609 c -3.703762,0 -6.876072,2.16815 -8.34375,5.30469 h 18.958984 c -1.467678,-3.13654 -4.639988,-5.30469 -8.34375,-5.30469 z"
                 transform="scale(0.26458333)"
                 id="rect970" />
            </g>
            <path
               id="path977"
               d="m 94.212507,179.53503 c 10e-7,0.44283 -0.358982,0.80181 -0.801809,0.80181 -0.442827,0 -0.801809,-0.35898 -0.801808,-0.80181 -10e-7,-0.44283 0.358981,-1.86014 0.801808,-1.86014 0.442827,0 0.80181,1.41731 0.801809,1.86014 z"
               style="fill:#00ffff;fill-opacity:1;fill-rule:nonzero;stroke:none;stroke-width:1.32291663;stroke-linecap:round;stroke-linejoin:round;stroke-miterlimit:4;stroke-dasharray:none;stroke-dashoffset:0;stroke-opacity:1" />
          </g>
        </g>
        <path
           id="path1051"
           d="m 65.885805,202.84667 c 9.6e-5,2.36167 3.829101,4.27617 8.552449,4.27622 3.656205,-0.002 6.905614,-1.1657 8.085811,-2.89594 1.180014,1.72997 4.428626,2.89369 8.084261,2.89594 4.723348,-5e-5 8.552353,-1.91455 8.55245,-4.27622 -0.0034,-0.0892 -0.01235,-0.17828 -0.02687,-0.26717"
           style="fill:none;fill-opacity:1;fill-rule:nonzero;stroke:#225500;stroke-width:1.32291663;stroke-linecap:round;stroke-linejoin:round;stroke-miterlimit:4;stroke-dasharray:none;stroke-dashoffset:0;stroke-opacity:1" />
        <g
           transform="translate(49.105294,33.809595)"
           id="g1222">
          <path
             style="fill:none;fill-opacity:1;fill-rule:nonzero;stroke:#225500;stroke-width:1.32291663;stroke-linecap:round;stroke-linejoin:round;stroke-miterlimit:4;stroke-dasharray:none;stroke-dashoffset:0;stroke-opacity:1"
             d="m 28.159003,180.94378 c -4.2e-5,1.14818 0.930758,2.07898 2.078945,2.07894 1.148186,4e-5 2.078984,-0.93076 2.078943,-2.07894 -5.7e-4,-0.0632 -0.004,-0.12628 -0.01033,-0.18914"
             id="path1196" />
          <path
             id="path1206"
             d="m 38.676922,181.60658 c 4.2e-5,1.14818 -0.930759,2.07898 -2.078945,2.07894 -1.148186,4e-5 -2.078985,-0.93076 -2.078943,-2.07894 5.3e-4,-0.0632 0.004,-0.12628 0.01035,-0.18914"
             style="fill:none;fill-opacity:1;fill-rule:nonzero;stroke:#225500;stroke-width:1.32291663;stroke-linecap:round;stroke-linejoin:round;stroke-miterlimit:4;stroke-dasharray:none;stroke-dashoffset:0;stroke-opacity:1" />
          <path
             id="path1208"
             d="m 28.159003,177.33027 c -4.2e-5,1.14818 0.930758,2.07898 2.078945,2.07894 1.148186,4e-5 2.078984,-0.93076 2.078943,-2.07894 -5.7e-4,-0.0632 -0.004,-0.12628 -0.01033,-0.18914"
             style="fill:none;fill-opacity:1;fill-rule:nonzero;stroke:#225500;stroke-width:1.32291663;stroke-linecap:round;stroke-linejoin:round;stroke-miterlimit:4;stroke-dasharray:none;stroke-dashoffset:0;stroke-opacity:1" />
          <path
             style="fill:none;fill-opacity:1;fill-rule:nonzero;stroke:#225500;stroke-width:1.32291663;stroke-linecap:round;stroke-linejoin:round;stroke-miterlimit:4;stroke-dasharray:none;stroke-dashoffset:0;stroke-opacity:1"
             d="m 38.415025,177.85944 c 4.2e-5,1.14818 -0.930759,2.07898 -2.078945,2.07894 -1.148186,4e-5 -2.078985,-0.93076 -2.078943,-2.07894 5.3e-4,-0.0632 0.004,-0.12628 0.01035,-0.18914"
             id="path1210" />
          <path
             style="fill:none;fill-opacity:1;fill-rule:nonzero;stroke:#225500;stroke-width:1.32291663;stroke-linecap:round;stroke-linejoin:round;stroke-miterlimit:4;stroke-dasharray:none;stroke-dashoffset:0;stroke-opacity:1"
             d="m 28.554535,184.68555 c -4.2e-5,1.14818 0.930758,2.07898 2.078945,2.07894 1.148186,4e-5 2.078984,-0.93076 2.078943,-2.07894 -5.7e-4,-0.0632 -0.004,-0.12628 -0.01033,-0.18914"
             id="path1212" />
          <path
             id="path1214"
             d="m 38.543287,185.21472 c 4.2e-5,1.14818 -0.930759,2.07898 -2.078945,2.07894 -1.148186,4e-5 -2.078985,-0.93076 -2.078943,-2.07894 5.3e-4,-0.0632 0.004,-0.12628 0.01035,-0.18914"
             style="fill:none;fill-opacity:1;fill-rule:nonzero;stroke:#225500;stroke-width:1.32291663;stroke-linecap:round;stroke-linejoin:round;stroke-miterlimit:4;stroke-dasharray:none;stroke-dashoffset:0;stroke-opacity:1" />
        </g>
      </g>
      <path
         style="display:inline;fill:#800080;fill-opacity:1;fill-rule:nonzero;stroke:#2b0000;stroke-width:1.32291663;stroke-linecap:round;stroke-linejoin:round;stroke-miterlimit:4;stroke-dasharray:none;stroke-dashoffset:0;stroke-opacity:1"
         d="m 72.165679,223.00304 c -0.08925,0 -0.160799,0.0521 -0.160799,0.11654 v 5.03329 c 0,0.009 0.0042,0.0166 0.0067,0.0248 v 3.24676 c 0,0.0561 0.06233,0.10113 0.139982,0.10113 l 1.205073,-1.05833 1.205074,1.05833 1.205074,-1.05833 1.205073,1.05833 1.205073,-1.05833 1.205074,1.05833 1.205073,-1.05833 1.205074,1.05833 c 0.05834,0.0512 0.140502,-0.045 0.140502,-0.10113 v -3.15502 h 1.563227 v 3.15502 c 0,0.0561 0.06286,0.10113 0.140502,0.10113 l 1.205073,-1.05833 1.205073,1.05833 1.205073,-1.05833 1.205073,1.05833 1.205074,-1.05833 1.205073,1.05833 1.205073,-1.05833 1.205073,1.05833 c 0.05834,0.0512 0.139985,-0.045 0.139985,-0.10113 v -3.24676 c 0.0025,-0.008 0.0067,-0.016 0.0067,-0.0248 v -5.03329 c 0,-0.0645 -0.07155,-0.11654 -0.1608,-0.11654 z"
         id="rect1255" />
    </g>
  </g>
  <g
     transform="translate(-44.02418,-169.45134)"
     style="display:inline"
     id="layer3">
    <g
       id="g1117">
      <g
         id="g1078"
         transform="translate(0.52916667)">
        <path
           style="fill:#008000;fill-opacity:1;fill-rule:nonzero;stroke:#225500;stroke-width:5;stroke-linecap:round;stroke-linejoin:round;stroke-miterlimit:4;stroke-dasharray:none;stroke-dashoffset:0;stroke-opacity:1"
           d="m 235.57812,734.83203 c 0.52723,-2.30619 0.79776,-4.66363 0.80665,-7.0293 -0.0205,-17.16946 -13.55524,-31.27924 -30.70899,-32.01367 l -2.5293,-3.30273 c -0.33843,-0.44187 -0.96633,-0.52399 -1.4082,-0.18555 l -0.85742,0.65625 v -21.83398 c 0,-0.55659 -0.44732,-1.00391 -1.00391,-1.00391 h -30.82031 c -0.55659,0 -1.00586,0.44732 -1.00586,1.00391 v 45.97461 c 0,0.3619 0.2008,0.66303 0.48633,0.83984 -0.11892,0.31386 -0.0949,0.67379 0.125,0.96094 l 3.82617,4.99609 c -0.16807,1.29611 -0.25677,2.60127 -0.26562,3.9082 0.0197,15.95419 11.76009,29.46961 27.55468,31.72071"
           transform="scale(0.26458333)"
           id="rect1086" />
        <path
           style="fill:#008000;fill-opacity:1;fill-rule:nonzero;stroke:#225500;stroke-width:1.26016331;stroke-linecap:round;stroke-linejoin:round;stroke-miterlimit:4;stroke-dasharray:none;stroke-dashoffset:0;stroke-opacity:1"
           d="m 44.429971,180.04394 c -0.168901,0 -0.304876,-0.13597 -0.304876,-0.30487 v -9.35277 c 0,-0.1689 0.135975,-0.30488 0.304876,-0.30488 h 9.116816 c 0.168901,0 0.304876,0.13598 0.304876,0.30488 v 9.35277 c 0,0.1689 -0.135975,0.30487 -0.304876,0.30487"
           id="rect1092" />
        <path
           style="fill:#008000;stroke:#225500;stroke-width:1.32291663;stroke-linecap:round;stroke-linejoin:round;stroke-miterlimit:4;stroke-dasharray:none;stroke-opacity:1"
           d="m 51.04848,179.93594 -3.073601,-6.14719 1.870887,0.26726 v 1.20272"
           id="path1094" />
      </g>
      <g
         id="g1107"
         transform="matrix(-1,0,0,1,164.56809,0)">
        <path
           id="path1101"
           transform="scale(0.26458333)"
           d="m 235.57812,734.83203 c 0.52723,-2.30619 0.79776,-4.66363 0.80665,-7.0293 -0.0205,-17.16946 -13.55524,-31.27924 -30.70899,-32.01367 l -2.5293,-3.30273 c -0.33843,-0.44187 -0.96633,-0.52399 -1.4082,-0.18555 l -0.85742,0.65625 v -21.83398 c 0,-0.55659 -0.44732,-1.00391 -1.00391,-1.00391 h -30.82031 c -0.55659,0 -1.00586,0.44732 -1.00586,1.00391 v 45.97461 c 0,0.3619 0.2008,0.66303 0.48633,0.83984 -0.11892,0.31386 -0.0949,0.67379 0.125,0.96094 l 3.82617,4.99609 c -0.16807,1.29611 -0.25677,2.60127 -0.26562,3.9082 0.0197,15.95419 11.76009,29.46961 27.55468,31.72071"
           style="fill:#008000;fill-opacity:1;fill-rule:nonzero;stroke:#225500;stroke-width:5;stroke-linecap:round;stroke-linejoin:round;stroke-miterlimit:4;stroke-dasharray:none;stroke-dashoffset:0;stroke-opacity:1" />
        <path
           id="path1103"
           d="m 44.429971,180.04394 c -0.168901,0 -0.304876,-0.13597 -0.304876,-0.30487 v -9.35277 c 0,-0.1689 0.135975,-0.30488 0.304876,-0.30488 h 9.116816 c 0.168901,0 0.304876,0.13598 0.304876,0.30488 v 9.35277 c 0,0.1689 -0.135975,0.30487 -0.304876,0.30487"
           style="fill:#008000;fill-opacity:1;fill-rule:nonzero;stroke:#225500;stroke-width:1.26016331;stroke-linecap:round;stroke-linejoin:round;stroke-miterlimit:4;stroke-dasharray:none;stroke-dashoffset:0;stroke-opacity:1" />
        <path
           id="path1105"
           d="m 51.04848,179.93594 -3.073601,-6.14719 1.870887,0.26726 v 1.20272"
           style="fill:#008000;stroke:#225500;stroke-width:1.32291663;stroke-linecap:round;stroke-linejoin:round;stroke-miterlimit:4;stroke-dasharray:none;stroke-opacity:1" />
      </g>
    </g>
  </g>
  <g
     transform="translate(-44.02418,-169.45134)"
     id="g1692"
     style="display:inline">
    <g
       id="g1752">
      <path
         style="fill:#008000;fill-opacity:1;fill-rule:nonzero;stroke:#225500;stroke-width:1.32291663;stroke-linecap:round;stroke-linejoin:round;stroke-miterlimit:4;stroke-dasharray:none;stroke-dashoffset:0;stroke-opacity:1"
         d="m 64.02613,201.02021 c 0.445816,1.05403 0.692342,2.21288 0.692342,3.4293 -2e-6,4.86569 -3.944422,8.81012 -8.810116,8.81012 -4.865694,0 -8.810119,-3.94443 -8.810117,-8.81012 -2e-6,-4.86569 3.944423,-8.81012 8.810117,-8.81012"
         id="path1716" />
      <path
         style="fill:#008000;fill-opacity:1;fill-rule:nonzero;stroke:#225500;stroke-width:1.32291663;stroke-linecap:round;stroke-linejoin:round;stroke-miterlimit:4;stroke-dasharray:none;stroke-dashoffset:0;stroke-opacity:1"
         d="m 54.369165,209.15373 c -1.015025,3.2399 1.673785,6.96636 6.005475,8.32311 2.226915,0.69487 4.569172,0.64896 6.442793,-0.12629 0.393456,0.94112 1.321609,1.59896 2.408545,1.59692 l 5.608946,-0.0106 c 1.443306,-0.003 2.60334,-1.16712 2.600625,-2.61041 l -0.01005,-5.34541 c -0.0027,-1.4433 -1.167116,-2.60282 -2.610419,-2.60011 l -5.608949,0.0106 c -0.25416,3.6e-4 -0.498725,0.0386 -0.730506,0.10631 -1.123441,-1.23508 -2.681053,-2.204 -4.426103,-2.75326 -0.486048,-0.15226 -0.980567,-0.27006 -1.477143,-0.35234 -0.49658,-0.0822 -0.995209,-0.12905 -1.489496,-0.13918 l -5e-6,-8e-5"
         id="rect1718" />
      <path
         style="fill:none;stroke:#225500;stroke-width:1.32291663;stroke-linecap:round;stroke-linejoin:miter;stroke-miterlimit:4;stroke-dasharray:none;stroke-opacity:1"
         d="m 72.363541,211.53958 h 4.7625"
         id="path1739" />
      <path
         style="fill:none;stroke:#225500;stroke-width:1.32291663;stroke-linecap:round;stroke-linejoin:miter;stroke-miterlimit:4;stroke-dasharray:none;stroke-opacity:1"
         d="m 72.628124,214.97916 h 4.630208"
         id="path1741" />
    </g>
    <g
       transform="matrix(-1,0,0,1,164.42738,0)"
       id="g1762">
      <path
         id="path1754"
         d="m 64.02613,201.02021 c 0.445816,1.05403 0.692342,2.21288 0.692342,3.4293 -2e-6,4.86569 -3.944422,8.81012 -8.810116,8.81012 -4.865694,0 -8.810119,-3.94443 -8.810117,-8.81012 -2e-6,-4.86569 3.944423,-8.81012 8.810117,-8.81012"
         style="fill:#008000;fill-opacity:1;fill-rule:nonzero;stroke:#225500;stroke-width:1.32291663;stroke-linecap:round;stroke-linejoin:round;stroke-miterlimit:4;stroke-dasharray:none;stroke-dashoffset:0;stroke-opacity:1" />
      <path
         id="path1756"
         d="m 54.369165,209.15373 c -1.015025,3.2399 1.673785,6.96636 6.005475,8.32311 2.226915,0.69487 4.569172,0.64896 6.442793,-0.12629 0.393456,0.94112 1.321609,1.59896 2.408545,1.59692 l 5.608946,-0.0106 c 1.443306,-0.003 2.60334,-1.16712 2.600625,-2.61041 l -0.01005,-5.34541 c -0.0027,-1.4433 -1.167116,-2.60282 -2.610419,-2.60011 l -5.608949,0.0106 c -0.25416,3.6e-4 -0.498725,0.0386 -0.730506,0.10631 -1.123441,-1.23508 -2.681053,-2.204 -4.426103,-2.75326 -0.486048,-0.15226 -0.980567,-0.27006 -1.477143,-0.35234 -0.49658,-0.0822 -0.995209,-0.12905 -1.489496,-0.13918 l -5e-6,-8e-5"
         style="fill:#008000;fill-opacity:1;fill-rule:nonzero;stroke:#225500;stroke-width:1.32291663;stroke-linecap:round;stroke-linejoin:round;stroke-miterlimit:4;stroke-dasharray:none;stroke-dashoffset:0;stroke-opacity:1" />
      <path
         id="path1758"
         d="m 72.363541,211.53958 h 4.7625"
         style="fill:none;stroke:#225500;stroke-width:1.32291663;stroke-linecap:round;stroke-linejoin:miter;stroke-miterlimit:4;stroke-dasharray:none;stroke-opacity:1" />
      <path
         id="path1760"
         d="m 72.628124,214.97916 h 4.630208"
         style="fill:none;stroke:#225500;stroke-width:1.32291663;stroke-linecap:round;stroke-linejoin:miter;stroke-miterlimit:4;stroke-dasharray:none;stroke-opacity:1" />
    </g>
  </g>
  <g
     transform="translate(-44.02418,-169.45134)"
     style="display:inline"
     id="layer1">
    <g
       transform="matrix(-1,0,0,1,36.020032,0)"
       id="g892" />
    <g
       transform="translate(14.572795,-17.548556)"
       id="g826">
      <rect
         style="fill:#b3b3b3;fill-opacity:1;fill-rule:nonzero;stroke:#1a1a1a;stroke-width:0.90885556;stroke-linecap:round;stroke-linejoin:round;stroke-miterlimit:4;stroke-dasharray:none;stroke-dashoffset:0;stroke-opacity:1"
         id="rect815"
         width="62.591145"
         height="25.549479"
         x="36.632126"
         y="237.30765" />
      <text
         xml:space="preserve"
         style="font-style:normal;font-weight:normal;font-size:10.58333302px;line-height:1.25;font-family:sans-serif;letter-spacing:0px;word-spacing:0px;fill:#000000;fill-opacity:1;stroke:none;stroke-width:0.26458332"
         x="44.650211"
         y="254.02788"
         id="text821"><tspan
           id="tspan819"
           x="44.650211"
           y="254.02788"
           style="stroke-width:0.26458332">Like</tspan></text>
    </g>
  </g>
</svg>
