<?xml version="1.0" encoding="UTF-8" standalone="no"?>
<!-- Created with Inkscape (http://www.inkscape.org/) -->

<svg
   xmlns:dc="http://purl.org/dc/elements/1.1/"
   xmlns:cc="http://creativecommons.org/ns#"
   xmlns:rdf="http://www.w3.org/1999/02/22-rdf-syntax-ns#"
   xmlns:svg="http://www.w3.org/2000/svg"
   xmlns="http://www.w3.org/2000/svg"
   xmlns:sodipodi="http://sodipodi.sourceforge.net/DTD/sodipodi-0.dtd"
   xmlns:inkscape="http://www.inkscape.org/namespaces/inkscape"
   width="48.948151mm"
   height="46.33009mm"
   viewBox="0 0 48.948151 46.33009"
   version="1.1"
   id="svg8"
   inkscape:version="0.92.2 5c3e80d, 2017-08-06"
   sodipodi:docname="elevator.svg">
  <defs
     id="defs2" />
  <sodipodi:namedview
     id="base"
     pagecolor="#ffffff"
     bordercolor="#666666"
     borderopacity="1.0"
     inkscape:pageopacity="0.0"
     inkscape:pageshadow="2"
     inkscape:zoom="2"
     inkscape:cx="108.47837"
     inkscape:cy="133.96055"
     inkscape:document-units="mm"
     inkscape:current-layer="g1025"
     showgrid="false"
     fit-margin-top="0"
     fit-margin-left="0"
     fit-margin-right="0"
     fit-margin-bottom="0"
     inkscape:window-width="1638"
     inkscape:window-height="972"
     inkscape:window-x="202"
     inkscape:window-y="73"
     inkscape:window-maximized="0" />
  <metadata
     id="metadata5">
    <rdf:RDF>
      <cc:Work
         rdf:about="">
        <dc:format>image/svg+xml</dc:format>
        <dc:type
           rdf:resource="http://purl.org/dc/dcmitype/StillImage" />
        <dc:title></dc:title>
      </cc:Work>
    </rdf:RDF>
  </metadata>
  <g
     inkscape:label="Elevator"
     inkscape:groupmode="layer"
     id="layer1"
     transform="translate(-24.19025,-107.23728)">
    <g
       id="g1025">
      <rect
         y="121.2789"
         x="35.567333"
         height="32.279167"
         width="32.808334"
         id="rect946"
         style="opacity:1;fill:#f2f2f2;fill-opacity:1;fill-rule:nonzero;stroke:none;stroke-width:0.51895297;stroke-linecap:round;stroke-linejoin:round;stroke-miterlimit:4;stroke-dasharray:none;stroke-dashoffset:0;stroke-opacity:1" />
      <rect
         y="116.51636"
         x="30.805065"
         height="37.041668"
         width="42.333336"
         id="rect815"
         style="opacity:1;fill:#000000;fill-opacity:1;fill-rule:nonzero;stroke:none;stroke-width:0.09973218;stroke-linecap:round;stroke-linejoin:round;stroke-miterlimit:4;stroke-dasharray:none;stroke-dashoffset:0;stroke-opacity:1" />
      <path
         id="rect879"
         transform="scale(0.26458333)"
         d="m 116.42773,440.30664 v 0.0703 18 122 h 18 v -122 h 124 V 580.4121 h 18 V 440.3418 h -18 v 0.0352 h -124 v -0.0703 z"
         style="opacity:1;fill:#666666;fill-opacity:1;fill-rule:nonzero;stroke:none;stroke-width:2.24469519;stroke-linecap:round;stroke-linejoin:round;stroke-miterlimit:4;stroke-dasharray:none;stroke-dashoffset:0;stroke-opacity:1"
         inkscape:connector-curvature="0" />
      <path
         inkscape:connector-curvature="0"
         id="path869"
         d="m 51.971731,107.23728 a 6.6145835,6.6145835 0 0 0 -6.614583,6.61459 h 13.229166 a 6.6145835,6.6145835 0 0 0 -6.614583,-6.61459 z"
         style="opacity:1;fill:#999999;fill-opacity:1;fill-rule:nonzero;stroke:none;stroke-width:0.61736107;stroke-linecap:round;stroke-linejoin:round;stroke-miterlimit:4;stroke-dasharray:none;stroke-dashoffset:0;stroke-opacity:1" />
      <rect
         y="138.59727"
         x="24.19025"
         height="5.2916665"
         width="3.96875"
         id="rect881"
         style="opacity:1;fill:#999999;fill-opacity:1;fill-rule:nonzero;stroke:none;stroke-width:0.51700026;stroke-linecap:round;stroke-linejoin:round;stroke-miterlimit:4;stroke-dasharray:none;stroke-dashoffset:0;stroke-opacity:1" />
      <rect
         y="142.97475"
         x="35.567566"
         height="10.583333"
         width="32.808334"
         id="rect948"
         style="opacity:1;fill:#333333;fill-opacity:1;fill-rule:nonzero;stroke:none;stroke-width:0.51484168;stroke-linecap:round;stroke-linejoin:round;stroke-miterlimit:4;stroke-dasharray:none;stroke-dashoffset:0;stroke-opacity:1" />
      <rect
         y="138.31364"
         x="35.567566"
         height="5.7194328"
         width="32.808334"
         id="rect953"
         style="opacity:1;fill:#cccccc;fill-opacity:1;fill-rule:nonzero;stroke:none;stroke-width:0.77776468;stroke-linecap:round;stroke-linejoin:round;stroke-miterlimit:4;stroke-dasharray:none;stroke-dashoffset:0;stroke-opacity:1" />
      <rect
         y="121.2789"
         x="35.567093"
         height="18.999176"
         width="32.808571"
         id="rect955"
         style="opacity:1;fill:#afdde9;fill-opacity:1;fill-rule:nonzero;stroke:none;stroke-width:0.55884582;stroke-linecap:round;stroke-linejoin:round;stroke-miterlimit:4;stroke-dasharray:none;stroke-dashoffset:0;stroke-opacity:1" />
      <path
         inkscape:connector-curvature="0"
         style="fill:#ff0000;stroke:none;stroke-width:0.52734011"
         id="path957"
         d="m 53.370049,133.17497 c 0.26367,-0.12656 0.5748,-0.0105 0.701362,0.25313 l 1.212882,2.63142 0.949213,-0.44823 -1.218156,-2.62616 c -0.126562,-0.26367 -0.01055,-0.58007 0.253123,-0.70136 l 0.147656,-0.0422 1.212882,-0.2373 -4.350556,-3.65447 v 5.68473 l 0.959759,-0.77519 0.131835,-0.0844 m 1.882604,4.06051 c -0.26367,0.12657 -0.580074,0.0158 -0.701362,-0.24784 l -1.149602,-2.4996 -1.323624,1.06523 c -0.08965,0.0738 -0.200389,0.11601 -0.326951,0.11601 a 0.52734014,0.52734014 0 0 1 -0.52734,-0.52734 v -7.9101 a 0.52734014,0.52734014 0 0 1 0.52734,-0.52734 c 0.126562,0 0.24785,0.0475 0.337498,0.12129 l 0.0053,-0.005 6.059139,5.08356 c 0.226756,0.18984 0.253123,0.52207 0.06855,0.74355 -0.0791,0.0949 -0.189843,0.1582 -0.300584,0.17929 l -1.666395,0.32696 1.160148,2.49431 c 0.137109,0.26367 0.01055,0.57481 -0.253123,0.69609 z" />
      <path
         id="rect959"
         d="m 39.44707,121.27895 -3.879866,3.87986 v 11.37709 l 15.256949,-15.25695 z"
         style="opacity:1;fill:#f2f2f2;fill-opacity:1;fill-rule:nonzero;stroke:none;stroke-width:0.52916664;stroke-linecap:round;stroke-linejoin:round;stroke-miterlimit:4;stroke-dasharray:none;stroke-dashoffset:0;stroke-opacity:1"
         inkscape:connector-curvature="0" />
      <path
         id="rect961"
         d="M 54.56656,121.27895 35.567204,140.2783 h 5.820833 l 18.999356,-18.99935 z"
         style="opacity:1;fill:#f2f2f2;fill-opacity:1;fill-rule:nonzero;stroke:none;stroke-width:0.49640229;stroke-linecap:round;stroke-linejoin:round;stroke-miterlimit:4;stroke-dasharray:none;stroke-dashoffset:0;stroke-opacity:1"
         inkscape:connector-curvature="0" />
      <rect
         ry="0.30807647"
         y="108.61666"
         x="51.641003"
         height="4.4979172"
         width="0.66145831"
         id="rect983"
         style="opacity:1;fill:#1a1a1a;fill-opacity:1;fill-rule:nonzero;stroke:none;stroke-width:0.52916664;stroke-linecap:round;stroke-linejoin:round;stroke-miterlimit:4;stroke-dasharray:none;stroke-dashoffset:0;stroke-opacity:1" />
      <path
         style="opacity:1;fill:#333333;fill-opacity:1;fill-rule:nonzero;stroke:none;stroke-width:0.51463014;stroke-linecap:round;stroke-linejoin:round;stroke-miterlimit:4;stroke-dasharray:none;stroke-dashoffset:0;stroke-opacity:1"
         d="m 26.174626,143.31017 c -1.322917,-1.5875 0,0 -1.322917,-1.5875 h 2.645833 c -1.322916,1.5875 0,0 -1.322916,1.5875 z"
         id="path990"
         inkscape:connector-curvature="0"
         sodipodi:nodetypes="cccc" />
      <path
         sodipodi:nodetypes="cccc"
         inkscape:connector-curvature="0"
         id="path992"
         d="m 26.174625,139.17606 c 1.322917,1.5875 0,0 1.322917,1.5875 h -2.645833 c 1.322916,-1.5875 0,0 1.322916,-1.5875 z"
         style="opacity:1;fill:#333333;fill-opacity:1;fill-rule:nonzero;stroke:none;stroke-width:0.51463014;stroke-linecap:round;stroke-linejoin:round;stroke-miterlimit:4;stroke-dasharray:none;stroke-dashoffset:0;stroke-opacity:1" />
      <path
         style="opacity:1;fill:#333333;fill-opacity:1;fill-rule:nonzero;stroke:none;stroke-width:0.51463014;stroke-linecap:round;stroke-linejoin:round;stroke-miterlimit:4;stroke-dasharray:none;stroke-dashoffset:0;stroke-opacity:1"
         d="m 49.325898,141.52423 c 1.322917,1.5875 0,0 1.322917,1.5875 h -2.645833 c 1.322916,-1.5875 0,0 1.322916,-1.5875 z"
         id="path994"
         inkscape:connector-curvature="0"
         sodipodi:nodetypes="cccc" />
      <path
         sodipodi:nodetypes="cccc"
         inkscape:connector-curvature="0"
         id="path996"
         d="m 54.617569,143.11173 c -1.322917,-1.5875 0,0 -1.322917,-1.5875 h 2.645833 c -1.322916,1.5875 0,0 -1.322916,1.5875 z"
         style="opacity:1;fill:#333333;fill-opacity:1;fill-rule:nonzero;stroke:none;stroke-width:0.51463014;stroke-linecap:round;stroke-linejoin:round;stroke-miterlimit:4;stroke-dasharray:none;stroke-dashoffset:0;stroke-opacity:1" />
      <path
         d="m 49.457733,141.43986 c 0.26367,-0.12656 0.5748,-0.0105 0.701362,0.25313 l 1.212882,2.63142 0.949213,-0.44823 -1.218156,-2.62616 c -0.126562,-0.26367 -0.01055,-0.58007 0.253123,-0.70136 l 0.147656,-0.0422 1.212882,-0.2373 -4.350556,-3.65447 v 5.68473 l 0.959759,-0.77519 0.131835,-0.0844 m 1.882604,4.06051 c -0.26367,0.12657 -0.580074,0.0158 -0.701362,-0.24784 l -1.149602,-2.4996 -1.323624,1.06523 c -0.08965,0.0738 -0.200389,0.11601 -0.326951,0.11601 a 0.52734014,0.52734014 0 0 1 -0.52734,-0.52734 v -7.9101 a 0.52734014,0.52734014 0 0 1 0.52734,-0.52734 c 0.126562,0 0.24785,0.0475 0.337498,0.12129 l 0.0053,-0.005 6.059139,5.08356 c 0.226756,0.18984 0.253123,0.52207 0.06855,0.74355 -0.0791,0.0949 -0.189843,0.1582 -0.300584,0.17929 l -1.666395,0.32696 1.160148,2.49431 c 0.137109,0.26367 0.01055,0.57481 -0.253123,0.69609 z"
         id="path2"
         style="fill:#ff0000;stroke:none;stroke-width:0.52734011"
         inkscape:connector-curvature="0" />
      <g
         transform="translate(-52.652096,-7.6264648)"
         id="g944">
        <rect
           style="opacity:1;fill:#999999;fill-opacity:1;fill-rule:nonzero;stroke:none;stroke-width:0.33629149;stroke-linecap:round;stroke-linejoin:round;stroke-miterlimit:4;stroke-dasharray:none;stroke-dashoffset:0;stroke-opacity:1"
           id="rect886"
           width="16.404167"
           height="32.279167"
           x="88.219429"
           y="128.90538" />
        <path
           inkscape:connector-curvature="0"
           style="opacity:1;fill:#f2f2f2;fill-opacity:1;fill-rule:nonzero;stroke:none;stroke-width:1.99999988;stroke-linecap:round;stroke-linejoin:round;stroke-miterlimit:4;stroke-dasharray:none;stroke-dashoffset:0;stroke-opacity:1"
           d="m 370.94922,487.20117 -37.52149,37.52149 v 36.42773 l 62,-62 v -11.94922 z"
           transform="scale(0.26458333)"
           id="rect888" />
        <path
           inkscape:connector-curvature="0"
           style="opacity:1;fill:#f2f2f2;fill-opacity:1;fill-rule:nonzero;stroke:none;stroke-width:1.34310138;stroke-linecap:round;stroke-linejoin:round;stroke-miterlimit:4;stroke-dasharray:none;stroke-dashoffset:0;stroke-opacity:1"
           d="m 395.42773,513.29297 -62,62 v 16.42773 l 62,-62 z"
           transform="scale(0.26458333)"
           id="rect890" />
      </g>
      <g
         transform="translate(-52.652096,-7.6264648)"
         id="g933">
        <rect
           y="128.90538"
           x="104.6236"
           height="32.279167"
           width="16.404167"
           id="rect917"
           style="opacity:1;fill:#999999;fill-opacity:1;fill-rule:nonzero;stroke:none;stroke-width:0.33629149;stroke-linecap:round;stroke-linejoin:round;stroke-miterlimit:4;stroke-dasharray:none;stroke-dashoffset:0;stroke-opacity:1" />
        <path
           inkscape:connector-curvature="0"
           style="opacity:1;fill:#f2f2f2;fill-opacity:1;fill-rule:nonzero;stroke:none;stroke-width:1.34310138;stroke-linecap:round;stroke-linejoin:round;stroke-miterlimit:4;stroke-dasharray:none;stroke-dashoffset:0;stroke-opacity:1"
           d="m 421.51953,487.20117 -26.0918,26.0918 v 16.42773 l 41.33008,-41.33008 -1.18945,-1.18945 z"
           transform="scale(0.26458333)"
           id="rect919" />
        <path
           inkscape:connector-curvature="0"
           style="opacity:1;fill:#f2f2f2;fill-opacity:1;fill-rule:nonzero;stroke:none;stroke-width:1.99999988;stroke-linecap:round;stroke-linejoin:round;stroke-miterlimit:4;stroke-dasharray:none;stroke-dashoffset:0;stroke-opacity:1"
           d="m 395.42773,487.20117 v 11.94922 l 11.94922,-11.94922 z"
           transform="scale(0.26458333)"
           id="rect925" />
      </g>
    </g>
  </g>
</svg>
