<svg xmlns="http://www.w3.org/2000/svg" width="223.24992" height="207.5463" viewBox="0 0 59.068209 54.91329">
  <g transform="translate(-70.967674 -112.10752)">
    <g transform="translate(19.587616 -5.1859387)">
      <circle r="5.953125" cy="124.5695" cx="89.267891" fill="#a05a2c"/>
      <circle cx="89.267891" cy="124.5695" r="4.3193078" fill="#fca"/>
    </g>
    <g transform="translate(3.1834476 -5.1859387)">
      <circle cx="89.267891" cy="124.5695" r="5.953125" fill="#a05a2c"/>
      <circle r="4.3193078" cy="124.5695" cx="89.267891" fill="#fca"/>
    </g>
    <rect transform="matrix(.69012 .7237 .69116 -.7227 0 0)" ry="2.5978234" y="-19.412512" x="174.93823" height="19.637407" width="5.1956468" fill="#a05a2c"/>
    <rect width="5.1956468" height="19.637407" x="29.517857" y="-165.03149" ry="2.5978234" transform="matrix(-.69012 .7237 -.69116 -.7227 0 0)" fill="#a05a2c"/>
    <path d="M94.1591085 159.39647033l1.13016505 3.97753411a5.29166634 5.29166634 0 00-.59738153-.03824023 5.29166634 5.29166634 0 00-5.02863109 3.68504783h21.7004818a5.29166634 5.29166634 0 00-5.0301842-3.68504783 5.29166634 5.29166634 0 00-.5968603.03720836l1.12964647-3.97650224z" fill="#784421"/>
    <g transform="translate(22.048752)">
      <circle cx="89.267891" cy="124.5695" r="5.953125" fill="#a05a2c"/>
      <circle r="4.3193078" cy="124.5695" cx="89.267891" fill="#fca"/>
    </g>
    <circle r="5.953125" cy="124.5695" cx="89.267891" fill="#a05a2c"/>
    <circle cx="89.267891" cy="124.5695" r="4.3193078" fill="#fca"/>
    <circle cx="100.51268" cy="149.04999" r="13.229167" fill="#a05a2c"/>
    <circle cx="100.51268" cy="128.75888" r="13.229167" fill="#a05a2c"/>
    <circle cx="100.29227" cy="132.97391" r="5.9451938" fill="#e9c6af"/>
    <ellipse cx="100.29227" cy="129.55186" rx="1.5612032" ry="1.1618258"/>
    <g transform="translate(17.991638)">
      <circle cx="91.364403" cy="128.15633" r="1.3229166"/>
      <circle cx="91.89357" cy="127.62716" r=".26458332" fill="#fff"/>
    </g>
    <circle cx="100.51268" cy="149.04999" r="8.598958" fill="#e9c6af"/>
    <path d="M98.30347449 144.82645224c-.65124542 0-1.3024231.24925602-1.80144155.74827342-.99803372.99803478-.99803372 2.60484935 0 3.6028815l.4919599.49299282 3.60339796 3.6028815 3.60339744-3.6028815.32246093-.32297687c.99803744-.99803479.99803744-2.60536265 0-3.60339743-.49901474-.4990174-1.15013845-.748792-1.80144207-.748792-.65130097 0-1.30293797.2497746-1.80195536.748792l-.32246094.32297687-.49196095-.4924769c-.4990174-.49901739-1.1507126-.7482734-1.80195536-.7482734z" fill="red"/>
    <circle r="1.3229166" cy="128.15633" cx="91.364403"/>
    <circle r=".26458332" cy="127.62716" cx="91.89357" fill="#fff"/>
    <circle cx="91.364403" cy="128.15633" r="1.3229166" fill="#faa" transform="translate(0 3.1750001)"/>
    <circle r="1.3229166" cy="128.15633" cx="91.364403" transform="translate(17.991638 3.1750001)" fill="#faa"/>
    <path d="M98.069425 133.1097a2.2359423 2.2359423 0 002.221095 2.00623 2.2359423 2.2359423 0 002.22459-2.00623z"/>
    <path d="M100.97006285 134.12669591a.76244812.72614104 0 00-.76274347.7260537.76244812.72614104 0 00.05167577.26199835 2.23594226 2.23594226 0 00.03152246.00105834 2.23594226 2.23594226 0 001.40094757-.49506187.76244812.72614104 0 00-.72140233-.4940247z" fill="red"/>
    <g transform="translate(20.743392 -2.8237912)">
      <path d="M69.31101377 131.15271579a1.3229166 1.3229166 0 001.30948111 1.15031836 1.3229166 1.3229166 0 001.31051298-1.15031836z"/>
      <circle cx="71.149818" cy="131.50951" r=".26458332" fill="#fff"/>
    </g>
    <g transform="translate(38.73503 -2.8237912)">
      <path d="M69.31101377 131.15271579a1.3229166 1.3229166 0 001.30948111 1.15031836 1.3229166 1.3229166 0 001.31051298-1.15031836z"/>
      <circle r=".26458332" cy="131.50951" cx="71.149818" fill="#fff"/>
    </g>
  </g>
</svg>