<svg class="cap" fill="none" xmlns="http://www.w3.org/2000/svg" viewBox="0 296 742 480">
  <g class="bear__cap">
    <rect class="cap__spindle" x="366" y="251" width="10" height="63" rx="4" fill="#C4C4C4"/>
    <mask id="a" style="mask-type:alpha" maskUnits="userSpaceOnUse" x="79" y="314" width="581" height="248">
      <path d="M579.304 383.703C634.814 428.333 660 498.884 660 562l-245.66-26.738C363.875 544.104 79 562 79 562c0-63.116 26.186-133.667 81.696-178.297C216.207 339.073 291.496 314 370 314c78.504 0 153.793 25.073 209.304 69.703Z" fill="#FBBC05"/>
    </mask>
    <g class="cap__main" mask="url(#a)">
      <path d="M579.304 383.562C634.814 428.102 666 498.511 666 561.5l-251.783-26.794C364.133 543.489 74 561.5 74 561.5c0-62.989 31.186-133.398 86.696-177.938C216.207 339.022 291.496 314 370 314c78.504 0 153.793 25.022 209.304 69.562Z" fill="#FBBC05"/>
      <path d="M360 301c22-30-166.898-3.814-211.438 51.696C104.022 408.207 79 483.496 79 562c0 78.504 25.022 153.793 69.562 209.304C193.102 826.814 297.011 857 360 857c0 0-112-124-118-295s96-231 118-261Z" fill="#4285F4"/>
      <path d="M393.775 316.581c-22-30 166.898-3.814 211.438 51.696 44.54 55.511 69.562 130.8 69.562 209.304 0 78.504-25.022 153.793-69.562 209.304-44.54 55.51-148.449 85.696-211.438 85.696 0 0 112-124 118-295s-96-231-118-261Z" fill="#EA4335"/>
    </g>
    <path class="cap__brim" d="M666 561.5c0 14.083-132.524-13.5-296-13.5S74 575.583 74 561.5c0-14.083 132.524-49.5 296-49.5s296 35.417 296 49.5Z" fill="#34A853"/>
    <ellipse class="cap__top" cx="371.5" cy="312.5" rx="20.5" ry="7.5" fill="#A40606"/>
    <rect class="cap__bead" x="360" y="291" width="22" height="12" rx="4" fill="#EA4335"/>
    <rect class="cap__bead" x="360" y="277" width="22" height="12" rx="4" fill="#F65314"/>
    <path class="cap__bead" d="M360 267a4 4 0 0 1 4-4h14a4 4 0 0 1 4 4v4a4 4 0 0 1-4 4h-14a4 4 0 0 1-4-4v-4Z" fill="#FB0"/>
    <!-- <path class="cap__propellor" d="M177.178 287.422c-5.5 10-4.139 34.5 47.5 34.5 69 0 139.5-23 139.5-31.5s-11-7-93.5-10c-51.639 0-88-3-93.5 7ZM565 278.5c5.5-10 4.139-34.5-47.5-34.5-69 0-139.5 23-139.5 31.5s11 7 93.5 10c51.639 0 88 3 93.5-7Z" fill="#00A1F1"/> -->
  </g>
</svg>