<svg width="837" height="937" viewBox="0 0 837 937" fill="none" xmlns="http://www.w3.org/2000/svg">
<path d="M238.478 867.781H204.41V884.947V902.113H221.444H238.478V919.279V936.446H204.41H170.341V902.113V867.781V850.615V824.865V799.116H153.307H136.273V781.95V764.784H119.239H102.205V747.617V730.451H85.1708H68.1366V713.285V696.119H51.1024H34.0683V678.953V661.786H17.0342H0V558.789V455.792H17.0342H34.0683V490.124V524.457H51.1024H68.1366V541.623V558.789H85.1708H102.205V575.955V593.122H136.273H170.341V575.955V558.789H187.376H204.41V541.623V524.457H221.444H238.478V507.291V490.124H255.512H272.546V472.958V455.792H289.58H306.615V352.795V249.798H323.649H340.683V232.632V215.465H493.99H647.298V232.632V249.798H664.332H681.366V335.629V421.46H596.195H511.024V438.626V455.792H562.127H613.229V472.958V490.124H545.093H476.956V524.457V558.789H511.024H545.093V593.122V627.454H528.058H511.024V610.288V593.122H493.99H476.956V644.62V696.119H459.922H442.888V713.285V730.451H425.854H408.82V747.617V764.784H391.785H374.751V807.699V850.615V867.781V884.947V902.113H391.785H408.82V919.279V936.446H374.751H340.683V902.113V867.781H238.478ZM340.683 867.781V842.032V833.448H323.649H306.615V816.282V799.116H289.58H272.546V816.282V833.448H255.512H238.478V842.032V867.781H340.683ZM408.82 284.13V266.964H391.785H374.751V284.13V301.296H391.785H408.82V284.13Z" fill="#333333"/>
<path d="M446.887 124.308L280.816 169.211L306.052 262.546L430.606 228.868L421.142 193.868L462.66 182.642L446.887 124.308Z" fill="black"/>
<rect x="424.297" y="205.534" width="43.0087" height="24.1717" transform="rotate(-15.1301 424.297 205.534)" fill="#FF1717"/>
<rect x="208.404" y="263.908" width="94.6191" height="24.1717" transform="rotate(-15.1301 208.404 263.908)" fill="#FF1717"/>
<path d="M837 0H530.376V174.03H555.238V215.465H563.525V207.178H571.812V198.891H580.099V190.604H588.386V182.317H596.673V174.03H837V0Z" fill="white"/>
<path d="M586.094 55.75H611.547C616.766 55.75 621.25 56.5312 625 58.0938C628.781 59.6562 631.688 61.9688 633.719 65.0312C635.75 68.0938 636.766 71.8594 636.766 76.3281C636.766 79.9844 636.141 83.125 634.891 85.75C633.672 88.3438 631.938 90.5156 629.688 92.2656C627.469 93.9844 624.859 95.3594 621.859 96.3906L617.406 98.7344H595.281L595.188 87.7656H611.641C614.109 87.7656 616.156 87.3281 617.781 86.4531C619.406 85.5781 620.625 84.3594 621.438 82.7969C622.281 81.2344 622.703 79.4219 622.703 77.3594C622.703 75.1719 622.297 73.2812 621.484 71.6875C620.672 70.0938 619.438 68.875 617.781 68.0312C616.125 67.1875 614.047 66.7656 611.547 66.7656H600.156V124H586.094V55.75ZM624.25 124L608.688 93.5781L623.547 93.4844L639.297 123.344V124H624.25ZM675.344 67.4219L656.781 124H641.828L667.188 55.75H676.703L675.344 67.4219ZM690.766 124L672.156 67.4219L670.656 55.75H680.266L705.766 124H690.766ZM689.922 98.5938V109.609H653.875V98.5938H689.922ZM733.047 124H718.188L718.281 113.031H733.047C736.734 113.031 739.844 112.203 742.375 110.547C744.906 108.859 746.812 106.406 748.094 103.188C749.406 99.9688 750.062 96.0781 750.062 91.5156V88.1875C750.062 84.6875 749.688 81.6094 748.938 78.9531C748.219 76.2969 747.141 74.0625 745.703 72.25C744.266 70.4375 742.5 69.0781 740.406 68.1719C738.312 67.2344 735.906 66.7656 733.188 66.7656H717.906V55.75H733.188C737.75 55.75 741.922 56.5312 745.703 58.0938C749.516 59.625 752.812 61.8281 755.594 64.7031C758.375 67.5781 760.516 71.0156 762.016 75.0156C763.547 78.9844 764.312 83.4062 764.312 88.2812V91.5156C764.312 96.3594 763.547 100.781 762.016 104.781C760.516 108.781 758.375 112.219 755.594 115.094C752.844 117.938 749.547 120.141 745.703 121.703C741.891 123.234 737.672 124 733.047 124ZM726.156 55.75V124H712.094V55.75H726.156ZM788.922 55.75L787.375 103.141H776.125L774.531 55.75H788.922ZM774.156 117.812C774.156 115.812 774.844 114.156 776.219 112.844C777.625 111.5 779.469 110.828 781.75 110.828C784.062 110.828 785.906 111.5 787.281 112.844C788.656 114.156 789.344 115.812 789.344 117.812C789.344 119.75 788.656 121.391 787.281 122.734C785.906 124.078 784.062 124.75 781.75 124.75C779.469 124.75 777.625 124.078 776.219 122.734C774.844 121.391 774.156 119.75 774.156 117.812Z" fill="black"/>
</svg>
