<svg class="dino" fill="none" xmlns="http://www.w3.org/2000/svg" viewBox="0 124 682 813">
  <path d="M238.478 867.781H204.41v34.332h34.068v34.333h-68.137V799.116h-34.068v-34.332h-34.068v-34.333H68.137v-34.332H34.068v-34.333H0V455.792h34.068V524.457h34.069v34.332h34.068v34.333h68.136v-34.333h34.069v-34.332h34.068v-34.333h34.068v-34.332h34.069V249.798h34.068v-34.333h306.615v34.333h34.068V421.46H511.024v34.332h102.205v34.332H476.956V558.789h68.137V627.454h-34.069v-34.332h-34.068v102.997h-34.068v34.332H408.82v34.333h-34.069V902.113h34.069v34.333h-68.137V867.781H238.478Zm102.205 0v-34.333h-34.068v-34.332h-34.069v34.332h-34.068v34.333h102.205ZM408.82 284.13v-17.166h-34.069v34.332h34.069V284.13Z" fill="#333"/>
  <path d="m446.887 124.308-166.071 44.903 25.236 93.335 124.554-33.678-9.464-35 41.518-11.226-15.773-58.334Z" fill="#000"/>
  <path fill="#FF1717" d="m424.297 205.534 41.518-11.226 6.31 23.334-41.519 11.226zM208.404 263.908l91.34-24.697 6.308 23.334-91.339 24.697z"/>
  <path d="M837 0H530.376v174.03h24.862v41.435h8.287v-8.287h8.287v-8.287h8.287v-8.287h8.287v-8.287h8.287v-8.287H837V0Z" fill="#fff"/>
  <path d="M586.094 55.75h25.453c5.219 0 9.703.781 13.453 2.344 3.781 1.562 6.688 3.875 8.719 6.937 2.031 3.063 3.047 6.828 3.047 11.297 0 3.656-.625 6.797-1.875 9.422a17.646 17.646 0 0 1-5.203 6.516c-2.219 1.718-4.829 3.093-7.829 4.125l-4.453 2.343h-22.125l-.093-10.968h16.453c2.468 0 4.515-.438 6.14-1.313s2.844-2.094 3.657-3.656c.843-1.563 1.265-3.375 1.265-5.438 0-2.187-.406-4.078-1.219-5.671-.812-1.594-2.046-2.813-3.703-3.657-1.656-.844-3.734-1.265-6.234-1.265h-11.391V124h-14.062V55.75ZM624.25 124l-15.562-30.422 14.859-.094 15.75 29.86V124H624.25Zm51.094-56.578L656.781 124h-14.953l25.36-68.25h9.515l-1.359 11.672ZM690.766 124l-18.61-56.578-1.5-11.672h9.61l25.5 68.25h-15Zm-.844-25.406v11.015h-36.047V98.594h36.047ZM733.047 124h-14.859l.093-10.969h14.766c3.687 0 6.797-.828 9.328-2.484 2.531-1.688 4.437-4.141 5.719-7.359 1.312-3.22 1.968-7.11 1.968-11.672v-3.329c0-3.5-.374-6.578-1.124-9.234-.719-2.656-1.797-4.89-3.235-6.703a13.523 13.523 0 0 0-5.297-4.078c-2.094-.938-4.5-1.406-7.218-1.406h-15.282V55.75h15.282c4.562 0 8.734.781 12.515 2.344 3.813 1.531 7.109 3.734 9.891 6.61 2.781 2.874 4.922 6.312 6.422 10.312 1.531 3.968 2.296 8.39 2.296 13.265v3.235c0 4.843-.765 9.265-2.296 13.265-1.5 4-3.641 7.438-6.422 10.313-2.75 2.844-6.047 5.047-9.891 6.609-3.812 1.531-8.031 2.297-12.656 2.297Zm-6.891-68.25V124h-14.062V55.75h14.062Zm62.766 0-1.547 47.391h-11.25l-1.594-47.391h14.391Zm-14.766 62.062c0-2 .688-3.656 2.063-4.968 1.406-1.344 3.25-2.016 5.531-2.016 2.312 0 4.156.672 5.531 2.016 1.375 1.312 2.063 2.968 2.063 4.968 0 1.938-.688 3.579-2.063 4.922-1.375 1.344-3.219 2.016-5.531 2.016-2.281 0-4.125-.672-5.531-2.016-1.375-1.343-2.063-2.984-2.063-4.922Z" fill="#000"/>
</svg>