<svg width="1049" height="792" viewBox="0 0 1049 792" fill="none" xmlns="http://www.w3.org/2000/svg">
<path d="M218 409C218 351.562 171.438 305 114 305C56.5624 305 10 351.562 10 409C10 466.438 56.5624 513 114 513" stroke="black" stroke-width="20" stroke-linecap="round" stroke-linejoin="round"/>
<path d="M522 407C522 349.562 528.562 283 586 283C626 283 648 313.562 648 371C648 453 636 481 626 511" stroke="#F81818" stroke-width="20" stroke-linecap="round" stroke-linejoin="round"/>
<path d="M218 409C218 351.562 211.438 285 154 285C114 285 92 315.562 92 373C92 455 104 483 114 513" stroke="#F81818" stroke-width="20" stroke-linecap="round" stroke-linejoin="round"/>
<path d="M628 513C685.438 513 732 466.438 732 409C732 351.562 685.438 305 628 305C570.562 305 524 351.562 524 409" stroke="black" stroke-width="20" stroke-linecap="round" stroke-linejoin="round"/>
<path d="M539 647C552.807 647 564 635.807 564 622C564 608.193 552.807 597 539 597C525.193 597 514 608.193 514 622C514 635.807 525.193 647 539 647Z" fill="black"/>
<path d="M203 647C216.807 647 228 635.807 228 622C228 608.193 216.807 597 203 597C189.193 597 178 608.193 178 622C178 635.807 189.193 647 203 647Z" fill="black"/>
<path d="M435 721C435 746.405 404.466 775 370.5 775C336.534 775 306 746.405 306 721C306 695.595 336.534 683 370.5 683C404.466 683 435 695.595 435 721Z" fill="black"/>
<rect x="366" y="251" width="10" height="63" rx="4" fill="#C4C4C4"/>
<mask id="mask0_8_10" style="mask-type:alpha" maskUnits="userSpaceOnUse" x="79" y="314" width="581" height="248">
<path d="M579.304 383.703C634.814 428.333 660 498.884 660 562L414.34 535.262C363.875 544.104 79 562 79 562C79 498.884 105.186 428.333 160.696 383.703C216.207 339.073 291.496 314 370 314C448.504 314 523.793 339.073 579.304 383.703Z" fill="#FBBC05"/>
</mask>
<g mask="url(#mask0_8_10)">
<path d="M579.304 383.562C634.814 428.102 666 498.511 666 561.5L414.217 534.706C364.133 543.489 74 561.5 74 561.5C74 498.511 105.186 428.102 160.696 383.562C216.207 339.022 291.496 314 370 314C448.504 314 523.793 339.022 579.304 383.562Z" fill="#FBBC05"/>
<path d="M360 301C382 271 193.102 297.186 148.562 352.696C104.022 408.207 79 483.496 79 562C79 640.504 104.022 715.793 148.562 771.304C193.102 826.814 297.011 857 360 857C360 857 248 733 242 562C236 391 338 331 360 301Z" fill="#4285F4"/>
<path d="M393.775 316.581C371.775 286.581 560.673 312.767 605.213 368.277C649.753 423.788 674.775 499.077 674.775 577.581C674.775 656.085 649.753 731.374 605.213 786.885C560.673 842.395 456.764 872.581 393.775 872.581C393.775 872.581 505.775 748.581 511.775 577.581C517.775 406.581 415.775 346.581 393.775 316.581Z" fill="#EA4335"/>
</g>
<path d="M666 561.5C666 575.583 533.476 548 370 548C206.524 548 74 575.583 74 561.5C74 547.417 206.524 512 370 512C533.476 512 666 547.417 666 561.5Z" fill="#34A853"/>
<ellipse cx="371.5" cy="312.5" rx="20.5" ry="7.5" fill="#A40606"/>
<rect x="360" y="291" width="22" height="12" rx="4" fill="#EA4335"/>
<rect x="360" y="277" width="22" height="12" rx="4" fill="#F65314"/>
<path d="M360 267C360 264.791 361.791 263 364 263H378C380.209 263 382 264.791 382 267V271C382 273.209 380.209 275 378 275H364C361.791 275 360 273.209 360 271V267Z" fill="#FFBB00"/>
<path d="M177.178 287.422C171.678 297.422 173.039 321.922 224.678 321.922C293.678 321.922 364.178 298.922 364.178 290.422C364.178 281.922 353.178 283.422 270.678 280.422C219.039 280.422 182.678 277.422 177.178 287.422Z" fill="#00A1F1"/>
<path d="M565 278.5C570.5 268.5 569.139 244 517.5 244C448.5 244 378 267 378 275.5C378 284 389 282.5 471.5 285.5C523.139 285.5 559.5 288.5 565 278.5Z" fill="#00A1F1"/>
<path d="M159 589C173.544 565.549 204.436 558.386 228 573" stroke="black" stroke-width="20" stroke-linecap="round"/>
<path d="M575.818 565.744C545.032 536.244 509.532 585.244 509.532 585.244C509.532 585.244 493.032 606.244 483.032 585.244" stroke="black" stroke-width="20" stroke-linecap="round"/>
<circle cx="569" cy="491" r="25" fill="white" stroke="black" stroke-width="10"/>
<path d="M1027.23 190.541L1025.54 192.915L1026.77 195.555C1034.36 211.814 1037.01 230.55 1033.19 249.497C1023.69 296.597 977.805 327.08 930.705 317.581C923.052 316.038 915.846 313.537 909.18 310.231L906.965 309.132L904.747 310.226C888.103 318.435 868.724 321.404 849.121 317.451C826.311 312.851 807.406 299.726 795.04 282.051L793.041 279.193L789.668 280.083C777.213 283.369 763.832 283.929 750.336 281.207C703.235 271.709 672.753 225.826 682.251 178.726C685.385 163.184 692.474 149.464 702.256 138.388L704.171 136.22L703.246 133.48C698.521 119.478 697.304 104.083 700.438 88.5414C709.936 41.4408 755.819 10.9583 802.92 20.4567C809.415 21.7667 815.589 23.7665 821.383 26.3629L824.225 27.6363L826.621 25.6474C846.171 9.42092 872.601 1.86472 899.43 7.27508C925.597 12.552 946.633 29.0519 958.541 50.7705L959.848 53.1536L962.558 53.3531C966.18 53.6197 969.828 54.116 973.486 54.8536C1020.59 64.3521 1051.07 110.235 1041.57 157.335C1039.08 169.697 1034.08 180.902 1027.23 190.541Z" fill="white" stroke="black" stroke-width="10"/>
<path d="M920.636 203.869L804.269 180.402L800.75 197.85L917.117 221.316L920.636 203.869Z" fill="#FF1E1E"/>
<path fill-rule="evenodd" clip-rule="evenodd" d="M962.659 155.906C982.459 179.624 989.688 212.263 984.283 239.068L903.106 222.698L906.324 206.74C908.172 197.574 902.241 188.645 893.074 186.796L836.293 175.346C827.127 173.497 818.198 179.429 816.35 188.595L813.132 204.554L732.354 188.264C737.76 161.459 757.074 134.172 784.519 119.982C811.964 105.791 846.151 101.604 879.559 108.341C912.966 115.078 942.859 132.188 962.659 155.906Z" fill="black"/>
<circle cx="666" cy="449" r="36" fill="white" stroke="black" stroke-width="10"/>
<circle cx="758.5" cy="373.5" r="46.5" fill="white" stroke="black" stroke-width="10"/>
<line x1="134.917" y1="577.869" x2="170.33" y2="546.427" stroke="black" stroke-width="20" stroke-linecap="round"/>
<line x1="10" y1="-10" x2="57.3573" y2="-10" transform="matrix(-0.747794 -0.663931 -0.663931 0.747794 601.369 591.721)" stroke="black" stroke-width="20" stroke-linecap="round"/>
</svg>
