<svg class="bear" fill="none" xmlns="http://www.w3.org/2000/svg" viewBox="0 296 742 480">
  <path class="bear__ear bear__ear--left" d="M218 409c0-57.438-46.562-104-104-104S10 351.562 10 409s46.562 104 104 104" stroke="#000" stroke-width="20" stroke-linecap="round" stroke-linejoin="round"/>
  <path class="bear__ear bear__ear--squished bear__ear--squished-right" d="M522 407C522 349.562 528.562 283 586 283C626 283 648 313.562 648 371C648 453 636 481 626 511" stroke="#F81818" stroke-width="20" stroke-linecap="round" stroke-linejoin="round"/>
  <path class="bear__ear bear__ear--squished bear__ear--squished-left" d="M218 409C218 351.562 211.438 285 154 285C114 285 92 315.562 92 373C92 455 104 483 114 513" stroke="#F81818" stroke-width="20" stroke-linecap="round" stroke-linejoin="round"/>
  <!-- <path d="M522 407c0-57.438 6.562-124 64-124 40 0 62 30.562 62 88 0 82-12 110-22 140M218 409c0-57.438-6.562-124-64-124-40 0-62 30.562-62 88 0 82 12 110 22 140" stroke="#F81818" stroke-width="20" stroke-linecap="round" stroke-linejoin="round"/> -->
  <path class="bear__ear bear__ear--right" d="M628 513c57.438 0 104-46.562 104-104s-46.562-104-104-104-104 46.562-104 104" stroke="#000" stroke-width="20" stroke-linecap="round" stroke-linejoin="round"/>
  <!-- <path d="M539 647c13.807 0 25-11.193 25-25s-11.193-25-25-25-25 11.193-25 25 11.193 25 25 25ZM203 647c13.807 0 25-11.193 25-25s-11.193-25-25-25-25 11.193-25 25 11.193 25 25 25ZM435 721c0 25.405-30.534 54-64.5 54S306 746.405 306 721s30.534-38 64.5-38 64.5 12.595 64.5 38Z" fill="#000"/> -->
  <g class="bear__eyes">
    <path class="bear__eye" d="M539 647C552.807 647 564 635.807 564 622C564 608.193 552.807 597 539 597C525.193 597 514 608.193 514 622C514 635.807 525.193 647 539 647Z" fill="black"/>
    <path class="bear__eye" d="M203 647C216.807 647 228 635.807 228 622C228 608.193 216.807 597 203 597C189.193 597 178 608.193 178 622C178 635.807 189.193 647 203 647Z" fill="black"/>
  </g>
  <path class="bear__nose" d="M435 721C435 746.405 404.466 775 370.5 775C336.534 775 306 746.405 306 721C306 695.595 336.534 683 370.5 683C404.466 683 435 695.595 435 721Z" fill="black"/>
  <!-- <g class="bear__cap cap">
    <rect class="cap__spindle" x="366" y="251" width="10" height="63" rx="4" fill="#C4C4C4"/>
    <mask id="a" style="mask-type:alpha" maskUnits="userSpaceOnUse" x="79" y="314" width="581" height="248">
      <path d="M579.304 383.703C634.814 428.333 660 498.884 660 562l-245.66-26.738C363.875 544.104 79 562 79 562c0-63.116 26.186-133.667 81.696-178.297C216.207 339.073 291.496 314 370 314c78.504 0 153.793 25.073 209.304 69.703Z" fill="#FBBC05"/>
    </mask>
    <g class="cap__main" mask="url(#a)">
      <path d="M579.304 383.562C634.814 428.102 666 498.511 666 561.5l-251.783-26.794C364.133 543.489 74 561.5 74 561.5c0-62.989 31.186-133.398 86.696-177.938C216.207 339.022 291.496 314 370 314c78.504 0 153.793 25.022 209.304 69.562Z" fill="#FBBC05"/>
      <path d="M360 301c22-30-166.898-3.814-211.438 51.696C104.022 408.207 79 483.496 79 562c0 78.504 25.022 153.793 69.562 209.304C193.102 826.814 297.011 857 360 857c0 0-112-124-118-295s96-231 118-261Z" fill="#4285F4"/>
      <path d="M393.775 316.581c-22-30 166.898-3.814 211.438 51.696 44.54 55.511 69.562 130.8 69.562 209.304 0 78.504-25.022 153.793-69.562 209.304-44.54 55.51-148.449 85.696-211.438 85.696 0 0 112-124 118-295s-96-231-118-261Z" fill="#EA4335"/>
    </g>
    <path class="cap__brim" d="M666 561.5c0 14.083-132.524-13.5-296-13.5S74 575.583 74 561.5c0-14.083 132.524-49.5 296-49.5s296 35.417 296 49.5Z" fill="#34A853"/>
    <ellipse class="cap__top" cx="371.5" cy="312.5" rx="20.5" ry="7.5" fill="#A40606"/>
    <rect class="cap__bead" x="360" y="291" width="22" height="12" rx="4" fill="#EA4335"/>
    <rect class="cap__bead" x="360" y="277" width="22" height="12" rx="4" fill="#F65314"/>
    <path class="cap__bead" d="M360 267a4 4 0 0 1 4-4h14a4 4 0 0 1 4 4v4a4 4 0 0 1-4 4h-14a4 4 0 0 1-4-4v-4Z" fill="#FB0"/>
    <!-- <path class="cap__propellor" d="M177.178 287.422c-5.5 10-4.139 34.5 47.5 34.5 69 0 139.5-23 139.5-31.5s-11-7-93.5-10c-51.639 0-88-3-93.5 7ZM565 278.5c5.5-10 4.139-34.5-47.5-34.5-69 0-139.5 23-139.5 31.5s11 7 93.5 10c51.639 0 88 3 93.5-7Z" fill="#00A1F1"/> -->
  </g> -->
  <g class="bear__speech-bubble speech_bubble">
    <g class="speech-bubble__bubble">
      <path d="m1027.23 190.541-1.69 2.374 1.23 2.64c7.59 16.259 10.24 34.995 6.42 53.942-9.5 47.1-55.385 77.583-102.485 68.084a87.133 87.133 0 0 1-21.525-7.35l-2.215-1.099-2.218 1.094c-16.644 8.209-36.023 11.178-55.626 7.225-22.81-4.6-41.715-17.725-54.081-35.4l-1.999-2.858-3.373.89c-12.455 3.286-25.836 3.846-39.332 1.124-47.101-9.498-77.583-55.381-68.085-102.481 3.134-15.542 10.223-29.262 20.005-40.338l1.915-2.168-.925-2.74c-4.725-14.002-5.942-29.397-2.808-44.939 9.498-47.1 55.381-77.583 102.482-68.084a87.314 87.314 0 0 1 18.463 5.906l2.842 1.273 2.396-1.989c19.55-16.226 45.98-23.782 72.809-18.372 26.167 5.277 47.203 21.777 59.111 43.495l1.307 2.384 2.71.2c3.622.266 7.27.762 10.928 1.5 47.104 9.498 77.584 55.381 68.084 102.481-2.49 12.362-7.49 23.567-14.34 33.206Z" fill="#fff" stroke="#000" stroke-width="10"/>
      <g class="thought-bubble__hat">
        <path d="m920.636 203.869-116.367-23.467-3.519 17.448 116.367 23.466 3.519-17.447Z" fill="#FF1E1E"/>
        <path fill-rule="evenodd" clip-rule="evenodd" d="M962.659 155.906c19.8 23.718 27.029 56.357 21.624 83.162l-81.177-16.37 3.218-15.958c1.848-9.166-4.083-18.095-13.25-19.944l-56.781-11.45c-9.166-1.849-18.095 4.083-19.943 13.249l-3.218 15.959-80.778-16.29c5.406-26.805 24.72-54.092 52.165-68.282 27.445-14.191 61.632-18.378 95.04-11.641 33.407 6.737 63.3 23.847 83.1 47.565Z" fill="#000"/>
      </g>
      <text x="920" y="220" fill="black" font-size="140" font-family="sans-serif">?</text>
    </g>
    <circle class="speech-bubble__dot" cx="569" cy="491" r="25" fill="#fff" stroke="#000" stroke-width="10"/>
    <circle class="speech-bubble__dot" cx="666" cy="449" r="36" fill="#fff" stroke="#000" stroke-width="10"/>
    <circle class="speech-bubble__dot" cx="758.5" cy="373.5" r="46.5" fill="#fff" stroke="#000" stroke-width="10"/>
  </g>
  <path class="bear__brows bear__brows--confused" d="M159 589c14.544-23.451 45.436-30.614 69-16M575.818 565.744c-30.786-29.5-66.286 19.5-66.286 19.5s-16.5 21-26.5 0" stroke="#000" stroke-width="20" stroke-linecap="round"/>
  <path class="bear__brows bear__brows--shocked" stroke="#000" stroke-width="20" stroke-linecap="round" d="m134.917 577.869 35.413-31.442M600.53 577.604l-35.413-31.442"/>
</svg>