<?xml version="1.0" encoding="UTF-8" standalone="no"?>
<svg
   xmlns:dc="http://purl.org/dc/elements/1.1/"
   xmlns:cc="http://creativecommons.org/ns#"
   xmlns:rdf="http://www.w3.org/1999/02/22-rdf-syntax-ns#"
   xmlns:svg="http://www.w3.org/2000/svg"
   xmlns="http://www.w3.org/2000/svg"
   id="svg8"
   version="1.1"
   viewBox="0 0 762 52.916672"
   height="200.00002"
   width="2880">
  <defs
     id="defs2" />
  <metadata
     id="metadata5">
    <rdf:RDF>
      <cc:Work
         rdf:about="">
        <dc:format>image/svg+xml</dc:format>
        <dc:type
           rdf:resource="http://purl.org/dc/dcmitype/StillImage" />
        <dc:title></dc:title>
      </cc:Work>
    </rdf:RDF>
  </metadata>
  <g
     transform="translate(376.46429,-238.03572)"
     id="layer1">
    <path
       id="rect816"
       d="m -376.46429,238.03572 c 22.86329,0 40.63671,25.92917 63.5,25.92917 22.86329,0 40.63671,-25.92917 63.5,-25.92917 22.86329,0 40.63671,25.92917 63.5,25.92917 22.86329,0 40.63671,-25.92917 63.5,-25.92917 22.863293,0 40.636707,25.92917 63.5,25.92917 22.863293,0 40.636707,-25.92917 63.5,-25.92917 22.863293,0 40.636707,25.92917 63.5,25.92917 22.863293,0 40.63671,-25.92917 63.5,-25.92917 22.86329,0 40.63671,25.92917 63.5,25.92917 22.86329,0 40.63671,-25.92917 63.5,-25.92917 22.86329,0 40.63671,25.92917 63.5,25.92917 22.86329,0 40.63671,-25.92917 63.5,-25.92917 0,52.91667 0,52.91667 0,52.91667 h -762 z"
       style="opacity:1;fill:#800080;fill-opacity:1;fill-rule:nonzero;stroke:none;stroke-width:1.30113518;stroke-linecap:round;stroke-linejoin:round;stroke-miterlimit:4;stroke-dasharray:none;stroke-dashoffset:0;stroke-opacity:1" />
  </g>
</svg>
