<svg
  class='doge'
  preserveAspectRatio='xMinYMin'
  viewBox="0 0 160 195">
  <g
     transform="translate(-39.326172,-819.79605)"
     id="layer1">
    <circle
       r="35"
       transform="matrix(0.97956804,0.20111306,-0.20111308,0.97956803,0,0)"
       cy="918.52612"
       cx="278.05399"
       id="path4143"
       style="fill:#ffeeaa;fill-opacity:1;stroke:none;stroke-width:6;stroke-linecap:round;stroke-linejoin:round;stroke-miterlimit:4;stroke-dasharray:none;stroke-opacity:1" />
  </g>
  <g
     transform="translate(-39.326172,-17.433891)"
     id="layer2">
    <g
       transform="translate(1.8142822,-2.2310255)"
       id="g4418">
      <g
         transform="translate(0,-802.36216)"
         id="g4340">
        <g
           id="g4309">
          <g
             id="g4302">
            <path
               style="fill:#d5a63f;fill-opacity:1;stroke:none;stroke-width:1;stroke-linecap:round;stroke-linejoin:round;stroke-miterlimit:4;stroke-dasharray:none;stroke-opacity:1"
               d="m 194.16385,949.7082 c -10.33828,48.75692 -40.33944,71.0863 -89.35703,63.7067 -61.823329,-9.3075 -65.480121,-81.31289 -65.480121,-81.31289 0,0 5.673303,-64.73985 34.059291,-65.08683 C 85.577832,851.19471 120,832.36216 137.82287,848.64293 160,837.36216 204.50213,900.95128 194.16385,949.7082 Z"
               id="ellipse4198" />
            <g
               id="g4294"
               transform="translate(0,802.36216)">
              <path
                 style="fill:#d5a63f;fill-opacity:1;stroke:none;stroke-width:1;stroke-linecap:round;stroke-linejoin:round;stroke-miterlimit:4;stroke-dasharray:none;stroke-opacity:1"
                 d="M 185.45023,62.002254 C 185.45023,79.951509 176.90686,90 166.92346,90 156.94006,90 146.74587,83.253162 146.74587,65.303908 146.74587,47.354653 160,30 172.02602,26.050526 c 10.77402,-3.538308 13.42421,23.451728 13.42421,35.951728 z"
                 id="path4286" />
              <path
                 style="fill:#f2ca82;fill-opacity:1;stroke:none;stroke-width:1;stroke-linecap:round;stroke-linejoin:round;stroke-miterlimit:4;stroke-dasharray:none;stroke-opacity:1"
                 d="m 173.31055,30.697266 c -0.50696,-0.0053 -1.03917,0.08026 -1.59766,0.263672 -6.78549,2.228428 -11.95217,10.161835 -14.56641,19.691406 a 33.755634,36.855934 0 0 1 22.45508,25.115234 c 2.01549,-3.792183 3.2461,-8.817247 3.2461,-14.988281 0,-9.719427 -1.93269,-30.002813 -9.53711,-30.082031 z"
                 id="path4289" />
            </g>
            <path
               id="path4281"
               d="m 109.00451,50.402705 c 5.08342,6.541251 -0.41258,8.996994 -8.69685,8.996994 -8.284266,0 -15.600296,3.489382 -15.600296,-4.79489 0,-8.284271 2.813775,-32.708867 11.098046,-32.708867 8.28427,0 4.49474,17.306162 13.1991,28.506763 z"
               style="fill:#d5a63f;fill-opacity:1;stroke:none;stroke-width:1;stroke-linecap:round;stroke-linejoin:round;stroke-miterlimit:4;stroke-dasharray:none;stroke-opacity:1"
               transform="translate(0,802.36216)" />
          </g>
          <path
             style="fill:#ffe7b5;fill-opacity:1;stroke:none;stroke-width:1.0973618;stroke-linecap:round;stroke-linejoin:round;stroke-miterlimit:4;stroke-dasharray:none;stroke-opacity:1"
             d="m 57.294922,83.326172 c 1.432592,-7.202085 -9.652131,10.678951 -12.712891,17.935548 -4.04794,14.80843 -5.255859,28.47851 -5.255859,28.47851 0,0 3.65714,72.005 65.480468,81.3125 49.01759,7.3796 79.01914,-14.95011 89.35742,-63.70703 0.14574,-0.6873 0.27819,-1.37736 0.40235,-2.07031 C 189.52944,124.68386 174.69076,112.28897 140.42969,103.2793 115,110 114.83423,116.14378 94.636658,124.40789 51.296483,109.66972 50,120 57.294922,83.326172 Z"
             transform="translate(0,802.36216)"
             id="path4252" />
        </g>
        <g
           id="g4318"
           transform="translate(0,802.36216)">
          <path
             style="fill:#f2ca82;fill-opacity:1;stroke:none;stroke-width:1.12960517;stroke-linecap:round;stroke-linejoin:round;stroke-miterlimit:4;stroke-dasharray:none;stroke-opacity:1"
             d="m 150.17924,106.73821 c -0.73108,7.55035 -11.60938,11.79385 -19.1816,12.24529 -5.99608,0.35748 -13.10022,-2.69833 -16.23349,-7.82312 -6.4882,-10.61211 -10.58835,-32.544468 0.9033,-37.304248 14.68011,-6.08042 36.04316,17.066516 34.51179,32.882078 z"
             id="path4179" />
          <g
             id="g4212">
            <path
               id="circle4183"
               d="m 138.50767,94.25472 c 0,3.883252 -6.09611,5.557193 -9.97936,5.557193 -3.88325,0 -8.80012,0.389737 -8.80012,-3.493514 0,-3.883252 5.21168,-9.094929 9.09493,-9.094929 3.88325,0 9.68455,3.147997 9.68455,7.03125 z"
               style="fill:#ffffff;fill-opacity:1;stroke:#000000;stroke-width:0.9375;stroke-linecap:round;stroke-linejoin:round;stroke-miterlimit:4;stroke-dasharray:none;stroke-opacity:1" />
            <path
               style="fill:#000000;fill-opacity:1;stroke:#000000;stroke-width:0.68710798;stroke-linecap:round;stroke-linejoin:round;stroke-miterlimit:4;stroke-dasharray:none;stroke-opacity:1"
               d="m 136.73528,94.101972 c 0,3.056884 -2.29819,4.784604 -4.94803,4.784608 -2.64984,3e-6 -4.94803,-1.877794 -4.94803,-4.934683 0,-3.056889 2.2982,-6.285362 4.94803,-6.285359 2.64984,3e-6 4.94803,3.378549 4.94803,6.435434 z"
               id="circle4185" />
          </g>
        </g>
        <g
           id="g4324"
           transform="translate(0,802.36216)">
          <path
             id="path4192"
             d="M 78.245278,99.073116 C 74.431623,103.43572 67.218241,109.08623 62.306602,106.0118 58.176786,103.42675 53.586389,98.680349 61.698112,91.408022 80,75 71.179245,65.294811 87.660375,65.896226 c 8.331717,13.529953 -1.849233,24.521966 -9.415097,33.17689 z"
             style="fill:#f2ca82;fill-opacity:1;stroke:none;stroke-width:1.12960517;stroke-linecap:round;stroke-linejoin:round;stroke-miterlimit:4;stroke-dasharray:none;stroke-opacity:1" />
          <g
             id="g4216">
            <path
               id="path4181"
               d="m 84.55719,85.410378 c 0,3.883252 -3.147998,7.03125 -7.03125,7.03125 -3.883252,0 -7.326061,-1.968753 -7.326061,-5.852005 0,-3.883252 2.558375,-6.736438 6.441627,-6.736438 3.883252,0 7.915684,1.673941 7.915684,5.557193 z"
               style="fill:#ffffff;fill-opacity:1;stroke:#000000;stroke-width:0.9375;stroke-linecap:round;stroke-linejoin:round;stroke-miterlimit:4;stroke-dasharray:none;stroke-opacity:1" />
            <path
               id="circle4188"
               d="m 84.697578,87.031837 c 0,3.065279 -2.251745,4.960556 -4.665744,4.960556 -2.414,0 -4.076122,-1.895277 -4.076122,-4.960556 0,-3.065279 1.956934,-5.550178 4.370933,-5.550178 2.413999,0 4.370933,2.484899 4.370933,5.550178 z"
               style="fill:#000000;fill-opacity:1;stroke:#000000;stroke-width:0.65671855;stroke-linecap:round;stroke-linejoin:round;stroke-miterlimit:4;stroke-dasharray:none;stroke-opacity:1" />
          </g>
        </g>
      </g>
      <g
         id="g4384">
        <g
           id="g4360">
          <path
             id="path4259"
             d="m 112.71813,146.67155 c 0,8.63259 -31.806738,13.14867 -41.133068,13.14867 -9.326329,0 -26.820817,-13.22415 -19.789017,-16.49921"
             style="fill:#e6e6e6;fill-opacity:1;stroke:none;stroke-width:0.66927594;stroke-linecap:round;stroke-linejoin:round;stroke-miterlimit:4;stroke-dasharray:none;stroke-opacity:1" />
          <g
             id="g4220"
             transform="matrix(0.82176688,0,0,0.85242584,8.0449162,16.744566)">
            <path
               style="fill:#ffffff;fill-opacity:1;stroke:none;stroke-width:1;stroke-linecap:round;stroke-linejoin:round;stroke-miterlimit:4;stroke-dasharray:none;stroke-opacity:1"
               d="m 43.482148,131.14423 c -7.3e-4,11.34588 13.186654,19.26257 23.472477,24.03006 2.695602,1.24941 6.017331,0.10474 8.943595,0.699 6.709013,1.36246 12.539457,7.2371 19.423576,6.50606 28.547124,-3.03148 47.052444,-15.25706 42.487044,-32.01837 -5.10402,-18.7388 -30.55848,-21.45889 -59.614222,-8.68144 -27.139891,-35.741936 -34.712122,-1.88046 -34.71247,9.46469 z"
               id="path4257" />
            <path
               id="path4156"
               d="m 53.554706,147.82599 c 9.668922,8.49897 8.590348,5.60379 13.399919,7.3483 4.329085,1.57023 9.116353,1.56726 13.592468,2.69085 4.999623,1.255 9.61039,4.375 14.774703,4.51421 3.891418,0.1049 5.988334,1.30511 11.312824,-2.79649"
               style="fill:none;fill-opacity:1;stroke:#000000;stroke-width:1;stroke-linecap:round;stroke-linejoin:round;stroke-miterlimit:4;stroke-dasharray:none;stroke-opacity:1" />
            <path
               id="path4208"
               d="m 87.800708,160 c 2.689345,0.79653 2.722817,1.70732 -6.686161,-1.04363 C 67.582707,155 66.802624,155.65906 69.557783,155.87264 c 5.834747,0.45232 4.429974,1.65309 8.57211,1.65309 4.142136,0 -2.737363,-1.20077 9.670815,2.47427 z"
               style="fill:#000000;fill-opacity:1;stroke:none;stroke-width:1;stroke-linecap:round;stroke-linejoin:round;stroke-miterlimit:4;stroke-dasharray:none;stroke-opacity:1" />
          </g>
          <ellipse
             style="fill:#000000;fill-opacity:1;stroke:#000000;stroke-width:1.42546189;stroke-linecap:round;stroke-linejoin:round;stroke-miterlimit:4;stroke-dasharray:none;stroke-opacity:1"
             id="path4174"
             cx="71.136024"
             cy="123.74771"
             rx="16.136024"
             ry="12.078852" />
          <circle
             style="fill:#000000;fill-opacity:1;stroke:none;stroke-width:1;stroke-linecap:round;stroke-linejoin:round;stroke-miterlimit:4;stroke-dasharray:none;stroke-opacity:1"
             id="path4267"
             cx="89.984055"
             cy="130.84558"
             r="1.5" />
          <circle
             r="1.5"
             cy="137.00049"
             cx="86.163765"
             id="circle4269"
             style="fill:#000000;fill-opacity:1;stroke:none;stroke-width:1;stroke-linecap:round;stroke-linejoin:round;stroke-miterlimit:4;stroke-dasharray:none;stroke-opacity:1" />
          <circle
             style="fill:#000000;fill-opacity:1;stroke:none;stroke-width:1;stroke-linecap:round;stroke-linejoin:round;stroke-miterlimit:4;stroke-dasharray:none;stroke-opacity:1"
             id="circle4271"
             cx="95.502251"
             cy="137.00049"
             r="1.5" />
          <circle
             r="1.5"
             cy="125.9641"
             cx="50.083252"
             id="circle4273"
             style="fill:#000000;fill-opacity:1;stroke:none;stroke-width:1;stroke-linecap:round;stroke-linejoin:round;stroke-miterlimit:4;stroke-dasharray:none;stroke-opacity:1" />
          <circle
             r="1.5"
             cy="121.08261"
             cx="52.630112"
             id="circle4275"
             style="fill:#000000;fill-opacity:1;stroke:none;stroke-width:1;stroke-linecap:round;stroke-linejoin:round;stroke-miterlimit:4;stroke-dasharray:none;stroke-opacity:1" />
        </g>
        <path
           id="path4277"
           d="m 70,135 0,15"
           style="fill:none;fill-rule:evenodd;stroke:#000000;stroke-width:1px;stroke-linecap:butt;stroke-linejoin:miter;stroke-opacity:1" />
      </g>
    </g>
  </g>
</svg>
