<?xml version="1.0" encoding="UTF-8" standalone="no"?>
<svg
   xmlns:dc="http://purl.org/dc/elements/1.1/"
   xmlns:cc="http://creativecommons.org/ns#"
   xmlns:rdf="http://www.w3.org/1999/02/22-rdf-syntax-ns#"
   xmlns:svg="http://www.w3.org/2000/svg"
   xmlns="http://www.w3.org/2000/svg"
   version="1.1"
   id="svg2"
   viewBox="0 0 34.999998 150"
   height="150"
   width="35">
  <defs
     id="defs4" />
  <metadata
     id="metadata7">
    <rdf:RDF>
      <cc:Work
         rdf:about="">
        <dc:format>image/svg+xml</dc:format>
        <dc:type
           rdf:resource="http://purl.org/dc/dcmitype/StillImage" />
        <dc:title></dc:title>
      </cc:Work>
    </rdf:RDF>
  </metadata>
  <g
     transform="translate(-261.90253,-432.40208)"
     style="opacity:1"
     id="layer1">
    <g
       transform="translate(-3.3508303e-7,-1.945459e-4)"
       id="g4303">
      <path
         style="opacity:1;fill:#000000;fill-opacity:1;stroke:none;stroke-width:3.42972708;stroke-linecap:square;stroke-linejoin:miter;stroke-miterlimit:4;stroke-dasharray:none;stroke-opacity:1"
         d="m 100,-126.27148 c -9.695,0 -17.5,8.40675 -17.5,18.8496 l 0,85.722661 c 0,10.442858 7.805,18.8496096 17.5,18.8496096 9.695,0 17.5,-8.4067516 17.5,-18.8496096 l 0,-85.722661 c 0,-10.44285 -7.805,-18.8496 -17.5,-18.8496 z m 0,6.50781 a 10,10 0 0 1 10,10 10,10 0 0 1 -10,9.999998 10,10 0 0 1 -10,-9.999998 10,10 0 0 1 10,-10 z"
         transform="translate(179.40253,558.67396)"
         id="rect4296" />
      <rect
         style="opacity:1;fill:#cccccc;fill-opacity:1;stroke:none;stroke-width:4;stroke-linecap:square;stroke-linejoin:miter;stroke-miterlimit:4;stroke-dasharray:none;stroke-opacity:1"
         id="rect4298"
         width="34.999996"
         height="47.743256"
         x="261.90253"
         y="534.65881" />
    </g>
  </g>
</svg>
