<svg viewBox="0 0 886 563" xmlns="http://www.w3.org/2000/svg" style="fill-rule:evenodd;clip-rule:evenodd;stroke-linecap:round;stroke-linejoin:round;stroke-miterlimit:1.5">
  <g id="sloan">
    <rect width="885.705" height="562.942" style="fill:#fff"/>
    <path id="Path-4" d="M412.941 329.004s5.333-56 8-72c1.386-8.318 6.668-15.673 8-24 1.333-8.333 0-26 0-26h20s-1.218 22.733 0 34c1.333 12.334 2.667 18.667 8 40l10 38-54 10z" style="fill:#ac9279"/>
    <path id="tree" d="M266.561 193.334l37.607 4.185 45.963-10.465h129.53l22.982-12.558 37.606-43.955 12.535-35.582 16.714-23.024-6.268 16.744-6.268 20.931-4.178 14.652 35.517-29.303 8.356-23.024 6.268 6.279-6.268 10.465h20.893v6.28l-20.893 6.279-27.16 23.024-25.07 18.837-29.25 39.769 41.785-4.186 39.695-10.466 29.25-10.465 25.07-33.49 8.357 10.466-18.803 23.024h31.338l6.268 10.465-56.409 10.466 22.982 18.837 33.427 20.931 18.804 14.652v12.558l-25.07-18.838-45.963-23.023-29.25-16.745-56.408 16.745-33.428 4.186h-4.178l12.535 18.837 33.427 6.28 20.893 20.93 12.535 31.397 14.624 29.303h-8.356l-18.803-29.303-12.536-31.396-22.981-14.652-27.16-12.559-12.535-18.837-58.498 4.186h-60.588l-52.26 12.833c-14.285 1.654-24.952 2.988-32 4-7.048 1.012-15.175 2.378-24.38 4.098l-16.713 16.744-29.249 83.723-9.658 77.435-34-36-26-60.272c7.243-64.674 17.927-111.419 32.052-140.236 14.125-28.818 36.41-55.33 66.855-79.537l77.301-43.955v16.745l58.498-6.28-31.338 39.769-50.141 29.303-37.606 62.792-.001.001z" style="fill:#786555"/>
    <g id="sloth">
      <path id="Path-10" d="M524.787 329.234v-24.5l22.154-32.037 12.923-13.193 1.846-3.77s6.066-7.855 4.22-11.31-16.268-9.205-16.268-9.205l-8.259 12.977-24 22.616-12.924 15.077s-4.344 6.838-7.384 9.423c-3.692 3.141-11.168 4.827-14.77 9.423-3.692 4.712-7.384 18.846-7.384 18.846l14.77 3.77 18.46 5.653 16.616-3.77z" style="fill:#ac9279"/>
      <path id="Path-2" d="M295.2 228.283s-.549 30.809-4.259 42.575c-3.338 10.589-18 28.023-18 28.023-5.333 10.675-6.969 14.277-8 22.017-1.333 10.008-1.333 25.687 0 38.03 1.321 12.232 7.762 37.887 10.144 41.431 5.1 7.588 20.417 24.766 21.978 26.017 3.336 2.673 29.878 18.622 31.878 18.622s22 8.006 28 8.006 38-2.002 44-4.003c6-2.002 26-12.01 32-14.011 4-1.335 20.667-11.343 50-30.024l20-10.008c14.667-1.335 23.333-2.67 26-4.004 4-2.001 26-20.016 26-22.017 0-1.335 2-6.005 6-14.011v-15.012c-16-12.677-25.333-19.016-28-19.016-2.667 0-12.667 2.002-30 6.005-11.936-7.713-23.936-11.049-36-10.008-26.603 2.295-53.27 8.967-80 20.016l-26 3.003s12.708-14.273 16-23.019c4.333-11.509 10-46.037 10-46.037l-.135-83.367s-14.101-4.201-18.101-.198c-2.667 2.669-1.764 1.5-1.764 17.513l-10 32.025s-8.333 27.689-14 38.03c-5.006 9.138-20 24.02-20 24.02 4-13.344 6-21.35 6-24.02 0-2.667-5.941-19.12-9.941-49.69l-23.8 3.112z" style="fill:#ac9279"/>
      <path id="Oval-Copy" d="M437.882 205.004c6.608 0 11.965-6.267 11.965-13.998 0-4.16 2.462-9.434 0-11.998-2.114-2.2-8.913-2-11.965-2-3.276 0-9.804 1.504-11.964 4-2.198 2.538 0 6.1 0 9.998 0 7.731 5.356 13.998 11.964 13.998z" style="fill:#ac9279"/>
      <path d="M433.933 197.596c-.288-.022-2.047-.256-2.846.895-1.215 1.752-1.572 5.07-1.86 6.259-.479 1.969.988 4.916 1.398 5.501 1.675 2.392 2.968-2.655 3.16-5.973.117-2.017.875-6.627.148-6.682zM441.223 198.114c.288-.022 2.047-.255 2.846.896 1.215 1.752 1.572 5.069 1.86 6.258.479 1.969-.988 4.916-1.398 5.501-1.675 2.393-2.968-2.654-3.16-5.973-.117-2.016-.875-6.626-.148-6.682zM439.184 198.184c-.288 0-2.047-.098-2.845 1.115-1.216 1.846-1.573 5.191-1.861 6.402-.479 2.006.988 4.84 1.398 5.393 1.675 2.264 2.968-2.883 3.16-6.216.117-2.026.875-6.694.148-6.694z" style="fill:#f8f8d0;stroke:#ac9279;stroke-width:1px"/>
      <g>
        <path id="Oval" d="M304.882 213.004c6.608 0 11.965-6.267 11.965-13.998 0-4.16 2.462-9.434 0-11.998-2.114-2.2-8.913-2-11.965-2-3.276 0-9.804 1.504-11.964 4-2.198 2.538 0 6.1 0 9.998 0 7.731 5.356 13.998 11.963 13.998h.001z" style="fill:#ac9279"/>
        <path d="M299.936 205.413c-.288-.022-2.047-.256-2.846.895-1.215 1.752-1.572 5.07-1.86 6.258-.479 1.97.988 4.917 1.398 5.502 1.675 2.392 2.968-2.655 3.16-5.974.117-2.016.875-6.626.148-6.681zM307.226 205.931c.288-.022 2.047-.256 2.846.896 1.215 1.752 1.572 5.069 1.86 6.258.479 1.969-.988 4.916-1.398 5.501-1.675 2.393-2.968-2.654-3.16-5.973-.117-2.017-.875-6.626-.148-6.682zM305.187 206.001c-.288 0-2.047-.098-2.845 1.115-1.216 1.846-1.573 5.191-1.861 6.401-.479 2.006.988 4.841 1.398 5.394 1.675 2.263 2.968-2.883 3.16-6.217.117-2.025.875-6.693.148-6.693z" style="fill:#f8f8d0;stroke:#ac9279;stroke-width:1px"/>
      </g>
    </g>
    <g id="face">
      <g id="Group">
        <path id="Oval-7" d="M568.984 357.885c-6.567 26.339-28.54 43.575-49.036 38.464-20.497-5.11-31.806-30.643-25.238-56.983 6.567-26.339 28.539-43.574 49.035-38.464 20.497 5.11 31.806 30.643 25.239 56.983z" style="fill:#ac9279"/>
        <path id="Oval-71" d="M564.803 357.566c-5.865 23.522-25.594 38.887-44.03 34.29-18.435-4.597-28.642-27.425-22.777-50.946 5.865-23.522 25.593-38.887 44.029-34.29 18.436 4.596 28.642 27.425 22.778 50.946z" style="fill:#dcccbc"/>
        <path id="Oval-6" d="M525.205 326.341c-1.831 7.345 2.735 14.807 10.199 16.668 7.464 1.861 15-2.584 16.831-9.928 1.83-7.347-5.826-25.368-13.29-27.229-4.005-.999-20.031 1.318-21.575 6.032-1.334 4.071 8.684 11.054 7.835 14.457z" style="fill:#b19d87"/>
        <path id="Oval-6-Copy" d="M518.34 368.855c1.831-7.344 9.366-11.79 16.831-9.929 7.463 1.861 12.03 9.324 10.199 16.668-1.833 7.346-17.054 19.663-24.517 17.803-4.006-.999-17.425-9.135-16.575-14.023.733-4.222 13.213-7.115 14.062-10.518v-.001z" style="fill:#b19d87"/>
      </g>
      <path id="Oval-8" d="M545.653 334.374c-.745 2.99-4.182 4.711-7.67 3.841-3.488-.869-5.714-4.003-4.969-6.992.746-2.99 4.183-4.711 7.67-3.841 3.488.869 5.715 4.002 4.969 6.992z" style="fill:#533e2e"/>
      <path id="Oval-8-Copy" d="M538.455 370.936c-.745 2.989-4.182 4.711-7.67 3.841-3.488-.87-5.714-4.003-4.969-6.992.746-2.99 4.182-4.711 7.67-3.842 3.488.87 5.715 4.003 4.969 6.993z" style="fill:#5a4737"/>
      <path id="Oval-9" d="M543.398 335.729c-.249.997-1.664 1.503-3.159 1.131-1.495-.373-2.507-1.485-2.258-2.481.248-.997 1.664-1.503 3.158-1.13 1.495.372 2.507 1.484 2.259 2.48z" style="fill:#f1f3ef"/>
      <path id="Oval-9-Copy" d="M537.55 366.875c-.248.996-1.664 1.503-3.158 1.13-1.495-.373-2.507-1.484-2.259-2.481.249-.997 1.664-1.503 3.159-1.13 1.495.372 2.507 1.484 2.258 2.481z" style="fill:#f1f3ef"/>
      <path id="Oval-10" d="M530.91 351.248c-1.068 4.284-4.544 7.112-7.757 6.31-3.213-.801-4.954-4.929-3.886-9.213 1.068-4.285 4.544-7.112 7.757-6.311 3.213.801 4.955 4.929 3.886 9.214z" style="fill:#616463"/>
      <path id="Path-16" d="M515.56 339.175c-6.772 6.158-9.771 11.564-3.077 19.845" style="fill:none;stroke:#979797;stroke-width:2px;stroke-linecap:butt;stroke-linejoin:miter;stroke-miterlimit:4"/>
    </g>
    <path d="M578.145 332.908c2.056-.167-8.189 10.707-8.189 10.707l-4.655-10.509s4.07.516 12.844-.198z" style="fill:#ac9279"/>
    <path d="M576.605 342.405c1.633-.106-6.348 8.662-6.348 8.662l-3.865-8.698s3.245.486 10.213.036z" style="fill:#ac9279"/>
  </g>
</svg>
