<svg class="sloan" viewBox="0 0 500 500" fill="none" xmlns="http://www.w3.org/2000/svg" xmlns:xlink="http://www.w3.org/1999/xlink">
  <rect width="500" height="500" fill="url(#a)"/>
  <g class="sloan__bubble">
    <path d="m247.292 126.949.284-.474V66c0-18.778 15.222-34 34-34h140c18.778 0 34 15.222 34 34v70c0 18.778-15.222 34-34 34h-140c-1.754 0-3.476-.133-5.156-.388l-.482-.073-.461.156-36.57 12.4c-10.575 3.585-19.886-7.952-14.147-17.532l22.532-37.614z" fill="#fff" stroke="#5C5C5C" stroke-width="4"/>
    <path d="m290.75 104 9.469-20.5h10.25l-14.938 29V129H286v-16.5l-14.938-29h10.282l9.406 20.5zm60.312 3.281c0 4.479-.791 8.407-2.374 11.781-1.584 3.376-3.855 5.98-6.813 7.813-2.937 1.833-6.313 2.75-10.125 2.75-3.771 0-7.135-.906-10.094-2.719-2.958-1.812-5.25-4.396-6.875-7.75-1.625-3.375-2.448-7.25-2.469-11.625v-2.25c0-4.479.803-8.416 2.407-11.812 1.625-3.417 3.906-6.031 6.843-7.844 2.959-1.833 6.334-2.75 10.126-2.75 3.791 0 7.156.917 10.093 2.75 2.959 1.813 5.24 4.427 6.844 7.844 1.625 3.396 2.437 7.323 2.437 11.781v2.031zm-9.5-2.062c0-4.771-.854-8.396-2.562-10.875-1.708-2.48-4.146-3.719-7.312-3.719-3.146 0-5.573 1.23-7.282 3.688-1.708 2.437-2.573 6.02-2.594 10.749v2.219c0 4.646.855 8.25 2.563 10.813 1.708 2.562 4.167 3.844 7.375 3.844 3.146 0 5.562-1.23 7.25-3.688 1.688-2.479 2.542-6.083 2.562-10.812v-2.219zm25.688 16.25h19.906V129h-29.281V83.5h9.375v37.969zm60.688-14.188c0 4.479-.792 8.407-2.376 11.781-1.583 3.376-3.854 5.98-6.812 7.813-2.938 1.833-6.312 2.75-10.125 2.75-3.771 0-7.135-.906-10.094-2.719-2.958-1.812-5.25-4.396-6.875-7.75-1.625-3.375-2.448-7.25-2.468-11.625v-2.25c0-4.479.802-8.416 2.406-11.812 1.625-3.417 3.906-6.031 6.844-7.844 2.958-1.833 6.333-2.75 10.124-2.75 3.792 0 7.157.917 10.094 2.75 2.959 1.813 5.24 4.427 6.844 7.844 1.625 3.396 2.438 7.323 2.438 11.781v2.031zm-9.5-2.062c0-4.771-.855-8.396-2.563-10.875-1.708-2.48-4.146-3.719-7.313-3.719-3.145 0-5.572 1.23-7.281 3.688-1.708 2.437-2.573 6.02-2.593 10.749v2.219c0 4.646.854 8.25 2.562 10.813 1.708 2.562 4.167 3.844 7.375 3.844 3.146 0 5.563-1.23 7.25-3.688 1.687-2.479 2.542-6.083 2.563-10.812v-2.219z" fill="#000"/>
  </g>
  <defs>
    <pattern id="a" patternContentUnits="objectBoundingBox" width="1" height="1">
      <use xlink:href="#b" transform="scale(.002)"/>
    </pattern>
    <image id="b" width="500" height="500" xlink:href="sloan-no-bg.png"/>
  </defs>
</svg>
