<?xml version="1.0" encoding="UTF-8" standalone="no"?>
<!DOCTYPE svg PUBLIC "-//W3C//DTD SVG 1.1//EN" "http://www.w3.org/Graphics/SVG/1.1/DTD/svg11.dtd">
<svg class="svg-saber" viewBox="0 0 141 790" version="1.1" xmlns="http://www.w3.org/2000/svg" xmlns:xlink="http://www.w3.org/1999/xlink" xml:space="preserve" xmlns:serif="http://www.serif.com/" style="fill-rule:evenodd;clip-rule:evenodd;stroke-linejoin:round;stroke-miterlimit:2;">
    <g>
        <path d="M118,502C118,494.273 111.727,488 104,488L40,488C32.273,488 26,494.273 26,502L26,776C26,783.727 32.273,790 40,790L104,790C111.727,790 118,783.727 118,776L118,502Z" style="fill:rgb(147,147,147);"/>
        <path d="M118,502C118,494.273 111.727,488 104,488L40,488C32.273,488 26,494.273 26,502L26,776C26,783.727 32.273,790 40,790L104,790C111.727,790 118,783.727 118,776L118,502Z" style="fill:url(#_Linear1);"/>
        <rect x="45" y="0" width="50" height="273"/>
        <rect x="45" y="0" width="50" height="273" style="fill:url(#_Linear2);"/>
        <rect x="26" y="210" width="93" height="200"/>
        <rect x="26" y="210" width="93" height="200" style="fill:url(#_Linear3);"/>
        <path d="M26,399.5L119,399.5L129,436L16,436L26,399.5Z" style="fill-rule:nonzero;"/>
        <path d="M26,399.5L119,399.5L129,436L16,436L26,399.5Z" style="fill:url(#_Linear4);fill-rule:nonzero;"/>
        <rect x="37" y="15" width="66" height="63" style="fill:rgb(196,196,196);"/>
        <rect x="37" y="15" width="66" height="63" style="fill:url(#_Linear5);"/>
        <rect x="26" y="8" width="88" height="59" style="fill:rgb(189,189,189);"/>
        <rect x="26" y="8" width="88" height="59" style="fill:url(#_Linear6);"/>
        <path d="M128,215.5C128,212.464 125.536,210 122.5,210L21.5,210C18.464,210 16,212.464 16,215.5C16,218.536 18.464,221 21.5,221L122.5,221C125.536,221 128,218.536 128,215.5Z" style="fill:rgb(189,189,189);"/>
        <path d="M128,215.5C128,212.464 125.536,210 122.5,210L21.5,210C18.464,210 16,212.464 16,215.5C16,218.536 18.464,221 21.5,221L122.5,221C125.536,221 128,218.536 128,215.5Z" style="fill:url(#_Linear7);"/>
        <path d="M128,236.5C128,233.464 125.536,231 122.5,231L21.5,231C18.464,231 16,233.464 16,236.5C16,239.536 18.464,242 21.5,242L122.5,242C125.536,242 128,239.536 128,236.5Z" style="fill:rgb(189,189,189);"/>
        <path d="M128,236.5C128,233.464 125.536,231 122.5,231L21.5,231C18.464,231 16,233.464 16,236.5C16,239.536 18.464,242 21.5,242L122.5,242C125.536,242 128,239.536 128,236.5Z" style="fill:url(#_Linear8);"/>
        <path d="M128,257.5C128,254.464 125.536,252 122.5,252L21.5,252C18.464,252 16,254.464 16,257.5C16,260.536 18.464,263 21.5,263L122.5,263C125.536,263 128,260.536 128,257.5Z" style="fill:rgb(189,189,189);"/>
        <path d="M128,257.5C128,254.464 125.536,252 122.5,252L21.5,252C18.464,252 16,254.464 16,257.5C16,260.536 18.464,263 21.5,263L122.5,263C125.536,263 128,260.536 128,257.5Z" style="fill:url(#_Linear9);"/>
        <path d="M128,278.5C128,275.464 125.536,273 122.5,273L21.5,273C18.464,273 16,275.464 16,278.5C16,281.536 18.464,284 21.5,284L122.5,284C125.536,284 128,281.536 128,278.5Z" style="fill:rgb(189,189,189);"/>
        <path d="M128,278.5C128,275.464 125.536,273 122.5,273L21.5,273C18.464,273 16,275.464 16,278.5C16,281.536 18.464,284 21.5,284L122.5,284C125.536,284 128,281.536 128,278.5Z" style="fill:url(#_Linear10);"/>
        <path d="M128,299.5C128,296.464 125.536,294 122.5,294L21.5,294C18.464,294 16,296.464 16,299.5C16,302.536 18.464,305 21.5,305L122.5,305C125.536,305 128,302.536 128,299.5Z" style="fill:rgb(189,189,189);"/>
        <path d="M128,299.5C128,296.464 125.536,294 122.5,294L21.5,294C18.464,294 16,296.464 16,299.5C16,302.536 18.464,305 21.5,305L122.5,305C125.536,305 128,302.536 128,299.5Z" style="fill:url(#_Linear11);"/>
        <path d="M128,320.5C128,317.464 125.536,315 122.5,315L21.5,315C18.464,315 16,317.464 16,320.5C16,323.536 18.464,326 21.5,326L122.5,326C125.536,326 128,323.536 128,320.5Z" style="fill:rgb(189,189,189);"/>
        <path d="M128,320.5C128,317.464 125.536,315 122.5,315L21.5,315C18.464,315 16,317.464 16,320.5C16,323.536 18.464,326 21.5,326L122.5,326C125.536,326 128,323.536 128,320.5Z" style="fill:url(#_Linear12);"/>
        <path d="M128,341.5C128,338.464 125.536,336 122.5,336L21.5,336C18.464,336 16,338.464 16,341.5C16,344.536 18.464,347 21.5,347L122.5,347C125.536,347 128,344.536 128,341.5Z" style="fill:rgb(189,189,189);"/>
        <path d="M128,341.5C128,338.464 125.536,336 122.5,336L21.5,336C18.464,336 16,338.464 16,341.5C16,344.536 18.464,347 21.5,347L122.5,347C125.536,347 128,344.536 128,341.5Z" style="fill:url(#_Linear13);"/>
        <path d="M128,362.5C128,359.464 125.536,357 122.5,357L21.5,357C18.464,357 16,359.464 16,362.5C16,365.536 18.464,368 21.5,368L122.5,368C125.536,368 128,365.536 128,362.5Z" style="fill:rgb(189,189,189);"/>
        <path d="M128,362.5C128,359.464 125.536,357 122.5,357L21.5,357C18.464,357 16,359.464 16,362.5C16,365.536 18.464,368 21.5,368L122.5,368C125.536,368 128,365.536 128,362.5Z" style="fill:url(#_Linear14);"/>
        <path d="M128,383.5C128,380.464 125.536,378 122.5,378L21.5,378C18.464,378 16,380.464 16,383.5C16,386.536 18.464,389 21.5,389L122.5,389C125.536,389 128,386.536 128,383.5Z" style="fill:rgb(189,189,189);"/>
        <path d="M128,383.5C128,380.464 125.536,378 122.5,378L21.5,378C18.464,378 16,380.464 16,383.5C16,386.536 18.464,389 21.5,389L122.5,389C125.536,389 128,386.536 128,383.5Z" style="fill:url(#_Linear15);"/>
        <path d="M128,404.5C128,401.464 125.536,399 122.5,399L21.5,399C18.464,399 16,401.464 16,404.5C16,407.536 18.464,410 21.5,410L122.5,410C125.536,410 128,407.536 128,404.5Z" style="fill:rgb(189,189,189);"/>
        <path d="M128,404.5C128,401.464 125.536,399 122.5,399L21.5,399C18.464,399 16,401.464 16,404.5C16,407.536 18.464,410 21.5,410L122.5,410C125.536,410 128,407.536 128,404.5Z" style="fill:url(#_Linear16);"/>
        <rect x="27" y="125" width="86" height="45" style="fill:rgb(189,189,189);"/>
        <rect x="27" y="125" width="86" height="45" style="fill:url(#_Linear17);"/>
        <rect x="16" y="436" width="113" height="248" style="fill:rgb(189,189,189);"/>
        <rect x="16" y="436" width="113" height="248" style="fill:url(#_Linear18);"/>
        <rect x="16" y="712" width="113" height="63" style="fill:rgb(189,189,189);"/>
        <rect x="16" y="712" width="113" height="63" style="fill:url(#_Linear19);"/>
        <rect x="13" y="0" width="115" height="26" style="fill:rgb(208,208,208);"/>
        <rect x="13" y="0" width="115" height="26" style="fill:url(#_Linear20);"/>
        <path d="M141,4C141,1.792 139.208,0 137,0L4,0C1.792,0 0,1.792 0,4C0,6.208 1.792,8 4,8L137,8C139.208,8 141,6.208 141,4Z" style="fill:rgb(203,203,203);"/>
        <path d="M141,4C141,1.792 139.208,0 137,0L4,0C1.792,0 0,1.792 0,4C0,6.208 1.792,8 4,8L137,8C139.208,8 141,6.208 141,4Z" style="fill:url(#_Linear21);"/>
        <circle cx="45" cy="519" r="18" style="fill:rgb(90,90,90);"/>
        <circle cx="45" cy="519" r="14" style="fill:rgb(253,38,38);"/>
        <g>
            <path d="M105,-2801.5C105,-2820.54 89.541,-2836 70.5,-2836C51.459,-2836 36,-2820.54 36,-2801.5L36,-34.5C36,-15.459 51.459,0 70.5,0C89.541,0 105,-15.459 105,-34.5L105,-2801.5Z" style="fill:rgb(255,36,36);"/>
        </g>
    </g>
    <defs>
        <linearGradient id="_Linear1" x1="0" y1="0" x2="1" y2="0" gradientUnits="userSpaceOnUse" gradientTransform="matrix(-92,1.12668e-14,-1.12668e-14,-92,118,636.441)"><stop offset="0" style="stop-color:black;stop-opacity:0.25"/><stop offset="0.3" style="stop-color:white;stop-opacity:0"/><stop offset="0.58" style="stop-color:white;stop-opacity:1"/><stop offset="0.78" style="stop-color:rgb(64,64,64);stop-opacity:1"/><stop offset="1" style="stop-color:white;stop-opacity:0"/></linearGradient>
        <linearGradient id="_Linear2" x1="0" y1="0" x2="1" y2="0" gradientUnits="userSpaceOnUse" gradientTransform="matrix(-50,6.12323e-15,-6.12323e-15,-50,95,136.5)"><stop offset="0" style="stop-color:white;stop-opacity:0"/><stop offset="0.74" style="stop-color:black;stop-opacity:1"/><stop offset="1" style="stop-color:white;stop-opacity:0"/></linearGradient>
        <linearGradient id="_Linear3" x1="0" y1="0" x2="1" y2="0" gradientUnits="userSpaceOnUse" gradientTransform="matrix(-93,1.13892e-14,-1.13892e-14,-93,119,310)"><stop offset="0" style="stop-color:white;stop-opacity:0"/><stop offset="0.74" style="stop-color:black;stop-opacity:1"/><stop offset="1" style="stop-color:white;stop-opacity:0"/></linearGradient>
        <linearGradient id="_Linear4" x1="0" y1="0" x2="1" y2="0" gradientUnits="userSpaceOnUse" gradientTransform="matrix(-113,-10.5,10.5,-113,129,428.5)"><stop offset="0" style="stop-color:white;stop-opacity:0"/><stop offset="0.74" style="stop-color:black;stop-opacity:1"/><stop offset="1" style="stop-color:white;stop-opacity:0"/></linearGradient>
        <linearGradient id="_Linear5" x1="0" y1="0" x2="1" y2="0" gradientUnits="userSpaceOnUse" gradientTransform="matrix(-66,8.08267e-15,-8.08267e-15,-66,103,46)"><stop offset="0" style="stop-color:black;stop-opacity:0.25"/><stop offset="0.14" style="stop-color:white;stop-opacity:0"/><stop offset="0.5" style="stop-color:white;stop-opacity:1"/><stop offset="0.69" style="stop-color:rgb(64,64,64);stop-opacity:1"/><stop offset="1" style="stop-color:white;stop-opacity:0"/></linearGradient>
        <linearGradient id="_Linear6" x1="0" y1="0" x2="1" y2="0" gradientUnits="userSpaceOnUse" gradientTransform="matrix(-88,1.07769e-14,-1.07769e-14,-88,114,37)"><stop offset="0" style="stop-color:black;stop-opacity:0.25"/><stop offset="0.15" style="stop-color:white;stop-opacity:0"/><stop offset="0.46" style="stop-color:white;stop-opacity:1"/><stop offset="0.68" style="stop-color:rgb(64,64,64);stop-opacity:1"/><stop offset="1" style="stop-color:white;stop-opacity:0"/></linearGradient>
        <linearGradient id="_Linear7" x1="0" y1="0" x2="1" y2="0" gradientUnits="userSpaceOnUse" gradientTransform="matrix(-112,1.3716e-14,-1.3716e-14,-112,128,215.407)"><stop offset="0" style="stop-color:black;stop-opacity:0.25"/><stop offset="0.15" style="stop-color:white;stop-opacity:0"/><stop offset="0.46" style="stop-color:white;stop-opacity:1"/><stop offset="0.68" style="stop-color:rgb(64,64,64);stop-opacity:1"/><stop offset="1" style="stop-color:white;stop-opacity:0"/></linearGradient>
        <linearGradient id="_Linear8" x1="0" y1="0" x2="1" y2="0" gradientUnits="userSpaceOnUse" gradientTransform="matrix(-112,1.3716e-14,-1.3716e-14,-112,128,236.407)"><stop offset="0" style="stop-color:black;stop-opacity:0.25"/><stop offset="0.15" style="stop-color:white;stop-opacity:0"/><stop offset="0.46" style="stop-color:white;stop-opacity:1"/><stop offset="0.68" style="stop-color:rgb(64,64,64);stop-opacity:1"/><stop offset="1" style="stop-color:white;stop-opacity:0"/></linearGradient>
        <linearGradient id="_Linear9" x1="0" y1="0" x2="1" y2="0" gradientUnits="userSpaceOnUse" gradientTransform="matrix(-112,1.3716e-14,-1.3716e-14,-112,128,257.407)"><stop offset="0" style="stop-color:black;stop-opacity:0.25"/><stop offset="0.15" style="stop-color:white;stop-opacity:0"/><stop offset="0.46" style="stop-color:white;stop-opacity:1"/><stop offset="0.68" style="stop-color:rgb(64,64,64);stop-opacity:1"/><stop offset="1" style="stop-color:white;stop-opacity:0"/></linearGradient>
        <linearGradient id="_Linear10" x1="0" y1="0" x2="1" y2="0" gradientUnits="userSpaceOnUse" gradientTransform="matrix(-112,1.3716e-14,-1.3716e-14,-112,128,278.407)"><stop offset="0" style="stop-color:black;stop-opacity:0.25"/><stop offset="0.15" style="stop-color:white;stop-opacity:0"/><stop offset="0.46" style="stop-color:white;stop-opacity:1"/><stop offset="0.68" style="stop-color:rgb(64,64,64);stop-opacity:1"/><stop offset="1" style="stop-color:white;stop-opacity:0"/></linearGradient>
        <linearGradient id="_Linear11" x1="0" y1="0" x2="1" y2="0" gradientUnits="userSpaceOnUse" gradientTransform="matrix(-112,1.3716e-14,-1.3716e-14,-112,128,299.407)"><stop offset="0" style="stop-color:black;stop-opacity:0.25"/><stop offset="0.15" style="stop-color:white;stop-opacity:0"/><stop offset="0.46" style="stop-color:white;stop-opacity:1"/><stop offset="0.68" style="stop-color:rgb(64,64,64);stop-opacity:1"/><stop offset="1" style="stop-color:white;stop-opacity:0"/></linearGradient>
        <linearGradient id="_Linear12" x1="0" y1="0" x2="1" y2="0" gradientUnits="userSpaceOnUse" gradientTransform="matrix(-112,1.3716e-14,-1.3716e-14,-112,128,320.407)"><stop offset="0" style="stop-color:black;stop-opacity:0.25"/><stop offset="0.15" style="stop-color:white;stop-opacity:0"/><stop offset="0.46" style="stop-color:white;stop-opacity:1"/><stop offset="0.68" style="stop-color:rgb(64,64,64);stop-opacity:1"/><stop offset="1" style="stop-color:white;stop-opacity:0"/></linearGradient>
        <linearGradient id="_Linear13" x1="0" y1="0" x2="1" y2="0" gradientUnits="userSpaceOnUse" gradientTransform="matrix(-112,1.3716e-14,-1.3716e-14,-112,128,341.407)"><stop offset="0" style="stop-color:black;stop-opacity:0.25"/><stop offset="0.15" style="stop-color:white;stop-opacity:0"/><stop offset="0.46" style="stop-color:white;stop-opacity:1"/><stop offset="0.68" style="stop-color:rgb(64,64,64);stop-opacity:1"/><stop offset="1" style="stop-color:white;stop-opacity:0"/></linearGradient>
        <linearGradient id="_Linear14" x1="0" y1="0" x2="1" y2="0" gradientUnits="userSpaceOnUse" gradientTransform="matrix(-112,1.3716e-14,-1.3716e-14,-112,128,362.407)"><stop offset="0" style="stop-color:black;stop-opacity:0.25"/><stop offset="0.15" style="stop-color:white;stop-opacity:0"/><stop offset="0.46" style="stop-color:white;stop-opacity:1"/><stop offset="0.68" style="stop-color:rgb(64,64,64);stop-opacity:1"/><stop offset="1" style="stop-color:white;stop-opacity:0"/></linearGradient>
        <linearGradient id="_Linear15" x1="0" y1="0" x2="1" y2="0" gradientUnits="userSpaceOnUse" gradientTransform="matrix(-112,1.3716e-14,-1.3716e-14,-112,128,383.407)"><stop offset="0" style="stop-color:black;stop-opacity:0.25"/><stop offset="0.15" style="stop-color:white;stop-opacity:0"/><stop offset="0.46" style="stop-color:white;stop-opacity:1"/><stop offset="0.68" style="stop-color:rgb(64,64,64);stop-opacity:1"/><stop offset="1" style="stop-color:white;stop-opacity:0"/></linearGradient>
        <linearGradient id="_Linear16" x1="0" y1="0" x2="1" y2="0" gradientUnits="userSpaceOnUse" gradientTransform="matrix(-112,1.3716e-14,-1.3716e-14,-112,128,404.407)"><stop offset="0" style="stop-color:black;stop-opacity:0.25"/><stop offset="0.15" style="stop-color:white;stop-opacity:0"/><stop offset="0.46" style="stop-color:white;stop-opacity:1"/><stop offset="0.68" style="stop-color:rgb(64,64,64);stop-opacity:1"/><stop offset="1" style="stop-color:white;stop-opacity:0"/></linearGradient>
        <linearGradient id="_Linear17" x1="0" y1="0" x2="1" y2="0" gradientUnits="userSpaceOnUse" gradientTransform="matrix(-86,1.0532e-14,-1.0532e-14,-86,113,147.119)"><stop offset="0" style="stop-color:black;stop-opacity:0.25"/><stop offset="0.15" style="stop-color:white;stop-opacity:0"/><stop offset="0.46" style="stop-color:white;stop-opacity:1"/><stop offset="0.68" style="stop-color:rgb(64,64,64);stop-opacity:1"/><stop offset="1" style="stop-color:white;stop-opacity:0"/></linearGradient>
        <linearGradient id="_Linear18" x1="0" y1="0" x2="1" y2="0" gradientUnits="userSpaceOnUse" gradientTransform="matrix(-113,1.38385e-14,-1.38385e-14,-113,129,557.898)"><stop offset="0" style="stop-color:black;stop-opacity:0.25"/><stop offset="0.3" style="stop-color:white;stop-opacity:0"/><stop offset="0.58" style="stop-color:white;stop-opacity:1"/><stop offset="0.78" style="stop-color:rgb(64,64,64);stop-opacity:1"/><stop offset="1" style="stop-color:white;stop-opacity:0"/></linearGradient>
        <linearGradient id="_Linear19" x1="0" y1="0" x2="1" y2="0" gradientUnits="userSpaceOnUse" gradientTransform="matrix(-113,1.38385e-14,-1.38385e-14,-113,129,742.966)"><stop offset="0" style="stop-color:black;stop-opacity:0.25"/><stop offset="0.3" style="stop-color:white;stop-opacity:0"/><stop offset="0.58" style="stop-color:white;stop-opacity:1"/><stop offset="0.78" style="stop-color:rgb(64,64,64);stop-opacity:1"/><stop offset="1" style="stop-color:white;stop-opacity:0"/></linearGradient>
        <linearGradient id="_Linear20" x1="0" y1="0" x2="1" y2="0" gradientUnits="userSpaceOnUse" gradientTransform="matrix(-115,1.40834e-14,-1.40834e-14,-115,128,13)"><stop offset="0" style="stop-color:black;stop-opacity:0.25"/><stop offset="0.18" style="stop-color:white;stop-opacity:0"/><stop offset="0.43" style="stop-color:white;stop-opacity:1"/><stop offset="0.68" style="stop-color:rgb(64,64,64);stop-opacity:1"/><stop offset="1" style="stop-color:white;stop-opacity:0"/></linearGradient>
        <linearGradient id="_Linear21" x1="0" y1="0" x2="1" y2="0" gradientUnits="userSpaceOnUse" gradientTransform="matrix(141,1e-05,-1e-05,141,0,3.99997)"><stop offset="0" style="stop-color:white;stop-opacity:0"/><stop offset="0.31" style="stop-color:rgb(94,94,94);stop-opacity:1"/><stop offset="0.58" style="stop-color:white;stop-opacity:1"/><stop offset="0.82" style="stop-color:white;stop-opacity:0"/><stop offset="1" style="stop-color:black;stop-opacity:0.25"/></linearGradient>
    </defs>
</svg>
