<svg class="svg-saber" viewBox="0 0 141 790" fill="none" xmlns="http://www.w3.org/2000/svg">
<g clip-path="url(#clip0)">
<rect x="26" y="488" width="92" height="302" rx="14" fill="#939393"/>
<rect x="26" y="488" width="92" height="302" rx="14" fill="url(#paint0_linear)"/>
<rect x="45" width="50" height="273" fill="black"/>
<rect x="45" width="50" height="273" fill="url(#paint1_linear)"/>
<rect x="26" y="210" width="93" height="200" fill="black"/>
<rect x="26" y="210" width="93" height="200" fill="url(#paint2_linear)"/>
<path d="M26 399.5H119L129 436H16L26 399.5Z" fill="black"/>
<path d="M26 399.5H119L129 436H16L26 399.5Z" fill="url(#paint3_linear)"/>
<rect x="37" y="15" width="66" height="63" fill="#C4C4C4"/>
<rect x="37" y="15" width="66" height="63" fill="url(#paint4_linear)"/>
<rect x="26" y="8" width="88" height="59" fill="#BDBDBD"/>
<rect x="26" y="8" width="88" height="59" fill="url(#paint5_linear)"/>
<rect x="16" y="210" width="112" height="11" rx="5.5" fill="#BDBDBD"/>
<rect x="16" y="210" width="112" height="11" rx="5.5" fill="url(#paint6_linear)"/>
<rect x="16" y="231" width="112" height="11" rx="5.5" fill="#BDBDBD"/>
<rect x="16" y="231" width="112" height="11" rx="5.5" fill="url(#paint7_linear)"/>
<rect x="16" y="252" width="112" height="11" rx="5.5" fill="#BDBDBD"/>
<rect x="16" y="252" width="112" height="11" rx="5.5" fill="url(#paint8_linear)"/>
<rect x="16" y="273" width="112" height="11" rx="5.5" fill="#BDBDBD"/>
<rect x="16" y="273" width="112" height="11" rx="5.5" fill="url(#paint9_linear)"/>
<rect x="16" y="294" width="112" height="11" rx="5.5" fill="#BDBDBD"/>
<rect x="16" y="294" width="112" height="11" rx="5.5" fill="url(#paint10_linear)"/>
<rect x="16" y="315" width="112" height="11" rx="5.5" fill="#BDBDBD"/>
<rect x="16" y="315" width="112" height="11" rx="5.5" fill="url(#paint11_linear)"/>
<rect x="16" y="336" width="112" height="11" rx="5.5" fill="#BDBDBD"/>
<rect x="16" y="336" width="112" height="11" rx="5.5" fill="url(#paint12_linear)"/>
<rect x="16" y="357" width="112" height="11" rx="5.5" fill="#BDBDBD"/>
<rect x="16" y="357" width="112" height="11" rx="5.5" fill="url(#paint13_linear)"/>
<rect x="16" y="378" width="112" height="11" rx="5.5" fill="#BDBDBD"/>
<rect x="16" y="378" width="112" height="11" rx="5.5" fill="url(#paint14_linear)"/>
<rect x="16" y="399" width="112" height="11" rx="5.5" fill="#BDBDBD"/>
<rect x="16" y="399" width="112" height="11" rx="5.5" fill="url(#paint15_linear)"/>
<rect x="27" y="125" width="86" height="45" fill="#BDBDBD"/>
<rect x="27" y="125" width="86" height="45" fill="url(#paint16_linear)"/>
<rect x="16" y="436" width="113" height="248" fill="#BDBDBD"/>
<rect x="16" y="436" width="113" height="248" fill="url(#paint17_linear)"/>
<rect x="16" y="712" width="113" height="63" fill="#BDBDBD"/>
<rect x="16" y="712" width="113" height="63" fill="url(#paint18_linear)"/>
<rect x="13" width="115" height="26" fill="#D0D0D0"/>
<rect x="13" width="115" height="26" fill="url(#paint19_linear)"/>
<rect width="141" height="8" rx="4" fill="#CBCBCB"/>
<rect width="141" height="8" rx="4" fill="url(#paint20_linear)"/>
<circle cx="45" cy="519" r="18" fill="#5A5A5A"/>
<circle cx="45" cy="519" r="14" fill="#FD2626"/>
<g filter="url(#filter0_f)">
<rect x="36" y="-2836" width="69" height="2836" rx="34.5" fill="#FF2424"/>
</g>
</g>
<defs>
<filter id="filter0_f" x="-44" y="-2916" width="229" height="2996" filterUnits="userSpaceOnUse" color-interpolation-filters="sRGB">
<feFlood flood-opacity="0" result="BackgroundImageFix"/>
<feBlend mode="normal" in="SourceGraphic" in2="BackgroundImageFix" result="shape"/>
<feGaussianBlur stdDeviation="40" result="effect1_foregroundBlur"/>
</filter>
<linearGradient id="paint0_linear" x1="118" y1="636.441" x2="26" y2="636.441" gradientUnits="userSpaceOnUse">
<stop stop-opacity="0.25"/>
<stop offset="0.302083" stop-color="white" stop-opacity="0"/>
<stop offset="0.578125" stop-color="white"/>
<stop offset="0.78125" stop-color="#404040"/>
<stop offset="1" stop-color="white" stop-opacity="0"/>
</linearGradient>
<linearGradient id="paint1_linear" x1="95" y1="136.5" x2="45" y2="136.5" gradientUnits="userSpaceOnUse">
<stop stop-color="white" stop-opacity="0"/>
<stop offset="0.739583"/>
<stop offset="1" stop-color="white" stop-opacity="0"/>
</linearGradient>
<linearGradient id="paint2_linear" x1="119" y1="310" x2="26" y2="310" gradientUnits="userSpaceOnUse">
<stop stop-color="white" stop-opacity="0"/>
<stop offset="0.739583"/>
<stop offset="1" stop-color="white" stop-opacity="0"/>
</linearGradient>
<linearGradient id="paint3_linear" x1="129" y1="428.5" x2="16" y2="418" gradientUnits="userSpaceOnUse">
<stop stop-color="white" stop-opacity="0"/>
<stop offset="0.739583"/>
<stop offset="1" stop-color="white" stop-opacity="0"/>
</linearGradient>
<linearGradient id="paint4_linear" x1="103" y1="46" x2="37" y2="46" gradientUnits="userSpaceOnUse">
<stop stop-opacity="0.25"/>
<stop offset="0.140625" stop-color="white" stop-opacity="0"/>
<stop offset="0.496212" stop-color="white"/>
<stop offset="0.693182" stop-color="#404040"/>
<stop offset="1" stop-color="white" stop-opacity="0"/>
</linearGradient>
<linearGradient id="paint5_linear" x1="114" y1="37" x2="26" y2="37" gradientUnits="userSpaceOnUse">
<stop stop-opacity="0.25"/>
<stop offset="0.151042" stop-color="white" stop-opacity="0"/>
<stop offset="0.460227" stop-color="white"/>
<stop offset="0.681818" stop-color="#404040"/>
<stop offset="1" stop-color="white" stop-opacity="0"/>
</linearGradient>
<linearGradient id="paint6_linear" x1="128" y1="215.407" x2="16" y2="215.407" gradientUnits="userSpaceOnUse">
<stop stop-opacity="0.25"/>
<stop offset="0.151042" stop-color="white" stop-opacity="0"/>
<stop offset="0.460227" stop-color="white"/>
<stop offset="0.681818" stop-color="#404040"/>
<stop offset="1" stop-color="white" stop-opacity="0"/>
</linearGradient>
<linearGradient id="paint7_linear" x1="128" y1="236.407" x2="16" y2="236.407" gradientUnits="userSpaceOnUse">
<stop stop-opacity="0.25"/>
<stop offset="0.151042" stop-color="white" stop-opacity="0"/>
<stop offset="0.460227" stop-color="white"/>
<stop offset="0.681818" stop-color="#404040"/>
<stop offset="1" stop-color="white" stop-opacity="0"/>
</linearGradient>
<linearGradient id="paint8_linear" x1="128" y1="257.407" x2="16" y2="257.407" gradientUnits="userSpaceOnUse">
<stop stop-opacity="0.25"/>
<stop offset="0.151042" stop-color="white" stop-opacity="0"/>
<stop offset="0.460227" stop-color="white"/>
<stop offset="0.681818" stop-color="#404040"/>
<stop offset="1" stop-color="white" stop-opacity="0"/>
</linearGradient>
<linearGradient id="paint9_linear" x1="128" y1="278.407" x2="16" y2="278.407" gradientUnits="userSpaceOnUse">
<stop stop-opacity="0.25"/>
<stop offset="0.151042" stop-color="white" stop-opacity="0"/>
<stop offset="0.460227" stop-color="white"/>
<stop offset="0.681818" stop-color="#404040"/>
<stop offset="1" stop-color="white" stop-opacity="0"/>
</linearGradient>
<linearGradient id="paint10_linear" x1="128" y1="299.407" x2="16" y2="299.407" gradientUnits="userSpaceOnUse">
<stop stop-opacity="0.25"/>
<stop offset="0.151042" stop-color="white" stop-opacity="0"/>
<stop offset="0.460227" stop-color="white"/>
<stop offset="0.681818" stop-color="#404040"/>
<stop offset="1" stop-color="white" stop-opacity="0"/>
</linearGradient>
<linearGradient id="paint11_linear" x1="128" y1="320.407" x2="16" y2="320.407" gradientUnits="userSpaceOnUse">
<stop stop-opacity="0.25"/>
<stop offset="0.151042" stop-color="white" stop-opacity="0"/>
<stop offset="0.460227" stop-color="white"/>
<stop offset="0.681818" stop-color="#404040"/>
<stop offset="1" stop-color="white" stop-opacity="0"/>
</linearGradient>
<linearGradient id="paint12_linear" x1="128" y1="341.407" x2="16" y2="341.407" gradientUnits="userSpaceOnUse">
<stop stop-opacity="0.25"/>
<stop offset="0.151042" stop-color="white" stop-opacity="0"/>
<stop offset="0.460227" stop-color="white"/>
<stop offset="0.681818" stop-color="#404040"/>
<stop offset="1" stop-color="white" stop-opacity="0"/>
</linearGradient>
<linearGradient id="paint13_linear" x1="128" y1="362.407" x2="16" y2="362.407" gradientUnits="userSpaceOnUse">
<stop stop-opacity="0.25"/>
<stop offset="0.151042" stop-color="white" stop-opacity="0"/>
<stop offset="0.460227" stop-color="white"/>
<stop offset="0.681818" stop-color="#404040"/>
<stop offset="1" stop-color="white" stop-opacity="0"/>
</linearGradient>
<linearGradient id="paint14_linear" x1="128" y1="383.407" x2="16" y2="383.407" gradientUnits="userSpaceOnUse">
<stop stop-opacity="0.25"/>
<stop offset="0.151042" stop-color="white" stop-opacity="0"/>
<stop offset="0.460227" stop-color="white"/>
<stop offset="0.681818" stop-color="#404040"/>
<stop offset="1" stop-color="white" stop-opacity="0"/>
</linearGradient>
<linearGradient id="paint15_linear" x1="128" y1="404.407" x2="16" y2="404.407" gradientUnits="userSpaceOnUse">
<stop stop-opacity="0.25"/>
<stop offset="0.151042" stop-color="white" stop-opacity="0"/>
<stop offset="0.460227" stop-color="white"/>
<stop offset="0.681818" stop-color="#404040"/>
<stop offset="1" stop-color="white" stop-opacity="0"/>
</linearGradient>
<linearGradient id="paint16_linear" x1="113" y1="147.119" x2="27" y2="147.119" gradientUnits="userSpaceOnUse">
<stop stop-opacity="0.25"/>
<stop offset="0.151042" stop-color="white" stop-opacity="0"/>
<stop offset="0.460227" stop-color="white"/>
<stop offset="0.681818" stop-color="#404040"/>
<stop offset="1" stop-color="white" stop-opacity="0"/>
</linearGradient>
<linearGradient id="paint17_linear" x1="129" y1="557.898" x2="16" y2="557.898" gradientUnits="userSpaceOnUse">
<stop stop-opacity="0.25"/>
<stop offset="0.302083" stop-color="white" stop-opacity="0"/>
<stop offset="0.578125" stop-color="white"/>
<stop offset="0.78125" stop-color="#404040"/>
<stop offset="1" stop-color="white" stop-opacity="0"/>
</linearGradient>
<linearGradient id="paint18_linear" x1="129" y1="742.966" x2="16" y2="742.966" gradientUnits="userSpaceOnUse">
<stop stop-opacity="0.25"/>
<stop offset="0.302083" stop-color="white" stop-opacity="0"/>
<stop offset="0.578125" stop-color="white"/>
<stop offset="0.78125" stop-color="#404040"/>
<stop offset="1" stop-color="white" stop-opacity="0"/>
</linearGradient>
<linearGradient id="paint19_linear" x1="128" y1="13" x2="13" y2="13" gradientUnits="userSpaceOnUse">
<stop stop-opacity="0.25"/>
<stop offset="0.177083" stop-color="white" stop-opacity="0"/>
<stop offset="0.430435" stop-color="white"/>
<stop offset="0.677083" stop-color="#404040"/>
<stop offset="1" stop-color="white" stop-opacity="0"/>
</linearGradient>
<linearGradient id="paint20_linear" x1="0" y1="3.99997" x2="141" y2="3.99998" gradientUnits="userSpaceOnUse">
<stop stop-color="white" stop-opacity="0"/>
<stop offset="0.307292" stop-color="#5E5E5E"/>
<stop offset="0.583333" stop-color="white"/>
<stop offset="0.817708" stop-color="white" stop-opacity="0"/>
<stop offset="1" stop-opacity="0.25"/>
</linearGradient>
<clipPath id="clip0">
<rect width="141" height="790" fill="white"/>
</clipPath>
</defs>
</svg>
