<?xml version="1.0" encoding="UTF-8" standalone="no"?>
<!-- Created with Inkscape (http://www.inkscape.org/) -->

<svg
   xmlns:dc="http://purl.org/dc/elements/1.1/"
   xmlns:cc="http://creativecommons.org/ns#"
   xmlns:rdf="http://www.w3.org/1999/02/22-rdf-syntax-ns#"
   xmlns:svg="http://www.w3.org/2000/svg"
   xmlns="http://www.w3.org/2000/svg"
   xmlns:sodipodi="http://sodipodi.sourceforge.net/DTD/sodipodi-0.dtd"
   xmlns:inkscape="http://www.inkscape.org/namespaces/inkscape"
   width="59.015076mm"
   height="38.157036mm"
   viewBox="0 0 59.015078 38.157035"
   version="1.1"
   id="svg8"
   inkscape:version="0.92.2 5c3e80d, 2017-08-06"
   sodipodi:docname="code.svg">
  <defs
     id="defs2" />
  <sodipodi:namedview
     id="base"
     pagecolor="#ffffff"
     bordercolor="#666666"
     borderopacity="1.0"
     inkscape:pageopacity="0.0"
     inkscape:pageshadow="2"
     inkscape:zoom="1.4"
     inkscape:cx="197.34888"
     inkscape:cy="-142.24299"
     inkscape:document-units="mm"
     inkscape:current-layer="layer1"
     showgrid="false"
     fit-margin-top="10"
     fit-margin-left="10"
     fit-margin-right="10"
     fit-margin-bottom="10"
     inkscape:window-width="3440"
     inkscape:window-height="1418"
     inkscape:window-x="0"
     inkscape:window-y="549"
     inkscape:window-maximized="1" />
  <metadata
     id="metadata5">
    <rdf:RDF>
      <cc:Work
         rdf:about="">
        <dc:format>image/svg+xml</dc:format>
        <dc:type
           rdf:resource="http://purl.org/dc/dcmitype/StillImage" />
        <dc:title></dc:title>
      </cc:Work>
    </rdf:RDF>
  </metadata>
  <g
     inkscape:label="Layer 1"
     inkscape:groupmode="layer"
     id="layer1"
     transform="translate(-43.034776,-96.726547)">
    <g
       id="g1091"
       transform="translate(-65.200896,4.7247)">
      <g
         id="text899"
         style="font-style:normal;font-variant:normal;font-weight:800;font-stretch:condensed;font-size:22.57777786px;line-height:1.25;font-family:Futura;-inkscape-font-specification:'Futura, Ultra-Bold Condensed';font-variant-ligatures:normal;font-variant-caps:normal;font-variant-numeric:normal;font-feature-settings:normal;text-align:start;letter-spacing:0px;word-spacing:0px;writing-mode:lr-tb;text-anchor:start;fill:#ff6600;fill-opacity:1;stroke:#000000;stroke-width:0.5291667;stroke-miterlimit:4;stroke-dasharray:none"
         aria-label="E">
        <path
           id="path984"
           style="font-style:normal;font-variant:normal;font-weight:800;font-stretch:condensed;font-size:22.57777786px;font-family:Futura;-inkscape-font-specification:'Futura, Ultra-Bold Condensed';font-variant-ligatures:normal;font-variant-caps:normal;font-variant-numeric:normal;font-feature-settings:normal;text-align:start;writing-mode:lr-tb;text-anchor:start;fill:#ff6600;stroke:#000000;stroke-width:0.5291667;stroke-miterlimit:4;stroke-dasharray:none"
           d="m 148.44232,119.59113 v -17.02152 h 8.54384 v 4.00182 h -3.94671 v 2.48047 h 3.53881 v 3.84748 h -3.53881 v 2.60174 h 3.94671 v 4.09001 z"
           inkscape:connector-curvature="0" />
      </g>
      <g
         id="text903"
         style="font-style:normal;font-variant:normal;font-weight:800;font-stretch:condensed;font-size:22.57777786px;line-height:1.25;font-family:Futura;-inkscape-font-specification:'Futura, Ultra-Bold Condensed';font-variant-ligatures:normal;font-variant-caps:normal;font-variant-numeric:normal;font-feature-settings:normal;text-align:start;letter-spacing:0px;word-spacing:0px;writing-mode:lr-tb;text-anchor:start;fill:#ff6600;fill-opacity:1;stroke:#000000;stroke-width:0.5291667;stroke-miterlimit:4;stroke-dasharray:none"
         aria-label="D">
        <path
           id="path981"
           style="font-style:normal;font-variant:normal;font-weight:800;font-stretch:condensed;font-size:22.57777786px;font-family:Futura;-inkscape-font-specification:'Futura, Ultra-Bold Condensed';font-variant-ligatures:normal;font-variant-caps:normal;font-variant-numeric:normal;font-feature-settings:normal;text-align:start;writing-mode:lr-tb;text-anchor:start;fill:#ff6600;stroke:#000000;stroke-width:0.5291667;stroke-miterlimit:4;stroke-dasharray:none"
           d="m 138.26686,119.59113 v -17.02152 h 3.96875 q 3.40651,0 5.30269,1.83003 2.49149,2.39227 2.49149,6.69175 0,4.23334 -2.10564,6.53742 -1.79696,1.96232 -5.35781,1.96232 z m 4.59713,-4.11206 q 2.46945,-0.12127 2.46945,-4.25538 0,-2.0395 -0.62839,-3.2191 -0.62838,-1.19063 -1.69774,-1.19063 h -0.14332 z"
           inkscape:connector-curvature="0" />
      </g>
      <g
         id="text907"
         style="font-style:normal;font-variant:normal;font-weight:800;font-stretch:condensed;font-size:22.57777786px;line-height:1.25;font-family:Futura;-inkscape-font-specification:'Futura, Ultra-Bold Condensed';font-variant-ligatures:normal;font-variant-caps:normal;font-variant-numeric:normal;font-feature-settings:normal;text-align:start;letter-spacing:0px;word-spacing:0px;writing-mode:lr-tb;text-anchor:start;fill:#ff6600;fill-opacity:1;stroke:#000000;stroke-width:0.5291667;stroke-miterlimit:4;stroke-dasharray:none"
         aria-label="O">
        <path
           id="path978"
           style="font-style:normal;font-variant:normal;font-weight:800;font-stretch:condensed;font-size:22.57777786px;font-family:Futura;-inkscape-font-specification:'Futura, Ultra-Bold Condensed';font-variant-ligatures:normal;font-variant-caps:normal;font-variant-numeric:normal;font-feature-settings:normal;text-align:start;writing-mode:lr-tb;text-anchor:start;fill:#ff6600;stroke:#000000;stroke-width:0.5291667;stroke-miterlimit:4;stroke-dasharray:none"
           d="m 139.85433,111.141 q 0,3.89158 -1.77491,6.32795 -1.76389,2.42535 -4.59713,2.42535 -2.51355,0 -4.31051,-1.86311 -2.25998,-2.3592 -2.25998,-7.0776 0,-4.51997 2.3592,-6.91224 1.75287,-1.77492 4.15616,-1.77492 2.94349,0 4.68533,2.4033 1.74184,2.4033 1.74184,6.47127 z m -4.77352,0.0331 q 0,-4.61918 -1.6316,-4.61918 -0.8158,0 -1.30086,1.21267 -0.47405,1.12448 -0.47405,3.30729 0,2.14974 0.44097,3.34037 0.452,1.1796 1.24575,1.1796 0.8158,0 1.25677,-1.16858 0.46302,-1.16857 0.46302,-3.25217 z"
           inkscape:connector-curvature="0" />
      </g>
      <g
         id="text911"
         style="font-style:normal;font-variant:normal;font-weight:800;font-stretch:condensed;font-size:22.57777786px;line-height:1.25;font-family:Futura;-inkscape-font-specification:'Futura, Ultra-Bold Condensed';font-variant-ligatures:normal;font-variant-caps:normal;font-variant-numeric:normal;font-feature-settings:normal;text-align:start;letter-spacing:0px;word-spacing:0px;writing-mode:lr-tb;text-anchor:start;fill:#ff6600;fill-opacity:1;stroke:#000000;stroke-width:0.5291667;stroke-miterlimit:4;stroke-dasharray:none"
         aria-label="C">
        <path
           id="path975"
           style="font-style:normal;font-variant:normal;font-weight:800;font-stretch:condensed;font-size:22.57777786px;font-family:Futura;-inkscape-font-specification:'Futura, Ultra-Bold Condensed';font-variant-ligatures:normal;font-variant-caps:normal;font-variant-numeric:normal;font-feature-settings:normal;text-align:start;writing-mode:lr-tb;text-anchor:start;fill:#ff6600;stroke:#000000;stroke-width:0.5291667;stroke-miterlimit:4;stroke-dasharray:none"
           d="m 128.4993,114.3601 -0.26458,4.91684 q -1.53238,0.61736 -2.74505,0.61736 -2.8553,0 -4.8066,-2.09462 -2.18281,-2.34818 -2.18281,-6.64766 0,-4.02387 2.05052,-6.46024 2.05052,-2.42535 5.47908,-2.42535 1.11345,0 2.271,0.41893 v 4.86172 q -1.02526,-1.02526 -2.10564,-1.02526 -1.41111,0 -2.20486,1.20164 -0.79375,1.21268 -0.79375,3.35139 0,1.03629 0.19844,1.85209 0.19843,0.8158 0.56224,1.37803 0.37482,0.56224 0.91501,0.8599 0.54019,0.29766 1.23473,0.29766 1.19062,0 2.39227,-1.10243 z"
           inkscape:connector-curvature="0" />
      </g>
    </g>
    <g
       id="g1101">
      <g
         id="text829"
         style="font-style:normal;font-variant:normal;font-weight:800;font-stretch:condensed;font-size:22.57777786px;line-height:1.25;font-family:Futura;-inkscape-font-specification:'Futura, Ultra-Bold Condensed';font-variant-ligatures:normal;font-variant-caps:normal;font-variant-numeric:normal;font-feature-settings:normal;text-align:start;letter-spacing:0px;word-spacing:0px;writing-mode:lr-tb;text-anchor:start;fill:#ff2a2a;fill-opacity:1;stroke:#000000;stroke-width:0.5291667;stroke-miterlimit:4;stroke-dasharray:none"
         aria-label="E">
        <path
           id="path964"
           style="font-style:normal;font-variant:normal;font-weight:800;font-stretch:condensed;font-size:22.57777786px;font-family:Futura;-inkscape-font-specification:'Futura, Ultra-Bold Condensed';font-variant-ligatures:normal;font-variant-caps:normal;font-variant-numeric:normal;font-feature-settings:normal;text-align:start;writing-mode:lr-tb;text-anchor:start;fill:#ff2a2a;stroke:#000000;stroke-width:0.5291667;stroke-miterlimit:4;stroke-dasharray:none"
           d="M 83.241429,124.31583 V 107.2943 h 8.543837 v 4.00182 h -3.946701 v 2.48047 h 3.538802 v 3.84748 h -3.538802 v 2.60174 h 3.946701 v 4.09002 z"
           inkscape:connector-curvature="0" />
      </g>
      <g
         id="text833"
         style="font-style:normal;font-variant:normal;font-weight:800;font-stretch:condensed;font-size:22.57777786px;line-height:1.25;font-family:Futura;-inkscape-font-specification:'Futura, Ultra-Bold Condensed';font-variant-ligatures:normal;font-variant-caps:normal;font-variant-numeric:normal;font-feature-settings:normal;text-align:start;letter-spacing:0px;word-spacing:0px;writing-mode:lr-tb;text-anchor:start;fill:#ff2a2a;fill-opacity:1;stroke:#000000;stroke-width:0.5291667;stroke-miterlimit:4;stroke-dasharray:none"
         aria-label="D">
        <path
           id="path961"
           style="font-style:normal;font-variant:normal;font-weight:800;font-stretch:condensed;font-size:22.57777786px;font-family:Futura;-inkscape-font-specification:'Futura, Ultra-Bold Condensed';font-variant-ligatures:normal;font-variant-caps:normal;font-variant-numeric:normal;font-feature-settings:normal;text-align:start;writing-mode:lr-tb;text-anchor:start;fill:#ff2a2a;stroke:#000000;stroke-width:0.5291667;stroke-miterlimit:4;stroke-dasharray:none"
           d="M 73.065968,124.31583 V 107.2943 h 3.96875 q 3.406511,0 5.302691,1.83003 2.491493,2.39228 2.491493,6.69176 0,4.23333 -2.105642,6.53741 -1.796962,1.96233 -5.357812,1.96233 z m 4.597136,-4.11207 q 2.469444,-0.12127 2.469444,-4.25538 0,-2.0395 -0.628385,-3.2191 -0.628386,-1.19062 -1.697743,-1.19062 h -0.143316 z"
           inkscape:connector-curvature="0" />
      </g>
      <g
         id="text825"
         style="font-style:normal;font-variant:normal;font-weight:800;font-stretch:condensed;font-size:22.57777786px;line-height:1.25;font-family:Futura;-inkscape-font-specification:'Futura, Ultra-Bold Condensed';font-variant-ligatures:normal;font-variant-caps:normal;font-variant-numeric:normal;font-feature-settings:normal;text-align:start;letter-spacing:0px;word-spacing:0px;writing-mode:lr-tb;text-anchor:start;fill:#ff2a2a;fill-opacity:1;stroke:#000000;stroke-width:0.5291667;stroke-miterlimit:4;stroke-dasharray:none"
         aria-label="O">
        <path
           id="path958"
           style="font-style:normal;font-variant:normal;font-weight:800;font-stretch:condensed;font-size:22.57777786px;font-family:Futura;-inkscape-font-specification:'Futura, Ultra-Bold Condensed';font-variant-ligatures:normal;font-variant-caps:normal;font-variant-numeric:normal;font-feature-settings:normal;text-align:start;writing-mode:lr-tb;text-anchor:start;fill:#ff2a2a;stroke:#000000;stroke-width:0.5291667;stroke-miterlimit:4;stroke-dasharray:none"
           d="m 74.653442,115.8657 q 0,3.89158 -1.774914,6.32795 -1.763889,2.42535 -4.597135,2.42535 -2.513542,0 -4.310504,-1.86311 -2.259982,-2.3592 -2.259982,-7.0776 0,-4.51997 2.359201,-6.91224 1.752865,-1.77492 4.156163,-1.77492 2.94349,0 4.68533,2.4033 1.741841,2.4033 1.741841,6.47127 z m -4.773525,0.0331 q 0,-4.61918 -1.631597,-4.61918 -0.815799,0 -1.300868,1.21267 -0.474045,1.12448 -0.474045,3.30729 0,2.14974 0.440972,3.34037 0.451997,1.1796 1.245747,1.1796 0.815798,0 1.25677,-1.16858 0.463021,-1.16857 0.463021,-3.25217 z"
           inkscape:connector-curvature="0" />
      </g>
      <g
         id="text821"
         style="font-style:normal;font-variant:normal;font-weight:800;font-stretch:condensed;font-size:22.57777786px;line-height:1.25;font-family:Futura;-inkscape-font-specification:'Futura, Ultra-Bold Condensed';font-variant-ligatures:normal;font-variant-caps:normal;font-variant-numeric:normal;font-feature-settings:normal;text-align:start;letter-spacing:0px;word-spacing:0px;writing-mode:lr-tb;text-anchor:start;fill:#ff2a2a;fill-opacity:1;stroke:#000000;stroke-width:0.5291667;stroke-miterlimit:4;stroke-dasharray:none"
         aria-label="C">
        <path
           id="path955"
           style="font-style:normal;font-variant:normal;font-weight:800;font-stretch:condensed;font-size:22.57777786px;font-family:Futura;-inkscape-font-specification:'Futura, Ultra-Bold Condensed';font-variant-ligatures:normal;font-variant-caps:normal;font-variant-numeric:normal;font-feature-settings:normal;text-align:start;writing-mode:lr-tb;text-anchor:start;fill:#ff2a2a;stroke:#000000;stroke-width:0.5291667;stroke-miterlimit:4;stroke-dasharray:none"
           d="m 63.298407,119.0848 -0.264583,4.91684 q -1.532379,0.61736 -2.745052,0.61736 -2.855295,0 -4.806598,-2.09462 -2.182812,-2.34818 -2.182812,-6.64766 0,-4.02387 2.050521,-6.46024 2.050521,-2.42535 5.47908,-2.42535 1.113455,0 2.271007,0.41893 v 4.86172 q -1.025261,-1.02526 -2.105643,-1.02526 -1.411111,0 -2.204861,1.20165 -0.79375,1.21267 -0.79375,3.35138 0,1.03629 0.198438,1.85209 0.198437,0.8158 0.562239,1.37804 0.374827,0.56224 0.915018,0.85989 0.540191,0.29766 1.234722,0.29766 1.190625,0 2.392274,-1.10243 z"
           inkscape:connector-curvature="0" />
      </g>
    </g>
    <flowRoot
       xml:space="preserve"
       id="flowRoot843"
       style="font-style:normal;font-weight:normal;font-size:40px;line-height:1.25;font-family:sans-serif;letter-spacing:0px;word-spacing:0px;fill:#000000;fill-opacity:1;stroke:none"
       transform="scale(0.26458333)"><flowRegion
         id="flowRegion845"><rect
           id="rect847"
           width="449.28571"
           height="590"
           x="380"
           y="294.66254" /></flowRegion><flowPara
         id="flowPara849"></flowPara></flowRoot>    <g
       id="g1081"
       transform="translate(-60.287206,-28.915185)">
      <g
         id="text863"
         style="font-style:normal;font-variant:normal;font-weight:800;font-stretch:condensed;font-size:22.57777786px;line-height:1.25;font-family:Futura;-inkscape-font-specification:'Futura, Ultra-Bold Condensed';font-variant-ligatures:normal;font-variant-caps:normal;font-variant-numeric:normal;font-feature-settings:normal;text-align:start;letter-spacing:0px;word-spacing:0px;writing-mode:lr-tb;text-anchor:start;fill:#ab37c8;fill-opacity:1;stroke:#000000;stroke-width:0.5291667;stroke-miterlimit:4;stroke-dasharray:none"
         aria-label="E">
        <path
           id="path1004"
           style="font-style:normal;font-variant:normal;font-weight:800;font-stretch:condensed;font-size:22.57777786px;font-family:Futura;-inkscape-font-specification:'Futura, Ultra-Bold Condensed';font-variant-ligatures:normal;font-variant-caps:normal;font-variant-numeric:normal;font-feature-settings:normal;text-align:start;writing-mode:lr-tb;text-anchor:start;fill:#ab37c8;stroke:#000000;stroke-width:0.5291667;stroke-miterlimit:4;stroke-dasharray:none"
           d="m 143.52864,153.23102 v -17.02153 h 8.54383 v 4.00182 h -3.9467 v 2.48047 h 3.53881 v 3.84748 h -3.53881 v 2.60174 h 3.9467 v 4.09002 z"
           inkscape:connector-curvature="0" />
      </g>
      <g
         id="text867"
         style="font-style:normal;font-variant:normal;font-weight:800;font-stretch:condensed;font-size:22.57777786px;line-height:1.25;font-family:Futura;-inkscape-font-specification:'Futura, Ultra-Bold Condensed';font-variant-ligatures:normal;font-variant-caps:normal;font-variant-numeric:normal;font-feature-settings:normal;text-align:start;letter-spacing:0px;word-spacing:0px;writing-mode:lr-tb;text-anchor:start;fill:#ab37c8;fill-opacity:1;stroke:#000000;stroke-width:0.5291667;stroke-miterlimit:4;stroke-dasharray:none"
         aria-label="D">
        <path
           id="path1001"
           style="font-style:normal;font-variant:normal;font-weight:800;font-stretch:condensed;font-size:22.57777786px;font-family:Futura;-inkscape-font-specification:'Futura, Ultra-Bold Condensed';font-variant-ligatures:normal;font-variant-caps:normal;font-variant-numeric:normal;font-feature-settings:normal;text-align:start;writing-mode:lr-tb;text-anchor:start;fill:#ab37c8;stroke:#000000;stroke-width:0.5291667;stroke-miterlimit:4;stroke-dasharray:none"
           d="m 133.35318,153.23102 v -17.02153 h 3.96875 q 3.40651,0 5.30269,1.83003 2.49149,2.39228 2.49149,6.69176 0,4.23333 -2.10564,6.53741 -1.79696,1.96233 -5.35781,1.96233 z m 4.59713,-4.11207 q 2.46945,-0.12127 2.46945,-4.25538 0,-2.0395 -0.62839,-3.2191 -0.62838,-1.19062 -1.69774,-1.19062 h -0.14332 z"
           inkscape:connector-curvature="0" />
      </g>
      <g
         id="text871"
         style="font-style:normal;font-variant:normal;font-weight:800;font-stretch:condensed;font-size:22.57777786px;line-height:1.25;font-family:Futura;-inkscape-font-specification:'Futura, Ultra-Bold Condensed';font-variant-ligatures:normal;font-variant-caps:normal;font-variant-numeric:normal;font-feature-settings:normal;text-align:start;letter-spacing:0px;word-spacing:0px;writing-mode:lr-tb;text-anchor:start;fill:#ab37c8;fill-opacity:1;stroke:#000000;stroke-width:0.5291667;stroke-miterlimit:4;stroke-dasharray:none"
         aria-label="O">
        <path
           id="path998"
           style="font-style:normal;font-variant:normal;font-weight:800;font-stretch:condensed;font-size:22.57777786px;font-family:Futura;-inkscape-font-specification:'Futura, Ultra-Bold Condensed';font-variant-ligatures:normal;font-variant-caps:normal;font-variant-numeric:normal;font-feature-settings:normal;text-align:start;writing-mode:lr-tb;text-anchor:start;fill:#ab37c8;stroke:#000000;stroke-width:0.5291667;stroke-miterlimit:4;stroke-dasharray:none"
           d="m 134.94064,144.78088 q 0,3.89158 -1.77491,6.32796 -1.76389,2.42534 -4.59714,2.42534 -2.51354,0 -4.3105,-1.8631 -2.25999,-2.35921 -2.25999,-7.07761 0,-4.51996 2.35921,-6.91224 1.75286,-1.77491 4.15616,-1.77491 2.94349,0 4.68533,2.4033 1.74184,2.4033 1.74184,6.47126 z m -4.77353,0.0331 q 0,-4.61919 -1.63159,-4.61919 -0.8158,0 -1.30087,1.21268 -0.47405,1.12448 -0.47405,3.30729 0,2.14974 0.44098,3.34036 0.45199,1.1796 1.24574,1.1796 0.8158,0 1.25677,-1.16857 0.46302,-1.16858 0.46302,-3.25217 z"
           inkscape:connector-curvature="0" />
      </g>
      <g
         id="text875"
         style="font-style:normal;font-variant:normal;font-weight:800;font-stretch:condensed;font-size:22.57777786px;line-height:1.25;font-family:Futura;-inkscape-font-specification:'Futura, Ultra-Bold Condensed';font-variant-ligatures:normal;font-variant-caps:normal;font-variant-numeric:normal;font-feature-settings:normal;text-align:start;letter-spacing:0px;word-spacing:0px;writing-mode:lr-tb;text-anchor:start;fill:#ab37c8;fill-opacity:1;stroke:#000000;stroke-width:0.5291667;stroke-miterlimit:4;stroke-dasharray:none"
         aria-label="C">
        <path
           id="path995"
           style="font-style:normal;font-variant:normal;font-weight:800;font-stretch:condensed;font-size:22.57777786px;font-family:Futura;-inkscape-font-specification:'Futura, Ultra-Bold Condensed';font-variant-ligatures:normal;font-variant-caps:normal;font-variant-numeric:normal;font-feature-settings:normal;text-align:start;writing-mode:lr-tb;text-anchor:start;fill:#ab37c8;stroke:#000000;stroke-width:0.5291667;stroke-miterlimit:4;stroke-dasharray:none"
           d="m 123.58561,147.99998 -0.26458,4.91684 q -1.53238,0.61736 -2.74505,0.61736 -2.8553,0 -4.8066,-2.09462 -2.18281,-2.34817 -2.18281,-6.64765 0,-4.02387 2.05052,-6.46024 2.05052,-2.42535 5.47908,-2.42535 1.11345,0 2.271,0.41892 v 4.86172 q -1.02526,-1.02526 -2.10564,-1.02526 -1.41111,0 -2.20486,1.20165 -0.79375,1.21267 -0.79375,3.35139 0,1.03628 0.19844,1.85208 0.19844,0.8158 0.56224,1.37804 0.37482,0.56224 0.91502,0.8599 0.54019,0.29765 1.23472,0.29765 1.19062,0 2.39227,-1.10243 z"
           inkscape:connector-curvature="0" />
      </g>
    </g>
    <g
       id="g1071"
       transform="translate(-61.988101,-63.499995)">
      <g
         id="text881"
         style="font-style:normal;font-variant:normal;font-weight:800;font-stretch:condensed;font-size:22.57777786px;line-height:1.25;font-family:Futura;-inkscape-font-specification:'Futura, Ultra-Bold Condensed';font-variant-ligatures:normal;font-variant-caps:normal;font-variant-numeric:normal;font-feature-settings:normal;text-align:start;letter-spacing:0px;word-spacing:0px;writing-mode:lr-tb;text-anchor:start;fill:#ffffff;fill-opacity:1;stroke:#000000;stroke-width:0.5291667;stroke-miterlimit:4;stroke-dasharray:none"
         aria-label="E">
        <path
           id="path1054"
           style="font-style:normal;font-variant:normal;font-weight:800;font-stretch:condensed;font-size:22.57777786px;font-family:Futura;-inkscape-font-specification:'Futura, Ultra-Bold Condensed';font-variant-ligatures:normal;font-variant-caps:normal;font-variant-numeric:normal;font-feature-settings:normal;text-align:start;writing-mode:lr-tb;text-anchor:start;fill:#ffffff;stroke:#000000;stroke-width:0.5291667;stroke-miterlimit:4;stroke-dasharray:none"
           d="M 145.22953,187.81583 V 170.7943 h 8.54384 v 4.00182 h -3.9467 v 2.48047 h 3.5388 v 3.84748 h -3.5388 v 2.60174 h 3.9467 v 4.09002 z"
           inkscape:connector-curvature="0" />
      </g>
      <g
         id="text925"
         style="font-style:normal;font-variant:normal;font-weight:800;font-stretch:condensed;font-size:22.57777786px;line-height:1.25;font-family:Futura;-inkscape-font-specification:'Futura, Ultra-Bold Condensed';font-variant-ligatures:normal;font-variant-caps:normal;font-variant-numeric:normal;font-feature-settings:normal;text-align:start;letter-spacing:0px;word-spacing:0px;writing-mode:lr-tb;text-anchor:start;fill:#000000;fill-opacity:1;stroke:#000000;stroke-width:0.5291667;stroke-miterlimit:4;stroke-dasharray:none"
         aria-label="D">
        <path
           id="path1051"
           style="font-style:normal;font-variant:normal;font-weight:800;font-stretch:condensed;font-size:22.57777786px;font-family:Futura;-inkscape-font-specification:'Futura, Ultra-Bold Condensed';font-variant-ligatures:normal;font-variant-caps:normal;font-variant-numeric:normal;font-feature-settings:normal;text-align:start;writing-mode:lr-tb;text-anchor:start;fill:#000000;stroke:#000000;stroke-width:0.5291667;stroke-miterlimit:4;stroke-dasharray:none"
           d="M 136.11239,187.81583 V 170.7943 h 3.96875 q 3.40651,0 5.30269,1.83003 2.4915,2.39228 2.4915,6.69176 0,4.23333 -2.10565,6.53741 -1.79696,1.96233 -5.35781,1.96233 z m 4.59714,-4.11207 q 2.46944,-0.12127 2.46944,-4.25538 0,-2.0395 -0.62838,-3.2191 -0.62839,-1.19062 -1.69775,-1.19062 h -0.14331 z"
           inkscape:connector-curvature="0" />
      </g>
      <g
         id="text885"
         style="font-style:normal;font-variant:normal;font-weight:800;font-stretch:condensed;font-size:22.57777786px;line-height:1.25;font-family:Futura;-inkscape-font-specification:'Futura, Ultra-Bold Condensed';font-variant-ligatures:normal;font-variant-caps:normal;font-variant-numeric:normal;font-feature-settings:normal;text-align:start;letter-spacing:0px;word-spacing:0px;writing-mode:lr-tb;text-anchor:start;fill:#ffffff;fill-opacity:1;stroke:#000000;stroke-width:0.5291667;stroke-miterlimit:4;stroke-dasharray:none"
         aria-label="D">
        <path
           id="path1048"
           style="font-style:normal;font-variant:normal;font-weight:800;font-stretch:condensed;font-size:22.57777786px;font-family:Futura;-inkscape-font-specification:'Futura, Ultra-Bold Condensed';font-variant-ligatures:normal;font-variant-caps:normal;font-variant-numeric:normal;font-feature-settings:normal;text-align:start;writing-mode:lr-tb;text-anchor:start;fill:#ffffff;stroke:#000000;stroke-width:0.5291667;stroke-miterlimit:4;stroke-dasharray:none"
           d="M 135.05407,187.81583 V 170.7943 h 3.96875 q 3.40651,0 5.3027,1.83003 2.49149,2.39228 2.49149,6.69176 0,4.23333 -2.10564,6.53741 -1.79697,1.96233 -5.35782,1.96233 z m 4.59714,-4.11207 q 2.46944,-0.12127 2.46944,-4.25538 0,-2.0395 -0.62838,-3.2191 -0.62839,-1.19062 -1.69774,-1.19062 h -0.14332 z"
           inkscape:connector-curvature="0" />
      </g>
      <g
         id="text921"
         style="font-style:normal;font-variant:normal;font-weight:800;font-stretch:condensed;font-size:22.57777786px;line-height:1.25;font-family:Futura;-inkscape-font-specification:'Futura, Ultra-Bold Condensed';font-variant-ligatures:normal;font-variant-caps:normal;font-variant-numeric:normal;font-feature-settings:normal;text-align:start;letter-spacing:0px;word-spacing:0px;writing-mode:lr-tb;text-anchor:start;fill:#000000;fill-opacity:1;stroke:#000000;stroke-width:0.5291667;stroke-miterlimit:4;stroke-dasharray:none"
         aria-label="O">
        <path
           id="path1045"
           style="font-style:normal;font-variant:normal;font-weight:800;font-stretch:condensed;font-size:22.57777786px;font-family:Futura;-inkscape-font-specification:'Futura, Ultra-Bold Condensed';font-variant-ligatures:normal;font-variant-caps:normal;font-variant-numeric:normal;font-feature-settings:normal;text-align:start;writing-mode:lr-tb;text-anchor:start;fill:#000000;stroke:#000000;stroke-width:0.5291667;stroke-miterlimit:4;stroke-dasharray:none"
           d="m 137.69987,179.36569 q 0,3.89158 -1.77491,6.32795 -1.76389,2.42535 -4.59714,2.42535 -2.51354,0 -4.3105,-1.86311 -2.25998,-2.3592 -2.25998,-7.0776 0,-4.51997 2.3592,-6.91224 1.75286,-1.77491 4.15616,-1.77491 2.94349,0 4.68533,2.4033 1.74184,2.40329 1.74184,6.47126 z m -4.77352,0.0331 q 0,-4.61919 -1.6316,-4.61919 -0.8158,0 -1.30087,1.21267 -0.47404,1.12448 -0.47404,3.3073 0,2.14974 0.44097,3.34036 0.45199,1.1796 1.24574,1.1796 0.8158,0 1.25678,-1.16857 0.46302,-1.16858 0.46302,-3.25217 z"
           inkscape:connector-curvature="0" />
      </g>
      <g
         id="text889"
         style="font-style:normal;font-variant:normal;font-weight:800;font-stretch:condensed;font-size:22.57777786px;line-height:1.25;font-family:Futura;-inkscape-font-specification:'Futura, Ultra-Bold Condensed';font-variant-ligatures:normal;font-variant-caps:normal;font-variant-numeric:normal;font-feature-settings:normal;text-align:start;letter-spacing:0px;word-spacing:0px;writing-mode:lr-tb;text-anchor:start;fill:#ffffff;fill-opacity:1;stroke:#000000;stroke-width:0.5291667;stroke-miterlimit:4;stroke-dasharray:none"
         aria-label="O">
        <path
           id="path1042"
           style="font-style:normal;font-variant:normal;font-weight:800;font-stretch:condensed;font-size:22.57777786px;font-family:Futura;-inkscape-font-specification:'Futura, Ultra-Bold Condensed';font-variant-ligatures:normal;font-variant-caps:normal;font-variant-numeric:normal;font-feature-settings:normal;text-align:start;writing-mode:lr-tb;text-anchor:start;fill:#ffffff;stroke:#000000;stroke-width:0.5291667;stroke-miterlimit:4;stroke-dasharray:none"
           d="m 136.64153,179.36569 q 0,3.89158 -1.77491,6.32795 -1.76389,2.42535 -4.59714,2.42535 -2.51354,0 -4.3105,-1.86311 -2.25999,-2.3592 -2.25999,-7.0776 0,-4.51997 2.3592,-6.91224 1.75287,-1.77491 4.15617,-1.77491 2.94349,0 4.68533,2.4033 1.74184,2.40329 1.74184,6.47126 z m -4.77353,0.0331 q 0,-4.61919 -1.63159,-4.61919 -0.8158,0 -1.30087,1.21267 -0.47405,1.12448 -0.47405,3.3073 0,2.14974 0.44098,3.34036 0.45199,1.1796 1.24574,1.1796 0.8158,0 1.25677,-1.16857 0.46302,-1.16858 0.46302,-3.25217 z"
           inkscape:connector-curvature="0" />
      </g>
      <g
         id="text917"
         style="font-style:normal;font-variant:normal;font-weight:800;font-stretch:condensed;font-size:22.57777786px;line-height:1.25;font-family:Futura;-inkscape-font-specification:'Futura, Ultra-Bold Condensed';font-variant-ligatures:normal;font-variant-caps:normal;font-variant-numeric:normal;font-feature-settings:normal;text-align:start;letter-spacing:0px;word-spacing:0px;writing-mode:lr-tb;text-anchor:start;fill:#000000;fill-opacity:1;stroke:#000000;stroke-width:0.5291667;stroke-miterlimit:4;stroke-dasharray:none"
         aria-label="C">
        <path
           id="path1039"
           style="font-style:normal;font-variant:normal;font-weight:800;font-stretch:condensed;font-size:22.57777786px;font-family:Futura;-inkscape-font-specification:'Futura, Ultra-Bold Condensed';font-variant-ligatures:normal;font-variant-caps:normal;font-variant-numeric:normal;font-feature-settings:normal;text-align:start;writing-mode:lr-tb;text-anchor:start;fill:#000000;stroke:#000000;stroke-width:0.5291667;stroke-miterlimit:4;stroke-dasharray:none"
           d="m 126.34484,182.58479 -0.26458,4.91684 q -1.53238,0.61736 -2.74505,0.61736 -2.8553,0 -4.8066,-2.09462 -2.18281,-2.34817 -2.18281,-6.64765 0,-4.02387 2.05052,-6.46025 2.05052,-2.42534 5.47908,-2.42534 1.11345,0 2.27101,0.41892 v 4.86172 q -1.02526,-1.02526 -2.10565,-1.02526 -1.41111,0 -2.20486,1.20165 -0.79375,1.21267 -0.79375,3.35139 0,1.03628 0.19844,1.85208 0.19844,0.8158 0.56224,1.37804 0.37483,0.56224 0.91502,0.85989 0.54019,0.29766 1.23472,0.29766 1.19062,0 2.39227,-1.10243 z"
           inkscape:connector-curvature="0" />
      </g>
      <g
         id="text893"
         style="font-style:normal;font-variant:normal;font-weight:800;font-stretch:condensed;font-size:22.57777786px;line-height:1.25;font-family:Futura;-inkscape-font-specification:'Futura, Ultra-Bold Condensed';font-variant-ligatures:normal;font-variant-caps:normal;font-variant-numeric:normal;font-feature-settings:normal;text-align:start;letter-spacing:0px;word-spacing:0px;writing-mode:lr-tb;text-anchor:start;fill:#ffffff;fill-opacity:1;stroke:#000000;stroke-width:0.5291667;stroke-miterlimit:4;stroke-dasharray:none"
         aria-label="C">
        <path
           id="path1036"
           style="font-style:normal;font-variant:normal;font-weight:800;font-stretch:condensed;font-size:22.57777786px;font-family:Futura;-inkscape-font-specification:'Futura, Ultra-Bold Condensed';font-variant-ligatures:normal;font-variant-caps:normal;font-variant-numeric:normal;font-feature-settings:normal;text-align:start;writing-mode:lr-tb;text-anchor:start;fill:#ffffff;stroke:#000000;stroke-width:0.5291667;stroke-miterlimit:4;stroke-dasharray:none"
           d="m 125.2865,182.58479 -0.26458,4.91684 q -1.53238,0.61736 -2.74505,0.61736 -2.8553,0 -4.8066,-2.09462 -2.18281,-2.34817 -2.18281,-6.64765 0,-4.02387 2.05052,-6.46025 2.05052,-2.42534 5.47908,-2.42534 1.11345,0 2.271,0.41892 v 4.86172 q -1.02526,-1.02526 -2.10564,-1.02526 -1.41111,0 -2.20486,1.20165 -0.79375,1.21267 -0.79375,3.35139 0,1.03628 0.19844,1.85208 0.19844,0.8158 0.56224,1.37804 0.37482,0.56224 0.91501,0.85989 0.5402,0.29766 1.23473,0.29766 1.19062,0 2.39227,-1.10243 z"
           inkscape:connector-curvature="0" />
      </g>
    </g>
  </g>
</svg>
