<?xml version="1.0" encoding="UTF-8" standalone="no"?>
<!-- Created with Inkscape (http://www.inkscape.org/) -->

<svg
   xmlns:osb="http://www.openswatchbook.org/uri/2009/osb"
   xmlns:dc="http://purl.org/dc/elements/1.1/"
   xmlns:cc="http://creativecommons.org/ns#"
   xmlns:rdf="http://www.w3.org/1999/02/22-rdf-syntax-ns#"
   xmlns:svg="http://www.w3.org/2000/svg"
   xmlns="http://www.w3.org/2000/svg"
   xmlns:sodipodi="http://sodipodi.sourceforge.net/DTD/sodipodi-0.dtd"
   xmlns:inkscape="http://www.inkscape.org/namespaces/inkscape"
   width="368.08749"
   height="80.944"
   viewBox="0 0 97.389812 21.416432"
   version="1.1"
   id="svg8"
   inkscape:version="0.92.2 5c3e80d, 2017-08-06"
   sodipodi:docname="codepen.svg">
  <defs
     id="defs2">
    <linearGradient
       id="linearGradient2282"
       osb:paint="solid">
      <stop
         style="stop-color:#000000;stop-opacity:1;"
         offset="0"
         id="stop2280" />
    </linearGradient>
  </defs>
  <sodipodi:namedview
     id="base"
     pagecolor="#ffffff"
     bordercolor="#666666"
     borderopacity="1.0"
     inkscape:pageopacity="0.0"
     inkscape:pageshadow="2"
     inkscape:zoom="5.0654525"
     inkscape:cx="186.5275"
     inkscape:cy="-19.669759"
     inkscape:document-units="mm"
     inkscape:current-layer="layer1"
     showgrid="false"
     fit-margin-top="5"
     fit-margin-left="5"
     fit-margin-right="5"
     fit-margin-bottom="5"
     units="px"
     inkscape:window-width="3440"
     inkscape:window-height="1418"
     inkscape:window-x="0"
     inkscape:window-y="478"
     inkscape:window-maximized="1" />
  <metadata
     id="metadata5">
    <rdf:RDF>
      <cc:Work
         rdf:about="">
        <dc:format>image/svg+xml</dc:format>
        <dc:type
           rdf:resource="http://purl.org/dc/dcmitype/StillImage" />
        <dc:title></dc:title>
      </cc:Work>
    </rdf:RDF>
  </metadata>
  <g
     inkscape:label="Layer 1"
     inkscape:groupmode="layer"
     id="layer1"
     transform="translate(-89.966094,-123.44911)">
    <g
       aria-label="CODEPEN"
       style="font-style:normal;font-variant:normal;font-weight:900;font-stretch:condensed;font-size:25.39999962px;line-height:1.25;font-family:'Helvetica Neue';-inkscape-font-specification:'Helvetica Neue, Heavy Condensed';font-variant-ligatures:normal;font-variant-caps:normal;font-variant-numeric:normal;font-feature-settings:normal;text-align:start;letter-spacing:0px;word-spacing:0px;writing-mode:lr-tb;text-anchor:start;fill:none;fill-opacity:1;stroke:#000000;stroke-width:0.5291667;stroke-miterlimit:4;stroke-dasharray:none"
       id="text2387">
      <path
         d="m 99.061411,130.63943 v 1.016 h 4.571999 v -1.143 q 0,-1.3208 -0.3302,-2.3622 -0.3048,-1.0668 -1.016,-1.8034 -0.6858,-0.762 -1.8034,-1.1684 -1.117599,-0.4064 -2.717799,-0.4064 -1.8288,0 -3.0734,0.508 -1.2446,0.4826 -2.0066,1.6002 -0.762,1.1176 -1.0922,2.921 -0.3048,1.8034 -0.3048,4.3942 0,2.54 0.254,4.3434 0.2794,1.778 0.9906,2.921 0.7112,1.1176 1.9812,1.6002 1.27,0.4826 3.2512,0.4826 1.143,0 2.2098,-0.254 1.092199,-0.2286 1.930399,-0.9144 0.8382,-0.7112 1.3462,-1.9304 0.508,-1.2192 0.508,-3.1242 v -1.3462 h -4.571999 q 0,1.2954 -0.0762,2.159 -0.0508,0.8382 -0.2032,1.3462 -0.1524,0.508 -0.4318,0.7366 -0.2794,0.2032 -0.7112,0.2032 -0.5334,0 -0.8636,-0.2794 -0.3048,-0.2794 -0.4826,-0.9906 -0.1524,-0.7112 -0.2032,-1.905 -0.0508,-1.2192 -0.0508,-3.048 0,-1.8288 0.0508,-3.0226 0.0508,-1.2192 0.2032,-1.9304 0.1778,-0.7112 0.4826,-0.9906 0.3302,-0.2794 0.8636,-0.2794 0.6858,0 0.9906,0.5588 0.3048,0.5588 0.3048,2.1082 z"
         style="font-style:normal;font-variant:normal;font-weight:900;font-stretch:condensed;font-size:25.39999962px;font-family:'Helvetica Neue';-inkscape-font-specification:'Helvetica Neue, Heavy Condensed';font-variant-ligatures:normal;font-variant-caps:normal;font-variant-numeric:normal;font-feature-settings:normal;text-align:start;writing-mode:lr-tb;text-anchor:start;fill:none;stroke:#000000;stroke-width:0.5291667;stroke-miterlimit:4;stroke-dasharray:none"
         id="path2425" />
      <path
         d="m 109.80839,134.19543 q 0,-1.8288 0.0508,-3.0226 0.0508,-1.2192 0.2032,-1.9304 0.1778,-0.7112 0.4826,-0.9906 0.3302,-0.2794 0.8636,-0.2794 0.5334,0 0.8382,0.2794 0.3302,0.2794 0.4826,0.9906 0.1778,0.7112 0.2286,1.9304 0.0508,1.1938 0.0508,3.0226 0,1.8288 -0.0508,3.048 -0.0508,1.1938 -0.2286,1.905 -0.1524,0.7112 -0.4826,0.9906 -0.3048,0.2794 -0.8382,0.2794 -0.5334,0 -0.8636,-0.2794 -0.3048,-0.2794 -0.4826,-0.9906 -0.1524,-0.7112 -0.2032,-1.905 -0.0508,-1.2192 -0.0508,-3.048 z m -4.8768,0 q 0,2.54 0.3302,4.3434 0.3302,1.778 1.0922,2.921 0.762,1.1176 2.0066,1.6002 1.2446,0.4826 3.048,0.4826 1.8034,0 3.048,-0.4826 1.2446,-0.4826 2.0066,-1.6002 0.762,-1.143 1.0922,-2.921 0.3302,-1.8034 0.3302,-4.3434 0,-2.54 -0.3302,-4.318 -0.3302,-1.8034 -1.0922,-2.921 -0.762,-1.143 -2.0066,-1.651 -1.2446,-0.5334 -3.048,-0.5334 -1.8034,0 -3.048,0.5334 -1.2446,0.508 -2.0066,1.651 -0.762,1.1176 -1.0922,2.921 -0.3302,1.778 -0.3302,4.318 z"
         style="font-style:normal;font-variant:normal;font-weight:900;font-stretch:condensed;font-size:25.39999962px;font-family:'Helvetica Neue';-inkscape-font-specification:'Helvetica Neue, Heavy Condensed';font-variant-ligatures:normal;font-variant-caps:normal;font-variant-numeric:normal;font-feature-settings:normal;text-align:start;writing-mode:lr-tb;text-anchor:start;fill:none;stroke:#000000;stroke-width:0.5291667;stroke-miterlimit:4;stroke-dasharray:none"
         id="path2427" />
      <path
         d="m 119.60366,125.12763 v 18.1356 h 6.858 q 2.0574,0 3.2004,-0.7366 1.143,-0.762 1.7018,-2.0066 0.5842,-1.27 0.7112,-2.8956 0.127,-1.651 0.127,-3.429 0,-1.778 -0.127,-3.4036 -0.127,-1.651 -0.7112,-2.8956 -0.5588,-1.27 -1.7018,-2.0066 -1.143,-0.762 -3.2004,-0.762 z m 4.7244,14.732 v -11.3284 h 0.9398 q 0.6858,0 1.0922,0.2032 0.4064,0.1778 0.6096,0.7874 0.2286,0.6096 0.2794,1.7272 0.0762,1.1176 0.0762,2.9464 0,1.8288 -0.0762,2.9464 -0.0508,1.1176 -0.2794,1.7272 -0.2032,0.6096 -0.6096,0.8128 -0.4064,0.1778 -1.0922,0.1778 z"
         style="font-style:normal;font-variant:normal;font-weight:900;font-stretch:condensed;font-size:25.39999962px;font-family:'Helvetica Neue';-inkscape-font-specification:'Helvetica Neue, Heavy Condensed';font-variant-ligatures:normal;font-variant-caps:normal;font-variant-numeric:normal;font-feature-settings:normal;text-align:start;writing-mode:lr-tb;text-anchor:start;fill:none;stroke:#000000;stroke-width:0.5291667;stroke-miterlimit:4;stroke-dasharray:none"
         id="path2429" />
      <path
         d="m 134.18882,125.12763 v 18.1356 h 10.9728 v -3.8608 h -6.2484 v -3.6068 h 5.6388 v -3.7084 h -5.6388 v -3.0988 h 6.0198 v -3.8608 z"
         style="font-style:normal;font-variant:normal;font-weight:900;font-stretch:condensed;font-size:25.39999962px;font-family:'Helvetica Neue';-inkscape-font-specification:'Helvetica Neue, Heavy Condensed';font-variant-ligatures:normal;font-variant-caps:normal;font-variant-numeric:normal;font-feature-settings:normal;text-align:start;writing-mode:lr-tb;text-anchor:start;fill:none;stroke:#000000;stroke-width:0.5291667;stroke-miterlimit:4;stroke-dasharray:none"
         id="path2431" />
      <path
         d="m 151.43542,132.95083 v -4.4196 h 0.889 q 1.8288,0 1.8288,2.2098 0,1.143 -0.4826,1.6764 -0.4572,0.5334 -1.3462,0.5334 z m -4.7244,-7.8232 v 18.1356 h 4.7244 v -6.9088 h 1.651 q 2.921,0 4.4196,-1.397 1.524,-1.4224 1.524,-4.2418 0,-1.1938 -0.3048,-2.2098 -0.3048,-1.016 -0.9652,-1.7526 -0.635,-0.762 -1.6256,-1.1938 -0.9906,-0.4318 -2.3368,-0.4318 z"
         style="font-style:normal;font-variant:normal;font-weight:900;font-stretch:condensed;font-size:25.39999962px;font-family:'Helvetica Neue';-inkscape-font-specification:'Helvetica Neue, Heavy Condensed';font-variant-ligatures:normal;font-variant-caps:normal;font-variant-numeric:normal;font-feature-settings:normal;text-align:start;writing-mode:lr-tb;text-anchor:start;fill:none;stroke:#000000;stroke-width:0.5291667;stroke-miterlimit:4;stroke-dasharray:none"
         id="path2433" />
      <path
         d="m 160.5314,125.12763 v 18.1356 h 10.9728 v -3.8608 h -6.2484 v -3.6068 h 5.6388 v -3.7084 h -5.6388 v -3.0988 h 6.0198 v -3.8608 z"
         style="font-style:normal;font-variant:normal;font-weight:900;font-stretch:condensed;font-size:25.39999962px;font-family:'Helvetica Neue';-inkscape-font-specification:'Helvetica Neue, Heavy Condensed';font-variant-ligatures:normal;font-variant-caps:normal;font-variant-numeric:normal;font-feature-settings:normal;text-align:start;writing-mode:lr-tb;text-anchor:start;fill:none;stroke:#000000;stroke-width:0.5291667;stroke-miterlimit:4;stroke-dasharray:none"
         id="path2435" />
      <path
         d="m 173.23139,125.12763 v 18.1356 h 4.4196 v -11.2014 h 0.0508 l 3.1496,11.2014 h 5.1816 v -18.1356 h -4.4196 v 11.176 h -0.0508 l -3.048,-11.176 z"
         style="font-style:normal;font-variant:normal;font-weight:900;font-stretch:condensed;font-size:25.39999962px;font-family:'Helvetica Neue';-inkscape-font-specification:'Helvetica Neue, Heavy Condensed';font-variant-ligatures:normal;font-variant-caps:normal;font-variant-numeric:normal;font-feature-settings:normal;text-align:start;writing-mode:lr-tb;text-anchor:start;fill:none;stroke:#000000;stroke-width:0.5291667;stroke-miterlimit:4;stroke-dasharray:none"
         id="path2437" />
    </g>
  </g>
</svg>
