<?xml version="1.0" encoding="UTF-8" standalone="no"?>
<!-- Created with Inkscape (http://www.inkscape.org/) -->

<svg
   xmlns:osb="http://www.openswatchbook.org/uri/2009/osb"
   xmlns:dc="http://purl.org/dc/elements/1.1/"
   xmlns:cc="http://creativecommons.org/ns#"
   xmlns:rdf="http://www.w3.org/1999/02/22-rdf-syntax-ns#"
   xmlns:svg="http://www.w3.org/2000/svg"
   xmlns="http://www.w3.org/2000/svg"
   xmlns:sodipodi="http://sodipodi.sourceforge.net/DTD/sodipodi-0.dtd"
   xmlns:inkscape="http://www.inkscape.org/namespaces/inkscape"
   width="236.92749"
   height="80.271996"
   viewBox="0 0 62.687064 21.238631"
   version="1.1"
   id="svg8"
   inkscape:version="0.92.2 5c3e80d, 2017-08-06"
   sodipodi:docname="text.svg">
  <defs
     id="defs2">
    <linearGradient
       id="linearGradient2282"
       osb:paint="solid">
      <stop
         style="stop-color:#000000;stop-opacity:1;"
         offset="0"
         id="stop2280" />
    </linearGradient>
  </defs>
  <sodipodi:namedview
     id="base"
     pagecolor="#ffffff"
     bordercolor="#666666"
     borderopacity="1.0"
     inkscape:pageopacity="0.0"
     inkscape:pageshadow="2"
     inkscape:zoom="7.1636316"
     inkscape:cx="60.884655"
     inkscape:cy="16.205862"
     inkscape:document-units="mm"
     inkscape:current-layer="layer1"
     showgrid="false"
     fit-margin-top="5"
     fit-margin-left="5"
     fit-margin-right="5"
     fit-margin-bottom="5"
     units="px"
     inkscape:window-width="3440"
     inkscape:window-height="1418"
     inkscape:window-x="0"
     inkscape:window-y="478"
     inkscape:window-maximized="1" />
  <metadata
     id="metadata5">
    <rdf:RDF>
      <cc:Work
         rdf:about="">
        <dc:format>image/svg+xml</dc:format>
        <dc:type
           rdf:resource="http://purl.org/dc/dcmitype/StillImage" />
        <dc:title></dc:title>
      </cc:Work>
    </rdf:RDF>
  </metadata>
  <g
     inkscape:label="Layer 1"
     inkscape:groupmode="layer"
     id="layer1"
     transform="translate(-73.002886,-136.38299)">
    <g
       aria-label="JH3Y"
       style="font-style:normal;font-variant:normal;font-weight:800;font-stretch:normal;font-size:25.39999962px;line-height:1.25;font-family:'JetBrains Mono';-inkscape-font-specification:'JetBrains Mono, Ultra-Bold';font-variant-ligatures:normal;font-variant-caps:normal;font-variant-numeric:normal;font-feature-settings:normal;text-align:start;letter-spacing:0px;word-spacing:0px;writing-mode:lr-tb;text-anchor:start;fill:#000000;fill-opacity:1;stroke:none;stroke-width:0.26458332"
       id="text2332">
      <path
         d="m 78.135802,150.6853 q 0.0508,1.0414 0.7366,1.6764 0.6858,0.635 1.8034,0.635 1.1684,0 1.8542,-0.6858 0.6858,-0.6858 0.6858,-1.8288 v -9.2202 h -6.096 v -3.556 h 9.906 v 12.7762 q 0,1.3462 -0.4572,2.4384 -0.4318,1.0668 -1.27,1.8288 -0.8128,0.7366 -1.9812,1.143 -1.1684,0.4064 -2.6416,0.4064 -1.4224,0 -2.5908,-0.381 -1.143,-0.4064 -1.9812,-1.1176 -0.8128,-0.7366 -1.27,-1.778 -0.4572,-1.0414 -0.508,-2.3368 z"
         style="font-style:normal;font-variant:normal;font-weight:800;font-stretch:normal;font-size:25.39999962px;font-family:'JetBrains Mono';-inkscape-font-specification:'JetBrains Mono, Ultra-Bold';font-variant-ligatures:normal;font-variant-caps:normal;font-variant-numeric:normal;font-feature-settings:normal;text-align:start;writing-mode:lr-tb;text-anchor:start;stroke-width:0.52916667;stroke:#800080;fill:none;stroke-miterlimit:4;stroke-dasharray:2.11666667, 2.11666666999999986;stroke-dashoffset:0"
         id="path2334" />
      <path
         d="m 90.69888,156.0193 v -18.288 h 3.81 v 7.0104 h 4.318 v -7.0104 h 3.81 v 18.288 h -3.81 v -7.7216 h -4.318 v 7.7216 z"
         style="font-style:normal;font-variant:normal;font-weight:800;font-stretch:normal;font-size:25.39999962px;font-family:'JetBrains Mono';-inkscape-font-specification:'JetBrains Mono, Ultra-Bold';font-variant-ligatures:normal;font-variant-caps:normal;font-variant-numeric:normal;font-feature-settings:normal;text-align:start;writing-mode:lr-tb;text-anchor:start;stroke-width:0.52916667;stroke:#800080;fill:none;stroke-miterlimit:4;stroke-dasharray:2.11666667, 2.11666666999999986;stroke-dashoffset:0"
         id="path2336" />
      <path
         d="m 111.89796,156.2733 q -1.397,0 -2.54,-0.3302 -1.143,-0.3556 -2.0066,-0.9906 -0.8382,-0.6604 -1.3462,-1.5748 -0.4826,-0.9144 -0.5842,-2.0574 h 3.81 q 0.127,0.8128 0.8636,1.2954 0.7366,0.4826 1.8034,0.4826 1.2192,0 1.9304,-0.7112 0.7366,-0.7366 0.7366,-1.9558 0,-1.2192 -0.762,-1.9304 -0.762,-0.7366 -2.032,-0.7366 h -2.286 v -3.429 l 2.4384,-2.1336 q 0.3302,-0.2794 0.6858,-0.5334 0.3556,-0.254 0.635,-0.4318 0.3556,-0.2286 0.6858,-0.4064 v -0.254 q -0.381,0.1016 -0.8382,0.1524 -0.381,0.0762 -0.9144,0.127 -0.508,0.0508 -1.0922,0.0508 h -4.7752 v -3.175 h 11.303 v 3.429 l -3.2766,2.6416 q -0.4826,0.381 -0.9652,0.635 -0.2286,0.1524 -0.4572,0.254 1.27,0.1016 2.286,0.5588 1.016,0.4572 1.7018,1.1938 0.7112,0.7366 1.0922,1.7526 0.381,1.016 0.381,2.2352 0,1.3208 -0.4826,2.413 -0.4572,1.0668 -1.3208,1.8288 -0.8382,0.762 -2.032,1.1938 -1.1938,0.4064 -2.6416,0.4064 z"
         style="font-style:normal;font-variant:normal;font-weight:800;font-stretch:normal;font-size:25.39999962px;font-family:'JetBrains Mono';-inkscape-font-specification:'JetBrains Mono, Ultra-Bold';font-variant-ligatures:normal;font-variant-caps:normal;font-variant-numeric:normal;font-feature-settings:normal;text-align:start;writing-mode:lr-tb;text-anchor:start;stroke-width:0.52916667;stroke:#800080;fill:none;stroke-miterlimit:4;stroke-dasharray:2.11666667, 2.11666666999999986;stroke-dashoffset:0"
         id="path2338" />
      <path
         d="m 123.87683,137.7313 2.7178,6.477 q 0.2032,0.4318 0.2794,0.8382 0.1016,0.4064 0.1524,0.7366 0.0508,0.381 0.0762,0.7112 h 0.1778 q 0.0254,-0.3302 0.0762,-0.7112 0.0508,-0.3302 0.1524,-0.7366 0.1016,-0.4064 0.2794,-0.8382 l 2.6162,-6.477 h 3.9624 l -5.334,11.938 v 6.35 h -3.81 v -6.35 l -5.334,-11.938 z"
         style="font-style:normal;font-variant:normal;font-weight:800;font-stretch:normal;font-size:25.39999962px;font-family:'JetBrains Mono';-inkscape-font-specification:'JetBrains Mono, Ultra-Bold';font-variant-ligatures:normal;font-variant-caps:normal;font-variant-numeric:normal;font-feature-settings:normal;text-align:start;writing-mode:lr-tb;text-anchor:start;stroke-width:0.52916667;stroke:#800080;fill:none;stroke-miterlimit:4;stroke-dasharray:2.11666667, 2.11666666999999986;stroke-dashoffset:0"
         id="path2340" />
    </g>
  </g>
</svg>
