<svg xmlns="http://www.w3.org/2000/svg" viewBox="0 0 840 1456">
  <path d="M-779 1815L918 835l693-400-277-160-26-15-9-5-2390 1380 320 185" fill="#c8beb7" stroke="#000" stroke-width=".3"/>
  <path d="M-1091 1635v90l312 180v-90z" fill="#917c6f" stroke="#000" stroke-width=".3"/>
  <path d="M-779 1905L1611 525v-90L-779 1815z" fill="#6c5d53" stroke="#000" stroke-width=".3"/>
  <path d="M1394 310l122 70-866 500-1525 880-121-70L260 965z" fill="#483e37" stroke="#000" stroke-width=".3"/>
  <path d="M-935 1725l563-325 762-440 1065-615" fill="none" stroke="#fc0" stroke-width="3" stroke-linecap="round" stroke-linejoin="round" stroke-dasharray="18 18"/>
  <path d="M52 975l312 180 121-70-312-180z" fill="#483e37"/>
  <g stroke="#fc0">
    <path d="M113 940l311 180" fill="none" stroke-width="3" stroke-linecap="round" stroke-dasharray="18 18" stroke-dashoffset="24.3"/>
    <path d="M269 960l121 70-121 70-122-70 122-70" fill="#483e37"/>
  </g>
  <path d="M1576 415L840 840l-355 205 35 20 355-205 736-425zM277 1165l-736 425-355 205 35 20 355-205 736-425z" fill="#5aa02c"/>
  <g>
    <path d="M0 1005l-736 425-355 205 35 20 355-205 736-425z" fill="#4d4d4d"/>
    <path d="M-277 1165l35 20-234 135-35-20z" fill="#4a0"/>
    <path d="M-753 1480v-400l-35-20v400z" fill="gray"/>
    <path d="M-753 1080l259-150-34-20-260 150z" fill="#ccc"/>
    <path d="M-494 930v400l-259 150v-400z" fill="#999"/>
    <path d="M-589 1385v-20l18-10v20z" fill="#333"/>
    <path d="M-584 1368v15l8-5v-15zM-537 1340v10l-8 5v-10zM-554 1350v10l-9 5v-10zM-519 1330v10l-9 5v-10zM-502 1320v10l-9 5v-10z" fill="#d5fff6"/>
    <g fill="#d5fff6">
      <path d="M-736 1455v10l-9 5v-10zM-719 1445v10l-8 5v-10zM-701 1435v10l-9 5v-10zM-684 1425v10l-9 5v-10zM-667 1415v10l-8 5v-10zM-649 1405v10l-9 5v-10zM-632 1395v10l-9 5v-10zM-615 1385v10l-8 5v-10zM-597 1375v10l-9 5v-10z"/>
    </g>
    <g fill="#d5fff6">
      <path d="M-736 1430v10l-9 5v-10zM-719 1420v10l-8 5v-10zM-701 1410v10l-9 5v-10zM-684 1400v10l-9 5v-10zM-667 1390v10l-8 5v-10zM-649 1380v10l-9 5v-10zM-632 1370v10l-9 5v-10zM-615 1360v10l-8 5v-10zM-597 1350v10l-9 5v-10zM-537 1315v10l-8 5v-10zM-554 1325v10l-9 5v-10zM-519 1305v10l-9 5v-10zM-502 1295v10l-9 5v-10z"/>
    </g>
    <path d="M-576 998v350l-8 5v-350z" fill="#d5fff6"/>
    <g fill="#d5fff6">
      <path d="M-736 1410v10l-9 5v-10zM-719 1400v10l-8 5v-10zM-701 1390v10l-9 5v-10zM-684 1380v10l-9 5v-10zM-667 1370v10l-8 5v-10zM-649 1360v10l-9 5v-10zM-632 1350v10l-9 5v-10zM-615 1340v10l-8 5v-10zM-597 1330v10l-9 5v-10zM-537 1295v10l-8 5v-10zM-554 1305v10l-9 5v-10zM-519 1285v10l-9 5v-10zM-502 1275v10l-9 5v-10z"/>
    </g>
    <g fill="#d5fff6">
      <path d="M-736 1390v10l-9 5v-10zM-719 1380v10l-8 5v-10zM-701 1370v10l-9 5v-10zM-684 1360v10l-9 5v-10zM-667 1350v10l-8 5v-10zM-649 1340v10l-9 5v-10zM-632 1330v10l-9 5v-10zM-615 1320v10l-8 5v-10zM-597 1310v10l-9 5v-10zM-537 1275v10l-8 5v-10zM-554 1285v10l-9 5v-10zM-519 1265v10l-9 5v-10zM-502 1255v10l-9 5v-10z"/>
    </g>
    <g fill="#d5fff6">
      <path d="M-736 1370v10l-9 5v-10zM-719 1360v10l-8 5v-10zM-701 1350v10l-9 5v-10zM-684 1340v10l-9 5v-10zM-667 1330v10l-8 5v-10zM-649 1320v10l-9 5v-10zM-632 1310v10l-9 5v-10zM-615 1300v10l-8 5v-10zM-597 1290v10l-9 5v-10zM-537 1255v10l-8 5v-10zM-554 1265v10l-9 5v-10zM-519 1245v10l-9 5v-10zM-502 1235v10l-9 5v-10z"/>
    </g>
    <g fill="#d5fff6">
      <path d="M-736 1350v10l-9 5v-10zM-719 1340v10l-8 5v-10zM-701 1330v10l-9 5v-10zM-684 1320v10l-9 5v-10zM-667 1310v10l-8 5v-10zM-649 1300v10l-9 5v-10zM-632 1290v10l-9 5v-10zM-615 1280v10l-8 5v-10zM-597 1270v10l-9 5v-10zM-537 1235v10l-8 5v-10zM-554 1245v10l-9 5v-10zM-519 1225v10l-9 5v-10zM-502 1215v10l-9 5v-10z"/>
    </g>
    <g fill="#d5fff6">
      <path d="M-736 1330v10l-9 5v-10zM-719 1320v10l-8 5v-10zM-701 1310v10l-9 5v-10zM-684 1300v10l-9 5v-10zM-667 1290v10l-8 5v-10zM-649 1280v10l-9 5v-10zM-632 1270v10l-9 5v-10zM-615 1260v10l-8 5v-10zM-597 1250v10l-9 5v-10zM-537 1215v10l-8 5v-10zM-554 1225v10l-9 5v-10zM-519 1205v10l-9 5v-10zM-502 1195v10l-9 5v-10z"/>
    </g>
    <g fill="#d5fff6">
      <path d="M-736 1310v10l-9 5v-10zM-719 1300v10l-8 5v-10zM-701 1290v10l-9 5v-10zM-684 1280v10l-9 5v-10zM-667 1270v10l-8 5v-10zM-649 1260v10l-9 5v-10zM-632 1250v10l-9 5v-10zM-615 1240v10l-8 5v-10zM-597 1230v10l-9 5v-10zM-537 1195v10l-8 5v-10zM-554 1205v10l-9 5v-10zM-519 1185v10l-9 5v-10zM-502 1175v10l-9 5v-10z"/>
    </g>
    <g fill="#d5fff6">
      <path d="M-736 1290v10l-9 5v-10zM-719 1280v10l-8 5v-10zM-701 1270v10l-9 5v-10zM-684 1260v10l-9 5v-10zM-667 1250v10l-8 5v-10zM-649 1240v10l-9 5v-10zM-632 1230v10l-9 5v-10zM-615 1220v10l-8 5v-10zM-597 1210v10l-9 5v-10zM-537 1175v10l-8 5v-10zM-554 1185v10l-9 5v-10zM-519 1165v10l-9 5v-10zM-502 1155v10l-9 5v-10z"/>
    </g>
    <g fill="#d5fff6">
      <path d="M-736 1270v10l-9 5v-10zM-719 1260v10l-8 5v-10zM-701 1250v10l-9 5v-10zM-684 1240v10l-9 5v-10zM-667 1230v10l-8 5v-10zM-649 1220v10l-9 5v-10zM-632 1210v10l-9 5v-10zM-615 1200v10l-8 5v-10zM-597 1190v10l-9 5v-10zM-537 1155v10l-8 5v-10zM-554 1165v10l-9 5v-10zM-519 1145v10l-9 5v-10zM-502 1135v10l-9 5v-10z"/>
    </g>
    <g fill="#d5fff6">
      <path d="M-736 1250v10l-9 5v-10zM-719 1240v10l-8 5v-10zM-701 1230v10l-9 5v-10zM-684 1220v10l-9 5v-10zM-667 1210v10l-8 5v-10zM-649 1200v10l-9 5v-10zM-632 1190v10l-9 5v-10zM-615 1180v10l-8 5v-10zM-597 1170v10l-9 5v-10zM-537 1135v10l-8 5v-10zM-554 1145v10l-9 5v-10zM-519 1125v10l-9 5v-10zM-502 1115v10l-9 5v-10z"/>
    </g>
    <g fill="#d5fff6">
      <path d="M-736 1230v10l-9 5v-10zM-719 1220v10l-8 5v-10zM-701 1210v10l-9 5v-10zM-684 1200v10l-9 5v-10zM-667 1190v10l-8 5v-10zM-649 1180v10l-9 5v-10zM-632 1170v10l-9 5v-10zM-615 1160v10l-8 5v-10zM-597 1150v10l-9 5v-10zM-537 1115v10l-8 5v-10zM-554 1125v10l-9 5v-10zM-519 1105v10l-9 5v-10zM-502 1095v10l-9 5v-10z"/>
    </g>
    <g fill="#d5fff6">
      <path d="M-736 1210v10l-9 5v-10zM-719 1200v10l-8 5v-10zM-701 1190v10l-9 5v-10zM-684 1180v10l-9 5v-10zM-667 1170v10l-8 5v-10zM-649 1160v10l-9 5v-10zM-632 1150v10l-9 5v-10zM-615 1140v10l-8 5v-10zM-597 1130v10l-9 5v-10zM-537 1095v10l-8 5v-10zM-554 1105v10l-9 5v-10zM-519 1085v10l-9 5v-10zM-502 1075v10l-9 5v-10z"/>
    </g>
    <g fill="#d5fff6">
      <path d="M-736 1190v10l-9 5v-10zM-719 1180v10l-8 5v-10zM-701 1170v10l-9 5v-10zM-684 1160v10l-9 5v-10zM-667 1150v10l-8 5v-10zM-649 1140v10l-9 5v-10zM-632 1130v10l-9 5v-10zM-615 1120v10l-8 5v-10zM-597 1110v10l-9 5v-10zM-537 1075v10l-8 5v-10zM-554 1085v10l-9 5v-10zM-519 1065v10l-9 5v-10zM-502 1055v10l-9 5v-10z"/>
    </g>
    <g fill="#d5fff6">
      <path d="M-736 1170v10l-9 5v-10zM-719 1160v10l-8 5v-10zM-701 1150v10l-9 5v-10zM-684 1140v10l-9 5v-10zM-667 1130v10l-8 5v-10zM-649 1120v10l-9 5v-10zM-632 1110v10l-9 5v-10zM-615 1100v10l-8 5v-10zM-597 1090v10l-9 5v-10zM-537 1055v10l-8 5v-10zM-554 1065v10l-9 5v-10zM-519 1045v10l-9 5v-10zM-502 1035v10l-9 5v-10z"/>
    </g>
    <g fill="#d5fff6">
      <path d="M-736 1150v10l-9 5v-10zM-719 1140v10l-8 5v-10zM-701 1130v10l-9 5v-10zM-684 1120v10l-9 5v-10zM-667 1110v10l-8 5v-10zM-649 1100v10l-9 5v-10zM-632 1090v10l-9 5v-10zM-615 1080v10l-8 5v-10zM-597 1070v10l-9 5v-10zM-537 1035v10l-8 5v-10zM-554 1045v10l-9 5v-10zM-519 1025v10l-9 5v-10zM-502 1015v10l-9 5v-10z"/>
    </g>
    <g fill="#d5fff6">
      <path d="M-736 1130v10l-9 5v-10zM-719 1120v10l-8 5v-10zM-701 1110v10l-9 5v-10zM-684 1100v10l-9 5v-10zM-667 1090v10l-8 5v-10zM-649 1080v10l-9 5v-10zM-632 1070v10l-9 5v-10zM-615 1060v10l-8 5v-10zM-597 1050v10l-9 5v-10zM-537 1015v10l-8 5v-10zM-554 1025v10l-9 5v-10zM-519 1005v10l-9 5v-10zM-502 995v10l-9 5v-10z"/>
    </g>
    <g fill="#d5fff6">
      <path d="M-736 1110v10l-9 5v-10zM-719 1100v10l-8 5v-10zM-701 1090v10l-9 5v-10zM-684 1080v10l-9 5v-10zM-667 1070v10l-8 5v-10zM-649 1060v10l-9 5v-10zM-632 1050v10l-9 5v-10zM-615 1040v10l-8 5v-10zM-597 1030v10l-9 5v-10zM-537 995v10l-8 5v-10zM-554 1005v10l-9 5v-10zM-519 985v10l-9 5v-10zM-502 975v10l-9 5v-10z"/>
    </g>
    <g fill="#d5fff6">
      <path d="M-736 1090v10l-9 5v-10zM-719 1080v10l-8 5v-10zM-701 1070v10l-9 5v-10zM-684 1060v10l-9 5v-10zM-667 1050v10l-8 5v-10zM-649 1040v10l-9 5v-10zM-632 1030v10l-9 5v-10zM-615 1020v10l-8 5v-10zM-597 1010v10l-9 5v-10zM-537 975v10l-8 5v-10zM-554 985v10l-9 5v-10zM-519 965v10l-9 5v-10zM-502 955v10l-9 5v-10z"/>
    </g>
    <path d="M-788 1105l26 15v185l-26-15z" fill="#f60"/>
    <path d="M-788 1120l17 10v15l-17-10zM-788 1190l17 10v15l-17-10zM-788 1210l17 10v15l-17-10z" fill="#f2f2f2"/>
    <path d="M-494 1370l213-122-13-8-5-2-212 122z" fill="#5aa02c"/>
    <path d="M-316 1263v-50l-9-5v50z" fill="#784421"/>
    <path d="M-316 1208l9-5v55l-9 5z" fill="#d38d5f"/>
    <path d="M-316 1163l30 17 5 3-35 20-35-20z" fill="#8a0"/>
    <path d="M-351 1183v50l35 20v-50z" fill="#668000"/>
    <path d="M-316 1203l35-20v50l-35 20z" fill="#450"/>
    <path d="M-368 1293v-50l-9-5v50z" fill="#784421"/>
    <path d="M-368 1238l9-5v55l-9 5z" fill="#d38d5f"/>
    <path d="M-368 1213l30 17 5 3-35 20-35-20z" fill="#8a0"/>
    <path d="M-403 1233v30l35 20v-30z" fill="#668000"/>
    <path d="M-368 1253l35-20v30l-35 20z" fill="#450"/>
    <path d="M-420 1323v-50l-9-5v50z" fill="#784421"/>
    <path d="M-420 1268l9-5v55l-9 5z" fill="#d38d5f"/>
    <path d="M-420 1233l30 17 5 3-35 20-35-20z" fill="#8a0"/>
    <path d="M-455 1253v40l35 20v-40z" fill="#668000"/>
    <path d="M-420 1273l35-20v40l-35 20z" fill="#450"/>
    <path d="M-472 1353v-50l-9-5v50z" fill="#784421"/>
    <path d="M-472 1298l9-5v55l-9 5z" fill="#d38d5f"/>
    <path d="M-472 1253l30 17 5 3-35 20-34-20z" fill="#8a0"/>
    <path d="M-506 1273v50l34 20v-50z" fill="#668000"/>
    <path d="M-472 1293l35-20v50l-35 20z" fill="#450"/>
    <path d="M1299 255L563 680 208 885l35 20 355-205 736-425z" fill="#71c837"/>
    <path d="M-892 1560v-90l-35-20v90z" fill="#deaa87"/>
    <path d="M-892 1470l139-80v90l-139 80z" fill="#d38d5f"/>
    <path d="M-753 1390l-35-20-139 80 35 20z" fill="#e9c6af"/>
    <path d="M-299 1538l-34-20-329 190-13 7 34 20z" fill="#5aa02c"/>
    <path d="M-1056 1655v-300l-35-20v300z" fill="#4d4d4d"/>
    <path d="M-1091 1335l151-87 31 17 4 3-151 87z" fill="#ccc"/>
    <path d="M-905 1268v300l-151 87v-300z" fill="gray"/>
    <path d="M-1013 1630v-40l69-40v40zM-1022 1595v35l-34 20-35-20v-35l35 20zM-935 1545l30-17v35l-30 17z" fill="#d5f6ff"/>
    <path d="M-1022 1570v20l87-50v-20z" fill="#d35f5f"/>
    <g fill="#d5f6ff">
      <path d="M-1052 1543v20l143-83v-20zM-1061 1543l-30-18v20l30 18z"/>
    </g>
    <g fill="#d5f6ff">
      <path d="M-1052 1513v20l143-83v-20zM-1061 1513l-30-18v20l30 18z"/>
    </g>
    <g fill="#d5f6ff">
      <path d="M-1052 1483v20l143-83v-20zM-1061 1483l-30-18v20l30 18z"/>
    </g>
    <g fill="#d5f6ff">
      <path d="M-1052 1453v20l143-83v-20zM-1061 1453l-30-18v20l30 18z"/>
    </g>
    <g fill="#d5f6ff">
      <path d="M-1052 1423v20l143-83v-20zM-1061 1423l-30-18v20l30 18z"/>
    </g>
    <g fill="#d5f6ff">
      <path d="M-1052 1393v20l143-83v-20zM-1061 1393l-30-18v20l30 18z"/>
    </g>
    <g fill="#d5f6ff">
      <path d="M-1052 1363v20l143-83v-20zM-1061 1363l-30-18v20l30 18z"/>
    </g>
    <g>
      <path d="M263 937l-6 3 11 6 5-3z" fill="red"/>
      <path d="M257 940v-13l11 7v12z" fill="#d40000"/>
      <path d="M257 927l3-1 3-2 10 7-5 3z" fill="#a00"/>
      <path d="M273 943l-5 3v-12l5-3z" fill="#f55"/>
      <path d="M260 932v3l5 3v-3z" fill="#a00"/>
      <path d="M260 935v3l5 3v-3l-5-3" fill="#c8b7b7"/>
    </g>
    <g>
      <path d="M-699 1489l-5 3 11 6 5-3z" fill="red"/>
      <path d="M-704 1492v-13l11 7v12z" fill="#d40000"/>
      <path d="M-704 1479l3-1 2-2 11 6-5 4z" fill="#a00"/>
      <path d="M-688 1495l-5 3v-12l5-4z" fill="#f55"/>
      <path d="M-701 1484v3l5 3v-3z" fill="#a00"/>
      <path d="M-701 1487v3l5 3v-3l-5-3" fill="#c8b7b7"/>
    </g>
    <path d="M-888 1588l9 5 30-18-8-5z" fill="#e580ff"/>
    <path d="M-875 1520v30l104-60v-30z" fill="#784421"/>
    <path d="M-875 1480v30l104-60v-30z" fill="green"/>
    <path d="M-866 1485v10l52-30v-10z" fill="#f2f2f2"/>
    <g>
      <path d="M-221 1173V773l-34-20v400z" fill="gray"/>
      <path d="M-221 773L39 623 4 603l-259 150z" fill="#ccc"/>
      <path d="M39 623v400l-260 150V773z" fill="#999"/>
      <path d="M-56 1078v-20l17-10v20z" fill="#333"/>
      <path d="M-52 1060v15l9-5v-15zM-4 1033v10l-9 5v-10zM-22 1043v10l-8 5v-10zM13 1023v10l-9 5v-10zM30 1013v10l-8 5v-10z" fill="#d5fff6"/>
      <g fill="#d5fff6">
        <path d="M-203 1148v10l-9 5v-10zM-186 1138v10l-9 5v-10zM-169 1128v10l-8 5v-10zM-151 1118v10l-9 5v-10zM-134 1108v10l-9 5v-10zM-117 1098v10l-8 5v-10zM-99 1088v10l-9 5v-10zM-82 1078v10l-9 5v-10zM-65 1068v10l-8 5v-10z"/>
      </g>
      <g fill="#d5fff6">
        <path d="M-203 1123v10l-9 5v-10zM-186 1113v10l-9 5v-10zM-169 1103v10l-8 5v-10zM-151 1093v10l-9 5v-10zM-134 1083v10l-9 5v-10zM-117 1073v10l-8 5v-10zM-99 1063v10l-9 5v-10zM-82 1053v10l-9 5v-10zM-65 1043v10l-8 5v-10zM-4 1008v10l-9 5v-10zM-22 1018v10l-8 5v-10zM13 998v10l-9 5v-10zM30 988v10l-8 5v-10z"/>
      </g>
      <path d="M-43 690v350l-9 5V695z" fill="#d5fff6"/>
      <g fill="#d5fff6">
        <path d="M-203 1103v10l-9 5v-10zM-186 1093v10l-9 5v-10zM-169 1083v10l-8 5v-10zM-151 1073v10l-9 5v-10zM-134 1063v10l-9 5v-10zM-117 1053v10l-8 5v-10zM-99 1043v10l-9 5v-10zM-82 1033v10l-9 5v-10zM-65 1023v10l-8 5v-10zM-4 988v10l-9 5v-10zM-22 998v10l-8 5v-10zM13 978v10l-9 5v-10zM30 968v10l-8 5v-10z"/>
      </g>
      <g fill="#d5fff6">
        <path d="M-203 1083v10l-9 5v-10zM-186 1073v10l-9 5v-10zM-169 1063v10l-8 5v-10zM-151 1053v10l-9 5v-10zM-134 1043v10l-9 5v-10zM-117 1033v10l-8 5v-10zM-99 1023v10l-9 5v-10zM-82 1013v10l-9 5v-10zM-65 1003v10l-8 5v-10zM-4 968v10l-9 5v-10zM-22 978v10l-8 5v-10zM13 958v10l-9 5v-10zM30 948v10l-8 5v-10z"/>
      </g>
      <g fill="#d5fff6">
        <path d="M-203 1063v10l-9 5v-10zM-186 1053v10l-9 5v-10zM-169 1043v10l-8 5v-10zM-151 1033v10l-9 5v-10zM-134 1023v10l-9 5v-10zM-117 1013v10l-8 5v-10zM-99 1003v10l-9 5v-10zM-82 993v10l-9 5v-10zM-65 983v10l-8 5v-10zM-4 948v10l-9 5v-10zM-22 958v10l-8 5v-10zM13 938v10l-9 5v-10zM30 928v10l-8 5v-10z"/>
      </g>
      <g fill="#d5fff6">
        <path d="M-203 1043v10l-9 5v-10zM-186 1033v10l-9 5v-10zM-169 1023v10l-8 5v-10zM-151 1013v10l-9 5v-10zM-134 1003v10l-9 5v-10zM-117 993v10l-8 5v-10zM-99 983v10l-9 5v-10zM-82 973v10l-9 5v-10zM-65 963v10l-8 5v-10zM-4 928v10l-9 5v-10zM-22 938v10l-8 5v-10zM13 918v10l-9 5v-10zM30 908v10l-8 5v-10z"/>
      </g>
      <g fill="#d5fff6">
        <path d="M-203 1023v10l-9 5v-10zM-186 1013v10l-9 5v-10zM-169 1003v10l-8 5v-10zM-151 993v10l-9 5v-10zM-134 983v10l-9 5v-10zM-117 973v10l-8 5v-10zM-99 963v10l-9 5v-10zM-82 953v10l-9 5v-10zM-65 943v10l-8 5v-10zM-4 908v10l-9 5v-10zM-22 918v10l-8 5v-10zM13 898v10l-9 5v-10zM30 888v10l-8 5v-10z"/>
      </g>
      <g fill="#d5fff6">
        <path d="M-203 1003v10l-9 5v-10zM-186 993v10l-9 5v-10zM-169 983v10l-8 5v-10zM-151 973v10l-9 5v-10zM-134 963v10l-9 5v-10zM-117 953v10l-8 5v-10zM-99 943v10l-9 5v-10zM-82 933v10l-9 5v-10zM-65 923v10l-8 5v-10zM-4 888v10l-9 5v-10zM-22 898v10l-8 5v-10zM13 878v10l-9 5v-10zM30 868v10l-8 5v-10z"/>
      </g>
      <g fill="#d5fff6">
        <path d="M-203 983v10l-9 5v-10zM-186 973v10l-9 5v-10zM-169 963v10l-8 5v-10zM-151 953v10l-9 5v-10zM-134 943v10l-9 5v-10zM-117 933v10l-8 5v-10zM-99 923v10l-9 5v-10zM-82 913v10l-9 5v-10zM-65 903v10l-8 5v-10zM-4 868v10l-9 5v-10zM-22 878v10l-8 5v-10zM13 858v10l-9 5v-10zM30 848v10l-8 5v-10z"/>
      </g>
      <g fill="#d5fff6">
        <path d="M-203 963v10l-9 5v-10zM-186 953v10l-9 5v-10zM-169 943v10l-8 5v-10zM-151 933v10l-9 5v-10zM-134 923v10l-9 5v-10zM-117 913v10l-8 5v-10zM-99 903v10l-9 5v-10zM-82 893v10l-9 5v-10zM-65 883v10l-8 5v-10zM-4 848v10l-9 5v-10zM-22 858v10l-8 5v-10zM13 838v10l-9 5v-10zM30 828v10l-8 5v-10z"/>
      </g>
      <g fill="#d5fff6">
        <path d="M-203 943v10l-9 5v-10zM-186 933v10l-9 5v-10zM-169 923v10l-8 5v-10zM-151 913v10l-9 5v-10zM-134 903v10l-9 5v-10zM-117 893v10l-8 5v-10zM-99 883v10l-9 5v-10zM-82 873v10l-9 5v-10zM-65 863v10l-8 5v-10zM-4 828v10l-9 5v-10zM-22 838v10l-8 5v-10zM13 818v10l-9 5v-10zM30 808v10l-8 5v-10z"/>
      </g>
      <g fill="#d5fff6">
        <path d="M-203 923v10l-9 5v-10zM-186 913v10l-9 5v-10zM-169 903v10l-8 5v-10zM-151 893v10l-9 5v-10zM-134 883v10l-9 5v-10zM-117 873v10l-8 5v-10zM-99 863v10l-9 5v-10zM-82 853v10l-9 5v-10zM-65 843v10l-8 5v-10zM-4 808v10l-9 5v-10zM-22 818v10l-8 5v-10zM13 798v10l-9 5v-10zM30 788v10l-8 5v-10z"/>
      </g>
      <g fill="#d5fff6">
        <path d="M-203 903v10l-9 5v-10zM-186 893v10l-9 5v-10zM-169 883v10l-8 5v-10zM-151 873v10l-9 5v-10zM-134 863v10l-9 5v-10zM-117 853v10l-8 5v-10zM-99 843v10l-9 5v-10zM-82 833v10l-9 5v-10zM-65 823v10l-8 5v-10zM-4 788v10l-9 5v-10zM-22 798v10l-8 5v-10zM13 778v10l-9 5v-10zM30 768v10l-8 5v-10z"/>
      </g>
      <g fill="#d5fff6">
        <path d="M-203 883v10l-9 5v-10zM-186 873v10l-9 5v-10zM-169 863v10l-8 5v-10zM-151 853v10l-9 5v-10zM-134 843v10l-9 5v-10zM-117 833v10l-8 5v-10zM-99 823v10l-9 5v-10zM-82 813v10l-9 5v-10zM-65 803v10l-8 5v-10zM-4 768v10l-9 5v-10zM-22 778v10l-8 5v-10zM13 758v10l-9 5v-10zM30 748v10l-8 5v-10z"/>
      </g>
      <g fill="#d5fff6">
        <path d="M-203 863v10l-9 5v-10zM-186 853v10l-9 5v-10zM-169 843v10l-8 5v-10zM-151 833v10l-9 5v-10zM-134 823v10l-9 5v-10zM-117 813v10l-8 5v-10zM-99 803v10l-9 5v-10zM-82 793v10l-9 5v-10zM-65 783v10l-8 5v-10zM-4 748v10l-9 5v-10zM-22 758v10l-8 5v-10zM13 738v10l-9 5v-10zM30 728v10l-8 5v-10z"/>
      </g>
      <g fill="#d5fff6">
        <path d="M-203 843v10l-9 5v-10zM-186 833v10l-9 5v-10zM-169 823v10l-8 5v-10zM-151 813v10l-9 5v-10zM-134 803v10l-9 5v-10zM-117 793v10l-8 5v-10zM-99 783v10l-9 5v-10zM-82 773v10l-9 5v-10zM-65 763v10l-8 5v-10zM-4 728v10l-9 5v-10zM-22 738v10l-8 5v-10zM13 718v10l-9 5v-10zM30 708v10l-8 5v-10z"/>
      </g>
      <g fill="#d5fff6">
        <path d="M-203 823v10l-9 5v-10zM-186 813v10l-9 5v-10zM-169 803v10l-8 5v-10zM-151 793v10l-9 5v-10zM-134 783v10l-9 5v-10zM-117 773v10l-8 5v-10zM-99 763v10l-9 5v-10zM-82 753v10l-9 5v-10zM-65 743v10l-8 5v-10zM-4 708v10l-9 5v-10zM-22 718v10l-8 5v-10zM13 698v10l-9 5v-10zM30 688v10l-8 5v-10z"/>
      </g>
      <g fill="#d5fff6">
        <path d="M-203 803v10l-9 5v-10zM-186 793v10l-9 5v-10zM-169 783v10l-8 5v-10zM-151 773v10l-9 5v-10zM-134 763v10l-9 5v-10zM-117 753v10l-8 5v-10zM-99 743v10l-9 5v-10zM-82 733v10l-9 5v-10zM-65 723v10l-8 5v-10zM-4 688v10l-9 5v-10zM-22 698v10l-8 5v-10zM13 678v10l-9 5v-10zM30 668v10l-8 5v-10z"/>
      </g>
      <g fill="#d5fff6">
        <path d="M-203 783v10l-9 5v-10zM-186 773v10l-9 5v-10zM-169 763v10l-8 5v-10zM-151 753v10l-9 5v-10zM-134 743v10l-9 5v-10zM-117 733v10l-8 5v-10zM-99 723v10l-9 5v-10zM-82 713v10l-9 5v-10zM-65 703v10l-8 5v-10zM-4 668v10l-9 5v-10zM-22 678v10l-8 5v-10zM13 658v10l-9 5v-10zM30 648v10l-8 5v-10z"/>
      </g>
      <path d="M-255 798l26 15v185l-26-15z" fill="red"/>
      <path d="M-255 813l17 10v15l-17-10zM-255 883l17 10v15l-17-10zM-255 903l17 10v15l-17-10z" fill="#f2f2f2"/>
    </g>
    <g>
      <path d="M1022 455V55l-35-20v400z" fill="gray"/>
      <path d="M1022 55l260-150-35-20L987 35z" fill="#ccc"/>
      <path d="M1282-95v400l-260 150V55z" fill="#999"/>
      <path d="M1187 360v-20l17-10v20z" fill="#333"/>
      <path d="M1191 343v15l9-5v-15zM1239 315v10l-9 5v-10zM1221 325v10l-8 5v-10zM1256 305v10l-9 5v-10zM1273 295v10l-8 5v-10z" fill="#d5fff6"/>
      <g fill="#d5fff6">
        <path d="M1039 430v10l-8 5v-10zM1057 420v10l-9 5v-10zM1074 410v10l-9 5v-10zM1091 400v10l-8 5v-10zM1109 390v10l-9 5v-10zM1126 380v10l-9 5v-10zM1143 370v10l-8 5v-10zM1161 360v10l-9 5v-10zM1178 350v10l-9 5v-10z"/>
      </g>
      <g fill="#d5fff6">
        <path d="M1039 405v10l-8 5v-10zM1057 395v10l-9 5v-10zM1074 385v10l-9 5v-10zM1091 375v10l-8 5v-10zM1109 365v10l-9 5v-10zM1126 355v10l-9 5v-10zM1143 345v10l-8 5v-10zM1161 335v10l-9 5v-10zM1178 325v10l-9 5v-10zM1239 290v10l-9 5v-10zM1221 300v10l-8 5v-10zM1256 280v10l-9 5v-10zM1273 270v10l-8 5v-10z"/>
      </g>
      <path d="M1200-27v350l-9 5V-22z" fill="#d5fff6"/>
      <g fill="#d5fff6">
        <path d="M1039 385v10l-8 5v-10zM1057 375v10l-9 5v-10zM1074 365v10l-9 5v-10zM1091 355v10l-8 5v-10zM1109 345v10l-9 5v-10zM1126 335v10l-9 5v-10zM1143 325v10l-8 5v-10zM1161 315v10l-9 5v-10zM1178 305v10l-9 5v-10zM1239 270v10l-9 5v-10zM1221 280v10l-8 5v-10zM1256 260v10l-9 5v-10zM1273 250v10l-8 5v-10z"/>
      </g>
      <g fill="#d5fff6">
        <path d="M1039 365v10l-8 5v-10zM1057 355v10l-9 5v-10zM1074 345v10l-9 5v-10zM1091 335v10l-8 5v-10zM1109 325v10l-9 5v-10zM1126 315v10l-9 5v-10zM1143 305v10l-8 5v-10zM1161 295v10l-9 5v-10zM1178 285v10l-9 5v-10zM1239 250v10l-9 5v-10zM1221 260v10l-8 5v-10zM1256 240v10l-9 5v-10zM1273 230v10l-8 5v-10z"/>
      </g>
      <g fill="#d5fff6">
        <path d="M1039 345v10l-8 5v-10zM1057 335v10l-9 5v-10zM1074 325v10l-9 5v-10zM1091 315v10l-8 5v-10zM1109 305v10l-9 5v-10zM1126 295v10l-9 5v-10zM1143 285v10l-8 5v-10zM1161 275v10l-9 5v-10zM1178 265v10l-9 5v-10zM1239 230v10l-9 5v-10zM1221 240v10l-8 5v-10zM1256 220v10l-9 5v-10zM1273 210v10l-8 5v-10z"/>
      </g>
      <g fill="#d5fff6">
        <path d="M1039 325v10l-8 5v-10zM1057 315v10l-9 5v-10zM1074 305v10l-9 5v-10zM1091 295v10l-8 5v-10zM1109 285v10l-9 5v-10zM1126 275v10l-9 5v-10zM1143 265v10l-8 5v-10zM1161 255v10l-9 5v-10zM1178 245v10l-9 5v-10zM1239 210v10l-9 5v-10zM1221 220v10l-8 5v-10zM1256 200v10l-9 5v-10zM1273 190v10l-8 5v-10z"/>
      </g>
      <g fill="#d5fff6">
        <path d="M1039 305v10l-8 5v-10zM1057 295v10l-9 5v-10zM1074 285v10l-9 5v-10zM1091 275v10l-8 5v-10zM1109 265v10l-9 5v-10zM1126 255v10l-9 5v-10zM1143 245v10l-8 5v-10zM1161 235v10l-9 5v-10zM1178 225v10l-9 5v-10zM1239 190v10l-9 5v-10zM1221 200v10l-8 5v-10zM1256 180v10l-9 5v-10zM1273 170v10l-8 5v-10z"/>
      </g>
      <g fill="#d5fff6">
        <path d="M1039 285v10l-8 5v-10zM1057 275v10l-9 5v-10zM1074 265v10l-9 5v-10zM1091 255v10l-8 5v-10zM1109 245v10l-9 5v-10zM1126 235v10l-9 5v-10zM1143 225v10l-8 5v-10zM1161 215v10l-9 5v-10zM1178 205v10l-9 5v-10zM1239 170v10l-9 5v-10zM1221 180v10l-8 5v-10zM1256 160v10l-9 5v-10zM1273 150v10l-8 5v-10z"/>
      </g>
      <g fill="#d5fff6">
        <path d="M1039 265v10l-8 5v-10zM1057 255v10l-9 5v-10zM1074 245v10l-9 5v-10zM1091 235v10l-8 5v-10zM1109 225v10l-9 5v-10zM1126 215v10l-9 5v-10zM1143 205v10l-8 5v-10zM1161 195v10l-9 5v-10zM1178 185v10l-9 5v-10zM1239 150v10l-9 5v-10zM1221 160v10l-8 5v-10zM1256 140v10l-9 5v-10zM1273 130v10l-8 5v-10z"/>
      </g>
      <g fill="#d5fff6">
        <path d="M1039 245v10l-8 5v-10zM1057 235v10l-9 5v-10zM1074 225v10l-9 5v-10zM1091 215v10l-8 5v-10zM1109 205v10l-9 5v-10zM1126 195v10l-9 5v-10zM1143 185v10l-8 5v-10zM1161 175v10l-9 5v-10zM1178 165v10l-9 5v-10zM1239 130v10l-9 5v-10zM1221 140v10l-8 5v-10zM1256 120v10l-9 5v-10zM1273 110v10l-8 5v-10z"/>
      </g>
      <g fill="#d5fff6">
        <path d="M1039 225v10l-8 5v-10zM1057 215v10l-9 5v-10zM1074 205v10l-9 5v-10zM1091 195v10l-8 5v-10zM1109 185v10l-9 5v-10zM1126 175v10l-9 5v-10zM1143 165v10l-8 5v-10zM1161 155v10l-9 5v-10zM1178 145v10l-9 5v-10zM1239 110v10l-9 5v-10zM1221 120v10l-8 5v-10zM1256 100v10l-9 5v-10zM1273 90v10l-8 5V95z"/>
      </g>
      <g fill="#d5fff6">
        <path d="M1039 205v10l-8 5v-10zM1057 195v10l-9 5v-10zM1074 185v10l-9 5v-10zM1091 175v10l-8 5v-10zM1109 165v10l-9 5v-10zM1126 155v10l-9 5v-10zM1143 145v10l-8 5v-10zM1161 135v10l-9 5v-10zM1178 125v10l-9 5v-10zM1239 90v10l-9 5V95zM1221 100v10l-8 5v-10zM1256 80v10l-9 5V85zM1273 70v10l-8 5V75z"/>
      </g>
      <g fill="#d5fff6">
        <path d="M1039 185v10l-8 5v-10zM1057 175v10l-9 5v-10zM1074 165v10l-9 5v-10zM1091 155v10l-8 5v-10zM1109 145v10l-9 5v-10zM1126 135v10l-9 5v-10zM1143 125v10l-8 5v-10zM1161 115v10l-9 5v-10zM1178 105v10l-9 5v-10zM1239 70v10l-9 5V75zM1221 80v10l-8 5V85zM1256 60v10l-9 5V65zM1273 50v10l-8 5V55z"/>
      </g>
      <g fill="#d5fff6">
        <path d="M1039 165v10l-8 5v-10zM1057 155v10l-9 5v-10zM1074 145v10l-9 5v-10zM1091 135v10l-8 5v-10zM1109 125v10l-9 5v-10zM1126 115v10l-9 5v-10zM1143 105v10l-8 5v-10zM1161 95v10l-9 5v-10zM1178 85v10l-9 5V90zM1239 50v10l-9 5V55zM1221 60v10l-8 5V65zM1256 40v10l-9 5V45zM1273 30v10l-8 5V35z"/>
      </g>
      <g fill="#d5fff6">
        <path d="M1039 145v10l-8 5v-10zM1057 135v10l-9 5v-10zM1074 125v10l-9 5v-10zM1091 115v10l-8 5v-10zM1109 105v10l-9 5v-10zM1126 95v10l-9 5v-10zM1143 85v10l-8 5V90zM1161 75v10l-9 5V80zM1178 65v10l-9 5V70zM1239 30v10l-9 5V35zM1221 40v10l-8 5V45zM1256 20v10l-9 5V25zM1273 10v10l-8 5V15z"/>
      </g>
      <g fill="#d5fff6">
        <path d="M1039 125v10l-8 5v-10zM1057 115v10l-9 5v-10zM1074 105v10l-9 5v-10zM1091 95v10l-8 5v-10zM1109 85v10l-9 5V90zM1126 75v10l-9 5V80zM1143 65v10l-8 5V70zM1161 55v10l-9 5V60zM1178 45v10l-9 5V50zM1239 10v10l-9 5V15zM1221 20v10l-8 5V25zM1256 0v10l-9 5V5zM1273-10V0l-8 5V-5z"/>
      </g>
      <g fill="#d5fff6">
        <path d="M1039 105v10l-8 5v-10zM1057 95v10l-9 5v-10zM1074 85v10l-9 5V90zM1091 75v10l-8 5V80zM1109 65v10l-9 5V70zM1126 55v10l-9 5V60zM1143 45v10l-8 5V50zM1161 35v10l-9 5V40zM1178 25v10l-9 5V30zM1239-10V0l-9 5V-5zM1221 0v10l-8 5V5zM1256-20v10l-9 5v-10zM1273-30v10l-8 5v-10z"/>
      </g>
      <g fill="#d5fff6">
        <path d="M1039 85v10l-8 5V90zM1057 75v10l-9 5V80zM1074 65v10l-9 5V70zM1091 55v10l-8 5V60zM1109 45v10l-9 5V50zM1126 35v10l-9 5V40zM1143 25v10l-8 5V30zM1161 15v10l-9 5V20zM1178 5v10l-9 5V10zM1239-30v10l-9 5v-10zM1221-20v10l-8 5v-10zM1256-40v10l-9 5v-10zM1273-50v10l-8 5v-10z"/>
      </g>
      <g fill="#d5fff6">
        <path d="M1039 65v10l-8 5V70zM1057 55v10l-9 5V60zM1074 45v10l-9 5V50zM1091 35v10l-8 5V40zM1109 25v10l-9 5V30zM1126 15v10l-9 5V20zM1143 5v10l-8 5V10zM1161-5V5l-9 5V0zM1178-15v10l-9 5v-10zM1239-50v10l-9 5v-10zM1221-40v10l-8 5v-10zM1256-60v10l-9 5v-10zM1273-70v10l-8 5v-10z"/>
      </g>
      <path d="M987 80l26 15v185l-26-15z" fill="purple"/>
      <path d="M987 95l18 10v15l-18-10zM987 165l18 10v15l-18-10zM987 185l18 10v15l-18-10z" fill="#f2f2f2"/>
    </g>
    <g stroke="#000" stroke-width=".3">
      <path d="M-160 1163l4-3-4-2 4-3 5 3 4-3-4-2 4-3 4 3 5-3-5-2 5-3 4 3 4-3 5 3-5 2 5 3-5 2-4-2-4 2 4 3-4 2-5-2-4 2 4 3-4 2-4-2-5 2z" fill="#0ff"/>
      <path d="M-156 1160l5-2-5-3-4 3z" fill="#ff8080"/>
      <path d="M-151 1158l4 2-4 3-5-3z" fill="#ff0"/>
      <path d="M-143 1163l-4-3-4 3 4 2z" fill="#0f0"/>
      <path d="M-147 1155l4 3-4 2-4-2zM-130 1145l5 3-5 2-4-2z" fill="#f0f"/>
      <path d="M-147 1150l4 3-4 2-4-2z" fill="#ff0"/>
      <path d="M-143 1158l5-3-5-2-4 2zM-130 1155l5-2-5-3-4 3z" fill="#ff8080"/>
      <path d="M-134 1148l-4-3-5 3 5 2zM-134 1158l-4-3-5 3 5 2z" fill="#0f0"/>
      <path d="M-134 1148l4 2-4 3-4-3z" fill="#ff0"/>
    </g>
    <g stroke="#000" stroke-width=".3">
      <path d="M-896 1573l13 7v5l-13-7z" fill="#c87137"/>
      <path d="M-883 1580l21-12-13-8-4 3 9 5-13 7-9-5-4 3z" fill="#784421"/>
      <path d="M-862 1568v5l-21 12v-5z" fill="#deaa87"/>
      <path d="M-888 1573l13-8 5 3-13 7z" fill="#502d16"/>
      <path d="M-883 1570v-20l-18 10 18 10 17-10-17-10" fill="#f95"/>
      <path d="M-883 1550l-13 13 8 5z" fill="#fff"/>
      <path d="M-875 1570l-4-2v-5l9 5z" fill="#d38d5f"/>
      <path d="M-883 1550l13 13-9 5z" fill="#fff"/>
    </g>
    <path d="M243 905V385l-35-20v520z" fill="#999"/>
    <path d="M243 385l225-130v520L243 905z" fill="#666"/>
    <path d="M208 365l35 20 225-130-35-20z" fill="#ccc"/>
    <path d="M273 888v-20l164-95v20z" fill="#fea"/>
    <path d="M247 883v15l4-3v-15z" fill="#cf0" stroke="#000" stroke-width=".3"/>
    <path d="M256 878v15l4-3v-15z" fill="#37c8ab" stroke="#000" stroke-width=".3"/>
    <path d="M264 873v15l5-3v-15zM459 760v15l4-2v-15z" fill="#faa" stroke="#000" stroke-width=".3"/>
    <path d="M450 765v15l5-2v-15z" fill="#cf0" stroke="#000" stroke-width=".3"/>
    <path d="M442 770v15l4-2v-15z" fill="#37c8ab" stroke="#000" stroke-width=".3"/>
    <path d="M238 883v15l-4-3v-15z" fill="#ffd42a" stroke="#000" stroke-width=".3"/>
    <path d="M221 873v15l-4-3v-15z" fill="purple" stroke="#000" stroke-width=".3"/>
    <path d="M230 878v15l-5-3v-15zM212 868v15l-4-3v-15z" fill="#ff7f2a" stroke="#000" stroke-width=".3"/>
    <path d="M273 828v25l164-95v-25z" fill="#fff6d5" stroke="#000" stroke-width=".3"/>
    <g fill="none" stroke="#000">
      <path d="M282 843l43-25M282 838l43-25M282 833l43-25M282 828l43-25"/>
    </g>
    <g fill="none" stroke="#000">
      <path d="M334 813l43-25M334 808l43-25M334 803l43-25M334 798l43-25"/>
    </g>
    <g fill="none" stroke="#000">
      <path d="M386 783l43-25M386 778l43-25M386 773l43-25M386 768l43-25"/>
    </g>
    <path d="M256 818V673l199-115v155L256 828z" fill="purple" stroke="#000" stroke-width=".3"/>
    <path d="M269 700v50l73-42v-50zM277 750v15l57-32v-15z" fill="#f2f2f2" stroke="#000" stroke-width=".3"/>
    <path d="M355 645v90l82-47V588l-82 47z" fill="#faa" stroke="#000" stroke-width=".3"/>
    <path d="M230 673l-22-13v155l22 13z" fill="purple" stroke="#000" stroke-width=".3"/>
    <path d="M212 688v90l-4-3v-90z" fill="#faa" stroke="#000" stroke-width=".3"/>
    <path d="M256 653V498l69-40v155z" fill="#00aad4" stroke="#000" stroke-width=".3"/>
    <path d="M260 500v80l48-27v-80zM290 593v35l31-18v-35z" fill="#08a" stroke="#000" stroke-width=".3"/>
    <path d="M338 605V355l117-67v250z" fill="#ff2a2a" stroke="#000" stroke-width=".3"/>
    <path d="M351 383v200l22-13V350l-22 13v25zM386 348v150l56-33V315zM394 548l39-23v-40l-39 23v40z" fill="#fff" stroke="#000" stroke-width=".3"/>
    <g>
      <path d="M511 750V350l-35-20v400z" fill="#c87137"/>
      <path d="M511 350l260-150-35-20-260 150z" fill="#e9c6af"/>
      <path d="M771 200v400L511 750V350z" fill="#a05a2c"/>
      <path d="M676 655v-20l17-10v20z" fill="#333"/>
      <path d="M680 638v15l9-5v-15zM728 610v10l-9 5v-10zM710 620v10l-8 5v-10zM745 600v10l-9 5v-10zM762 590v10l-8 5v-10z" fill="#d5fff6"/>
      <g fill="#d5fff6">
        <path d="M528 725v10l-8 5v-10zM546 715v10l-9 5v-10zM563 705v10l-9 5v-10zM580 695v10l-8 5v-10zM598 685v10l-9 5v-10zM615 675v10l-9 5v-10zM632 665v10l-8 5v-10zM650 655v10l-9 5v-10zM667 645v10l-9 5v-10z"/>
      </g>
      <g fill="#deaa87">
        <path d="M520 355v370l8-5V350zM537 345v370l9-5V340zM554 335v370l9-5V330zM572 325v370l8-5V320zM589 315v370l9-5V310zM606 305v370l9-5V300zM624 295v370l8-5V290zM641 285v370l9-5V280zM658 275v370l9-5V270zM702 250v370l8-5V245zM719 240v370l9-5V235zM736 230v370l9-5V225zM754 220v370l8-5V215z"/>
      </g>
      <g fill="#d5fff6">
        <path d="M528 700v10l-8 5v-10zM546 690v10l-9 5v-10zM563 680v10l-9 5v-10zM580 670v10l-8 5v-10zM598 660v10l-9 5v-10zM615 650v10l-9 5v-10zM632 640v10l-8 5v-10zM650 630v10l-9 5v-10zM667 620v10l-9 5v-10zM728 585v10l-9 5v-10zM710 595v10l-8 5v-10zM745 575v10l-9 5v-10zM762 565v10l-8 5v-10z"/>
      </g>
      <path d="M689 268v350l-9 5V273z" fill="#d5fff6"/>
      <g fill="#d5fff6">
        <path d="M528 680v10l-8 5v-10zM546 670v10l-9 5v-10zM563 660v10l-9 5v-10zM580 650v10l-8 5v-10zM598 640v10l-9 5v-10zM615 630v10l-9 5v-10zM632 620v10l-8 5v-10zM650 610v10l-9 5v-10zM667 600v10l-9 5v-10zM728 565v10l-9 5v-10zM710 575v10l-8 5v-10zM745 555v10l-9 5v-10zM762 545v10l-8 5v-10z"/>
      </g>
      <g fill="#d5fff6">
        <path d="M528 660v10l-8 5v-10zM546 650v10l-9 5v-10zM563 640v10l-9 5v-10zM580 630v10l-8 5v-10zM598 620v10l-9 5v-10zM615 610v10l-9 5v-10zM632 600v10l-8 5v-10zM650 590v10l-9 5v-10zM667 580v10l-9 5v-10zM728 545v10l-9 5v-10zM710 555v10l-8 5v-10zM745 535v10l-9 5v-10zM762 525v10l-8 5v-10z"/>
      </g>
      <g fill="#d5fff6">
        <path d="M528 640v10l-8 5v-10zM546 630v10l-9 5v-10zM563 620v10l-9 5v-10zM580 610v10l-8 5v-10zM598 600v10l-9 5v-10zM615 590v10l-9 5v-10zM632 580v10l-8 5v-10zM650 570v10l-9 5v-10zM667 560v10l-9 5v-10zM728 525v10l-9 5v-10zM710 535v10l-8 5v-10zM745 515v10l-9 5v-10zM762 505v10l-8 5v-10z"/>
      </g>
      <g fill="#d5fff6">
        <path d="M528 620v10l-8 5v-10zM546 610v10l-9 5v-10zM563 600v10l-9 5v-10zM580 590v10l-8 5v-10zM598 580v10l-9 5v-10zM615 570v10l-9 5v-10zM632 560v10l-8 5v-10zM650 550v10l-9 5v-10zM667 540v10l-9 5v-10zM728 505v10l-9 5v-10zM710 515v10l-8 5v-10zM745 495v10l-9 5v-10zM762 485v10l-8 5v-10z"/>
      </g>
      <g fill="#d5fff6">
        <path d="M528 600v10l-8 5v-10zM546 590v10l-9 5v-10zM563 580v10l-9 5v-10zM580 570v10l-8 5v-10zM598 560v10l-9 5v-10zM615 550v10l-9 5v-10zM632 540v10l-8 5v-10zM650 530v10l-9 5v-10zM667 520v10l-9 5v-10zM728 485v10l-9 5v-10zM710 495v10l-8 5v-10zM745 475v10l-9 5v-10zM762 465v10l-8 5v-10z"/>
      </g>
      <g fill="#d5fff6">
        <path d="M528 580v10l-8 5v-10zM546 570v10l-9 5v-10zM563 560v10l-9 5v-10zM580 550v10l-8 5v-10zM598 540v10l-9 5v-10zM615 530v10l-9 5v-10zM632 520v10l-8 5v-10zM650 510v10l-9 5v-10zM667 500v10l-9 5v-10zM728 465v10l-9 5v-10zM710 475v10l-8 5v-10zM745 455v10l-9 5v-10zM762 445v10l-8 5v-10z"/>
      </g>
      <g fill="#d5fff6">
        <path d="M528 560v10l-8 5v-10zM546 550v10l-9 5v-10zM563 540v10l-9 5v-10zM580 530v10l-8 5v-10zM598 520v10l-9 5v-10zM615 510v10l-9 5v-10zM632 500v10l-8 5v-10zM650 490v10l-9 5v-10zM667 480v10l-9 5v-10zM728 445v10l-9 5v-10zM710 455v10l-8 5v-10zM745 435v10l-9 5v-10zM762 425v10l-8 5v-10z"/>
      </g>
      <g fill="#d5fff6">
        <path d="M528 540v10l-8 5v-10zM546 530v10l-9 5v-10zM563 520v10l-9 5v-10zM580 510v10l-8 5v-10zM598 500v10l-9 5v-10zM615 490v10l-9 5v-10zM632 480v10l-8 5v-10zM650 470v10l-9 5v-10zM667 460v10l-9 5v-10zM728 425v10l-9 5v-10zM710 435v10l-8 5v-10zM745 415v10l-9 5v-10zM762 405v10l-8 5v-10z"/>
      </g>
      <g fill="#d5fff6">
        <path d="M528 520v10l-8 5v-10zM546 510v10l-9 5v-10zM563 500v10l-9 5v-10zM580 490v10l-8 5v-10zM598 480v10l-9 5v-10zM615 470v10l-9 5v-10zM632 460v10l-8 5v-10zM650 450v10l-9 5v-10zM667 440v10l-9 5v-10zM728 405v10l-9 5v-10zM710 415v10l-8 5v-10zM745 395v10l-9 5v-10zM762 385v10l-8 5v-10z"/>
      </g>
      <g fill="#d5fff6">
        <path d="M528 500v10l-8 5v-10zM546 490v10l-9 5v-10zM563 480v10l-9 5v-10zM580 470v10l-8 5v-10zM598 460v10l-9 5v-10zM615 450v10l-9 5v-10zM632 440v10l-8 5v-10zM650 430v10l-9 5v-10zM667 420v10l-9 5v-10zM728 385v10l-9 5v-10zM710 395v10l-8 5v-10zM745 375v10l-9 5v-10zM762 365v10l-8 5v-10z"/>
      </g>
      <g fill="#d5fff6">
        <path d="M528 480v10l-8 5v-10zM546 470v10l-9 5v-10zM563 460v10l-9 5v-10zM580 450v10l-8 5v-10zM598 440v10l-9 5v-10zM615 430v10l-9 5v-10zM632 420v10l-8 5v-10zM650 410v10l-9 5v-10zM667 400v10l-9 5v-10zM728 365v10l-9 5v-10zM710 375v10l-8 5v-10zM745 355v10l-9 5v-10zM762 345v10l-8 5v-10z"/>
      </g>
      <g fill="#d5fff6">
        <path d="M528 460v10l-8 5v-10zM546 450v10l-9 5v-10zM563 440v10l-9 5v-10zM580 430v10l-8 5v-10zM598 420v10l-9 5v-10zM615 410v10l-9 5v-10zM632 400v10l-8 5v-10zM650 390v10l-9 5v-10zM667 380v10l-9 5v-10zM728 345v10l-9 5v-10zM710 355v10l-8 5v-10zM745 335v10l-9 5v-10zM762 325v10l-8 5v-10z"/>
      </g>
      <g fill="#d5fff6">
        <path d="M528 440v10l-8 5v-10zM546 430v10l-9 5v-10zM563 420v10l-9 5v-10zM580 410v10l-8 5v-10zM598 400v10l-9 5v-10zM615 390v10l-9 5v-10zM632 380v10l-8 5v-10zM650 370v10l-9 5v-10zM667 360v10l-9 5v-10zM728 325v10l-9 5v-10zM710 335v10l-8 5v-10zM745 315v10l-9 5v-10zM762 305v10l-8 5v-10z"/>
      </g>
      <g fill="#d5fff6">
        <path d="M528 420v10l-8 5v-10zM546 410v10l-9 5v-10zM563 400v10l-9 5v-10zM580 390v10l-8 5v-10zM598 380v10l-9 5v-10zM615 370v10l-9 5v-10zM632 360v10l-8 5v-10zM650 350v10l-9 5v-10zM667 340v10l-9 5v-10zM728 305v10l-9 5v-10zM710 315v10l-8 5v-10zM745 295v10l-9 5v-10zM762 285v10l-8 5v-10z"/>
      </g>
      <g fill="#d5fff6">
        <path d="M528 400v10l-8 5v-10zM546 390v10l-9 5v-10zM563 380v10l-9 5v-10zM580 370v10l-8 5v-10zM598 360v10l-9 5v-10zM615 350v10l-9 5v-10zM632 340v10l-8 5v-10zM650 330v10l-9 5v-10zM667 320v10l-9 5v-10zM728 285v10l-9 5v-10zM710 295v10l-8 5v-10zM745 275v10l-9 5v-10zM762 265v10l-8 5v-10z"/>
      </g>
      <g fill="#d5fff6">
        <path d="M528 380v10l-8 5v-10zM546 370v10l-9 5v-10zM563 360v10l-9 5v-10zM580 350v10l-8 5v-10zM598 340v10l-9 5v-10zM615 330v10l-9 5v-10zM632 320v10l-8 5v-10zM650 310v10l-9 5v-10zM667 300v10l-9 5v-10zM728 265v10l-9 5v-10zM710 275v10l-8 5v-10zM745 255v10l-9 5v-10zM762 245v10l-8 5v-10z"/>
      </g>
      <g fill="#d5fff6">
        <path d="M528 360v10l-8 5v-10zM546 350v10l-9 5v-10zM563 340v10l-9 5v-10zM580 330v10l-8 5v-10zM598 320v10l-9 5v-10zM615 310v10l-9 5v-10zM632 300v10l-8 5v-10zM650 290v10l-9 5v-10zM667 280v10l-9 5v-10zM728 245v10l-9 5v-10zM710 255v10l-8 5v-10zM745 235v10l-9 5v-10zM762 225v10l-8 5v-10z"/>
      </g>
      <path d="M476 375l26 15v185l-26-15z" fill="#00f"/>
      <path d="M476 390l18 10v15l-18-10zM476 460l18 10v15l-18-10zM476 480l18 10v15l-18-10z" fill="#f2f2f2"/>
    </g>
    <g>
      <path d="M455 823l212-123-13-7-4-3-213 123z" fill="#5aa02c"/>
      <path d="M632 715v-50l-8-5v50z" fill="#784421"/>
      <path d="M632 660l9-5v55l-9 5z" fill="#d38d5f"/>
      <path d="M632 615l31 18 4 2-35 20-34-20z" fill="#8a0"/>
      <path d="M598 635v50l34 20v-50z" fill="#668000"/>
      <path d="M632 655l35-20v50l-35 20z" fill="#450"/>
      <g>
        <path d="M580 745v-50l-8-5v50z" fill="#784421"/>
        <path d="M580 690l9-5v55l-9 5z" fill="#d38d5f"/>
        <path d="M580 665l31 18 4 2-35 20-34-20z" fill="#8a0"/>
        <path d="M546 685v30l34 20v-30z" fill="#668000"/>
        <path d="M580 705l35-20v30l-35 20z" fill="#450"/>
      </g>
      <g>
        <path d="M528 775v-50l-8-5v50z" fill="#784421"/>
        <path d="M528 720l9-5v55l-9 5z" fill="#d38d5f"/>
        <path d="M528 685l31 18 4 2-35 20-34-20z" fill="#8a0"/>
        <path d="M494 705v40l34 20v-40z" fill="#668000"/>
        <path d="M528 725l35-20v40l-35 20z" fill="#450"/>
      </g>
      <g>
        <path d="M476 805v-50l-8-5v50z" fill="#784421"/>
        <path d="M476 750l9-5v55l-9 5z" fill="#d38d5f"/>
        <path d="M476 705l31 18 4 2-35 20-34-20z" fill="#8a0"/>
        <path d="M442 725v50l34 20v-50z" fill="#668000"/>
        <path d="M476 745l35-20v50l-35 20z" fill="#450"/>
      </g>
    </g>
    <g stroke="#000" stroke-width=".3">
      <path d="M286 895l13 8v5l-13-8z" fill="#c87137"/>
      <path d="M299 903l22-13-13-7-5 2 9 5-13 8-9-5-4 2z" fill="#784421"/>
      <path d="M321 890v5l-22 13v-5z" fill="#deaa87"/>
      <path d="M295 895l13-7 4 2-13 8z" fill="#502d16"/>
      <path d="M299 893v-20l-17 10 17 10 17-10-17-10" fill="red"/>
      <path d="M299 873l-13 12 9 5z" fill="#fff"/>
      <path d="M308 893l-5-3v-5l9 5z" fill="#d38d5f"/>
      <path d="M299 873l13 12-9 5z" fill="#fff"/>
    </g>
    <path d="M819 573V368l-35-20v205z" fill="#666"/>
    <path d="M819 368l155-90v205l-155 90z" fill="#999"/>
    <path d="M784 348l26-15 35 20-26 15z" fill="#fac"/>
    <path d="M914 273l26-15 34 20-26 15z" fill="#afa"/>
    <path d="M888 288l26-15 34 20-26 15z" fill="#ff80e5"/>
    <path d="M862 303l26-15 34 20-26 15z" fill="#fea"/>
    <path d="M836 318l26-15 34 20-26 15z" fill="#ddafe9"/>
    <path d="M810 333l26-15 34 20-25 15z" fill="#aef"/>
    <path d="M888 533v-15l17-10v15z" fill="#d5fff6"/>
    <path d="M883 535v-20l26-15v20l-4 3v-15l-17 10v15z" fill="#1a1a1a"/>
    <path d="M845 398v80l103-60v-80z"/>
    <g stroke-width="3.2" fill="none" stroke="#fff">
      <path d="M884 383v16h27v-16zM884 414v16h27v-16z" stroke-width="1.9800000000000002"/>
      <path d="M884 383v47h27v-47z" stroke-width="1.9800000000000002"/>
    </g>
    <path d="M966 483v-10l-18 10v10zM944 495v-10l-17 10v10zM866 540v-10l-17 10v10zM845 553v-10l-18 10v10z" fill="#d5fff6"/>
    <g fill="#d5fff6">
      <path d="M845 528v-10l-18 10v10zM866 515v-10l-17 10v10zM892 500v-10l-17 10v10zM918 485v-10l-17 10v10zM944 470v-10l-17 10v10zM966 458v-10l-18 10v10z"/>
    </g>
    <g fill="#d5fff6">
      <path d="M845 508v-10l-18 10v10zM866 495v-10l-17 10v10zM892 480v-10l-17 10v10zM918 465v-10l-17 10v10zM944 450v-10l-17 10v10zM966 438v-10l-18 10v10z"/>
    </g>
    <g>
      <path d="M139 1030l-5 3-4-3 4-2z" fill="none"/>
      <path d="M139 1030v-60l-5-2-4 2 4 3v60z" fill="#666"/>
      <path d="M130 970v60l4 3v-60z" fill="#999"/>
      <path d="M134 973l5-3-5-2-4 2z" fill="gray"/>
    </g>
    <g>
      <path d="M273 953l-4 2-5-2 5-3z" fill="none"/>
      <path d="M273 953v-60l-4-3-5 3 5 2v60z" fill="#666"/>
      <path d="M264 893v60l5 2v-60z" fill="#999"/>
      <path d="M269 895l4-2-4-3-5 3z" fill="gray"/>
    </g>
    <g>
      <path d="M407 1030l-4 3-4-3 4-2z" fill="none"/>
      <path d="M407 1030v-60l-4-2-4 2 4 3v60z" fill="#666"/>
      <path d="M399 970v60l4 3v-60z" fill="#999"/>
      <path d="M403 973l4-3-4-2-4 2z" fill="gray"/>
    </g>
    <g>
      <path d="M273 1108l-4 2-5-2 5-3z" fill="none"/>
      <path d="M273 1108v-60l-4-3-5 3 5 2v60z" fill="#666"/>
      <path d="M264 1048v60l5 2v-60z" fill="#999"/>
      <path d="M269 1050l4-2-4-3-5 3z" fill="gray"/>
    </g>
  </g>
  <g>
    <path d="M149 1069v8l7-4v-8z" fill="#4d4d4d"/>
    <path d="M152 1071v2l2-1v-3z" fill="#e6e6e6"/>
    <path d="M131 1080v7l7-3v-8z" fill="#4d4d4d"/>
    <path d="M134 1081v3l2-2v-2z" fill="#e6e6e6"/>
    <path d="M131 1085l-4 2-2 2v-8l40-23v7l-9 6v-6l-7 4v5l-11 7v-5l-7 4z" fill="#660080"/>
    <path d="M125 1081l-16-9-2-1v7l18 11z" fill="#80a"/>
    <path d="M107 1071l40-24 18 11-40 23z" fill="#892ca0"/>
    <path d="M109 1072v2l-2-1v-2zM122 1080v2l3 2v-3z" fill="red"/>
    <path d="M131 1074l-13-7-5 2 14 8z" fill="#999"/>
    <path d="M118 1067l16-9 13 7-16 9z" fill="#4d4d4d"/>
    <path d="M107 1076l18 10v3l-18-11z" fill="#b3b3b3"/>
    <path d="M125 1086l6-4v3l-6 4zM138 1078l11-6v2l-11 7zM156 1068l9-5v2l-9 6z" fill="#ccc"/>
    <path d="M134 1052l13 8v5l-13-7z" fill="#d5f6ff"/>
    <path d="M147 1060l5 3-5 2z" fill="#87cdde"/>
    <path d="M122 1061l3-1 13 8-2 1-14-8" fill="#1a1a1a"/>
    <path d="M136 1069v3l2-1v-3z" fill="#333"/>
    <path d="M122 1061v6l12 6 2-1v-3z"/>
    <g>
      <path d="M54 1132l-9 6v-4l9-5z" fill="#e6e6e6"/>
      <path d="M63 1123l19-10v3l-19 11z" fill="#ccc"/>
      <path d="M91 1107l3-1v3l-3 2z" fill="#e6e6e6"/>
      <path d="M45 1134l-25-14v3l25 15z" fill="#ccc"/>
      <path d="M20 1120v-32l25 14v32z" fill="#a00"/>
      <path d="M79 1093l15-9v22l-15 8z" fill="#782121"/>
      <path d="M94 1084l-25-14-15 9 25 14z" fill="#de8787"/>
      <path d="M82 1095v7l12-7v-7z" fill="#aef"/>
      <path d="M79 1083v31l-34 20v-32z" fill="#f55"/>
      <path d="M51 1106v10l15-9v-10z" fill="#f9f9f9"/>
      <path d="M82 1109v11l9-6v-10z" fill="#4d4d4d"/>
      <path d="M85 1111v3l3-1v-4z" fill="#e6e6e6"/>
      <path d="M54 1125v11l9-6v-10z" fill="#4d4d4d"/>
      <path d="M57 1127v3l3-1v-4z" fill="#e6e6e6"/>
      <path d="M20 1088l34-20 25 15-34 19z" fill="#faa"/>
      <path d="M30 1114v8l12 7v-7z" fill="#f9f9f9"/>
      <path d="M42 1129v3l3 2v-4zM23 1122v-4l-3-2v4z" fill="red"/>
    </g>
    <g>
      <path d="M201 962v8l6 4v-8z" fill="#4d4d4d"/>
      <path d="M203 966v3l2 1v-3z" fill="#e6e6e6"/>
      <path d="M194 958v8l-7-4v-8z" fill="#4d4d4d"/>
      <path d="M189 958v3l2 1v-3z" fill="#f2f2f2"/>
      <path d="M184 958v-8l5-5 18-11 14 8-18 11-14-8" fill="#fc0"/>
      <path d="M210 972v-7l18-11v8z" fill="#fd5"/>
      <path d="M203 953l2 9 5 3 18-11-4-3-3-9z" fill="#ffe680"/>
      <path d="M184 958l3 1v-5l7 4v5l7 4v-5l6 4v5l3 1v-7l-5-3-2-9-14-8-5 5z" fill="#d4aa00"/>
      <path d="M201 954v5l-5-2v-6zM194 950v5l-5-2v-6z" fill="#d5f6ff"/>
      <path d="M210 967l4-2v-3l-4 3zM224 957v2l4-2v-3z" fill="#fff"/>
      <path d="M194 966l2-1-2-2z" fill="#1a1a1a"/>
      <path d="M207 974l3-2-3-1z" fill="#333"/>
      <path d="M217 969v-8l-5-3-2-9-14-8" fill="none" stroke="#000" stroke-width="1.0625"/>
      <path d="M221 966v-8l-4-3-3-9-13-8" fill="none" stroke="#000" stroke-width="1.0625"/>
      <path d="M205 949l9-6-4-2-9 5zM207 952l2 8 11-7-2-7z" fill="#d5f6ff"/>
      <path d="M217 963v3l4-3v-2z" fill="#ccc"/>
    </g>
  </g>
  <g>
    <path d="M1299 555l212-122-13-8-4-2-212 122z" fill="#5aa02c"/>
    <path d="M1477 448v-50l-9-5v50z" fill="#784421"/>
    <path d="M1477 393l8-5v55l-8 5z" fill="#d38d5f"/>
    <path d="M1477 348l30 17 4 3-34 20-35-20z" fill="#8a0"/>
    <path d="M1442 368v50l35 20v-50z" fill="#668000"/>
    <path d="M1477 388l34-20v50l-34 20z" fill="#450"/>
    <path d="M1425 478v-50l-9-5v50z" fill="#784421"/>
    <path d="M1425 423l8-5v55l-8 5z" fill="#d38d5f"/>
    <path d="M1425 398l30 17 4 3-34 20-35-20z" fill="#8a0"/>
    <path d="M1390 418v30l35 20v-30z" fill="#668000"/>
    <path d="M1425 438l34-20v30l-34 20z" fill="#450"/>
    <path d="M1373 508v-50l-9-5v50z" fill="#784421"/>
    <path d="M1373 453l8-5v55l-8 5z" fill="#d38d5f"/>
    <path d="M1373 418l30 17 4 3-34 20-35-20z" fill="#8a0"/>
    <path d="M1338 438v40l35 20v-40z" fill="#668000"/>
    <path d="M1373 458l34-20v40l-34 20z" fill="#450"/>
    <path d="M1321 538v-50l-9-5v50z" fill="#784421"/>
    <path d="M1321 483l8-5v55l-8 5z" fill="#d38d5f"/>
    <path d="M1321 438l30 17 4 3-34 20-35-20z" fill="#8a0"/>
    <path d="M1286 458v50l35 20v-50z" fill="#668000"/>
    <path d="M1321 478l34-20v50l-34 20z" fill="#450"/>
    <path d="M814 895V735l-34-20v160z" fill="#b3b3b3"/>
    <path d="M780 715l103-60 35 20-104 60z" fill="#ccc"/>
    <path d="M918 675v160l-104 60V735z" fill="gray"/>
    <g fill="#d5fff6">
      <path d="M784 738v10l9 5v-10zM801 748v10l9 5v-10zM784 858v10l9 5v-10zM801 868v10l9 5v-10zM784 838v10l9 5v-10zM801 848v10l9 5v-10zM784 818v10l9 5v-10zM801 828v10l9 5v-10z"/>
      <g>
        <path d="M784 798v10l9 5v-10zM801 808v10l9 5v-10z"/>
      </g>
      <g>
        <path d="M784 778v10l9 5v-10zM801 788v10l9 5v-10z"/>
      </g>
      <g>
        <path d="M784 758v10l9 5v-10zM801 768v10l9 5v-10z"/>
      </g>
    </g>
    <path d="M961 810V650l-34-20v160z" fill="#b3b3b3"/>
    <path d="M927 630l104-60 34 20-104 60z" fill="#ccc"/>
    <path d="M1065 590v160l-104 60V650z" fill="gray"/>
    <g fill="#d5fff6">
      <path d="M931 653v10l9 5v-10zM948 663v10l9 5v-10zM931 773v10l9 5v-10zM948 783v10l9 5v-10zM931 753v10l9 5v-10zM948 763v10l9 5v-10zM931 733v10l9 5v-10zM948 743v10l9 5v-10z"/>
      <g>
        <path d="M931 713v10l9 5v-10zM948 723v10l9 5v-10z"/>
      </g>
      <g>
        <path d="M931 693v10l9 5v-10zM948 703v10l9 5v-10z"/>
      </g>
      <g>
        <path d="M931 673v10l9 5v-10zM948 683v10l9 5v-10z"/>
      </g>
    </g>
    <path d="M1222 563l-5 3 11 7 5-3z" fill="red"/>
    <path d="M1217 566v-12l11 6v13z" fill="#d40000"/>
    <path d="M1217 554l3-2 2-1 11 6-5 3z" fill="#a00"/>
    <path d="M1233 570l-5 3v-13l5-3z" fill="#f55"/>
    <path d="M1220 559v3l5 3v-3z" fill="#a00"/>
    <path d="M1220 562v3l5 3v-3l-5-3" fill="#c8b7b7"/>
    <path d="M1169 560l-23 14v26l23-13z" fill="#2ad4ff"/>
    <path d="M1181 594l-12-7-23 13 12 7z" fill="#0cf"/>
    <path d="M1158 607v-27l23-13v27z" fill="none"/>
    <path d="M1181 567v27l-12-7v-27z" fill="#045"/>
    <path d="M1181 584l-3-2-23 13 3 2z" fill="#045"/>
    <path d="M1158 580l-12-6v26l12 7z" fill="#00aad4"/>
    <path d="M1146 574l23-14 12 7-23 13z" fill="#08a"/>
    <path d="M1181 567v3l-23 14v-4z" fill="#045"/>
    <path d="M1181 584l-23 13v10l23-13z" fill="#006680"/>
    <path d="M1178 589v3l-3 2v-4z" fill="#fff"/>
    <path d="M1172 592v3l-3 2v-3z" fill="#f9f9f9"/>
    <path d="M1166 595v4l-5 3v-3z" fill="#fff"/>
    <path d="M1155 582v13l-6-3v-13z" fill="#ececec"/>
    <g>
      <path d="M1347 588l212-123-13-7-4-3-213 123z" fill="#5aa02c"/>
    </g>
    <g>
      <path d="M1524 480v-50l-8-5v50z" fill="#784421"/>
      <path d="M1524 425l9-5v55l-9 5z" fill="#d38d5f"/>
      <path d="M1524 400l31 18 4 2-35 20-34-20z" fill="#8a0"/>
      <path d="M1490 420v30l34 20v-30z" fill="#668000"/>
      <path d="M1524 440l35-20v30l-35 20z" fill="#450"/>
      <g>
        <path d="M1472 510v-50l-8-5v50z" fill="#784421"/>
        <path d="M1472 455l9-5v55l-9 5z" fill="#d38d5f"/>
        <path d="M1472 410l31 18 4 2-35 20-34-20z" fill="#8a0"/>
        <path d="M1438 430v50l34 20v-50z" fill="#668000"/>
        <path d="M1472 450l35-20v50l-35 20z" fill="#450"/>
      </g>
      <g>
        <path d="M1420 540v-50l-8-5v50z" fill="#784421"/>
        <path d="M1420 485l9-5v55l-9 5z" fill="#d38d5f"/>
        <path d="M1420 440l31 18 4 2-35 20-34-20z" fill="#8a0"/>
        <path d="M1386 460v50l34 20v-50z" fill="#668000"/>
        <path d="M1420 480l35-20v50l-35 20z" fill="#450"/>
      </g>
      <g>
        <path d="M1368 570v-50l-8-5v50z" fill="#784421"/>
        <path d="M1368 515l9-5v55l-9 5z" fill="#d38d5f"/>
        <path d="M1368 480l31 18 4 2-35 20-34-20z" fill="#8a0"/>
        <path d="M1334 500v40l34 20v-40z" fill="#668000"/>
        <path d="M1368 520l35-20v40l-35 20z" fill="#450"/>
      </g>
    </g>
    <g>
      <path d="M468 1035l212-122-13-8-4-2-213 122z" fill="#5aa02c"/>
      <path d="M645 928v-50l-8-5v50z" fill="#784421"/>
      <path d="M645 873l9-5v55l-9 5z" fill="#d38d5f"/>
      <path d="M645 828l31 17 4 3-35 20-34-20z" fill="#8a0"/>
      <path d="M611 848v50l34 20v-50z" fill="#668000"/>
      <path d="M645 868l35-20v50l-35 20z" fill="#450"/>
      <g>
        <path d="M593 958v-50l-8-5v50z" fill="#784421"/>
        <path d="M593 903l9-5v55l-9 5z" fill="#d38d5f"/>
        <path d="M593 878l31 17 4 3-35 20-34-20z" fill="#8a0"/>
        <path d="M559 898v30l34 20v-30z" fill="#668000"/>
        <path d="M593 918l35-20v30l-35 20z" fill="#450"/>
      </g>
      <g>
        <path d="M541 988v-50l-8-5v50z" fill="#784421"/>
        <path d="M541 933l9-5v55l-9 5z" fill="#d38d5f"/>
        <path d="M541 898l31 17 4 3-35 20-34-20z" fill="#8a0"/>
        <path d="M507 918v40l34 20v-40z" fill="#668000"/>
        <path d="M541 938l35-20v40l-35 20z" fill="#450"/>
      </g>
      <g>
        <path d="M489 1018v-50l-8-5v50z" fill="#784421"/>
        <path d="M489 963l9-5v55l-9 5z" fill="#d38d5f"/>
        <path d="M489 918l31 17 4 3-35 20-34-20z" fill="#8a0"/>
        <path d="M455 938v50l34 20v-50z" fill="#668000"/>
        <path d="M489 958l35-20v50l-35 20z" fill="#450"/>
      </g>
    </g>
    <g>
      <path d="M767 873L593 973v50l174-100z" fill="#d3bc5f"/>
      <path d="M593 973l-30-18-4-2v50l34 20z" fill="#a0892c"/>
      <path d="M559 953l173-100 35 20-174 100z" fill="#e9ddaf"/>
      <path d="M732 858l26 15-26 15-26-15z" fill="none" stroke="#000" stroke-width=".3"/>
      <path d="M732 888V733l-22-13-4-2v155z" fill="#a0892c"/>
      <path d="M732 888l26-15V718l-26 15z" fill="#d3bc5f"/>
      <path d="M706 718l26-15 26 15-26 15z" fill="#e9ddaf"/>
      <path d="M710 725v20l18 10v-20zM736 735v20l18-10v-20z" fill="#fff" stroke="#000" stroke-width=".3"/>
      <path d="M567 953l26 15 135-78-26-15z" fill="#a0892c"/>
      <path d="M645 883l-78 70 26 15z" fill="#a0892c"/>
      <path d="M645 883l83 7-135 78z" fill="#d3bc5f"/>
      <path d="M645 883l57-8 26 15z" fill="#f4eed7"/>
      <path d="M563 995v-15l9 5v15zM580 1005v-15l9 5v15z" fill="#d5fff6"/>
    </g>
    <g>
      <path d="M502 1030l22 13v15l-22-13z" fill="gray"/>
      <path d="M524 1043l22-13v15l-22 13z" fill="#666"/>
      <path d="M524 1018l22 12-22 13-22-13z" fill="#b3b3b3"/>
      <path d="M524 988l-13 37 9 5 13-7z" fill="#4d4d4d"/>
      <path d="M524 988l-4 42-9-5z" fill="gray"/>
      <path d="M528 1045v5l13-7v-5zM520 1045v5l-13-7v-5z" fill="#c8ab37"/>
      <path d="M515 1038v-35l18 35-9 5z" fill="#666"/>
      <path d="M515 1003l9 40 9-5z" fill="#ccc"/>
    </g>
    <g>
      <path d="M48 1278l212-123-13-7-4-3-213 123z" fill="#5aa02c"/>
      <path d="M225 1170v-50l-8-5v50z" fill="#784421"/>
      <path d="M225 1115l9-5v55l-9 5z" fill="#d38d5f"/>
      <path d="M225 1070l31 18 4 2-35 20-34-20z" fill="#8a0"/>
      <path d="M191 1090v50l34 20v-50z" fill="#668000"/>
      <path d="M225 1110l35-20v50l-35 20z" fill="#450"/>
      <g>
        <path d="M173 1200v-50l-8-5v50z" fill="#784421"/>
        <path d="M173 1145l9-5v55l-9 5z" fill="#d38d5f"/>
        <path d="M173 1120l31 18 4 2-35 20-34-20z" fill="#8a0"/>
        <path d="M139 1140v30l34 20v-30z" fill="#668000"/>
        <path d="M173 1160l35-20v30l-35 20z" fill="#450"/>
      </g>
      <g>
        <path d="M121 1230v-50l-8-5v50z" fill="#784421"/>
        <path d="M121 1175l9-5v55l-9 5z" fill="#d38d5f"/>
        <path d="M121 1140l31 18 4 2-35 20-34-20z" fill="#8a0"/>
        <path d="M87 1160v40l34 20v-40z" fill="#668000"/>
        <path d="M121 1180l35-20v40l-35 20z" fill="#450"/>
      </g>
      <g>
        <path d="M69 1260v-50l-8-5v50z" fill="#784421"/>
        <path d="M69 1205l9-5v55l-9 5z" fill="#d38d5f"/>
        <path d="M69 1160l31 18 4 2-35 20-34-20z" fill="#8a0"/>
        <path d="M35 1180v50l34 20v-50z" fill="#668000"/>
        <path d="M69 1200l35-20v50l-35 20z" fill="#450"/>
      </g>
    </g>
    <g>
      <path d="M130 1240v10l-104 60v-10z" fill="#666"/>
      <path d="M26 1300l35 20v10l-35-20z" fill="#4d4d4d"/>
      <path d="M26 1310l35 20 251-145-35-20-251 145" fill="#5aa02c"/>
      <path d="M130 1250l35 20 26-15-35-20z" fill="#d38d5f"/>
      <path d="M156 1235v-10l121-70v10z" fill="#666"/>
      <path d="M277 1155l35 20v10l-35-20z" fill="#4d4d4d"/>
    </g>
    <g>
      <path d="M-26 1380v-40l87-50v40z" fill="#a02c2c"/>
      <path d="M61 1290l-26-15-87 50 26 15z" fill="maroon"/>
      <path d="M-52 1325v40l26 15v-40z" fill="#a00"/>
      <path d="M0 1325l-26-15-9 5 26 15z" fill="#fff"/>
      <path d="M26 1280l26 15-9 5-26-15z" fill="#f9f9f9"/>
      <path d="M9 1290l26 15-9 5-26-15zM-9 1300l26 15-8 5-26-15z" fill="#fff"/>
    </g>
    <g>
      <path d="M-17 1285l-6 3 11 7 6-4z" fill="red"/>
      <path d="M-23 1288v-12l11 6v13z" fill="#d40000"/>
      <path d="M-23 1276l3-2 3-1 11 6-6 3z" fill="#a00"/>
      <path d="M-6 1291l-6 4v-13l6-3z" fill="#f55"/>
      <path d="M-20 1281v3l6 3v-3z" fill="#a00"/>
      <path d="M-20 1284v3l6 3v-3l-6-3" fill="#c8b7b7"/>
    </g>
    <g>
      <path d="M-130 1440v-160l-34-20v160z" fill="#b3b3b3"/>
      <path d="M-164 1260l104-60 34 20-104 60z" fill="#ccc"/>
      <path d="M-26 1220v160l-104 60v-160z" fill="gray"/>
      <g fill="#d5fff6">
        <path d="M-160 1283v10l9 5v-10zM-143 1293v10l9 5v-10zM-160 1403v10l9 5v-10zM-143 1413v10l9 5v-10zM-160 1383v10l9 5v-10zM-143 1393v10l9 5v-10zM-160 1363v10l9 5v-10zM-143 1373v10l9 5v-10z"/>
        <g>
          <path d="M-160 1343v10l9 5v-10zM-143 1353v10l9 5v-10z"/>
        </g>
        <g>
          <path d="M-160 1323v10l9 5v-10zM-143 1333v10l9 5v-10z"/>
        </g>
        <g>
          <path d="M-160 1303v10l9 5v-10zM-143 1313v10l9 5v-10z"/>
        </g>
      </g>
    </g>
    <g>
      <path d="M-277 1525v-160l-35-20v160z" fill="#b3b3b3"/>
      <path d="M-312 1345l104-60 35 20-104 60z" fill="#ccc"/>
      <path d="M-173 1305v160l-104 60v-160z" fill="gray"/>
      <g fill="#d5fff6">
        <path d="M-307 1368v10l8 5v-10zM-290 1378v10l9 5v-10zM-307 1488v10l8 5v-10zM-290 1498v10l9 5v-10zM-307 1468v10l8 5v-10zM-290 1478v10l9 5v-10zM-307 1448v10l8 5v-10zM-290 1458v10l9 5v-10z"/>
        <g>
          <path d="M-307 1428v10l8 5v-10zM-290 1438v10l9 5v-10z"/>
        </g>
        <g>
          <path d="M-307 1408v10l8 5v-10zM-290 1418v10l9 5v-10z"/>
        </g>
        <g>
          <path d="M-307 1388v10l8 5v-10zM-290 1398v10l9 5v-10z"/>
        </g>
      </g>
    </g>
    <g>
      <path d="M-433 1495l-23 14v26l23-13z" fill="#2ad4ff"/>
      <path d="M-421 1529l-12-7-23 13 12 7z" fill="#0cf"/>
      <path d="M-444 1542v-27l23-13v27z" fill="none"/>
      <path d="M-421 1502v27l-12-7v-27z" fill="#045"/>
      <path d="M-421 1519l-3-2-23 13 3 2z" fill="#045"/>
      <path d="M-444 1515l-12-6v26l12 7z" fill="#00aad4"/>
      <path d="M-456 1509l23-14 12 7-23 13z" fill="#08a"/>
      <path d="M-421 1502v3l-23 14v-4z" fill="#045"/>
      <path d="M-421 1519l-23 13v10l23-13z" fill="#006680"/>
      <path d="M-424 1524v3l-3 2v-4z" fill="#fff"/>
      <path d="M-430 1527v3l-3 2v-3z" fill="#f9f9f9"/>
      <path d="M-436 1530v4l-6 3v-3z" fill="#fff"/>
      <path d="M-447 1517v13l-6-3v-13z" fill="#ececec"/>
    </g>
    <g>
      <path d="M-684 1700l212-122-13-8-4-2-212 122z" fill="#5aa02c"/>
      <path d="M-506 1593v-50l-9-5v50z" fill="#784421"/>
      <path d="M-506 1538l8-5v55l-8 5z" fill="#d38d5f"/>
      <path d="M-506 1493l30 17 4 3-34 20-35-20z" fill="#8a0"/>
      <path d="M-541 1513v50l35 20v-50z" fill="#668000"/>
      <path d="M-506 1533l34-20v50l-34 20z" fill="#450"/>
      <g>
        <path d="M-558 1623v-50l-9-5v50z" fill="#784421"/>
        <path d="M-558 1568l8-5v55l-8 5z" fill="#d38d5f"/>
        <path d="M-558 1543l30 17 4 3-34 20-35-20z" fill="#8a0"/>
        <path d="M-593 1563v30l35 20v-30z" fill="#668000"/>
        <path d="M-558 1583l34-20v30l-34 20z" fill="#450"/>
      </g>
      <g>
        <path d="M-610 1653v-50l-9-5v50z" fill="#784421"/>
        <path d="M-610 1598l8-5v55l-8 5z" fill="#d38d5f"/>
        <path d="M-610 1563l30 17 4 3-34 20-35-20z" fill="#8a0"/>
        <path d="M-645 1583v40l35 20v-40z" fill="#668000"/>
        <path d="M-610 1603l34-20v40l-34 20z" fill="#450"/>
      </g>
      <g>
        <path d="M-662 1683v-50l-9-5v50z" fill="#784421"/>
        <path d="M-662 1628l8-5v55l-8 5z" fill="#d38d5f"/>
        <path d="M-662 1583l30 17 4 3-34 20-35-20z" fill="#8a0"/>
        <path d="M-697 1603v50l35 20v-50z" fill="#668000"/>
        <path d="M-662 1623l34-20v50l-34 20z" fill="#450"/>
      </g>
    </g>
    <g>
      <path d="M-658 1715l325-187 26 15-325 187z" fill="#87decd"/>
      <path d="M-537 1635l13-7 35 20-5 2-30-17-8 5z" fill="gray"/>
      <path d="M-472 1598l4-3 35 20-4 3z" fill="#999"/>
      <path d="M-524 1628l52-30 35 20-52 30z" fill="#b3b3b3"/>
      <path d="M-485 1645l-34-20-5 3 35 20z" fill="#999"/>
      <g stroke="#4d4d4d" fill="none" stroke-width=".3">
        <path d="M-532 1628v5M-528 1625v5M-524 1623v5M-519 1625v5M-515 1628v5M-511 1630v5M-506 1633v5M-502 1635v5M-498 1638v5M-494 1640v5M-489 1643v5"/>
      </g>
      <path d="M-489 1648l-35-20-13 7v-5l13-7 39 22" fill="none" stroke="#782121"/>
      <path d="M-468 1590v5M-463 1593v5M-459 1595v5M-455 1598v5M-450 1600v5M-446 1603v5M-442 1605v5M-437 1608v5M-472 1593v5M-476 1595v5M-433 1610v5" fill="none" stroke="#4d4d4d" stroke-width=".3"/>
      <path d="M-429 1613l-39-23-13 8v5l13-8 35 20" fill="none" stroke="#782121"/>
    </g>
    <g>
      <path d="M-779 1815v-160l-35-20v160z" fill="#b3b3b3"/>
      <path d="M-814 1635l104-60 35 20-104 60z" fill="#ccc"/>
      <path d="M-675 1595v160l-104 60v-160z" fill="gray"/>
      <g fill="#d5fff6">
        <path d="M-810 1658v10l9 5v-10zM-792 1668v10l8 5v-10zM-810 1778v10l9 5v-10zM-792 1788v10l8 5v-10zM-810 1758v10l9 5v-10zM-792 1768v10l8 5v-10zM-810 1738v10l9 5v-10zM-792 1748v10l8 5v-10z"/>
        <g>
          <path d="M-810 1718v10l9 5v-10zM-792 1728v10l8 5v-10z"/>
        </g>
        <g>
          <path d="M-810 1698v10l9 5v-10zM-792 1708v10l8 5v-10z"/>
        </g>
        <g>
          <path d="M-810 1678v10l9 5v-10zM-792 1688v10l8 5v-10z"/>
        </g>
      </g>
    </g>
    <g>
      <path d="M234 1220v-45l-17 35z" fill="#ff7f2a"/>
      <path d="M234 1175l17 35-17 10z" fill="#d45500"/>
    </g>
    <g>
      <path d="M169 993v15l4 2v-15z" fill="#fd5"/>
      <path d="M178 993l-5 2v15l5-2z" fill="#a0892c"/>
    </g>
    <g>
      <path d="M225 915v15l5 3v-15z" fill="#fd5"/>
      <path d="M234 915l-4 3v15l4-3z" fill="#a0892c"/>
    </g>
    <g>
      <path d="M360 948v15l4 2v-15z" fill="#fd5"/>
      <path d="M368 948l-4 2v15l4-2z" fill="#a0892c"/>
    </g>
    <path d="M169 993v5l4 2v-5z" fill="red"/>
    <path d="M169 998v5l4 2v-5z" fill="#fc0"/>
    <path d="M173 1005v5l-4-2v-5z" fill="#0f0"/>
    <path d="M230 918v-5l43-25v5z" fill="gray"/>
    <path d="M273 888l-4-3-44 25 5 3z" fill="#e6e6e6"/>
    <path d="M225 910v5l5 3v-5z" fill="#666"/>
    <g>
      <path d="M303 1025v15l5 3v-15z" fill="#fd5"/>
      <path d="M312 1025l-4 3v15l4-3z" fill="#a0892c"/>
      <path d="M308 1028v5l4-3v-5z" fill="red"/>
      <path d="M308 1033v5l4-3v-5z" fill="#ff0"/>
      <path d="M308 1038v5l4-3v-5z" fill="#0f0"/>
    </g>
    <path d="M269 1050v-5l43-25v5z" fill="#999"/>
    <path d="M269 1045l-5-2 44-25 4 2z" fill="#e6e6e6"/>
    <path d="M264 1043v5l5 2v-5z" fill="#666"/>
    <g>
      <path d="M130 970v-5l43 25v5z" fill="gray"/>
      <path d="M173 990l5-2-44-25-4 2z" fill="#ccc"/>
      <path d="M173 995l5-2v-5l-5 2z" fill="#999"/>
    </g>
    <g>
      <path d="M360 948v-5l43 25v5z" fill="gray"/>
      <path d="M403 968l4-3-43-25-4 3z" fill="#ccc"/>
      <path d="M403 973l4-3v-5l-4 3z" fill="#999"/>
    </g>
  </g>
</svg>