<?xml version="1.0" encoding="UTF-8" standalone="no"?>
<svg
   xmlns:dc="http://purl.org/dc/elements/1.1/"
   xmlns:cc="http://creativecommons.org/ns#"
   xmlns:rdf="http://www.w3.org/1999/02/22-rdf-syntax-ns#"
   xmlns:svg="http://www.w3.org/2000/svg"
   xmlns="http://www.w3.org/2000/svg"
   id="svg8"
   version="1.1"
   viewBox="0 0 158.75 158.75"
   height="600"
   width="600">
  <defs
     id="defs2" />
  <metadata
     id="metadata5">
    <rdf:RDF>
      <cc:Work
         rdf:about="">
        <dc:format>image/svg+xml</dc:format>
        <dc:type
           rdf:resource="http://purl.org/dc/dcmitype/StillImage" />
        <dc:title></dc:title>
      </cc:Work>
    </rdf:RDF>
  </metadata>
  <g
     transform="translate(0,-138.24998)"
     id="layer1">
    <path
       id="rect840"
       transform="matrix(0.26458333,0,0,0.26458333,0,138.24998)"
       d="M 0 0 L 0 600 L 600 600 L 600 0 L 0 0 z M 169.63867 6.8828125 C 178.22145 6.8146911 186.58112 8.2756888 192.76758 11.361328 C 209.26479 19.589662 215.22845 31.079834 244.1543 18.853516 C 273.08014 6.6271975 272.95283 1.6441136 348.66406 14.767578 C 424.37528 27.891043 392.33194 16.144454 445 10 C 497.66806 3.8555465 469.32133 33.835564 492.98242 22.257812 C 516.64351 10.680061 554.15039 7.1112587 578.42188 16.810547 C 602.69336 26.509835 585.91453 52.709499 579.78516 82.5 C 573.65575 112.2905 588.30156 91.953619 590 134.56836 C 591.69844 177.18314 582.31595 160.05732 581.14648 179.82617 C 579.97702 199.59503 587.65922 206.59393 586.5957 252.32617 C 585.53214 298.05846 576.6052 320.63271 590 372.5 C 603.3948 424.36729 563.72771 415.50876 574.33594 440.91406 C 584.94416 466.3194 593.0271 500.89442 590 517.5 C 586.9729 534.10558 594.82902 555.88461 589.31836 584.55078 C 584.75617 608.28293 541.66668 590 517.5 590 C 517.5 590 499.81085 566.51024 424.56836 577.74023 C 377.75977 584.72643 372.5 590 372.5 590 L 300 590 C 300 590 276.18496 575.01751 234.99219 583.87109 C 211.36509 588.9493 186.65885 583.87109 162.49219 583.87109 C 138.32552 583.87109 117.05779 583.18956 82.5 590 C 70.644695 592.33639 36.623569 600.95951 19.535156 583.87109 C 2.4467427 566.78268 19.781857 543.25903 16.128906 521.58594 C 10.071508 485.64717 10 445 10 445 L 10 372.5 C 10 352.28626 21.563138 346.70242 13.404297 323.83594 C -0.86792607 283.83572 26.151274 273.55134 23.621094 249.29297 C 18.881239 203.84921 11.407341 190.98967 14.767578 165.21484 C 18.6765 135.23132 4.9201453 118.83634 10 82.5 C 12.764987 62.721959 1.0843861 42.753151 14.767578 17.492188 C 26.277871 -3.7572991 49.479761 18.853581 82.5 10 C 105.84218 3.7413669 117.8382 39.656265 133.88672 19.535156 C 140.40734 11.359826 155.33404 6.9963482 169.63867 6.8828125 z "
       style="fill:#ff00ff;fill-opacity:1;stroke:none;stroke-width:23.36894798;stroke-linecap:round;stroke-linejoin:round;stroke-miterlimit:4;stroke-dasharray:none;stroke-opacity:1" />
  </g>
</svg>
