<svg xmlns="http://www.w3.org/2000/svg" xmlns:xlink="http://www.w3.org/1999/xlink" width="63.2" height="329.1" viewBox="0 0 16.7 87.1">
  <defs>
    <pattern xlink:href="#a" id="d" patternTransform="matrix(16.80595 7.78716 -40.7833 18.89723 438.8 -200.8)"/>
    <pattern id="a" patternTransform="scale(10)" height="1" width="2" patternUnits="userSpaceOnUse">
      <path d="M0-.5h1v2H0z"/>
    </pattern>
    <pattern xlink:href="#b" id="c" patternTransform="matrix(13.03187 0 0 13.0843 -92.5 -217.6)"/>
    <pattern id="b" patternTransform="scale(10)" height="2" width="2" patternUnits="userSpaceOnUse">
      <path d="M0 0h1v1H0zM1 1h1v1H1z"/>
    </pattern>
  </defs>
  <g transform="matrix(0 -1.00036 .99247 0 -219.8 98)">
    <path fill="red" fill-opacity=".7" stroke="#000" stroke-width="1.3" stroke-linecap="round" stroke-linejoin="round" d="M11.6 222.1h85.7v15.5H11.6z"/>
    <rect width="20.4" height="1.9" x="63.2" y="223.7" ry="1" fill="#fff" fill-opacity=".7"/>
    <g stroke="#000" stroke-linecap="round" stroke-linejoin="round">
      <path transform="matrix(-.26547 0 0 -.24756 81.3 272.7)" d="M-59.7 143v60.6h25.3v-60.7z" fill="#ffd42a" fill-opacity=".7" stroke-width="6.3"/>
      <path transform="matrix(-.26547 0 0 -.24756 81.3 272.7)" d="M-59.7 143v60.6h25.3v-60.7z" fill="url(#d)" stroke-width="1.3"/>
    </g>
  </g>
  <path fill="red" fill-opacity=".7" stroke="#000" stroke-width="1.3" stroke-linecap="round" stroke-linejoin="round" d="M55.1 223.9h22.7v12H55.1z" transform="matrix(0 -1.00036 .99247 0 -219.8 98)"/>
</svg>