<?xml version="1.0" encoding="UTF-8" standalone="no"?>
<!-- Created with Inkscape (http://www.inkscape.org/) -->

<svg
   xmlns:dc="http://purl.org/dc/elements/1.1/"
   xmlns:cc="http://creativecommons.org/ns#"
   xmlns:rdf="http://www.w3.org/1999/02/22-rdf-syntax-ns#"
   xmlns:svg="http://www.w3.org/2000/svg"
   xmlns="http://www.w3.org/2000/svg"
   xmlns:sodipodi="http://sodipodi.sourceforge.net/DTD/sodipodi-0.dtd"
   xmlns:inkscape="http://www.inkscape.org/namespaces/inkscape"
   width="135.68738mm"
   height="117.19611mm"
   viewBox="0 0 135.68738 117.19611"
   version="1.1"
   id="svg8"
   inkscape:version="0.92.2 5c3e80d, 2017-08-06"
   sodipodi:docname="t-shirt.svg">
  <defs
     id="defs2" />
  <sodipodi:namedview
     id="base"
     pagecolor="#ffffff"
     bordercolor="#666666"
     borderopacity="1.0"
     inkscape:pageopacity="0.0"
     inkscape:pageshadow="2"
     inkscape:zoom="0.7"
     inkscape:cx="309.6264"
     inkscape:cy="263.77688"
     inkscape:document-units="mm"
     inkscape:current-layer="g850"
     showgrid="false"
     inkscape:snap-intersection-paths="true"
     inkscape:object-paths="false"
     inkscape:object-nodes="true"
     fit-margin-top="0"
     fit-margin-left="0"
     fit-margin-right="0"
     fit-margin-bottom="0"
     inkscape:window-width="1720"
     inkscape:window-height="1423"
     inkscape:window-x="0"
     inkscape:window-y="478"
     inkscape:window-maximized="0" />
  <metadata
     id="metadata5">
    <rdf:RDF>
      <cc:Work
         rdf:about="">
        <dc:format>image/svg+xml</dc:format>
        <dc:type
           rdf:resource="http://purl.org/dc/dcmitype/StillImage" />
        <dc:title></dc:title>
      </cc:Work>
    </rdf:RDF>
  </metadata>
  <g
     inkscape:label="Layer 1"
     inkscape:groupmode="layer"
     id="layer1"
     transform="translate(-23.900395,-122.41636)">
    <g
       id="g850"
       transform="translate(4.5357144,51.404762)">
      <path
         transform="scale(0.26458333)"
         id="path846"
         d="m 261.06641,273.64648 -59.30664,9.375 -123.570317,123.57227 71.427737,71.42773 53.42383,-53.42382 V 706.33594 H 457.59961 V 425.43555 l 51.99414,51.99414 71.42969,-71.42774 -123.42383,-123.42383 -59.41797,-9.1875 a 69.432491,33.619948 0 0 1 -0.52734,1.6875 69.432491,33.619948 0 0 1 -1.7168,3.25586 69.432491,33.619948 0 0 1 -2.37891,3.15625 69.432491,33.619948 0 0 1 -3.01953,3.02735 69.432491,33.619948 0 0 1 -3.62695,2.86328 69.432491,33.619948 0 0 1 -4.20117,2.67578 69.432491,33.619948 0 0 1 -4.73047,2.45898 69.432491,33.619948 0 0 1 -5.21485,2.21876 69.432491,33.619948 0 0 1 -5.64453,1.95507 69.432491,33.619948 0 0 1 -6.01953,1.67188 69.432491,33.619948 0 0 1 -6.33594,1.37305 69.432491,33.619948 0 0 1 -6.58593,1.05859 69.432491,33.619948 0 0 1 -6.77149,0.73633 69.432491,33.619948 0 0 1 -6.89062,0.40429 69.432491,33.619948 0 0 1 -4.91016,0.084 69.432491,33.619948 0 0 1 -6.93359,-0.16797 69.432491,33.619948 0 0 1 -6.86133,-0.50195 69.432491,33.619948 0 0 1 -6.72461,-0.83008 69.432491,33.619948 0 0 1 -6.51953,-1.15235 69.432491,33.619948 0 0 1 -6.25,-1.46289 69.432491,33.619948 0 0 1 -5.91602,-1.75586 69.432491,33.619948 0 0 1 -5.52539,-2.0332 69.432491,33.619948 0 0 1 -5.07812,-2.29101 69.432491,33.619948 0 0 1 -4.58008,-2.52539 69.432491,33.619948 0 0 1 -4.03711,-2.73243 69.432491,33.619948 0 0 1 -3.45312,-2.91601 69.432491,33.619948 0 0 1 -2.83594,-3.06836 69.432491,33.619948 0 0 1 -2.1875,-3.1875 69.432491,33.619948 0 0 1 -1.52149,-3.2793 69.432491,33.619948 0 0 1 -0.11718,-0.4668 z"
         style="fill:#ff0000;fill-opacity:1;fill-rule:nonzero;stroke:#000000;stroke-width:10.00063038;stroke-linecap:round;stroke-linejoin:round;stroke-miterlimit:4;stroke-dasharray:none;stroke-dashoffset:0;stroke-opacity:1"
         inkscape:connector-curvature="0" />
      <path
         sodipodi:nodetypes="ccccccccccccccccccccccccccccccccc"
         inkscape:connector-curvature="0"
         transform="scale(0.26458333)"
         id="rect836"
         d="m 261.06641,273.64648 c 0.0368,0.15573 0.0759,0.31133 0.11718,0.4668 0.39393,1.1047 0.90173,2.19917 1.52149,3.2793 0.61903,1.07948 1.34911,2.14331 2.1875,3.1875 0.83905,1.04505 1.78555,2.06911 2.83594,3.06836 1.04991,0.99927 2.20239,1.97249 3.45312,2.91601 1.25082,0.94282 2.5982,1.85477 4.03711,2.73243 1.43879,0.87824 2.96739,1.72109 4.58008,2.52539 1.61277,0.80418 3.30759,1.56881 5.07812,2.29101 1.77065,0.72191 3.61475,1.40049 5.52539,2.0332 1.91034,0.63266 3.88481,1.21868 5.91602,1.75586 2.03166,0.53779 4.1176,1.02603 6.25,1.46289 2.13215,0.4365 4.30804,0.8211 6.51953,1.15235 2.21156,0.3308 4.4559,0.60783 6.72461,0.83008 2.2684,0.22259 4.55837,0.39011 6.86133,0.50195 2.30397,0.11194 4.61805,0.168 6.93359,0.16797 1.63825,6e-5 3.276,-0.028 4.91016,-0.084 2.30936,-0.079 4.6091,-0.21399 6.89062,-0.40429 2.2811,-0.19063 4.54109,-0.43638 6.77149,-0.73633 2.23038,-0.29949 4.42843,-0.65279 6.58593,-1.05859 2.15794,-0.40625 4.27256,-0.8645 6.33594,-1.37305 2.06281,-0.50836 4.07183,-1.06635 6.01953,-1.67188 1.94764,-0.60572 3.8315,-1.25823 5.64453,-1.95507 1.8136,-0.69702 3.55406,-1.43753 5.21485,-2.21876 1.66049,-0.78096 3.23929,-1.60165 4.73047,-2.45898 1.49165,-0.85745 2.89379,-1.75049 4.20117,-2.67578 1.30676,-0.92457 2.51725,-1.88019 3.62695,-2.86328 1.11015,-0.9841 2.11792,-1.99448 3.01953,-3.02735 0.90111,-1.03223 1.69507,-2.08563 2.37891,-3.15625 0.68399,-1.07075 1.25697,-2.1574 1.7168,-3.25586 0.20524,-0.56025 0.38108,-1.12293 0.52734,-1.6875 -64.14109,0 -74.37508,0.25586 -137.11523,0.25586 z"
         style="fill:#ff0000;fill-opacity:1;fill-rule:nonzero;stroke:#000000;stroke-width:10.00063038;stroke-linecap:round;stroke-linejoin:round;stroke-miterlimit:4;stroke-dasharray:none;stroke-dashoffset:0;stroke-opacity:1" />
    </g>
    <g
       id="g962"
       transform="translate(-154.97024,-43.845473)">
      <path
         inkscape:connector-curvature="0"
         id="rect928"
         d="m 264.85818,167.58483 a 18.37068,8.8952778 0 0 1 -0.13953,0.44648 18.37068,8.8952778 0 0 1 -0.45423,0.86145 18.37068,8.8952778 0 0 1 -0.62942,0.83509 18.37068,8.8952778 0 0 1 -0.79892,0.80098 18.37068,8.8952778 0 0 1 -0.95963,0.75758 18.37068,8.8952778 0 0 1 -1.11156,0.70797 18.37068,8.8952778 0 0 1 -1.25161,0.6506 18.37068,8.8952778 0 0 1 -1.37976,0.58705 18.37068,8.8952778 0 0 1 -1.49345,0.51728 18.37068,8.8952778 0 0 1 -1.59266,0.44235 18.37068,8.8952778 0 0 1 -1.67639,0.36328 18.37068,8.8952778 0 0 1 -1.74252,0.28009 18.37068,8.8952778 0 0 1 -1.79163,0.19482 18.37068,8.8952778 0 0 1 -1.82314,0.10697 18.37068,8.8952778 0 0 1 -1.29915,0.0222 18.37068,8.8952778 0 0 1 -1.83451,-0.0444 18.37068,8.8952778 0 0 1 -1.81539,-0.13281 18.37068,8.8952778 0 0 1 -1.77922,-0.21962 18.37068,8.8952778 0 0 1 -1.72496,-0.30489 18.37068,8.8952778 0 0 1 -1.65365,-0.38706 18.37068,8.8952778 0 0 1 -1.56528,-0.46457 18.37068,8.8952778 0 0 1 -1.46193,-0.53795 18.37068,8.8952778 0 0 1 -1.34358,-0.60617 18.37068,8.8952778 0 0 1 -1.21181,-0.66817 18.37068,8.8952778 0 0 1 -1.06816,-0.72296 18.37068,8.8952778 0 0 1 -0.91363,-0.77153 18.37068,8.8952778 0 0 1 -0.75035,-0.81183 18.37068,8.8952778 0 0 1 -0.57877,-0.84336 18.37068,8.8952778 0 0 1 -0.40256,-0.86765 18.37068,8.8952778 0 0 1 -0.031,-0.12351 l -2.46497,0.38964 v 114.09276 h 41.19903 V 167.96465 Z"
         style="fill:#ff0000;fill-opacity:0.67579908;fill-rule:nonzero;stroke:#000000;stroke-width:2.59874654;stroke-linecap:square;stroke-linejoin:round;stroke-miterlimit:4;stroke-dasharray:none;stroke-dashoffset:0;stroke-opacity:1" />
      <path
         sodipodi:nodetypes="ccccccccccccccccccccccccccccccccc"
         inkscape:connector-curvature="0"
         id="path958"
         d="m 228.57514,167.67619 c 0.01,0.0412 0.0201,0.0824 0.031,0.12351 0.10423,0.29228 0.23859,0.58186 0.40257,0.86765 0.16378,0.28561 0.35695,0.56708 0.57877,0.84336 0.222,0.2765 0.47243,0.54745 0.75034,0.81183 0.27779,0.26439 0.58272,0.52189 0.91364,0.77153 0.33095,0.24945 0.68744,0.49074 1.06815,0.72296 0.38068,0.23236 0.78513,0.45537 1.21182,0.66817 0.42671,0.21277 0.87513,0.41508 1.34358,0.60617 0.46849,0.191 0.95641,0.37054 1.46193,0.53795 0.50544,0.16739 1.02785,0.32244 1.56528,0.46457 0.53754,0.14229 1.08945,0.27147 1.65364,0.38705 0.56414,0.11549 1.13984,0.21725 1.72497,0.3049 0.58514,0.0875 1.17895,0.16082 1.77922,0.21962 0.60018,0.0589 1.20606,0.10322 1.81539,0.13281 0.60959,0.0296 1.22186,0.0444 1.83451,0.0444 0.43346,2e-5 0.86678,-0.007 1.29915,-0.0222 0.61102,-0.0209 1.21949,-0.0566 1.82314,-0.10697 0.60354,-0.0504 1.2015,-0.11546 1.79162,-0.19482 0.59013,-0.0792 1.17169,-0.17272 1.74253,-0.28009 0.57096,-0.10749 1.13045,-0.22873 1.67639,-0.36328 0.54578,-0.13451 1.07733,-0.28214 1.59266,-0.44236 0.51532,-0.16026 1.01375,-0.3329 1.49345,-0.51727 0.47985,-0.18442 0.94035,-0.38035 1.37976,-0.58705 0.43934,-0.20663 0.85707,-0.42377 1.25161,-0.65061 0.39466,-0.22686 0.76565,-0.46315 1.11156,-0.70796 0.34574,-0.24463 0.66602,-0.49747 0.95963,-0.75758 0.29373,-0.26038 0.56036,-0.52771 0.79892,-0.80099 0.23841,-0.27311 0.44848,-0.55182 0.62942,-0.83509 0.18097,-0.2833 0.33257,-0.57081 0.45423,-0.86144 0.0543,-0.14824 0.10083,-0.29711 0.13953,-0.44649 -16.97067,0 -19.67841,0.0677 -36.27841,0.0677 z"
         style="fill:#ff0000;fill-opacity:1;fill-rule:nonzero;stroke:#000000;stroke-width:2.64600015;stroke-linecap:round;stroke-linejoin:round;stroke-miterlimit:4;stroke-dasharray:none;stroke-dashoffset:0;stroke-opacity:1" />
    </g>
    <g
       transform="translate(-154.97024,-43.845473)"
       id="g968">
      <path
         style="fill:#ff0000;fill-opacity:0.67579908;fill-rule:nonzero;stroke:#000000;stroke-width:2.59874654;stroke-linecap:square;stroke-linejoin:round;stroke-miterlimit:4;stroke-dasharray:none;stroke-dashoffset:0;stroke-opacity:1"
         d="m 264.85818,167.58483 a 18.37068,8.8952778 0 0 1 -0.13953,0.44648 18.37068,8.8952778 0 0 1 -0.45423,0.86145 18.37068,8.8952778 0 0 1 -0.62942,0.83509 18.37068,8.8952778 0 0 1 -0.79892,0.80098 18.37068,8.8952778 0 0 1 -0.95963,0.75758 18.37068,8.8952778 0 0 1 -1.11156,0.70797 18.37068,8.8952778 0 0 1 -1.25161,0.6506 18.37068,8.8952778 0 0 1 -1.37976,0.58705 18.37068,8.8952778 0 0 1 -1.49345,0.51728 18.37068,8.8952778 0 0 1 -1.59266,0.44235 18.37068,8.8952778 0 0 1 -1.67639,0.36328 18.37068,8.8952778 0 0 1 -1.74252,0.28009 18.37068,8.8952778 0 0 1 -1.79163,0.19482 18.37068,8.8952778 0 0 1 -1.82314,0.10697 18.37068,8.8952778 0 0 1 -1.29915,0.0222 18.37068,8.8952778 0 0 1 -1.83451,-0.0444 18.37068,8.8952778 0 0 1 -1.81539,-0.13281 18.37068,8.8952778 0 0 1 -1.77922,-0.21962 18.37068,8.8952778 0 0 1 -1.72496,-0.30489 18.37068,8.8952778 0 0 1 -1.65365,-0.38706 18.37068,8.8952778 0 0 1 -1.56528,-0.46457 18.37068,8.8952778 0 0 1 -1.46193,-0.53795 18.37068,8.8952778 0 0 1 -1.34358,-0.60617 18.37068,8.8952778 0 0 1 -1.21181,-0.66817 18.37068,8.8952778 0 0 1 -1.06816,-0.72296 18.37068,8.8952778 0 0 1 -0.91363,-0.77153 18.37068,8.8952778 0 0 1 -0.75035,-0.81183 18.37068,8.8952778 0 0 1 -0.57877,-0.84336 18.37068,8.8952778 0 0 1 -0.40256,-0.86765 18.37068,8.8952778 0 0 1 -0.031,-0.12351 l -2.46497,0.38964 v 114.09276 h 41.19903 V 167.96465 Z"
         id="path964"
         inkscape:connector-curvature="0" />
      <path
         style="fill:#ff0000;fill-opacity:1;fill-rule:nonzero;stroke:#000000;stroke-width:2.64600015;stroke-linecap:round;stroke-linejoin:round;stroke-miterlimit:4;stroke-dasharray:none;stroke-dashoffset:0;stroke-opacity:1"
         d="m 228.57514,167.67619 c 0.01,0.0412 0.0201,0.0824 0.031,0.12351 0.10423,0.29228 0.23859,0.58186 0.40257,0.86765 0.16378,0.28561 0.35695,0.56708 0.57877,0.84336 0.222,0.2765 0.47243,0.54745 0.75034,0.81183 0.27779,0.26439 0.58272,0.52189 0.91364,0.77153 0.33095,0.24945 0.68744,0.49074 1.06815,0.72296 0.38068,0.23236 0.78513,0.45537 1.21182,0.66817 0.42671,0.21277 0.87513,0.41508 1.34358,0.60617 0.46849,0.191 0.95641,0.37054 1.46193,0.53795 0.50544,0.16739 1.02785,0.32244 1.56528,0.46457 0.53754,0.14229 1.08945,0.27147 1.65364,0.38705 0.56414,0.11549 1.13984,0.21725 1.72497,0.3049 0.58514,0.0875 1.17895,0.16082 1.77922,0.21962 0.60018,0.0589 1.20606,0.10322 1.81539,0.13281 0.60959,0.0296 1.22186,0.0444 1.83451,0.0444 0.43346,2e-5 0.86678,-0.007 1.29915,-0.0222 0.61102,-0.0209 1.21949,-0.0566 1.82314,-0.10697 0.60354,-0.0504 1.2015,-0.11546 1.79162,-0.19482 0.59013,-0.0792 1.17169,-0.17272 1.74253,-0.28009 0.57096,-0.10749 1.13045,-0.22873 1.67639,-0.36328 0.54578,-0.13451 1.07733,-0.28214 1.59266,-0.44236 0.51532,-0.16026 1.01375,-0.3329 1.49345,-0.51727 0.47985,-0.18442 0.94035,-0.38035 1.37976,-0.58705 0.43934,-0.20663 0.85707,-0.42377 1.25161,-0.65061 0.39466,-0.22686 0.76565,-0.46315 1.11156,-0.70796 0.34574,-0.24463 0.66602,-0.49747 0.95963,-0.75758 0.29373,-0.26038 0.56036,-0.52771 0.79892,-0.80099 0.23841,-0.27311 0.44848,-0.55182 0.62942,-0.83509 0.18097,-0.2833 0.33257,-0.57081 0.45423,-0.86144 0.0543,-0.14824 0.10083,-0.29711 0.13953,-0.44649 -16.97067,0 -19.67841,0.0677 -36.27841,0.0677 z"
         id="path966"
         inkscape:connector-curvature="0"
         sodipodi:nodetypes="ccccccccccccccccccccccccccccccccc" />
    </g>
  </g>
</svg>
