<svg xmlns="http://www.w3.org/2000/svg" xmlns:mapsvg="http://mapsvg.com" mapsvg:geoViewBox="-169.110266 83.600842 190.486279 -58.508473" viewBox="0 0 1009.7 666">
  <path d="M480 332h-1v-1h1v1zM633 389v2l-1 1v-1h-1v1h1-1v1h1-1 1v1h-1v1h-1v3h-5l-1-1h-2v-1h-1v-1h-1v-2 1h2l1-1h1l1 1h1l1-1h1v-1l1-1h1v-1l1-1 1-1h1-1v1h1zm0 1zm-5 3h-1l1-1v1zm-3 0h-1 1zm-2 0h-1 1zm3 0v1-1 1-1h-1 1zM685 351h-1v1h-6v1h-2v1h-1v2h1v2l-1 1-1 1v2h-3l1 1v2h-2v2h-1v2l-1 1v-1h-2v1h-1v1h-3v1h-1v4h-3v1h-9l-1-1h-2v-1l1-1 1-1v-2h-1l-1-1v-1h-1 1v-1l-1-1v-3h1v-1h-1v-2h1l-1-1h1v-2h1-1l1-1v-1 1h2v1h2v-1h1v-1h1v-1h2l1-1v-1l1-1v-1h2v-1h4v1h2l1 1h1v-1h1v-1 1h2v-1h2v-2h1v-1h2v1h1v2l-1 1v1h1v1l1-1h2v-1l1-1h2v1h1v-1h2v1zM302 415h-1v-1h1v1zm0-2h-1 1zM298 411zM531 331v1h1v1h1v1l-1 1v1l1 1v1h1v1h-1v2h-1v1h-1v-1l-1-1h-1v-1 1l1-1h-1v-1h1l-1-1 1-1h-1l1-1v-1h-1v-2h1v-1 1h1v-1zM605 345h-1v-1l-1-1h-1v-1 1-1h-2v-1h-2l-1-1h1-1v-1h1v-1h-1v-1h2v-1l1 1v-1h1v1h1-1 1l1 1h-1v1h1v1h1v1h-1l1 1h1v1l1 1h-1v1zm-4-8zm2 2zM512 476h-1l-1 1v2h-1v-3h1l1-1v1h1zm30 17v6h-5v11h1v1h1v1h1l1 1h-3l-1 1h-7l-1-1h-2v-1h-14v-1h-2l-1 1h-2v-5h1v-3l1-2v-1l1-1v-1l1-1h1v-1l1-1v-2l-1-1v-1l-1-1v-2l-1-1h1v-3l-1-2v-1l-1-1v-1h-1 2v-1h10v1h1v2l1 1h-1 1v1l1 1v1l1-1v1h1v-1h3v-1h1v-1l1-1h2v1h3v7l1 1v2h1-1v1h5v-1zM299 527h1v1h1v1l1 1h1v1h1l1 1h2l1 1 1 1h2v1h2v2l-1 1v2h-1v1l-1 1h3l1 1h3v-1h2v-1h1l1-1v-1l1-1v-1h2v5h-1l-1 1h-1v1h-2v1h-1 1v1h-1v-1 1h-1v2h-1v1h-1v1h-1v1h-1v1l-1 1h1v1h-1v5h-1l1 1v1h-1v5l2 1 1 1v3l1 1h1v2l-1 2-1 1h-1v1l-1 1-3 1-2 1h-7v1h1v1h-1 1v1h-1v4l-1 1h-4l-1-1h-2v4l1 1h1v1h1v-1h1v2l-1 1v-1l-1-1h-1v1h-1l2 1-1 1-1 1v3l-1 1v2h-3v1h-1l-1 1v1l-1 1v2h1l1 2h3v3h-1 1v1l-1 2h-2v1h-1v1l-1 1v3l-1 1h-1l-1-1h-1v1h2l-1 1h-1v3h-1 1v3h-1 1l1 2h1v1h-1l-1-1h-5l-2-1h-1l-1-1v-5h-2v1l-1-1v-4h-1v-1h2v-2h1v-2h1v-2h-1v-1h1v-1l1-1v-2h1v-1l-1-1v-1h1v-1h-1l1-1 1-1h-1v-1h-1v-1h2v-1l-2-1v-1h1v-1h-1 1v-1h-1v-1h1-1v-1h-1l1-1h-1v-1h1l-1-1h1l1-1h-1v-6h1-1v-1h1v-4h1v-1h1v-2l-1-1v-4l1-1 1-1v-4h1v-2h1v-4h-1v-3h-1v-1h1-1v-3h1-1l1-1v-1h1v-2l-1-1v-1h1v-2l1-1 1-1v-2h1l1-1v-1h-1v-1h1v-2l-1-1h1v-1l-1-1h1v-1h1l1-1h1v-1l1-1v-1l-1-1h1v-1h1v-1h1v-1l1 1h3l1 1v1h1v-2h4v1zm2 55zm-19 65v-10l1 1v1l1 1v1l1 1 1 1 1 1h1v1h1l1 1h2v1h-3v1h-1l-1-1h-5zm12-1h2v1h-3 1v-1zM1006 503h1-1zM522 307v1l1 1v2h-2 1v1h-1v2h-1v1h-3v1h-5l-1-1h-2v-1h-3v1h-1l-1-1h-1v1-1h-1v-2h2l-1 1h1v-1h3l1-1h3v1h1v-1h-1v-2h1v-1h1v-1 1-1h4v-1h2l1 1h1v-1l1 1zM841 495v-1 1h2v-1l1 1-1 1h-2v-1zm18 12l1 1v-1h-1zm7 3h1v-1h-1v1h-1 1zm8-19zm-16 4l1-1h-1v1zm-11-1v1-1zm11 1h-1v1l1-1zm1 12zm15-14zm-16 14zm1-4v-2h-1v2h1zm40 28h1-1v-1 1zm5 6h1v-3 1l-1 1v1zm1 5h1-1l1-1h-1v1zm0 1h1v-1l-1 1zm-8-16v-1 1zm-1-1v1-1zm-11-11h1-1zm-11-23v-1 1zm19 28zm0 1v-1 1zm-27-10h1-1zm17 68zm8 6l-1-1v2h1v-1zm0 2zm-9-7h1v-1h-1v1zm-1 7v-1 1zm-24-85v-1 1zm64 143v1-1zm-30-59h-1l1 1v-1 1l1-1h-1zm0 7v-5h-2v1l-1-1v1h-4v-1h-3v-1 3l1 1v1h1v1h-1 1v1l-1-1v1h1v2h1v1h1v1h2l1-1h-1 1v-2l1 1h1-1v1h1v-4h1v-1 1zm15-48v-1h-1v-6h-1v-2h-1v-2h-1v-1h-1v-1h-1l-1-1-1-1v-3h-1v1-1h-1v-1 1h-1v-1l-1-1v-2h-1v-1h-1v-1h1-1v-1h-2v-1h-1v-1h-2v-1h-1l-1-1h1l-1-1v-3l-1-1v-1h-1v-5h-1v-1h-1v-1h-2v1l-1-1v-4h-1v-3h-1v-2h-1v-1h-1v3h-1v3h-1v10h-1v2l-1 1v1h-3l-1-1h-1v-1h-1v-1h-2l-1-1-1-1h-1v-1h-2v-1h-1l-1-1v-1l1-1v-1h1l-1-1v-1h2v-1l1-1v-1h-1v-1l-1 1v1-1h-1v-1 1h-4l-1-1h-3v-1h-1l-1-1v1l-1-1v1h2v2h-4v1h-2v1h-1v2h-1v1l-1 1v1h1v2-1h-1v1h-1v-1h-2v1h-1v-1h1v-1h-1l-1-1v-1h-2l-1 1v-1l-1 1v-1 2h-1v-1h-1v1h-1v1h1v1l-1-1v1h-1 1v1-1h-1l-1 1v1h1-1v1h1-3l-1 1h1v1h1-1v2-1h-1v-1h-1v-2 1h-1v1h-1v3l-1 1v1h-1v1l-1 1-1 1h-1l-1 1h-3l-1 1h-2v1h-4l-2 1v1h-1l-1 1h-1v1l-1 1h-1v-2 1l-1 1v4l-1 1v2h1v1l1 2v2-1h-1v1-2h-1v1h1v2-1h-1v-1 1l1 2 1 1v3h1v1h1l-1 1h1v1l1 1-1 1 1 1v3l1 1 1 1v3h-1l1 2-1 1v1h-1v-1 3h1l1 1v1h4l1 1 1-1 2-1h1v-1h1l1-1h2l1-1h3l1 1h4v-1h1v-2h1v-1h1l1-1h1l1-1h5l1-1h2l1-1h8l1 1h1l2 1h1l1 1h1v1h-1l1 1h1v2h1v1h1v2h-1 1l1 1h1l-1-1h1v-1l1-1 1-1h1v-1l1-1v-1h1v-1 4h-1v3l-1 1h-1v1h2l1-2v-2l1 1v1h1v1l-1 1v1h2l1-1v1h-1v1h1v1h1v4l1 1 1 1 1 1h1l1 1h3l1 1h1l1 1v-1h1v-1h2v-1h-1 1l1-1v2h-1l1 1v-1h1v1h1v1h1l1 1v-1h-1v-1h2l2-2 1-1h5v-1h1v-6h1v-2h1v-3h1v-2h1l-1-1h1v-1h1v-1h1v-1h1v-2h1v-4l1-2v-3h1v-3zm-66-49h1v-1h-1v1zm-48 42v-1 1h1-1zm7-16zm25-16h1-1zm2-2zm62 92v1h1l-1-1zm0 1v1-1zm3-2h-1 1zm-29-25h-1v-1h-1v1h-2l1 1h2v-1h2-1zm17 14v-1 2-1zm-57-86zM279 428h-1v-1l1 1zM531 250h1v1h-1v1h-1v-2 1h1v-1h-1 1zm-1 1zm3 1h-1 1z"/>
  <path d="M611 334l1 1 1 1v1l1 1v1h2v1h-2v2h-1v3-1h-1v3h-1v-1h-1v-3h1-1v-1h-1l-1 1h-1v1h-1v1h-1v-1h1l-1-1v-1h-1l-1-1h1v-1h-1v-1h-1v-1h1l-1-1h-1 1-1v-1h2l1 1h2v-1h-1v-2h1l1 1v1h1l1 1v-1h1v-1h1v-1zm-8 5zm-2-2zm3 8h-1l-1-1v-1h-1v-1h1v1h1l1 1v1zM522 321h3v1-1h1l1 1h2v3l1 1h-1l1 1-1 1v-1 1h-1v1-1 1h-1v2h-1l-1-1h-1v-1h-1v-1l-1-1-1-1v-1h-1v-1l-1-1v-2h1v1h1v-1h1zM308 426l-1-1h1v1zM735 400v2h-1v2-1l-1-1v-3h-1v-2l-1 1h-1l-1-1v-2 1h-1 1v3l-1 1v1-1h-1v-1 1l-1 1v-2 2h-1v-3h-1v-3h-1l1-1v-1h-1v-1l-1 1v-2h1v-1h2-1v-1h-1v-1h-1l1-1v-1h1v1h1-1 1v-1 2h1v-1h1v3h6l1 1v1h-1v1h-1v1h-1v3-1h1v1-1h1v-1h1v3h1v2zm-6-3zm1 3h-1v-3 1h1v2zm2-1h-1l1-1v1zm-1 0l-1 1 1-2v1zm2 2v-1 1zm0 0zM488 295h1l1 1h1v2h1v1h1v1h-1v1h-1v2h-1l-1-1h-1v-1h1-2v-1h-2v-1h-1v-1h-2v-2h1l1-1v1h2l1-1h1zM476 421h-1v1h1v2h1v1h1v1l1 1h2v2l1 1h-1l-1 1h-2v1h-11v5-1h-1v-1h-2l-1 1h-1l-1-1v-1h-2l1-1v-1h-1 1v-3h2v-2h1v-2h1l1 1h1v-2 1h1v-2h2v-1h2l1-1 1-1h1v1-1l1 1zM555 327v1h-1v1h-1v2l-1 1h1v1l1 1h-2v-1h-1l-1 1h-1v1l-1-1v2h-4v-1h-2v1h-3v-3h-1v-3h1v-2h-1v-3h1l1 1h-1v1l1-1h1l1 1h5l1-1h1l1-1h1l1 1h1l1 1h1zM617 388l-1-1h1v1zM561 470h-1v1h1v2h-1v1l-1 1h-2v-4h-1v-1h1v1h1l1-1v-1 1h1v-1 1h1z"/>
  <path d="M485 430v3h1v1h-1v1h-1v2h-1v2h-1l1 1h-1v1h1v3l-1 1h-2l-1 1v-1h1-1v-10h-1v-1h-1v-2h1v-1h2l1-1h1v-2h1l1 1v1h1zM299 412h-1 1zM798 449h-1v3h-1v-1l-1-1h2v-1h1zm0 0v1l1 1h-1v-2zM312 520v-1h-1l-1-1h-7l-1 1h-1v2l-1 1v3l-1 1v1-1h-4v2h-1v-1l-1-1h-3v-1h-1v1h-1v1h-1v1h-1l-1 1v-1h-1v-3l-1-1h1l-1-1h-1v-1h1l-1-1v-2l1-1h-1v-1h-1v-3h-1v-2h-1l1-1 1-1v-1h1-1l-1-2v-1h1l-1-1v-1h1v-1h1l-1-1v-3h1v-2h-1v-2h-1v-1h3l1-1h1v-1h2l1-1h1v-1h3v2h-1v1h1v1h-1v1h1v2h2v1h3v1h1v-1 1h1v1h2v1h3l1 1v2h1v1h-1v1l1 1v2h5v3h1v1h1v1l1 1h-1v2l-1 1v1l1 1h-1zM293 368v-1zM283 429v-1 1zm15-16zm-1 0z"/>
  <path d="M316 458h2v-1h-1v-1h5v1h2v-1 1h1v-1 1h2v-1l1-1v-1h1v-2h1v-1h1l1 2v3h1v2h2v2h-1v1h-1v1h-1v1h-1v1h-1v2h-1v1h-2 3l1-1h1v1l1 1v1l1-1h2v2-1l1-1 1-1h1v-2h5v1h2l1 1h1v1-1h1v1h1v1h-1l1 1v-1 2l-1 1h1v-1l1-1v1-1h4l1 1h8v1h1l1 1h1v1l1 1h1v1h1l1 1h4l1 1v2l1 1v5l-1 2v1l-1 1h-1v1l-1 1-1 1h-1v1l-1 1v-1 2l-1 1-1 1v1h-1l-1-1v2l-1 1v2l1-1-1 2v2l1 1v2l-1 1v4h-1v1l-1 1v3l-1 1v2h-1l-1 1v3h-1l-1 1-1 1v1h-3v-1 1h-3 1-2v1h-1l-1 1h-2l-2 1-1 1-2 1v1h-1v1h-2l1 1-1 1h1l-1 1v2h1v1l-1 1v3l-1 1-1 1-1 1-1 1v2l-1 2h-1v1l-1 1h-1v1h-1v1-1h1v-1h1v-2h1v-1h1v-2l-1 1-1-1v2l-1 1v1h-1v1l-1 1 1 1h-1v2l-1 1-1 1-1 1v-3h1v-1h-2v-2h-1l-1-1-1-1h-1v-1h-1v-1 1h-1v-1h-1v-1l-1-1h-1l-1 1h-1v-1h1v-1h1v-1h1v-1l1-1v-1h1v-1 1h1v-1h-1 1v-1h2v-1h1v-1h2v-5h-2v-3l1-1h-1v-1h1-1v-1h-1v1h-2v-4l-1-1h-1v-1h-1v1h-1v-1h-3v-2l1-1h-1v-3h1l-1-1v-1l1-1v-2h1l-1-1v-1h-1v-1h-1v-3h-5v-2l-1-1v-1h1v-1h-1v-2l-1-1h-3v-1h-2v-1h-1v-1 1h-1v-1h-3v-1h-1l-1-1v-1h-1v-1h1v-1h-1v-1h1v-2h-3v1h-1l-1 1h-2v1h-1l-1 1h-6v-5 1h-1l-1 1h-3v-1l-1-1h-2 1v-1l-1-1v-1h-1v-2h-1 1v-2h1v-1h1v-1h-1l1-1v-2h2v-1h1v-1h4v-1 1h2v-5l1-1v-5h-1l-1-1v-2h3v-1h-2v-2h5-1v-1h1v1h1v-1h1v1h1v2h1v1h2v-1h1v1-1h2v-1h2v-2h2v-1h-2v-3l-1-1h-1v-1h2v1h3v1h1v-1l1-1h3v-1h1l1-1v-1h-1 2v1h1-1v1h1v1l1 1h-1v6h1v1h2v1-1h1v-1 1h1v-1h2v-1h1v1h1zm18 0h-1v-1h1v1zm0 4v-1 1zm-1 1v-2h1v1l-1 1zm2-1v1h-1v-1h1zm1 1h-1 1zm-3 0l-1 1v-1h1zm3 1v-1h1l1 1h1v1l-1 1v1h-2v1h-3v-1l-1-1h1-1v-1h1v-2h1l2 1zm-7 3l1-1v-1l1-1v2h-1v1h-1zm20 0v-1 1zm1 4zm16 29v-1h1l-1 1zm0 1h-1 1zm-15 28v1l-1-1h1zm-3 3h-1l1-1v1zm-9 7h-1 1zm0 5v-2 2zM258 388v-2l-1-1h-1 2v1h1v1h-1v1zm-3-2h1v-1 1h-3 1v-1l1 1zm5 3v1h1v2-2h-2v-1h1zm-3 3v1h-1v-1l-1 1v-2h1l-1-1h1v2h1zm1-1h-1 1zm6 2h-1v1-2h-1 1v1h1zm-7 0v1-1 2-1h-1v-1h1zm9 1zm-3 2h-1v-1h-1 1l1 1zm2 1h-1v-2 2h1zm2 1h-1v-1l1 1zm0 1h-1 1v-1h1l-1 1zm3 0h1-1zm0 2v1-1zm0 1v1h-2l1-1v1l1-1zM732 382v1h1v2h-5l-1 1h-1v-1h-2v-1l1-1v-1h1v-1h4v1h1v-1l1 1zM485 645h-1 1zM546 513v2h1v1l1 1v1l1 1 1 1h1v1h2v3h1v1h2v1h1l-1 1h-1v1h-1l-1 1v1h-2v1l-1 2h-1v1h-1l-1 1v2h-5l-1-1h-2v2h-1v1h-1v1h-1v1h-3v-5h-1v-1l-1-1v-8h3v-11h3l1-1h2l1 1h1v-1h2l1-1h1zM554 273h2v1-1h1v2h1v-1h2l1 1h1v1l-1 1h1v1l-1 1 1 1v1h1v1h1v2h2v1l1 1h-1v1h-3v2l1 1v2h-2l-1 1v3h-1v-1h-3v-1h-1v1h-1v-1h-2v1-1h-2v-1h-8v1h-2v1-3l-1-1v-1h1l1-1v-3l-1-1v-2h2v1l1-1 1-1h2-1 1v-3l1-1h2v-1h-1v-1l1-1 1-1h2v-1h1zM227 410v1h1v1h-1v4l-1 1-1 1h-1v-1l1-1v-4h1v-1l1-1zm1 2v-1 1zm0 2v-1h1-1v1zM280 14l2 1h1l1 1h4v2l-1 1-4 3 1 1 1-1h1l1-1h1l1-2 1-1 1 1h1v-2h1v2l1 1 1-1h2v1l-1 1v1h1l1 2v1l-1 2 3-2 2 1v1h1v3l-1 2-1 2-1 1-1 1-3 3-1 1-1 1h-2l-1 1v1l-1 1h-2v1h-1v1l-5 4 1 1v-1l7-4h3v1l-2 3-2 3-1 1-3 4-3 3-1 1-1 3v1h-2l-1-1v-2h-1l1 1 1 4-3 1-1 1h-1v1h1l2-1 1 1-1 1-1 2v2l-2 1h-1l-3-2h-1l-1-1h-1l-1 1h1l1 1h2v4h-2v1h-6v-1h-2 1l1 1v2h1l1 1 1 1 1-1h1v3h-3v-1h-4l-1 1h-2l-1-1-1 1h1l1 1h1l2-1h1l1 1h1v1h1l1 1 1 1h1v2l-1 1-2 1-1-1-1 1h-1 1l2 1 1 1-1 2-1 3h-1l-1 1h-1l-1-1h-2v7h-1v1h-1l-1 1h-4l-1-1-1-1-1-1v1l1 1-1 1h-1v1h1l1-1h1v1l2 1 1-1h1v3h1v1h1l1-1 1 1v3l-1 1-2 1v1l-1 1-1 1h-1l-2 1v-4h-3v-2h-1l-1-1 1 1v2l-3 1-2-1v-2l-1 4h-4l-1-1v-2h-1v2h-1l-1-1-1-1v2h-2v-4l-1 1v3-1h-2v-4l2-2v-1l1-1h4v-1l-1-1v-1h-1v-2l-1-1v-2l1-1v-1h2v1h1l1 1 1 2v1l1 1 1 1h3l1-1 1-1v-1l1-2 1-1v-2l-2 4v1l-1 1h-4v-3l-1-2 1-1v-1l1-2h2-1v-1h-1v-4l-1 3v2l-1 1-2 1v-2l1-2-1 1-1 1v1h-2l-1-1v-3l1-1v-1l1-1v-2l2-1h1l2-1h1l2 1h1l1 1 1-1h2l1-1v-1l-1 1h-2l-2-1h-2v-2h1l1 1v-1l-1-1v-1l-1-1v-1l-1-2-1-2-1-1h-2v-1l-1-1v-7l1-1 3 1h4l1 2 1 1 1 1 1 2 1 2v1h1v1h1l1 1 1-1h1v-1h-2l-1-1-1-2-1-1-1-2-1-2-1-1v-1l1-1 5-1 2-2 1-1v-1l4-2 2-1h2v-1h-5v-3l1-1v-1l2-3 2-1v-1l-3 2-1 2-1 1-1 1-1 1v3h-1v1l-1 1-2 2-1 1h-1l-2 1h-2l1-1 1-2v-1h-1v1h-2l-1 1-1 1v1h-1l-2 1h-1l-1-1h-1l-1-1v-2l1-1 2-2 1-2 1-1 4-1h-4l-3 2-1 1-2 4-1 1h-2l-1-1-1-1h-1v-2h-1l1-1 2-1h5l2-2 2-2 1-1h-2l-1 1-2 2-2 1h-5l-1 1h-1v-1l-1-1v-1l2-1h1l-2-1v-1l1-1 1-2h4v-1h-4l-4 3v-1l2-3v-1h-3l-1 1v1l-1-1v-3l1-1h1l1-1 1-1h2l1-1v-1l1-1 2-1h1l1 1v1l1 1v-1l1-1 1 1 1 1h2v-1l-1-1-3-3 1-1 1-1 1-1 1-1 1-1 1 1 2 1 1 3 1 1 1 1v1h1v-1l-1-1v-2l1 1 2 2 3 2 1 1h1v1l1 1-1-1-1-2-4-4-1-2-1-1v-1l-1-1h1l1-1h1v-1l-1-1h-1v-1h2l1 1h1l-1-3v-1h2l1 1 3 1h1l-1-1-2-1v-1l-1-1v-1l1-1h2l2 1h2l1 1 2 4 1 1v2h1v-1l1-1-2-2v-1l-1-1-1-2v-2l-1-1h8l1 1v2l1 1 1 2 2 1v-1l-2-2v-3l2-2 2-1 1 3 1 1 1 1-1-2h-1v-1l1-1 1-1h3v1l1 1zm-63 39v1l2 4v1l1 2h1v2h1l1 1v-1h1v1h1v5l1 1h1v-1l-1-1v-3h2l1 1v3l-1 1v1h2v1l1 1v2l-1 3v1h1l1-1h1v1l1 1v-2h1v2l1 2v3l-3 1-1 1v1h-1v2h-1l-1 2h-1v-5 1l-1 1v4h1v2h-1l-1-2v6h-1l-1-2-1-1v-2l-1-1v2l1 2v1l1 1v1l-1-1v-1h-1v-1h-1l-1 1h1v2h-1l-2-1h-1l-1-2-1-1h-1v-1h2l1-1-2-1h-2l-1-1v-1h1v-1h-2v-3l2-1 1-1h1v-2h2l2-1h-3l-1-1h-1l-1 1h-1l-1 1v-1h-1l-1 1h-1l-1-1h-1v-2l1-1 3-1v-2l-1 1h-1l-1 1h-1v-1h-1l-1-2v-3l-1-2 3 1h3v-1l1-1h-1l-1 1h-1l-1-2v1h-1v-1l-1-1 1-1h2l-1-2-1-1v-2l1-1 1 1h1l1 2h2v-1h-2v-2l-1-1-1-1 1-3v-1l2 1v-1l2-1 1 1v-3h-2l-1-1v-1h4l2 1v1l1 1v1zm-19 20v3h-1v1l-1-1v-2h-2v-3l1-1h2v1l1 1v1zm-13 10l1 1 1 2v3-1l1-1 1-1 2 2v3h1l1-1 1 2 1 1v5l2 2v4h-4v-1h-1v-3l-1-1-2-1h-3v-1h1-3l-1 1h-1l-1-1v-1l-1-1v-1h2l2 1v-2h-1l1-1 1-1h-3l1-1v-2h-1l-1 2h-1l1-1v-2h-2v-4h2l2-1h1l1 1zm20 11l1 1h1l1 1h1v1h-1v1l-1 1h1v3h-1l-1 1h-2v1h-2l1-1h-1l-1-1v-2h2l-1-1h-2v-3h-1v-1l1-1-1-2v-2h1l1 1h1l1 1h1l1 1v1zm-38-1v1h1v3l-1 1-1-1-1 1-1-1h-1v-1 1l-1 1h-1l-1-1h-1l-1 1h-1v-2l1-1h1l1-1h1l1-1 1-1 1-1h1l1 1 1 1zm19 7h-1v-1l1-1v2zm-21 0l2 1v1l-1 1-2 1v1h2v3h-1l-1 1h-1l-2 1h-1l-1-1h-1v-1h-1v-5h1l2-1 3-1h1v-1h1zm-10 5h-2l-1-2v-1h1v-1h1v1h1v1h1v2h-1zm34 1h-1v-1h-1v-2h3l1 1v1h-1l-1 1zm18-1h6v1h1l-1 1-1 2h-6l-1-1v-2l1-1h1zm-26 8h-1v-1l-1-1v-1l-1-1v-2l-1-2h2v1l1 2v1h1v1l1 1v2h-1zm42-2l-1 1-2-1-1-1v-4h1l1 1h1l1 1v3zm-72-1v1h-1l-1 1-1 1h1v1l1 1v1h-1v3l-1 1h-1l-1 1v3h-1l-1-1v-6 1h-1v2h-1v1h-1l1 1v1h-1v2h-1v-2h-1v5h-1l-1 1v-2l-1-1v-1l-1 1v1h-1l-1-1-1 1h-1v-2h-1v-1l1-1v-1h3v-1l1-2 2-2v-1h1l1-2 1-2 1-1v-1h3l1 1h1v-1h1l-1-1 1-1h2v1l2 1zm59 6h2l1 1v4h-1 1l1-2 1 1 1-1h3l1 1h1v1h-3 1l1 1 4 1 1 1h-1v1h-4l-1-1h-1l1 1h1v1h2v1h1v2l1-1v1h1v1h-1v1h-1v1h1l1 1h1v-1l-1-1h1l1 1h2v1l1-2 1 2h2l1 1v-1l-1-1h2l1-1h1l2-2h1l1 1h1l1-1h3l1 1v1h2l1 1v1h1l1 1v1l-1 1-1 1h-1v1h3v1l-1 1-1-1h-1l1 1v2l-3 1h-1l-1 1v-1h-3v-3h-1v-1h-1l1 1v2h-1v1h-3l-1-1v1h-1v-1 1h-4 1-2l-1 1-1-1h-2v-1h1v-2h-1v1h-1v-1 2h-1v1h-2l-1-1-1-1v-1l-1 1v1-1l-1 1v-1h-1v-1l-1-2v-1h1-1v-2l-1-1 1-1v-2h1l-1-1v-2l-1-1v-2l-1-1v-1l-1-1-1 1v1l-2-1h-1l-1 1-1-2h-1v-1h-1l1-1-2-2h-1v-1l1 1v-2h-1v-1h1l1-1h3l1 1 1 1zm-54 2h-3v-1l1-1h2v2zm67 3h-1l-1-1v-3h2v4zm-52 5h1l1 1h-1v2l1-1h1v1h1v1-3l1-1 2 1 1 1v3l-1 1v4h-1v1l-1 1-1 1h-1l-1-1h-2v1l-1-1v-1h-1v1l-1 1-2 1h-1l-1 1v1h-1l-2 1-2 1h-3l-1-1-1-1v-1l1-1 2-1 1-1h3l1-1h1v-2l-1 1h-4v1h-3v-2l1-1v-1l-1 1v-1 2h-1v2l-1 1h-1v-1h-1l-1 1-1-1-1-1h-3v-3h4v-1l2-1 1-1-3 1h-3v-1h1v-1h4l1-1h-4l-1-1h1v-2l1-1 1 1h3l-1-1h-2v-2h1l1-1h2l1 1v2h4l1 2 1 1v1h-1v1h2v1l1 1v1h6v-2l-2-2 1-2v-1l-1-1h-1v-1h-1v-1l1-1h1l1-3v-1h1l1 1v4h1v4zm20-6h-1v-1h1l1-1h1l-1 1-1 1zm10 1v8h-1v1h2v3h-1v-1l-1 1v2l1 1v1h-1v-1 2h-4v-1l-1 1h-2v-2l1-1h-1v-1h-1v-1h1l1-1 1-1h1l1-1h-3l-2 1h-2l-3 1-1-1h1v-1l1-1v-1h1l1 1 1 1v-1h1-1l-1-1v-1h-1v-2l1-1h-1l-1-1 1-1v-1h1v1l1 1v1h1l2 3 1 1v-1l-1-1v-1h2-1l-1-1h-1l1-1-2-1v-1l1-1v-1h2l1 2h1v-2l1-1v1l1 1h1v1h1zm-18-1h1l1 1h1v1h-1v1h-3v-2l-1-1 1-1h1v1zm5 7h1v1h-2v1h-2l1-1-1-1-1 1-1-1 1-1h-2v-1l1-1h1l2-1h1v3l1 1zm65 1l-1 1h-1v-1l1-1 1-1v-1h1l-1 1v2zm-110 4h-2l-1-1v-1l1-1 1-1 1-1 1-1v-1h1v3l-1 1-1 2v1zm67-2h-1v-3h1v3zm-75 0v-2l1-1v2h-1v1zm70 2v1-1h-1v2h-1v-2l1-1h1l1 1h-1zm7 6h1v2l-1 1v1h-3l-1-1-1-1h-1l-1-1v-1 1-1h-1v-2h1v-2l1-1v-1l2-1h2v1l1 1 1 1v4zm-29 0h-1l-1-1v-3l1-1h1v1h1v3l-1 1zm24 5h-1v-1h1v1h1-1zm-5 0l-1 1v-2h1v1zm-63 4l1-1v1h1v1l1-2h3l1 1h1v1l2 3 1 1h1v2l-2 1-1 1-2 1-1 1-1 1-3 2v1l-1 2-1 1-1 1-1 2v4h-1v1h-3l-1 1-1 1h-1v1h-1v-1l-1-2v-1l-1-1-2-2-1-1h-2v-3h1v-2h1v-3l1-1v-3l1-2 1-1v-3l-1-1-1-3v-1l3-1h3l2-1h2l1 1 1 1 1 1h1v1zm74 0h2v1l1 1 1-1h2l2 1v3l-1 1-1 1v2h-1v2l-1 1v1l-1 1-3-1h-1l-2 1h2v3l-1 1v3l-1-1h-1l-1 1v-5l-1-3v-5l-1-2v-1h1v-1l1 1h1v-1l-1-1v-2h1l1-1h3zm-14 3h-3v-1h1v-1h1l2-1h1v1l-1 1-1 1zm-5-1l3 2h1l1-1h3v1h1v1h-1v1h-1v1h1v1h-1l-1 1-1 1v2-1h2l1 1v3h1v-1h1v4h-1 1v1l-1 1 1 1v1l-1 1h-1v1h-3v-2 4l-1 1-1-1h-1v-1l-1-1v-1l-1-2h-1v-2h-2v-1h-2v-2l-1-1-1-1v-3h2v1h1v2h2l1-1v-1h1v-2h-1v-1h2-1v-1h-1l-1 1-2-2v-1h1v-1h1v1l1 1v-1h-1v-1l-1-1h1v-1h2v1-2zm38 27v1l1-1 1-1h2v1h1v-5h-1l-1-1v-1l-1-1v-1h1v-1h2l1 1-1-1v-2h-2v-5h1l2 1-2-2h-1v-1l1-2h1l1-1h2l-1-1h1l1-1h1v-1h4v1h1v4h1v1h1v3h1v1h-1l-1 1v2l-1 1 1-2h1v1l-1 1v3l1-2h2l-1-1v-1h1v1h1v-1h1v3l1 1v1-5 1h2l1 1v-1h-1l-1-1v-2l1-1h4v1h2l2 1v3l-1 1v1l-1 1v1-1l1-1 1-1h2l1 1v1h-1l-1 1h-1l1 1v3h-1v1l1-1v-2l1-1 1-1h1v1l-1 2v-1h1v-1 1h1v2h1l-1-1v-1h1v-1h3v1h1l1 1v2l-1 1h-1l-1 1-1 1h1v-1l1-1h1l1 1 1-1h1v2h-1v1l-1 1h-1v1h-1v1h1v-2h1v1l-1 3h1v-1l1-2v-1l1-1v-1h4v1h1l1 1v1l-1 1h-1l-1 1h-1l-1 1v1h1v-1h1l1-1h1v1l-1 1h1l1-1v-1l1-1v1h1l1 2v2h-3v1h-2v1l1-1h1l1 1h2l1 1h1v2h-2v-1 1h-1v-1h-3l-1 1h4v2l-1 1v-1h-4l2 1h2v2l1-1 1 1h2l-1 1v2h1v-1l1-1v3l-1 1h1v-1l1-1v1h1v2-2h1v-1h1v1h-1v1h2l1 1 1 1h-1v1h-2l1 1h2v-1h1l1 1v1h-1v1l-1 1h1l1-1h1l1 1 1-1 1 1 1 1v1h-1v-1h-1v1h1v1l-1 1h-1v-1h-1l1 1h-1l1 1h1v1h-2 1v1l-1 1h-2v-1 1h-1 1v5h-1v-1h-2v-2h1-1v2h-1v-2h-1v-2h-1v-1h1v-1h1v-1l1-1h-1v1h-1v1h-2v-1l1-1-1 1h-1v-1h-1v-2h-2v2l-1-1-1-1v1h1v2h1v1h-2v-1l-1-1-1 1h1l1 1h-1l1 1v2l1-1 1 1 1 1h-1v1h1v2l1 1v-1h1v1h1v-1 1h1v1-1l1 1-1 1h1v1h-1l1 1v1h1v1h1v4h-1v-3h-1v3l1 1v1h-1v2-1h-1v-1h-1v-1h-1v1-1h-1v-1 1l-1-1v-1l-1 1v-1l-1-1v-1h-1 1v2l-2-2h-2l1 1v1h1v1h1v1h1l1 1 1 1 1 1v1h1v1h1v1h-1l1 1h-2l-1-1h-1l-3-1h-1l-1-1-1-1v-1h-3v-1h-1l-1-1h1-2v-1l-1-1h1v-1h1-1v-1h-2v-1h-1v-1l-1-1v-1h-1v-2h-1v1-1h-1v1-1h-1v-1h-1v2h-3v1h-2v1h-1v-1h-2l-1-1v-1h-1v-1h1v-2h2v-2h2l1 1h1l1 1v2-2l-1-1h2v-1h2l1-1h1v-2h-1l-1-1v-2l1-1 1-1h1v-1h1v-1l1-1v-1h1v-2l-1-2v-1l-1-1v-1l-1-1v-1h-1v-3h-1v1h-1l-1-1v-3 1h-1v1l-1-1v1h-1l-1 1h-1v-2l1-1v1h1v-1h1v-1h-1v-1h-1l-1-1v-1h1l-1-1v1h-2 1v-2h-2v-3h-2v-1h-1v-1h-1v-1h-1v2h1l1 1v2h-1l-1 1h-1l-1-1h-1l-1-1h-2v1h1l1 1v1l-2-2-1 1h-2l-1-1h-5v-1h-2l-1 1-1-1v-1h-1v-2 1h-1l-1-1v1h1-2v1h-1l-1-1v-1h-1l-1-2-1-1v-2h2l1 1h3v-1h-1v-1h-1l-2-1h-1l-1-1h-1v-2l-1-1v-2l1-1v-5l1-1v-4h1v-1l1-1v-1l1-1 1-1 1-1 2-1h5v2l-1 1-1 1v1l-1 1-1 3v4h1v7l1 1 1 1 1 1v1l-1 1h-1l-1 1h-1zm20-24h4l2 1v1l1 1 1 1v1h1v3h-2l-3-1h-1l-1 1h-1l-1 1-1-1-1-1v-3h-1l-1-1v-4h3l1 1zm-73 7v-1l-1-1-1-1v-1l-1-1h-1v-2l1-1h4l1 1v5h-1v2h-1zm-26 3h2l1-1v1-2h1v-2h1l1 1h1l2 2h1l-1 1v2h-1v1l1-1 1-1v1l1-1 1-1h1v-1l-1-1-1-1v-1h2l1 1 1 1 1 1v1h1v4l1 3v1l1 1 1-1 1-1-1-2v-1l-1-1v-3l-1-5v-1h1v-1h1v1h3l1 2h1v1l1 1v2l1 1v1l1 4v1l1 1v4l-1 1v1h1l1 1v2l1 1h1l1 1v-2l1 2h1l1 2h1v1h1l1 1v2h-1v1-1h-1v-1 1h-1l-1-1-1 1v2l-1-1h-1v-1 2h1v2h-1 1v-1l1-1h2v1h-1v1h1v2h-1l-1 1h-4l-1-1v1h-2v-2h-3v-1h-1v-2l-1 1v1l-1 1v1h-3l-1 1-1 1h-1l-2 1h-3l-1 1h-5v-1l-1-1v-4h-6v-1h-2v-1l-1-1v-1l-1-1v-2l2-1h3l2-1h1l1 1h6l1-1h-1l-1-1-3-1v-1h-3l-1 1h-8l-2-3v-1l1-1h2l1-1h1l1-1h1-1v-1h2-1l-3 1h-4v-1h1v-1h-2l-1-1v-2l1-2h1v-2h-1v-1h1v-1l2-2 1-1h1l1-1 3-2 2-1h1v1h1v4h-1v2h-1zm50-3l-1-1v-1h1v-1 1h1v2h-1zm62 163h-1l-1 1-1 1h-1v1h-2v1-1h-2v1l1-1h1l-1 1h1v-1 1h-6v1h-1v1h-1v1h2v1h-3v1h-1 1-4v1h-1v1-1 1h-2v1-1l-1 1v-2h1v-1l1-1v-1h1v-1h1v-4h1v-2h-1v-1h1v1h1l-1 1h2v1h1v-1h1v-1 1-1h-1v-2 1-1h-1v-1 1-1h-1v-1h-2v-1 1h-1v-1h-6v-1h-1v-2h-1v-2l-1-1h1v-1h-3l-1-1v-2h-1v-1h-1v1-1h-4 1v1h-1v1h-1l1-1v-1h-1v2h-1 1v-1l-1 1h-1 1-1v2h-2v-1h-3l-1 1v-1h-1v-1h-1v1l-1-1-1-1h-1l-1 1v-1h-3v-3h-1v2h-78v-1 1h-1v-2h1-1v-1 1h-1l-1-1v-1 1h1-1v-3 2h-1l-1-1-1-1v-3 2h-1v-1l-1 1h-2l1-1h1-2v-1 1-1h-3v-1h-1l1-1v-1h2-2v1h-1v-4h3v1-1h-1v-2h1l-1-1v1l-1 2h-1v2h-1v-1l1-1-1-1h1-1v1-3h1-1v1l-1-1v-1l-1-1h-1v-1h1v-1 1l1 1h2-1v-1l-1 1v-3l-1 1-1 1v1l-1 1v-1l-1-1h-1v-1l1-1v-1h1-2v-2l1-1v-2h1v-2 2h-1v1-5h-1v-1h-1l-1-1h-1v-1h-1v-1h-1v-1h-1l1-1-1-1-1-1v-2h-1v-1l-1-1h1l-1-1-1-1-1-1v-1h-1v-1h-1v-2h-1v-1l-1 1h-2l1 1h-1v2h-2v1h-1v-2h-1v-1h-1v-1h-1v-1l-1-1h-1v-1h1v-1h-2l-1 1h-1v-1 1h-1l-1-1v-62h3l2 1 2 1 1 1v1h1l2 1 1 1h3l1 1v-1h-1v-1h-1 1v-1h-1l1-2v1l1-1v-1h3-1v-1h1v-1 1h1v2l-1 1h1l1-1h1v-1h1v-1h1v-1h2l1-1h1v-2h3l1-1v2l-2 2h-1v1h-2l-1 1h-1v1l-1 1h-1v1l-1 1v1h-1l1 1v-1h2-1v-2h1l1-1h1v-2h1v1l1-1v2l1-1v-1l1-1 1-1 1-1h2v-1 1h-1v1h1l1-1 1-1v-1l1-1h1l-1-1h-1v-1l1-1v1l1 1h1v1l1 1v3h1l1 2 1 1h2v-1l-1-1v-1l1-1v-1h1-1l1-1h1v3h1v1l-1 1v1h2l1-1v-2l1-1h2l1 1h1l1 1h1l1 2h2l2 1h1v1h1v1h3v1h3v-1h2v1h1l1 1 1 1 1 1v2h-2l-1 1v1h-1l1 1h2v1h6l1-1h3l1-1h1l1 1v1h2v2h1v-2 1l1 1 1 1v1l-1 1v-1h-1 1v2h1v1h1v1l1 1-1-1v-3h1v1-2l-1-1v-2h-1v-3h1l-1-1h3v-1h1v-1h1v-1h1v-1h-1l-1 1v1h-3v1h-2l-1-1 1-2h1l1-1 2-1h3l1 1v2l1 1v1h1v1h4l1 1v1h2v1-1h1l1 1 1-1h5l1 1 1-1h1l-1-1v-1l1 1 1 1v1h2v-2h-3v-1h-1 1v-1h-1v-1h2v-1h2v1l1 1h1v-1 1l-1 1h1v-1h2-1v4l-1 1 1 1v1h1v1l1-1v2h-2l-1-1v1l2 2v1-1l-1-1v-1h2v-1l1-1-1-1v-2h-1v-1l1-2h2l1-1v-1h1v-1l1-1h1-1v-3h-1v2h-2v-1h1v-1l1-1h-1v-2h2v1l1-1h-1v-1h-2v-1h-3v-1h-1v-1h-1v-1l-1-1v-2l1-1v-1h1v-1l-1 1-1-1v-5h1v-1h1v1h1v-2h-1v-1l1-1 1-1 1-1h1v2h2v2h1l1 2v4h1v1h1v2l1 1h-1 1v1-1l1 1v1h-1l-1-1-1 1h2v1l-1 1-1 1-1 1h1v-1l1 1 1 1 1-1h1l-1 1h3l-1 1v1h-1v-1 1l1 1 1 1v5h1v1-1l1-1v-4l1-1v-1h1l1 1 1 1v1h1v5l-1-1v4l1 1 1 2v1h1v1l1-1v-1h1v-3h1l1-2v-5h3l-1-1v-1h1v-1h-1l-1-1v-5h3l1 1h4l1 1-1 1 1 1v1h3v1l-1 1h-1v1h2v2h-1v1h-3v1h1v2-1h1v1h-1v1h1v1l1 1v1h1v1l-1 2v1h-1l-1 1v1l-1 1h-1l-1 1h-1v-1l-1-1-1-1v-1h-2v1l1-1v1l1 1h1v2l1 1h-2v1l-1-1h-1v-1h-1v-1h-4l1 1h-1 1v1h1l1 1v1h-1l-1 2-1 1v1h-3l-1-1h-1v-1h-1l-1-1h-1v-1h-1l1 1h-1l-1-1h-3l1 1 1-1 1 1h2v1l1 2h1l2 1h4v1l-1 1v1l-2 3v1l-1 1h-2v-1 1h-2v-1h-1v1h1v1l-1-1v2l-1 1v-1 1h-2l-1-1h-1v-1l-1 1-1-1h-1l-1-1-1-1v2h1v-1 1l2 1h1l-1 1h1v-1h2v1h1l1 1v3h-1v1h-1l-1-1h-1v2h1-2v3-1h-1l-1-1 1 1v1h-1v1h-1 1v1l-1 1-1 1v2l-1 1v2h-1v8h-1 1v1h1v3-1l1-1h2l1 1v3l1 1v4l-1 1h1v-1h2l2-1h2l1 1h1l1 1h2v1h1v1h1v1l1 1h1l1 1h1l1 1h1l1 1h1v1l-1 1 1-1h7l1 1v10l1 1v1h1v1h-1 1v1h2v1h1v2l-1 1 1-1h1v1h1v1h1v1-1h-1v-2h1v-1h1v2l1-1v-1h-1v-1h1v-2h1l-1-1v-2h-1v-6h-1v-2h-1l2-1h1l1-1 1-1h1l1-2 1-1v-1h1v-7l-1-1v-1l-1-1-1-1v-1h-1l-1-1v-3h1v-1h1v-1h-1 1v-1h1-1l1-1v-1h-1v-1h1l-1-1v-3l-1 1v-1h-1 1v-1l1-1v-3h-1v-4l1-1h2l1 1 2 1h1-1 3v1-1h2v-1h2v1h1v1h1v1h1v1h1v1h-1 1v-1l1 1-1 1h1v1l1 1h3v1h1v-1h1v2h-1v4h-2 2v1l1 1-1 1v1h1v3h-1v-1l-1 1h1l1-1h2l1 1v4h-2 2v-1l1-1v-1 2l1-1v2-1l1-1h1l1-1v-1h1l1 1v1-4h1v1-3h1v1-1h-1v-2h1v-1l1-1v-1l1 1v1h-1 2v2-1 1h1v1h-1v1h2v1h-2 2v1h1v2h-1v1-1l1 1 1-1v2h-1v1h-1l1-1h2v1h1v2h-1v1h1v1h1l1 1v2h-2l-1-1h-1l1 1h1l1 1h-1 2l-1 1h1v1h-1 1v1h1v-1 1h1v1-1h1l-1 1h1v1h-1v2l1-1h2v1h-1v1l1-1v-1h1v1h1v1h2l1 1h1v1h-2v1h-1v1h-2l-1 1h-2v1h-1 1v1h1v-1h1l1-1h1v-1h2v-1h-1 3v1l1 1h-1v1h-1 1v1-1h1v-1h1l1 1 1 1v3l-1 1h2v1h-1 1v1l-1 1h-1l-1 1-1 1h-3l-1 1v-1 1h-1l-1 1v1h-1v1h-1v1h-4l-1 1-1-1h-13v1h-1l-1 2v1h-2l-1 1-1 1h-1v1l-1 1v1h-2l-1-1h-1 1l1 1h1v1l-1 1v1h-1l-1 1v1h-1v1h-2v1h-1l-1 1h-1v1h-1v1h-1v1h-2 1v1h-1l-1 1zm-72-141v-1h-1v-1h1v2zm38 3h1v1h-2v-1h1zm-30 4h1v-1 1l1 1h1l1 1v2l1 1v1h2-1v1h-1v1h-1v1h-1l-1-1-1 1-1-1-1-1h-1v-1h-2v-1 1h-1v-1h-1v-1h2l1-1v-1h1-1v-1h1-1v-1h1v1h1-1v-2l1-1h1l1 1h-1v1zm51-1v1h-2l1 1h-1v-1h-2v-1h2v-1 1h1l1-1v1zm4 0v1l-1 1h-1v-1h1v-1h1zm28 2l-1-1h1v-1l1 1h-1v1zm-199-1l-1 1v-1h1zm122 0v2h-1v-2 2-1h-1 1v-1h1zm-16 2v-1h-1v-1h1v2zm68 2h-1v-3l1 1h1l-1 1v1zm-37-2v1h-1v-1h1v-1 1zm31 4h-1v-1h1v-1l1-1v-1h1v1l-1 1v2h-1zm-32-3h-1v-1h1v1zm-27 2v-1 1zm0 1v1h-1l-1-1 1-1h1v1zm-5 2h-1v-1l1-1v2zm76 2l-1-1h-1v-1l1-1v1h1v2zm-83-1l-1 1v-1h-1v-1h1l1 1zm71 2v-1h1v1h-1zm10-1l1 1v6h-1l-1 1h-3l-1-1v-4l1-1 1-1v-1h3zm-31 5v-1h-1v-3l1-1v5zm-64-2v-1 1zm100 1h-2l-1-1v-1h3l1 1v1h-1zm-99-1h-1 1zm3 4v1-1h-1v-2h1v2zm127 2v1l-1-1h2-1zm-127 1v1-1zm70 5v1-1h-1 1zm-2 3v1h1-1v-1l-1 1v-2h-1v-1h1v1h1v1zm-3 2v-1h-1v-2h1v3zm0 2v-1h1l1 1 1 1h1v1h1l1 1 1 1h1v1l1 2-1 1h4v1h1v1h-1l-1 1v1h-1v-1l-2-1h-1l-1-1v-1h-1v-1h-1v1h-1v1l-1 1v1h-1v1l-1 1h-1v1h-1v-1l-1-3h-2l-1 1h-1v-1l1-1 1-1h1v-2l-1-1 1-1v-7h1v-1l1-1v1h1v3l1 1zm20 8v1l-1-1h1zm3 4h-1l-1-1v-1l1 1h1v1zm-4 0h1v2h-1l-1-1v-1h-1 1v-1h1v1zm-11 3v1l-1 1-1 1-1 1h-1l-1 1v-1l-1-1 1-1 1-2h4zm32 2h-1v-1h-1v-1h1l1 1v1h1-1zm-10 0l-1-1h-1 2v1zm26 0h1v1h-1v-1zm-41 1v4h-1v1l-1-1v-4h2zm40 3h1v1h-1v-1zm-78 0h-1 1zm79 3h-1l-1-1 1-1h1v2zm-39 4h1v-1 1h-1zm29 3v-1l1-1 1 1h-1l-1 1zm11-1h-1v-1l1 1zm-44 3h1-1zm0 1h-1 1zm31 3v1h-1v-1h1zm-30 9v-1 1zm51-1v1h-1v-1h1zm-51 4zm1 1v-1 1zm1 2v2h-1l1-1v-1l-1 2h-1l1-1-1 1h-1l1-1 1-1v-1 1-2h1v2zm-3 0h1v-1h1-1v1h-1zm4 1h-1v-1h1v-1 2zm50 0h-1 1zm-196 6h1v-1 1h-1zm-1 2v-1h1l-1 1zm-4 1v1h1v1l-1 1h1v-2h1v-1 4h-1l-1 1-1-1h1l-1-1-1-1v-2h2zm6 1v1-1h-1v1-1h1zm1 4v-1h-1v-1h1v1l1 1h-1zm141-1h-1 1zm-139 1v-1 1zm2 1v3-2h-1v-1h-1l1-1v-1 1h1v1zm-9-1v2h1v1h1v1h-1 1v1l-1-1-1-1-1-1v-1l-1-1h2zm143 2h-1v-1h-2v-1h2l1 1v1zm-136-1v-1h-1 1v1zm1 2h-1v-1h1v1zm2 1h-1v-1h1-1v-1h1v2zm-8 2v-1 1zm145 0v-1h-1 1v1zm68 0h-1l1-1v1zm-204 2h-1v-1h1v1zm203-1v1h-1v3h-1v1l-1 1v2h-1v1h1v-1h1v-1h2v1l-1 1h-1 1l-1 1h1v-1l1 1v-1 1h1v-1 2-1h1-1 2v-1 1h3v1h-1v1h-1 1v1h-1 1v1h-1 2v-1h1v1h-1v1h-1 1-1v2h1v-1l1-1h1l-1 1v2l1-1v1l-1 1v2h-2v-1h1-1l1-1h-1v1l-1 1v-2l1-1v-1h-1v-1 1l-1 1h-1l-1 1v1h-2l1-1h1v-1h1v-1h-2v1h-2l1-1h-2v1h-1l-1-1h-4l-1 1v-1h-1v-1h1v-1l1-1h1-1v-1l-1 1v-1h1l1-1v-1h1v1-3l1 1v-1h-1l1-2v-1l1-1v-1h1v-2h1v-1h1l1-1v1h1v-1zm-201 4l1 1h2l1 1h1v1l1 1v1h1v1h1l1 1 1 1v1h1v1h-3l-1-1h-1v-1l1-1h-1v1h-1l-1-1v-1h-2v-1h1-1v-1h-1v-1 1h-1v-1h-2v-2h1-2v-2h1v1h2zm201 0zm-195 3h-1v-2l1 1v1zm0 0v-1 1zm177 4h-3l-2-1v-1l-2-1 1-1 1 1h2v1h1l2 1 1 1h-1zm-182-2v-1l1 1h-1zm7 0h-1v-1h1v1zm197-1v1-1 1-1zm-1 1h-1 1zm-201 1zm166 17h-1v-1h-1 1-1v-6l-1-1-1-1v1h-2v-1h-1v1l-1 1v1h-1v3l-1 1-1 1h1-1v1h-2v1h-9 1v-1h1l1-1h1v-1l1-1 1-1 1-1h1v-1h3l1-1v-1h1v-1l1-1 1-1 1-1 1-1h1v-1h1l1-1h2l1-1h2l1-1 2 1h1l1 1h-1l1 1-1 1h-1v1h-1v1h-1l-1-1h-2v1-1l1 1h1l1 1h1v-1 1h1v1l-1 1v1h1v3h3v1h-1 1v1-1h1v1h6v1l-1 1h2-2v1h-2l-1 1h-3 1v1h-2v-1 1h-1l1 1h-1l-1 1-1 1v1h-2v-1h-1v-3h1-1 1v-1h1-1 1l2-2h1l1 1v-1h2l-1-1h-3v1-1l1-1v-1h-1l1 1h-1l-1 1-1 1h-2l1-1h-1v1l-1 1v-1 1h-1v-1zm-158-15h-1v-1 1h1zm-1 1v-1h1v1h-1zm100 0v-1h1-1v1zm1 0v-1 1zm65 3zm0 0v1h-1v-1h1zm-60 1h1-1zm89 1h-1 1v-1 1zm-22 1h1-1v-1l1-1h1l-1 1h-1v1zm-5 3h5l-1 1h-1v1h1-2v-1h-1 1-2v-1h-1v-1h-1l1-1v1h1v1zm7 2h1v1h-1 2v-1h-1 1v-1h2v1h-1v1h-1v1h-2v-1h-1v-1l1-1 1-2v-1h1l1 1h-1v2l-1 1h-1zm-27-4h-1 1zm-36 3h-1v1-1h1zm1 1zm1 0h1v1-1h2v1h1v-1 1l-1 1v-1 1l-1-1h-2v-1h-1 1zm26 2h-1 1l1-1v1h-1zm0 0v-1 1zm36 0h-1 1zm-59 0h1-1zm5 3v-1 1zm38 0h-1 1zm1 2v-1 1zm-28 0h-1 1zm-1 0h-1 1zm47 1h-1 1zm-64 8v1-1zM747 497zm0 0zM552 449h1v1h1v1h1v-1h1v1h1v-1h1l1 1 1 1h1v1h1v1h-1v2h1v1h1l-1 1-2 1v1l-1 1v1h-1v5h-1v2h-1v2h1v6l1 1v3l1 1h1v2l1 1v1h-3l-1 1h-1v1h-1v7h-1 1v1l1 1v1h2v-1h1v4h-1v-1h-1v1h-1v-2h-1v-1h-1l-1-1h-1v-1h-1v-1 1h-1v1l-1-1h-3v-2l-1 1h-2v-1l-1-1v1h-5v-3l-1-1v-7h-3v-1h-2l-1 1v1h-1v1h-3v1h-1v-1l-1 1v-1l-1-1v-1h-1 1l-1-1v-2h-1v-1h-10l-1 1-1-1h1v-2l1-1h2v-1h2v2l1-1v1-1h1v-1h1v-1h1l1-1v-4h1v-1h1v-2h1l1-1 1-1v-5h1v-3l1-1v-4l1-1v-1h4v1h1v1h5l1-1h2l1-1h4v-1h2l2 1 1-1z"/>
  <path d="M539 432v1l1 1h1v4l1 1h1v1h2v1h1v1l1 1h1v1h1v2h1l1 1v1h1v1l-1-1-1 1-2-1h-2v1h-4l-1 1h-2l-1 1h-5v-1h-1v-1h-4v1l-1 1v2h-6v3l-1 1v-3h-1l-1-1-1-1v-2h-1v-4h-1 1v-1h1v-2h1v-1h2l1-1 1 1 1-1h2l1-1h2v-1h1-1v-1h3v-1h2l1-1 1-1v-1h1v-1h1v-1h2z"/>
  <path d="M527 453v2l-1 1v3h-1v5l-1 1-1 1h-1v2h-1v1h-1v4l-1 1h-1v1h-1v1h-1v1-1l-1 1v-2h-2v1h-2v-1l-1 1h-1v1h-1v-2h-1v-1h-1v-1h2v-2h-1v-2l1 1v-1l1 1 1-1v-1h1v1l1 1h1v-1h1v1h1v-5h1l-1-1h-1v-3h1v-2h-3v-2h7v1h1v-1l1-1v-3h6zM502 312v1l-1 1h2v1-1h1v2-1h-1v2-1l-1 1-1-1v1l-1 1v1-1h-1v-2h-1v1l-1 1h-3v-2h-1l-1 1h1-1v-2h1v-1h1v-1h1l-1-1h2v-1 1h2v-1h1-1 3zM459 434h2v1l1 1h1l1-1h2v1h1v1-1 2h1v2h-1v3h-1v4h1v2h-1v-1 1h-1l-1-1h-2 2-2l-1 1v-1h-1v1h1-3l-1 1h-2l-1 1v-4l-1-1-1-1h-1v-1h1v-1l-1-1h1v-3h1v-2h-1v-3h4v-1h1v1h1-1 2zm7 15zM27 524h-1v-1h1v1zM286 528l1 1v1l-1 1v1h-1l-1 1h-1v1h-1l1 1v1h-1l1 1v2h-1v1h1v1l-1 1h-1v2l-1 1-1 1v2h-1v1l1 1v2h-1v1l-1 1h1-1v3h1-1v1h1v3h1v4h-1v2h-1v4l-1 1-1 1v4l1 1v2h-1v1h-1v4h-1v1h1-1v6h1l-1 1h-1l1 1h-1v1h1l-1 1h1v1h1-1v1h1v1h-1 1v1h-1v1l2 1v1h-2v1h1v1h1l-1 1-1 1h1v1h-1v1h1v2h-1v2l-1 1v1l-1 1h1v2h-1v2h-1v2h-2v1h1v4l1 1v-1h2v5l1 1h1l2 1h5l1 1h1-2v-1l-1 1v1h-1l-2 1h-1v5h-3v-1h-1v-2h1v2-1l1-1h1v-2l-2 1h-1v1h-1v1l-1-1v-2h2v-1h1v1h1v-1h-3v1h-1v1h-1l-1-1h1l1-1h-1l-1 1h-1v-3h-1 1l1 1v-1h2v-1h1v2-3l-1-1h-1 1l1 1v1h-2v1l-1-1v-1l-1 1v-1l1-2h-2l-1-1-1-1h1v-2h1v1l1 1 1 1v-2 1h-1v-1l-1-1-1-1h1v-1l1 1v-1h-1v-1h2l-1-1v-2 2h-1v-3l1-1h-1v-2h2l1 1-1-1v-1 1h-2v-1h-1l1-1v1h1v-1h-1v-1h1v-2h-3v-1h-1v2-1h-1l1-1 1-1h1l-1-1v-1h3v-2 1h1l-1 1v1l-1 1h1v-1l1-1v2l-1 1h1v-4l1-1 1 1v-1h-1v-1h1l1-1v-1l-1-1h-1v-1l1-1v-3h1l-1-1 1-1v-1l1 1v-1l-1-1v-1h1v-1 1h-2v-1 1h-1v1l-1-1v-1l-1-1v-1l1-1v-2l1-1v-7h-1v-2h1l1-1v-2l1-1v-2l1-1v-1l1-1v-3h1v-11l1-1v-2l-1-1v-1h1v-4h1v-3l1-1v-1h-1v-1h1v-8l1-1v-10l-1-2v-1h2v-2h1v1h1v3h1v1h1l-1 1v2l1 1h-1v1h1v1l1 1v3h1v1l1-1zm-118 14v-1 1zm86 21h-1v-1h1v1zm14 34v1h-1v-1h-1v-1h1v-4h2v2h-1v1l1 1-1 1zm-3 1v1-1zm3 1v1l-1-1v1-1h1zm0 3h-1v1h1v2h-1v-1h-1v-1l-1-1h2v-2l1 1v1zm2 1h-1v-2h1v1h1-1v1zm-2 0v-1 1zm-4 0v1-1zm2 4h-1v-1h1v-1 1h1l-1 1zm-2 8h1-1zm2 4h-1l-1-1v-2l1-1v3h1-1l1 1zm-3 0v-3l1 1v2h-1zm3 2v4h-1v-3 1h-1v1h-1v-1l1-1h-1v-1h1v1-2h1-1v-1h2v2zm-2-1v1h-1v-1l1-1v1zm0 6h-1v-1h2v1h-1zm0 2h-1v-1h1v1zm2 2v1h-2v1-2h2zm-1 2v1h1l-1 1v1-1h-1v-2h1zm2 1h-1v-1 1h1zm15 4v10h-2l-1-1v1h-1v-1l-1 1-1-1h-3v-1h3v-1l1 1h-1 2-1v-1h-1v-2h1-1l1-1v3h1v1h1v-1l1 1v1l1-1-3-2v-2h1l1-1h-3v-2h1v-1h-1 2v-1h1l1 1 1-1v1zm-16 1h2v1h1l1 1h-2v-1l-1-1v1-1h-1l-1-1h1v1zm4 2v1h2v2h-2 1v-1h-1v1h-1v-1l-1-1v-1h1l1 1v-1zm5 3h1v1h-1v1-1h-2v-1h-1l1-1h1v1h1zm1 4h1l1 1h-1v1-1h-1l-1-1h-1 2zm3 0l3 1v-1h1v1h-1v1h1l1 1v1h-1v-1h-1l-1-1h1-1v-1h-1v1l1 1h-1v-1h-1v-1h-1 1v-1zm8 1v1h-3v-1h-1l1-1h2v1h1zm1 1v-1 1zm-2 2v1-1h-1 1zm-1 1h-1 1z"/>
  <path d="M518 442v1h-1v2h-1v1h-1 1v4h1v2l1 1 1 1h1v4h-1v-1h-17v-1l1-1v-1l-1-1v-1h-2v-2h-1v-1l1-1v-2h1v-1h1v-1h1v-1 1h1l1-1v1h1v1h1v-1l1-1v-1h1v-3h1l1-1v-2h1v-1l1-1v-2h1v-1h2v-3h-1v-1l-1-1h2v1l1 1v5l1 1v1h1-4l-1 1 1 1 1 1h1v1l1 1v1h1l-1 1zM786 406v1l-1 1v2h-1v1h-3l-1-1v-2h1v-1h1-1v-1h5zm-1-3h-1 1zm6-2zm0 0h1-1zm3-3h-1v-1l1 1zm13-6l-1 1v-1h1zm4-3v1-1zm4-8zm3-5h-1 1zm0-1v1-1zm0 0h-1 1zm-1-5h-2v-1h1v1h1zm4-85h1l1 1h1v1h3v1-1l1 1v1h1v2h1v3h1v3l1 1v2h1v3h3v1h3v1l1 1h1v1l1 1v3h5v-1h1v-1h3l1-1h1v4h-1l-1 1h1l-1 1v3h-1v2h-1v1l-1 1v1h-1v-1h-3v1h-1l-1 1h1v7h-2v1h-1v-1h-1v2h-1v1h-3l-1 1 1 1v1h-2v-1h-2v-1 1h-1v1h-1v1l-1 1h-1v1h-2v1h-1v1l-1 1h-1v-1 1h-2l-2 1v1h-1v1h-2v1-1l1-1 1-1h-2l1-1v-1h1v-1h1v-2h-1v-1 1h-3v1l-1 1-2 1-1 1v1l-1 1h-4v3h1l2 1h1v3h2v-1h1l1-1h-1 3v1h4v2h-3v1h-2v2h-1v-1h-1v2h-1v1h-1v1l-1 1h1v1h2v1h1v3l1 1v2h2v1l1 1v1h-1l-1-1h-1v-1h-1l-1 1h2l1 1 1 1h1v1h-1v1h-2v1h-2 1v1h1l1-1h1v1h1l1 1h-2v1l1-1v2h-1v3-1l-1 1v-1 1h-1v1-1 2h-1v1h-1v2h-1v-1 1-1 2h-1v1-1h-1l1 1h1l-1 1 1 1h-1v-1 1-1h-1v1h1-1v1h-1v1h-2v2h-1l-1 1h1-2v1h-1v1h-1l-1 1-1-1v1h-5v-1h-1v1h1v1h-1v1h-1v-1 1h-1v1l-1-1v1l-1-1v1h-1l-1 1v-1h-1v1h-1v1h-1 1v1h-1 1v1h-2 1-1v-4h-1v1h-1v-1h-1v-1h-1v1h-4v-1h-1v-2h1l-1-1h-3v-1h-2v2h-5v1-1h-2v1h-2v3h1l-1 1v-1h-1v-1h-2v1h-1v-1h-1v-1h-2v-1l1-1v-1h-1l-1-1v-2h-3v-4h1v-1h1v-1h1v-5h-1l-1-1v-2h-2v1-1h-3l1-1v-1h-1v1-2h-1l-1 1h-2v-1h-1v1h-1v1h-2v1h-1v1h-1v1h-3l-1-1v1h-1v-1h-4v1h-1v1l-1 1v-3h-1v1h-4l-1-1v1h-1v-1h-1v1-1h-2v-1h-1l-1-1h-1v-1l-1-1v1h-1v-1h-1v-1h-1l-1-1h-1v-1h-2v1h-1v-1h-1v-1h-1l-1-1h-1l-1-1v-1 1h-1v-2l-1-1v-1h2v-3h-1v-3h1-1v-1h-1l-1-1v-2h-3v-1h-2l-1-1v-2h-1v-1 1l-1-1h-2v-1h1l1-1h-1v-4h-3v-2h-1l1-1v-2h1l1-1h1v-1h2v1h2v-1 1l1-1v-2h4l1-1 1-1h1v-1h2v-1h1v-2l1-1h-1 1v-1h1-1v-3h-1v-2l1-1h-1 1-2v-1h2v-1h6v-1h-1v-2l1-1v-2l1-1v-1h1l1 1h3v1-1h2v-6h3v-2l1-1h2l1 1h-1l1 1v1h1v1h1l1 1h3v1l1 1v2h1v5h-1v1h1v1h2v1h6v1h1l1 1 1 1h2-1v1h1v1l1 1v1h1v2h15v1h1v1h2l1 1h4v1h2v-1h2l1-1h1l1-1h7l1-1h2v-1l1-1v-1h2v-1h1v-1h-1v-4h3l1 1h2v-1h2v-2h4v-1h1v-1l1-1 1-1v1h1v-1h2v-1h4l1 1v-3h-1v-1h-1v-1h-1v-1h-3v1h-2v-1h-2v1h-1l-1-1v-1h1v-2l1-1v-1l1-1v-2h1v1h4v-1l1-1h2v-1h-1v-1h1v-2h1v-1l1-1v-1l1-1 1-1v-1h-1l1-1h-1v-1l-1 1v-2h1l1-1v-1h4v-1 1h1l1-1h1zM275 430h-2l-1 2h-1v1l-1 1v2h-1v1h2v2h1v2l-1 1h1v1h5l1 1v-1 1h1v1h1v1h4v-1h1l1 1-1 1v2l-1 1h1v3h1v1h-1v1h-1 1v1h1v1h1-1l1 1v2-2h-1v-1h-1v1h-1v-1h-1v1h1-5v2h2v1h-3v2l1 1h1v5l-1 1v5h-1v-1h-1l-1-1h1v-1h1v-2h-1l-1-1h-3l-1 1h-1v-1 1h-1v-2h-1v-1h-1v-1h-2v-2h-1v-1h-3v-1h-4l-1-1h-1v-1h-1l-1-1-1-1h1v-2h2v-1h1v-1h1v-1l1-1h-1v-1h-1 1v-3l-1-1h1v-1h-1v-1h1v-1h-1v-1h-1v-1h1v-1 1l1-1v-2h-1 1l1 1v1h1l-1-1v-1h1l1-1v-1h1l1-1v-2h-1 1v-1h1v-1h2v1-1h1v-1h2l2-1h1v-1h1v-1h2v2zm-19 26h-1 1zM240 432v1l1 1 1 1v1h1-1v2h1-1v2-1h-2v-2h-1v-1h-2v-1h-1v-1 1h1l-1 1-1-1h-1v-3h4l1 1h1zM245 396l1 1h5v1h1v1h2l2 1 1 1v-1l1 1v1-1h1v1h2v1h2l-1 1h3l1 1h1v1h-10l1-1h1-1v-1h-2l-1-1-1-1v-1h-4v-1h-3v-1 1l-1-1h-1 1v-1h-4v1h-3v1h-1v1-1h-1v1-1h1v-1l1-1 2-1h3v-1h1zm7 2h-1 1zm2 0h1v1h-1v-1zm2 1h-1 1zm0 1v-1 1zm1 0h-1 1zm-14 1l-1 1v-1h-1 1v-1h1v1zM404 415v-1h1v1h-1zm1 0h-1 1zm6 1h-1v-1h1v1zm-4 0h-1 1zm4 1v1h-1l1-1zm-2 4h-1v-1h1v1zm1-1zm-3 1h-1 1zM282 429h-1v-1 1h1zM772 492v1l-1-1h1zM572 357l-2 1v1h-1l-1 1h-2v-2h1v-1h4v-1h1zM516 297h2v1h2v1-1h1v1h-1v1h1v1h1v-1h1-1v-1h1v1h2l-1 1h2v1h1l1 1h-1v1h-1v1h-1v1h-2v1h-1l-1-1v1h-1l-1-1h-2v1h-3v-1h-2v-1l-1-1h-1v-3h-1v-1h1v-1h3v-1h1l1-1h1v1z"/>
  <path d="M498 279v-1h1-1v1h1-1zm4 0h1v2h1l1 1 1-1v1l-1 1h2l1-1h1l1-1h1l1 1h1l1 1v1h1v5h1v5l1 1v2h-1v1-1h-1l-1 1h-1v1h-3v1h-1v1h1v3h1l1 1v1h2v1h-1v1-1 1h-1v1h-1v2h1v1h-1v-1h-3l-1 1h-3v1h-1l1-1h-2l-1-1h-3 1-1v1h-1l-1-1v-2h1v-2l1-1-1-1h-3l-1-1v-2h-1v-2h1v-1h-1v-2h-1 1v-4h2v-2h1v-1h-1v-1h1v-4l1-1h1l1 1v1-1h1v1-2h2l1 1-1-1h-1v-2h-1v-1h1v-1l-1-1h3zm-3 1h-1l1-1v1zm14 1v1-1 1h-1v-2h1v1zm-6 0h-1v-1 1h1zm8 2v1h-1v-2 1h1zM596 431v1h-4v-2h1v-1l1-1h1v-1h1v1h1v1h-1v1h-2v1h1v-1h1z"/>
  <path d="M502 279h-3v-3h-1v-6h1v1-1h1v-1h1v1-2h-1v2h-2v-1l1-1h1v-1h2v-1l1-1h1v-1h1l-1 1v6h2-1v1h-1v1l-1 1v1h-1v3h-1 1v1zm4-12h-1 1v-1 1zm4 7v1h-1v1h1v1h-1v2h-1v-2h-2v-2h1v-1l1-1v2-2h2v1zm-5 0h-1v-1l1 1zm5 1zm-5 0v3h-1l-1-1v-1l1-1h1zm12 3h-1v-1h1v1zm-12 1v-1l1-1v1l-1 1zm-2 0h-1v-1h1v1zm7-1l-1 1v-1h1zm-6 1v-1 1zm3 0h1v1h-1l-1-1v-1l1 1zM303 420v-1h-1 1v1zM273 412v-1h1-1v-1h1v-1h-1 1v-2h-1 1v-1h2l1 1h2v1h2-2v1h3l1 1v1h-8v2h-1v-1zM499 352l-1 1v7h-1v1l-1 1v1l1 1v1h1v2h1v1h1v1l1 1v4h1l-1 1 1 1v2h1l-1 2 1 1v1l-1 1v2h1v1h-1v1h-1v1h1v1l1 1v2h2l1 1h1l1 1v1l-1 1-1 1-2 1-1 1-2 1-1 1-2 1-1 1h-1l-1 1v1h-1l-1 1h-1v1l-1 1h-4v1h-3v-3h-2l-1-1h-1l-1-1h-1v-2h-1l-1-1-1-1h-1l-1-1h-1l-1-1-1-1h-1v-1l-1-1h-1l-1-1-1-1h-1l-1-1-1-1h-1v-1h-2v-1h-1l-1-1h-1v-1h-1l-1-1h-1v-1h-1v-1h-1v-5l1-1h1v-1h2v-1h1v1-1h3v-1h1l1-1v-1h2l1-1h1l-1-1v-1h1l1-1h1v-1h4l1-1-1-1v-1h-1v-6h-1v-1h2v-1h1v-1h3v-1h1v-1h2v-1h5v-1h6v1h1l1-1h1l1-1v1h2v-1h1v1h2zM264 463h-1v1h1v2h-1v1l-1 1-1 1-1 1h-1l-1 1h-2v1h-1 1v1h-1v-1 2h-1v2h-1v1h-1v-2h-3v-1h1v-2h-1 2v-3 1h-1v-1 1h-2v-4l1-1h1-1v-2h1v-2h1v-1h2l1-1 1 1h1v1h1l1 1h4v1h2zm-11-4zm-34 4v1h1v2h-2v-1h1v-1h-1v-1h1zm2 1h-1v-1l1 1zm-3 0zm3 1v-1h1v1h-1zm3 0v1h-1v-1h1zm-3 2v-1 1zm29 4v-1l1 1h-1zM571 371v1l1 1v2l1 1v1h-1v4h-1v1h-1v-1h-1v-1h-1v-2l-1-1v-1l-1-1v3l1 1v1h1v1h1v3h1v2l1 2 1 1v1h1l1 2v1l1 1v4h2v1l1 1h-15v-1 1h-18v-25h-1v-1h1v-4h5l1 1h2v1h5l1-1h1v-1h2l-1 1v-1h4v1l-1-1v1h1v1-1h1v1h1l1-1v1l1-1h2zM554 255v1h-1v1l-1 1v5h1v1h-1v1h-4v-1h-1v-1h-3l-1 1v-1l1-1v-1h-1v1l-1-1h-1v-5h2v-1h4l-1-1h1l2 1h5zm-15 4h-1v-1h-1 1v-1h1v2zm1 1v-1 1zm-2 0h2v1h-1v1h-2v1-1h-1v-1h1l-1-1h2zM451 384v4h-10v8h-2v1h-1v5h-11v2-4h1v-1h1v-2h1-1l1-1v-1h1v-1l-1 1v-1h1l1-2h1v-2l1-1v-2h1v-1h1l1-1v-1l1-1h13zM596 427h-1v1h-1l-1-1-1-1v-1h-1l-1-1-1-1h-1v-1h-6v-1h-1v2h-1v-1h-1v1h-2v-3h1v-4h1v-1h1v-1h1v-1h2v-1l1 2v1l1 1v2h1v2h1v-1 1l1 1h1l1 1 1 1 1 1 1 1h1v1h1v1h1zm-9-10v1-1zm1 2h-1v-1h1v1zM470 328v1h1v1-1 1h2v1-1l1 1v-1 1h3v-1l1 1h1v1h5v2h-1l-2 2-2 1h-1l-1 1v1l-1 1-1 1-1 2v1l1 1v1l-1 1h-1v3h-3v1l-1 1v1l-1-1-1 1h-6l-1 1v1h-2v-1h-1v-2l-1-1h-2v-3h1v-1h-1v-1l1-1v-1l-1-1v-1h1l1-1h-1v-1h1v-2l-1-1h1v-1h1v-1h-1l1-1h-5v-1h-1v1h-1v-1h1l-1-1v-2h-1v-1h1v-1l1 1v-1h1v-1h3v1l1-1 1 1v-1h1l1 1h9l1 1v-1h1zm17 14l-1-1h1v1zm-3 0h1-1v1h-2v-1l1-1h1v1zm-5 3h-1 1v-1 1zm0 1v-1 1zm-43 33v-1h1l-1 1zm-11 1l-1-1h1v1zm10 1h-1 1v-1h1v-1 2h-1zm-6-1v1h-1l-1-1h3-1zm-2 1h-1 1zm5 0v1h-1v-1h1zm-7 1l-1 1v-1h1z"/>
  <path d="M583 422h5v1h1l1 1 1 1h1v1l1 1 1 1-1 1v1h-1v2h3v3h1v1h1v1h1v1h2l1 1h3l1 1h2v1h3-1l-1 1-1 1-1 1-1 1-1 1-1 1-1 1v1h-5v1h-1l-1 1h-2v1h-3v-1h-1l-1 1h-1l-1 1h-4l-1-1h-1v-1h-4v-1h-1v-2h-1v-1h-1v-2h-1v-1l-1-1h-1v-1l-1-1h-1v-2h3v-6h1v-1 1h1v-3l1-1v-1h1v-1h1v-1h1v-3h2v-1h1v1h1v-2h1v1h1zM556 193h-1v1h1v1l-1 1v3l1 1h1l1 1 1 1v2l-1 1v1h-1v2h-1v1h1v2h1v2l1 1v3h-1l1 1h-1v2h1v1h-1v2h1v3h1v1h1v1l-1 1-1 1 1 1 1 1 1 1 1 1v3l-1 1v1l-1 1h-1v1l-1 1-1 1v1l-1 1h-1v1h-1v1l-1 1-1 1h-2l-1 1h-1v-1h1-1v1h-1v-1 1h-1v1-1l-1 1h-2v1h-3l-1 1h-1 1v-1h-1v-1 1h-1v-2h-1l-1-1h-1v-6h1-1v-5h-1v-2l1-1v-1h1-1v-1h3v-1h-1 1v-2h1v-1h1l1-1v-1h1v-1l1-1v-1l1-1 1-1 1 1v-5l-1-1h-1v-1h-1l-1-1v-1l-1-1v-1l1-1v-3l-1-1v-1h1l-1-1v-5h-1v-1l-1-1-1-1h-1l-1-1-1-1-1-1v-1h-1v-1h1v1-2h2v1l1 1v1l1 1h2v1l1-1h1v-1l1 1h1v1h1l1-1v-1h1v-4l1-2v-1h1v-1l1-1 1 1 1-1 1-1 1 1v1h1l1 1 1 1v2l-1 1v2zm-11 29h-1v-1h1v1zm-11 11h1v1l-1-1zm1 16h-1l1-1v1zm2 1h-1v-1 1h1zm0 0h1v1h-1 1-1v-1zm-1 1zm0 0l-1 1v-1h1zM972 498zm8 11v-1 1zm0 1v-1 1zm3 2v-1 1zm2 2zm-2 0zm1 1h-1 1zm-3 2h-1 1zm3 0zm0 5zm-4-13h-1v1h1-3v1h-1v-1h1l1-1h2zm0 1zm0 0v1l1-1h-1zm-8 1v1-1zm6 1h1-1zm-3 0l1 1v1h-1v1h-1l-1-1h-1 1v-2h2zm2 1zm1 1zm-2 3h-2 2zm-11 8zM310 630h1v2-1h2-1v1h1-1v1h-2v1h-2v1l-1-1 1-1 1-1v-1h1v-1zm-4 1v-1 1zm0 0h3-1v1l-1 1h-1v1h-2v-1h2v-1h-1 1l-1-1h1zm-2 2h-1 1zm7 1zm-4 1v-1 1zM863 436l-1 1v-1h1zm38 6zm-1 0h1-1zm19 2v-1 1zm13 4zM457 239h-1 1l-1-1 1 1zm-1 0v2l-1-1v-1h1zm-1 1h-1 1zm1 2v-1 1zm0 2v-1h-1 1v1zM483 298h1v1h1v1h2v1h2-1v1h1l1 1h2v1-1h1v1l1 1h3l1 1-1 1v2h-1v3h-2l1 1h-1v1h-1v1h-1v2h1-1l1-1h1v2h1-1v2h1v1h-2l1 1v1h1-1v2h2v2h-1l-1 1v1h-4v-1h-4v-1 1l-2 1-1 1 1 1v1h-4v-1h-2l-1-1v1h-3v-1 1l-1-1v1-1h-2v-1 1-1h-1v-1h1v-4l1-1h-1l1-2v-1h1v2-2h-1v-1h-1 1v-2h-1l-1-1v-1h-1v-2h1-2v-1h-1v-1h-2l-1-1h-1v1-1h-1v-1h1-1v-1 1h1v-1h-1v-1h3v-1h1l1 1v1l1-1h3l-1-1v-3h1l1 1h4l-1-1 2-1 1-1h1v-3l1-1h2v-1 2h1zm-11 20l-1 1v-1h1zm30 12l-1 1h1v2l-1 1v2l-1-1-1-1v-3h2v-1h1zM512 457v2h3v2h-1v3h1l1 1h-1v5h-1v-1h-1v1h-1l-1-1v-1h-1v1l-1 1-1-1v1l-1-1v2h1v2h-2v1-1h-1v-1l-1-1h-1l-1-1h1-1v-1h-1v-1h1-1v-1h-1 2-2v-2h-1 2v-3l1 1 1-1h-2v-1h1v-1h5v-3h5zM472 298v1h-1v-1h1zm-9-12h1-1v1h-1v-1h1zm-6-9h1v2h1v1h-1 1l1 1h-1v-1 2h-1v1h-2v-2h-1v1h-2l-1-1 1-1 1-1v-1h1v-1h2zm4-1h-1v-1h1v1zm-3-2v1h-1v-1 1-1h1zm0 0v-1h1l-1 1zm1-2h-2l1-1-1-1h1v1h1v1zm-3-2h1-1zm-2-2zm3 0zm-2 0h-1v-2l1 2zm3-2v1h1l-1 1v-1h-1v-1h-1v-1h2v1zm-3-1h-1 1zm2-4v1h-1 1v1h-1v1h-1l1-1h-1v-1h1v-1h1v-1l1 1h-1zm9-1v1l-1 1-1 1v1l-1 1h2l1-1v1h4v1h-1v3l-1 1-1 1h-1 1v1l-1 1h-2 1l1 1v-1h2l1 1 1 1v1l1 1v3h2v1l1 1h1l-1 1 1 1v1h-1v-1h-1 1l1 2h1v1l-1 1 1 1v-1h3l1 1v2l-1 1v1l-1-1v1l-1 1v1h-1 3v1l-1 1h-2v1h-4l-1-1v1h-2v1l-1-1v1l-1-1h-2v2h-4v1h-2v-1h1l1-1 1-1v-1h1v-1h3l1-1v-1h1-1l-1 1h-1l-1-1h-1l-1-1v1h-2v-1l1-1h1l1-1 1-1h-1v-1h1-1v-1h-1v1-1h1v-1l1-1h2v1-1h1l-1-1 1-1h-1v-1h1v-1h-2v-3h1v-1h-1v1h-4v1-1h-1v-1h1v-2h1v-1h-1v-1h1v-1h-1v-1 2h-1v-1l1-1-1 1v1l-1 2v1-5l1-1v-2l-1 1v1l-1-1v-1h1-1l1-1v-4h1v-1 1-2h1v-2h5zm1-1h-1 1zm-1 0l-1-1h1v1zm0-2v1h1-2l1-1zm2-1h-1 1zm-1 1v-1h-1 1v1zm4-8l1 1v2h-1v1-2h-1v-1h1v-1h-1 1zm1 0v-1 1zm1-2v1h-1v-1 1l1-1zM605 334v2h1v1h-2l-1-1h-3v1l-1-1v1h-3v-1h-1v-1h-1v1-1h-1l-1 1v-1h-1 1v-3l-1-1-1-1v-1h-2l-1-1h4v1h5v1h1l1 1h4v1h1v1h1v1h1zM302 429zM330 452h-1v2h-1v1l-1 1v1h-2v-1 1h-1v-1 1h-2v-1l1-1v-3h-1v-4h1v-1h2l1 1h1l1 1v1-1l1 1v1-1h1v1z"/>
  <path d="M468 303v1h-1l1-1zM475 432v2h1v3-1 3h1v2l-1 1h1v1h-1v1h1v1h1v2h-3l-1 1h-2l-1 1h-1l-1 1v-1h-3 1v-2h-1v-4h1v-3h1v-2h-1v-6h7zM460 355zM391 1l3 2 1 1 2 1 2 1 3 2 1 1h-1l-1 1h-3l-8 1-4 2h-1v2h1l4-2 1-1h2l3 1h3l3-1 2-1 1 3 1 3h2v2h4l1 2 1 1v3l-1 2-1 1-2 2h-2l-16 3-1 1v3h1l2-1 3-1h2l5 1 2 3 1 3 2-1v-2l1-2v-1h1l1-1h3v2l1 1v4l-1 2v3l-1 2-1 1-1 3-2 4v2-1h1v-1l2-2v-1l2-2 1-1v-1h1l2-5 1-2h1v3h2l1 1h1l1 1 1-1v-2l1-1 1-2v-1h1v-1h1l1-1v1h4l3 2h1l1 1 1 2v1h1v1l-2 3-1 1-2 3-1 1h-3v1l1 1v1l-1 1-2 1-1 1-1 1-1-1-1 2v1h1l1 1v2l-1 1-1 1h-6l-1-1h-1l-1 2v1l-1 1v3l1 1h2v3l-1 1v2l1 1 1 1v1h-1v1l-1 1h-1v3h-1l-1 1-1 2v1l-1 3v5l-1 1v3h1l1-2v-1h1l1 1h1l1 1v1l1 1h-1l-1-1h-1l-1 1v2l1 1 1 1h1v1h1l1-1h1v1l1 1v2l-1 1v2h-1v-1h-1l-1-1h-4v1l-2 2-1-1v-1h-1v1h-1v1h1v1h1l1 2v1l1 1 1-1h1v1h1l1 1v3l1 1v3l1 2v1h-1v1h-1v-1h-1l-1-1-1 2h-1v1l-1 1v-1h-2 1v1h2l1-1v1l1 1v1l-1 1v1l1-1v-1l1-2h1v2l1 2 1 1v3h-3l-1 1h-3l-1-1 1-1v-2h-1v2h-1v1h1v1h-1v1l1 1h3l2 1v2l-1 2h-3v1l-1 1h-1l-2-1v-1l-2-1-1-2v1h-2l-1-1v-1h-1l1 1 1 2v1h-1l-1 1v1h-2v-1h-2l-1-1 1 1 1 1v1h-2v1l1-1h2v-1h3v-1l1-1h3v1l1 1h1v1l1 1h1l1 1v5h-1v3-1h-1l-1-1-2-1v-1h-1v-2l-1-2v-1h-1l-1 1-2 1h-1l-1 1h2l1-1h1l1-1v1l1 2v1h-1l-1 1h2l1 1 1 1h1l1 1v1h2v2h1l-1 2v2-1h1v-1h1v9h-2v-3 1l-1 2h-2l-1-1v-1l-1-1v-2l-1-1-1-1-1-1-1-1-1-1h-3v1h3l1 1v2l-1 1h-1l-1 1h-3v-1h-2v1h1v2l-1 1-2 1h2l1 1h1l3-1v1l-1 1h-1v1l-1 1h1l1-1v-1h2l2-1h2l2 1 1 1h5-1v1h-1v1h-1v1h-2v1h-1v1l-1 1h-1v1h-1 1l-1 1-1 1v1h-1v1h-2v1h-2l-1 1h-2l-1 1h-3l-1 1h-1v1h-2l-1-1-1-1-1-1v1h1v1h-1l1 1v1h-1v1l-1 1h-1l-1 1v3l-1 1-1 2v1-1l-1 1v1l-2 1h-1v-1h-1l1 1v1h-1v1l-1 1v-1h-1v1h-2v1h-1v1l-1-1 1-1v-1l1-1v-1l-1-1h-1v1h1l-1 1v2l-1-1 1 1v1h-2l-1 1h-3l2 1v1h-1v1h-3v2-1h1v2h1v1l-1 1-1 1v-1h-2l1 1h2v3l-1 1v1h-1v1h1-1v1h-2v-1 1l1 1-1 1h-3 1v1h2l-1 1v2h1v1l-1 1h-1 1v2l-1 2v2l-1 1h-2 1v1h1v2h-2v1h-2v-1l1-1h-1v1h-1l-1-1v-1h1v-2l-1 1v1l-1-1h-1l-1-1 1-1v-2 1h-1l-1 1h-1l-1 1v-1h-1v1h-1v-1l1-1h-2v-1h-1l-1-1v-2l-1-1h1v-1h1-2v1-1h-1 1v-1h-1l-1-1v-3l1-1-1 1v1h-1v-2h-1v-1l-1-1-1-2 1-1-1-1h1l1-1h2-1v-1 1h-2l-1 1v-2l1-1v-1h1v1-1h2v1h1l-1-1v-1h-1v-1l-1-1v-1 3h1-1v1h-1v-1 1l-1 1v1l-1 1v-4l-1-2v-1l-1-1h1l1-1 1-1h2v-1h-1l-1 1-1 1-1 1h-1v-1h-1l-1-2 1-1h-1v-1h1l2-2h1v-2h1l1-1-1 1h-1l-1 2h-1v1h-1v1h-2v-2l1-1v-1h1v-1h2-2v-1h-2v-3l1-1h1v-1l1-1h1l1 1h2l2 1-2-1 1-1h-6l-1 2h-1v-2h1v-1l1-1v-1h2l1 1h1l1-1v-2l-1 1v1h-3v-1h-2l1-1v-2h2l2 1h2v-2 1h-1v-3h3v-1h-2v-3l1-1h1v-1l-1-1h1-2l-1-1v1h-1l-2-1-1-1-1-1h-2l-1-1-1-1v-2h3v1l1-1 1 1h1l2 2h1l1 1h1v-1h-1l-1-1v-3h-1v-1l1 1h1v-1h-1v-1h-5v-3h1l2-1h1v-1l-1 1h-3v1h-1v-2h1v-1l-1 1v-3l-1-1v-2 3l1 1v1l-1 1v1h-1l1 1h-1v1h-3l-1-1v-4l1-1 1-2v-1l-1 2h-1v-1l1-1h-1v-1h1l1-1v-3l-1-1v1h-1v-2l1-1v-2h-1l-1 1v-2h-1l1-1v-4h-1v-1h-3 1v-1h1v-3h1l-1-1-1-1v-1l-1-1v-1l-1-1h-1v-2h-1v-1h-1l1-1v-3h-1l-1-1-1-1h-1l-1-1-2-1-1-1h-1l-1-1h-2l-1-1h-2v1h-1v-1h-1v1h-1v1h-2l-1-1h-1v1h-1l-1-1v2l1 1h-1l-3-1h-1l-1-1-1-2h-1v-1l2-2 1-1h1-3l-2-1v-3l-1 1-1 1h-1v-2l-1-1v-1h1v-1h5l1-1v-1h6l1 1-1-1 1-1v-2h-1v-1h-1l-1 1-1 1h-2v-1h-1v1h-1v1h-1l-1-1-1-1v-1h-1v-1l1-1h-3l-1-1h-1l-1-1-1-1v-5l1-1 1-1 1-1h2l1-1 2-1 2-1v-2h1l1-1h1l1-1h5v-1l1-1v-1l1-2v-2l1-3v-4h1v-1h1v-1h-1l-1 1h-2l-1 1-1-1h-2v-1h-1v-2l1-2v-1l1-2 1-1 1-1h1v-2l1-1 1-2 1-1 2-1 1 1 1 2v-1l-1-2v-1l1-2h1l1 1h1v1h1l1-1V41l1-1v-1l1-1 1-1 1 1h1l1 1v1l2 2 1 2h1l1 1 1 2v1l1 1v-1l-1-1-1-2-1-2-2-2v-2l-1-1-1-1v-1l1-2 3-1 3-1h1l2-1v-1h1l1-1h2v1l1 1v2l1 2-1 6v2h1v-2l1-1V30h1l3 5 1 1 1 2h4l-1-1-2-3v-3l-1-3v-2h2l4 2 4 5 2 1 4 6h1v1l1-1V30l1-1-1-3v-1l-3-4v-1h1l7 1h2v1l2-1v-1l-8-2-2-1-1 1h-3l-1-2 1-3h1l1 1 1-1 2-1 1-1 3-2V8l1 1h1l1 1 1 1v1h1l1-2 1-2 1-1 1 1 1 1 1 1 1 1 1 4h1v-5l-1-1-1-1V5h2V4l1-1h1l1 1h1V2h4l1-1h1l1 1h1l1-1 1-1h7l2 1zm-42 34h-1l-1-2-2-2-1-2-2-4v-3h3l2 2 2 2v9zm74 4l-1 1h-1v-2l-1-2v-2h1v1l1 2 1 2zm2 36l-1 2h-1l-2-1v-1l1-2 1-1 1-1 2 1v1l-1 2zm-3 27l-1 1v-7h1v6zm3 4h-1l1-2v-1 3zm-151 5h-1l-1-1h-1v-1h3v2zm149 15l-1 1-1-5v-4h1v1l1 3v4zm1 7l1 2v1h1v2h-4v-4h2v-1zm-104 27v1l-1 1h-1v-1 1l-1-1h1v-1h2zm5 16h-1l-1-1h1v-1h1v2zm79 1v1h-1l1 1-2 1v1h-1l-1-1h-1l-2 1h-1v-1h1v-3l1 1h2l1-1 1-1h1v1h1zm-74 1h-1v-1h1v1zm-3 7l1 1h1v3l-2 1h-1l-1 1h-1l-1-1v-1h1-1v-1h-2v-3l1 1v-1l-1-1v-1l1-1h1l2 1 1 1 1 1zm5 4h-1v-3h2l-1 1v2zm39 29h-1v-1h1v1zm-26 30h-1l1-1v1zM428 426v-1l1 1v-1h3-4 3l1-1h1l1 1h2v1h-2v-1h-3l-1 1h-2zM443 428v1h2v1-1h3l1-1h1v2l1 1v1h1v2h1-1v3h1v2h-1v3h-1v-1l-1 1v1h-1v-1h-1 1v-1h-1v-2h-2l-1 1v-3l-1-1v-1h-4v1h-1v1h-1v1-1h-1v-1h-1 1l-1-1h-1l-1-1v-1l-1-1v1-2h1v-1h2v-2h1-1v-1h2v1h5zM608 495zM303 417h-1v-1h1v1zm-1 1l-1-1h1v1zm1 0zM499 452h1v1l-1 1v-2zm8 5v3h-6v-1h1v-3 1h5zM549 335h1v1h-1v2h-3v-1 1l-1-1-1 1v-1l-1 1h-1v1l1 1h-2 1v1l-1-1v1h-1v-1l-1-1h-1v2l1 1v1h1v1l-1-1v1h1l-1 1h-1 2v1h1v1h1v2l-1-1h-1v2h1-2v2h1v2-1h-1v-1h-1v2-1l-1-1h-1v1-1l-1-1h1v-1h-1v-1h-1v-1h1v-1 1h1v-1h1l1 1h2v-1h-5v-1 1h-1v-1l-1-1h1v-1l-1 1v-1h-1v-1l-1-1h1v-1h1v-2h1v-1h2v-1h3v-1h3v-1h2v1h4v-2l1 1zm-5 4v-1 1zm3 0h-1 1zm-1 2v1-1 1h-1v-1h1zm-15 2l-1-1h1v1zm18 0v1h1-1v1l-1-1h1-2 1v-1h1zm-7 1zm0 0h-1 1zm-1 1l1 1h1v2h1-1v-1h-2v-1h-1v-1h-1 1v-1l1 1zm3 0zm-11 1v-1 1zm15 1v1-1l-1-1h1v1zm-15 0v-1 1zm0 0v1h-1v-1h1v-1 1zm8 1zm4 1h-1v-1h1v1zm-11 0h-1v-1 1h1zm16 0h1-2 1zm-7 1v-1 1zm3 0h-1v-1h1v1zm2 0v-1h1l-1 1zm-2 0zm-1 0zm-2 0v1-1h1-1zm1 1h-1 1zm3 1h-1v-1h1v1zm-1-1v1h-1v-1h1zm5 1h-1v-1h1v1zm-7 0zm3 0h1-1zm4 1h-1l1-1h1-1v1zm-5 0v-1 1zm-2-1v1h-1 1v-1zm9 1zm-4 0zm-3 1v-1 1zm7 1v-1h1v1h-1zm-13-1v1h-1v-1h1zm11 3v-1 1zm-9 0h4v1l1-1v1h2v-1 1l-1 1-1-1v1h-3v-1h-3v-2h1v1zM371 643h1v1h1v1h1v1-1 2h-1v-2h-2v-1h-2v-1h-1 3zm30 22zM225 412v4l-1 1v1h2l1 1h-1v1h-1v1h-1 1v1h-2l1 1h-1l-1 1h-4v-1h-1l-1-1v-3h1v-1h4v-2h-1v-1h-1v-1h-1 2v-2h4zM881 426v-1h1-1z"/>
  <path d="M436 427v1h1-1v2h-2v1h-1v1h-1v-1h-1 1v-1h1-2 1v-1h1-2v1h-1v-1h-1l-1-1h4v-1h4zm-6 3zm1 1v-1 1zm-1 0v-1 1zm1 0v1-1zm-1 1h-1 1zm0 0zM314 447v2h-2v1h1-1v2l1 1v1h1v1h1v2h1v1h-1v-1h-1v1h-2v1h-1v-1 1h-1v1-1h-2v-1h-1v-6h1l-1-1v-1h-1v-1h1-1v-1h-2l-1-1v-3h2l1-1h-1v-1h-1 1v-1h1v-1h1l-1-1h1v1-1 1h2l1 1v1h1v1l-1 1v1l1-1h2v1h1v2zM796 398v1h-1v-1h1zm-1 1h-1 1zm0 0h1-1zM682 639h-1v-1h-1 1l1 1zM234 416v1-1zm-2 1l1-1-1 1zm10 4h-4v1-1 1h-1v-1h-1v2h-1l-1 1-1-1v1h-2v1h1l-1 1h-2v-1h-1 1v-1h-3v-1h-1v-1h-1 1v-1h-1 1v-1h1v-1h2v-1h10l2 1h-1l1 1h1-1 1l1 1zM521 316h1v1h1v1h1l1 1h2v-1h1v3h1-1v1h-1l-1-1h-1v1-1h-4v1h-1v-1h-1v2l1 1v1h1v1l1 1 1 1v1h1v1-1h-1l-1-1h-2v-1h-1l-1-1v-1h-1 1v-1h-1v-2l-1-1h-1l-1 1v1l-1-1v-2h3v-1 1h2v-1h1v-2h1v-1h1-1 1zm-5 6h-1l1-1v1zm0 1h-1v-2 2h1zm1 0h-1 1zm1 2h-1v-1l-1-1h1v1l1 1zm0 1h-1v-1l1 1zm0 0h-1v-1l1 1zm0 0zm4 3h-1v-1h1v1zm1 0h-2 2zm1 1h1l1 1h1v1h-1v-1h-1l-1-1h-1 2-1zm-2 0h1-1zm2 1h1-1v-1 1zM271 406h-1 1zm2 1h1v2h-1 1v1h-1v1h1-1v1-1h-5v1l-1-1h-1v-1h2l2 1h1v-1h1l-1-1v-1l-1-1h-1v-1h2l1 1h1zm-2 3h-1l-1-1h1l1 1z"/>
  <path d="M537 308l1 1h1v2h-2v1l-1 1v1h-1v2h-1v1h-2v1-1h-2v1h-3v1h-2l-1-1h-1v-1h-1v-1h-1v-2h-1 1v-2h1v-1h-1 2v-1h1v1h3l1-1 1-1h3v-1l1-1 1 1 1-1v1h2zM820 494v-1h1v-1 1h-1v1zm-3-1h-1l1-1v1zm4-1v-1 1zm-9-3v1h1l1 1v1h-2v-1h-1v-1h-2v-1h3zm14-1v2h-1v1h-2v1h-1v-2l1-1h2v-1h1zm-27-1v1-1zm21 0h1-1zm-10 0zm11-1h-1 1zm-19 1v1h-2v-1h1v-1h2l-1 1zm22-1l-1 1v-1h1zm-1 0h-1v1h-1v-1h2zm42 0h-1 1zm-60 0zm4 0zm16 0h1l-2 1v-1h1zm9 0zm-15 1h-1l-1 1h-4l-1-1v1h-1v-2 1h1v-1h3v1h4v-1h1-1 1v1h-1zm23-1h1-1zm-35 0h2v1h-1v1h-1v-1 1h-4v-1l1-1v1l1-1v1h2-1v-1h-1 2zm-8 0h1l-1 1h-1v1-1h-1v-1h-1 2v-1l1 1zm40-1zm-8-1v1h-3v-1h3zm1 0h1-1zm32 2h-3l1-1v-1h3v1h-1v1zm-21-1v-1h1v-1h1-1v2h-1zm2-2zm-49 0zm40 0zm-22 0h-1 1zm-20 0h-3v-1h4v1h-1zm5-1h-1 1zm54 0v-1 1zm-83-1v1-1zm83 0zm0 0zm-1 0v1h-1v-1h1-1v-1h1v1zm-76-1h2v1l1-1v1h1v1h5l1-1 1 1h4v2h1l1 1 1-1h1l1 1v2h1-3l-1-1h-8l-1-1h-1l-1-1h-2l-1 1h-1l-1-1h-3v-1l-1-1h-3 1v-1h1v-2h1v1h2v-1l1 1zm47 0v-1 1zm-10 1v-2 2zm-22-2zm57 0l-1 1v-1h1zm5 0v2h-1v-1h-1 1v-2h1v1zm-5 0v1-2h1-1v1zm-86-1h-1 1zm60 0zm-5 0v-1 1zm2 0h-1v-2h1v2zm2-2h-1v1l1 1h-1v1h-1v-2h1v-2l1 1zm29-1h-1v-1 1h1zm-29-1l-1 1v-1h1zm15-1h-1 1zm-1 0h-1 1zm1 0zm-34 0h-1l1-1v1zm31-1zm-32 2l-1-1h1v-1 2zm30-2h1v1h-1v1h-1v-1h-1v-1l1-1h1v1zm3-1zm-59 0h-1 1zm2 0h-1 1zm62 0h2v1h1v2l-1-1h-1v-1h-2v1-1h-2v1h-1v-1h-1v1-2h5zm-82 1h-1v-1h1v1zm22-1v1h-2v-2h2v1zm-23 0v-1h-1 1v1zm96-2zm-97 0v1-1h-1 1zm74 1h-1v-2 1l1 1zm-7-2h1-1zm7 0h-2 2zm-8 0h-1 1zm20 0v1h-1l-1-1h2zm-15 0h1-2l-1 1v-1l1-1 1 1zm29-1h2v1h2-4v-1zm-74 0l-1 1v-1h1zm-8 1v2h2-1v1h-2v-2h-2v-1h1v-1 1h1v-1l1 1zm49 0h-1v-1h1v1zm13 0h-3v-1h3v1zm-14-2v1-1l1 1h-2 1-1v-1h1zm-38 0h-1 1zm71 0h-1 1zm-101 2h-1v-3l1 1v1l1 1h-1zm90-1h-1v-2h1v2zm-1-2h-1 1zm13 0h2v1h1-2v-1h-1zm-23 0zm9-1h1-1zm-24 0h-1 1zm32 1h2v1l1 1h-1v2h1v2-1h1v2h3v-1h1v-1l1-1h2v-1l1-1h1l2 1h1v1h3v1h3v11h-1v1h1v6h-1l-1-1-1-1v-1 1h-2v-1 1h-1v-3h-1 1-1v-1h1-1v-1h-1v-2h-1v-1l-2-1h-1l-1-1h-1l-1-1h-3v-1h-2v-1h-1v-1l1-1h-1v2h-1v1h-1l-1-1h1v-1h-1l-1-1h-1 1v-1l1 1 1-1h3v-1h-1 1-5l-1-1v-1h-2v-2h2v-1h3l1 1zm-81-1v1-1h-1 1zm65 0v1h1-2v-1h1zm-1 0zm-66 0h-1 1zm76-1h1v1h-1v-1h-1 1v1h-2l1-1h1zm-91 1v1-2 1zm18-1v1h1-2v-1h1zm69 0zm-5 0h-1 1zm-64 0h-1v-1l1 1zm-4-2h-1 1zm67 0h1-1zm0 0zm-67 0v-1 1zm1 0v-1 1zm1 0v-1 1zm-3 0h-1l-1-1h2v1zm1-1zm-1 0v1-1h-1 1zm3 0zm1 0h1l-1 1v-1h-1 1zm-6 0v-1 1zm-14-1l1 1h1v1h-1l-1-1-1-1h1zm15 0h-2v-1l1 1h1zm62 1v1h-1v1h-10v-1h-1v1h-1v3l1 1 1 1h1v-1h1v-1l1 1 1-1h3v1-1h-1v1h-1v1h-1l-1 1h-2 1v1h1v1l1 1v2h1v1h1v1h-2v1h-2v-2h-1l-1-1v-1h1v-1l-1-1-1 1h-1l1 1v5h-1l1 1v1-1h-1l-1 1h-1v-3h1v-2l-1-1h-1v-1h-1v-2h1v-1h1v-4h1v-3l1-1v-1h1v1-1h1v-1h2v1h3l1 1v-1h1l1 1h1l1-1v-1h1l1-1v2h-1zm-65-3l1 1h-2l1-1zm73 4h1v-1h1v-1h1v1h-1v1h1v1h1-3v2l1 1h-1v-1h-1v-4l-1-1h1v-2h1v3h-1v1zm-85-4h-1 1zm87 0v-1h1v1h-1zm-8-1v-1 1zm-81 0h-2v-1h1v1h1zm34-1zm-8 0v-1 1zm1-1zm32 0v-1 1zm23-1h-1 1zm3-1zm0 0h-1 1zm-25-1v1h-1v-1h1zm-27 2h-1l1-1h-1l1-1v2zm23-2h3v2h-2 1v1h1v1h1v2h-1 1v1h1v1h1v1h1l-1 1h-1v-1h-1v1h-1v4h-1v1h-2 1v1h-1l-1 1h1v1h-1 1v1h-1 1-1v2h-1v1l-2 1-1 1v-2h-1v-1 1-1h-1l-1 1v-1h-1l-1-1v1h-2l-1 1v-2h-5v-3h-1 1v-2h-1l-1-1-1-1v-1h1-1v-5h1l1-1-1 1h1v1h1v1h1v1-1h4l1-1h6l1-1v-1l1-1v-2l1 1v-3l1-1h2zm29 1h-1l1-1v-1 2zm-85-4h3v1h1v1l1 1v1h1v1h1l1 1h1v1h1v1h1v1h2v1h2v1h1v2h2v1h-1 2v-1 1h1v1h-1v2h1l1 1h1v2h1v2l1-1 1 1 1 1 1 1h-1v7h-1v-1h-1v1h-1v-1 1h-1l-1-1-1-1-1-1h-1v-1h-1l-1-1v-1l-1-1h-1v-1h-1v-1l-1-1v-1l-1-1v-1l-1-1v-1h-1v-1h-1v-1h-1v-2l-1-1v-1l-2-1h-1v-2h-1v-1l-1-1-1-1h-1l-1-1-1-1v-1l-1-1v-1h2v1h2zm-3-1h-1v-1l1 1zM455 278h-1v1l-1 1-1 1 1 1h2v-1h1v2h2-1v1l1 1v4h-1v2h-1v1h-1v-1 1h-2v1h-2 1l-1 1h-1l-1 1-1-1v1h-1l1-1h-2 1v-1h1-2v-1h1-1v-1h1v-1h2v-1h1-1v1l-1-1-1 1 1-1 1-1h-1l1-1h1-2v-1h-1v-1h1-1v-1h1-1v-2h4v-1h1v-1h-2l1-1v-1h1v-1h2v1h-1 1-1 1v-2h1v2zm-8 5v1-1h-1 1zM575 366v1h-2v2h1l-1 1v1h1v-1 4l-1 1h1-1v2-1l-1-1v-2l-1-1v-1l1-1v-1l1-1v-3h2v-1 1-1h1-1 1v2h-1zM463 282l-1 1h-1l1-1v-1h1v1zM738 444v-1h1l-1 1zm0-2v1-1zm-1-1v-1 1zm0-1zm-57 0zm56 0zm-1-3zm0-4h-1v-1h1v1zm-56-2v1-1zm56 0zm1-2v1-1zm-1-2v-1 1zm0 4v-5h1l-1-1h1v4h-1v2zm-39-62v2h1v-1 1l1 1h1l1 1h1v1h1v1h-1v1l-1 1v2l1 1v-1 1h2v1h1v1h2v1h5l1 1 1 1h2v1h4l1 1v-1 1h1v-1l1 1v-5h1v-1h1v4h2v1h1l1-1h5v-2h-1v-1h3v-1h1v-1h1v-1h2v-1h1v-1h1v1h2l1-1h1v2-1h1v1l-1 1h3v2h-1v2h-3v1h-1l-1 1v2h-1v1l-1 1h1v1l-1 1v1l-1 1h-2v3h-1v3h-1v-2h-1v-3h-1v1h-1v1-1h-1v1-3h1v-1h1v-1h1v-1l-1-1h-6v-3h-1v1h-1v-2 1h-1 1-1v-1h-1v1l-1 1h1v1h1v1h1-2v1h-1v2l1-1v1h1v1l-1 1h1v3h1v3h-1v-1l-1 1h1-2v-2 2h-2l-1 1v2l-1 1v1h-1l-1 1h-1v-1l-1 1h1-1l-1 2h-1v1l-1 1-1 1h-1v1h-1l-1 1-1 1v1h-1l-1 1h-1v1h-3v7-1 4l-1 1v5h-2v2h-1v1h2-3v1h-1v1l-1 1h-2v-1l-1-1v-1h-1v-2 1-2h-1v-2l-1-1v-1l-1-1-1-1v-2l-1-1v-3h-1v-1l-1-1v-1l-1-1v-2l-1-2v-4h-1l1-1v-1l-1 1v-1h1-1v-7h1-2l1-1h-1 1v-1h-2 1v1h-1v1h1l-1 1v1h-2l-1 1h-1v-1h-1l-1-1v-1h-1v-1h-1v-1h-1 3v-1h1l1-1h-2v1h-1l-1-1h-1v-1h-1v-1h1v-1 1h-2v-1h2v-1h6v-3h-1v-1h-1v-3h-2v-2h1v-2h1v-1h1v1h4v-2h1v-1h1l1-1v-1l1-1v-1h1v-1l1-1 1-1v-3h1l1-1v-1h-2v-1h-1 1-1v-4h-1v-1h1-1v-1h1v-1h1v1h5v-1h2v-1h1l1-1h1v2l1 1h1v1h1-1v3h1v3h-2v1l1 1zM678 484v-1 1-1zM601 351v3h1v1h1v1h2-1v2l-1 1v1h-1v1h1l-1 1h1v1h1v2h1v1h1l1 1h1v1l1 1v3h1v2h1v1h-4v2h-1v1h-6l-1-1v-1h-1l-1-1-1-1h-1l-1-1v-1h-1l-1-1-1-1h-2l-1-1h-1l-1-1h-1v-1 1h-1v-1h1l-1-1v-2h1v-1h1l1-1 1-1h2v-1l1-1v-6h2v-1l1-1h1v-1 1l1-1v1h3v1l1-1z"/>
  <path d="M601 342v1h1v1l1 1h3v-1h1v-1h1l1-1h1v1h1-1v3h1v1h1v2h1v1h3v1l1 1h1v1h3l4-1h2-1v-2h3v-2h4v-1h3v1h1v1h3l1 1h1v1l1 1h1v1h3v4l-1 1h1-1v2h-1l1 1h-1v2h1v1h-1v3l1 1v1h-1 1v1l1 1h1v2l-1 1-1 1v1l1 1 1 1v1l1 1h1v1h1v3h2-1v2h-2v1h-2v3h-1v1-1h-5v-1l-1 1-1-1h-3l-1-1h-1v-3l-1-1h-2v1h-2v1h-4l-1-1-1-1h-1v-1h-1l-1-1h-2v-1l-1-1v-2h-1v-1l-1-1v-1l-1-1-1 1-1-1h-1 1v-1h-1l1 1h-1v1h-1v-1h-1v-2h-1v-3l-1-1v-1h-1l-1-1h-1v-1h-1v-2h-1v-1h-1l1-1h-1v-1h1v-1l1-1v-2h1-2v-1h-1v-1h-1v-3l-1-1v-1h-1v-2h1-1v-4h-1 1l1-1h1zm32 43h-1v1h-2 1v-1h2zM431 213h1l1-1h1v1h-1v1h-1 1v1-1l1 1v1h-1v1l1-1h1v1l-1 1 1-1 1 1h1v1h-1v1h1-1l1 1v1h-1v1h-1v1-1 1h-1v1l-1 1h-1l-1 1h-1l-1 1v1h-2l-2 1v1h-1v1h-3l-1-1h-2v-1h-1 1v-1h-1v1-1h-6v-1h2v-1h1v-1h1-2v-1l1-1-1 1-1-1v-1h-5l1-1h3v-1h3v-1l-1 1h-1v-1l1-1h1l-1-1h-3l-1 1h-2v-1h-1 2v-1h-1v-1l1 1h2-1l-1-1h1l-1-1v-1l1 1v-1h1v1h1v1h1v-2h-1l-1-1h2-2v-1h2l1 1 1 1 1 1v2h-1 1v2l1 1v-2l1-1v1l1-1v-3l1 1v1h1v-2h3v1l1 1v1-1l-1-2h2v1h1v-1l1-1v1h2v-1l-1-1h1v-1h1v1h1v1zM513 316l-1 1h1v2h1v1h-1l1-1h-3v1h-2v1l1 1v1h-1v1l1 1 1 1 1 1h1v1l1 1v2l1 1 1 1h1v1h3v2h1l2 1 1 1 1 1h1v1h1v1l-1 1v-1l-1-1h-1l-1-1h-1v1l-1 1v1h1l1 1v2h-1l-1 1v1l-1 1h-1v-1l1-1h-1 1v-3l-1-1v-1h-1l-1-1v-1l-1-1v1h-1v-1h-1v-1l-1-1h-3l-1-2-1-1v-1h-2v-1l-1-1h-1v-4h-1l-1-1h-1l-1-1h-1v1h-1v1h-1v1h-1v-2h-2v-2h1-1v-1l-1-1h2v-1h-1v-1l1-1h2l1-1v-1h1v2h1v1-1l1-1v-1l1 1 1-1v1-2h1v1-2 1h2v-1h3v1h2l1 1h1zm-3 10zm0 8zm-6-4v1h-1v-1h1zm-2 8v6h-2v1h-1v-1h-1v-1h1v-2h-1 1v-1h-1v-2h1l1-1h1v-1 1h1v1zm-4-1zm16 1zm-15 6v1l-1-1h1zm20 3l-1 1v1l-1 1v1h1-1 1v1h-1v1h-1v-1h-1v-1h-2l-1-1h-2v-2h1v-1 1h1v-1 1h5l1-1h1zm-10 6l-1-1h1v1zM469 305v-1zM258 411h3v1h-2 1-2v1-1h-2v-1h-1 1v-1l2 1zM585 368l-1 1h-2l-1 1h-2v1h1v1h1v2l-1 1h-1l-1 1-1 1-1 1h-1l-1-1h-1v-2h1-1l1-1v-4h1v-4h1v1h1l1 1 1-1h1v-1h1l1-1h1l1-1v2l1 1h-1v1h1v-1 1zM879 325l1 1h1l1-1h1v1h-1v2h1v1-1h1v1h-2v1h-3l-1 1-1 1v2-1h-2l-1-1-1-1h-1l-1 1h-1v-1h-1v2h1v1h1v1l-1-1h-1v2h-1v-3l-1-1v-1h1l1-1v-2 1h3v-4l1-1v-2h-1v-2h1l1 1h1v2h1v1h1l1 1h1zm-8-4v-1 1zm0 0v1-1h1-1zm-5 12h1-1zm5 3h1v3l1 1v5h-1v2h-1v1h-1v1h1v3h-1v2h-1v1h1v1h-1v2h-1v1h-1v-1l1-1v-1h-1v2h-2v2h-1v-1l1-1h-1v1h-1v1h-3v-1h-1v1-2 1h-1v1h1v1h-1l-1 1v1h-1v1l-1-1h-1v-2h1v-1h-1l-1-1h-1v1h-3v1h-3v1h-4v-1h2v-1h1v-1h1v-1h1v-1h5v-1h3l-1 1h2v-1h1v-2h1v-1h1v-3h1v1h-1v1h1v1-1h1l1-1h1l1-1v-1h1l1-1v-2h1v-2h1v-3h-1 1v-3h1v-2l1 1v1-1l1 1v-2 1h-1v-2h1v1zm-8 13v-2h1l-1 1h1l-1 1zm-14 5v1-1zm17 5v1-1zm-28 2v-1 1zm16 0h-1v-1h1v1zm-2-1v1-1h-1 1zm0 1h1v2h-1v1h-3v1h-1v1h-1v-2h-1 1-2 1l1-1v-1h3v-1h2zm-14 1l-1-1h1v1zm9 0v-1 1zm-1 0h1-1zm-3 1h2v1h-1 1v3h-1v3l-1 1v-1 1l-1 1v-2h-1v1h1-2v-1h1-1v-2h1v-1h1-1v-2h-1v1h1-1l-1 1v-2 1h1v-1h-1v-1h1v-1h1l1-1 1 1zm-4 0v-1 1zm-1 2v-1h1-1v1zm-1 1v-1 1zm30-1zm-31 1h1-1v1-1zm4 2v-1 1zm1-1h-1 1zm-2 3v-1 1zm3 4v-1h1v-1 1l-1 1zm-1 0h1-1zm-3 7h-1 1v-1h1l-1 1zm0 0h-1 1zm-1 1zm-2 4h-1v1h-1v-1h1l1-1v1zm39 0zm-47 6h-1l1-1v1zm-3 0v1h-1l1-1zm-1 1h-1 1zM595 511zM592 452v1l-1 1-1 1v11h1v2h-1v1h-1v1h-1v2h-1v1l-1 1v1l-1 1h-1v-1h-1v-1h-1l-1-1h-1v-1h1v-1h-2l-1-1h-1v-1h-2v-1h-1l-1-1h-1l-1-1h-1v-4h1v-2h1l1-1v-3l-1-1v-1h-1v-1h1-1v-1l-1-1h1v-1l1-1h1v-1h2v2h1l1 1h3v1h1l1 1h4l1-1h1l1-1h1v1h2zm-2 17zM700 333h-1v1h-2v1h-1l-1 1-1 1h-3l-1 1v1l-1 1v-1 1h-2v-1h-2v1h-1l-1 1h-1v2h-4v1h-1v-1l-1 1v-2h-1v1h-2v-1h-1v1-1 1h-1l-1-1v1h-1v-2h1l1-1h1v1h1v-1h4v-1h2l1-1h-1l-1-1h-1v-1h-1v-1 1h-1v1h-1v-1h-2v-1h1v-1h1v-1h1l-1-1v1-2h2v-1l1 1h2l1 1h1v-2l1-1h2v1h12v1h2v1h2v1zm-25 8h-1v-1 1h1zm1 0zm-3 1v-1 1zM768 434v-1h-3 1v-1h-2v-2l-1-1v-2l-1-1v-1h1v-1l1-1h1v-1h4l1 1h2v1h1v-1h-1v-1h2l1 1v-1h1l1-1v1h-1v2h1v4h-1l-1 1h-1v1h-2v1l1 1v1l-1-1h-1l-1 1v-1 1h-2v1zm-4-3zm1 2zM1003 471h1-1 1-1zm2 1zm0 3zm-3 1v-1 1zm-7 0zM28 452zm932 2zm0 0v1-1zm-927 4h1-1v-1 1zm927 0zm1 0h-1 1zm0 1h-1 1zm0 1l-1 1 1-1h-1 1zm4 5h-1 1zm-14 0zm14 1zm-925 8zm-3 5zm12 16zM597 496h-1v-1h1v1zm3 1v1l-1-1h1zm-2 1h-1v-1h1v1zM299 414zm0 0v1-1zM841 332h1-1v1h-1v1h-1v4h-1v1h-1l-1 1-1 1h-1l-1 1v1h-1v1h2v1h1v2h-4v1h-1v1h-2v-1l-1 1h-1v-1h-1v-1l1-1h1v-1h-1l1-1v-1l-1-1h-2v-2h1v-1h2v-1h1l1-1v-1h1v-1h1v-1 1h2v1h2v-1l-1-1 1-1h3v-1h1v-2h1v1h1v1zm-16 11v-1h1l-1 1z"/>
  <path d="M830 349v-1h1v-1h4v-1l1 2 1 1 1 2v4h1l-1 1v2h-3v1h-1v-1 1h-1v1-1h-1l1 1h-1v-1l-1 1-1 1v-1h-1 1v-1l-1-1h1v-2h1v-1h-1v-2h-1v-1h2v-1l-1-1v-1zm0 0v1-1zm12 1zm-12 3v1h-1v-1h1zm6 6h-1 1zm-2 0v1-1zm-5 0v1-1zm5 1h-1 1zm-5 1v-1h1l-1 1zm2 0h-1 1zm-2 4v-1l1-1h1v1l-1 1h-1zM535 333h-2v1-1h-1v-1h-1v-1h1v-1h1v-1h1v1h1v1h1v1h-1zM610 375v2-1l-1 1h1v2h1v1h-3v-2h-3 1v-1h1v-2h3zm0 1v-1l1 1h-1zM251 407zm-1 0zm-3 1h-1 1zM720 305h-1l-1 1v2h-3v6h-2v1-1h-3l-1-1h-1v1l-1 1v2l-1 1v2h1v1h-6v1h-2v1h2-1 1l-1 1v2h1v3h1-1v1h-1 1l-1 1v2-1h-2v-1h-2v-1h-12v-1h-2l-1 1v2h-1l-1-1h-2l-1-1v1h-2v2h-2v1h-1v1h-1l-1 1h-1v1l-1 1v1l-1-1v-1h-4v-3h-2v-4h-1v-1l-1-1-1-1h-1v1h-1l-1-1h-3v1h-2l-1-1v-1h-1v-1h-1v-1h-1v-1h-2v-1h-1l-1-1-1-1h-3l-1 1h-2l-1 1h-1v14h-2v-1l-1-1-1-1-1-1h-1l-1 1h-2v1h-1v-2h1v-1l-1-1v1l-1-1h-1v-1h-1v-1l-1-1v-2h-2v-2h2v1h2-1v-1h-1v-1l1-1h1v-1h2l1 1h1v-1h-1v-1l1-1v-4h-2l-1 1v-1h-2v-1l-1 1h-2v1h-1v1h-2v1l-1-1h-1v-1h1v-2h-1v-1l-1-1h-3v-2l-1-1v-2l1-1v-1h-1v-1l1-1v-1h1v-2l1 1 1 1v1h2v-2l-1-1h1v-1h1v-1h1v-1h2v-1h1v-1h2v1h1v-1h2v1h3l1 1h1v1l1 1v1-2h1l1 1 1 1 1-1 1-1h4v-1l1 1v-1l1 1h1v1h1l1 1h1v-2l1 1h3v-1l1-1v-1h-2v-1h-2v-1h-1v-1h2l1-1v-1l-1-1h1v-1h3v-1h-2v-2h1-2v-2h6v-1h3v-1h3v-1h4v-1h3v-1h1v-1h2v-1h2l1 1h3v1l1 2v1l-1 1h3v-1l1 1v1h1v-1l1 1h2l-1 1v2l1-1h2v-1h2v-1h1v-1h2l1-1h1-1v1h-1v1h1v1l1 1h1l1 1 1 1v1l1 1 1 2 1 1v1l1 2 1 1v2h1v-1h1v-1h2v1h-1 1v1h4v-1h3v1h1v2h1l1 1v1h1v1h3l1-1v1h1v2h1zm-104 17zm0 1h-1v-1h1-1l1 1zM762 399v1h1v1h1v2h1v1h1v-1h1l1 1v1h1v2h-2v1h-1 1l1 1 1 1h1v1h1v1l1 1v1h1l1 1v1h1v1h1v2h1v2l-1 1h-1v1l-1-1h-2v1h1v1h-1v-1h-2v-1h1v-4l-1-1h-1v-4h-1v-1h-1v-1h-3v1h-2v-1h-1v1h-1v1h-2v-1h1v-1h-1l1-1v-3h-2v-2h-1v-1h1v-1l1-1h1v-1 1h1v1l1-1h-1v-3h1zM576 364h-1v1-1 1h-2 1v-1l1-2v-2h2l1 1-1 1v1l-1-1v2zM304 424h-1 1v-1zM502 314h-1l1-1v1zM699 435h1v1l1 1h1v1l1 1v1l1 1v1h1v2h-1v1h-1v1h-3l-1-1v-7l1-1v-1h1-2v-1zm0 1zm0 2v-1 1zM451 442l1 1v1h-1v1h1l1 1 1 1v4h-1l-1-1-3-1v-1h-1l-2-2h-1v-1h-1l-1-1v-1l1-1 1-1v-1h1v-1h2v2h1v1h-1 1v1h1v-1l1-1v1zM556 551h-2v2h-1v-1h-1v-1h-1v-2h1v-1h1v-1h1l1-1 1 1 1 1v2l-1 1zM550 275l-1 1v1h1v1h-2l-1 1v3h-1 1-2l-1 1-1 1v-1h-2v-1h-1v-1h-1v-2l-1-1h-2v-1h-2v-4l1-1h1l1-1h2l1 1v-1l1 1h3v-1h1v1h1l1 1h1v1l1 1h1zm-16 2v-2 2zM492 301v1h1v2-1h-1v1-1h-1v-2h1z"/>
  <path d="M552 265v1h1v2l-1 1h1v1l1 1v2h-1v1h-2l-1 1h-1l-1-1v-1h-1l-1-1h-1v-1h-1v1h-3l-1-1v1l-1-1h-2l-1 1h-1l-1 1v-4h1v-2l1-2h1l1-1v1l2 1v2h2l1-1v-3l1-1h3v1h1v1h4zM545 370v4h-1v1h1v31h-3v1h-1l-1-1-2-1h-1l-2-1-1-1h-1l-2-1-1-1-1-1h-2l-1-1-1-1h-2l-1-1-1-1h-3l-1 1-1 1h-1l-1-1h-1v-1h-3l-2-1v-1l-1-1h-1l-1-1h-2v-2l-1-1v-1h-1v-1h1v-1h1v-1h-1v-2l1-1v-1l-1-1 1-2h-1v-2l-1-1 1-1h1v-1h1v-1l-1-1v-1h1v-1h1v-1h1l1-1v-2h1l1 1h6v1h2l1 1v2h1v1h3l2 1h1l1 1 1 1h3l1-1v-5l1-1h1l1-1h2v-1 1h3l1 1v1h2l1 1h2v1zM469 358v1h1v6h1v1l1 1-1 1h-4v1h-1l-1 1h-1v1l1 1h-1l-1 1h-2v1l-1 1h-1v1h-3v1-1h-1v1h-2v1h-1l-1 1v4h-13v-1h1l1-1h2l1-1 1-1h1v-1l1-1 1-1 1-1v-1l-1-1v-2l1-1 1-2v-1l1-1 1-1v-1h1l2-1h1l1-1 1-3 1-3h1l1-1v1l1 1v1h5v-1h1v1h1zM496 327zM554 320v-6h-1v-1h-1v-2h-1v-2h-1v-1h4v1h2v1h1v3h1v1l1 1v2l-1-1h-2v3h-1v1h-1zM614 498l1 1v2l1 1v4h1l-1 1v1h-1v-1h-1v1l1 1v1h-1 1l-1 1v3l-1 1v2l-1 1v2l-1 1v3l-1 1-1 2v3l-1 1v3h-1v1h-1l-1 1h-2v1h-1l-1-1h-2v-1h-1v-2h-1v-2l1-1h-1v-2l-1-1v-1l1-1v-1h1v-2h1v-2h1v-2h-1v-3h-1v-3l2-2v-1h1v-1h3v-1h1v1-1l1-1h1v1-2h1v-1 1h1v-1h1-1v-2h1-1v-1h1v1l1-1 1-1v-2h1v-1l1 1zm-3 3h-1v-1h1v1zm4 10v-1 1zM529 328l1 1h1v1h1v1h-1v1h-1v-1 1h-1v2-1h-1l-1-1v-3h1v-1 1-1h1zM298 412zM943 432zm6 10v1h-1v-1h1zm6 1h1-1zm1 0h1-1zm-5 4v-1 1zM538 332v1h1v4h-3v1h-3v-1l-1-1v-1l1-1v-1h3v-1h2zM487 409v7l-1 1v2h-1v1l-1-1h-1v1h-5v1h-3l-1-1v1-1h-1l-1 1-1 1h-2v1h-2v2h-1v-1 2h-1l-1-1h-1v2h-1v2h-2v3h-1 1v1l-1 1h-2 1-1v-1h-1v1h-4 1-1v-2h-1v-1l-1-1v-2h-1l-1 1h-3v1-1h-2v-3h-1v-1h-1v-3l-1-1h2v-2h1l1 1h1v-1h1v1h1l1-1h11l1-1v-1l-1-1v-5l-1-1v-9h-1v-9h-1v-1h6l1 1 1 1h1l1 1 1 1h1l1 1v1h1l1 1 1 1h1l1 1h1l1 1 1 1h1v2h1l1 1h1l1 1h2v3h2zM793 399h1-1zM759 401v1h-1l-1 1v1h-1v1h-2v1h-1v1h-3l-1 1v2h-1v1h1v2h1v1h1v2h1v2h-1v1h1l-1 1h-1v1h1v1h1v1h1v4h1v4l-1 1-1 1v2h-1v-2l1-1v-6h-1v-2h-1v1-4 1-1h-1v-5h-1v-1l-1-1v1l-1 1h-1v-1 2h-1v1h-1v1h-1v-1h1l-1-1v1h-1v-1 1-2 1h-1v1h-1v-2h1v-5l-1-1v-2 1h-1v-1h-1 2l-1-1v-1h-2v-1 1l-1-1h1-1v-1 1l-1-1v-2h1v-2h1v-3h1v-3h2l1-1v-1l1-1v-1h-1l1-1v-1h1v-2l1-1h1v-1h3v-2h1v-2h2v2l1 1h1v5h-1v1h-1v1h-1v4h3v2l1 1h1v2h-1v1h2v1h1v1h1v-1h2zm-23 5zm1 0v1-1zm1 1v1h1-1v-1zm0 3h-1v-1h1v1zm11 7h-1v-1h1v1zm-9 1v-1 1zm1 0zm10 8v1-1zm0 2v-1 1zm-1 0zm0 1v-1 1zm1 0v1-1h1-1zm-1 1zm1 0v1-1zm0 1h-1v-1h1v1zm0 1zm0 0v1l-1-1h1zm-1 3h1-1zM802 302v2l-1 1v1l-1 1v2h-1v1l1 1h1v-1h2v1h2v-1h3v1h1v1h1v1h1v3l-1-1h-4v1h-2v1h-1v-1l-1 1-1 1v1h-1v1h-4v2h-2v1h-2l-1-1h-3v4h1v1h-1v1h-2v1l-1 1v1h-2l-1 1h-7l-1 1h-1l-1 1h-2v1h-2v-1h-4l-1-1h-2v-1h-1v-1h-15v-2h-1v-1l-1-1v-1h-1v-1h1-2l-1-1-1-1h-1v-1h-6v-1h-2v-1h-1v-1h1v-5h-1v-2l-1-1v-1h-1v1-1h-2l-1-1h-1v-1h-1v-1l-1-1h1l-1-1h1v-1h1v-1 1-1h1v1-1h1v1-1h1l1-1h-1l1-1h2v-1h1v-1h2v-1h2v-1 1h2v1h4v2h2v1-1h1v1-1h2v1h4v-1h1v-1h1v-1h-1v-2h-1l1-1v-1h1v-1l1-1v-1h1l1 1h1l1 1h3v1h3v4h1v1h2v1h1v-1l1 1v-1h3v-1h2v1h3v1h3v2h1v1h3l1 1h3l1-1h2l1-1h2v-1h1v-1h2v-1h2l1 1 1 1h1v-1h1l1 1zM884 410zm0 2v-1 1zm0 5zm0 3zm0 1h-1l1-1v1zm-1 2h-1 1zM304 422h-1 1-1v-1h1v1z"/>
  <path d="M461 391h-5v1h1v9h1v9l1 1v5l1 1v1l-1 1h-11l-1 1h-1v-1h-1v1h-1l-1-1h-1v2h-2v-1h-1v-1h-1v-1h-1v-1h-2v-1h-6v2h-1v-1l1-1v-2l1-1v-3l-1-1v-2 1-4h-1v-1h-1v1-2h11v-5h1v-1h2v-8h10v-4h1v1h1v1h1l1 1h1v1h1l1 1h1v1h2v1zm-32 16v-1 1zM300 416v-1zM515 355zm1 1h-1v-1l1 1zM637 521h-1v-1h1v1zM681 451zm0 3zM573 495h-1v2h-1v1h1v3h1l1 1v1l1 1 1 1h-1v3l-1 1v2h-1v-1h-1v-1h-1v-2h1v-3h-3v-1l-1-1h-1v-3h1-1l1-1h1-1v-4h1-1v-1h1v-2h-1v-1h-1v-1l1 1h3l1 1v4h1zm-1 2zm0 0zM202 388v1l-1 1v7l-1 1v1l1 1v1h1v1h-1l1-1h-1v-1 2l1 1v1l1 1 1 1v1l1 1v1h1v1-1 1h1-1 3v1h5l1-1h2v1h1v-1h1-1l1-1h-1 1l1-1v-1l1-1v-3h1l1-1h3v-1h3v1h1v-1h1v3h-1v1l-1 1h1-1v1-1 1h1l-1 1v3h-1v-2 1h-1v1-1l-1 1v1h-6v2h-2 1v1h1v1h1v2h-4v1h-1v3l-1-1-1-1-1-1-1-1h-1v-1h-1 1v1l-1-1h-2 1-1l-1 1h-1l-1 1h-2l-1-1h-1l-2-1h-1v-1h-3l-1-1h-1l-1-1h-1l-1-1-1-1h-2l-1-1h-1l-1-1-1-1h-1l-1-1h-1v-1h-1v-2h-1 1v-1h1-1v-1h1v-1l-1-1-1-1v-2h-1v-1l-1-1-1-1v-1h-1l-2-2h1v1-1h-1l-1-1h1l-1-1h-1v-1h-2v-2h1-1v-1h-1v-1h-1v-1h-1v-1h-1l1-1h-2v-1l-1-1h-1v-1h-1v-2h-1v-2h-1v-2h-1l1-1h-1 1v-1h-2v-1h-2l-1-1h-1 1v1l-1 1 1 1v3h1v1h1v1h1v2h1v1h1v2h1v1h1v1h1v2-1l1 1v2h1v2h1v3h1v1-1h1v1h1v1h1v2h-2v-1h-1v-1h-1v-1h-1l-1-1-1-1-1-1v-4h-1l-1-1h-1v-1l-1 1v-1h-1v-1h-1v-1h-1l-1-1h2l1 1v-1h-1 1-1v-1h1v-1l-1-1-1-1-1-1h-1v-1h-1v-2h-1v-2h-1v-2h-1v-1h1-1v-1h-1v-1h3l1-1h3v1h1l1 1h2l1 1h1l2 1h1l1 1h8v-2h5v1h1v1h1l1 1v1h1l1 1v2h1v1h1l1 1h2v-1l1-1h4v1h1v1l1 1v1l1 1 1 1v1h1v2l1 1v1h2l1 1h2zm-49-18v-1 1zm4 8l-1-1h1v1zm3 0v1h-1v-1h1zm-17 1v-1 1zm9 2h-1v-1h1v1zm11 7zm-3 4v-2 2zm5-1h-1 1zm-4 2v-1 1zm6 0h-1 1zm9 8zm56 1h-1 1zm-1 3v-1 1zm-67 5h-1v-1l1 1zm54 0h-1 1zM804 443h-1l1-1v1zm1 8h-5l-1 1v3l-1-1v2l-1 1v1l-1 1h-6l-1 1h-4v1-1h-1v-1h-1v-1h-1l1-1v1h2v1h2-1l1-1v-2h1v-1h2l1-1h1l1-1v-1h1l1-1v-1l1 1v1h1v-3h1v2h1l-1-1v-1h1v-2h2v-1l1-1 1-2v1l1-1v1l1 1v1h1v1h2l1 1h1l-1 1h-2v1h1v1h-3zm-44-6l1 1 1 1h1v1h1v7l1 1 1 1v1l1 1h-1v-1 1h-2l-1-1h-1v-1h-1l-1-1-1-1h-1v-2h-1v-2h-1v-5h-1v-2l1 1h1l1 1-1 1h1l1-1v1h1v-2zm-6 0zm1 3zm50 3h-1 1zm-47 4v-1 1zm8 0zm21 1h-1v-1 1h1z"/>
  <path d="M567 541h-2v-3h-1v-1h1v-4h-1v-2l-1-1v-4h1v-1h1v-1h1v-2l1-1v-1h1v-1h-1v-4h1-1v-5h-1l-1-1h-2v-1h-3v-3h2v-1h3v-1h2l1-1 1 1v1h3v3h-1v2h1v1h1v1h1v-2l1-1v-3h1v-1h-1l-1-1v-1l-1-1h-1v-3h-1v-1h1v-2h4v1h2v-1h1v1h1l1-1h2l1-1h3v-1h1v-1l1 1v1l-1 1v1h1v3h-1 1v5h1v1h-1v2h-1v1h-1v1l-1 1h-1v1h-2v1h-2l-1 1h-1v1h-1v1h-1v1l-1 1v-1 1h-1l-1 1-1 1h-1v3h1v2l1 1v2-1h1v3l-1 2h1v1h-1v2h-2l-2 1-1 1h-2v2h-1 1v1-1 3zm5-44zm0 0zM541 513h1l1-1 1 1h2-1l-1 1h-2v1h-1l-1-1h-2l-1 1h-3v11h-3v20h-1l-1 1h-5v-2h-1v-1l-1 1v1h-1l-1-1h-1v-1l-1-2v-1h-1v-4l-1-1 1-1-1-1v-4l-1-1v-1 1h1v-1l-1-1v-1l-1-1v-1l-1-1-1-2v-1h-1l-1-3-1-1v-1h-1v-3h2l1-1h2v1h14v1h2l1 1h7l1-1h2zM924 518v-1 1zm12 3h1l1 1h1v1h1v1h1l1 1 1 1 1 1h-2v-1h-1l-1-1h-1v-1h-1v-1h-1l-1-1v-1h-1v-1l1 1zm6 1v-1h1-1v1h1-1zm3 1h-1v-1 1h1zm1 1h1v1h-1v-1zm-1 4v-1 1zM517 397v4h1v1l1 1v1l1 1-1 1v6l-1 2v2l-2 1-1 1v1l-1 2-1 1v2h-1v1h-2v1h-2l-1-1h-3v1h-1l-1 1h-3v-1h-1l-1-1-1 1h-2l-1-1v-1h-5l-1 1-1 1v1h-1v3h-1v-1l-1-1h-1v2l-1-1v-2h-2l-1-1v-1h-1v-1h-1v-2h-1v-1h3v-1h5v-1h1l1 1v-1h1v-2l1-1v-8h4l1-1v-1h1l1-1h1v-1l1-1h1l1-1 2-1 1-1 2-1 1-1 2-1 1-1 1-1 2 1h3v1h1l1 1h1l1-1zM946 548z"/>
  <path d="M513 424l1 1v1l1 1v1h1v3h-2v1h-1v2l-1 1v1h-1v2l-1 1h-1v3h-1v1l-1 1v1h-1v-1h-1v-1l-1 1h-1v-1 1h-1v1h-1v1h-1v2l-1 1v1l-1-1v1h-3v1h-1v-1 1h-1v-1 1h-1 1-2v-1h-1v-2l-1-1h1-1v-1h-1l-1-1h-2v-1 1h-3 1v-4h-1v-1h1l-1-1h1v-2h1v-2h1v-1h1v-1h-1v-6h1v-1l1-1 1-1h5v1l1 1h2l1-1 1 1h1v1h3l1-1h1v-1h3l1 1h2v-1h2v-1h1zm-18 27v-1 1zM242 421h-1v3l-1 1 1 2-1 1h1-1v-1 6h-1l-1-1h-4v-1l-2-1v-1h-1l-1-1-1-1v-1l1 1v-1h1l1-1h-1v-1h2v-1l1 1 1-1h1v-2h1v1h1v-1 1-1h3zM490 286h-1 2-1zm1 0h1-1zm2-1h-1v1l1-1zm-4 1v1-1zm5-1zm-8 10h-2v1h2l1-1h-1zm9-9h-5v1l-1 1h-1v2l-1 1v1h-1v1l1 1h-1l1 1-1-1h-1v1h4l1 1h1v2h1v-1h-1 1v-4h2v-2h1v-1h-1v-1h1v-3zm-10 8h1v-1l-1 1zm3-6l1-1h-1v1zM547 175v1h1v1h-1l-1-1 1-1zm15 12v2h-1l-1-1v1h-1v1l-2 1v1l-1 1v-2l1-1v-2l-1-1-1-1h-1v-1l-1-1-1 1-1 1-1-1-1 1v1h-1v1l-1 2v4h-1v1l-1 1h-1v-1h-1l-1-1v1h-1l-1 1v-1h-2l-1-1v-1l-1-1v-1h-2v2-1h-1v1h-2 1v2l-1 1 1 1-1 1h-1l-1-1h-1l-2-1v4l-1 1-1-1h-1l-1 1-1 2v1h-1v1l1 1v1l-1 1-1 2v1h-1v2l-1 1h-1v6h-1v2l-1 1-1 1 1 1 1 1v1l-1 1h-3l-1 1-1 1v13h1l1 1v2h-2v1l1 1v4h-1v1h-1v5h-1v-1h-2v-4l-1 1h1l-1 1v2l-1 1v-1 1l-1-1v1h-1v1l-1 1-1 1-1 1h-1v1h-3v-1 1l-1-1h1-1l-1-1-1-1-1-1v-1h3-1l-1-1h1v-2h1-1l-1 1h-1v1h-1v-2h1v-1h2v-1h-1l1-1v-1l1-1v1l1-1v-1h1-1l-1 1h-1v1h-1v1l-1 1v1h-1v-1l1-1h-1 1l1-1h-1l-1-1v-1h1l1-1-1 1-1-1v-2h5l1 1v-1l1-1v-1h-1v1h-2v1l-1-1-1 1h-1l-1-1v-1h1v-1h-1v-2h1l1 1h2l1-1h-5v-1l1-1v1-1l1-1h3-2v-1h4v-1h2-4v-1h1l1-1h2v1h1l-1-1v-1h1v-1h-1v-1h1l1-1 1 1h-1v1h1v-1h2v1h2v-2h1l1-1h-1 1v-1h-1v2l-2 1h-2v-2h1v-1l1-1 1-2 1-1h1v-1h1-1v-1l2-2v1h1l1-1v-1 1h-2v-2l1-1v-1h1v-2h2l1-1h-2v-3h1v-1h1-1v-1h1v-1h2v-1h2-3l1-1v-1h2v1h1v-1h-1v-2l-1 1h-1v-1l1-1h2-1v-1l1-1h1v1l1 1v-2l-1-1h1l1-1v1h1l1-1h-3v-1h1v-1h1l1-1v-1l1-1h1v-3l1 1h1l-1-1h1v-1l1-1 1-1v4-1l1-2v-1l1-1v4l-1 1h1v-1h1v-3h1l1-1 1 1h1l-1-1v-1l-1-1h1l1-1v1-1l1 1v-1h1v1l1 1v1h1l-1-1v-1h1v-1l1-1 1-2v-2l1-1 1 1 1 1v-1h1v1l-1 1v2l-1 1v2h1v-2l2-2 1-2v-1h1v2h-1l1 1v1h1v-2l1-1-1-1h1v-1h2l1 1v1h-1l-1 1h1v4-2h1v-2l1-1h1v1h1l1 1v-1l1 1 1 1 1 1v1h-2v1h-4l2 1v2h2v-1 1h2zm-21-9v1h-1v1h-2v1l-1-1v-1h2l1-1h1zm1 2v1l-1-1v-1h1v1zm-1 0v2h-1v1-1h-1v-1h1l1-1zm-11 3h1v1h-1v-1zm-1 1v1l1-1v1l-1 1v1-1l-1 1v1l-1 1h-1v-2h1v-1 1-1l1-1v-1l1-1v1zm4 0h-1v-1h1v1zm26 3h-1v-1h1v1zm-35 1v1l1-1v1h1v1h-1v2h-1v-1 1l-1 1-1-1h1v-2h1v-1h-1 1v-1zm-5 8h1v-2h1v2h-1v2h-1v-1 1h-2l-1 1h-1v-1h1l1-1 1-1v-2h1-1v-1l1-1v-1h1v1l-1 1 1 1v1l-1 1zm-1-3v3h-2v-1 1h-1v-1h1v-1 1l1-1v-1h1zm-4 6h1-1v1h-2v1-2h1v-1h1v1zm-3 2v1-2h1v1h-1zm-1 14h-1l1-1v-1 2zm0 1v-1h1l-1 1zm-2 1v1-1h1-1zm-2 6h-1v-1h1v1zm-7 7h-1 1v-1l1 1h-1zm-1 2h-1 1zm-9 14h-1v-1h1v1zm0 4v1-1zM722 382v5l-1-1v1h-1v-1 1l-1-1h-4v-1h-2l-1-1-1-1h-2v1l-1-1h-2v-1h-2v-1h-1v-1h-2v-1 1l-1-1v-2l1-1v-1h2v-1h2v1h1l1 1h1v1h1v1h1v-1l1 1v1h1l1 1h1v1h2v1-1h1v1h1v-1l1 1h3zM943 464zM1009 517h-1 1zM991 599h-1v1-1h-1 2zm0 2zm-30-34h1l1 1v-1l1 1v1h1v1h-1 1v2l1 1h-1v1h2v1h1v-1h-1v-2 1h1v1l1 1v2h2l1 1h1v-1h1v-1h1l1 1v1h-1v2h-1v2h-2v1h-1 1v2h-1v2h-1v1l-1 1-1 1-1 1v-1h-1v-1 1h-1v-1h1v-2h1v-1l-1-1v-1h-2v-1h-1v-2h2v-3h1l-1-1h1l-1-1v-2 1h1v-1h-2v-2 1l1-1h-1v-1 1l-1-1v-1 1l1 1h-1v-1l-1-2v-1 1h-1v-2l-1-1v-1h1l-1 1h1v1zm7 5h-1v-1l1 1zm-7 18v-1h1l1-1v2-1h1-1l1 1v-1 1h-1l1 1h-1 1v1h-1v1l-1 1-1 2-1 1h-1 1v1h-1 1v1h1l-1 1v-1h-2v1h-2v1h-1 1l-1 1v3h-1v2l-1 1v1h-1l-1 1h-4v-1h-2v-1 1h-2v-2l-1 1v-1h2-1v-1h1-1v-1h1v1-2l1-1v1-1l1-1v1-2h1v-1h2v-1l1 1v-1h1v-1h1v-1h1v-1h1-1 1l1-1v1-2h1v-3h1l1-1v-2l1-1h1v1h1v2zm2-2zm-19 17h-1 1zm-1 1v1h-1v-1h1zm4 5v1-1 1h-1v1h-1v-1h1v-1h1zm-6 17h-1 1v-1h1-1v1zm9 8h-1 1zM633 389h-1v-1h1-1l1-1v2zm0 1zm-9 26v-1h-1v-2h-1v-2l-1-1v-1h1v-1h3v-1h2l1-1h1v-1h1v-3h1v-3h-1v-4h1v-1h1v-1h-1 1-1v-1h1-1v-1h1v1l1-1v1l1 1h1v1l2 1h3v1l1 1v1h2v1l-1 1v2h-1l-1 1v1h-1v1h-1v-1 1h-1v4h-2l-1 1v1l-1 1h-2l-1 1v1l-1 1h-3l-1 1h-1zm16-11h-1 1v-1 1zM258 439h-1 1v2l-1 1v-1 1h-1v1-1l-1-1v-1l1-1v1h1-1v-1h-1v1-1h-1v-1h-3v1l-1 1h-1v1h1v1h-1v1h-1v-1l-1-1v1-1h-1v-1h-4v-2h1-1v-2h1l1 1v1h1v-1 1h4l1-1h1v-1h2v1h3v1h1l1 1zm-14-2zm9 3v-1h1v1h-1zm0 0zm-7 2h-1 1zM279 475h-6v1h-1v1h-2v2l-1 1h1v1h-1v1h-1v2h-1 1v2h1v1l1 1v1h-1 2l1 1v1h3l1-1h1v-1 5h3v1h1v2h1v2h-1v3l1 1h-1v1h-1v1l1 1h-1v1l1 2h1-1v1l-1 1-1 1h1v1h-1v2h-2l-1-1h-1v-2h-2v-1h-1v-1h-2l-1-1h-1l-1-1h-1v-1l-2-1h-1v-1h-1v-1l-1-1v-2l-1-1v-1l-1-1v-1h-1v-2h-1v-2l-1-1-1-1v-2h-1v-2l-1-1v-1h-1v-1l-1-1v-1h-1l-2-2h-1v-1h1v-1l-1-1v-2l1-1v-1h1v-1h1v2h-1v1h3v2h1v-1h1v-2h1v-2 1h1v-1h-1 1v-1h2l1-1h1l1-1 1-1 1-1v-2 1h1v-2h-1v-1h2v1h1v2h2v1h1v1h1v2h1v-1 1h1l1-1h3l1 1h1v2h-1v1h-1l1 1h1v1zM82 488h-1 1zm1 0zm-1 1zm3 1v1l-1-1h1zm0 1h-1 1zm1 1zm-18 16v-1 1zm7 0zm-8 1h-1v-1 1h1zm-17 1zm22 0zm0 0zm-22 1v-1 1zm4 2v-1h1l-1 1zm2 0v1-1h-1v-1l1 1zm24 1v-1 1zm0 1l-1-1 1 1zm10 0zm-10 0zm12 1v-1 1zm-6 6zM906 495v1-1h-1 1zm2 0h-1 1zm-10-2zm1-2h1-2v-1l1 1zm-2-2h1v1h-1v-1zm0 1l-1-1h1v1zm6-2h1v1l-1-1zm-25-1h-1v-1 1h1zm21 0v1-2 1zm-21 0l-1-1h1v1zm12-8v-1 1zm23 3h-2v-1h-1 1-1v-1h-1v-2h1v1h1v1h1v1h1v1zm-25-4h-1l1-1v1zm21 0v-1 1zm-24-2h-1 1zm16-1h2v1h-1v1h-1l1 1h-2v1h-1v1h-3l-1 1v-1h-2v-1h-2v-1h3v1-1h2v-1 1h3v-1h2v-1l-1-1h1zm5-1zm-3-2v-1 1zm-1-1h-1 1zm-1 0v-1 1h1-1zm-22 3h2l1 1h1l1 1v2h1l1 1h2v1h2v2h-3l1 1v1h1v1h1l1 1v1h1v1h2v2h2-1v1h2v1h1-1 1v1h-2v-1h-3l-1-1h-3v-1h-1v-1h-1v-1h-1v-1h-1v-1l-1-1h-2l-1-1h-1v1h-1v-1h-1l1 1h-1v1h-4 2v1h1v1h-1v1h-5v-7h-1v-1h1v-11l2 1 1 1h4v1h1v1zm25 2l-1-1v-1l-1-1h-1v-1h-1v-1h-2v-1h1v1h2v1h1v1h1l1 1 1 1h-1v1zm-7-6h-1 1zm-7-1zm-2-1l1 1v-1 1h-3v-1h2zm7-1zM817 404v-1 1zm0 1zm-1 3zm-1 1v-1 1zm2 0zm-2 1l1 1h2v-1 4h1v1h-1v2h-1l-1 1v4l1 1 1 1v-1h2v1h1v-1 1h2-1v2h1v2-1h-1l-1-1v-1h-1l-1-1v2-1h-1l-1-1h-1l-1 1v-1h-2v-1h1v-2h-1v1h-1v-2l-1-1v-2h1v1h1v-8h2zm2 11v1-2 1zm1 2h-1 1zm6 2h-1v-2h1v2zm-12-1zm5 1h1l-1 1v-1zm-3 0h1v1h1v2h-1v1-1h-1v-2h-1v-1h1zm7 2l-1-1 1 1zm1 1v-1 1zm-4 0l-1 1v-1l1-1v1zm0 0zm4 0l1 1v1l-1-1h-1v-1h1zm4 0h1v3l1 1h-2v-1l-1-1h1-1v-1h-1v-1h2zm-7 0h-1 1zm-7 1h1-2v-1h1v1zm0 1h-1v-1h1v1zm7 0h1v1h1-1v1l-1 1h-2v1-3l1-1h-1 2zm6 0v1-1zm0 1h-1v-1l1 1zm0 0h1v4h-1v-3h-1v-1h1zm-14 0zm-7 8v1-2h1v-1h1l1-1 1-1 1-1 1-1v-2 1l1 1v1h-1l-1 1h-1v2h-2v1h-1v1h-1zm18-8v1-1zm-1 5v1-2h1v-2l1-1v-1 3h-1v1l-1 1zm-1 2v-1h-1v-1h-1v-1h2v-3h2v1h-1v4l-1 1zm-1-4v-1 1zm5-1zm-13 1v-1h1l-1 1zm17 1h-1v-1h1v1zm-3 1h-3v-1h1l1-1v1h1-1 1v1zm1-1h1-1v-1 1zm3 1l-1-1h1v1zm0 1v2h1v4l-1 1v1-1h-1v-2 1h-1v2l1 1-1 1h-1v-1 1l-1-1h-2v-5h-2v1h-1v-1 1-1h-1v1h-1v2h-1v-2h1v-2h2v-1h3v1h-1 2v-1h1v-1h2v-2h1v1h1zm-1-1zm-6 1h-1 1zm3 0zm-21 3zm-1 1v-1 1zm17 1zm8 1v1-1zm-10 2h-1v-1h1v1zm-3 1h1l-1 1v-1h-1 1zm-3 2v1h-1l1-1zM685 352h1l1 1v-1 1h1v2l1 1h2v1h2l-1 1h-1v1h-2v1h-5v-1h-1v1h-1v1h1-1v1h1v4h1-1 1v1h2v1l-1 1h-1v3l-1 1-1 1v1h-1v1h-1v2h-1v1h-1v1h-1v2h-4v-1h-1v1h-1v2h-1v2h2v3h1v1h1v3h-6v1h-2v1-1h-1v1-1h-1v-1l-1-1-1-1v-2h-2 1v1-1l-1 1h-12v-3h2v-1h2v-2h1-2v-3h-1v-1h-1l-1-1v-1l-1-1-1-1h2l1 1h9v-1h3v-4h1v-1h3v-1h1v-1h2v1l1-1v-2h1v-2h2v-2l-1-1h3v-2l1-1 1-1v-2h-1v-2h1v-1h2v-1h7zM530 281h10v1h1v3l1 1v3l-1 1h-1v1l1 1v4h1v1h1v1h-1l1 1h-1l-1 1-1 1v1h-1v1h-1l1 1v1h-2v-1h-6v1h-1v-2h-1v1h-1v-1l-1-1h-1v-1h-2l1-1h-2v-1h-1v1h1-1v1h-1v-1h-1v-1h1v-1h-1v1-1h-2v-1h-2 1v-2l-1-1v-5h-1v-5l1 1v-1h-1v-1h1l2-1h2v-1h1v-1h2l2-1h2l1 1h-1v-1 2h3zM317 315v-2 2zm0 0zM115 533zM289 411h2-1v1h-4v-2h3v1zm2 1v-1h1l-1 1zm-7 0zM571 371v-1h1l-1 1zm4-2v1h-1v1h-1v-1l1-1h-1v-2h2v2zM427 366h1-1zm-22-14h-1 1zm-2-3h1-2l1-1v1zm-7-2h-1v-1l1 1zm-1-1h-1 1zm2 0h-1l-1-1 1 1h1zm2 0h-1v-1h1v1zm-11-3h-1 1zm64-9h5l-1 1h1v1h-1v1h-1l1 1v2h-1v1h1l-1 1h-1v1l1 1v1l-1 1v1h1v1h-1v3l-1 1-1-1h-2v1-5h1l-1-1-1 1v-1l1-1v-1l-1 1v1h-1v-2h1v-1l1-1v-3l1-1v-1l-1-1v-2l1-1h1v1zM853 442h-1 1v-1 1zm-10 12zM312 520v3h1l-1 1v2h3v1h1v-1h1v1h1l1 1v4h2v-1h1v1h1-1v1h1l-1 1v4l-1 1v2h-2v1h-2v1h-3l-1-1h-3l1-1v-1h1v-2l1-1v-2h-2v-1h-2l-1-1-1-1h-2l-1-1h-1v-1h-1l-1-1v-1h-1v-1h-1v-1l1-1v-3l1-1v-2h1l1-1h7l1 1h1v1zM619 392h-2l1-1-1-1v-1h1v-1l1-1v1h1v1h-1v1h1v1l-1 1zM631 524h-1v-1l1-1v1h1v1zM554 320v1h2l1-1h1v3h-2 1l-1-1h1-1v2h-1v3h-1l-1-1h-1l-1-1h-1l-1 1h-1l-1 1h-5l-1-1h-1l-1 1v-1h1l-1-1h-1v-1h1l-1-1-1 1v-1h-2v-2h-1l-1-1v-2h-1v-1h2v-1h1v-2h1v-1l1-1v-1h2v-1h1v-1l1 1h3l1 1h1v-1h2l1-1h2v2h1v2h1v1h1v6z"/>
  <path d="M530 317h2v1h1v2l1 1h1v2h2v1l1-1 1 1h-1v1h1-1v3h1v2h-1v2h-2v1h-1v-1h1v-1h-1v-1h-1v-1h-1v1h-2v-1h-1l-1-1v-1 1l1-1-1-1h1l-1-1v-3h-1v-1h1-1v-3h2v-1zM627 65l-1-1v-2l1 1h1v1l-1 1zm-7 102l-1 1v3h1v1h5v2-1 1l1 1h1v1l-1-1v1h-1v2h2v1h4v1h1v-1 1-1l1 1h1l-1-1h1l1 1h1v-1h1l-1-1h-1v-1l-2-1-1-3v-1l-1-2v-1l-1-1v-1l1-1-1-1v-3h1v-1l1-1h1v-4h-2l-1-1h-3v1l-1-1-1 1-1 1v2h1-2l-1 1v1h1v4h-1v1h-2v1zm2-98h4v-1l-1-1v-1l-1-1-1 1v1h-1v1h-1l1 1zm9-17l2-1v1h1v-1l1 1 1 1 1-1 1-1-1-1v-2h2v-1l-1-1h-1v-1h-2v1l-1 1-1 1-1 2-1-1v3zm-3 7v1h3v2h2l1-1 2-1 1-1-1-1-1-1-2-2h-2l-3-2v2l-1 2v2h1zm10-17h1l2-1 1-1-1-1-3 1v1l-1 1h1zm-25 22h-2v-1h-2v1l-1 1-2 2v1l1 1h1v-1h1l1 1-1 1v1h1v-1l1 1v-2l1 1v-4h2l1-1v-1l1-1h2v-1l2-1v-1h-1l-1-3h-2l-2 1h-1v6zm3-10h1l1-1v-1h-1v1h-1v1zm-4 135h-1v2h-1v2l1 1v1h2l1-1 1-1v-1h1v1-2l-1-1-2-1h-1zM602 63h2v2h1v-1l1-1h1v-1h1v-2l1-1v1l1 1 1 1h1v-2l-1-1v-1h-1l-1 1-1-1-1 1-1 1h-1l-3 1-1 1h1v1zm16 10l1 1v-3h-2v1l-2 1h3zm-3-2v-1l1-1-1-1-1 2 1 1zm37-15l-1 1v1h-1l1 1 1 1v1h1l3-1 1-2 2-2h-1v-3l-1-1h-2v3l-1 1h-2zm-21 15h4v-5h-1v1h-2v3l-1 1zm-1-2l1-1-1-1-1 1v1h1zm11-19l1-1h-1v-1h-1l-1 1h1l1 1zm-3 4v-1l-1 2-1-1-1 1 1 2h1v2h3v-4l-1-1h-1zm3 8v2l1 1h1l1-1 1 1h1l1-1 1-1v-1h1v-2l1-1-1-1-1-1-1 1h-1l-1 1h-1v-1h-2v2l-1 2zm1 125h3v-2h-1l-1-1-1-1v-1h-1v-1h-1v1h-1v2h1v2h2v1zm16-66h-1l-1 1-3 1-1 1h-2l-2-1h-1v1h-1v2h-1v-1l-1 1-1 1-2 1h-1v1l-1 1-1 1-1 1v2h-3v1h1l-1 2h-1v-1h-1v2h1v1l-1 1-1 2v1h1l-2 1-1 3v1l-1 1-1 1h-1v1l1 2v2l1-1h1l1 1h5v-2l1-1v-2l1 1v-3l2-1v-1l1-1h-1v-2l1 1 1-1v-2l1 1h1v-1h1v-1l1-1-1-1 1-1h1v-1l1-1v-1 1l1-1 1-1 3-1 1-1h1v-1h1l2-1h1l1-1 2-1 1-1h1v-1h1l1-1 1-1 1-2 1-1v-4h-1l-1-1h-2l-2 1-1 1-1 1v1l-1 1-1 1zm-23-57v3l1 2v1l1 1 1-1v-3h3v-1l-1-1h-1l-3-1h-1zm11-8l1-1 1-1-1-1-2 1-1 1h-1l1 1h2zm4-13h1v1h3v-2h-4l-1 1h1zm-10 29l1 1h1l1-1v-1l-1-1-2 1v1zM539 280v-1l-1-1h-2v-1h-2v2l-1-1v-1h1-1v1h-2v2h-1v1h9v-1zm85-105v-1l-1-1h-1v1l1 1v1h1v1-2zM749 69l-2 1-2 1v-1 1l-1-1-1 1-1 1-1-1v1l-1 1-1 2v1l-1 1-1 1-1 2 1 1h1l1 1 1 1v3h1l1 1 1-1v1l1 1 1-1 1 1h1v1l1 1h2l1 1 1-1h2l1-2v-2h-1v-2l-1-1 1 1 1-1v-7h1l-1-1v-1l-1-1v-1l-2-1-1 1v2h-1v1l-1 1v-3l1-1v-1l-1-1v-1zm-3 55v-1h-1v1l-1-1-1 1v-1l-1 1h1l1 1h1v-1h1zm1-1l-1 1 1 1v-2zm8-46v2l1-1v-1h-1zm-7 42v1h1l-1-2v1zm29-8v-1h-1v2l1-1zm-21-18v4l-1 2h-1v3h2l1-1 1-1 1-1h4l1-1h2l2-1h1l1-2 1-1-1-2v-2h-1l-1-1v-1l-1-1v-1l-1-1-1 1v1h-1l-1 1v2h-1v-1l1-3v-1l1-1v-1l-1-1-1-1v3h-1v-2h-1v2h-1v1l-1 1h1l-1 1v4h-1l-1 1v1zm17 6l1-1v-1l-1 1-1 1h1zm-35-24v-1l-1-1-2-1h-1l-2-1h-1v1l-1 1 1 1v1l1 1 2 1h2v-1h1l1-1zm-20 65h1v-2h-1l-1 1v1h1zm163 166l-1-1v-2h-1v-3l-1-1v-4l-1-1v-8l-1-1v-4h-1v1h-1 1v4h-1v-1l-1 1v5h-1v2h1v1l1 1v9l-1 1v3l1 1v2h-1v2h1l-1 1v4h1v-2h1v-1h1v1h1v2h1v-3h-1l-1-1v-2h-1v-3l1-3v-1h1v-1h2v1h1v1h1v1-1zM713 144v-1h-1v1h1zm-4 4h1l-1-1h-2l1 1h1zm23-80h1v1h1l2 2 2 1 2-1v-1h1l3-1 4-1v-2l-1-2v-2l1-1h2v-2h-1v-1h-1l-2-2v-3l-1-1-1-1v-1h-2v2l-1 1h-1l-1 1h-1v1h-2v2h-1v2h2l-1 1-1 2v1l-1 1h-1l-1 1v3zm42 32h2l1 1v-2h-3v1zm-31 14l1 1h1v-1h1v-2l-2 1-1 1h-1l1 1v-1zm-16-61l4 1 1-1v-1h-1l-3-1-1 1v1zm129 80h1-1l1-1v-1l-1-1v-1h-1v5h1v-1zm3 2l1 2h1v1l1 1v1l3 1v1h1v-2l1-1v-1l1 1 1 1v-1h2l1-1h2v2h1l1-1 1-1-1-1h-1v-1l-1-2v-4h2v2h-1v2l1 1v1l1 1h3l2-2-1-1v-1h1l1-1v-1l-5-3-1 1h-1l-1-1-2-2v-1h-1l-1 1v1l-1 1v3h-1v-2h-1l-1-2h-1v-1l-1-1v-1h-1l-1 1-1 1v1h-1v2h-1v5h-1v1zm67 43v-1h-1v1h1zm-32-59v-2l-2 1v1h-1 3zm-7 18l1 1h1l1 1 1 1h4l2-1h1v-3 1h-1v-1h-1l-1-1h-3v-1l-1-1h-2l-1 1h-1v-2l-1-1v2l-1 1v2l2 1zm17-12v-1l-1 1 1 1v-1zm73 53h1l1-1h3l2-1h2l1-1v-1h-1v-1l-1-1h-1l-1-1h-1v1l-1-1-1 1h-1v1l-1 1h-1v1l-1 1 1 2zm-50 13v1l1 1v1-6 1h-1v2zm19-4h1v1h3v-2l-3-1-1 1v1zm-156-67v1h1v-2h-2v1h1zm65 27h1v1l1 1v1-2l-1-2h-1v1zm-31 3h1v-1h-1v1zm43 4v1h1l1-1h1l1 1h1l2 1h4v-2l-1-1-2-3-1-1h-1l-2 1-1 1v1l-1 1v1h-2zm-55 4v-1h-1v1h1zm57-9l2-1v-2h-3v2l1 1zm-163-1h1v-1h-1v1zm156 23h-2v2-1h1v1l1-1v-1zm-136-59l1-1h-2v1h1zm216 166l-1-1h1-1v-1l-1 1h1v2h1l1 1v-1h-1v-1zm-33 26l1-1h-1v1zm-5 7h1-1zm9-13h-1v1l-1 1h-1 1v1l1-1 1-1v-1zm1-1l-1 1h1v-1zM704 134v1l1-1v1-1h1v-1l-1-1v1h-1v1zm207 164h1v-1h-1v1zm-9 15v1h-1v1-1l1-1zm5-7v1-1h1-1zm-22 22zm1-1h-1 1zm-1-3l-1 1v1h-1v1-1h1v-1h1l1-1h-1zm-1 4zm9-8h-1l-1 1h-1v-1 1l-1 1-1 1-1 1h1v-1h1v-1h1l1-1h2v-1zm4-3l-1 1h-1v1l-1 1h1v-1h1v-1h1v-1zm-10 9l-1 1h1v-1zm11-69h-1v1h1v-1zm39-1l-1 1-2 1h1l-1 1v1l1-1 1-1h1v-2zM689 79h1v1h3l-1-1-2-1h-2l1 1zm0 74h-1l1 1h1l-1-1zm-1 1v-1h-1l-1 1h2zm-4 5v1l1-1h-1l1-1v-1h-2v2h1zm13-100l2-1h1v-1h1l-1-1h-3v3zm-25 99l1-1h3v-1l-1-1v-1l-1-1-2 1-1 1v3h1zm24 3h2v-3l-1-1-1 2v2zm250 119v-1h-1v1l2 1-1-1zM692 162v1l-1 1v1h2l1-1 1-1-2-1h-1zm167 116v1h1v-1h-1zm3 0l-1-1v1h-1v1h1v1h1v-2h1-1zm147-64h-2 1v-1h-2 1v-1l-1-1h-1l-1-1v-1l-1-1h-2l-1-1v1h1-2v1-2h-4v1h2v2h-1v1h1l1 1h-1v1-1h-1v1-2h-2v-1l1-1v-1h-1v-2l1-1h-2v-2l-4-3-1-1h-1v-1l-2-2v1l1 1v1-1l-1-1h-1v-2h-1l-1-1h-1v-1h-1l-2-2h-1v-1l-1-1h-2l-1-1h-2l-1-1-1-1h-7v-1l-1 1h-1l-1-1h-1l-3-1h-2v3l-1 1h2v3l1 1v1l-1 1h-2l-1 1-1-1v-2h-1l-1-1h-1v-3l-1-1h-1l-1 1-1 1h-2l-1-1h-3l-1-1h-4l-1 1h-1l-1 1-1 1v4l-1 2h-1 1l1-2v-1h-1v-4l-1-1-2-1h-1v-3h1v-3l-1-1v-1l-1-1-2-1-2-1h-8l-2 1-1 1h-4l-2-1v-1h1l-1-1-1-1-1-1h-1l-1 1-1 1 1-1v-1h1v-1h-2v-1h-2v-1h-1v-1h3v-1l-1-1-1-1-1-1h-5l-1 1-1 2-1 1-1 1h-2v-2l1 1 1-1v-2h1v2l1-1 1-2h-5l-2 1v-1h1v-1h4v-1h-2l-1-1h-2l-2-1h-4l-2-1h-1l-1-1v1l1 1v1l-1 1h-4l-1 2v1h3-1v2h-1 1v2l1 2h-1l-1 1-1-1-1-1v1l-1-1v1h-1v1l1 1h-1v1h-1v-1l-1-1-2-2h-3v1h-2v1h-3l-1-1v-1l-1-1v-1h-1v-1 1l-1 1v2l-1 1v3l-1 1v1h-1v1l-1-1v-1h-1l-1-1-1-1-1-2v-1l-1-1h-1l1-1h1v-2h-1v2l-2-3-1-2-1-1h1l1 1 2 2h1v-3l-1-1h-2 1v-1l1-1h1v-1h-1l-1-1h1v-3h-2v-1h-1v-1h-1l-2-1v1l-1 1h-1v-2h-1v1h-1v-1l-2-2h-2v1h-2v3l1 1v1h-1v2h-1l-1-1v1h-5l-1-1-2 1-1-1-1-1-2-1v-2h2v-1h-2l-3-1h-2l-3-1-2 1-2 1h-2l1 1v1h1-1v3l-1 1v2h1v1h-1v-1h-1v-1l1-1v-4l-1-1 1-1v-3l-1-1v2h-3l-1-1h-1v-1l1-1h-1v1h-1l-2-1-1 1v2h3v1h-1l-2 2h-2v1h-2v1h-1l-1 1h-4v2l-1 1h-2 1v-1l2-4h2l1-2v-1h3l2-4h1l1-1v-2h1l1-1 1-1 1-1 2-1 1-1 2-2 2-3v-3h-1v-1h-1v1l-1-2-1-1h1v-1 1l1 1h1v2h1v-4l-1-3v-1h-1v2h-1v-4h-2v-2l-1-1-1-1h-9v2l-1 1h-3l-1-1h1l1-2 1-1v-2l-1-1-1 1-1-1-1 1-1-2-1 1-3-1h2l2-1 1-2h1l-1-1v-1h-2l-1-1v-1l-2-1-1 2-1-1-1 1-1 1-3 4-1 1v1l-1 1v2l1 1-1 1v1h1l1 1v1l-1-1h-7l1 1 1 1v1l1 1v3l-1 1v-1l1-1v-1h-1v-1h-1v-1h-1l-1 1h-1v1h-1v1l-1-1v1l-1 1h-1v-1l-2 1h-1l1-1 1-1-1-1h-4v1l-1-1-1 1h-2l-1 1 1 1v-1l1 1v-1h1v1l1-1v1h-2l-2 1-1 1h-1l-1 1h-4l-2 2-2 1-1 1-2 2-1-1h-1v1h1v2l-1 1v1h-1l-1-1v1h-1v1h1l1 1 1 1 1 1h-1l-1-1h-1l-1 1 1 1h1l2 4h1l-1 1-1 1-2 1-1 1v1h1l1 2-1-1-1-1v-1l1-1v-1l1-1 1-1h-4v1h-3l-2 1h-6l-3 1v5h1v2l-1 1v1l1 1v1h2v1h2v2l1 1v1h2v5l-1 2 1 1v1l1 1v2l-1 1-1 1v1h-1v-1l1-1v-5h-1l-1 2v3-1l-1-1 1-1v-5l2-1v-3h-4l-2-2v-1h-1v-1h-2l-1-2h-4v1l-1 1h-1v1h2v1l-1 1-2-1v-1l-2 1h-1v1l1 1v2l2 1 1 1h2l1 2v1h1l1-1v1h-3l-1-2h-4l-2-1h-1v-1l1-1v-1l-1-2v-1l1-2v-5l-1-1h-1v2l1 1v3h-1v1l-1 1h-2v1l-2 4 1 1v1l1 1 1 3 1 1-1 1-1 2-1 3v1l1 1v4h4l1-1h1l2 1 2 1v1h1v2l1 1v2h-1v1l-1 1 1 1 1 1h2v1h-3v-1h-1l-1-1 1-1v-4l-1-1-1-1v-1l-1-1h-1l-1 1h-1l-2 1v4l1 1v2l-1 1-1 2v1l-1 1v1l-1 1-3 2v2h-2l-1-1-3 1-1-1-1-1h-1v-2h2l1 1h1l-1 1h2l1-1h1l-1-1v-1h2l2-4 1-1v-4l1-1v-2l-1-1-1-1v-1l-1-1 1-2v-3l-1-4 1-1v-7l-2-1v-3l1-1v-1l1-1v-7l-1-1h-1l-1-1h-6 1l-1-1v1l-1 2-1 3-1 4v2l-1 2-2 1-1 1-1 1v1h1l-1 1v1h2v3l-1 1v1l1 1-1 1-1 1v2l1 1v-2l2 1v1h1v2l1 1v1h1v1-1h1v1l-1 2-1 2-1-1h-1v-1l-2-1v-1h-1l-1-1h-1v-1h-1l-1-1h-1v-1l-1-1h-1l-2-1-2-1h-3l-2-1-1 1-1 1v1l1 3h1v2l-1 1h-2v3h-2v-3h1l-1-1v-1h-1l-1 1h-1l-2 2h-6v1l-1 1v1h-1v-1l-1 1h-3v-1h2v-5h2-2l-1 1-2 1-1 1 1 1-1 1h-1v-1h1-1v-1l-1 1-1 1h-2l-1 1-1 1-2 2h-1v-1 2h-2l-1 1v4h-1l-2 1h-2l-1-1v-1l-1-1-1-1v-1l1-1 1-1h3v-1l-1-1-1-2v-1l-1-1h-4l-2-1v1l2 2v3l-1 2v4h1l1 1v2l-1 2v3h-1v-1h-1v-1l-1-1h-2v-1h-1v1l-1 1-1 1-1 1h-1v1l-1 1-1 1-1 1h1v1l1 1v2h-1v1h-2l-2-1h-1v-1l-2-1-1-1-1 1v1h-1v1h1v1l1 1v1h2v1l1 1-1 1h-3l-1-1-1-1-1-1h-1l-1-1v-3l-1-1v-1l-1-1h1v-2l1-1-1-1-1-1v-1h-2v-1l-1-1v-1h-1v-1l-1-1v-1h-2 3v1l1 1 1 1v-1l1 1h2v1h-1 2l1 1h1l2 1h3l1 1h4l2-1 2-1 1-3 1-1v-2h-1v-3l-1-1h-1v-1l-1-1v-1h-1l1 1h-1l-2-2h-1v-1l-2-2-3-2-2-2h-5v-1h-2v2h-1l1-1v-2l-1 1h-1l1-1h-2l-1-1h3v-1h-1l-1-1-1-1v1h-1v1h-2v2h-1l-1-1v1h-1v1l-2 1v2h-2v1h1v1l-1 1v3l1 1h1l1 1 1 1v2l-1 1v1h-1v2h-1v1h1v2h1v2l1 1v3h-1l1 1-1 1v1h1v1h-1v2h1v3h1v1h1v1l-1 1-1 1 1 1 1 1 1 1 1 1v3l-1 1v1l-1 1h-1v1l-1 1-1 1v1l-1 1h-1v1h-1v1l-1 1-1 1h1l1-1v2h1v1h3v1h1v1h-1l-1-1h-1l-1 1h-1v1h-1v-1 3h-1v1l-1 1v5h1v1h-1v2h1v2l-1 1h1v1h1v3h2v1-1h1v2h1v-1h2l1 1h1v1l-1 1h1v2h-1l1 1v1h1v1l1 1v1h2v1l1 1h-1v1h-3v2l1 1v2h1l1-1h4v1h1v4h2l1 1v2h1v1-1h1v1h3l1-1v1l1 1 1 1v-1h1l1 1h2v1h1v1h1-1v1h-1v1h1-1v1h1v3h-3v1h-1l-1 1v2l1-1h1-1 2v1h-2v1h-2v1h1v1l1 1h-2v1l-1 1h1l-2 1v-1h-1v1h1-1l1 1h1v1h1l1 1 1 1h1l1 1 1 1 1 1h4v1h5v1h1l1 1h4v1h1v1h1v1h2l1 1v1h1l1 1v-1h1v-1h1v-1l-1-1v-1l-1-1v-1h-1v-3h1v-1l-1 1v1-3h-1v-1h-1v-1h1v-1 1-1l1-1v-2l1 1v-1h1l1-1h1l1-1-1-1h-1v-1h1v-2h-1v-1l-1-1h-3v-2l-1-1v-2l1-1v-1h-1v-1l1-1v-1h1v-2l1 1 1 1v1h2v-2l-1-1h1v-1h1v-1h1v-1h2v-1h1v-1h2v1h1v-1h2v1h3l1 1h1v1l1 1v1-2h1l1 1 1 1 1-1 1-1h4v-1l1 1v-1l1 1h1v1h1l1 1h1v-1h4v-1l1-1v-1h-2v-1h-2v-1h-1v-1h2l1-1v-1l-1-1h1v-1h3v-1h-2v-2h1-2v-2h6v-1h3v-1h3v-1h4v-1h3v-1h1v-1h2v-1h2l1 1h3v1l1 2v1l-1 1h3v-1l1 1v1h1v-1l1 1h2l-1 1v2l1-1h2v-1h2v-1h1v-1h2l1-1h1-1v1h-1v1h1v1l1 1h1l1 1 1 1v1l1 1 1 2 1 1v1l1 2 1 1v2h1v-1h1v-1h2v1h-1 1v1h4v-1h3v1h1v2h1l1 1v1h1v1h4v-1 1h1v2h3v-1h1v-1 1-1h1v1-1h1v1-1h1v-1h1-1l1-1h1l1-1h1v-1h2v-1h2v-1 1h2v1h4v2h2v1-1h1v1-1h2v1h4v-1h1v-1h1v-1h-1v-2h-1l1-1v-1h1v-1l1-1v-1h1l1 1h1l1 1h3v1h3v4h1v1h2v1h1v-1l1 1v-1h3v-1h2v1h3v1h3v2h1v1h3l1 1h3l1-1h2l1-1h2v-1h1v-1h1l1-1h2l1 1 1 1h1v-1h1l1 1h1v1h4v-1l1-1h2v-1h-1v-1h1v-2h1v-1l1-1v-1l1-1 1-1v-1h-1l1-1h-1v-1l-1 1v-2h1l1-1v-1h4v-1 1h1l1-1h2l1 1h1v1h3v1-1l1 1v1h1v2h1v3h1v3l1 1v2h1v3h3v1h3v1l1 1h1v1l1 1v3h5v-1h1v-1h3l1-1h1v4h-1l-1 1h1l-1 1v3h-1v2h-1v1l-1 1v1h-1v-1h-3v1h-1l-1 1h1v7h-2v2h1v-1h1l1-1 1-1h1v1h1l1 1v-1 1h1l1-1h1l2-1 1-1v-1h1v-1l1-2h1v-1h1v-1h1v-1l1-1 1-1 1-1v-1l1-1v-1l1-1 1-2v-1l1-1 1-1 1-1v-1l1-1v-5h1-1v-3l1-1v-3h1v-1h1v-2h-1v-3h-1v-1l1 1 1-1v-1h-1v-1h-1l-1-1-1-1-1-1h-2l-1-1v4h-1l1-1v-1h-1v1l-1 1h-2l1-1 1-1h-2l1-1h-1v2h-1l-1-1h1v-3h-5v-2h1l1-1 1-1h1v-1h1v-1h1v-1h1l1-2h1v-1l1-2h1v-1l1-1h1v-1h1l1-1 1-2v-1h1l1-1 1-1v-1l1-1 1-1h3l1-1 1 1 3-1 1 1v1h1v-1l1-1 1 1h2l1-1h1l1 1h1v-1l-1 1v-1h2-1v-1h1v-1h1l1 1h1l1 1h-1 1l1-1 1 1 1 1h1l-1 1h-2l1 1h2v-1h1v1h1v-1h1v-1h1l1 1h1v-1l1 1h1v-2h-2v-2l1-1 1-2 1-1 1-1 1-2 1-1 1-1v-1l1-1h4l1-1h1v1h1l1-1h1v2h-1v3h-1v1h1v-1h1v1l-1 1h2v-1h1l3-4h1v-1 1l1-1v1h1v-1h-1v-1l1-1v-3l3-1h1v1h1l1 1h-3v1l-1 1v5l-1 1v1l-1 1h-1l-2 1v1l-1 1-1 1-1 1-1 1-1 1-2 2v2h-1v1l-1 1h-1v1l-1 1h-2v1h-2v3l-1 1-1 1v1l-1 3v1l-1 2v1l1 2v4l1 1v5l1 1v5l1 1v1l1-1 1-1v-1h1l1-1v-1l1-1v-3h1v-1h3v-2l-1-1 1-1v-1h1v-1l1-1h1l1 1 1-1 1-1v-1h-1v-4l1-1v-1h1v-1h1v1h-1l1 1h1v-3h-1v-4l1-1v-1l-1-1h-1v1h-1v-1h-1l1-1v-1l1-2 1-1v-1h1v-4h1v-1h2l-1 1 1-1h1v1h1v-2h2l1-1v-1h1v1l-1 1v2h1v-1l1-2h1l1-1h5l1 1v1h1v1h1v-1l1-1v-1h1l1-1 1-1h1v-1h1v-1h1v-1h1l1-1v-1h3v-1l2-1 1-1 2-1 1-1h1v-1h1l-1 1h2l3 1v1h1v-2h1v-2h-1v-2h-1v-2 1h-1v-6h-1v1h-1v-1l-1-1v-2l-1 1h-3 1v-1l-1-1v1h-3l-1 1 1-1h2l1-1 1 1h2v-1h-1l-1-1h1l1 1h1v1l1 1h2l2-1h1v-1l1-1 1-1v-1h1v-2h-1v-3h1v-2h1v2-1h1v-1 3h-1v1h1v2h6l1 1 1 1v2l1 1h2v1h1l1 1v1h1v-1h1v1h1v-1 1h1v-2h-1v-1h-1 1v-1h2v-2h-1 1v-1h-1v-1h1-1l-1-1h1l1 1h3v-1h-1v-1l1 1h2v-2h2v-1zm-220-71v2h-1v1h1l1 1h1l1-1h1v-2l-1-1h-3zm-128 35v2l1 1v-1l-1-1v-1zm11 32h-2v1h2v-1zm-8-21v-1l-1 1h1zM561 466h-1 1v2l1 1h-1v1h-1v-1 1h-1v-1 1l-1 1h-1v-1h-1v1-2h1v-2h3v-1zM605 378h3v2h3v1l1 1v1h1v1h1v1h1l1 1h-1 1v1h-1v1h1v2h1v2h2v1h1v2h1v1h1v1h2l1 1h5v1h1v3h-1v3h-1v1h-1l-1 1h-2v1h-3v1h-5l-1 1h-4l-1 1h-1v1h-1v1l-1 1v1h-2v-1h-9v-1h-1v3l-1 1v-2h-1v-1l-1-1-1-1-1-1v-1l-1-1v-2h-1v-1l-2-1h-1v-1l-1-1v-2h-1v-2h1v-1h-1v-2l-1-1-1-1h-1v-1h-1v-1l-1-1v-2h-1v-1l-1-1v-1l-1-1v-1h-1v-1l-1-1v-1h-2l1-1v-3h1l1 1h1l1-1 1-1 1-1h1l1-1v-2h-1v-1h-1v-1h2l1-1h2l1-1h1l1 1h1l1 1h2l1 1 1 1h1v1l1 1h1l1 1 1 1h1v1l1 1h5zm-27 11h-1v-1h1v1zm0 1v-1h-1 1l1 1h-1zm15 26v-1 1h-1v-1h1v1zM917 483v1h-1v-1h-1v-1h-1v-1l1 1h1v1h1zm-5 0v-1 1zm12 4h-1v-1h-2v-1h-1v-1l1 1h1l1 1 1 1zm-9-2h-1v-1h1v1zm1 1l-1-1h1v1zm-2 0v-1 1zm4 0v1h-1v-1h-1l1-1v1h1zm8 0l1 1v2h1v1l-1-1h-1v-3zm-3 1v-1 1zm-6 0h-1l1-1v1h-1 1zm2 0h-1 1zm0 1v-1 1zm-2-1v1-1zm5 1h-1 1zm2 0h1v1-1h-1zm-1 1h2v1h1v1h-1v-1h-2v-1zm5 1v-1 1zm1 2h1v1h1-3v-1h1zm12 1h-1 1zm-15 3h-2v-1l1 1h1zm17 0v-1 1zM631 476h-1 1zM563 400h15v1h1v6l1 2v1h1l1 1 1 1v1h-2v1h-1v1h-1v1h-1v4h-1v6h-1v1h-1v1h-1v1l-1 1v3h-1v-1 1h-1v3h-1v-2l-1-1h-1v-4h-3l1 1v2l-1 1h-1v1l-1 1-1 1h-1l-1-1-1-1-1 1v1h-2v1h-3v-1h-4l-1-1v-1h-3v1l-1 1v2h-1v1h-1l-1-1v-4h-1l-1-1v-2h-1v-4h-2v-1h1v-2l1-1v-1l1-1v-2h2v-1l1 1v-13h3v-6h18v-1 1zM543 216h-3v1l-1-1h-1l-1 1v1h-1v1h-1l1 1h-1v2h-1v1h1v3l-1 1-1 2-1 1-1 1h-1v1-1 1l-1-1v1l-1 1h-1v1h-1l1 1h-1v1-1h-1v2h1-1v1h-1v-1 5h-1v6h1v1h1l1 1h1v1l1 1v2h-1v1h-1l-1 1v-2h-1l1 1h-1v-1 1l-1-1v1l-1-1v1l-1-1v1h-1 2l1 1h4v-1 1l-1 1-1 1h-1v1h-1l-1 1-1-1-1 1h2v3h-1v2l1 1-1 1v3h-1v2l-1 1v-1h-1v1l-1-1h-1v1h-1v3h-1l-2 1-1-1v-2l-1-1v-1h1v-1h-1 1v-1l-1-1-1-2v-1h-1v-3h-1v-2h-1l1-1-1-1v-2h1v1h1v-5h1v-1h1v-4l-1-1v-1h2v-2l-1-1h-1v-13l1-1v-1h4l1-1v-1l-1-1-1-1 1-1v-1l1-1v-1h1v-6h1l1-1v-2h1v-1l1-2 1-1v-1l-1-1v-1h1v-1l1-2 1-1h1l1 1 1-1v-4l2 1h1l1 1h1l1-1-1-1 1-1v-2h-1 3v1l1 1 1 1 1 1h1l1 1 1 1v1h1v5h1v1h-1v1l1 1v3l-1 1v1l1 1v1l1 1zm-16 39zm0 2l-1 1v-1h1zm2 6v1h-1v-1h1zm-1 1v2l-1 1-1 1v1-4l1-1h1v-1 1zm-7 8v-2l1-1v-2h1v-1 1l-1 1v1l-1 3zM767 459h-1 1zM435 485h-1 1zm24 23zM521 316h-1 1-1v1h-1v2h-1v1h-2v-1 1h-3 1v-1h-1v-2h-1 1v-1h4v-1h3v-1h1v2zM450 178h-1l1-1 1-1v-1h2l-1 1v1h-1l-1 1zm79-34l-1 1v-2h1v1zm7-51v1h1v5h1l1-1h1v1l1 1h-1v2l1 1 1 1 1-1 1 1 1 1-2 1-1 1v2l-1 1h-2v1h-1v-2l1-1h-1v-1l-1 1h-1l-2 1-1-2h1l1-1v-2l1-1-2-1v-1l-1-2v-3h-1v-1l2-1 1-1h1zm14 0l-1-1v-2h1v2h1l-1 1zm-44 0l1 1v1l1 1v1l1 1v1h-1v-2l-1-1h-1v-1l-1-2v-4l1 1v3zm50-4h2l-1 1-1-1h-1l-1 1h-1l1-1h1v-1h1v1zm-34-15v-1h1l1 1 1 1v6l-1 1 1-1 1-2v-1h1v1l1 1v3h-1v1h1v1h2l1 2v-2l1 1h1v1l-1 1 1 1 1 1 1 1v1h-2l-1 1h-2v1l-1 1v2h-1v4h-1v3l-1 2v2h-1l-1 2v3l-1 1v5l-1 1-1-1-1-1-1-2-2-2-1-1v-1h-1v-2h-1v-2l1-1h1v1l1-2 3-1 2-1h1l-1-1h-1l-1 1h-1v-1l-1 1h-1v1h-3v-1l-1-1v-2h1l1 1v-1l2-1 1-1h1v-2h4v-1h-2v-1l1-2h-1l-1 1v1h-2v-4 1l-1 1v-1h-2l1 1v1l-1 1h1v1l-1 1-1 1h-3v-1l-1-1v-1l-1-2h-1v-3l-1-1v-1l2 1 1-1h-1v-1h-1v-2l1-1v-1h-2v3h-1v-4l-1-1v-6l1 1v1-1l1-1h1l1 1v1-2l1 1h1l1-1 1-1 1 1v2h-3l-1 2h2v1l1 1 1 1v1-4l1-1v-1l1-2 1 1v1l1 2v3l1 2v1l2 3v-2l-1-3-1-3v-4l1-1v-4h1v1l1 2zm44-4l-2 1-1-1 5-1v-1h1v1l-3 1zm-39-3v1h-1v-2l1 1zm7 1h1l1 1v1l1 1h1v-6h1v-1l1 1v4h1l1-1v-1h1v-1l1 1v1-1l1 1h1l1 1h2l1 1h1v4l-3 3v2l-1 2v1h-1l-1 1v-1h-1l-1 1v1l-1 1-3-1v-3l-3 1h-3v-1h-1l-1-1-1-1v-1h2l1-1v-1h-2l-1 1h-1l-1-1h-1v-1l-1-1v-1h1v-1h1l-2-1-1-1 1-1h2l1 1h1l-1-1v-2l1 1v1-5h1v1l1 1 1 1 1 1zM538 305v2h-1v1h-2v-1l-1 1-1-1-1 1v1h-3l-1 1-1 1h-3v-1h-1v-1l-1-1v-1h1v-1h2v-1h1v-1h1v-1h1v1h1v-1h1v2h1v-1h6v1h1zM446 439v1h-1v1l-1 1-1 1v1h-1v-1h-1l-1-1v-1h-1v-1h-1v-1h1-1v-2h1v-1h1v-1h4v1l1 1v3l1-1zm-6 3h-1 1zM510 326zM440 421l1 1v3h1v1h1v2h-5v-1h-6v1h-4v-1l1 1v-1h-1v1-2h2l1-1h3v1h2v-1h-2l-1-1h-1l-1 1h-3v-2l-1-1-1-1v1-1h1l1-1v-2h1v-2h6v1h2v1h1v1h1v1l1 1zM591 468v-2h-1v-11l1-1 1-1v-1h1v-1h2l1-1h1v-1h5v-1l1-1 1-1 1-1 1-1 1-1 1-1 1-1h1-3v-1h-2l-1-1h-3l-1-1h-2v-1h-1v-1h-1v-1h-1v-3h1v-1h1v1l1 1h1v1h2l1-1h4l1-1h3l1-1h5l1-1v-1l2 1-1 1v3h1v-1 1h-1v3h-1l-1 1v2l-1 1v1h-1v1h-1v3l-2 2-1 1v1l-2 2-2 2-2 2-3 2-2 1-1 1v1h-1l-2 2v1h-1l-1 1v1h-1v1zM323 448h-1v4h1v3l-1 1h-5v1h1v1h-2v-1h-1v-2h-1v-1h-1v-1l-1-1v-2h1-1v-1h2v-2h1v-1h2l1 1v-1h4l1 1v1z"/>
  <path d="M570 435v1h1v3h-3v2h1l1 1v1h1l1 1v1h1v2h1v1h-1v1h-1l-1 1v1h-1v1h-4v1h-2v-1 1h-1v-1h-1v1h-1v-1h-1l-1-1-1-1h-1v1h-1v-1h-1v1h-1v-1h-1v-1h-1v-1h-1v-1l-1-1h-1v-2h-1v-1h-1l-1-1v-1h-1v-1h-2v-2h1v-2l1-1v-1h3v1l1 1h4v1h3v-1h2v-1l1-1 1 1 1 1h1l1-1 1-1v-1h1l1-1v-2l-1-1h3v4h1l1 1v1zM496 459l-1-1h1v1zm-2 4h-1v-1h1v1zM224 422h1v1h1v1h3v1h-1v1h-2 1-2l-1-1h-1l-1-1 1-1h1l-1-1h1zM298 412zM594 351l-1 1v1h-2v6l-1 1v1h-2l-1 1-1 1h-1v1h-1l-1 1h-1l-1 1h-1v1h-1l-1 1-1-1h-1v-1h-1 1v-2h-1 1v-2l1 1v-1l1-1-1-1h-1v-3h-1v-1l1-1v1-1h1v-1h1-1v-1h1v-1h1v1h2v-1h2v1h3l1-1h1l1-1h5zM565 538v4h-3v-1h-1v-2h1v-1l1-1 1 1zM273 400v1-1zm1 1h-1v-1l1 1zm-2-1v1-1zM542 407v12l-1-1v1h-2v2l-1 1v1l-1 1v2h-1v1h2v4h1v1h-2v1h-1v1h-1v1l-1 1-1 1h-2v1h-3v1h1-1v1h-2l-1 1h-2l-1 1-1-1-1 1h-2l1-1h-1v-1l-1-1v-1h-1l-1-1-1-1 1-1h4-1v-1l-1-1v-5l-1-1v-1h-2v-1l-1-1v-2l1-1 1-2v-1l1-1 2-1v-2l1-2v-6l1-1-1-1v-1l-1-1v-1h-1v-4l1-1h3l1 1 1 1h2l1 1 1 1h2l1 1 1 1 2 1h1l1 1 2 1h1l2 1 1 1zM620 610v-1 1zm49 11l1-1v1h3v1h-1 1-2v1h1v-1 1h-4v-4h1v2zm0 0v-1h1-1v1zM477 432v2h1v1h1v10h1-1v1h-1v-1h-1v-1h-1v-1h1v-1h-1l1-1v-2h-1v-3 1-3h-1v-2h2zM756 405h1v2h2v3l-1 1h1v1h-1v1h2v-1h1v-1h1v1h2v-1h3v1h1v1h1v4h1l1 1v4h-1v1l-1-1h-4v1h-1l-1 1v1h-1v1l1 1v2l1 1h-1v-1h-1v-1h-1v-1h-3v-2h-2v1l-1 1 1 1v1h-1v1l-1 1v2l-1 1v2l1 1h-1 2v2h1v1l1 2v1-1h-1v-1 1l1 1h1v1h2l1 1v2h-1v-1l-1 1h-1l1-1v-1h-2l-1-1v1l-1-1v-1h-1v-1h-1v-1l-1-1h-1v-4l1-1v-2l1-1 1-1v-4h-1v-4h-1v-1h-1v-1l-1-1h1l1-1h-1l1-1v-2h-1v-2h-1v-1h-1v-2h-1v-1h1v-2l1-1h3v-1h1v-1h2zm6 24zm1 1zm-7 6l-1-1h1v1zm0 0l-1 1v-1h1zm-5 2v-1 1zm0 3v-1 1zm1 0l-1-1h1v1zm1 1zm2 3l-1-1h1v1zM674 340h-1v1h-1v-1h-1l-1 1h-1v2h1v-1l1 1h1v-1 1-1h1v1h2v-1h1v2l1-1v1h1v-1h4l-1 1h1v2h3v4h1l-1 1v-1h-2v1h-1v-1h-2l-1 1v1h-2l-1 1v-1h-1v-1l1-1v-2h-1v-1h-2v1h-1v2h-2v1h-2v-1 1h-1v1h-1l-1-1v-1l1-1v-1h1v-1h-1v-2h-1v-1h-1v-1l1-1 1 1h1v-1h1v-1 1-2h-1 2v-2h1v1h1v-1h1v-1h1v2h-1v1h2zm-1-3v1-1zm0 5v-1 1zM1001 487zm4 2zM828 486h-1 1zm-2 4v-2h-1 1v-1h4l1-1h1v1h-2v1h-2v1h-2v1zm-3-1h1-1zM662 350h-3v1h-2v1l-1 1v1l-1 1h-2v1h-1v1h-1v1h-2v-1h-2v-4h-3v-1h-1l-1-1v-1h-1l-1-1h-3v-1h-1v-1h-3v1h-4v2h-3v-6h-1v-1h-1v1-2 1h1v-2h-2l1 1-1-1v-4h1v1h2v1l1-1h1v-1l-1-1v-1l-1-1v-1h-2v1h-1v3-2l-1-1h1v-1h2l1-1h1l1 1 1 1 1 1v1h5v-3h2v-1h2-1v-1h2l1 1h2v2h1-1v1h1-1v1h3l1 1v-1h1v1h1v2h1v2h1v1h1l1 1 1 1 1 1h1v1h2v1h2l1 1h1v2zm-38-5v-1 1zM507 365v2l-1 1h-1v1h-1v1h-1v1l1 1v1h-1v1h-2v-4l-1-1v-1h-1v-1h-1v-2h-1v-1l-1-1v-1l1-1v-1h1v-7l1-1h1v-1h1l1-1v1h2l-1 1h1v1-1h1l1-1v2h-1v1h-1v1l1 1h1v2l-1 1v1h-1v1h-1v1l1 1h1v1l1-1v1h1-1v1h1zm0-6l-1 1v-1h1zm-1 4h-1v-1h1v1zM997 516zm-3 7v1l-1-1h1zm0 1z"/>
  <path d="M554 334h-1l1 1v1h2v1h-4v1h-1v1h-1l-1 1v1h-1v-1h1v-1h1-2v-1h1v-2h1v-1h-1v-1h1l1-1h1v1h2zm37 1h1v1l1-1h1v1-1h1v1h1v1h1v1h1v1h-1v1h1-1l1 1h2v1h1-1l-1 1h-1 1v4h1-1v2h1v1l1 1h-1l-1 1v-1h-3v-1l-1 1v-1 1h-6l-1 1h-1l-1 1h-3v-1h-2v1h-2l-1-1v1h-1v1h1-1v1h-1v1-1l-1-1h1v-2h-1v1h-2v-1h-1l-1 1-1 1-1 1h-3v-1h-1v-1h-1l-1-1h-2v2h-2v1h-1l-1-1v-1h-2v-1h-1v1h-2v-1h2-3v-1h1v-1h-1v-2h-1v-1 1h-1v-2h1v1h1l-1-1v-1h1-1v-2h-2v-2h1v-1l1-1h2v1h1v-1 1l1-1 1 1h1v-1l2-1h1-2v-1h-1 1v-1l2 1h4v-1l2-1h1v-1h2l1-1 2 1h1l1-1h1v1h-1 1v1h2v1h3v1h2l2 1 1-1h5l1-1h1v-1zm-43 5l-1 1v-1h1zM304 432v-1h1l-1 1zm0 3h-3l1-1v-1h2v2zM972 480h1-1zm-2 0zm6 4zm2 3zM815 398h-1v2l-1-1v-1h-1v-3l1-3h1v-1h1l1-1h1v3l-1 1v2l-1 1v1zm-8-6v1-1 1-1zM586 485h1v-1 1h-1zm0-5v1h-1v-2 1h1zm1-3v1h-1v-1h1zm-26-11h10l1 1h1l1 1h1v1h2v1h1l1 1h2v1h-1v1h1l1 1h1v1h1v1h1v2h-1v3h1v1h1v1h-1v2h1l-1 1v1l1 1v2h1v1h-1 1l1 1v1h-1v1h-3l-1 1h-2l-1 1h-1v-1h-1v1h-2v-1h-1v1l-1-1h-2v-4l-1-1h-3l-1-1h-1v-1h-3v-1h-1l-1-1v-1l-1-1v-2h-1l-1-1v-3l-1-1v-2h2l1-1v-1h1v-2h-1v-1h1v-1h1l-1-1v-2h-1 1zM582 314h-3v1h-4l-1 1v1h-1v1l1-1v-1l-1 1v2l1 1v1h1v-1h3l-1 1v1h-2v-1l-1 1-1 1h-1l-1 1h-2v-3h-3v-1h1l1-1h1v-1l-1-1h-1l-1 1v-1h-2l1-1h-2 3v-1 1h-1v-2h-1v-1 2h-2l-1 1v2h-1v1h-2v2-1h-1l-1 1h-2v-1h1v-1h1v-3h2l1 1v-2l-1-1v-1h-1v-3h-1v-1h-2v-1h-4v1h-1l-1 1h-2v1h-1l-1-1h-3l-1-1v1h-1v-1h-1l-1-1v-1h1v-2h1v-1l-1-1h1v-1h1v-1l1-1 1-1h1l-1-1h1v-1h-1v-1h-1v-2h2v-1h8v1h2v1-1h2v1h1v-1h1v1h3v1h1v-3l1-1h3l1-1h4v1h1v4h2l1 1v2h1v1-1h1v1h3v-1h1v1l1 1 1 1v-1h1l1 1h2v1h1v1h1-1v1h-1v1h1-1v1h1v3h-3v1h-1l-1 1v2zm-17 3h-2v-1l1 1h1z"/>
  <path d="M570 466h-10v1h-2v-5h1v-1l1-1v-1l2-1 1-1h-1v-1h-1v-2h1v-1h-1 1v-1h1v1h1v-1 1h2v-1h4v-1l1 1v1h1-1v1h1v1l1 1v3l-1 1-1 1v1h-1v3zM26 464zM990 462zM990 461h-1 1zM1009 416zM987 381zM943 408h-1 1zM79 188v62l1 1h1v-1 1h1l1-1h2v1h-1v1h1l1 1v1h1v1h1v1h1v2h1v-1h2v-2h1l-1-1h2l1-1v1h1v2h1v1h1v1l1 1 1 1 1 1h-1l1 1v1h1v2l1 1 1 1-1 1h1v1h1v1h1v1h1l1 1h1v1h1v5h-1v1h-1l-1-1v-1h1v-2h-1v-2h-1l-1 1v1l-1 1v-2l1-2h1-1l-1-1v-1h-1v-1h-1v-1l-2-1v-2h1l-1-1h1l-1-1v1l-1-1v-3 1h-1v1-1h-1l-1-1v-2l-1-1v-2 5h1v2h-1v-1h-2l1-1-1-1 1-1h-1v-1 2h-1v-1h-1l-1-1 1 1h-1 1v1h1v1h1v1h-1v1h-1v-1h-1l-1-1v-1h-1v-1l-1-1h-1l-1-1h-1l-1-1v-3h1v2-1h1-1v-1h-1l-1 1-1 1h-1v-1h-2v-2 1h-8 1l-1-1h-1l-1-1v-1h1v-1l-1 1v1h-2v-1h-1 1v-1h-2v-1h-1v-1h1-1l-1 1v-1 1h-1v-1 1h-1v-2 1h-2 1v1h-1v1h1v1h-1 2v1h-1v1l-1 1h-2v-1 1h-1v1h-1 1l-1 1v-1 1l-1 1v-1 1h-1v1h-2l-1 1v-1h-1 1v-1h1v-1h1v-1l-1 1h-1v-2l1-1v-3l1-1h1l1-1v1h4-2v-1h-1v-1l1-1h1v-1l-1 1h-1v1h-3v1h-1l-1 1v1h-1v1h-1v1h1-1v1h-1v-1h-1l1 1 1 1h-1v1h-1v1h-1l-1 1-1 1h1-1v1h2v1h1l-1 1v1h-1v1h-1v1h-1v1h-1l-1 1h-1v1h-1v1h-1v2h-2v1h-1v1h-2l1 1h-2v1h1l-1 1v-1l-1 1-2 1v1-1h-1l-1 1-1 1v-1 1h-2v-1 1-1h-1v1l-1 1v1h-1v-1h-1l1 1h-2v1h-1l1-1v-1h1v-1h1v-1h1v-1h1l1-1h1-1 1v1-1 1h2l-1-1h1v-2h1v-1h2v-1h2v-2h1v-1h1v-1 1h1v-1h-1v-1h1v-2h1-1v-2h1v-2l1-1-1 1-2 1-1 1-1-1v-1h1v-1h-1v1h-1v3l-1-1v-1h-1v-1l-1 1-1-1v-1l-1 1h-1l-1 1-1 1h-1v-1h1v-2h-1v-1l1-1v-1h-1v-3l-1-1 1-1v-1 1h-1v1l-1 1h1v1h-1v1h-4v-1l-1-1v-1h-1v-1h-1l1-1v-1h1l1 1v1-1h1v1l1-1v-1h-1 1-5l1-1h-1v-1 1-1 1h-1v-1l-1-1h1l-1-1v-1h1-1v-1h1v-1l1-1v-1l1-1v1h1l-1-1h1v-1l-1 1v-2l1-1h1-1v-1h2l1 1h-1 3v-1h1v-2h1v1h2v-1h1v-1h1v-1l-1-1v-1l-1-1v-1h1v-1h1l-1-1v-1l-1 1h-1l-1 1h-1l-1 1v1-1l-1-1v1h-1l-1-1h-1l-1 1h-2l-2-1H8v-2H7v-1H6h2v-1h1-1l-1-1H5l-2-1v-1h2v-1h1l1-1 1-1h2l-1-1h1l1-1h1l1-1h3-1v3h3l1 1 1-1v1h1v-2h2v1-1l-1-1h-2l1-1-1-1h-1v-2h1v2l1 1v1l1-1h1v1h2v-1h-1l-1-1-1 1h-1v-3h-2v-1 1h-2l-1-1-1-1v-2l-1-1-3-3-2-1-1-1H7v-1 1h1v-2l1-2H8h4l2-1h1l1-1 1-2v-2l1-1 1-3 1-1 1-1v1h-1v1l1-1 2-1 1-1 2-1v3-2h2l-1-1h-1l1-2h1v1-1h4l1-1v-1h1v-2h1l1-1-1 1h1l2 1v2h-1v1h1v-1l1-1h1l1 1v1h2l1-1h1l1 1v-1h1v1h1l-1 1v1h2v1h-1 10v1h2v1h4l1 1h2v1h3l1-1h2l1 1h1l1 1 1 1h1v1h1zM9 213h1-1zm51 34h-1 1zm-12 3v-1h1l-1 1zm12 0v1-2 1-1 1zm4 0h1-1l-1 1v-2h1v1zm4 0h-1 1zm-59 0h1v3H7l-1-1H5v-1h2v-1h2zm51 3v-1h1v-1l1-1v1l-1 1v1h-1zm-1-1v-1l1 1h-1zm10 1l1-1v1h-1zm-46 7v-1h1l-1 1zm24 0zm0 1h1v1h-1l-1 1h-2l1-1 1-1v1-1h1zm50 1h1l1 1v2-1l-1-1v1h1v3h-1v1h-1v-6h-1v-1l1 1zm1 0h-1v-1h1v1zm-4 0v1l1-1h1v2h-1 1v2l-1-1h-1v1h-1v-1l-1-1v-2h2zm-48 2h1v1h1l-1 1h-1v1h-2v1h-1 1l-1 1h-1l1-1h-1 1v-1h-1v2l-1-1v-3h2v2h1l-1-1v-1h1l-1-1h2v-1h1v1zm-1 0l-1-1h1v1zm51 2v1h1v5h-1v-3h-1v-2l-1 1v-2h1v-1l1 1zm-51 2h-1 1v-1h1v1h-1zm56 0l1 1v1h-1v-1 2h-1v-2h-1v-1h2zm-2 1v1h1-1v3h-1v-2h1-1v-2h1zm3 2v-2l1 1-1 1zm-60 0v-1 1zm-1 0v-1 1zm63 2v1-1 1h-1v-1h-1v-1h1v-1h1v2zm-2-1v-1h1v1h-1zm-2 0h1v1h1l1 1v1h1v1l-1-1v1h1v1h1l-1 1h1l-1 1v1-1h-1v-2l-1 1h1-1v-1h-1v-1h1-1l1-1h-2v-1h1v-1h-1v1-2zm7 4v1h-1v-1 1h-1v-3l1-1 1 1v2zm-69-2zm63 2h-1v1-1l1-1v1zm-77 1v-1 1h1-2 1v-1 1zm1 0h-1v-1h1v1zm77 2h1v1h-1v-1h-1v-2h-1 1l1 1v1zm-76-1h-1v1-1h1v-1 1zm80 0h1v1h-1v-2 1zm-79-1v1-1zm1 1h-1 1zm-12 0v1h1v1l-1-1v1h-2v1h-2v-1h1v-1h1v-1h2zm3 1v-1h1v1h-1zm0 2h-1 1zm-9 1h1-1zm-1 1v-1h1v1H9zm-2 0v1h1v-1 1H7h1v1H7v1H5l-1 1v-1h1l1-1v-1h1v1-1H6v-1h1zm1 1h1-1zm-4 2l-1 1H2v1H1l-1 1v-1h1v-1h1v-1 1-1l1-1h1v1zm209 21h1l1 1 1 1v-1h1v1h1v1l1-1h3v1h1-1v1h-2v1l-2 1v1l-1 1h-1 3v-1h1v2-1h1v1l1-1h1l1-1h1l1-1v1h1v1-1h2v1h1v1h2l1-1h3v1h3v1h-1 1v1h-2v1-1h-4v1h-1v-1 1h-1v-1 1h-1v2h-1v1h-1v2-1h1v-1h1v2h-1v3l-1 1v2h1v1h-1v1l1 1v2h2v-1h1v-1l1-1v-3l-1-1v-3h1v-3h1v-1h1v2-1 1-2h1v-1h1-1v-1h2l1 1h1l1 1v4h-1v1h-1v1h2v-1h2v3l1 1-1 1v1h-1v1h-1v2h2l-1 1h2v-1h2l1-1h1l1-1h1l1-1h1l1-1h1v-1h-1v-1l1-1h2l1 1h2l1-1h1v-3l1-1 1-1 1-1h10v-1h2v-1h1-1l1-1h1v-4h1v-1l1-1v-1h1v1h2v-1l1 1 1 1v6h1-1 1v1h1-1l1 1v1h-2v1h-2v1h-1v-1h-1v2h-2v1-1l-1 1-1 1v1h-1v2h1-1v2h1v1l1 1v-2l1 1v1h-4v-1 1h-1v1h-4v1h-2v1h-1l1-1-1-1v3h-1 1v3-1 1h-1v2h-1v1-1h-1l-1-1v-1l1-1-1 1v2l1 1v3h-1v2h-1v1-2l1-1h-1v-1h-1v-1h1-1v-1 1-3h1v-1 1h-2v4-1 1h1v1h-1v-1h-2v-1h1v-1 1h-1v1h1l1 1h1v1h-1l-1-1h-1 1l1 1 1 1h-1v1l-1-1h1v1h1v1h-1v-1h-2 2v1h2v2l1 2-1-1v-2 2-1h-1v1-1 1h-1v-1 1h1v1h1v-1 2h-3 1v1l-1 1v-1 1h2-1v1h-2v-1 1h-1v1h-1v1-1 1h-2v1h-1v2-1h-1l1 1h-1l-1 1-1 1h-1v1-1h-1v1-1 2h-1v2h-1v3l1 1v2l1 1 1 2v2-2h-1v-1 2h1l1 3v5l-1 1h-2 1-1v-2h-1l-1-1v-2h-1v-1l-1-1 1-1h-2l1-1v-3l-2-1-1-2h-2l-1 1h-2v-1h-1 1-1l1-1h-1v1-1h-2 1-3 1v-1 1l-1-1v1h-2 1-1v-1 1h-4l-1 1-1-1h-1v1h3v1h-1 1-1v1h2v1h-1l-1-1h-1v1h-1v-1l-1 1h-1v-1h-1v-1h-2 1-1v1l-1-1h-4 1v-1l-1 1-2 1h1-1v-1h-1v1h1l-1 1-1 1h-1l-1 1v-1h-1v1-1 1h-1v1h-1 1l-1 1h-1l1 1-1 1v-1 3l1 1v1h-2l-1-1h-2v-1l-1-1v-2h-1v-1l-1-1-1-1v-1l-1-1v-1h-1v-1h-4l-1 1v1h-2l-1-1h-1v-1h-1v-2l-1-1h-1v-1l-1-1h-1v-1h-1v-1h-5v2h-8l-1-1h-1l-2-1h-1l-1-1h-2l-1-1h-1v-1h-3l-1 1h-3v-2l-1-1h-1v-1h-1v-1h-2l-1-1h-1l-1-1h-2v-3h-1v-1h-1v-1h-1v-3h-1l-1-1v-2l1 1v-2h-1 3-3v1-1h-1v-1 1-1h-1v-1l-1-1v-1l-1-1h1l-1-1v-1l-1-1v-2l1-1h-1l1-1v-1h-1v-4l-1-1h1v-3l1-1v-9h2-2v-3h-1v-3l-1-1v-2h1v1h4v1h1l-1 1v1h-1 1v-1l1-1v3h-1 1l1-1h-1v-1l1-1v-1h-1v-3 1-1h-1 78v-2h1v3h3v1l1-1zm-83 0zm0 1h-1v-1h1v1zm0 0v-1 1zm1 1v1-1 1-1h-1l1-1v1zm94 1l1-1h1-1v1h-1zm-94 1v1-1zm0 1zm96 1v1-1h-1l1-1h2-1v1h-1zm-97 0zm91 1zm-1 0zm1 0h-1 1zm-1 1l1-1-1 1zm19 2v-1h-1 1v1zm0 0zm2 1h-1 1zm-3 1zm-3 1v-1 1zm-4 1v-1 1zm0 0h-1 1v1h-1v1-2h1zm3 1h-1v-1h1v1zm50 3h-1v-1h1v1zm-23 0zm21 0zm-21 1zm-8 4v-1 1zm22 5v1-1zm0 0v1-1zm2 1h-1 1zm2 0h-1 1zm-8 1v1h1v-1h1l-1 1h-1l-2 1h-2 1-1v-1h2v-1 1h1v-1h2-1zm-4 2zm0 3v1-1zm-4 7l1-1v-1 1l-1 1zm0 7l-1-1h1v1zm0 2h-1 1v-2 2zm-1 0zm-2 2v-1h1l-1 1zm0 0zm-122 2h1-1zm-1 0zm1 0h-1 1zm5 2h-1 1zm-3 1h-1v-1h1v1zm3 1h-1v-1l1 1zm103 6v1-1zm-18 2h-1 1zm-2 0zm-2 1h1-1zm2 1v-1h-1 1v1zm-1 0zm12 0h-1 1zm-20 1v-1 1zm-9 1l1-1v1h-1zm-5 3h1v-1 1h-1zm0 1v-1 1zm47 2v-1h-1v-1 1l1 1zm-48 0v-2 2zm0 3v-3 3zm43-1h-1 1zm0 0h-1 1zm4 4v1-1h1-1zm0 1zm-1 0zm-1 1h1-1zm0 0h-1 1zm-1 0zm-1 0zm-217 8h-2 1v-1h1v1zm-3 0v1-1h1-1zm7 2h-1 1-1v-1h1v1zm2 0h1v1h-2l1-1zm2 1h1v1h-2v-1h1zm-1 1h-1v-1h1v1zm3 5h-1v-3h1l-1-1h1l1 1h1v2h-1l-1 1zM325 563v1l-1 1-1 1h-1l-1 1h-5l-1-1-1-1h-1v1l-1-1v-1h-1v-3h1v-7h1v-1h-1l1-1v-1 1h1l1-1h1l1 1v1h1v1h1v-1 1h1v1h1l1 1 1 1h1v2h2v1h-1v3zM674 333v-1l1 1h-1v1h-1v1h-1v1h2v1h1v-1h1v-1 1h1v1h1l1 1h1l-1 1h-2v1h-5v-1h1v-2h-1v1h-1v1h-1v-1h-1v2h-2 1v2-1 1h-1v1h-1l-1-1-1 1v1h1v1h1v2h1v1h-1v1l-1 1v1h-2v-1h-1v-2h-1l-1-1h-2v-1h-2v-1h-1l-1-1-1-1-1-1h-1v-1h-1v-2h-1v-2h-1v-1h-1v1l-1-1h-3v-1h1-1v-1h1-1v-2h-2l-1-1h-2v1h1-2v1h-2v3h-3v-14h1l1-1h2l1-1h3l1 1 1 1h1v1h2v1h1v1h1v1h1v1l1 1h2v-1h3l1 1h1v-1h1l1 1 1 1v1h1v4h2v3h4v1l1 1v-1l1-1v-1h1l1-1h1v-1h1v-1h2zm-1 4v1-1zm2 4h-1v-1 1h1zm1 0zM510 334zM303 426v-1 1zm0 0zm0 1zM306 439l1 1h-1v1h-1v1h-1 1v1h1l-1 1h-2v3l1 1h1v1l-1 1h-1v1h-3l-1 1v1h-1v-1h-3v-1h-2v1h1l1 1v3h2v1h-2v2h-2v1h-2v1-1h-1v1h-2v-1h-1v-2l-1-1h1-1v-1h-1v-1h-1 1v-1h1v-1h-1v-3h-1l1-1v-2l1-1h-1v-1h-1v1h-4v-1h-1v-1h-1v-1 1l-1-1h-5v-1h-1v-1h1v-2h-1v-2h-2v-1h1v-2l1-1v-1h1l1-2h2-2v2h1v2h-1v1h-1l1 1v1h1v1l1-1v-3h-1v-2h1l1-1h3v-1h-1v-1h1v2h3l1 1v1l1 1 1-1h4v1h2l1 1h1l2-1h1v-1h-2 7-3 1v2-1l1 1v1-1h1v1h1v-1l1 1h1v2h-1v1h-1 4zm-10-7h-2 2zm-4 0h-1 1zm12 5zm0 1zM294 410h1-1zm0 1v-1 1zm0 0h-1 1zM293 411h-1 1zm0 0zm0 1v1h1-1v-1zM778 401v1h-2v1h-2v2h-1v1h-1v3h-1l1 1 1 1 1 1v1h-1 1v1h1l1 1 1 1v1h2v1l1 1v1h1v3l1 1h-1l1 1v3-1h-1l1 1h-1v1h1-1v2h-1v1h-2v1h-1v1h-1l-1-1v1l-1-1v1h1-1 1v1h-1l-1-1 1 1v1h-1l-1-1 1 1v1h-2v1h-1v1h-1v-4h1-1v-1h-1v-1h2v-1 1l1-1h1l1 1v-1l-1-1v-1h2v-1h1l1-1h1v-4h-1v-2h1v-3h-1v-2h-1v-1h-1v-1l-1-1h-1v-1l-1-1v-1h-1v-1h-1l-1-1-1-1h-1 1v-1h2v-2h-1v-1l-1-1h-1v1h-1v-1h-1v-2h-1v-1h-1v-2h2v1-1h5v-2h2v1h3l1 1h-1v2h1v1h3zm-1 1l-1 1v-1h1zm0 1h-1 1zm-2 1v-1 1zm0 0v-1 1zm1 30h-1 1zm-9 0v1-1h-1 1zm7 5v-1 1zM945 502zm0 1zm-2 2v1-1h1v2h-1v-1l-1-1v-1h1v1zm4 1v-1 1zm-1 0v1h-1l1-1zm1 2v-1 1zm-3-1zm1 1v1h1v1h-1v-1l-1-1v1-1h1zm2 1h-1 1v-1 1zm1 1v1l-1-1h1zm0 3h-1 1zm2 4h-1v-1h1v1zm1 1l-1 1v-1h1zm1 2v1h-1v-1h1zM991 500zm-5 3h-1 1zM1002 501v1h-1v-1h-1 2zm2 1h-2 2zM624 416h-2v1h-1v2h-1v1h-2l-1 1h-3l-1 1h-1v1h-1l-1 1v-1h-1v1h-1l-1 1h-4v1h-1l-1 1h-4l-1-1v-4l-1-1v-4l1-1v-3h1v1h9v1h2v-1l1-1v-1h1v-1h1l1-1h4l1-1h4v1l1 1v2h1v2h1v1zm-30 4v-1l1 1h-1zm1 4v-1 1zm0 0zm31 3h1l1 1h-3v-1h1zM602 499h-1v-1l1 1zM563 527v3l1 1v2h1v4h-1l1 1h-1l-1-1-1 1v1h-1v2h1v1h3v-1h2v2l-1 2v1l-1 1h-1l-1 2h-1v2l-1 1-1 1v1l-1 1h-1v1l-1 1-1 1-1 1-1 1-1 1-1 1h-1l-1 1h-3v1h-10l-1 1h-3l-1 1-1 1v-1h-2v-1h-1v-1h-1v1h-1v-1h1v-1l-1-1v-1h-1v-1h1v-4l-1-1v-1l-1-2-1-1-1-2v-1l-1-2h1v-1l1-1v1h1v2h5l1-1h1v-12l1 1v1h1v5h3v-1h1v-1h1v-1h1v-2h2l1 1h5v-2l1-1h1v-1h1l1-2v-1h2v-1l1-1h1v-1h1l1-1h2l1 1h3zm-7 24l1-1v-2l-1-1-1-1-1 1h-1v1h-1v1h-1v2h1v1h1v1h1v-2h2zm25 61h-1l1-1v1zM567 489v1h1v1h1v2h-1v1h1-1v4h1-1l-1 1h1-1v3h1l-1 1h-2v1h-3v1h-2v2h-3l-1 1v2h-2l-1 1-1 1v1h-1v1h-4v-1 1h-1v-1h-2l-1-1-1 1h-1l-1-1h-1v-1h-1v-1h-1v-11h5v-6l1 1v1h2l1-1v2h3l1 1v-1h1v-1 1h1v1h1l1 1h1v1h1v2h1v-1h1v1h1v-4h-1v1h-2v-1l-1-1v-1h-1 1v-7h1v-1h1l1-1h3l1 1h1v1h3v1h1z"/>
  <path d="M563 527h-3l-1-1h-3v-1h-2v-1h-1v-3h-2v-1h-1l-1-1-1-1v-1l-1-1v-1h-1v-2 1h1v-1 1h4v-1h1v-1l1-1 1-1h2v-2l1-1h3v1h3v1h2l1 1h1v9h1v1h-1v1l-1 1v2h-1v1h-1v1l-1 1z"/>
</svg>