<?xml version="1.0" encoding="UTF-8" standalone="no"?>
<svg
   xmlns:dc="http://purl.org/dc/elements/1.1/"
   xmlns:cc="http://creativecommons.org/ns#"
   xmlns:rdf="http://www.w3.org/1999/02/22-rdf-syntax-ns#"
   xmlns:svg="http://www.w3.org/2000/svg"
   xmlns="http://www.w3.org/2000/svg"
   id="svg820"
   version="1.1"
   viewBox="0 0 185.20833 185.20834"
   height="700"
   width="700">
  <defs
     id="defs814" />
  <metadata
     id="metadata817">
    <rdf:RDF>
      <cc:Work
         rdf:about="">
        <dc:format>image/svg+xml</dc:format>
        <dc:type
           rdf:resource="http://purl.org/dc/dcmitype/StillImage" />
        <dc:title></dc:title>
      </cc:Work>
    </rdf:RDF>
  </metadata>
  <g
     transform="translate(0,-111.79165)"
     id="layer1">
    <path
       id="path1365"
       d="m 27.311141,130.4468 c -0.298485,0 -0.781224,-0.27576 -0.895448,0 -0.02692,0.065 0.176164,0.0842 0.149241,0.14924 -0.03807,0.0919 -0.206562,-0.0381 -0.298483,0 -0.194992,0.0808 -0.236665,0.44772 -0.447723,0.44772 -0.07035,0 -0.0798,-0.16051 -0.149241,-0.14924 -0.109804,0.0178 -0.05462,0.24001 -0.149242,0.29849 -0.04232,0.0262 -0.101867,-0.0152 -0.149241,0 -0.407525,0.1306 -0.747008,0.43876 -1.044688,0.7462 -0.12477,0.12886 -0.194885,0.30131 -0.298483,0.44773 -0.143662,0.20305 -0.305455,0.39293 -0.447723,0.59696 -1.152291,1.65253 -2.235931,3.35326 -3.283307,5.0742 -0.208515,0.34261 -0.353514,0.72595 -0.596964,1.04469 -0.128111,0.16773 -0.332715,0.27075 -0.447724,0.44772 -0.37757,0.58099 -0.476512,1.30188 -0.746206,1.94014 -0.277233,0.6561 -0.613847,1.28589 -0.895447,1.94013 -0.105915,0.24607 -0.236933,0.48548 -0.298483,0.74621 -0.137629,0.58301 -0.124346,1.19237 -0.149241,1.79089 -0.01241,0.29823 -0.21106,0.68439 0,0.89545 0.03518,0.0352 0.10538,-0.0235 0.149241,0 0.158144,0.0846 0.246506,0.27606 0.298483,0.44773 0.05766,0.19045 -0.07615,0.41312 0,0.59696 0.107691,0.25999 0.489273,0.33698 0.596964,0.59697 0.03807,0.0919 -0.03808,0.20656 0,0.29848 0.107692,0.25999 0.489273,0.33697 0.596965,0.59696 0.01904,0.046 -0.01442,0.10163 0,0.14924 0.05198,0.17167 0.119989,0.43005 0.298483,0.44773 0.07001,0.007 0.07889,-0.14924 0.149241,-0.14924 0.281411,0 0.397977,0.39797 0.596965,0.59696 0.04975,0.0497 0.08669,0.11705 0.149241,0.14924 0.269062,0.13846 0.60404,0.0677 0.895447,0.14924 0.257988,0.0722 0.483143,0.24783 0.746206,0.29849 0.04885,0.009 0.09966,-0.004 0.149241,0 0.301569,0.025 0.593879,0.12428 0.895448,0.14924 0.19831,0.0164 0.397977,0 0.596965,0 0.447723,0 0.895447,0 1.34317,0 0.547218,0 1.094435,0 1.641653,0 0.149241,0 0.298482,0 0.447723,0 0.149242,0 0.300674,0.0255 0.447726,0 0.728692,-0.12622 1.360683,-0.61999 2.089375,-0.74621 0.09803,-0.017 0.200274,0.0159 0.298484,0 0.155282,-0.0252 0.296117,-0.10725 0.447723,-0.14924 0.442003,-0.12243 0.941119,-0.0778 1.34317,-0.29848 0.123343,-0.0677 0.184337,-0.21621 0.298482,-0.29848 0.09024,-0.065 0.198989,-0.0995 0.298484,-0.14925 0.09949,-0.0497 0.192304,-0.11607 0.298482,-0.14924 0.335765,-0.10488 0.693809,-0.1243 1.044689,-0.14924 0.09924,-0.007 0.20165,0.0229 0.298482,0 0.108262,-0.0256 0.190219,-0.12368 0.298481,-0.14924 0.09683,-0.0229 0.200273,0.0159 0.298482,0 0.155283,-0.0252 0.294183,-0.115 0.447725,-0.14924 0.831115,-0.18535 1.696074,-0.16513 2.5371,-0.29848 0.250532,-0.0397 0.49378,-0.12425 0.746207,-0.14924 0.297029,-0.0294 0.597541,0.0186 0.895446,0 0.400299,-0.0249 0.79363,-0.12433 1.193929,-0.14925 0.297906,-0.0186 0.596965,0 0.895448,0 0.298483,0 0.596965,0 0.895448,0 2.03963,0 4.079259,0 6.118889,0 0.696459,0 1.392919,0 2.089378,0 0.248735,0 0.504124,-0.0572 0.746204,0 0.216525,0.0511 0.385394,0.22969 0.596966,0.29849 0.287766,0.0936 0.607678,0.0557 0.895445,0.14924 0.105786,0.0344 0.190222,0.12368 0.298485,0.14924 0.242081,0.0572 0.516403,-0.0952 0.746204,0 0.324989,0.13462 0.421218,0.61159 0.746207,0.74621 0.04596,0.019 0.09949,0 0.149241,0 0.09949,0 0.213847,-0.0523 0.298482,0 0.09462,0.0585 0.0842,0.20824 0.149241,0.29848 0.04114,0.0571 0.12232,0.0842 0.149243,0.14924 0.03807,0.0919 -0.07035,0.22813 0,0.29848 0.03518,0.0352 0.114065,-0.0352 0.149241,0 0.03518,0.0352 -0.03518,0.11406 0,0.14924 0.03518,0.0352 0.114065,-0.0352 0.149241,0 0.105531,0.10553 -0.05711,0.30985 0,0.44773 0.02692,0.065 0.122318,0.0842 0.149241,0.14924 0.09519,0.2298 -0.03984,0.50068 0,0.7462 0.0252,0.15528 0.124042,0.29245 0.149241,0.44773 0.01594,0.0982 0,0.19899 0,0.29848 0,0.39798 0,0.79595 0,1.19393 0,0.59696 0,1.19393 0,1.79089 0,0.39798 0.09144,0.8066 0,1.19393 -0.05111,0.21653 -0.217829,0.38963 -0.298482,0.59697 -0.131292,0.33753 -0.187772,0.69986 -0.298482,1.04469 -0.22607,0.70414 -0.5319,1.38156 -0.746207,2.08937 -0.05944,0.19631 -0.05637,0.41408 -0.149241,0.59697 -0.175914,0.34643 -0.550877,0.55958 -0.746207,0.89545 -0.213679,0.36742 -0.234043,0.8265 -0.447722,1.19392 -0.19533,0.33587 -0.547239,0.56172 -0.746207,0.89545 -0.274376,0.46021 -0.329236,1.0283 -0.596964,1.49241 -0.442584,0.76722 -1.097255,1.39071 -1.641655,2.08938 -0.850115,1.09101 -1.699294,2.18282 -2.5371,3.28331 -0.753343,0.98955 -1.42376,2.04528 -2.238618,2.98482 -0.322668,0.37204 -0.732468,0.66384 -1.044689,1.04469 -0.341147,0.41613 -0.53858,0.94044 -0.895445,1.34317 -0.304174,0.34327 -0.731108,0.56075 -1.044689,0.89545 -0.340126,0.36303 -0.569504,0.81811 -0.895448,1.19393 -0.184381,0.21259 -0.432419,0.36867 -0.596963,0.59696 -0.195127,0.27072 -0.260636,0.61911 -0.447726,0.89545 -0.335836,0.49604 -0.894102,0.82457 -1.193929,1.34317 -0.157477,0.27238 -0.15246,0.61676 -0.298482,0.89545 -0.115439,0.22032 -0.311135,0.38908 -0.447723,0.59696 -0.220243,0.33519 -0.43326,0.67855 -0.596966,1.04469 -0.256843,0.57445 -0.356158,1.20953 -0.596963,1.79089 -0.08514,0.20554 -0.213347,0.39143 -0.298485,0.59697 -0.120403,0.29068 -0.202464,0.59583 -0.298481,0.89545 -0.206492,0.64435 -0.415352,1.28833 -0.596964,1.94013 -0.05505,0.19759 -0.09189,0.40004 -0.149241,0.59697 -0.08797,0.30208 -0.226197,0.58924 -0.298484,0.89545 -0.161638,0.68471 -0.136845,1.40466 -0.298482,2.08937 -0.07229,0.30621 -0.232676,0.58778 -0.298482,0.89545 -0.104566,0.48889 -0.08324,0.99683 -0.149241,1.49241 -0.03995,0.29995 -0.124282,0.59388 -0.14924,0.89545 -0.02462,0.29747 0.01855,0.59754 0,0.89545 -0.02492,0.4003 -0.124322,0.79363 -0.149244,1.19393 -0.01855,0.2979 0,0.59696 0,0.89544 0,0.69646 0,1.39292 0,2.08938 0,0.29848 -0.04781,0.60082 0,0.89545 0.0504,0.31056 0.203522,0.59549 0.298484,0.89544 0.15676,0.49516 0.330175,0.98652 0.447723,1.49242 0.06849,0.29475 0.06222,0.60562 0.149241,0.89544 0.140895,0.46926 0.419798,0.88637 0.596966,1.34317 0.113771,0.29334 0.178079,0.60477 0.298482,0.89545 0.255413,0.61662 0.533609,1.23006 0.895448,1.79089 0.555999,0.86177 1.292066,1.59301 1.940134,2.38786 0.446789,0.54798 0.907099,1.08511 1.34317,1.64166 0.306818,0.39159 0.513513,0.87518 0.895448,1.19393 0.256209,0.21383 0.606816,0.28022 0.895448,0.44772 1.861623,1.08034 3.419072,2.67836 5.372682,3.58179 0.328718,0.15201 0.707161,0.16719 1.044689,0.29848 0.311013,0.12098 0.584436,0.32674 0.895448,0.44772 0.337528,0.13129 0.703449,0.17717 1.044688,0.29849 0.356972,0.12692 0.673564,0.37154 1.044689,0.44772 0.389849,0.08 0.796955,-0.0282 1.19393,0 0.35088,0.0249 0.693809,0.1243 1.044689,0.14924 0.446597,0.0317 0.896132,-0.0248 1.34317,0 0.44979,0.0249 0.893381,0.12433 1.343171,0.14924 1.837824,0.10179 3.688719,-0.1653 5.521922,0 0.553942,0.0499 1.087713,0.24853 1.641655,0.29848 0.545007,0.0491 1.094435,0 1.641653,0 0.696459,0 1.392918,0 2.089377,0 2.487353,0 4.975294,0.054 7.46206,0 1.144993,-0.0249 2.292199,-0.0433 3.432548,-0.14924 0.350255,-0.0326 0.713196,-0.0316 1.044688,-0.14924 0.273355,-0.097 0.471368,-0.35495 0.746205,-0.44772 0.42682,-0.14407 0.95201,0.0742 1.343173,-0.14924 0.215985,-0.12337 0.263012,-0.43038 0.447723,-0.59697 0.215406,-0.19427 0.541092,-0.24261 0.746204,-0.44772 0.205114,-0.20511 0.26921,-0.51757 0.447725,-0.74621 0.0433,-0.0555 0.109799,-0.091 0.149241,-0.14924 0.212402,-0.31372 0.301372,-0.69524 0.447723,-1.04469 0.456776,-1.09069 1.001802,-2.15117 1.34317,-3.2833 0.07323,-0.24286 0.07574,-0.50343 0.149244,-0.74621 0.265034,-0.87534 0.725774,-1.67991 1.044686,-2.5371 0.438837,-1.17952 0.992338,-2.33953 1.193929,-3.58179 0.04781,-0.29463 -0.03647,-0.5992 0,-0.89544 0.150368,-1.22145 0.577117,-2.393 0.895448,-3.58179 0.09368,-0.34984 0.18133,-0.702 0.298482,-1.04469 0.08666,-0.25349 0.231574,-0.4868 0.298484,-0.74621 0.400685,-1.55345 0.339986,-3.19213 0.596964,-4.77571 0.04063,-0.25039 0.109516,-0.49568 0.149241,-0.74621 0.133354,-0.84103 0.248651,-1.68703 0.298484,-2.5371 0.01456,-0.24831 -0.02302,-0.49854 0,-0.74621 0.07494,-0.80635 0.244585,-1.60393 0.447723,-2.38786 0.07892,-0.30457 0.198989,-0.59696 0.298482,-0.89544 0.04975,-0.14924 0.111319,-0.29505 0.14924,-0.44773 0.218824,-0.88103 0.248091,-1.80076 0.447726,-2.68634 0.07964,-0.3533 0.213151,-0.69272 0.298481,-1.04469 0.05976,-0.24652 0.09359,-0.49873 0.149241,-0.74621 0.09,-0.40023 0.198988,-0.79595 0.298482,-1.19393 0.04975,-0.19899 0.09542,-0.39904 0.149241,-0.59696 0.231317,-0.85063 0.620556,-1.66458 0.746207,-2.5371 0.02836,-0.19696 -0.05766,-0.40652 0,-0.59697 0.05198,-0.17167 0.229842,-0.28201 0.298482,-0.44772 0.09707,-0.23435 0.07696,-0.50306 0.149241,-0.7462 0.07634,-0.25679 0.198989,-0.49747 0.298484,-0.74621 0.198988,-0.49747 0.412675,-0.98931 0.596963,-1.49241 0.05411,-0.14772 0.08904,-0.30239 0.149241,-0.44773 0.04257,-0.10277 0.09483,-0.20146 0.149241,-0.29848 0.229569,-0.40933 0.454035,-0.82666 0.746207,-1.19393 0.0438,-0.0551 0.09949,-0.0995 0.149241,-0.14924 0.04975,-0.0497 0.08424,-0.12232 0.149241,-0.14924 0.04596,-0.019 0.101299,0.0133 0.149241,0 0.279547,-0.0774 0.46666,-0.37029 0.746207,-0.44772 0.143826,-0.0398 0.309842,0.0571 0.447722,0 0.194995,-0.0808 0.258947,-0.35334 0.447726,-0.44773 1.258512,-0.62926 2.785838,-0.39797 4.178757,-0.59696 0.34823,-0.0497 0.69572,-0.10494 1.04468,-0.14924 0.44689,-0.0567 0.89697,-0.0873 1.34317,-0.14924 0.29973,-0.0416 0.59388,-0.12429 0.89545,-0.14925 0.34704,-0.0287 0.69646,0 1.04469,0 0.44772,0 0.89545,0 1.34317,0 0.34823,0 0.69646,0 1.04469,0 0.14924,0 0.2996,-0.0182 0.44772,0 0.40715,0.0501 0.7937,0.20849 1.19393,0.29849 0.24748,0.0556 0.50306,0.077 0.74621,0.14924 0.25679,0.0763 0.49465,0.20634 0.7462,0.29848 0.44315,0.16233 0.91923,0.24037 1.34318,0.44772 0.16113,0.0788 0.29058,0.21201 0.44772,0.29849 0.42924,0.23624 0.92458,0.34234 1.34317,0.59696 0.27215,0.16554 0.48634,0.41275 0.74621,0.59697 0.38287,0.27141 0.85723,0.41926 1.19393,0.7462 0.12868,0.12495 0.16401,0.32902 0.29848,0.44773 0.25018,0.22085 0.60682,0.28022 0.89545,0.44772 0.31027,0.18005 0.61802,0.36953 0.89544,0.59696 0.21763,0.17841 0.38917,0.4072 0.59697,0.59697 0.2869,0.262 0.58791,0.50875 0.89545,0.7462 0.33872,0.26153 0.71815,0.4696 1.04468,0.74621 0.32208,0.27285 0.59697,0.59697 0.89545,0.89545 0.49747,0.49747 0.99494,0.99494 1.49241,1.49241 0.29848,0.29848 0.63266,0.56511 0.89545,0.89545 0.29217,0.36727 0.45404,0.82666 0.74621,1.19393 0.21899,0.27528 0.52609,0.47181 0.7462,0.7462 0.40586,0.50595 0.76593,1.05599 1.04469,1.64166 0.13522,0.28409 0.18667,0.60135 0.29848,0.89544 0.13464,0.35413 0.37155,0.67356 0.44773,1.04469 0.07,0.34112 -0.0558,0.70096 0,1.04469 0.0504,0.31057 0.24135,0.58605 0.29848,0.89545 0.20796,1.12622 0.12436,2.28756 0.14924,3.43255 0.0151,0.69629 0,1.39291 0,2.08937 0,0.69646 0,1.39292 0,2.08938 0,0.29848 0.0212,0.59772 0,0.89545 -0.0499,0.70176 -0.1168,1.40971 -0.29848,2.08937 -0.0692,0.25881 -0.21182,0.49272 -0.29848,0.74621 -0.2343,0.68539 -0.4965,1.37205 -0.59697,2.08938 -0.0345,0.24633 0.0516,0.50289 0,0.7462 -0.10171,0.47928 -0.39609,0.89629 -0.59696,1.34317 -0.24643,0.54826 -0.56169,1.06958 -0.74621,1.64166 -0.0779,0.24141 -0.0195,0.52821 -0.14924,0.7462 -0.19867,0.33391 -0.66708,0.43187 -0.89545,0.74621 -0.15746,0.21674 -0.16723,0.51266 -0.29848,0.7462 -0.24372,0.43368 -0.57491,0.8135 -0.89545,1.19393 -0.79363,0.94191 -1.75042,1.73862 -2.5371,2.68634 -0.43217,0.52064 -0.75437,1.12725 -1.19393,1.64166 -0.68555,0.80229 -1.50748,1.47765 -2.23862,2.23862 -0.60977,0.63465 -1.18112,1.30548 -1.79089,1.94013 -0.73114,0.76097 -1.50538,1.47966 -2.23862,2.23862 -0.70922,0.73409 -1.39387,1.49153 -2.08938,2.23862 -0.6476,0.69563 -1.21642,1.47332 -1.94013,2.08937 -0.13658,0.11627 -0.31176,0.1815 -0.44773,0.29849 -0.5606,0.48234 -1.02129,1.07159 -1.49241,1.64165 -0.31691,0.38346 -0.56951,0.81811 -0.89545,1.19393 -0.36876,0.42519 -0.73734,0.86484 -1.19393,1.19393 -0.0902,0.065 -0.20581,0.0877 -0.29848,0.14924 -0.38209,0.2537 -0.73502,0.55713 -1.04469,0.89545 -0.28894,0.31567 -0.46959,0.71816 -0.7462,1.04469 -0.0455,0.0537 -0.10144,0.0976 -0.14924,0.14924 -0.31163,0.33652 -0.55218,0.74052 -0.89545,1.04469 -0.13424,0.11895 -0.32277,0.1698 -0.44772,0.29848 -0.32694,0.3367 -0.48719,0.80257 -0.74621,1.19393 -0.33515,0.50638 -0.65439,1.02721 -1.044687,1.49241 -0.09044,0.10779 -0.208046,0.19069 -0.298482,0.29848 -0.390296,0.4652 -0.73395,0.97071 -1.044689,1.49242 -0.05692,0.0956 -0.09257,0.20276 -0.149241,0.29848 -0.400753,0.67682 -0.929232,1.27129 -1.34317,1.94013 -0.597566,0.96554 -1.092321,1.99105 -1.641655,2.98483 -0.247782,0.44825 -0.517604,0.88484 -0.746204,1.34317 -0.437361,0.87688 -0.721461,1.82786 -1.19393,2.68634 -0.08648,0.15714 -0.22418,0.28447 -0.298484,0.44772 -0.234971,0.51625 -0.283356,1.09879 -0.447723,1.64166 -0.04559,0.15056 -0.124042,0.29244 -0.149241,0.44772 -0.03187,0.19642 0.0289,0.40008 0,0.59696 -0.07542,0.51387 -0.372305,0.97855 -0.447725,1.49242 -0.01445,0.0984 0,0.19899 0,0.29848 0,0.44772 0,0.89545 0,1.34317 0,0.54722 -0.25821,1.15918 0,1.64165 0.08463,0.15814 0.389514,0.12882 0.447725,0.29848 0.05106,0.1488 -0.185385,0.29462 -0.149241,0.44773 0.04849,0.20541 0.317835,0.28136 0.447723,0.44772 0.357029,0.45727 0.740588,0.93332 0.895448,1.49241 0.03984,0.14383 -0.0472,0.30615 0,0.44773 0.07866,0.23597 0.298482,0.39797 0.447722,0.59696 0.149242,0.19899 0.298484,0.39798 0.447726,0.59697 0.447723,0.59696 0.895448,1.19393 1.34317,1.79089 0.149242,0.19899 0.27184,0.42109 0.447723,0.59697 0.351764,0.35176 0.80373,0.58686 1.193929,0.89544 0.304757,0.24101 0.608543,0.4842 0.895448,0.74621 0.2078,0.18977 0.369731,0.43096 0.596964,0.59696 1.401344,1.02374 3.110554,1.54301 4.626474,2.38786 0.50676,0.28243 0.96866,0.64593 1.49241,0.89545 0.52567,0.25043 1.10677,0.3669 1.64166,0.59697 0.61311,0.26372 1.17778,0.63172 1.79089,0.89544 1.60468,0.69022 3.28008,1.20289 4.92496,1.7909 1.83709,0.65673 3.64603,1.40421 5.52193,1.94013 0.441,0.12599 0.90664,0.1578 1.34317,0.29849 0.3606,0.11622 0.68288,0.33535 1.04469,0.44772 0.24224,0.0752 0.49834,0.0953 0.7462,0.14924 0.84893,0.18471 1.69859,0.3696 2.5371,0.59697 0.65305,0.17708 1.27103,0.49635 1.94014,0.59696 0.44275,0.0666 0.90263,-0.0799 1.34317,0 0.41822,0.0758 0.78339,0.33764 1.19393,0.44772 0.29228,0.0784 0.59666,0.10137 0.89545,0.14925 0.64608,0.10354 1.28772,0.24859 1.94013,0.29848 0.34722,0.0265 0.69648,-0.003 1.04469,0 2.58721,0.0249 5.17333,0.12437 7.76054,0.14924 1.4426,0.0139 2.88533,0 4.328,0 0.59696,0 1.19393,0 1.79089,0 0.29848,0 0.60235,0.0565 0.89545,0 0.26306,-0.0507 0.48941,-0.22214 0.7462,-0.29848 0.24315,-0.0723 0.50105,-0.0841 0.74621,-0.14924 0.30409,-0.0808 0.60002,-0.19027 0.89545,-0.29849 0.25155,-0.0922 0.48739,-0.2293 0.7462,-0.29848 0.33983,-0.0908 0.71428,-0.0285 1.04469,-0.14924 0.44082,-0.16104 0.75775,-0.57301 1.19393,-0.74621 0.23576,-0.0936 0.51464,-0.0457 0.74621,-0.14924 0.45414,-0.20305 0.78783,-0.60811 1.19393,-0.89544 0.14642,-0.1036 0.304,-0.19118 0.44772,-0.29849 0.31132,-0.23246 0.58413,-0.51374 0.89545,-0.7462 0.14372,-0.10731 0.3143,-0.1786 0.44772,-0.29849 0.289,-0.25969 0.51023,-0.58678 0.74621,-0.89544 0.36881,-0.48241 1.00007,-0.88681 1.04469,-1.49241 0.008,-0.11094 -0.15794,-0.18759 -0.14924,-0.29849 0.0335,-0.42663 0.71273,-0.61806 0.7462,-1.04469 0.009,-0.1109 -0.15615,-0.18746 -0.14924,-0.29848 0.0112,-0.17902 0.21797,-0.28744 0.29848,-0.44772 0.33197,-0.66085 0.5488,-1.37667 0.74621,-2.08938 0.0677,-0.24446 0.0841,-0.50105 0.14924,-0.74621 0.0404,-0.15204 0.12404,-0.29244 0.14924,-0.44772 0.0398,-0.24552 -0.0543,-0.50346 0,-0.74621 0.2039,-0.91215 0.90114,-1.64948 1.19393,-2.5371 0.0795,-0.24089 0.0522,-0.51185 0.14924,-0.7462 0.0686,-0.16571 0.22985,-0.28202 0.29849,-0.44773 0.0971,-0.23435 0.074,-0.50396 0.14924,-0.7462 0.22475,-0.72363 0.51618,-1.4334 0.89544,-2.08938 0.1245,-0.21534 0.36907,-0.36099 0.44773,-0.59696 0.0944,-0.28317 -0.0865,-0.60977 0,-0.89545 0.052,-0.17167 0.21827,-0.28729 0.29848,-0.44772 0.40107,-0.80215 0.47228,-1.74639 0.89545,-2.5371 0.11737,-0.2193 0.34082,-0.37238 0.44772,-0.59697 0.26445,-0.55561 0.2584,-1.2054 0.44772,-1.79089 0.0824,-0.2549 0.21059,-0.49314 0.29849,-0.74621 0.45962,-1.32334 0.67972,-2.72641 1.19393,-4.02951 0.0817,-0.20695 0.22129,-0.38831 0.29848,-0.59697 0.14232,-0.38474 0.15615,-0.80919 0.29848,-1.19393 0.11578,-0.31298 0.34452,-0.57809 0.44772,-0.89544 0.0936,-0.28777 0.0709,-0.60317 0.14925,-0.89545 0.11008,-0.41054 0.33765,-0.78339 0.44772,-1.19393 0.0784,-0.29228 0.0926,-0.59819 0.14924,-0.89545 0.26641,-1.39941 0.3413,-2.86641 0.89545,-4.17875 0.13955,-0.33048 0.49301,-0.55211 0.59696,-0.89545 0.11533,-0.3809 -0.0486,-0.79894 0,-1.19393 0.0501,-0.40715 0.20423,-0.79468 0.29848,-1.19393 0.10538,-0.44638 0.1679,-0.90351 0.29849,-1.34317 0.12102,-0.40745 0.37188,-0.77571 0.44772,-1.19393 0.0888,-0.48949 -0.0722,-1.00021 0,-1.49241 0.0754,-0.51387 0.35263,-0.98181 0.44772,-1.49241 0.11875,-0.63766 0.0921,-1.29404 0.14925,-1.94014 0.044,-0.49801 0.07,-0.99878 0.14924,-1.49241 0.0727,-0.45285 0.24843,-0.88726 0.29848,-1.34317 0.0923,-0.84065 -0.0421,-1.69245 0,-2.5371 0.0498,-0.99866 0.24867,-1.98617 0.29848,-2.98483 0.0322,-0.64591 -0.0312,-1.29417 0,-1.94013 0.0747,-1.54756 0.45871,-3.07715 0.44772,-4.62648 -0.003,-0.45047 -0.12433,-0.89338 -0.14924,-1.34317 -0.0248,-0.44704 0,-0.89545 0,-1.34317 0,-1.04469 0.052,-2.09067 0,-3.13406 -0.0249,-0.49933 -0.10173,-0.99473 -0.14924,-1.49242 -0.0522,-0.54699 -0.0504,-1.10113 -0.14924,-1.64165 -0.16711,-0.9142 -0.50911,-1.78774 -0.7462,-2.68634 -0.10465,-0.39665 -0.15616,-0.80919 -0.29849,-1.19393 -0.15437,-0.41731 -0.49473,-0.76088 -0.59696,-1.19393 -0.0686,-0.2905 0.062,-0.60347 0,-0.89545 -0.10171,-0.47928 -0.4198,-0.88637 -0.59697,-1.34317 -0.11377,-0.29334 -0.17179,-0.60745 -0.29848,-0.89544 -0.20624,-0.46882 -0.50726,-0.89016 -0.74621,-1.34318 -0.15569,-0.29517 -0.31101,-0.59102 -0.44772,-0.89544 -0.21949,-0.48877 -0.35339,-1.01519 -0.59696,-1.49242 -0.5082,-0.99574 -1.20093,-1.886 -1.7909,-2.83558 -0.55381,-0.89138 -1.04496,-1.82307 -1.64165,-2.68634 -0.32251,-0.46659 -0.7004,-0.89241 -1.04469,-1.34317 -0.30196,-0.39534 -0.58069,-0.8087 -0.89545,-1.19393 -0.37903,-0.46388 -0.8191,-0.8759 -1.19393,-1.34317 -0.69115,-0.86161 -1.19957,-1.86681 -1.94013,-2.68634 -0.40162,-0.44445 -0.94995,-0.74203 -1.34317,-1.19393 -0.70645,-0.81187 -1.10861,-1.85407 -1.7909,-2.68634 -0.31222,-0.38085 -0.71624,-0.67774 -1.04468,-1.04469 -0.42488,-0.4747 -0.78508,-1.00383 -1.19393,-1.49241 -0.33937,-0.40556 -0.7081,-0.78606 -1.04469,-1.19393 -0.72204,-0.87496 -1.35449,-1.82216 -2.08938,-2.68635 -0.61569,-0.72403 -1.24842,-1.4376 -1.94014,-2.08937 -0.79737,-0.75131 -1.76793,-1.30922 -2.5371,-2.08938 -0.44727,-0.45366 -0.74038,-1.04503 -1.19393,-1.49241 -0.40381,-0.39832 -0.91053,-0.67789 -1.34317,-1.04469 -0.67131,-0.56916 -1.23573,-1.26323 -1.94013,-1.79089 -0.23216,-0.17391 -0.51757,-0.26921 -0.74621,-0.44773 -0.22181,-0.17318 -0.36867,-0.43242 -0.59696,-0.59696 -0.18048,-0.13008 -0.39798,-0.19898 -0.59697,-0.29848 -0.0995,-0.0498 -0.21308,-0.078 -0.29848,-0.14925 -0.19096,-0.15938 -0.22525,-0.48572 -0.44772,-0.59696 -0.0445,-0.0222 -0.10329,0.019 -0.14925,0 -0.065,-0.0269 -0.0948,-0.10464 -0.14924,-0.14924 -0.13871,-0.11371 -0.40168,-0.12512 -0.44772,-0.29848 -0.0286,-0.10751 0.2279,-0.21983 0.14924,-0.29849 -0.0787,-0.0787 -0.32404,0.041 -0.29848,0.14924 0.0114,0.0484 0.12309,0.0423 0.14924,0 0.0585,-0.0946 -0.0394,-0.28066 -0.14924,-0.29848 -0.0694,-0.0113 -0.17616,0.0842 -0.14924,0.14924 0.019,0.046 0.1302,0.046 0.14924,0 0.0269,-0.065 -0.0995,-0.0995 -0.14924,-0.14924 -0.0995,-0.0995 -0.39798,-0.19898 -0.29849,-0.29848 0.0497,-0.0497 0.17617,0.0842 0.14925,0.14924 -0.019,0.046 -0.0995,0 -0.14925,0 -0.0498,0 -0.12309,0.0423 -0.14924,0 -0.0585,-0.0946 0.2279,-0.21982 0.14924,-0.29848 -0.0787,-0.0787 -0.32404,0.041 -0.29848,0.14924 0.0114,0.0484 0.13781,0.0484 0.14924,0 0.0256,-0.10826 -0.32404,-0.041 -0.29848,-0.14924 0.0114,-0.0484 0.1302,0.046 0.14924,0 0.0269,-0.065 -0.12232,-0.0842 -0.14924,-0.14924 -0.019,-0.046 0.046,-0.1302 0,-0.14924 -0.065,-0.0269 -0.17616,0.0842 -0.14924,0.14924 0.019,0.046 0.1302,0.046 0.14924,0 0.0269,-0.065 -0.0842,-0.12232 -0.14924,-0.14924 -0.046,-0.019 -0.14924,0 -0.14924,0 h 0.14924 c 0,0 -0.10692,0.0262 -0.14924,0 -0.0946,-0.0585 -0.23948,-0.23345 -0.14924,-0.29849 0.0571,-0.0411 0.17616,0.0842 0.14924,0.14925 -0.0381,0.0919 -0.29848,0 -0.29848,0 0,0 0.12309,0.0423 0.14924,0 0.0585,-0.0946 -0.0546,-0.24001 -0.14924,-0.29849 -0.0423,-0.0262 -0.10693,0.0262 -0.14925,0 -0.0946,-0.0585 -0.0394,-0.28066 -0.14924,-0.29848 -0.0694,-0.0113 -0.0798,0.16051 -0.14924,0.14924 -0.1098,-0.0178 -0.0546,-0.24 -0.14924,-0.29848 -0.0846,-0.0523 -0.22813,0.0703 -0.29848,0 -0.0352,-0.0352 0.0262,-0.10692 0,-0.14924 -0.0585,-0.0946 -0.20386,-0.0908 -0.29848,-0.14924 -0.21159,-0.13077 -0.361,-0.36907 -0.59697,-0.44773 -0.0472,-0.0157 -0.10205,0.0157 -0.14924,0 -0.23597,-0.0787 -0.38537,-0.31695 -0.59696,-0.44772 -0.0946,-0.0585 -0.20582,-0.0877 -0.29849,-0.14924 -0.38209,-0.2537 -0.61453,-0.73632 -1.04468,-0.89545 -0.13997,-0.0518 -0.30153,0.03 -0.44773,0 -0.37113,-0.0762 -0.75342,-0.20544 -1.04469,-0.44772 -0.1379,-0.1147 -0.16135,-0.33211 -0.29848,-0.44773 -0.37457,-0.31583 -0.9686,-0.28113 -1.34317,-0.59696 -0.13713,-0.11562 -0.1592,-0.33471 -0.29848,-0.44773 -0.41606,-0.33759 -1.09813,-0.23418 -1.49241,-0.59696 -0.0819,-0.0753 -0.0688,-0.22163 -0.14925,-0.29848 -0.35423,-0.33849 -0.92895,-0.33529 -1.34317,-0.59697 -0.38775,-0.24496 -0.63719,-0.68496 -1.04468,-0.89545 -0.18224,-0.0941 -0.41848,-0.0482 -0.59697,-0.14924 -0.12244,-0.0693 -0.18101,-0.22102 -0.29848,-0.29848 -0.22365,-0.14747 -0.52256,-0.15101 -0.74621,-0.29848 -0.0587,-0.0387 -0.0995,-0.0995 -0.14924,-0.14924 -0.0498,-0.0498 -0.0842,-0.17616 -0.14924,-0.14924 -0.046,0.019 0.0423,0.12309 0,0.14924 -0.0946,0.0585 -0.24,-0.0546 -0.29848,-0.14924 -0.0262,-0.0423 0.046,-0.13021 0,-0.14925 -0.065,-0.0269 -0.17616,0.0842 -0.14924,0.14925 0.019,0.046 0.12309,0.0423 0.14924,0 0.0585,-0.0946 -0.0394,-0.28067 -0.14924,-0.29849 -0.0694,-0.0113 -0.0798,0.16051 -0.14924,0.14924 -0.1098,-0.0178 -0.23949,-0.23344 -0.14925,-0.29848 0.0571,-0.0411 0.17617,0.0842 0.14925,0.14924 -0.019,0.046 -0.0995,0 -0.14925,0 -0.0498,0 -0.1302,0.046 -0.14924,0 -0.0269,-0.065 0.17616,-0.0842 0.14924,-0.14924 -0.019,-0.046 -0.11406,0.0352 -0.14924,0 -0.0352,-0.0352 0.046,-0.1302 0,-0.14924 -0.065,-0.0269 -0.17616,0.0842 -0.14924,0.14924 0.019,0.046 0.14924,0 0.14924,0 0,0 -0.0995,0 -0.14924,0 -0.0498,0 -0.1302,0.046 -0.14924,0 -0.0269,-0.065 0.17616,-0.0842 0.14924,-0.14924 -0.0571,-0.13788 -0.30247,0.0343 -0.44772,0 -0.10826,-0.0256 -0.24,-0.0546 -0.29848,-0.14924 -0.0523,-0.0846 0.0919,-0.2604 0,-0.29848 -0.065,-0.0269 -0.0843,0.12232 -0.14925,0.14924 -0.046,0.019 -0.11406,0.0352 -0.14924,0 -0.0704,-0.0703 0.39798,0.0995 0,-0.29848"
       style="fill:none;stroke:#000000;stroke-width:0.26458332px;stroke-linecap:butt;stroke-linejoin:miter;stroke-opacity:1" />
  </g>
</svg>
