<svg xmlns="http://www.w3.org/2000/svg" viewBox="0 0 185.208 185.208" height="700" width="700"><path d="M27.311 18.655c-.298 0-.781-.276-.895 0-.027.065.176.084.149.15-.038.091-.207-.039-.299 0-.195.08-.236.447-.447.447-.07 0-.08-.16-.15-.15-.11.019-.054.24-.149.3-.042.026-.102-.016-.149 0-.408.13-.747.438-1.045.746-.124.128-.195.3-.298.447-.144.203-.306.393-.448.597a97.238 97.238 0 00-3.283 5.074c-.209.343-.354.726-.597 1.045-.128.168-.333.27-.448.448-.377.58-.476 1.302-.746 1.94-.277.656-.614 1.286-.896 1.94-.105.246-.236.486-.298.746-.138.583-.124 1.193-.15 1.791-.012.298-.21.685 0 .896.036.035.106-.024.15 0 .158.084.246.276.298.447.058.19-.076.414 0 .597.108.26.49.337.597.597.038.092-.038.207 0 .299.108.26.49.337.597.597.02.046-.014.101 0 .149.052.172.12.43.299.448.07.007.079-.15.15-.15.28 0 .397.398.596.597.05.05.087.118.15.15.268.138.603.067.895.149.258.072.483.248.746.298.049.01.1-.004.15 0 .3.025.593.125.895.15.198.016.398 0 .597 0h3.432c.15 0 .3.025.448 0 .729-.127 1.36-.62 2.09-.747.097-.017.2.016.298 0 .155-.025.296-.107.447-.149.442-.122.942-.078 1.344-.298.123-.068.184-.216.298-.299.09-.065.2-.1.299-.149.1-.05.192-.116.298-.15.336-.104.694-.124 1.045-.148.099-.007.201.022.298 0 .109-.026.19-.124.299-.15.097-.023.2.016.298 0 .156-.025.294-.115.448-.149.831-.185 1.696-.165 2.537-.298.25-.04.494-.125.746-.15.297-.03.598.019.896 0 .4-.025.793-.124 1.194-.149.298-.019.597 0 .895 0h9.104c.249 0 .504-.057.746 0 .217.051.385.23.597.299.288.093.608.055.895.149.106.034.19.123.299.15.242.056.516-.096.746 0 .325.134.421.61.746.745.046.02.1 0 .15 0 .099 0 .213-.052.298 0 .095.059.084.209.15.299.04.057.122.084.149.149.038.092-.07.228 0 .298.035.036.114-.035.149 0 .035.036-.035.115 0 .15.035.035.114-.035.149 0 .106.105-.057.31 0 .447.027.065.122.085.15.15.094.23-.04.5 0 .746.024.155.123.292.148.448.016.098 0 .199 0 .298v2.984c0 .399.092.808 0 1.195-.05.216-.217.39-.298.597-.131.337-.188.7-.298 1.044-.227.705-.532 1.382-.747 2.09-.06.196-.056.414-.149.597-.176.346-.55.56-.746.895-.214.368-.234.827-.448 1.194-.195.336-.547.562-.746.896-.274.46-.33 1.028-.597 1.492-.443.767-1.097 1.39-1.642 2.09-.85 1.09-1.699 2.182-2.537 3.283-.753.99-1.424 2.045-2.238 2.985-.323.372-.733.663-1.045 1.044-.341.416-.539.94-.896 1.343-.304.344-.73.561-1.044.896-.34.363-.57.818-.896 1.194-.184.212-.432.368-.597.597-.195.27-.26.619-.447.895-.336.496-.894.825-1.194 1.343-.158.273-.153.617-.299.896-.115.22-.31.389-.447.597a7.5 7.5 0 00-.597 1.044c-.257.575-.357 1.21-.597 1.791-.086.206-.214.392-.299.597-.12.291-.202.596-.298.896-.207.644-.416 1.288-.597 1.94-.055.198-.092.4-.15.597-.088.302-.226.59-.298.895-.162.685-.137 1.405-.299 2.09-.072.306-.232.588-.298.895-.105.49-.083.997-.15 1.493-.04.3-.124.593-.149.895-.024.298.019.598 0 .895-.024.4-.124.794-.149 1.194-.018.298 0 .597 0 .896v2.09c0 .298-.048.6 0 .895.05.31.204.595.299.895.156.495.33.987.447 1.493.069.294.063.605.15.895.14.47.42.886.597 1.343.113.293.178.605.298.896.256.616.534 1.23.896 1.79.556.862 1.292 1.594 1.94 2.388.447.548.907 1.085 1.343 1.642.307.392.513.875.895 1.194.257.214.607.28.896.448 1.861 1.08 3.419 2.678 5.372 3.581.33.152.708.168 1.045.299.311.12.585.327.896.448.337.13.703.177 1.044.298.357.127.674.372 1.045.448.39.08.797-.028 1.194 0 .35.025.694.124 1.045.15.446.03.896-.026 1.343 0 .45.024.893.123 1.343.148 1.838.102 3.689-.165 5.522 0 .554.05 1.088.249 1.642.299.545.049 1.094 0 1.641 0h2.09c2.487 0 4.975.054 7.462 0 1.145-.025 2.292-.043 3.432-.15.35-.032.713-.031 1.045-.149.273-.097.471-.355.746-.447.427-.144.952.074 1.343-.15.216-.123.263-.43.448-.597.215-.194.541-.242.746-.447.205-.205.27-.518.448-.747.043-.055.11-.09.15-.149.212-.313.3-.695.447-1.044.457-1.091 1.002-2.152 1.343-3.284.073-.243.076-.503.15-.746.264-.875.725-1.68 1.044-2.537.439-1.18.992-2.34 1.194-3.582.048-.294-.037-.599 0-.895.15-1.222.577-2.393.895-3.582.094-.35.182-.702.299-1.045.086-.253.231-.487.298-.746.401-1.553.34-3.192.597-4.776.04-.25.11-.495.15-.746a25.91 25.91 0 00.298-2.537c.015-.248-.023-.499 0-.746.075-.807.245-1.604.448-2.388.079-.305.199-.597.298-.896.05-.149.111-.295.15-.447.218-.881.247-1.801.447-2.687.08-.353.213-.692.299-1.044.06-.247.093-.499.149-.746.09-.4.199-.796.298-1.194.05-.2.096-.4.15-.597.23-.851.62-1.665.746-2.537.028-.197-.058-.407 0-.597.052-.172.23-.282.298-.448.097-.235.077-.503.15-.746.076-.257.198-.498.298-.747.199-.497.413-.989.597-1.492.054-.148.089-.302.15-.448.042-.102.094-.201.148-.298.23-.41.454-.827.747-1.194.043-.055.1-.1.149-.15.05-.05.084-.122.15-.149.045-.019.1.014.148 0 .28-.077.467-.37.747-.447.143-.04.31.057.447 0 .195-.081.26-.354.448-.448 1.259-.63 2.786-.398 4.179-.597.348-.05.696-.105 1.044-.15.447-.056.897-.087 1.344-.148.3-.042.594-.125.895-.15.347-.028.697 0 1.045 0h2.388c.149 0 .3-.018.447 0 .408.05.794.209 1.194.299.248.055.503.077.746.149.257.076.495.206.747.298.443.163.919.24 1.343.448.161.079.29.212.448.299.429.236.924.342 1.343.597.272.165.486.412.746.597.383.271.857.419 1.194.746.129.125.164.329.298.448.25.22.607.28.896.447.31.18.618.37.895.597.218.179.39.407.597.597.287.262.588.509.896.746.338.262.718.47 1.044.747.322.272.597.597.896.895l1.492 1.492c.299.299.633.566.896.896.292.367.454.827.746 1.194.219.275.526.472.746.746a8.44 8.44 0 011.045 1.642c.135.284.186.601.298.895.135.354.372.674.448 1.045.07.341-.056.7 0 1.045.05.31.241.586.298.895.208 1.126.125 2.288.15 3.433.015.696 0 1.392 0 2.089v2.09c0 .298.02.597 0 .895-.05.701-.117 1.41-.299 2.09-.069.258-.212.492-.298.745-.235.686-.497 1.372-.597 2.09-.035.246.051.503 0 .746-.102.48-.396.896-.597 1.343-.247.548-.562 1.07-.746 1.642-.078.241-.02.528-.15.746-.198.334-.667.432-.895.746-.158.217-.167.513-.299.746-.243.434-.574.814-.895 1.194-.794.942-1.75 1.739-2.537 2.687-.432.52-.754 1.127-1.194 1.641-.686.803-1.508 1.478-2.239 2.239-.61.635-1.18 1.305-1.79 1.94-.732.761-1.506 1.48-2.24 2.239-.708.734-1.393 1.491-2.089 2.238-.647.696-1.216 1.474-1.94 2.09-.136.116-.311.181-.447.298-.561.482-1.022 1.072-1.493 1.642-.317.383-.57.818-.895 1.194-.369.425-.738.865-1.194 1.194-.09.065-.206.087-.299.149a5.687 5.687 0 00-1.044.895c-.29.316-.47.718-.747 1.045-.045.054-.101.098-.149.15-.311.336-.552.74-.895 1.044-.134.119-.323.17-.448.298-.327.337-.487.803-.746 1.194-.335.507-.655 1.028-1.045 1.493-.09.108-.208.19-.298.298-.39.465-.734.97-1.045 1.493-.057.095-.093.202-.15.298-.4.677-.929 1.271-1.342 1.94-.598.966-1.093 1.991-1.642 2.985-.248.448-.518.885-.746 1.343-.438.877-.722 1.828-1.194 2.687-.087.157-.224.284-.299.447-.235.517-.283 1.1-.447 1.642-.046.15-.124.292-.15.448-.032.196.03.4 0 .597-.075.514-.372.978-.447 1.492-.015.098 0 .2 0 .299v1.343c0 .547-.259 1.159 0 1.641.084.159.39.13.447.299.051.149-.185.294-.149.448.049.205.318.28.448.447.357.458.74.934.895 1.493.04.144-.047.306 0 .447.079.236.299.398.448.597l.448.597 1.343 1.791c.15.2.272.421.448.597.351.352.803.587 1.194.896.304.24.608.484.895.746.208.19.37.43.597.597 1.401 1.024 3.11 1.543 4.626 2.388.507.282.97.646 1.493.895.525.25 1.107.367 1.641.597.614.264 1.178.632 1.791.896 1.605.69 3.28 1.202 4.925 1.79 1.837.657 3.646 1.405 5.522 1.94.441.127.907.158 1.343.3.361.115.683.334 1.045.447.242.075.498.095.746.149.85.185 1.699.37 2.537.597.653.177 1.271.496 1.94.597.443.067.903-.08 1.344 0 .418.076.783.338 1.194.448.292.078.596.101.895.149.646.103 1.288.249 1.94.298.347.027.697-.003 1.045 0 2.587.025 5.173.125 7.76.15 1.443.014 2.886 0 4.328 0h1.791c.299 0 .603.056.896 0 .263-.051.49-.222.746-.299.243-.072.501-.084.746-.15.304-.08.6-.19.896-.298.251-.092.487-.229.746-.298.34-.09.714-.029 1.045-.15.44-.16.757-.572 1.193-.745.236-.094.515-.046.747-.15.454-.203.788-.608 1.194-.895.146-.104.304-.191.447-.299.312-.232.584-.513.896-.746.144-.107.314-.178.448-.298.289-.26.51-.587.746-.896.369-.482 1-.887 1.044-1.492.008-.111-.158-.188-.149-.299.034-.426.713-.618.746-1.044.01-.111-.156-.188-.149-.299.011-.179.218-.287.299-.448.332-.66.548-1.376.746-2.089.068-.244.084-.501.15-.746.04-.152.123-.293.148-.448.04-.245-.054-.503 0-.746.204-.912.901-1.65 1.194-2.537.08-.241.052-.512.15-.746.068-.166.23-.282.298-.448.097-.234.074-.504.15-.746.224-.724.515-1.434.895-2.09.124-.215.369-.36.447-.597.095-.283-.086-.61 0-.895.052-.172.219-.287.299-.448.4-.802.472-1.746.895-2.537.118-.22.341-.372.448-.597.264-.556.258-1.205.448-1.79.082-.256.21-.494.298-.747.46-1.323.68-2.726 1.194-4.03.082-.206.221-.388.299-.596.142-.385.156-.81.298-1.194.116-.313.345-.578.448-.896.093-.288.07-.603.15-.895.11-.41.337-.784.447-1.194.078-.293.092-.598.149-.896.266-1.4.341-2.866.895-4.178.14-.33.494-.553.597-.896.116-.38-.048-.799 0-1.194.05-.407.205-.794.299-1.194.105-.446.168-.903.298-1.343.121-.407.372-.776.448-1.194.089-.49-.072-1 0-1.492.076-.514.353-.982.448-1.493.119-.637.092-1.294.15-1.94.043-.498.07-.999.148-1.492.073-.453.249-.887.299-1.343.092-.841-.042-1.693 0-2.537.05-1 .249-1.987.298-2.985.033-.646-.03-1.294 0-1.94.075-1.548.459-3.078.448-4.627-.003-.45-.124-.893-.15-1.343-.024-.447 0-.896 0-1.343 0-1.045.053-2.09 0-3.134-.024-.5-.1-.995-.148-1.493-.053-.547-.05-1.1-.15-1.641-.167-.915-.509-1.788-.746-2.687-.105-.396-.156-.809-.298-1.194-.155-.417-.495-.76-.597-1.194-.069-.29.062-.603 0-.895-.102-.48-.42-.886-.597-1.343-.114-.294-.172-.608-.299-.896-.206-.468-.507-.89-.746-1.343a15.828 15.828 0 01-.448-.895c-.22-.489-.353-1.015-.597-1.493-.508-.995-1.2-1.886-1.79-2.835-.554-.892-1.046-1.823-1.642-2.687-.323-.466-.7-.892-1.045-1.343-.302-.395-.58-.808-.895-1.194-.38-.464-.82-.876-1.194-1.343-.691-.861-1.2-1.867-1.94-2.686-.402-.445-.95-.742-1.344-1.194-.706-.812-1.108-1.854-1.79-2.686-.313-.381-.717-.678-1.045-1.045-.425-.475-.785-1.004-1.194-1.493-.34-.405-.708-.786-1.045-1.194-.722-.874-1.354-1.822-2.09-2.686-.615-.724-1.248-1.437-1.94-2.09-.797-.75-1.767-1.308-2.536-2.089-.448-.453-.74-1.045-1.194-1.492-.404-.398-.91-.678-1.344-1.045-.67-.569-1.235-1.263-1.94-1.79-.232-.175-.517-.27-.746-.448-.222-.174-.369-.433-.597-.597-.18-.13-.398-.2-.597-.299-.1-.05-.213-.078-.298-.149-.191-.16-.226-.486-.448-.597-.044-.022-.103.019-.15 0-.064-.027-.094-.105-.148-.15-.14-.113-.402-.124-.448-.298-.029-.107.228-.22.149-.298-.079-.079-.324.04-.298.15.011.047.123.041.149 0 .058-.096-.04-.282-.15-.3-.069-.01-.176.085-.149.15.02.046.13.046.15 0 .026-.065-.1-.1-.15-.15-.1-.099-.398-.198-.298-.298.05-.05.176.084.15.15-.02.045-.1 0-.15 0-.05 0-.123.042-.15 0-.058-.095.228-.22.15-.3-.079-.078-.324.042-.299.15.012.048.138.048.15 0 .025-.108-.324-.04-.299-.15.012-.048.13.047.15 0 .026-.064-.123-.083-.15-.148-.019-.046.046-.13 0-.15-.065-.027-.176.085-.15.15.02.046.131.046.15 0 .027-.065-.084-.123-.15-.15-.045-.019-.148 0-.148 0h.149s-.107.027-.15 0c-.094-.058-.239-.233-.149-.298.057-.041.177.084.15.15-.038.091-.299 0-.299 0s.123.041.15 0c.058-.095-.055-.24-.15-.3-.042-.026-.107.027-.15 0-.094-.058-.038-.28-.148-.298-.07-.011-.08.16-.15.15-.11-.018-.054-.24-.149-.3-.084-.051-.228.071-.298 0-.035-.034.026-.106 0-.148-.059-.095-.204-.091-.299-.15-.211-.13-.36-.369-.597-.447-.047-.016-.102.015-.149 0-.236-.079-.385-.317-.597-.448-.095-.059-.206-.088-.298-.15-.383-.253-.615-.736-1.045-.895-.14-.051-.302.03-.448 0-.371-.076-.753-.205-1.045-.447-.137-.115-.16-.333-.298-.448-.375-.316-.969-.281-1.343-.597-.137-.116-.16-.335-.299-.448-.416-.337-1.098-.234-1.492-.597-.082-.075-.069-.221-.15-.298-.354-.339-.928-.336-1.342-.597-.388-.245-.638-.685-1.045-.896-.182-.094-.419-.048-.597-.149-.123-.07-.181-.221-.299-.298-.223-.148-.522-.151-.746-.299-.059-.039-.1-.1-.15-.15-.049-.049-.083-.175-.148-.148-.046.019.042.123 0 .149-.095.058-.24-.055-.299-.15-.026-.042.046-.13 0-.149-.065-.027-.176.085-.149.15.019.046.123.042.15 0 .058-.095-.04-.281-.15-.299-.07-.011-.08.16-.15.15-.11-.018-.239-.234-.149-.3.058-.04.177.085.15.15-.02.046-.1 0-.15 0-.05 0-.13.046-.149 0-.027-.065.176-.084.15-.15-.02-.045-.115.036-.15 0-.035-.034.046-.13 0-.148-.065-.027-.176.084-.149.149.019.046.15 0 .15 0h-.15c-.05 0-.13.046-.15 0-.026-.065.177-.084.15-.15-.057-.137-.302.035-.448 0-.108-.025-.24-.054-.298-.149-.053-.084.092-.26 0-.298-.065-.027-.085.122-.15.15-.045.018-.114.034-.149 0-.07-.071.398.099 0-.3" fill="none" stroke="#000" stroke-width=".265"/></svg>