<svg class="sat-nav" xmlns="http://www.w3.org/2000/svg" viewBox="0 0 317.5 178.59375">
  <g transform="translate(0 -118.40623)">
    <path d="M14.67186 124.64984s96.01292-5.82083 144.07814-5.82083 144.07814 5.82083 144.07814 5.82083c3.06918.124 5.54454 2.47287 5.54454 5.54454v155.01744c0 3.07168-2.47286 5.54454-5.54454 5.54454H14.67186c-3.071675 0-5.5445407-2.47286-5.5445407-5.54454V130.19438c0-3.07167 2.4728657-5.54454 5.5445407-5.54454z" fill="#4d4d4d"/>
    <path d="M14.67186 124.64984h288.15628c3.07168 0 5.54454 2.47287 5.54454 5.54454v155.01744c0 3.07168-2.47286 5.54454-5.54454 5.54454H14.67186c-3.071675 0-5.5445407-2.47286-5.5445407-5.54454V130.19438c0-3.07167 2.4728657-5.54454 5.5445407-5.54454z" fill="#999"/>
    <path d="M30.436991 138.59782H287.06301c2.73558 0 4.93785 2.05757 4.93785 4.61339v128.98376c0 2.55584-2.20227 4.6134-4.93785 4.6134H30.436991c-2.73557 0-4.937853-2.05756-4.937853-4.6134V143.21121c0-2.55582 2.202283-4.61339 4.937853-4.61339z" fill="#666"/>
    <text style="line-height:1.25" x="158.41895" y="286.11819" font-weight="400" font-size="10.58333302" font-family="sans-serif" letter-spacing="0" word-spacing="0" stroke-width=".26458332">
      <tspan x="158.41895" y="286.11819" style="-inkscape-font-specification:'Copperplate, Normal';font-variant-ligatures:normal;font-variant-caps:normal;font-variant-numeric:normal;font-feature-settings:normal;text-align:center" font-size="9.87777805" font-family="Copperplate" text-anchor="middle" fill="#fff">NAVNAV</tspan>
    </text>
    <path d="M30.436991 138.59782H287.06301c2.73558 0 4.93785 2.05757 4.93785 4.61339v128.98376c0 2.55584-2.20227 4.6134-4.93785 4.6134H30.436991c-2.73557 0-4.937853-2.05756-4.937853-4.6134V143.21121c0-2.55582 2.202283-4.61339 4.937853-4.61339z"/>
    <g transform="translate(-325.4375 3.9687508)">
      <rect width="260.98724" height="134.02754" x="353.69388" y="136.72058" ry="0" fill="#e6e6e6"/>
      <path fill="#cfa" d="M489.87708 210.34946h124.80428v29.367199H489.87708zM384.33726 212.01757l52.26271-31.99217 46.66201 28.88952v49.58922h-81.19351z"/>
      <path d="M582.5287785 217.30045142c-3.40320309-.00132292-6.92163221.02248958-10.542508.07648046-12.87428088.1919896-27.04483487.76582586-41.94524197 1.9569853-55.39726701 4.42854287-121.2137991 17.14853992-168.88271933 51.4144333h22.00640097c43.24434612-24.97331408 99.36725938-35.67171722 147.82355314-39.54538915 34.23438415-2.73674678 64.49155169-2.16033612 83.69307832-1.21439515v-11.91916946c-8.75852843-.42237553-19.6821687-.76397642-32.15256314-.7689453z" style="line-height:normal;font-variant-ligatures:normal;font-variant-position:normal;font-variant-caps:normal;font-variant-numeric:normal;font-variant-alternates:normal;font-feature-settings:normal;text-indent:0;text-align:start;text-decoration-line:none;text-decoration-style:solid;text-decoration-color:#000;text-transform:none;text-orientation:mixed;white-space:normal;shape-padding:0;isolation:auto;mix-blend-mode:normal;solid-color:#000;solid-opacity:1" color="#000" font-weight="400" font-family="sans-serif" overflow="visible" fill="#80e5ff"/>
      <path d="M353.69364617 136.72035737v13.44930777l35.13531685 92.2129764-35.13531685 12.50931199v7.02127693l37.4912462-13.34750404 8.4522203 22.18262406h7.07913866l-2.14561205-5.63117993h78.69134213v5.63117993h6.61508596v-24.41608042h62.70468817v24.41608042h6.61564158v-24.41608043h55.48394451v-6.61561777H489.87706737v-29.36719917h124.80427426v-6.61509919h-74.7985276v-67.01399655h-6.61511242v67.01399655h-26.1932205v-67.01399655h-6.61564158v67.01399655h-12.97439921l-47.87870836-28.72796055v-38.286036h-6.61564158v38.28965285l-51.04595603 30.72628966-26.29762508-69.0159425zm85.9120858 46.00029107l43.65624944 26.19426825v49.58922107h-81.19350668l-6.9530647-18.35960396-.05323417.01912937-10.72491174-28.14608625 48.65282626-29.28710186v38.33408698h6.61564158z" style="line-height:normal;font-variant-ligatures:normal;font-variant-position:normal;font-variant-caps:normal;font-variant-numeric:normal;font-variant-alternates:normal;font-feature-settings:normal;text-indent:0;text-align:start;text-decoration-line:none;text-decoration-style:solid;text-decoration-color:#000;text-transform:none;text-orientation:mixed;white-space:normal;shape-padding:0;isolation:auto;mix-blend-mode:normal;solid-color:#000;solid-opacity:1" color="#000" font-weight="400" font-family="sans-serif" overflow="visible" fill="#fff"/>
      <path d="M567.33124431 150.29162218a12.49999971 12.49999971 0 00-12.5000013 12.50001189 12.49999971 12.49999971 0 0012.5000013 12.50001188 12.49999971 12.49999971 0 00.42994791-.01550458 17.26250045 17.26250045 0 0016.76796854 13.24466843 17.26250045 17.26250045 0 0017.2625277-17.26251182 17.26250045 17.26250045 0 00-17.2625277-17.26251182 17.26250045 17.26250045 0 00-7.04762679 1.52755598 12.49999971 12.49999971 0 00-10.15028966-5.2317226z" fill="#aef" stroke="#fffffd" stroke-width="1.9999748592113997" stroke-linecap="round" stroke-linejoin="round"/>
      <path fill="#deaa87" d="M507.07446 136.72035h26.19322v67.014h-26.19322z"/>
      <path d="M355.64651 136.72036h77.34358v38.28965l-51.04596 30.72629z" fill="#cfa"/>
      <path fill="#e9afaf" d="M559.19739 246.33228h55.483753v24.415838H559.19739z"/>
    </g>
    <circle cx="284.79752" cy="283.52032" r="3.3072917" fill="red"/>
    <path d="M110.9555 214.39497v-33.96303l-56.413171 34.10694-12.952004-34.39476 32.955656 85.77105h86.490609v-18.85236h69.22127v22.30623" fill="none" stroke="#b2b2b2" stroke-width="3.96875"/>
    <path d="M60.19964 162.99631c0 4.38376-7.9375 15.13306-7.9375 15.13306s-7.9375-10.7493-7.9375-15.13306c0-4.38376 3.55374-7.9375 7.9375-7.9375 4.38376 0 7.9375 3.55374 7.9375 7.9375z" fill="red"/>
    <path d="M55.666438 162.99631a3.4042985 3.4042988 0 01-3.404299 3.4043 3.4042985 3.4042988 0 01-3.404298-3.4043 3.4042985 3.4042988 0 013.404298-3.4043 3.4042985 3.4042988 0 013.404299 3.4043z" fill="#fff"/>
    <text y="170.3768" x="61.806778" style="line-height:1.25" font-weight="400" font-size="10.58333302" font-family="sans-serif" letter-spacing="0" word-spacing="0" stroke-width=".26458332">
      <tspan y="170.3768" x="61.806778">Home</tspan>
    </text>
    <path d="M41.590325 180.14412l12.952004 34.39476 56.413171-34.10694 50.65673 30.79699h49.50544v-12.52027" fill="none" stroke="#b2b2b2" stroke-width="3.96875"/>
    <path d="M230.40176 268.64948v-21.29885h-68.78953v-36.1217l-50.65673-30.79699v33.96303" fill="none" stroke="#c94cc0" stroke-width="3.96875"/>
    <path d="M41.590325 180.14412l12.952004 34.39476 56.413171-34.10694v33.96303-33.96303l50.65673 30.79699h49.50544v-12.52027" fill="none" stroke="#ea3030" stroke-width="3.96875"/>
    <path id="homeToContact" d="M230.40176 268.64948v-21.29885l-69.36517-.28782v18.85236H74.54598l-32.955655-85.77105" fill="none" stroke="#c84bc0" stroke-width="3.96875"/>
    <g class='position-marker'><circle cx="41.615379" cy="179.83124" r="4.5357141" fill="red" stroke="#1495ff" stroke-width="1.51190472" stroke-linecap="round" stroke-linejoin="round"/></g>
    <path d="M230.40176 268.64948l-.1439-21.58667-68.64563.28782v-36.1217h49.50544v-12.52027" fill="none" stroke="#c148bc" stroke-width="3.96875"/>
    <path id="contactToAbout" d="M110.9555 214.39497v-33.96303l50.65673 30.79699v36.1217h68.78953v21.29885" fill="none" stroke="#c96722" stroke-width="3.96875"/>
    <path d="M104.380366 221.712063c0 4.38376-7.9375 15.13306-7.9375 15.13306s-7.9375-10.7493-7.9375-15.13306c0-4.38376 3.55374-7.9375 7.9375-7.9375 4.38376 0 7.9375 3.55374 7.9375 7.9375z" fill="red"/>
    <path d="M99.847164 221.712063a3.4042985 3.4042988 0 01-3.404299 3.4043 3.4042985 3.4042988 0 01-3.404298-3.4043 3.4042985 3.4042988 0 013.404298-3.4043 3.4042985 3.4042988 0 013.404299 3.4043z" fill="#fff"/>
    <text y="229.25534" x="106.94353" style="line-height:1.25" font-weight="400" font-size="10.58333302" font-family="sans-serif" letter-spacing="0" word-spacing="0" stroke-width=".26458332">
      <tspan y="229.25534" x="106.94353">About</tspan>
    </text>
    <path d="M235.0517 186.45383c0 4.38376-7.9375 15.13306-7.9375 15.13306s-7.9375-10.7493-7.9375-15.13306c0-4.38376 3.55374-7.9375 7.9375-7.9375 4.38376 0 7.9375 3.55374 7.9375 7.9375z" fill="red"/>
    <path d="M230.518498 186.45383a3.4042985 3.4042988 0 01-3.404299 3.4043 3.4042985 3.4042988 0 01-3.404298-3.4043 3.4042985 3.4042988 0 013.404298-3.4043 3.4042985 3.4042988 0 013.404299 3.4043z" fill="#fff"/>
    <text y="193.9971" x="237.3461" style="line-height:1.25" font-weight="400" font-size="10.58333302" font-family="sans-serif" letter-spacing="0" word-spacing="0" stroke-width=".26458332">
      <tspan y="193.9971" x="237.3461">Work</tspan>
    </text>
    <g>
      <path d="M226.12921 253.084697c0 4.38376-7.9375 15.13306-7.9375 15.13306s-7.9375-10.7493-7.9375-15.13306c0-4.38376 3.55374-7.9375 7.9375-7.9375 4.38376 0 7.9375 3.55374 7.9375 7.9375z" fill="red"/>
      <path d="M221.596008 253.084697a3.4042985 3.4042988 0 01-3.404299 3.4043 3.4042985 3.4042988 0 01-3.404298-3.4043 3.4042985 3.4042988 0 013.404298-3.4043 3.4042985 3.4042988 0 013.404299 3.4043z" fill="#fff"/>
      <text y="260.53494" x="228.18073" style="line-height:1.25" font-weight="400" font-size="10.58333302" font-family="sans-serif" letter-spacing="0" word-spacing="0" stroke-width=".26458332">
        <tspan y="260.53494" x="228.18073">Contact</tspan>
      </text>
    </g>
    <circle r="4.5357141" cy="213.93819" cx="110.83665" fill="#0cf" stroke="#1495ff" stroke-width="1.51190472" stroke-linecap="round" stroke-linejoin="round"/>
    <circle cx="210.99881" cy="198.68361" r="4.5357141" fill="#0cf" stroke="#1495ff" stroke-width="1.51190472" stroke-linecap="round" stroke-linejoin="round"/>
    <circle r="4.5357141" cy="268.33661" cx="230.42683" fill="#0cf" stroke="#1495ff" stroke-width="1.51190472" stroke-linecap="round" stroke-linejoin="round"/>
  </g>
</svg>
