<?xml version="1.0" encoding="UTF-8" standalone="no"?>
<!-- Created with Inkscape (http://www.inkscape.org/) -->

<svg
   xmlns:dc="http://purl.org/dc/elements/1.1/"
   xmlns:cc="http://creativecommons.org/ns#"
   xmlns:rdf="http://www.w3.org/1999/02/22-rdf-syntax-ns#"
   xmlns:svg="http://www.w3.org/2000/svg"
   xmlns="http://www.w3.org/2000/svg"
   xmlns:sodipodi="http://sodipodi.sourceforge.net/DTD/sodipodi-0.dtd"
   xmlns:inkscape="http://www.inkscape.org/namespaces/inkscape"
   width="1200"
   height="675"
   viewBox="0 0 317.5 178.59375"
   version="1.1"
   id="svg8"
   inkscape:version="0.92.2 5c3e80d, 2017-08-06"
   sodipodi:docname="clean-and-full-nav.svg">
  <defs
     id="defs2" />
  <sodipodi:namedview
     id="base"
     pagecolor="#ffffff"
     bordercolor="#666666"
     borderopacity="1.0"
     inkscape:pageopacity="0.0"
     inkscape:pageshadow="2"
     inkscape:zoom="1.4142136"
     inkscape:cx="882.84271"
     inkscape:cy="365.78427"
     inkscape:document-units="mm"
     inkscape:current-layer="layer1"
     showgrid="false"
     units="px"
     inkscape:window-width="3440"
     inkscape:window-height="1418"
     inkscape:window-x="0"
     inkscape:window-y="516"
     inkscape:window-maximized="1" />
  <metadata
     id="metadata5">
    <rdf:RDF>
      <cc:Work
         rdf:about="">
        <dc:format>image/svg+xml</dc:format>
        <dc:type
           rdf:resource="http://purl.org/dc/dcmitype/StillImage" />
        <dc:title></dc:title>
      </cc:Work>
    </rdf:RDF>
  </metadata>
  <g
     inkscape:label="Layer 1"
     inkscape:groupmode="layer"
     id="layer1"
     transform="translate(0,-118.40623)">
    <path
       sodipodi:nodetypes="sassssssss"
       inkscape:connector-curvature="0"
       id="path818"
       d="m 14.67186,124.64984 c 0,0 96.01292,-5.82083 144.07814,-5.82083 48.06522,0 144.07814,5.82083 144.07814,5.82083 3.06918,0.124 5.54454,2.47287 5.54454,5.54454 v 155.01744 c 0,3.07168 -2.47286,5.54454 -5.54454,5.54454 H 14.67186 c -3.071675,0 -5.5445407,-2.47286 -5.5445407,-5.54454 V 130.19438 c 0,-3.07167 2.4728657,-5.54454 5.5445407,-5.54454 z"
       style="fill:#4d4d4d;fill-opacity:1;stroke:none;stroke-width:1.0151087;stroke-linecap:square;stroke-linejoin:round;stroke-miterlimit:4;stroke-dasharray:1.01510871, 3.04532610999999998;stroke-dashoffset:0;stroke-opacity:0.73303169" />
    <path
       style="fill:#999999;fill-opacity:1;stroke:none;stroke-width:1.0151087;stroke-linecap:square;stroke-linejoin:round;stroke-miterlimit:4;stroke-dasharray:1.01510871, 3.04532610999999998;stroke-dashoffset:0;stroke-opacity:0.73303169"
       d="M 14.67186,124.64984 H 158.75 302.82814 c 3.07168,0 5.54454,2.47287 5.54454,5.54454 v 155.01744 c 0,3.07168 -2.47286,5.54454 -5.54454,5.54454 H 14.67186 c -3.071675,0 -5.5445407,-2.47286 -5.5445407,-5.54454 V 130.19438 c 0,-3.07167 2.4728657,-5.54454 5.5445407,-5.54454 z"
       id="rect815"
       inkscape:connector-curvature="0"
       sodipodi:nodetypes="scssssssss" />
    <path
       sodipodi:nodetypes="scssssssss"
       inkscape:connector-curvature="0"
       id="path820"
       d="M 30.436991,138.59782 H 158.75 287.06301 c 2.73558,0 4.93785,2.05757 4.93785,4.61339 v 128.98376 c 0,2.55584 -2.20227,4.6134 -4.93785,4.6134 H 30.436991 c -2.73557,0 -4.937853,-2.05756 -4.937853,-4.6134 V 143.21121 c 0,-2.55582 2.202283,-4.61339 4.937853,-4.61339 z"
       style="fill:#666666;fill-opacity:1;stroke:none;stroke-width:0.87382829;stroke-linecap:square;stroke-linejoin:round;stroke-miterlimit:4;stroke-dasharray:0.87382832, 2.62148495;stroke-dashoffset:0;stroke-opacity:0.73303169" />
    <text
       xml:space="preserve"
       style="font-style:normal;font-weight:normal;font-size:10.58333302px;line-height:1.25;font-family:sans-serif;letter-spacing:0px;word-spacing:0px;fill:#000000;fill-opacity:1;stroke:none;stroke-width:0.26458332"
       x="158.41895"
       y="286.11819"
       id="text843"><tspan
         sodipodi:role="line"
         id="tspan841"
         x="158.41895"
         y="286.11819"
         style="font-style:normal;font-variant:normal;font-weight:normal;font-stretch:normal;font-size:9.87777805px;font-family:Copperplate;-inkscape-font-specification:'Copperplate, Normal';font-variant-ligatures:normal;font-variant-caps:normal;font-variant-numeric:normal;font-feature-settings:normal;text-align:center;writing-mode:lr-tb;text-anchor:middle;fill:#ffffff;stroke-width:0.26458332">NAVNAV</tspan></text>
    <path
       style="fill:#000000;fill-opacity:1;stroke:none;stroke-width:0.87382829;stroke-linecap:square;stroke-linejoin:round;stroke-miterlimit:4;stroke-dasharray:0.87382832, 2.62148495000000015;stroke-dashoffset:0;stroke-opacity:0.73303169"
       d="M 30.436991,138.59782 H 158.75 287.06301 c 2.73558,0 4.93785,2.05757 4.93785,4.61339 v 128.98376 c 0,2.55584 -2.20227,4.6134 -4.93785,4.6134 H 30.436991 c -2.73557,0 -4.937853,-2.05756 -4.937853,-4.6134 V 143.21121 c 0,-2.55582 2.202283,-4.61339 4.937853,-4.61339 z"
       id="path847"
       inkscape:connector-curvature="0"
       sodipodi:nodetypes="scssssssss" />
    <rect
       ry="0"
       y="140.68933"
       x="28.256378"
       height="134.02754"
       width="260.98724"
       id="rect926"
       style="fill:#e6e6e6;fill-opacity:1;stroke:none;stroke-width:1.07557309;stroke-linecap:square;stroke-linejoin:round;stroke-miterlimit:4;stroke-dasharray:1.07557305, 3.22671914;stroke-dashoffset:0;stroke-opacity:0.73303169" />
    <rect
       style="fill:#ccffaa;fill-opacity:1;stroke:none;stroke-width:2;stroke-linecap:round;stroke-linejoin:round;stroke-miterlimit:4;stroke-dasharray:none;stroke-dashoffset:0;stroke-opacity:1"
       id="rect1006"
       width="124.80428"
       height="29.367199"
       x="164.43958"
       y="214.31821" />
    <path
       style="fill:#ccffaa;fill-opacity:1;stroke:none;stroke-width:2;stroke-linecap:round;stroke-linejoin:round;stroke-miterlimit:4;stroke-dasharray:none;stroke-dashoffset:0;stroke-opacity:1"
       d="m 58.89976,215.98632 52.26271,-31.99217 46.66201,28.88952 v 49.58922 H 76.63097 Z"
       id="rect1011"
       inkscape:connector-curvature="0"
       sodipodi:nodetypes="cccccc" />
    <path
       inkscape:connector-curvature="0"
       style="color:#000000;font-style:normal;font-variant:normal;font-weight:normal;font-stretch:normal;font-size:medium;line-height:normal;font-family:sans-serif;font-variant-ligatures:normal;font-variant-position:normal;font-variant-caps:normal;font-variant-numeric:normal;font-variant-alternates:normal;font-feature-settings:normal;text-indent:0;text-align:start;text-decoration:none;text-decoration-line:none;text-decoration-style:solid;text-decoration-color:#000000;letter-spacing:normal;word-spacing:normal;text-transform:none;writing-mode:lr-tb;direction:ltr;text-orientation:mixed;dominant-baseline:auto;baseline-shift:baseline;text-anchor:start;white-space:normal;shape-padding:0;clip-rule:nonzero;display:inline;overflow:visible;visibility:visible;opacity:1;isolation:auto;mix-blend-mode:normal;color-interpolation:sRGB;color-interpolation-filters:linearRGB;solid-color:#000000;solid-opacity:1;vector-effect:none;fill:#80e5ff;fill-opacity:1;fill-rule:nonzero;stroke:none;stroke-width:11.90625;stroke-linecap:butt;stroke-linejoin:miter;stroke-miterlimit:4;stroke-dasharray:none;stroke-dashoffset:0;stroke-opacity:1;color-rendering:auto;image-rendering:auto;shape-rendering:auto;text-rendering:auto;enable-background:accumulate"
       d="m 257.09128,221.2692 c -3.4032,-0.001 -6.92163,0.0225 -10.54251,0.0765 -12.87428,0.19199 -27.04483,0.76583 -41.94524,1.95699 -55.39727,4.42854 -121.213801,17.14854 -168.882721,51.41443 H 57.72721 c 43.24435,-24.97331 99.36726,-35.67172 147.82355,-39.54539 34.23439,-2.73675 64.49155,-2.16033 83.69308,-1.21439 v -11.91917 c -8.75853,-0.42238 -19.68217,-0.76398 -32.15256,-0.76895 z"
       id="path984" />
    <path
       style="color:#000000;font-style:normal;font-variant:normal;font-weight:normal;font-stretch:normal;font-size:medium;line-height:normal;font-family:sans-serif;font-variant-ligatures:normal;font-variant-position:normal;font-variant-caps:normal;font-variant-numeric:normal;font-variant-alternates:normal;font-feature-settings:normal;text-indent:0;text-align:start;text-decoration:none;text-decoration-line:none;text-decoration-style:solid;text-decoration-color:#000000;letter-spacing:normal;word-spacing:normal;text-transform:none;writing-mode:lr-tb;direction:ltr;text-orientation:mixed;dominant-baseline:auto;baseline-shift:baseline;text-anchor:start;white-space:normal;shape-padding:0;clip-rule:nonzero;display:inline;overflow:visible;visibility:visible;opacity:1;isolation:auto;mix-blend-mode:normal;color-interpolation:sRGB;color-interpolation-filters:linearRGB;solid-color:#000000;solid-opacity:1;vector-effect:none;fill:#ffffff;fill-opacity:1;fill-rule:nonzero;stroke:none;stroke-width:24.99999809;stroke-linecap:butt;stroke-linejoin:miter;stroke-miterlimit:4;stroke-dasharray:none;stroke-dashoffset:0;stroke-opacity:1;color-rendering:auto;image-rendering:auto;shape-rendering:auto;text-rendering:auto;enable-background:accumulate"
       d="M 106.79492 84.21875 L 106.79492 135.05078 L 239.58984 483.57227 L 106.79492 530.85156 L 106.79492 557.38867 L 248.49414 506.94141 L 280.43945 590.78125 L 307.19531 590.78125 L 299.08594 569.49805 L 596.50195 569.49805 L 596.50195 590.78125 L 621.50391 590.78125 L 621.50391 544.50391 L 621.50391 498.5 L 858.49805 498.5 L 858.49805 590.78125 L 883.50195 590.78125 L 883.50195 498.5 L 1093.2051 498.5 L 1093.2051 473.49609 L 621.50391 473.49609 L 621.50391 362.50195 L 686.50195 362.50195 L 1093.2051 362.50195 L 1093.2051 337.5 L 810.50195 337.5 L 810.50195 84.21875 L 785.5 84.21875 L 785.5 337.5 L 686.50195 337.5 L 686.50195 84.21875 L 661.49805 84.21875 L 661.49805 337.5 L 612.46094 337.5 L 431.50195 228.92188 L 431.50195 84.21875 L 406.49805 84.21875 L 406.49805 228.93555 L 213.56836 345.06641 L 114.17578 84.21875 L 106.79492 84.21875 z M 431.50195 258.07812 L 596.50195 357.08008 L 596.50195 544.50391 L 289.62891 544.50391 L 263.34961 475.11328 L 263.14844 475.18555 L 222.61328 368.80664 L 406.49805 258.11523 L 406.49805 360.07227 L 431.50195 360.07227 L 431.50195 258.07812 z "
       id="path928"
       transform="matrix(0.26458333,0,0,0.26458333,0,118.40623)" />
    <path
       inkscape:connector-curvature="0"
       style="fill:#aaeeff;fill-opacity:1;stroke:#fffffd;stroke-width:2;stroke-linecap:round;stroke-linejoin:round;stroke-miterlimit:4;stroke-dasharray:none;stroke-dashoffset:0;stroke-opacity:1"
       d="m 235.56165,144.47441 a 12.5,12.5 0 0 0 -12.5,12.50001 12.5,12.5 0 0 0 12.5,12.50002 12.5,12.5 0 0 0 0.42995,-0.0155 17.2625,17.2625 0 0 0 16.76797,13.24467 17.2625,17.2625 0 0 0 17.26253,-17.26251 17.2625,17.2625 0 0 0 -17.26253,-17.26251 17.2625,17.2625 0 0 0 -7.04763,1.52755 12.5,12.5 0 0 0 -10.15029,-5.23172 z"
       id="path997" />
    <rect
       style="fill:#deaa87;fill-opacity:1;stroke:none;stroke-width:2;stroke-linecap:round;stroke-linejoin:round;stroke-miterlimit:4;stroke-dasharray:none;stroke-dashoffset:0;stroke-opacity:1"
       id="rect1004"
       width="26.19322"
       height="67.014"
       x="181.63696"
       y="140.6891" />
    <path
       style="fill:#ccffaa;fill-opacity:1;stroke:none;stroke-width:2;stroke-linecap:round;stroke-linejoin:round;stroke-miterlimit:4;stroke-dasharray:none;stroke-dashoffset:0;stroke-opacity:1"
       d="m 30.20901,140.68911 h 77.34358 v 38.28965 l -51.04596,30.72629 z"
       id="rect1008"
       inkscape:connector-curvature="0"
       sodipodi:nodetypes="ccccc" />
    <rect
       style="fill:#e9afaf;fill-opacity:1;stroke:none;stroke-width:2;stroke-linecap:round;stroke-linejoin:round;stroke-miterlimit:4;stroke-dasharray:none;stroke-dashoffset:0;stroke-opacity:1"
       id="rect1014"
       width="55.483753"
       height="24.415838"
       x="233.75989"
       y="250.30103" />
    <circle
       style="fill:#ff0000;fill-opacity:1;stroke:none;stroke-width:2.45157599;stroke-linecap:round;stroke-linejoin:round;stroke-miterlimit:4;stroke-dasharray:none;stroke-dashoffset:0;stroke-opacity:1"
       id="path1077"
       cx="284.79752"
       cy="283.52032"
       r="3.3072917" />
    <path
       style="fill:none;stroke:#b2b2b2;stroke-width:3.96875;stroke-linecap:butt;stroke-linejoin:miter;stroke-opacity:1;stroke-miterlimit:4;stroke-dasharray:none"
       d="m 110.9555,214.39497 v -33.96303 l -56.413171,34.10694 -12.952004,-34.39476 32.955656,85.77105 86.490609,0 v -18.85236 l 69.22127,0 v 22.30623"
       id="path1430"
       inkscape:connector-curvature="0" />
    <g
       id="g1213">
      <g
         id="g1126">
        <path
           style="fill:#ff0000;fill-opacity:1;stroke:none;stroke-width:1.94382703;stroke-linecap:round;stroke-linejoin:round;stroke-miterlimit:4;stroke-dasharray:none;stroke-dashoffset:0;stroke-opacity:1"
           d="m 60.19964,162.99631 c 0,4.38376 -7.9375,15.13306 -7.9375,15.13306 0,0 -7.9375,-10.7493 -7.9375,-15.13306 0,-4.38376 3.55374,-7.9375 7.9375,-7.9375 4.38376,0 7.9375,3.55374 7.9375,7.9375 z"
           id="path1079"
           inkscape:connector-curvature="0"
           sodipodi:nodetypes="scsss" />
        <path
           inkscape:connector-curvature="0"
           id="path1122"
           d="m 55.666438,162.99631 a 3.4042985,3.4042988 0 0 1 -3.404299,3.4043 3.4042985,3.4042988 0 0 1 -3.404298,-3.4043 3.4042985,3.4042988 0 0 1 3.404298,-3.4043 3.4042985,3.4042988 0 0 1 3.404299,3.4043 z"
           style="fill:#ffffff;fill-opacity:1;stroke:none;stroke-width:0.83368409;stroke-linecap:round;stroke-linejoin:round;stroke-miterlimit:4;stroke-dasharray:none;stroke-dashoffset:0;stroke-opacity:1" />
      </g>
      <text
         id="text1194"
         y="170.3768"
         x="61.806778"
         style="font-style:normal;font-weight:normal;font-size:10.58333302px;line-height:1.25;font-family:sans-serif;letter-spacing:0px;word-spacing:0px;fill:#000000;fill-opacity:1;stroke:none;stroke-width:0.26458332"
         xml:space="preserve"><tspan
           style="stroke-width:0.26458332"
           y="170.3768"
           x="61.806778"
           id="tspan1192"
           sodipodi:role="line">Home</tspan></text>
    </g>
    <path
       style="fill:none;stroke:#b2b2b2;stroke-width:3.96875;stroke-linecap:butt;stroke-linejoin:miter;stroke-opacity:1;stroke-miterlimit:4;stroke-dasharray:none"
       d="m 41.590325,180.14412 12.952004,34.39476 56.413171,-34.10694 50.65673,30.79699 h 49.50544 v -12.52027"
       id="path1432"
       inkscape:connector-curvature="0" />
    <path
       style="fill:none;stroke:#c94cc0;stroke-width:3.96875;stroke-linecap:butt;stroke-linejoin:miter;stroke-opacity:1;stroke-miterlimit:4;stroke-dasharray:none"
       d="m 230.40176,268.64948 v -21.29885 h -68.78953 v -36.1217 L 110.9555,180.43194 v 33.96303"
       id="path1442"
       inkscape:connector-curvature="0" />
    <path
       style="fill:none;stroke:#ea3030;stroke-width:3.96875;stroke-linecap:butt;stroke-linejoin:miter;stroke-opacity:1;stroke-miterlimit:4;stroke-dasharray:none"
       d="m 41.590325,180.14412 12.952004,34.39476 56.413171,-34.10694 v 33.96303 -33.96303 l 50.65673,30.79699 h 49.50544 v -12.52027"
       id="path1434"
       inkscape:connector-curvature="0" />
    <path
       style="fill:none;stroke:#c84bc0;stroke-width:3.96875;stroke-linecap:butt;stroke-linejoin:miter;stroke-opacity:1;stroke-miterlimit:4;stroke-dasharray:none"
       d="m 230.40176,268.64948 v -21.29885 l -69.36517,-0.28782 v 18.85236 H 74.54598 L 41.590325,180.14412"
       id="path1444"
       inkscape:connector-curvature="0" />
    <path
       style="fill:none;stroke:#000000;stroke-width:3.96875;stroke-linecap:butt;stroke-linejoin:miter;stroke-opacity:1;stroke-miterlimit:4;stroke-dasharray:none"
       d="m 41.590325,180.14412 12.952004,34.39476 56.413171,-34.10694 v 33.96303"
       id="path6342"
       inkscape:connector-curvature="0" />
    <path
       style="fill:none;stroke:#c148bc;stroke-width:3.96875;stroke-linecap:butt;stroke-linejoin:miter;stroke-opacity:1;stroke-miterlimit:4;stroke-dasharray:none"
       d="m 230.40176,268.64948 -0.1439,-21.58667 -68.64563,0.28782 v -36.1217 h 49.50544 v -12.52027"
       id="path1446"
       inkscape:connector-curvature="0" />
    <path
       style="fill:none;stroke:#c96722;stroke-width:3.96875;stroke-linecap:butt;stroke-linejoin:miter;stroke-opacity:1;stroke-miterlimit:4;stroke-dasharray:none"
       d="m 110.9555,214.39497 v -33.96303 l 50.65673,30.79699 v 36.1217 h 68.78953 v 21.29885"
       id="path1436"
       inkscape:connector-curvature="0" />
    <g
       id="g1220"
       transform="translate(-10.505515,4.3173348)">
      <g
         transform="translate(44.180726,58.715753)"
         id="g1132">
        <path
           sodipodi:nodetypes="scsss"
           inkscape:connector-curvature="0"
           id="path1128"
           d="m 60.19964,162.99631 c 0,4.38376 -7.9375,15.13306 -7.9375,15.13306 0,0 -7.9375,-10.7493 -7.9375,-15.13306 0,-4.38376 3.55374,-7.9375 7.9375,-7.9375 4.38376,0 7.9375,3.55374 7.9375,7.9375 z"
           style="fill:#ff0000;fill-opacity:1;stroke:none;stroke-width:1.94382703;stroke-linecap:round;stroke-linejoin:round;stroke-miterlimit:4;stroke-dasharray:none;stroke-dashoffset:0;stroke-opacity:1" />
        <path
           style="fill:#ffffff;fill-opacity:1;stroke:none;stroke-width:0.83368409;stroke-linecap:round;stroke-linejoin:round;stroke-miterlimit:4;stroke-dasharray:none;stroke-dashoffset:0;stroke-opacity:1"
           d="m 55.666438,162.99631 a 3.4042985,3.4042988 0 0 1 -3.404299,3.4043 3.4042985,3.4042988 0 0 1 -3.404298,-3.4043 3.4042985,3.4042988 0 0 1 3.404298,-3.4043 3.4042985,3.4042988 0 0 1 3.404299,3.4043 z"
           id="path1130"
           inkscape:connector-curvature="0" />
      </g>
      <text
         id="text1198"
         y="229.25534"
         x="106.94353"
         style="font-style:normal;font-weight:normal;font-size:10.58333302px;line-height:1.25;font-family:sans-serif;letter-spacing:0px;word-spacing:0px;fill:#000000;fill-opacity:1;stroke:none;stroke-width:0.26458332"
         xml:space="preserve"><tspan
           style="stroke-width:0.26458332"
           y="229.25534"
           x="106.94353"
           id="tspan1196"
           sodipodi:role="line">About</tspan></text>
    </g>
    <g
       id="g1227">
      <g
         transform="translate(174.85206,23.45752)"
         id="g1138">
        <path
           sodipodi:nodetypes="scsss"
           inkscape:connector-curvature="0"
           id="path1134"
           d="m 60.19964,162.99631 c 0,4.38376 -7.9375,15.13306 -7.9375,15.13306 0,0 -7.9375,-10.7493 -7.9375,-15.13306 0,-4.38376 3.55374,-7.9375 7.9375,-7.9375 4.38376,0 7.9375,3.55374 7.9375,7.9375 z"
           style="fill:#ff0000;fill-opacity:1;stroke:none;stroke-width:1.94382703;stroke-linecap:round;stroke-linejoin:round;stroke-miterlimit:4;stroke-dasharray:none;stroke-dashoffset:0;stroke-opacity:1" />
        <path
           style="fill:#ffffff;fill-opacity:1;stroke:none;stroke-width:0.83368409;stroke-linecap:round;stroke-linejoin:round;stroke-miterlimit:4;stroke-dasharray:none;stroke-dashoffset:0;stroke-opacity:1"
           d="m 55.666438,162.99631 a 3.4042985,3.4042988 0 0 1 -3.404299,3.4043 3.4042985,3.4042988 0 0 1 -3.404298,-3.4043 3.4042985,3.4042988 0 0 1 3.404298,-3.4043 3.4042985,3.4042988 0 0 1 3.404299,3.4043 z"
           id="path1136"
           inkscape:connector-curvature="0" />
      </g>
      <text
         id="text1202"
         y="193.9971"
         x="237.3461"
         style="font-style:normal;font-weight:normal;font-size:10.58333302px;line-height:1.25;font-family:sans-serif;letter-spacing:0px;word-spacing:0px;fill:#000000;fill-opacity:1;stroke:none;stroke-width:0.26458332"
         xml:space="preserve"><tspan
           style="stroke-width:0.26458332"
           y="193.9971"
           x="237.3461"
           id="tspan1200"
           sodipodi:role="line">Work</tspan></text>
    </g>
    <g
       id="g1623">
      <g
         id="g1144"
         transform="translate(166.94462,90.182933)">
        <path
           style="fill:#ff0000;fill-opacity:1;stroke:none;stroke-width:1.94382703;stroke-linecap:round;stroke-linejoin:round;stroke-miterlimit:4;stroke-dasharray:none;stroke-dashoffset:0;stroke-opacity:1"
           d="m 60.19964,162.99631 c 0,4.38376 -7.9375,15.13306 -7.9375,15.13306 0,0 -7.9375,-10.7493 -7.9375,-15.13306 0,-4.38376 3.55374,-7.9375 7.9375,-7.9375 4.38376,0 7.9375,3.55374 7.9375,7.9375 z"
           id="path1140"
           inkscape:connector-curvature="0"
           sodipodi:nodetypes="scsss" />
        <path
           inkscape:connector-curvature="0"
           id="path1142"
           d="m 55.666438,162.99631 a 3.4042985,3.4042988 0 0 1 -3.404299,3.4043 3.4042985,3.4042988 0 0 1 -3.404298,-3.4043 3.4042985,3.4042988 0 0 1 3.404298,-3.4043 3.4042985,3.4042988 0 0 1 3.404299,3.4043 z"
           style="fill:#ffffff;fill-opacity:1;stroke:none;stroke-width:0.83368409;stroke-linecap:round;stroke-linejoin:round;stroke-miterlimit:4;stroke-dasharray:none;stroke-dashoffset:0;stroke-opacity:1" />
      </g>
      <text
         id="text1206"
         y="260.62949"
         x="167.66472"
         style="font-style:normal;font-weight:normal;font-size:10.58333302px;line-height:1.25;font-family:sans-serif;letter-spacing:0px;word-spacing:0px;fill:#000000;fill-opacity:1;stroke:none;stroke-width:0.26458332"
         xml:space="preserve"><tspan
           style="stroke-width:0.26458332"
           y="260.62949"
           x="167.66472"
           id="tspan1204"
           sodipodi:role="line">Contact</tspan></text>
    </g>
    <circle
       r="4.5357141"
       cy="213.93819"
       cx="110.83665"
       id="circle1356"
       style="fill:#00ccff;fill-opacity:1;stroke:#1495ff;stroke-width:1.51190472;stroke-linecap:round;stroke-linejoin:round;stroke-miterlimit:4;stroke-dasharray:none;stroke-dashoffset:0;stroke-opacity:1" />
    <circle
       style="fill:#00ccff;fill-opacity:1;stroke:#1495ff;stroke-width:1.51190472;stroke-linecap:round;stroke-linejoin:round;stroke-miterlimit:4;stroke-dasharray:none;stroke-dashoffset:0;stroke-opacity:1"
       id="circle1358"
       cx="210.99881"
       cy="198.68361"
       r="4.5357141" />
    <circle
       r="4.5357141"
       cy="268.33661"
       cx="230.42683"
       id="circle1360"
       style="fill:#00ccff;fill-opacity:1;stroke:#1495ff;stroke-width:1.51190472;stroke-linecap:round;stroke-linejoin:round;stroke-miterlimit:4;stroke-dasharray:none;stroke-dashoffset:0;stroke-opacity:1" />
    <g
       id="g1602"
       transform="rotate(45,279.2468,149.78418)">
      <circle
         r="6.6145835"
         cy="149.78418"
         cx="279.2468"
         id="path1593"
         style="fill:#ffffff;fill-opacity:1;stroke:#000000;stroke-width:1.32291663;stroke-linecap:round;stroke-linejoin:round;stroke-miterlimit:4;stroke-dasharray:none;stroke-dashoffset:0;stroke-opacity:1" />
      <path
         inkscape:connector-curvature="0"
         id="path1595"
         d="m 279.2468,145.25098 v 9.0664"
         style="fill:none;stroke:#000000;stroke-width:2.11666656;stroke-linecap:butt;stroke-linejoin:miter;stroke-miterlimit:4;stroke-dasharray:none;stroke-opacity:1" />
      <path
         style="fill:none;stroke:#000000;stroke-width:2.11666656;stroke-linecap:butt;stroke-linejoin:miter;stroke-miterlimit:4;stroke-dasharray:none;stroke-opacity:1"
         d="m 283.78,149.78418 h -9.0664"
         id="path1597"
         inkscape:connector-curvature="0" />
    </g>
    <g
       id="g6582"
       transform="translate(-10.500328)">
      <rect
         y="140.68933"
         x="138.04309"
         height="22.905228"
         width="62.414474"
         id="rect1641"
         style="fill:#194e8a;fill-opacity:1;stroke:none;stroke-width:1.11768484;stroke-linecap:round;stroke-linejoin:round;stroke-miterlimit:4;stroke-dasharray:none;stroke-dashoffset:0;stroke-opacity:1" />
      <text
         id="text1645"
         y="155.92465"
         x="142.88533"
         style="font-style:normal;font-weight:normal;font-size:10.58333302px;line-height:1.25;font-family:sans-serif;letter-spacing:0px;word-spacing:0px;fill:#ffffff;fill-opacity:1;stroke:none;stroke-width:0.26458332"
         xml:space="preserve"><tspan
           style="fill:#ffffff;fill-opacity:1;stroke-width:0.26458332"
           y="155.92465"
           x="142.88533"
           id="tspan1643"
           sodipodi:role="line">Home</tspan></text>
      <g
         transform="translate(0,-0.74836763)"
         id="g6574">
        <rect
           style="fill:#ffffff;fill-opacity:1;stroke:none;stroke-width:1.48898745;stroke-linecap:round;stroke-linejoin:round;stroke-miterlimit:4;stroke-dasharray:none;stroke-dashoffset:0;stroke-opacity:1"
           id="rect1649"
           width="13.283296"
           height="7.1093693"
           x="176.22179"
           y="149.33562" />
        <path
           style="fill:#ffffff;fill-opacity:1;stroke:none;stroke-width:1.1447407;stroke-linecap:round;stroke-linejoin:round;stroke-miterlimit:4;stroke-dasharray:none;stroke-dashoffset:0;stroke-opacity:1"
           d="m 188.01681,160.37202 7.48172,-7.48171 -7.48172,-7.48172 z"
           id="rect1651"
           inkscape:connector-curvature="0" />
      </g>
    </g>
    <g
       transform="translate(-42.80014,-43.126851)"
       id="g1688">
      <g
         id="g6637"
         transform="translate(-244.29113,-0.26458272)">
        <rect
           y="184.08076"
           x="414.83765"
           height="22.905228"
           width="62.007252"
           id="rect1668"
           style="fill:#194e8a;fill-opacity:1;stroke:none;stroke-width:1.11403263;stroke-linecap:round;stroke-linejoin:round;stroke-miterlimit:4;stroke-dasharray:none;stroke-dashoffset:0;stroke-opacity:1" />
        <text
           id="text1672"
           y="199.47887"
           x="419.61746"
           style="font-style:normal;font-weight:normal;font-size:10.58333302px;line-height:1.25;font-family:sans-serif;letter-spacing:0px;word-spacing:0px;fill:#ffffff;fill-opacity:1;stroke:none;stroke-width:0.26458332"
           xml:space="preserve"><tspan
             style="fill:#ffffff;fill-opacity:1;stroke-width:0.26458332"
             y="199.47887"
             x="419.61746"
             id="tspan1670"
             sodipodi:role="line">About</tspan></text>
        <g
           transform="translate(-1.6994743,-0.25164391)"
           id="g1678">
          <g
             transform="translate(0,-0.8419)"
             id="g6628">
            <rect
               y="192.97868"
               x="454.99963"
               height="7.2964578"
               width="13.283296"
               id="rect1674"
               style="fill:#ffffff;fill-opacity:1;stroke:none;stroke-width:1.50845218;stroke-linecap:round;stroke-linejoin:round;stroke-miterlimit:4;stroke-dasharray:none;stroke-dashoffset:0;stroke-opacity:1" />
            <path
               inkscape:connector-curvature="0"
               id="path1676"
               d="m 466.79465,204.10863 7.48172,-7.48171 -7.48172,-7.48172 z"
               style="fill:#ffffff;fill-opacity:1;stroke:none;stroke-width:1.1447407;stroke-linecap:round;stroke-linejoin:round;stroke-miterlimit:4;stroke-dasharray:none;stroke-dashoffset:0;stroke-opacity:1" />
          </g>
        </g>
      </g>
    </g>
    <g
       transform="translate(-204.98356,-8.4664337)"
       id="g1711">
      <g
         id="g1702"
         transform="translate(-81.359375,-34.925)">
        <g
           id="g6650">
          <rect
             y="184.08076"
             x="415.02475"
             height="22.905228"
             width="60.136368"
             id="rect1690"
             style="fill:#194e8a;fill-opacity:1;stroke:none;stroke-width:1.09709764;stroke-linecap:round;stroke-linejoin:round;stroke-miterlimit:4;stroke-dasharray:none;stroke-dashoffset:0;stroke-opacity:1" />
          <text
             id="text1694"
             y="198.35634"
             x="419.93353"
             style="font-style:normal;font-weight:normal;font-size:10.58333302px;line-height:1.25;font-family:sans-serif;letter-spacing:0px;word-spacing:0px;fill:#ffffff;fill-opacity:1;stroke:none;stroke-width:0.26458332"
             xml:space="preserve"><tspan
               style="fill:#ffffff;fill-opacity:1;stroke-width:0.26458332"
               y="198.35634"
               x="419.93353"
               id="tspan1692"
               sodipodi:role="line">Work</tspan></text>
          <g
             transform="translate(-3.9680691,-0.2516364)"
             id="g1700">
            <g
               transform="translate(0,-1.9644356)"
               id="g6641">
              <rect
                 y="192.97868"
                 x="454.99963"
                 height="7.2964578"
                 width="13.283296"
                 id="rect1696"
                 style="fill:#ffffff;fill-opacity:1;stroke:none;stroke-width:1.50845218;stroke-linecap:round;stroke-linejoin:round;stroke-miterlimit:4;stroke-dasharray:none;stroke-dashoffset:0;stroke-opacity:1" />
              <path
                 inkscape:connector-curvature="0"
                 id="path1698"
                 d="m 466.79465,204.10863 7.48172,-7.48171 -7.48172,-7.48172 z"
                 style="fill:#ffffff;fill-opacity:1;stroke:none;stroke-width:1.1447407;stroke-linecap:round;stroke-linejoin:round;stroke-miterlimit:4;stroke-dasharray:none;stroke-dashoffset:0;stroke-opacity:1" />
            </g>
          </g>
        </g>
      </g>
    </g>
    <g
       id="g6624"
       transform="translate(-232.5399,-48.418747)">
      <rect
         y="189.10808"
         x="356.54449"
         height="22.905228"
         width="69.490807"
         id="rect1713"
         style="fill:#194e8a;fill-opacity:1;stroke:none;stroke-width:1.17934346;stroke-linecap:round;stroke-linejoin:round;stroke-miterlimit:4;stroke-dasharray:none;stroke-dashoffset:0;stroke-opacity:1" />
      <text
         id="text1717"
         y="204.41316"
         x="360.22351"
         style="font-style:normal;font-weight:normal;font-size:10.58333302px;line-height:1.25;font-family:sans-serif;letter-spacing:0px;word-spacing:0px;fill:#ffffff;fill-opacity:1;stroke:none;stroke-width:0.26458332"
         xml:space="preserve"><tspan
           style="fill:#ffffff;fill-opacity:1;stroke-width:0.26458332"
           y="204.41316"
           x="360.22351"
           id="tspan1715"
           sodipodi:role="line">Contact</tspan></text>
      <g
         transform="translate(0,-0.74836068)"
         id="g6616">
        <rect
           style="fill:#ffffff;fill-opacity:1;stroke:none;stroke-width:1.48898745;stroke-linecap:round;stroke-linejoin:round;stroke-miterlimit:4;stroke-dasharray:none;stroke-dashoffset:0;stroke-opacity:1"
           id="rect1719"
           width="13.283296"
           height="7.1093693"
           x="403.82806"
           y="197.75436" />
        <path
           style="fill:#ffffff;fill-opacity:1;stroke:none;stroke-width:1.1447407;stroke-linecap:round;stroke-linejoin:round;stroke-miterlimit:4;stroke-dasharray:none;stroke-dashoffset:0;stroke-opacity:1"
           d="m 415.62308,208.79076 7.48172,-7.48171 -7.48172,-7.48172 z"
           id="path1721"
           inkscape:connector-curvature="0" />
      </g>
    </g>
    <circle
       style="fill:#00ccff;fill-opacity:1;stroke:#1495ff;stroke-width:1.51190472;stroke-linecap:round;stroke-linejoin:round;stroke-miterlimit:4;stroke-dasharray:none;stroke-dashoffset:0;stroke-opacity:1"
       id="path1289"
       cx="41.615379"
       cy="179.83124"
       r="4.5357141" />
    <path
       style="fill:none;stroke:#000000;stroke-width:3.96875;stroke-linecap:butt;stroke-linejoin:miter;stroke-opacity:1;stroke-miterlimit:4;stroke-dasharray:none"
       d="m 110.9555,214.39497 v -33.96303 l 50.65673,30.79699 h 49.50544 v -12.52027"
       id="path6444"
       inkscape:connector-curvature="0" />
  </g>
</svg>
