<?xml version="1.0" encoding="UTF-8" standalone="no"?>
<svg
   xmlns:dc="http://purl.org/dc/elements/1.1/"
   xmlns:cc="http://creativecommons.org/ns#"
   xmlns:rdf="http://www.w3.org/1999/02/22-rdf-syntax-ns#"
   xmlns:svg="http://www.w3.org/2000/svg"
   xmlns="http://www.w3.org/2000/svg"
   id="svg8"
   version="1.1"
   viewBox="0 0 130 130.00002"
   height="130mm"
   width="130mm">
  <defs
     id="defs2" />
  <metadata
     id="metadata5">
    <rdf:RDF>
      <cc:Work
         rdf:about="">
        <dc:format>image/svg+xml</dc:format>
        <dc:type
           rdf:resource="http://purl.org/dc/dcmitype/StillImage" />
        <dc:title></dc:title>
      </cc:Work>
    </rdf:RDF>
  </metadata>
  <g
     transform="translate(-34.998802,-46.461796)"
     style="opacity:1"
     id="layer2">
    <rect
       style="opacity:1;fill:#ff0000;fill-opacity:1;fill-rule:nonzero;stroke:none;stroke-width:0.51456487;stroke-linecap:round;stroke-linejoin:round;stroke-miterlimit:4;stroke-dasharray:none;stroke-dashoffset:0;stroke-opacity:1"
       id="rect1170"
       width="110"
       height="15.714286"
       x="44.998802"
       y="56.461796"
       ry="0" />
    <rect
       ry="0"
       y="72.176086"
       x="44.998802"
       height="15.714286"
       width="110"
       id="rect1172"
       style="opacity:1;fill:#ff6600;fill-opacity:1;fill-rule:nonzero;stroke:none;stroke-width:0.51456487;stroke-linecap:round;stroke-linejoin:round;stroke-miterlimit:4;stroke-dasharray:none;stroke-dashoffset:0;stroke-opacity:1" />
    <rect
       style="opacity:1;fill:#ffcc00;fill-opacity:1;fill-rule:nonzero;stroke:none;stroke-width:0.51456487;stroke-linecap:round;stroke-linejoin:round;stroke-miterlimit:4;stroke-dasharray:none;stroke-dashoffset:0;stroke-opacity:1"
       id="rect1174"
       width="110"
       height="15.714286"
       x="44.998802"
       y="87.890366"
       ry="0" />
    <rect
       ry="0"
       y="103.60465"
       x="44.998802"
       height="15.714286"
       width="110"
       id="rect1176"
       style="opacity:1;fill:#00ff00;fill-opacity:1;fill-rule:nonzero;stroke:none;stroke-width:0.51456487;stroke-linecap:round;stroke-linejoin:round;stroke-miterlimit:4;stroke-dasharray:none;stroke-dashoffset:0;stroke-opacity:1" />
    <rect
       style="opacity:1;fill:#0000ff;fill-opacity:1;fill-rule:nonzero;stroke:none;stroke-width:0.51456487;stroke-linecap:round;stroke-linejoin:round;stroke-miterlimit:4;stroke-dasharray:none;stroke-dashoffset:0;stroke-opacity:1"
       id="rect1178"
       width="110"
       height="15.714286"
       x="44.998802"
       y="119.31894"
       ry="0" />
    <rect
       ry="0"
       y="135.03322"
       x="44.998802"
       height="15.714286"
       width="110"
       id="rect1180"
       style="opacity:1;fill:#800080;fill-opacity:1;fill-rule:nonzero;stroke:none;stroke-width:0.51456487;stroke-linecap:round;stroke-linejoin:round;stroke-miterlimit:4;stroke-dasharray:none;stroke-dashoffset:0;stroke-opacity:1" />
    <rect
       style="opacity:1;fill:#ff00ff;fill-opacity:1;fill-rule:nonzero;stroke:none;stroke-width:0.51456487;stroke-linecap:round;stroke-linejoin:round;stroke-miterlimit:4;stroke-dasharray:none;stroke-dashoffset:0;stroke-opacity:1"
       id="rect1182"
       width="110"
       height="15.714286"
       x="44.998802"
       y="150.74751"
       ry="0" />
    <ellipse
       ry="8.1390524"
       rx="31.095396"
       cy="151.24025"
       cx="107.58102"
       id="path1091"
       style="opacity:1;fill:#808080;fill-opacity:1;fill-rule:nonzero;stroke:none;stroke-width:1.00816035;stroke-linecap:round;stroke-linejoin:round;stroke-miterlimit:4;stroke-dasharray:none;stroke-dashoffset:0;stroke-opacity:1" />
    <path
       id="rect1048"
       d="m 85.720736,133.47195 h 5.444071 c 1.80344,0 3.255308,1.45187 3.255308,3.25532 v 13.41387 c 0,1.80343 -1.451868,3.2553 -3.255308,3.2553 h -5.444071 c -1.80344,0 -4.202243,-1.72047 -3.255306,-3.2553 l 1.406434,-2.2796 c 0.946945,-1.53484 0.04543,-14.38959 1.848872,-14.38959 z"
       style="opacity:1;fill:#ffffff;fill-opacity:1;fill-rule:nonzero;stroke:#000000;stroke-width:0.87703824;stroke-linecap:round;stroke-linejoin:round;stroke-miterlimit:4;stroke-dasharray:none;stroke-dashoffset:0;stroke-opacity:1" />
    <path
       id="path1043"
       d="m 140.43116,142.8366 c -1.16616,15.00335 -21.91248,14.40148 -31.71065,9.67843 -4.36021,-2.10177 -4.04488,-0.43396 -16.685225,-3.06504 -2.042276,-1.19833 -3.983555,-7.09964 -3.98389,-3.48115 -3.164812,-1.18685 -8.959591,-12.19234 -7.926207,-7.42504 0,0 -2.362241,-0.46531 -6.038384,-11.99822 0.425955,8.27412 -3.080409,-2.65946 -0.448815,-6.29115 6.836085,-13.6374 15.091067,-5.88893 39.557771,-16.76545 7.68948,19.91966 28.72716,20.15529 27.2354,39.34762 z"
       style="opacity:1;fill:#ff8080;fill-opacity:1;fill-rule:nonzero;stroke:#000000;stroke-width:0.87703824;stroke-linecap:round;stroke-linejoin:round;stroke-miterlimit:4;stroke-dasharray:none;stroke-dashoffset:0;stroke-opacity:1" />
    <path
       id="path1063"
       d="m 113.19619,103.48894 c -24.466707,10.87652 -32.722052,3.12819 -39.558134,16.7656 -2.631596,3.63169 0.874642,14.56484 0.448687,6.29072 3.676145,11.53291 6.038731,11.9986 6.038731,11.9986 -1.033382,-4.7673 4.761136,6.23784 7.92595,7.42468 3.34e-4,-3.61848 1.941546,2.28332 3.98382,3.48165 1.166449,0.2428 2.189334,0.43865 3.148989,0.61457 0.188587,-0.13077 0.373721,-0.26172 0.541144,-0.39339 1.614927,-1.27006 2.260619,-16.9218 3.633936,-18.52047 -0.150317,2.62063 0.271192,2.5095 1.831017,0.21936 2.79048,-4.69278 4.19887,-3.41894 6.90076,-8.34563 -0.404,3.21892 -0.39342,3.28501 1.35876,0.86747 2.07157,-3.1582 5.47321,-13.20538 5.73507,-16.15193 -0.73041,-1.31337 -1.39911,-2.7238 -1.98873,-4.25123 z"
       style="opacity:1;fill:#00ff00;fill-opacity:1;fill-rule:nonzero;stroke:none;stroke-width:1.1094358;stroke-linecap:round;stroke-linejoin:round;stroke-miterlimit:4;stroke-dasharray:none;stroke-dashoffset:0;stroke-opacity:1" />
    <path
       style="opacity:1;fill:none;fill-opacity:1;fill-rule:nonzero;stroke:#000000;stroke-width:0.87703824;stroke-linecap:round;stroke-linejoin:round;stroke-miterlimit:4;stroke-dasharray:none;stroke-dashoffset:0;stroke-opacity:1"
       d="m 140.43116,142.8366 c -1.16616,15.00335 -21.91248,14.40148 -31.71065,9.67843 -4.36021,-2.10177 -4.04488,-0.43396 -16.685225,-3.06504 -2.042276,-1.19833 -3.983555,-7.09964 -3.98389,-3.48115 -3.164812,-1.18685 -8.959591,-12.19234 -7.926207,-7.42504 0,0 -2.362241,-0.46531 -6.038384,-11.99822 0.425955,8.27412 -3.080409,-2.65946 -0.448815,-6.29115 6.836085,-13.6374 15.091067,-5.88893 39.557771,-16.76545 7.68948,19.91966 28.72716,20.15529 27.2354,39.34762 z"
       id="path1079" />
    <g
       transform="matrix(1.7540765,0,0,1.7540765,-74.478543,-84.050722)"
       id="g1077"
       style="opacity:1">
      <g
         id="g1071"
         transform="translate(-0.30850681,0.22427406)">
        <path
           id="rect1051"
           d="m 122.98786,115.89151 -1.90539,4.29225 c -0.41716,0.93971 -0.75504,1.34725 -1.77896,1.44032 l -3.9289,0.35712 c -1.02392,0.0931 -0.27493,-1.24825 -0.29537,-2.27618 l -0.0799,-4.01499 c -0.0204,-1.02794 0,0 0.0259,-2.88213"
           style="opacity:1;fill:#ffccaa;fill-opacity:1;fill-rule:nonzero;stroke:#000000;stroke-width:0.5;stroke-linecap:round;stroke-linejoin:round;stroke-miterlimit:4;stroke-dasharray:none;stroke-dashoffset:0;stroke-opacity:1"
           transform="rotate(7.9505068)" />
        <path
           id="rect1056"
           transform="scale(0.26458333)"
           d="m 373.80078,501.44922 c -1.99432,0 -3.78578,0.8268 -5.06055,2.1543 l -0.55468,4.63671 c -0.1933,1.61834 -0.9057,3.35643 -1.40039,4.86133 V 516.5 c 0.28561,0.23297 0.69984,0.38439 1.3164,0.41406 l 14.89258,0.71875 c 3.88139,0.1869 5.35934,-1.16345 7.41211,-4.46289 l 5.69336,-9.14844 c -1.28423,-1.57195 -3.23819,-2.57226 -5.43555,-2.57226 z"
           style="opacity:1;fill:#ffffff;fill-opacity:1;fill-rule:nonzero;stroke:none;stroke-width:1.81764793;stroke-linecap:round;stroke-linejoin:round;stroke-miterlimit:4;stroke-dasharray:none;stroke-dashoffset:0;stroke-opacity:1" />
      </g>
      <path
         id="path1061"
         d="m 105.46734,132.01322 -2.48076,3.98744 c -0.54313,0.87298 -0.93414,1.22986 -1.96109,1.18041 l -3.940524,-0.18975 c -1.026955,-0.0494 -0.09963,-1.27428 0.0223,-2.29515 l 0.476212,-3.98745 c 0.121978,-1.02088 0,0 0.4243,-2.85085"
         style="opacity:1;fill:none;fill-opacity:1;fill-rule:nonzero;stroke:#000000;stroke-width:0.5;stroke-linecap:round;stroke-linejoin:round;stroke-miterlimit:4;stroke-dasharray:none;stroke-dashoffset:0;stroke-opacity:1" />
    </g>
    <path
       id="path1081"
       d="m 131.13645,154.18232 c -3.39787,1.18139 -6.32636,1.22062 -11.16563,1.22062 -4.83925,0 -9.50811,-1.44811 -9.50811,-3.54113 0,-2.09301 2.9285,-2.87812 7.76775,-2.87812 -3.76268,-0.82875 -3.98275,-6.57575 -2.63144,-6.33735"
       style="opacity:1;fill:#ff2a2a;fill-opacity:1;fill-rule:nonzero;stroke:#000000;stroke-width:0.83915126;stroke-linecap:round;stroke-linejoin:round;stroke-miterlimit:4;stroke-dasharray:none;stroke-dashoffset:0;stroke-opacity:1" />
    <path
       style="opacity:1;fill:#ffffff;fill-opacity:1;fill-rule:nonzero;stroke:none;stroke-width:0.83915126;stroke-linecap:round;stroke-linejoin:round;stroke-miterlimit:4;stroke-dasharray:none;stroke-dashoffset:0;stroke-opacity:1"
       d="m 119.97082,155.40294 c -4.83925,0 -9.50811,-1.44811 -9.50811,-3.54113 0,-2.09301 2.9285,-2.87812 7.76775,-2.87812 4.28862,0.29263 2.93731,0.0542 4.28862,0.29263 1.3513,0.23838 1.70487,2.4013 2.90173,2.80637 4.11762,3.51601 2.59051,2.92071 -5.44999,3.32025 z"
       id="path1086" />
    <path
       style="opacity:1;fill:none;fill-opacity:1;fill-rule:nonzero;stroke:#000000;stroke-width:0.83915126;stroke-linecap:round;stroke-linejoin:round;stroke-miterlimit:4;stroke-dasharray:none;stroke-dashoffset:0;stroke-opacity:1"
       d="m 131.13645,154.18232 c -3.39787,1.18139 -6.32636,1.22062 -11.16563,1.22062 -4.83925,0 -9.50811,-1.44811 -9.50811,-3.54113 0,-2.09301 2.9285,-2.87812 7.76775,-2.87812 -3.76268,-0.82875 -3.98275,-6.57575 -2.63144,-6.33735"
       id="path1088" />
    <path
       id="path900"
       d="m 70.363979,65.314955 c -0.950448,-0.03267 -1.808735,0.179569 -2.537139,0.663518 -3.884823,2.58107 -4.584452,16.045777 0.891039,24.96166 1.257519,2.047658 2.433315,3.469719 3.546912,4.424353 -0.86154,2.110283 -1.811594,8.057124 -1.811594,8.057124 0,0 2.674935,-3.24386 -0.0693,3.2483 5.471834,13.47494 2.530591,1.3076 4.774929,7.62447 10.780105,9.54538 4.203302,2.03338 10.065675,6.11458 4.867879,0.4347 5.870036,1.57599 9.096799,1.57598 3.972635,-0.41436 2.405673,1.17922 9.09679,-1.57598 5.28225,-3.33532 -1.64751,4.7268 7.42862,-4.29794 2.77764,-5.70974 0.17945,6.96411 5.00862,-6.37474 0.60255,-5.21712 3.07984,4.57614 1.17382,-7.64067 1.7362,1.18231 0.52472,-2.604993 0.26235,-3.805121 1.90583,-1.252257 3.93851,-3.486013 6.10852,-7.019504 5.4755,-8.915883 4.60998,-20.555914 0.72516,-23.136989 -3.88482,-2.58106 -11.4732,2.554274 -16.94869,11.470148 -0.96838,1.576833 -1.6402,3.096879 -2.07667,4.548536 -3.32743,-1.491449 -7.02455,-2.273099 -10.77852,-2.278803 -2.46098,0.0085 -4.904951,0.350511 -7.24158,1.013403 -0.359988,-1.648634 -1.088652,-3.458482 -2.304184,-5.437755 -4.448833,-7.244146 -10.29294,-11.993011 -14.411553,-12.13457 z"
       style="opacity:1;fill:#800080;fill-opacity:1;fill-rule:nonzero;stroke:#000000;stroke-width:0.87703824;stroke-linecap:round;stroke-linejoin:round;stroke-miterlimit:4;stroke-dasharray:none;stroke-dashoffset:0;stroke-opacity:1" />
    <path
       id="path908"
       d="m 94.321296,81.873877 c -1.339317,0.0046 -2.672763,0.111667 -3.987445,0.311819 0.897545,3.627907 0.722092,8.00281 0.88378,11.411225 0.177588,3.743658 -0.827392,6.373245 -1.580839,9.299209 -8.87519,0.5226 -9.128514,4.40818 -9.601961,5.3589 -0.501543,1.00713 -1.938613,-0.19895 -2.358567,-0.93273 -1.269739,-2.21861 -2.484677,-6.07714 -4.649153,-6.02151 -0.627411,0.016 -1.64559,0.10639 -2.266109,0.36983 -0.175727,0.9747 -0.30819,1.75125 -0.30819,1.75125 0,0 0.167716,-0.20275 0.375266,-0.40518 0.104149,-0.10158 0.217561,-0.20306 0.326323,-0.27919 0.108153,-0.0757 0.211471,-0.12581 0.292777,-0.126 3.15e-4,10e-6 4.64e-4,0 9.28e-4,0 0.0407,7e-5 0.07531,0.0122 0.103332,0.0408 0.05603,0.0572 0.08282,0.17771 0.06436,0.38705 -0.02771,0.31401 -0.157205,0.82814 -0.441442,1.62707 -0.09474,0.2663 -0.206046,0.56361 -0.337196,0.89647 -0.131234,0.3331 -0.281555,0.70065 -0.453221,1.10677 0.68398,1.68436 1.236542,2.96836 1.68417,3.93759 0.223821,0.48462 0.42175,0.89007 0.596442,1.22823 1.222535,2.36671 1.323384,1.41077 1.440342,0.82396 6.5e-5,-3.3e-4 -6.5e-5,-4.6e-4 0,-9.3e-4 0.01671,-0.0838 0.03369,-0.15963 0.05438,-0.21754 0.01049,-0.0293 0.02167,-0.0531 0.03444,-0.0716 0.03773,-0.0546 0.08692,-0.0566 0.159534,0.0308 0.04873,0.0585 0.107583,0.15582 0.180382,0.30547 0.145054,0.29816 0.344905,0.79939 0.625448,1.589 0.673756,0.59658 1.279244,1.12592 1.824672,1.59625 2.88e-4,2.4e-4 4.64e-4,4.6e-4 9.28e-4,9.3e-4 1.090332,0.94016 1.939588,1.64252 2.60421,2.16186 0.664851,0.51952 1.144938,0.85659 1.500165,1.06689 1.81e-4,1.1e-4 9.28e-4,-1.1e-4 9.28e-4,0 0.531417,0.31449 0.781952,0.34516 0.945421,0.28009 0.0545,-0.0219 0.09975,-0.0544 0.142312,-0.0907 0.106269,-0.0903 0.198523,-0.20376 0.388864,-0.23114 2.69e-4,-4e-5 4.64e-4,4e-5 9.28e-4,0 0.07622,-0.0107 0.168761,-0.007 0.283718,0.0163 0.05769,0.0119 0.121097,0.0285 0.19126,0.0517 0.280632,0.0926 0.668006,0.28246 1.220981,0.62545 0.276491,0.1715 0.594432,0.38124 0.960829,0.63632 0.304245,0.0272 0.59375,0.0575 0.869282,0.0897 0.826588,0.0967 1.530191,0.2138 2.151899,0.33991 0.414454,0.0841 0.792612,0.17205 1.145745,0.26015 0.70629,0.17624 1.313406,0.35311 1.91713,0.50217 0.905532,0.22354 1.802984,0.38434 3.013016,0.38434 2.234611,-0.23308 2.716564,0.16902 3.901336,0.0752 0.263302,-0.0209 0.561277,-0.0664 0.92095,-0.14866 0.179833,-0.0411 0.375154,-0.0911 0.589188,-0.15228 0.428051,-0.12226 0.931151,-0.2876 1.536421,-0.50852 0.60528,-0.22092 1.31279,-0.49768 2.14918,-0.84208 0.33014,-0.20846 0.61225,-0.37218 0.85387,-0.49855 0.24163,-0.12637 0.44225,-0.21465 0.60913,-0.27284 0.33436,-0.11672 0.53234,-0.11105 0.64992,-0.038 0.0294,0.0182 0.0533,0.0405 0.0734,0.0662 0.0201,0.0257 0.0363,0.0547 0.0489,0.0861 0.0764,0.18872 0.0328,0.46509 0.0562,0.64176 0.004,0.0294 0.01,0.0559 0.0182,0.0789 9e-5,2.5e-4 -9e-5,4.7e-4 0,9.3e-4 0.008,0.0226 0.0199,0.0415 0.0344,0.0562 0.0148,0.0148 0.0325,0.0259 0.0553,0.0308 0.20486,0.0442 0.76924,-0.3482 2.3205,-1.81017 0.68944,-0.64976 1.57393,-1.51056 2.70845,-2.63865 0.17346,-0.35658 0.32673,-0.64167 0.46138,-0.86566 1.5e-4,-2.5e-4 -1.5e-4,-4.6e-4 0,-9.3e-4 0.53892,-0.8963 0.7911,-0.81705 0.95811,-0.45594 1.2e-4,2.6e-4 -1.2e-4,4.7e-4 0,9.3e-4 0.14594,0.31605 0.2268,0.8477 0.37527,1.13034 0.0212,0.0404 0.0445,0.0754 0.0689,0.10424 0.19524,0.23024 0.50463,0.0497 1.12762,-1.23549 0.46762,-0.96467 1.11227,-2.55148 2.01774,-5.05252 0.0318,-0.27507 0.0693,-0.50001 0.11059,-0.69705 0.006,-0.0288 0.0119,-0.0625 0.0181,-0.0897 0.009,-0.0377 0.0174,-0.0694 0.0263,-0.10424 0.0157,-0.0615 0.0314,-0.12275 0.048,-0.17585 0.0107,-0.034 0.0224,-0.0636 0.0336,-0.0943 0.0178,-0.0497 0.0357,-0.0972 0.0544,-0.13869 0.008,-0.0183 0.0169,-0.0349 0.0254,-0.0517 0.0238,-0.0475 0.0476,-0.09 0.0725,-0.126 0.004,-0.006 0.009,-0.0109 0.0127,-0.0163 0.7205,-0.98364 1.86511,2.44139 1.3361,-2.13921 -0.042,-0.36371 -0.0963,-0.78267 -0.16045,-1.25361 -0.002,-0.0128 -0.003,-0.0252 -0.005,-0.0381 -1.39899,0.27812 -3.64948,0.7958 -4.87304,1.51285 -0.87978,0.5156 -1.19532,1.86092 -2.17184,2.15462 -1.74911,0.52607 -4.26746,0.38039 -5.37341,-1.07323 -0.69777,-0.91713 -1.70321,-4.375 -9.217622,-4.53041 -0.387175,-2.8074 -0.156318,-5.627254 0.459565,-9.164146 0.546208,-3.136783 2.778428,-8.453311 3.838787,-11.202742 -1.878863,-0.414005 -3.815749,-0.631542 -5.769515,-0.634513 z"
       style="opacity:1;fill:#ff6600;fill-opacity:1;fill-rule:nonzero;stroke:none;stroke-width:1.20772755;stroke-linecap:round;stroke-linejoin:round;stroke-miterlimit:4;stroke-dasharray:none;stroke-dashoffset:0;stroke-opacity:1" />
    <path
       style="opacity:1;fill:none;fill-opacity:1;fill-rule:nonzero;stroke:#000000;stroke-width:0.87703824;stroke-linecap:round;stroke-linejoin:round;stroke-miterlimit:4;stroke-dasharray:none;stroke-dashoffset:0;stroke-opacity:1"
       d="m 70.363979,65.314955 c -0.950448,-0.03267 -1.808735,0.179569 -2.537139,0.663518 -3.884823,2.58107 -4.584452,16.045777 0.891039,24.96166 1.257519,2.047658 2.433315,3.469719 3.546912,4.424353 -0.86154,2.110283 -1.811594,8.057124 -1.811594,8.057124 0,0 2.674935,-3.24386 -0.0693,3.2483 5.471834,13.47494 2.530591,1.3076 4.774929,7.62447 10.780105,9.54538 4.203302,2.03338 10.065675,6.11458 4.867879,0.4347 5.870036,1.57599 9.096799,1.57598 3.972635,-0.41436 2.405673,1.17922 9.09679,-1.57598 5.28225,-3.33532 -1.64751,4.7268 7.42862,-4.29794 2.77764,-5.70974 0.17945,6.96411 5.00862,-6.37474 0.60255,-5.21712 3.07984,4.57614 1.17382,-7.64067 1.7362,1.18231 0.52472,-2.604993 0.26235,-3.805121 1.90583,-1.252257 3.93851,-3.486013 6.10852,-7.019504 5.4755,-8.915883 4.60998,-20.555914 0.72516,-23.136989 -3.88482,-2.58106 -11.4732,2.554274 -16.94869,11.470148 -0.96838,1.576833 -1.6402,3.096879 -2.07667,4.548536 -3.32743,-1.491449 -7.02455,-2.273099 -10.77852,-2.278803 -2.46098,0.0085 -4.904951,0.350511 -7.24158,1.013403 -0.359988,-1.648634 -1.088652,-3.458482 -2.304184,-5.437755 -4.448833,-7.244146 -10.29294,-11.993011 -14.411553,-12.13457 z"
       id="path925" />
    <circle
       r="2.7845964"
       cy="99.145088"
       cx="86.249023"
       id="path929"
       style="opacity:1;fill:#000000;fill-opacity:1;fill-rule:nonzero;stroke:none;stroke-width:0.92089009;stroke-linecap:round;stroke-linejoin:round;stroke-miterlimit:4;stroke-dasharray:none;stroke-dashoffset:0;stroke-opacity:1" />
    <circle
       style="opacity:1;fill:#000000;fill-opacity:1;fill-rule:nonzero;stroke:none;stroke-width:0.92089009;stroke-linecap:round;stroke-linejoin:round;stroke-miterlimit:4;stroke-dasharray:none;stroke-dashoffset:0;stroke-opacity:1"
       id="circle931"
       cx="99.840508"
       cy="99.145088"
       r="2.7845964" />
    <g
       style="stroke:#000000"
       transform="matrix(1.7540765,0,0,1.561556,-75.406742,-62.929134)"
       id="g946">
      <rect
         style="opacity:1;fill:#ff0000;fill-opacity:1;fill-rule:nonzero;stroke:#000000;stroke-width:0.53708613;stroke-linecap:round;stroke-linejoin:round;stroke-miterlimit:4;stroke-dasharray:none;stroke-dashoffset:0;stroke-opacity:1"
         id="rect940"
         width="3.5079126"
         height="5.4790254"
         x="93.911827"
         y="109.71088"
         ry="1.5200955" />
      <path
         style="fill:none;stroke:#000000;stroke-width:0.26499999;stroke-linecap:round;stroke-linejoin:miter;stroke-miterlimit:4;stroke-dasharray:none;stroke-opacity:1"
         d="m 95.665783,113.18612 v -3.34086"
         id="path942" />
    </g>
    <g
       transform="matrix(1.7540765,0,0,1.7540765,-55.022896,-124.13425)"
       id="g1002">
      <path
         style="opacity:1;fill:#ff0000;fill-opacity:1;fill-rule:nonzero;stroke:#000000;stroke-width:0.5;stroke-linecap:round;stroke-linejoin:round;stroke-miterlimit:4;stroke-dasharray:none;stroke-dashoffset:0;stroke-opacity:1"
         d="m 90.643737,133.29741 h 3.7997 l -1.5875,1.03567 1.5875,1.03567 -1.5875,1.03567 1.5875,1.03567 h -3.7997 l -1.058333,-2.07134 z"
         id="rect967" />
      <rect
         ry="0"
         y="133.29741"
         x="79.431824"
         height="4.1426778"
         width="10.153576"
         id="rect965"
         style="opacity:1;fill:#ff0000;fill-opacity:1;fill-rule:nonzero;stroke:#000000;stroke-width:0.47306913;stroke-linecap:round;stroke-linejoin:round;stroke-miterlimit:4;stroke-dasharray:none;stroke-dashoffset:0;stroke-opacity:1" />
      <path
         id="path972"
         d="m 78.37349,133.29741 h -3.7997 l 1.5875,1.03567 -1.5875,1.03567 1.5875,1.03567 -1.5875,1.03567 h 3.7997 l 1.058333,-2.07134 z"
         style="opacity:1;fill:#ff0000;fill-opacity:1;fill-rule:nonzero;stroke:#000000;stroke-width:0.5;stroke-linecap:round;stroke-linejoin:round;stroke-miterlimit:4;stroke-dasharray:none;stroke-dashoffset:0;stroke-opacity:1" />
      <path
         style="opacity:1;fill:#00ff00;fill-opacity:1;fill-rule:nonzero;stroke:none;stroke-width:1.88976383;stroke-linecap:round;stroke-linejoin:round;stroke-miterlimit:4;stroke-dasharray:none;stroke-dashoffset:0;stroke-opacity:1"
         d="m 304.56055,503.80078 v 15.6582 h 7.32422 v -15.6582 z"
         transform="scale(0.26458333)"
         id="rect974" />
      <path
         style="opacity:1;fill:#00ff00;fill-opacity:1;fill-rule:nonzero;stroke:none;stroke-width:1.88976383;stroke-linecap:round;stroke-linejoin:round;stroke-miterlimit:4;stroke-dasharray:none;stroke-dashoffset:0;stroke-opacity:1"
         d="m 326.2793,503.80078 v 15.6582 h 7.32422 v -15.6582 z"
         transform="scale(0.26458333)"
         id="rect984" />
      <rect
         style="opacity:1;fill:none;fill-opacity:1;fill-rule:nonzero;stroke:#000000;stroke-width:0.47306913;stroke-linecap:round;stroke-linejoin:round;stroke-miterlimit:4;stroke-dasharray:none;stroke-dashoffset:0;stroke-opacity:1"
         id="rect994"
         width="10.153576"
         height="4.1426778"
         x="79.431824"
         y="133.29741"
         ry="0" />
    </g>
    <path
       id="path948"
       d="m 84.75106,107.56976 c -1.11e-4,2.33041 1.889089,4.21961 4.219499,4.2195 1.34832,-0.002 2.673176,-0.24712 3.465922,-1.33778 0.788505,1.12491 2.016684,1.39473 3.390418,1.39669 2.330058,-3.9e-4 4.218701,-1.88944 4.218591,-4.2195"
       style="opacity:1;fill:#0000ff;fill-opacity:1;fill-rule:nonzero;stroke:#000000;stroke-width:0.87703824;stroke-linecap:round;stroke-linejoin:round;stroke-miterlimit:4;stroke-dasharray:none;stroke-dashoffset:0;stroke-opacity:1" />
    <path
       id="path933"
       d="m 97.304543,104.4988 c -5e-6,1.64775 -2.134723,4.39237 -4.972494,4.39237 -2.83777,0 -5.303987,-2.74462 -5.303993,-4.39237 -1.2e-5,-1.64774 2.300461,-2.98351 5.138243,-2.98351 2.837782,0 5.138257,1.33577 5.138244,2.98351 z"
       style="opacity:1;fill:#000000;fill-opacity:1;fill-rule:nonzero;stroke:none;stroke-width:0.87703824;stroke-linecap:round;stroke-linejoin:round;stroke-miterlimit:4;stroke-dasharray:none;stroke-dashoffset:0;stroke-opacity:1" />
    <path
       id="path953"
       d="m 118.12428,94.691482 c -4.80512,2.60371 -1.89727,-2.316043 -8.42413,-6.622876 5.90437,0.168413 0.63367,-2.033751 -0.14126,-2.945304 -0.77494,-0.911563 4.10614,-0.532528 3.62832,-1.334482 -4.05866,-2.965522 -4.07898,-1.725953 -1.72923,-4.870269 4.2588,-6.041801 9.66734,-9.560814 12.08033,-7.859937 2.41297,1.700889 2.14574,14.742972 -5.41403,23.632868 z"
       style="opacity:1;fill:#0000ff;fill-opacity:1;fill-rule:nonzero;stroke:#000000;stroke-width:0.87703824;stroke-linecap:round;stroke-linejoin:round;stroke-miterlimit:4;stroke-dasharray:none;stroke-dashoffset:0;stroke-opacity:1" />
    <path
       id="path956"
       d="m 81.647502,80.324815 c 0.936743,1.632654 -0.414383,-2.2e-5 -3.693822,1.91188 6.268827,1.780954 5.423537,1.954985 0.860151,3.209808 4.138476,1.254826 3.398612,0.85558 2.668176,1.655731 -4.98199,2.907521 -4.644905,2.351624 -7.655705,6.500668 -0.890038,-0.583809 -2.317121,-2.011765 -3.09592,-3.158188 -0.778801,-1.146422 -1.489446,-2.591445 -2.10686,-4.369623 -2.469642,-7.112698 -2.512343,-16.862484 1.335868,-18.198643 3.848211,-1.33616 7.892467,5.832898 11.688112,12.448367 z"
       style="opacity:1;fill:#0000ff;fill-opacity:1;fill-rule:nonzero;stroke:#000000;stroke-width:0.87703824;stroke-linecap:round;stroke-linejoin:round;stroke-miterlimit:4;stroke-dasharray:none;stroke-dashoffset:0;stroke-opacity:1" />
    <path
       id="path959"
       d="m 82.817038,92.919775 7.032165,3.047287"
       style="fill:none;stroke:#000000;stroke-width:0.87703824;stroke-linecap:butt;stroke-linejoin:miter;stroke-miterlimit:4;stroke-dasharray:none;stroke-opacity:1" />
    <path
       style="fill:none;stroke:#000000;stroke-width:0.87703824;stroke-linecap:butt;stroke-linejoin:miter;stroke-miterlimit:4;stroke-dasharray:none;stroke-opacity:1"
       d="m 103.79634,92.919775 -7.03217,3.047287"
       id="path961" />
    <g
       transform="matrix(1.7540765,0,0,1.7540765,-77.122056,-82.850795)"
       id="g1039">
      <path
         transform="matrix(0.78167286,-0.62368866,0.67305492,0.73959251,0,0)"
         style="opacity:1;fill:#ff0000;fill-opacity:1;fill-rule:nonzero;stroke:#000000;stroke-width:0.52999687;stroke-linecap:round;stroke-linejoin:round;stroke-miterlimit:4;stroke-dasharray:none;stroke-dashoffset:0;stroke-opacity:1"
         d="m 7.0814152,120.72402 0.7688211,12.24172 c 0.05306,0.84486 -1.9116012,0.0934 -2.7500113,-0.002 l -9.4855284,-1.08037 c -0.83841,-0.0955 -2.131509,-0.0375 -1.9740589,-0.88302 l 0.9012384,-4.8397 c 3.3102599,-5.8092 12.343972,-8.55059 12.5395391,-5.43663 z"
         id="rect1006" />
      <rect
         style="opacity:1;fill:#ffffff;fill-opacity:1;fill-rule:nonzero;stroke:#000000;stroke-width:0.61191916;stroke-linecap:round;stroke-linejoin:round;stroke-miterlimit:4;stroke-dasharray:none;stroke-dashoffset:0;stroke-opacity:1"
         id="rect1004"
         width="17.727448"
         height="3.7094355"
         x="17.685177"
         y="127.2682"
         transform="matrix(0.86555387,-0.50081584,0.51625286,0.85643621,0,0)"
         ry="1.4549485" />
      <g
         id="g1018"
         transform="rotate(-3.9389249,82.92995,92.107378)">
        <path
           id="path1011"
           d="m 83.337444,95.664134 c -2.58138,4.772586 -1.223902,2.377791 -3.415564,10.839056 -0.828054,-0.41209 -2.139636,-6.908029 -2.151127,-10.02996 -0.02224,-6.045957 0.660144,-7.217007 2.478743,-9.314799 2.292424,-2.644345 3.04562,-4.266846 6.144492,-2.680334 0.661178,0.3792 1.068473,0.941021 1.240575,1.652182 0.172105,0.71116 0.108999,1.571658 -0.170618,2.548209 -0.279663,0.976526 -0.775645,2.069217 -1.469726,3.244527 -0.693975,1.175368 -1.585798,2.433503 -2.656778,3.741118 z"
           style="opacity:1;fill:#ff0000;fill-opacity:1;fill-rule:nonzero;stroke:#000000;stroke-width:0.62133563;stroke-linecap:round;stroke-linejoin:round;stroke-miterlimit:4;stroke-dasharray:none;stroke-dashoffset:0;stroke-opacity:1" />
        <circle
           r="1.842634"
           cy="106.54725"
           cx="79.705727"
           id="path1014"
           style="opacity:1;fill:#ffffff;fill-opacity:1;fill-rule:nonzero;stroke:#000000;stroke-width:0.5;stroke-linecap:round;stroke-linejoin:round;stroke-miterlimit:4;stroke-dasharray:none;stroke-dashoffset:0;stroke-opacity:1" />
      </g>
    </g>
  </g>
</svg>
