<svg viewBox="0 0 237 351" class="beardy" fill="none" xmlns="http://www.w3.org/2000/svg">
  <path d="M48 95h1V84c0-25.957 21.043-47 47-47h74c25.957 0 47 21.043 47 47v54c0 25.957-21.043 47-47 47H96c-25.957 0-47-21.043-47-47v-11h-1c-8.837 0-16-7.163-16-16s7.163-16 16-16z" fill="#FFF0F0" stroke="#000" stroke-width="2"/>
  <path d="M94 37c-26.51 0-39 21.49-39 48v10c-9.389 0-17 7.611-17 17s7.611 17.5 17 17.5l-6.5-3c0 26.51 18.99 60.5 45.5 60.5h74c26.51 0 48-21.49 48-48V85c0-26.51-21.49-48-48-48H94z" fill="#F3D7D7"/>
  <path d="M48 95h1V84c0-25.957 21.043-47 47-47h74c25.957 0 47 21.043 47 47v54c0 25.957-21.043 47-47 47H96c-25.957 0-47-21.043-47-47v-11h-1c-8.837 0-16-7.163-16-16s7.163-16 16-16z" stroke="#000" stroke-width="2"/>
  <path fill="#7C4526" d="M86 47h112v20H86z"/>
  <path fill="#F72A2A" stroke="#000" stroke-width="2" d="M104 66h80v12h-80z"/>
  <path d="M105.374 71.432c.503.321.603.52.622.568-.019.048-.119.247-.622.568-.601.385-1.553.793-2.874 1.201-2.627.813-6.479 1.558-11.3 2.19C81.575 77.217 68.245 78 53.5 78c-14.782 0-28.128-.034-37.777-.549-4.832-.258-8.687-.634-11.317-1.175-1.325-.272-2.267-.572-2.855-.88-.404-.212-.518-.358-.546-.409.02-.06.127-.308.684-.728.615-.465 1.578-.983 2.897-1.528 2.627-1.086 6.477-2.2 11.288-3.202C25.484 67.528 38.79 66 53.5 66c14.744 0 28.074.782 37.7 2.042 4.821.63 8.673 1.376 11.3 2.189 1.321.408 2.273.816 2.874 1.2zM.996 74.967l.002.006-.002-.006z" fill="#F72A2A" stroke="#000" stroke-width="2"/>
  <path d="M198.397 26.603C213.829 42.035 216.91 58.08 216.998 80H175V63a5 5 0 00-5-5h-52a5 5 0 00-5 5v17H49.002c.088-21.92 3.169-37.965 18.601-53.397C83.312 10.894 110.652 2 133 2c22.348 0 49.688 8.894 65.397 24.603z" fill="#454545" stroke="#000" stroke-width="2"/>
  <path d="M199.104 25.896C215.045 41.836 218 58.456 218 81h-44V63a4 4 0 00-4-4h-52a4 4 0 00-4 4v18H57c0-22.543 4.792-42.708 20.896-55.104S108.5 0 133 1s50.163 8.955 66.104 24.896z" fill="#222"/>
  <path d="M198.397 26.603C213.829 42.035 216.91 58.08 216.998 80H175V63a5 5 0 00-5-5h-52a5 5 0 00-5 5v17H49.002c.088-21.92 3.169-37.965 18.601-53.397C83.312 10.894 110.652 2 133 2c22.348 0 49.688 8.894 65.397 24.603z" stroke="#000" stroke-width="2"/>
  <circle cx="111" cy="111" r="8" fill="#3A3A3A"/>
  <path d="M107.866 95.055a11.998 11.998 0 00-11.524 7.599M183 95.055a12.002 12.002 0 0111.524 7.599" stroke="#000" stroke-width="2" stroke-linecap="round" stroke-linejoin="round"/>
  <circle cx="182" cy="111" r="8" fill="#3A3A3A"/>
  <mask id="a" fill="#fff">
    <path fill-rule="evenodd" clip-rule="evenodd" d="M48 138v-20s9.541 18.875 21 22c5.5 1.5 12.5 2.632 22.5 0 3.65-.96 5.05-3.119 6.621-5.543 1.657-2.555 3.504-5.404 8.379-7.457 9.5-4 73-3.719 81.5 0 5.1 2.231 7.86 5.26 10.008 7.617 1.432 1.571 2.592 2.844 3.992 3.383 5.831 2.246 16 0 16 0v48H48v-48zm84-2a8 8 0 000 16h30a8 8 0 000-16h-30z"/>
  </mask>
  <path fill-rule="evenodd" clip-rule="evenodd" d="M48 138v-20s9.541 18.875 21 22c5.5 1.5 12.5 2.632 22.5 0 3.65-.96 5.05-3.119 6.621-5.543 1.657-2.555 3.504-5.404 8.379-7.457 9.5-4 73-3.719 81.5 0 5.1 2.231 7.86 5.26 10.008 7.617 1.432 1.571 2.592 2.844 3.992 3.383 5.831 2.246 16 0 16 0v48H48v-48zm84-2a8 8 0 000 16h30a8 8 0 000-16h-30z" fill="#492D1D"/>
  <path d="M48 118l1.785-.902L46 118h2zm0 20h2-2zm21 2l.526-1.93L69 140zm22.5 0l-.51-1.934.51 1.934zm6.621-5.543l1.678 1.088-1.678-1.088zM106.5 127l-.776-1.843.776 1.843zm81.5 0l.802-1.832L188 127zm10.008 7.617l-1.478 1.347 1.478-1.347zM202 138l.719-1.866L202 138zm16 0h2v-2.49l-2.431.537L218 138zm0 48v2h2v-2h-2zm-170 0h-2v2h2v-2zm-2-68v20h4v-20h-4zm23.526 20.07c-2.46-.67-4.937-2.227-7.319-4.326-2.369-2.088-4.544-4.626-6.402-7.113a74.836 74.836 0 01-5.615-8.768 37.129 37.129 0 01-.383-.723l-.018-.034-.004-.008v-.001L48 118l-1.785.903.001.002.002.004.007.013.024.046.088.171c.078.148.19.361.337.632a78.76 78.76 0 005.926 9.254c1.96 2.622 4.319 5.389 6.962 7.719 2.63 2.319 5.642 4.294 8.912 5.186l1.052-3.86zm21.465-.004c-9.576 2.52-16.208 1.438-21.465.004l-1.052 3.86c5.742 1.566 13.11 2.747 23.535.004l-1.018-3.868zm5.452-4.697c-1.555 2.397-2.597 3.946-5.452 4.697l1.018 3.868c4.445-1.17 6.201-3.938 7.79-6.389l-3.356-2.176zm9.281-8.212c-5.446 2.293-7.567 5.569-9.281 8.212l3.356 2.176c1.599-2.466 3.173-4.89 7.477-6.702l-1.552-3.686zm83.078.011c-1.345-.589-3.52-1.026-6.08-1.381-2.633-.365-5.9-.669-9.573-.914-7.352-.49-16.428-.75-25.52-.768-9.092-.017-18.232.207-25.711.689-3.737.24-7.083.547-9.811.924-2.668.369-4.931.827-6.383 1.439l1.552 3.686c.923-.388 2.723-.796 5.379-1.163 2.596-.359 5.836-.657 9.52-.895 7.366-.474 16.413-.697 25.446-.68 9.033.018 18.019.276 25.261.759 3.624.242 6.787.539 9.291.885 2.576.357 4.245.742 5.025 1.083l1.604-3.664zm10.684 8.101c-2.18-2.392-5.177-5.692-10.684-8.101l-1.604 3.664c4.693 2.053 7.216 4.81 9.332 7.132l2.956-2.695zm3.233 2.865c-.864-.333-1.69-1.172-3.233-2.865l-2.956 2.695c1.321 1.45 2.815 3.157 4.751 3.902l1.438-3.732zM218 138l-.431-1.953h0l-.003.001a.08.08 0 00-.016.003l-.076.016-.309.063a49.991 49.991 0 01-5.149.719c-3.231.278-6.836.232-9.297-.715l-1.438 3.732c3.37 1.298 7.765 1.253 11.077.969a54.198 54.198 0 005.58-.781c.153-.03.273-.054.356-.072l.098-.02a.232.232 0 01.027-.006l.008-.002.003-.001h.001L218 138zm2 48v-48h-4v48h4zm-172 2h170v-4H48v4zm-2-50v48h4v-48h-4zm80 6a6 6 0 016-6v-4c-5.523 0-10 4.477-10 10h4zm6 6a6 6 0 01-6-6h-4c0 5.523 4.477 10 10 10v-4zm30 0h-30v4h30v-4zm6-6a6 6 0 01-6 6v4c5.523 0 10-4.477 10-10h-4zm-6-6a6 6 0 016 6h4c0-5.523-4.477-10-10-10v4zm-30 0h30v-4h-30v4z" fill="#000" mask="url(#a)"/>
  <path class="beardy__grow" d="M48.48 157.613l.22-.613h168.6l.219.613c.296.832.725 2.06 1.256 3.641a342.656 342.656 0 014.172 13.357c3.274 11.254 7.2 26.723 9.817 43.594 2.618 16.876 3.919 35.116 1.964 51.925-1.956 16.815-7.158 32.104-17.46 43.189-44.801 48.204-123.735 48.204-168.536 0-10.302-11.085-15.505-26.374-17.46-43.189-1.955-16.809-.654-35.049 1.964-51.925 2.617-16.871 6.543-32.34 9.817-43.594a342.163 342.163 0 014.172-13.357c.531-1.581.96-2.809 1.256-3.641z" fill="red" stroke="#000" stroke-width="2"/>
  <path d="M50 156h166l2 7H48l2-7z" fill="#492D1D"/>
</svg>