<svg
   class='mask mask--ghoul'
   preserveAspectRatio="xMinYMin"
   viewBox="0 0 300.6918 319.20682">
  <g
     id="ghoul">
    <path
       id="path4815"
       d="m 147.58008,22.296875 c -74.90146,0 -127.830075,35.689438 -127.83008,124.197265 -2.7e-5,88.50785 52.928598,153.58008 127.83008,153.58008 74.90149,0 133.02348,-65.07223 133.02344,-153.58008 0,-88.507827 -58.12196,-124.197265 -133.02344,-124.197265 z M 92.736328,116.40039 a 26.991785,26.991787 0 0 1 26.992192,26.99219 26.991785,26.991787 0 0 1 -26.992192,26.99023 26.991785,26.991787 0 0 1 -26.992187,-26.99023 26.991785,26.991787 0 0 1 26.992187,-26.99219 z m 105.259762,0 a 26.991785,26.991787 0 0 1 26.99219,26.99219 26.991785,26.991787 0 0 1 -26.99219,26.99023 26.991785,26.991787 0 0 1 -26.99218,-26.99023 26.991785,26.991787 0 0 1 26.99218,-26.99219 z"
       style="display:inline;fill:#879b35;fill-opacity:1;stroke:#000000;stroke-width:6;stroke-linecap:round;stroke-linejoin:round;stroke-miterlimit:4;stroke-dasharray:none;stroke-opacity:1" />
    <path
       id="path4817"
       d="m 198.82294,115.63813 a 27.308445,27.308445 0 0 0 -21.09961,9.99609 33.252953,41.520454 0 0 1 21.09961,-9.4668 33.252953,41.520454 0 0 1 21.02539,9.38867 27.308445,27.308445 0 0 0 -21.02539,-9.91796 z m 21.02539,9.91796 a 27.308445,27.308445 0 0 1 6.2832,17.39063 27.308445,27.308445 0 0 1 -27.30859,27.30859 27.308445,27.308445 0 0 1 -27.30859,-27.30859 27.308445,27.308445 0 0 1 6.20898,-17.3125 33.252953,41.520454 0 0 0 -12.15234,32.05469 33.252953,41.520454 0 0 0 33.25195,41.51953 33.252953,41.520454 0 0 0 33.2539,-41.51953 33.252953,41.520454 0 0 0 -12.22851,-32.13282 z"
       style="fill:#4e0000;fill-opacity:1;stroke:#000000;stroke-width:6.44068003;stroke-linecap:round;stroke-linejoin:round;stroke-miterlimit:4;stroke-dasharray:none;stroke-opacity:1" />
    <path
       style="fill:#4e0000;fill-opacity:1;stroke:#000000;stroke-width:6.44068003;stroke-linecap:round;stroke-linejoin:round;stroke-miterlimit:4;stroke-dasharray:none;stroke-opacity:1"
       d="m 93.160265,116.04142 a 27.308445,27.308445 0 0 0 -21.09961,9.99609 33.252953,41.520454 0 0 1 21.09961,-9.4668 33.252953,41.520454 0 0 1 21.025385,9.38867 27.308445,27.308445 0 0 0 -21.025385,-9.91796 z m 21.025385,9.91796 a 27.308445,27.308445 0 0 1 6.2832,17.39063 27.308445,27.308445 0 0 1 -27.308585,27.30859 27.308445,27.308445 0 0 1 -27.30859,-27.30859 27.308445,27.308445 0 0 1 6.20898,-17.3125 33.252953,41.520454 0 0 0 -12.15234,32.05469 33.252953,41.520454 0 0 0 33.25195,41.51953 33.252953,41.520454 0 0 0 33.253895,-41.51953 33.252953,41.520454 0 0 0 -12.22851,-32.13282 z"
       id="path4825" />
    <path
       id="path4827"
       d="M 138.32939,111.1078 C 223.42414,67.1489 223.02085,67.1489 223.02085,67.1489"
       style="fill:#4e0000;fill-opacity:1;fill-rule:evenodd;stroke:#000000;stroke-width:5;stroke-linecap:round;stroke-linejoin:round;stroke-miterlimit:4;stroke-dasharray:none;stroke-opacity:1" />
    <path
       id="path4829"
       d="m 144.78207,93.766216 11.29219,22.181094"
       style="fill:none;fill-rule:evenodd;stroke:#000000;stroke-width:5;stroke-linecap:round;stroke-linejoin:round;stroke-miterlimit:4;stroke-dasharray:none;stroke-opacity:1" />
    <path
       id="path4831"
       d="m 159.3006,89.733289 15.32513,16.938291"
       style="fill:none;fill-rule:evenodd;stroke:#000000;stroke-width:5;stroke-linecap:round;stroke-linejoin:round;stroke-miterlimit:4;stroke-dasharray:none;stroke-opacity:1" />
    <path
       id="path4833"
       d="m 179.06194,80.457558 6.45269,23.794272"
       style="fill:none;fill-rule:evenodd;stroke:#000000;stroke-width:5;stroke-linecap:round;stroke-linejoin:round;stroke-miterlimit:4;stroke-dasharray:none;stroke-opacity:1" />
    <path
       id="path4835"
       d="m 189.54755,69.165363 11.2922,25.004145"
       style="fill:none;fill-rule:evenodd;stroke:#000000;stroke-width:5;stroke-linecap:round;stroke-linejoin:round;stroke-miterlimit:4;stroke-dasharray:none;stroke-opacity:1" />
    <path
       id="path4837"
       d="m 203.25951,64.325851 18.14817,18.551463"
       style="fill:none;fill-rule:evenodd;stroke:#000000;stroke-width:5;stroke-linecap:round;stroke-linejoin:round;stroke-miterlimit:4;stroke-dasharray:none;stroke-opacity:1" />
    <ellipse
       transform="matrix(0.8660254,-0.5,0.5,0.8660254,0,0)"
       ry="8.8165178"
       rx="3.1704204"
       cy="254.14949"
       cx="1.819356"
       id="path4839"
       style="fill:#000000;fill-opacity:1;stroke:#000000;stroke-width:3.49867082;stroke-linecap:round;stroke-linejoin:round;stroke-miterlimit:4;stroke-dasharray:none;stroke-opacity:1" />
    <ellipse
       style="fill:#000000;fill-opacity:1;stroke:#000000;stroke-width:3.49867082;stroke-linecap:round;stroke-linejoin:round;stroke-miterlimit:4;stroke-dasharray:none;stroke-opacity:1"
       id="ellipse4852"
       cx="-253.49094"
       cy="106.74603"
       rx="3.1704204"
       ry="8.8165178"
       transform="matrix(-0.8660254,-0.5,-0.5,0.8660254,0,0)" />
    <path
       id="path4854"
       d="m 202.52339,270.89903 c 1e-5,14.14747 -24.23863,0 -53.14888,0 -28.91024,0 -51.544387,14.14747 -51.544381,0 -6e-6,-14.14746 23.436381,-25.61626 52.346631,-25.61626 28.91025,0 52.34664,11.4688 52.34663,25.61626 z"
       style="fill:#000000;fill-opacity:1;stroke:#000000;stroke-width:5.56495333;stroke-linecap:round;stroke-linejoin:round;stroke-miterlimit:4;stroke-dasharray:none;stroke-opacity:1" />
  </g>
</svg>