<svg
   class='mask mask--hockey'
   preserveAspectRatio="xMinYMin"
   viewBox="0 0 300.6918 319.20682">
  <g
     transform="translate(0.17695356,7.5667892e-6)"
     style="display:inline"
     id="hockey">
    <g
       id="g4458">
      <path
         style="fill:#ffffff;fill-opacity:1;stroke:#000000;stroke-width:6.20660162;stroke-linecap:round;stroke-linejoin:round;stroke-miterlimit:4;stroke-dasharray:none;stroke-opacity:1"
         d="M 147.4043,26.835938 C 72.562156,26.835937 19.677739,64.003372 19.677734,156.17188 c -2.7e-5,92.16854 52.8844,159.93164 127.726566,159.93164 74.84216,0 132.91801,-67.76311 132.91797,-159.93164 0,-92.168508 -58.07582,-129.335942 -132.91797,-129.335942 z M 92.554688,118.18945 a 24.8025,26.012377 0 0 1 24.802732,26.01367 24.8025,26.012377 0 0 1 -24.802732,26.01172 24.8025,26.012377 0 0 1 -24.800782,-26.01172 24.8025,26.012377 0 0 1 24.800782,-26.01367 z m 104.535152,0 a 24.8025,26.012377 0 0 1 24.80274,26.01367 24.8025,26.012377 0 0 1 -24.80274,26.01172 24.8025,26.012377 0 0 1 -24.80273,-26.01172 24.8025,26.012377 0 0 1 24.80273,-26.01367 z"
         id="path4440" />
      <circle
         style="fill:#000000;fill-opacity:1;stroke:none;stroke-width:10;stroke-linecap:round;stroke-linejoin:round;stroke-miterlimit:4;stroke-dasharray:none;stroke-opacity:1"
         id="path4446"
         cx="128.00426"
         cy="216.78674"
         r="5" />
      <circle
         r="5"
         cy="216.78674"
         cx="164.3006"
         id="circle4448"
         style="fill:#000000;fill-opacity:1;stroke:none;stroke-width:10;stroke-linecap:round;stroke-linejoin:round;stroke-miterlimit:4;stroke-dasharray:none;stroke-opacity:1" />
      <circle
         cy="249.93283"
         cx="124.85816"
         id="circle4450"
         style="fill:#000000;fill-opacity:1;stroke:none;stroke-width:10;stroke-linecap:round;stroke-linejoin:round;stroke-miterlimit:4;stroke-dasharray:none;stroke-opacity:1"
         r="7.5" />
      <circle
         style="fill:#000000;fill-opacity:1;stroke:none;stroke-width:10;stroke-linecap:round;stroke-linejoin:round;stroke-miterlimit:4;stroke-dasharray:none;stroke-opacity:1"
         id="circle4452"
         cx="166.8006"
         cy="249.52954"
         r="7.5" />
      <circle
         style="fill:#000000;fill-opacity:1;stroke:none;stroke-width:10;stroke-linecap:round;stroke-linejoin:round;stroke-miterlimit:4;stroke-dasharray:none;stroke-opacity:1"
         id="circle4454"
         cx="125.26146"
         cy="279.52954"
         r="7.5" />
      <circle
         cy="279.52954"
         cx="166.8006"
         id="circle4456"
         style="fill:#000000;fill-opacity:1;stroke:none;stroke-width:10;stroke-linecap:round;stroke-linejoin:round;stroke-miterlimit:4;stroke-dasharray:none;stroke-opacity:1"
         r="7.5" />
    </g>
  </g>
</svg>
