<svg
   class='mask mask--mummy'
   preserveAspectRatio="xMinYMin"
   viewBox="0 0 300.6918 319.20682">
<g
     style="display:inline"
     id="layer4">
    <g
       id="g4722">
      <path
         style="fill:#ffffff;fill-opacity:1;stroke:#000000;stroke-width:6;stroke-linecap:round;stroke-linejoin:round;stroke-miterlimit:4;stroke-dasharray:none;stroke-opacity:1"
         d="m 223.89453,271.29297 -140.242186,7.56445 c 18.409186,11.55049 40.048926,17.99024 63.927736,17.99024 28.67246,0 54.8787,-9.28091 76.31445,-25.55469 z"
         id="rect4717" />
      <path
         transform="translate(0.17695356,7.5667892e-6)"
         style="display:inline;fill:none;fill-opacity:1;stroke:#000000;stroke-width:6;stroke-linecap:round;stroke-linejoin:round;stroke-miterlimit:4;stroke-dasharray:none;stroke-opacity:1"
         d="m 280.4263,147.50515 c 4e-5,86.06635 -58.12221,149.34341 -133.0237,149.34341 -74.901484,0 -127.828926,-63.27706 -127.828899,-149.34341 5e-6,-86.066315 52.927437,-120.771913 127.828899,-120.771913 74.90148,0 133.0237,34.705598 133.0237,120.771913 z"
         id="path4604" />
      <path
         style="fill:#000000;fill-opacity:0.97014926;stroke:#000000;stroke-width:6.98348618;stroke-linecap:round;stroke-linejoin:round;stroke-miterlimit:4;stroke-dasharray:none;stroke-opacity:1"
         d="M 28.294922,94.662109 C 22.73992,109.53077 19.750001,127.06742 19.75,147.50586 c -3e-6,10.51995 0.797285,20.69588 2.322266,30.46094 l 255.996094,0 c 1.66122,-9.76502 2.53516,-19.94103 2.53516,-30.46094 0,-20.43846 -3.28338,-37.97508 -9.28516,-52.843751 l -243.023438,0 z m 64.441406,22.199221 a 26.126547,26.126547 0 0 1 26.126952,26.12695 26.126547,26.126547 0 0 1 -26.126952,26.12695 26.126547,26.126547 0 0 1 -26.126953,-26.12695 26.126547,26.126547 0 0 1 26.126953,-26.12695 z m 105.662112,0 a 26.126547,26.126547 0 0 1 26.12695,26.12695 26.126547,26.126547 0 0 1 -26.12695,26.12695 26.126547,26.126547 0 0 1 -26.125,-26.12695 26.126547,26.126547 0 0 1 26.125,-26.12695 z"
         id="rect4677" />
      <path
         style="fill:#ffffff;fill-opacity:1;stroke:#000000;stroke-width:6;stroke-linecap:round;stroke-linejoin:round;stroke-miterlimit:4;stroke-dasharray:none;stroke-opacity:1"
         d="M 213.04883,37.978516 65.744141,47.230469 C 42.965109,62.096363 27.407489,85.532823 21.933594,119.08008 L 274.375,103.22656 C 264.19793,70.736079 242.17336,49.623893 213.04883,37.978516 Z"
         id="rect4627" />
      <path
         style="fill:#ffffff;fill-opacity:1;stroke:#000000;stroke-width:6;stroke-linecap:round;stroke-linejoin:round;stroke-miterlimit:4;stroke-dasharray:none;stroke-opacity:1"
         d="m 147.58008,26.732422 c -45.19636,0 -82.385245,12.644018 -104.779299,41.576172 L 237.20117,51.052734 c -23.436,-16.77221 -54.70338,-24.320312 -89.62109,-24.320312 z"
         id="rect4608" />
      <path
         style="fill:#ffffff;fill-opacity:1;stroke:#000000;stroke-width:6.47109032;stroke-linecap:round;stroke-linejoin:round;stroke-miterlimit:4;stroke-dasharray:none;stroke-opacity:1"
         d="m 24.160156,108.11719 c -2.886234,11.71136 -4.410155,24.81149 -4.410156,39.38867 -3e-6,10.9018 0.854743,21.43521 2.490234,31.52344 l 39.228516,0 0,-70.91211 -37.308594,0 z"
         id="rect4687" />
      <path
         style="fill:#ffffff;fill-opacity:1;stroke:#000000;stroke-width:6;stroke-linecap:round;stroke-linejoin:round;stroke-miterlimit:4;stroke-dasharray:none;stroke-opacity:1"
         d="m 226.24805,94.572266 0,102.033204 47.56054,0 c 4.41531,-15.21109 6.79493,-31.68786 6.79493,-49.09961 0,-20.47991 -3.29725,-38.04563 -9.32227,-52.933594 l -45.0332,0 z"
         id="rect4695" />
      <path
         id="path4689"
         d="M 213.04883,37.978516 65.744141,47.230469 C 42.965109,62.096363 27.407489,85.532823 21.933594,119.08008 L 274.375,103.22656 C 264.19793,70.736079 242.17336,49.623893 213.04883,37.978516 Z"
         style="fill:#ffffff;fill-opacity:1;stroke:#000000;stroke-width:6;stroke-linecap:round;stroke-linejoin:round;stroke-miterlimit:4;stroke-dasharray:none;stroke-opacity:1" />
      <path
         style="fill:#ffffff;fill-opacity:0.98805997;stroke:#000000;stroke-width:6.56138563;stroke-linecap:round;stroke-linejoin:round;stroke-miterlimit:4;stroke-dasharray:none;stroke-opacity:1"
         d="M 65.898438,47.128906 C 57.069628,52.86745 49.322194,59.889056 42.820312,68.283203 49.325315,59.885079 57.084706,52.869859 65.917969,47.128906 l -0.01953,0 z m 167.115232,1.082032 c 1.42135,0.916971 2.81874,1.862231 4.1875,2.841796 -1.3661,-0.977665 -2.75726,-1.92652 -4.17578,-2.841796 l -0.0117,0 z m 4.1875,2.841796 -194.400389,17.25586 C 36.330243,76.668251 31.094817,86.387781 27.259766,97.556641 L 273.01367,99.148438 C 265.6632,78.410481 253.27852,62.558649 237.20117,51.052734 Z"
         id="rect4610" />
      <path
         style="fill:#ffffff;fill-opacity:1;stroke:#000000;stroke-width:6;stroke-linecap:round;stroke-linejoin:round;stroke-miterlimit:4;stroke-dasharray:none;stroke-opacity:1"
         d="M 279.83203,164.4082 22.044922,177.78125 c 3.349557,21.59123 10.280946,41.16393 20.195312,57.91406 L 262.86914,224.24805 c 9.0421,-17.64479 14.95294,-37.84332 16.96289,-59.83985 z"
         id="rect4700" />
      <path
         style="fill:#ffffff;fill-opacity:1;stroke:#000000;stroke-width:6;stroke-linecap:round;stroke-linejoin:round;stroke-miterlimit:4;stroke-dasharray:none;stroke-opacity:1"
         d="M 258.32031,232.48242 47.792969,244.33008 c 12.110979,17.39118 27.730695,31.15787 46.035156,40.22656 l 120.722655,-6.79492 c 17.62312,-11.04757 32.57377,-26.49246 43.76953,-45.2793 z"
         id="rect4710" />
      <path
         style="fill:#ffffff;fill-opacity:1;stroke:#000000;stroke-width:5.30862808;stroke-linecap:round;stroke-linejoin:round;stroke-miterlimit:4;stroke-dasharray:none;stroke-opacity:1"
         d="m 24.046875,188.55273 c 4.443174,20.41732 12.216786,38.77046 22.75,54.32032 l 181.384765,25.02734 c 14.75615,-12.2223 27.0207,-27.90101 35.96875,-46.2168 L 24.046875,188.55273 Z"
         id="rect4705" />
    </g>
  </g>
</svg>
