<svg
   class='mask mask--pumpkin'
   preserveAspectRatio="xMinYMin"
   viewBox="0 0 300.6918 319.20682">
  <g
     id="pumpkin">
    <rect
       ry="8.9568787"
       y="0.34198952"
       x="127.95539"
       height="27.126543"
       width="32.75658"
       id="rect5533"
       style="fill:#008000;fill-opacity:1;stroke:#000000;stroke-width:6.2329998;stroke-linecap:round;stroke-linejoin:round;stroke-miterlimit:4;stroke-dasharray:none;stroke-opacity:1" />
    <path
       id="path5486"
       d="m 195.82227,12.21875 c -4.43596,-0.139275 -8.57114,2.02474 -11.93165,7.941406 -24.06097,4.090506 -3.84073,5.154091 -28.67382,-3.546875 -19.83796,5.630037 -12.69174,7.768679 -26.36328,3.863281 C 122.5071,7.6942953 89.772931,19.753579 84.154297,30.029297 69.976111,13.63908 52.130097,30.069925 41.505859,40.09375 14.326458,65.737147 11.472536,114.54689 9.4609375,147.51758 c -1.5e-6,21.49801 -1.4436065,78.25503 21.4570315,106.16797 10.754178,13.10797 40.354728,38.07867 46.927734,19.62304 19.368545,24.53738 38.194957,25.91554 42.136717,19.87891 16.7373,7.27073 16.54283,8.15039 36.76953,8.15039 4.87205,0.12796 23.38908,-3.5342 29.23243,-11.72461 21.19798,15.35339 43.37305,-2.80567 52.99023,-26.60547 -1.5741,20.31241 25.96435,-7.58812 33.4707,-17.74219 19.72305,-26.67992 18.78321,-76.25003 18.78321,-97.74804 0,-21.498 -3.50929,-82.110112 -27.69336,-112.824221 C 234.86993,6.4022197 227.24863,21.076567 224.38867,31.136719 216.79242,23.977981 205.58138,12.525154 195.82227,12.21875 Z M 91.478516,116.19727 a 27.592869,27.592871 0 0 1 27.591794,27.59375 27.592869,27.592871 0 0 1 -27.591794,27.59179 27.592869,27.592871 0 0 1 -27.59375,-27.59179 27.592869,27.592871 0 0 1 27.59375,-27.59375 z m 105.945314,0 a 27.592869,27.592871 0 0 1 27.59375,27.59375 27.592869,27.592871 0 0 1 -27.59375,27.59179 27.592869,27.592871 0 0 1 -27.5918,-27.59179 27.592869,27.592871 0 0 1 27.5918,-27.59375 z"
       style="display:inline;fill:#ff7600;fill-opacity:1;stroke:#000000;stroke-width:6.2329998;stroke-linecap:round;stroke-linejoin:round;stroke-miterlimit:4;stroke-dasharray:none;stroke-opacity:1" />
    <path
       id="path5493"
       d="m 84.450556,30.02764 c 0,0 -20.118818,80.09607 -21.240594,121.0458 -1.122166,40.96393 14.586914,122.06944 14.586914,122.06944"
       style="fill:none;fill-rule:evenodd;stroke:#000000;stroke-width:5;stroke-linecap:butt;stroke-linejoin:miter;stroke-miterlimit:4;stroke-dasharray:none;stroke-opacity:1" />
    <path
       id="path5526"
       d="m 111.40014,162.09334 c -0.80451,46.80479 8.87793,129.47511 8.87793,129.47511"
       style="fill:none;fill-rule:evenodd;stroke:#000000;stroke-width:5;stroke-linecap:butt;stroke-linejoin:miter;stroke-miterlimit:4;stroke-dasharray:none;stroke-opacity:1" />
    <path
       id="path5495"
       d="m 131.53814,21.326673 c 0,0 -12.23383,60.431192 -17.62208,107.096767"
       style="fill:none;fill-rule:evenodd;stroke:#000000;stroke-width:5;stroke-linecap:butt;stroke-linejoin:miter;stroke-miterlimit:4;stroke-dasharray:none;stroke-opacity:1" />
    <path
       id="path5518"
       d="m 191.40692,170.43954 c 0.6766,46.59934 -5.10387,118.05798 -5.10387,118.05798"
       style="fill:none;fill-rule:evenodd;stroke:#000000;stroke-width:5;stroke-linecap:butt;stroke-linejoin:miter;stroke-miterlimit:4;stroke-dasharray:none;stroke-opacity:1" />
    <path
       id="path5497"
       d="m 170.9484,23.885781 c 0,0 10.08454,50.694954 16.02963,94.465499"
       style="fill:none;fill-rule:evenodd;stroke:#000000;stroke-width:5;stroke-linecap:butt;stroke-linejoin:miter;stroke-miterlimit:4;stroke-dasharray:none;stroke-opacity:1" />
    <path
       id="path5499"
       d="m 224.68966,31.563104 c 0,0 17.73286,76.265436 20.21695,115.159856 2.47107,38.6904 -5.37412,116.18349 -5.37412,116.18349"
       style="fill:none;fill-rule:evenodd;stroke:#000000;stroke-width:5;stroke-linecap:butt;stroke-linejoin:miter;stroke-miterlimit:4;stroke-dasharray:none;stroke-opacity:1" />
    <path
       id="path5503"
       d="m 132.32857,200.2615 35.51036,0 -17.99192,-24.27143 z"
       style="fill:#000000;fill-rule:evenodd;stroke:#000000;stroke-width:0.58090401px;stroke-linecap:butt;stroke-linejoin:miter;stroke-opacity:1" />
    <path
       id="path5528"
       d="m 244.26535,250.36682 c 0,7.20811 -41.99557,-8.44506 -94.43109,-8.44506 -52.435516,0 -95.45472,15.65317 -95.45472,8.44506 0,-7.20812 44.042847,-31.98885 96.47836,-31.98885 52.43552,0 93.40745,24.78073 93.40745,31.98885 z"
       style="fill:#000000;fill-opacity:1;stroke:#000000;stroke-width:6.2329998;stroke-linecap:round;stroke-linejoin:round;stroke-miterlimit:4;stroke-dasharray:none;stroke-opacity:1" />
  </g>
</svg>
