<svg class="eggo" xmlns="http://www.w3.org/2000/svg" viewBox="0 0 400 412.8">
  <defs>
    <g id="a">
      <path opacity=".75" fill="#22da6e" stroke-width="7.1" d="M307.9 57.7h73.5V73h-73.5z"/>
      <path opacity=".75" fill="#c792ea" stroke-width="9.9" d="M240.1 78.5h141.3v15.3H240.1z"/>
      <path opacity=".75" fill="#21c7a8" stroke-width="8" d="M287.7 99.3h93.6v15.3h-93.6z"/>
      <path opacity=".75" fill="#f78c6c" stroke-width="6.9" d="M312.2 120h69.1v15.3h-69.1z"/>
      <path opacity=".75" fill="#82aaff" stroke-width="8.2" d="M282.9 140.8h98.4v15.3h-98.4z"/>
      <path opacity=".75" fill="#ef5350" stroke-width="8.9" d="M266.3 161.5h115v15.3h-115z"/>
      <path opacity=".75" fill="#addb67" stroke-width="4.9" d="M265.9 57.7h35V73h-35z"/>
    </g>
    <g id="c">
      <use href="#a"/>
      <use href="#a" y="125"/>
    </g>
    <clipPath id="b">
      <path d="M253 150a15.5 15.5 0 00-15.7 13c-1.7 8.9-2.8 17.9-3.3 27-.1 10.3 3.6 17.3 11 21 27.6 12.2 59.7 18.3 98 18.5 3 0 5.6-2 6.4-4.8 3.6-14.3 8.6-35.5 9.1-55 0-1.8-1-3.5-2.7-4.3-26.3-11.7-82.4-15.7-102.9-15.4zM42 165.4a4.6 4.6 0 00-2.7 4.4c.5 19.4 5.5 40.6 9.1 55a6.5 6.5 0 006.3 4.8c38.4-.2 70.5-6.3 98.1-18.6 7.4-3.6 11.1-10.7 11-21-.5-9.1-1.6-18.1-3.3-27-.3-2.1-3-12.8-15.6-13-12-.2-73.3 2.2-102.9 15.4z"/>
    </clipPath>
  </defs>
  <path d="M198.9 31.1c71.1 0 128.8 152.8 128.8 223.9a128.7 128.7 0 11-257.4 0c0-71.1 57.6-223.9 128.7-223.9z" fill="#FCFBFA"/>
  <path d="M86.3 135.1a307 307 0 0143.9-76.6c21.8-26.5 45-40 68.7-40 23.8 0 46.9 13.5 68.7 40a304 304 0 0143.9 76.6l.6 1.5-1.6-.2L298 135h-.6l-.2-.6c-14.2-33.1-38.5-76.5-69.9-94.6-9.4-5.5-19-8.3-28.4-8.3s-19 2.8-28.5 8.3c-31.3 18-55.5 61.3-69.8 94.6l-.2.5-.6.1-12.5 1.5-1.6.2z" class="cls-5" fill="#56555c"/>
  <path d="M198.9 394.3a140.3 140.3 0 01-130.6-89 142 142 0 01-9.6-57v-1h1c4.5 0 7.6-.2 11-.3h1v1a127.7 127.7 0 008.3 52 127.4 127.4 0 00210.7 42.1 126.2 126.2 0 0026.8-42 127.7 127.7 0 008.5-52.2v-1h1l11 .4h1v.9a142 142 0 01-9.7 57 140.2 140.2 0 01-130.5 89z" class="cls-5" fill="#56555c"/>
  <path d="M362 153.4L309.7 172l8.2 24.8c0 .2 52.3-6.7 52.3-6.7z" class="cls-3" fill="#252526"/>
  <path d="M35.7 153.4L88.2 172 80 196.8c0 .2-52.3-6.7-52.3-6.7z" class="cls-3" fill="#252526"/>
  <path d="M144.9 149c13.2.3 16 11.2 16.5 13.8a215.8 215.8 0 013.3 27.1 34.6 34.6 0 01-.7 7.6 226.6 226.6 0 00-2.6-18.2 16.4 16.4 0 00-16.5-13.8c-8-.1-33.6.8-59 4.5a361 361 0 016-17.3 445.5 445.5 0 0153-3.6z" class="cls-4" fill="hsla(0, 0%, 0%, 0.5)"/>
  <path d="M327.3 248.3c-46.3-2.4-85.9-17.2-94.8-22.6-7-3.3-15.9-10.3-18.5-28-1.7 19.5 2 37.2 20.3 46 1.3.8 36.3 18.1 92.7 21a131.2 131.2 0 00.3-16.4z" class="cls-4" fill="hsla(0, 0%, 0%, 0.5)"/>
  <path d="M70.6 248.3c46.3-2.4 86-17.2 94.9-22.6 7-3.3 15.8-10.3 18.4-28 1.7 19.5-2 37.2-20.3 46-1.3.8-36.3 18.1-92.7 21a131.2 131.2 0 01-.3-16.4z" class="cls-4" fill="hsla(0, 0%, 0%, 0.5)"/>
  <path d="M252.8 149c-13.2.3-16 11.2-16.6 13.8a215.8 215.8 0 00-3.2 27 34.6 34.6 0 00.7 7.7c.6-6.6 1.6-12.8 2.6-18.2.5-2.6 3.3-13.6 16.5-13.8 8-.1 33.6.8 59 4.5a361 361 0 00-6-17.3 445.5 445.5 0 00-53-3.6z" class="cls-4" fill="hsla(0, 0%, 0%, 0.5)"/>
  <path d="M328.8 232.3l-10.5-.5h-1l-.2-1.1c-3-24.4-10.1-53-19.9-80.4l-.7-2 2.1.2 11.6 1.8.8.1.2.8a411 411 0 0119 79.6l.1 1.5z" class="cls-5" fill="#56555c"/>
  <path d="M317.3 170.4a471 471 0 00-6-19.2l-.3-.8-.8-.1-11.5-1.8-2.2-.2.8 2a559 559 0 016 18.3l14 1.8z" class="cls-3" fill="#252526"/>
  <path d="M68.5 230.2c2.9-24 9.6-52.2 19-79.6l.2-.7.7-.2L100 148l2.1-.3-.7 2c-9.7 27.5-16.8 56-19.9 80.4l-.1 1.1h-1c-3.6.3-7 .4-10.6.5h-1.5z" class="cls-5" fill="#56555c"/>
  <path d="M88.4 149.7l-.7.2-.3.7c-2.2 6.4-4.2 12.9-6 19.3 6.4-.8 8.3-.7 13.8-1.3 2-6.3 4-12.6 6.2-18.9l.7-2-2.1.3-11.6 1.7z" class="cls-3" fill="#252526"/>
  <path d="M72 264.3a138.1 138.1 0 01-.3-16.8v-1h-1l-11 .4h-1v1a149 149 0 00.5 16.8h.4c4.2 0 8.3-.2 12.3-.4z" class="cls-3" fill="#252526"/>
  <path d="M339 247.4h-.9l-11-.4h-1v1a138 138 0 01-.3 16.6l12.8.5a149 149 0 00.4-16.9z" class="cls-3" fill="#252526"/>
  <path class="cls-3" d="M253 150a15.5 15.5 0 00-15.7 13c-1.7 8.9-2.8 17.9-3.3 27-.1 10.3 3.6 17.3 11 21 27.6 12.2 59.7 18.3 98 18.5 3 0 5.6-2 6.4-4.8 3.6-14.3 8.6-35.5 9.1-55 0-1.8-1-3.5-2.7-4.3-26.3-11.7-82.4-15.7-102.9-15.4zM42 165.4a4.6 4.6 0 00-2.7 4.4c.5 19.4 5.5 40.6 9.1 55a6.5 6.5 0 006.3 4.8c38.4-.2 70.5-6.3 98.1-18.6 7.4-3.6 11.1-10.7 11-21-.5-9.1-1.6-18.1-3.3-27-.3-2.1-3-12.8-15.6-13-12-.2-73.3 2.2-102.9 15.4z" fill="#011627" opacity=".75"/>
  <path d="M346.2 250.7a305.5 305.5 0 01-79.4-10.3 191.7 191.7 0 01-32.5-11.8l-.3-.2c-21.8-10.4-22.7-31.5-20.7-50.6.5-4.8-1.2-11.2-6.3-14.6a14.5 14.5 0 00-16 0 15.8 15.8 0 00-6.4 14.6c2 19.1 1.1 40.1-20.7 50.6l-.3.1a191.3 191.3 0 01-32.5 12 305.5 305.5 0 01-79.5 10.2A24.5 24.5 0 0128 232.1c-4.1-16-9.7-40.1-10.3-62.7a22.3 22.3 0 0113.2-21c30.2-13.5 91.2-18.5 117.3-18.1a33 33 0 0124.2 10A65 65 0 01199 134a65 65 0 0126.5 6.1 33.5 33.5 0 0124.2-10c15.7-.2 83 2.7 117.3 18a22.2 22.2 0 0113.2 21 300 300 0 01-10.3 63 24.5 24.5 0 01-23.5 18.5zM253 150a15.5 15.5 0 00-15.6 13 216.3 216.3 0 00-3.3 27c-.1 10.3 3.6 17.3 11 21 27.6 12.2 59.7 18.3 98 18.5a6.5 6.5 0 006.4-4.8c3.6-14.3 8.6-35.5 9.1-55a4.6 4.6 0 00-2.7-4.3c-26.3-11.7-82.4-15.7-102.9-15.4zM42.1 165.4a4.6 4.6 0 00-2.7 4.4c.5 19.4 5.5 40.6 9.1 55a6.5 6.5 0 006.3 4.8c38.4-.2 70.5-6.3 98.1-18.6 7.4-3.6 11.1-10.7 11-21a214.6 214.6 0 00-3.3-27c-.3-2.1-3-12.8-15.6-13-12-.2-73.3 2.2-102.9 15.4z" class="cls-3" fill="#252526"/>
  <g clip-path="url(#b)" stroke-linecap="round" stroke-linejoin="round">
    <g class="eggo__lines">
      <use href="#c" transform="translate(-26.2 73.7)"/>
      <use href="#c" transform="translate(-215.9 73.7)"/>
    </g>
    <g transform="rotate(11.2 103.2 186.8)" fill="#fff" opacity=".5">
      <rect ry="0" y="98.6" x="81.3" height="189.6" width="27.5" stroke-width="10"/>
      <rect width="12.7" height="189.6" x="60.6" y="98.6" ry="0" stroke-width="6.8"/>
    </g>
  </g>
</svg>