<svg width="333" height="484" viewBox="0 0 333 484" fill="none" xmlns="http://www.w3.org/2000/svg">
<path d="M265 20C265 8.95432 220.228 0 165 0C109.772 0 65 8.95432 65 20L35 220H295L265 20Z" fill="#C4C4C4"/>
<ellipse cx="165" cy="220" rx="130" ry="20" fill="#A9A9A9"/>
<ellipse cx="165" cy="220" rx="130" ry="20" fill="url(#paint0_linear)"/>
<path d="M165 464C209.183 464 245 455.046 245 444V430H222.131C207.612 426.297 187.379 424 165 424C142.621 424 122.388 426.297 107.869 430H85V444C85 455.046 120.817 464 165 464Z" fill="#EFA3A3"/>
<path d="M165 464C209.183 464 245 455.046 245 444V430H222.131C207.612 426.297 187.379 424 165 424C142.621 424 122.388 426.297 107.869 430H85V444C85 455.046 120.817 464 165 464Z" fill="url(#paint1_linear)"/>
<ellipse cx="165" cy="430" rx="80" ry="20" fill="#FABABA"/>
<ellipse cx="165" cy="430" rx="80" ry="20" fill="url(#paint2_linear)"/>
<path d="M180 142H150V428C150 431.866 156.716 435 165 435C173.284 435 180 431.866 180 428V142Z" fill="#EF7373"/>
<path d="M180 142H150V428C150 431.866 156.716 435 165 435C173.284 435 180 431.866 180 428V142Z" fill="url(#paint3_linear)"/>
<path d="M124 187.033V347" stroke="#6F6F6F" stroke-width="6" stroke-linecap="round" stroke-dasharray="5 8"/>
<path d="M124 187.023C124 187.023 141.007 208.944 141.007 221.869C141.007 234.794 129.669 245.1 124 256.715C118.331 268.33 106.993 278.636 106.993 291.561C106.993 304.486 124 326.407 124 326.407" stroke="#6F6F6F" stroke-width="6" stroke-linecap="round" stroke-dasharray="5 8"/>
<path d="M124 187.017C124 187.017 102.741 204.949 102.741 217.277C102.741 229.604 116.914 237.45 124 247.537C131.086 257.623 145.259 265.47 145.259 277.797C145.259 290.124 124 308.057 124 308.057" stroke="#6F6F6F" stroke-width="6" stroke-linecap="round" stroke-dasharray="5 8"/>
<path d="M124 187C124 187 153.763 195.644 153.763 207.735C153.763 219.826 133.921 221.558 124 228.469C114.079 235.381 94.2371 237.113 94.2371 249.204C94.2371 261.295 124 269.939 124 269.939" stroke="#6F6F6F" stroke-width="6" stroke-linecap="round" stroke-dasharray="5 8"/>
<path d="M124 187.029C124 187.029 113.37 213.228 113.37 227.021C113.37 240.815 120.457 253.682 124 267.013C127.543 280.344 134.63 293.211 134.63 307.005C134.63 320.798 124 346.997 124 346.997" stroke="#6F6F6F" stroke-width="6" stroke-linecap="round" stroke-dasharray="5 8"/>
<path d="M124 187.033V347" stroke="#6F6F6F" stroke-width="6" stroke-linecap="round" stroke-dasharray="5 8"/>
<line x1="121" y1="344" x2="121" y2="190" stroke="black" stroke-width="6" stroke-linecap="round"/>
<path d="M290.5 193H39L0 463.5C0 474.546 75.4776 483.5 165.5 483.5C255.522 483.5 332.5 471.546 332.5 460.5L290.5 193Z" fill="url(#paint4_linear)"/>
<path fill-rule="evenodd" clip-rule="evenodd" d="M164.859 0C220.088 0 264.859 8.95432 264.859 20L294.718 219.06C291.529 208.451 234.609 200 164.859 200C95.1094 200 38.1895 208.451 35 219.06L64.859 20C64.859 8.95432 109.631 0 164.859 0Z" fill="#FDFADC"/>
<path fill-rule="evenodd" clip-rule="evenodd" d="M164.859 0C220.088 0 264.859 8.95432 264.859 20L294.718 219.06C291.529 208.451 234.609 200 164.859 200C95.1094 200 38.1895 208.451 35 219.06L64.859 20C64.859 8.95432 109.631 0 164.859 0Z" fill="url(#paint5_linear)"/>
<path d="M165 178C184.882 178 201 161.882 201 142H129C129 161.882 145.118 178 165 178Z" fill="#141414"/>
<mask id="mask0" mask-type="alpha" maskUnits="userSpaceOnUse" x="129" y="142" width="72" height="36">
<path d="M165 178C184.882 178 201 161.882 201 142H129C129 161.882 145.118 178 165 178Z" fill="#141414"/>
</mask>
<g mask="url(#mask0)">
<circle cx="179.4" cy="172.6" r="18" fill="#FF1111"/>
</g>
<path d="M115 135C115 129.477 109.18 125 102 125C94.8203 125 89 129.477 89 135" stroke="black" stroke-width="4" stroke-linecap="round" stroke-linejoin="round"/>
<path d="M241 135C241 129.477 235.18 125 228 125C220.82 125 215 129.477 215 135" stroke="black" stroke-width="4" stroke-linecap="round" stroke-linejoin="round"/>
<circle cx="124" cy="347" r="66" fill="#C4C4C4" fill-opacity="0.1"/>
<defs>
<linearGradient id="paint0_linear" x1="35" y1="220" x2="295" y2="220" gradientUnits="userSpaceOnUse">
<stop/>
<stop offset="1" stop-color="white" stop-opacity="0"/>
</linearGradient>
<linearGradient id="paint1_linear" x1="85" y1="444" x2="245" y2="444" gradientUnits="userSpaceOnUse">
<stop stop-color="white"/>
<stop offset="1" stop-color="white" stop-opacity="0"/>
</linearGradient>
<linearGradient id="paint2_linear" x1="119" y1="430" x2="245" y2="430" gradientUnits="userSpaceOnUse">
<stop stop-color="white"/>
<stop offset="1" stop-color="white" stop-opacity="0"/>
</linearGradient>
<linearGradient id="paint3_linear" x1="150" y1="288" x2="180" y2="288" gradientUnits="userSpaceOnUse">
<stop stop-color="white"/>
<stop offset="1" stop-color="white" stop-opacity="0"/>
</linearGradient>
<linearGradient id="paint4_linear" x1="165.5" y1="218.5" x2="165.5" y2="483.5" gradientUnits="userSpaceOnUse">
<stop stop-color="white" stop-opacity="0.4"/>
<stop offset="1" stop-color="white" stop-opacity="0"/>
</linearGradient>
<linearGradient id="paint5_linear" x1="56" y1="110" x2="295" y2="110" gradientUnits="userSpaceOnUse">
<stop stop-color="#F39191" stop-opacity="0.51"/>
<stop offset="1" stop-color="white" stop-opacity="0"/>
</linearGradient>
</defs>
</svg>
