<?xml version="1.0" encoding="UTF-8" standalone="no"?>
<!-- Created with Inkscape (http://www.inkscape.org/) -->

<svg
   xmlns:dc="http://purl.org/dc/elements/1.1/"
   xmlns:cc="http://creativecommons.org/ns#"
   xmlns:rdf="http://www.w3.org/1999/02/22-rdf-syntax-ns#"
   xmlns:svg="http://www.w3.org/2000/svg"
   xmlns="http://www.w3.org/2000/svg"
   xmlns:sodipodi="http://sodipodi.sourceforge.net/DTD/sodipodi-0.dtd"
   xmlns:inkscape="http://www.inkscape.org/namespaces/inkscape"
   width="34.611084mm"
   height="55.365288mm"
   viewBox="0 0 34.611084 55.365288"
   version="1.1"
   id="svg8"
   inkscape:version="0.92.2 5c3e80d, 2017-08-06"
   sodipodi:docname="bear-panda--plain.svg">
  <defs
     id="defs2" />
  <sodipodi:namedview
     id="base"
     pagecolor="#ffffff"
     bordercolor="#666666"
     borderopacity="1.0"
     inkscape:pageopacity="0.0"
     inkscape:pageshadow="2"
     inkscape:zoom="1.979899"
     inkscape:cx="40.596561"
     inkscape:cy="38.484206"
     inkscape:document-units="mm"
     inkscape:current-layer="g1218"
     showgrid="false"
     fit-margin-top="0"
     fit-margin-left="0"
     fit-margin-right="0"
     fit-margin-bottom="0"
     inkscape:window-width="1481"
     inkscape:window-height="917"
     inkscape:window-x="0"
     inkscape:window-y="0"
     inkscape:window-maximized="0" />
  <metadata
     id="metadata5">
    <rdf:RDF>
      <cc:Work
         rdf:about="">
        <dc:format>image/svg+xml</dc:format>
        <dc:type
           rdf:resource="http://purl.org/dc/dcmitype/StillImage" />
        <dc:title />
      </cc:Work>
    </rdf:RDF>
  </metadata>
  <g
     inkscape:label="Layer 1"
     inkscape:groupmode="layer"
     id="layer1"
     transform="translate(-39.710234,-165.74778)">
    <g
       id="g1048">
      <g
         id="g1218">
        <g
           id="g1265">
          <circle
             style="opacity:1;fill:#000000;fill-opacity:1;fill-rule:nonzero;stroke:none;stroke-width:16.5655365;stroke-linecap:round;stroke-linejoin:round;stroke-miterlimit:4;stroke-dasharray:none;stroke-dashoffset:0;stroke-opacity:1"
             id="circle935"
             cx="43.183788"
             cy="170.94495"
             r="1.3229166" />
          <circle
             r="1.3229166"
             cy="167.07069"
             cx="51.121288"
             id="circle937"
             style="opacity:1;fill:#000000;fill-opacity:1;fill-rule:nonzero;stroke:none;stroke-width:16.5655365;stroke-linecap:round;stroke-linejoin:round;stroke-miterlimit:4;stroke-dasharray:none;stroke-dashoffset:0;stroke-opacity:1" />
          <circle
             style="opacity:1;fill:#000000;fill-opacity:1;fill-rule:nonzero;stroke:none;stroke-width:16.5655365;stroke-linecap:round;stroke-linejoin:round;stroke-miterlimit:4;stroke-dasharray:none;stroke-dashoffset:0;stroke-opacity:1"
             id="circle939"
             cx="61.421139"
             cy="167.73215"
             r="1.3229166" />
          <circle
             r="1.3229166"
             cy="171.41742"
             cx="69.075157"
             id="path933"
             style="opacity:1;fill:#000000;fill-opacity:1;fill-rule:nonzero;stroke:none;stroke-width:16.5655365;stroke-linecap:round;stroke-linejoin:round;stroke-miterlimit:4;stroke-dasharray:none;stroke-dashoffset:0;stroke-opacity:1" />
          <path
             sodipodi:nodetypes="cccsaccascccccc"
             inkscape:connector-curvature="0"
             id="rect827"
             d="m 52.664632,167.16322 c -2.33236,0.002 -4.548835,1.14857 -6.073531,3.14192 -0.158959,-0.0216 -0.318418,-0.0336 -0.478007,-0.0362 -4.670933,0.56685 -5.741935,5.42879 -5.77868,8.99133 -0.04803,4.65629 1.30491,8.70182 1.513382,13.0889 0.445337,9.37166 -0.566965,28.14099 -0.566965,28.14099 h 29.886032 c 0,0 -0.200015,-18.15587 0.566965,-27.188 0.373493,-4.39838 1.813798,-8.79438 1.960308,-13.09673 0.123217,-3.61829 -2.536055,-8.96542 -6.130671,-8.96549 -0.451948,0.003 -0.902412,0.073 -1.344104,0.20774 -1.387957,-2.13436 -3.47498,-3.37495 -5.680274,-3.37654 -1.075116,0.003 -2.136407,0.30197 -3.108338,0.87437 -1.379315,-1.1539 -3.049614,-1.77852 -4.766117,-1.78232 z"
             style="opacity:1;fill:#333333;fill-opacity:1;fill-rule:nonzero;stroke:#000000;stroke-width:1.24580967;stroke-linecap:round;stroke-linejoin:round;stroke-miterlimit:4;stroke-dasharray:none;stroke-dashoffset:0;stroke-opacity:1" />
          <path
             id="path1012"
             d="m 209.33398,633.85547 c -8.18002,0.52872 -15.33843,6.26844 -21.24218,11.81836 -6.55602,6.1631 -11.78836,14.17188 -14.55512,22.73402 -6.21877,19.24493 -4.16054,43.99934 -3.37262,60.58043 1.61086,33.8988 -1.7468,98.71617 -2.04492,104.36133 h 100.85742 c 0,0 -0.75624,-68.62063 2.14258,-102.75781 1.41163,-16.6238 6.85642,-33.23915 7.41016,-49.5 0.4657,-13.67543 -9.58593,-33.8845 -23.17188,-33.88477 -1.70815,0.0113 -3.41069,0.2759 -5.08008,0.78516 -5.24582,-8.06687 -13.13378,-12.75571 -21.46875,-12.76172 -4.06343,0.0113 -8.0746,1.14128 -11.74804,3.30469 -2.37578,-1.98751 -4.98154,-3.55585 -7.72657,-4.67969 z"
             style="opacity:1;fill:#808080;fill-opacity:1;fill-rule:nonzero;stroke:none;stroke-width:4.70857191;stroke-linecap:round;stroke-linejoin:round;stroke-miterlimit:4;stroke-dasharray:none;stroke-dashoffset:0;stroke-opacity:1"
             inkscape:connector-curvature="0"
             transform="scale(0.26458333)"
             sodipodi:nodetypes="caasccssccccc" />
          <path
             style="opacity:1;fill:none;fill-opacity:1;fill-rule:nonzero;stroke:#000000;stroke-width:1.24580967;stroke-linecap:round;stroke-linejoin:round;stroke-miterlimit:4;stroke-dasharray:none;stroke-dashoffset:0;stroke-opacity:1"
             d="m 52.664632,167.16322 c -2.33236,0.002 -4.548835,1.14857 -6.073531,3.14192 -0.158959,-0.0216 -0.318418,-0.0336 -0.478007,-0.0362 -4.670933,0.56685 -5.741935,5.42879 -5.77868,8.99133 -0.04803,4.65629 1.30491,8.70182 1.513382,13.0889 0.445337,9.37166 -0.566965,28.14099 -0.566965,28.14099 h 29.886032 c 0,0 -0.200015,-18.15587 0.566965,-27.188 0.373493,-4.39838 1.813798,-8.79438 1.960308,-13.09673 0.123217,-3.61829 -2.536055,-8.96542 -6.130671,-8.96549 -0.451948,0.003 -0.902412,0.073 -1.344104,0.20774 -1.387957,-2.13436 -3.47498,-3.37495 -5.680274,-3.37654 -1.075116,0.003 -2.136407,0.30197 -3.108338,0.87437 -1.379315,-1.1539 -3.049614,-1.77852 -4.766117,-1.78232 z"
             id="path1020"
             inkscape:connector-curvature="0"
             sodipodi:nodetypes="cccsaccascccccc" />
        </g>
      </g>
    </g>
  </g>
</svg>
