<?xml version="1.0" encoding="UTF-8" standalone="no"?>
<!-- Created with Inkscape (http://www.inkscape.org/) -->

<svg
   xmlns:dc="http://purl.org/dc/elements/1.1/"
   xmlns:cc="http://creativecommons.org/ns#"
   xmlns:rdf="http://www.w3.org/1999/02/22-rdf-syntax-ns#"
   xmlns:svg="http://www.w3.org/2000/svg"
   xmlns="http://www.w3.org/2000/svg"
   xmlns:sodipodi="http://sodipodi.sourceforge.net/DTD/sodipodi-0.dtd"
   xmlns:inkscape="http://www.inkscape.org/namespaces/inkscape"
   width="34.611084mm"
   height="55.365288mm"
   viewBox="0 0 34.611084 55.365288"
   version="1.1"
   id="svg8"
   inkscape:version="0.92.2 5c3e80d, 2017-08-06"
   sodipodi:docname="bear-paw--palm.svg">
  <defs
     id="defs2" />
  <sodipodi:namedview
     id="base"
     pagecolor="#ffffff"
     bordercolor="#666666"
     borderopacity="1.0"
     inkscape:pageopacity="0.0"
     inkscape:pageshadow="2"
     inkscape:zoom="2.8"
     inkscape:cx="-29.403439"
     inkscape:cy="114.09696"
     inkscape:document-units="mm"
     inkscape:current-layer="g1048"
     showgrid="false"
     fit-margin-top="0"
     fit-margin-left="0"
     fit-margin-right="0"
     fit-margin-bottom="0"
     inkscape:window-width="2043"
     inkscape:window-height="1127"
     inkscape:window-x="0"
     inkscape:window-y="0"
     inkscape:window-maximized="0" />
  <metadata
     id="metadata5">
    <rdf:RDF>
      <cc:Work
         rdf:about="">
        <dc:format>image/svg+xml</dc:format>
        <dc:type
           rdf:resource="http://purl.org/dc/dcmitype/StillImage" />
        <dc:title />
      </cc:Work>
    </rdf:RDF>
  </metadata>
  <g
     inkscape:label="Layer 1"
     inkscape:groupmode="layer"
     id="layer1"
     transform="translate(-39.710234,-165.74778)">
    <g
       id="g1048">
      <circle
         style="opacity:1;fill:#000000;fill-opacity:1;fill-rule:nonzero;stroke:none;stroke-width:16.5655365;stroke-linecap:round;stroke-linejoin:round;stroke-miterlimit:4;stroke-dasharray:none;stroke-dashoffset:0;stroke-opacity:1"
         id="circle935"
         cx="43.183788"
         cy="170.94495"
         r="1.3229166" />
      <circle
         r="1.3229166"
         cy="167.07069"
         cx="51.121288"
         id="circle937"
         style="opacity:1;fill:#000000;fill-opacity:1;fill-rule:nonzero;stroke:none;stroke-width:16.5655365;stroke-linecap:round;stroke-linejoin:round;stroke-miterlimit:4;stroke-dasharray:none;stroke-dashoffset:0;stroke-opacity:1" />
      <circle
         style="opacity:1;fill:#000000;fill-opacity:1;fill-rule:nonzero;stroke:none;stroke-width:16.5655365;stroke-linecap:round;stroke-linejoin:round;stroke-miterlimit:4;stroke-dasharray:none;stroke-dashoffset:0;stroke-opacity:1"
         id="circle939"
         cx="61.421139"
         cy="167.73215"
         r="1.3229166" />
      <circle
         r="1.3229166"
         cy="171.41742"
         cx="69.075157"
         id="path933"
         style="opacity:1;fill:#000000;fill-opacity:1;fill-rule:nonzero;stroke:none;stroke-width:16.5655365;stroke-linecap:round;stroke-linejoin:round;stroke-miterlimit:4;stroke-dasharray:none;stroke-dashoffset:0;stroke-opacity:1" />
      <path
         sodipodi:nodetypes="cccsaccascccccc"
         inkscape:connector-curvature="0"
         id="rect827"
         d="m 52.664632,167.16322 c -2.33236,0.002 -4.548835,1.14857 -6.073531,3.14192 -0.158959,-0.0216 -0.318418,-0.0336 -0.478007,-0.0362 -4.670933,0.56685 -5.741935,5.42879 -5.77868,8.99133 -0.04803,4.65629 1.30491,8.70182 1.513382,13.0889 0.445337,9.37166 -0.566965,28.14099 -0.566965,28.14099 h 29.886032 c 0,0 -0.200015,-18.15587 0.566965,-27.188 0.373493,-4.39838 1.813798,-8.79438 1.960308,-13.09673 0.123217,-3.61829 -2.536055,-8.96542 -6.130671,-8.96549 -0.451948,0.003 -0.902412,0.073 -1.344104,0.20774 -1.387957,-2.13436 -3.47498,-3.37495 -5.680274,-3.37654 -1.075116,0.003 -2.136407,0.30197 -3.108338,0.87437 -1.379315,-1.1539 -3.049614,-1.77852 -4.766117,-1.78232 z"
         style="opacity:1;fill:#a05a2c;fill-opacity:1;fill-rule:nonzero;stroke:#000000;stroke-width:1.24580967;stroke-linecap:round;stroke-linejoin:round;stroke-miterlimit:4;stroke-dasharray:none;stroke-dashoffset:0;stroke-opacity:1" />
      <path
         id="path1012"
         d="m 209.33398,633.85547 c -9.92836,2.04771 -16.4355,16.05226 -21.15107,26.25271 -4.94369,10.6939 -5.9446,22.95907 -6.60091,34.72209 -0.97006,17.38649 3.19897,35.50713 3.98689,52.08822 1.61086,33.8988 -0.98919,80.28088 -1.28731,85.92604 l 84.69498,0.50508 c 0,0 -0.75624,-68.62063 2.14258,-102.75781 1.41163,-16.6238 6.85642,-33.23915 7.41016,-49.5 0.4657,-13.67543 -9.58593,-33.8845 -23.17188,-33.88477 -1.70815,0.0113 -3.41069,0.2759 -5.08008,0.78516 -5.24582,-8.06687 -13.13378,-12.75571 -21.46875,-12.76172 -4.06343,0.0113 -8.0746,1.14128 -11.74804,3.30469 -2.37578,-1.98751 -4.98154,-3.55585 -7.72657,-4.67969 z"
         style="opacity:1;fill:#d38d5f;fill-opacity:1;fill-rule:nonzero;stroke:none;stroke-width:4.70857191;stroke-linecap:round;stroke-linejoin:round;stroke-miterlimit:4;stroke-dasharray:none;stroke-dashoffset:0;stroke-opacity:1"
         inkscape:connector-curvature="0"
         transform="scale(0.26458333)"
         sodipodi:nodetypes="caasccssccccc" />
      <path
         style="opacity:1;fill:none;fill-opacity:1;fill-rule:nonzero;stroke:#000000;stroke-width:1.5875;stroke-linecap:round;stroke-linejoin:round;stroke-miterlimit:4;stroke-dasharray:none;stroke-dashoffset:0;stroke-opacity:1"
         d="m 52.664632,167.16322 c -2.33236,0.002 -4.548835,1.14857 -6.073531,3.14192 -0.158959,-0.0216 -0.318418,-0.0336 -0.478007,-0.0362 -4.670933,0.56685 -5.741935,5.42879 -5.77868,8.99133 -0.04803,4.65629 1.30491,8.70182 1.513382,13.0889 0.445337,9.37166 -0.566965,28.14099 -0.566965,28.14099 h 29.886032 c 0,0 -0.200015,-18.15587 0.566965,-27.188 0.373493,-4.39838 1.813798,-8.79438 1.960308,-13.09673 0.123217,-3.61829 -2.536055,-8.96542 -6.130671,-8.96549 -0.451948,0.003 -0.902412,0.073 -1.344104,0.20774 -1.387957,-2.13436 -3.47498,-3.37495 -5.680274,-3.37654 -1.075116,0.003 -2.136407,0.30197 -3.108338,0.87437 -1.379315,-1.1539 -3.049614,-1.77852 -4.766117,-1.78232 z"
         id="path1020"
         inkscape:connector-curvature="0"
         sodipodi:nodetypes="cccsaccascccccc" />
      <g
         id="g854">
        <ellipse
           style="opacity:1;fill:#ff8080;fill-opacity:1;fill-rule:nonzero;stroke:#000000;stroke-width:0.79392416;stroke-linecap:round;stroke-linejoin:round;stroke-miterlimit:4;stroke-dasharray:none;stroke-dashoffset:0;stroke-opacity:1"
           id="path1003"
           cx="50.142902"
           cy="188.41022"
           rx="8.7242651"
           ry="6.1593814"
           transform="matrix(0.99999087,-0.00427404,0.03388914,0.9994256,0,0)" />
        <g
           id="g848">
          <path
             inkscape:connector-curvature="0"
             style="opacity:1;fill:#ffd5d5;fill-opacity:1;fill-rule:nonzero;stroke:none;stroke-width:3;stroke-linecap:round;stroke-linejoin:round;stroke-miterlimit:4;stroke-dasharray:none;stroke-dashoffset:0;stroke-opacity:1"
             d="M 71.351562,61.955078 A 32.987945,23.259221 1.4359249 0 0 40.183594,85.332031 32.987945,23.259221 1.4359249 0 0 65.373047,107.67188 32.987945,23.259221 1.4359249 0 0 96.535156,84.292969 32.987945,23.259221 1.4359249 0 0 71.351562,61.955078 Z"
             transform="matrix(0.26458333,0,0,0.26458333,39.710234,165.74778)"
             id="ellipse839" />
          <ellipse
             style="opacity:1;fill:none;fill-opacity:1;fill-rule:nonzero;stroke:#000000;stroke-width:0.79392415;stroke-linecap:round;stroke-linejoin:round;stroke-miterlimit:4;stroke-dasharray:none;stroke-dashoffset:0;stroke-opacity:1"
             id="ellipse844"
             cx="50.142902"
             cy="188.41022"
             rx="8.7242651"
             ry="6.1593814"
             transform="matrix(0.99999087,-0.00427404,0.03388914,0.9994256,0,0)" />
        </g>
      </g>
      <g
         id="g868"
         transform="translate(29.86737,-10.156242)">
        <circle
           r="3.2740517"
           cy="188.10529"
           cx="16.123699"
           id="path856"
           style="opacity:1;fill:#ff8080;fill-opacity:1;fill-rule:nonzero;stroke:#000000;stroke-width:0.79374999;stroke-linecap:round;stroke-linejoin:round;stroke-miterlimit:4;stroke-dasharray:none;stroke-dashoffset:0;stroke-opacity:1" />
        <path
           id="circle858"
           transform="matrix(0.26458333,0,0,0.26458333,39.710234,165.74778)"
           d="M -86.152344,72.509766 A 12.374369,12.374369 0 0 0 -95.519531,84.5 12.374369,12.374369 0 0 0 -86.138672,96.492188 12.374369,12.374369 0 0 0 -76.771484,84.5 12.374369,12.374369 0 0 0 -86.152344,72.509766 Z"
           style="opacity:1;fill:#ffd5d5;fill-opacity:1;fill-rule:nonzero;stroke:none;stroke-width:3;stroke-linecap:round;stroke-linejoin:round;stroke-miterlimit:4;stroke-dasharray:none;stroke-dashoffset:0;stroke-opacity:1"
           inkscape:connector-curvature="0" />
        <circle
           style="opacity:1;fill:none;fill-opacity:1;fill-rule:nonzero;stroke:#000000;stroke-width:0.79374999;stroke-linecap:round;stroke-linejoin:round;stroke-miterlimit:4;stroke-dasharray:none;stroke-dashoffset:0;stroke-opacity:1"
           id="circle863"
           cx="16.123699"
           cy="188.10529"
           r="3.2740517" />
      </g>
      <g
         transform="translate(36.816378,-14.766641)"
         id="g876">
        <circle
           style="opacity:1;fill:#ff8080;fill-opacity:1;fill-rule:nonzero;stroke:#000000;stroke-width:0.79374999;stroke-linecap:round;stroke-linejoin:round;stroke-miterlimit:4;stroke-dasharray:none;stroke-dashoffset:0;stroke-opacity:1"
           id="circle870"
           cx="16.123699"
           cy="188.10529"
           r="3.2740517" />
        <path
           inkscape:connector-curvature="0"
           style="opacity:1;fill:#ffd5d5;fill-opacity:1;fill-rule:nonzero;stroke:none;stroke-width:3;stroke-linecap:round;stroke-linejoin:round;stroke-miterlimit:4;stroke-dasharray:none;stroke-dashoffset:0;stroke-opacity:1"
           d="M -86.152344,72.509766 A 12.374369,12.374369 0 0 0 -95.519531,84.5 12.374369,12.374369 0 0 0 -86.138672,96.492188 12.374369,12.374369 0 0 0 -76.771484,84.5 12.374369,12.374369 0 0 0 -86.152344,72.509766 Z"
           transform="matrix(0.26458333,0,0,0.26458333,39.710234,165.74778)"
           id="path872" />
        <circle
           r="3.2740517"
           cy="188.10529"
           cx="16.123699"
           id="circle874"
           style="opacity:1;fill:none;fill-opacity:1;fill-rule:nonzero;stroke:#000000;stroke-width:0.79374999;stroke-linecap:round;stroke-linejoin:round;stroke-miterlimit:4;stroke-dasharray:none;stroke-dashoffset:0;stroke-opacity:1" />
      </g>
      <g
         id="g884"
         transform="translate(45.034916,-12.361215)">
        <circle
           r="3.2740517"
           cy="188.10529"
           cx="16.123699"
           id="circle878"
           style="opacity:1;fill:#ff8080;fill-opacity:1;fill-rule:nonzero;stroke:#000000;stroke-width:0.79374999;stroke-linecap:round;stroke-linejoin:round;stroke-miterlimit:4;stroke-dasharray:none;stroke-dashoffset:0;stroke-opacity:1" />
        <path
           id="path880"
           transform="matrix(0.26458333,0,0,0.26458333,39.710234,165.74778)"
           d="M -86.152344,72.509766 A 12.374369,12.374369 0 0 0 -95.519531,84.5 12.374369,12.374369 0 0 0 -86.138672,96.492188 12.374369,12.374369 0 0 0 -76.771484,84.5 12.374369,12.374369 0 0 0 -86.152344,72.509766 Z"
           style="opacity:1;fill:#ffd5d5;fill-opacity:1;fill-rule:nonzero;stroke:none;stroke-width:3;stroke-linecap:round;stroke-linejoin:round;stroke-miterlimit:4;stroke-dasharray:none;stroke-dashoffset:0;stroke-opacity:1"
           inkscape:connector-curvature="0" />
        <circle
           style="opacity:1;fill:none;fill-opacity:1;fill-rule:nonzero;stroke:#000000;stroke-width:0.79374999;stroke-linecap:round;stroke-linejoin:round;stroke-miterlimit:4;stroke-dasharray:none;stroke-dashoffset:0;stroke-opacity:1"
           id="circle882"
           cx="16.123699"
           cy="188.10529"
           r="3.2740517" />
      </g>
      <g
         transform="translate(52.184376,-7.1494592)"
         id="g892">
        <circle
           style="opacity:1;fill:#ff8080;fill-opacity:1;fill-rule:nonzero;stroke:#000000;stroke-width:0.79374999;stroke-linecap:round;stroke-linejoin:round;stroke-miterlimit:4;stroke-dasharray:none;stroke-dashoffset:0;stroke-opacity:1"
           id="circle886"
           cx="16.123699"
           cy="188.10529"
           r="3.2740517" />
        <path
           inkscape:connector-curvature="0"
           style="opacity:1;fill:#ffd5d5;fill-opacity:1;fill-rule:nonzero;stroke:none;stroke-width:3;stroke-linecap:round;stroke-linejoin:round;stroke-miterlimit:4;stroke-dasharray:none;stroke-dashoffset:0;stroke-opacity:1"
           d="M -86.152344,72.509766 A 12.374369,12.374369 0 0 0 -95.519531,84.5 12.374369,12.374369 0 0 0 -86.138672,96.492188 12.374369,12.374369 0 0 0 -76.771484,84.5 12.374369,12.374369 0 0 0 -86.152344,72.509766 Z"
           transform="matrix(0.26458333,0,0,0.26458333,39.710234,165.74778)"
           id="path888" />
        <circle
           r="3.2740517"
           cy="188.10529"
           cx="16.123699"
           id="circle890"
           style="opacity:1;fill:none;fill-opacity:1;fill-rule:nonzero;stroke:#000000;stroke-width:0.79374999;stroke-linecap:round;stroke-linejoin:round;stroke-miterlimit:4;stroke-dasharray:none;stroke-dashoffset:0;stroke-opacity:1" />
      </g>
    </g>
  </g>
</svg>
