<svg class="like__heart heart" xmlns="http://www.w3.org/2000/svg" viewBox="0 0 12.115 11.096">
  <defs>
    <clipPath id="outline">
      <path stroke-linecap="round" stroke-linejoin="round" stroke-width=".822" d="M1.325 1.386a3.307 3.307 0 00.055 4.621l4.677 4.678 4.678-4.678A3.308 3.308 0 009.252.474c-1.141-.306-2.36.55-3.195 1.385C5.222 1.023 4.004.168 2.862.474a3.307 3.307 0 00-1.537.912z"/>
    </clipPath>
    <clipPath id="inner">
      <path clip-path="url(#outline)" d="M-.2.044c-.383.4-.191 2.762-.335 3.297a3.307 3.307 0 00.856 3.195L5 11.214l4.677-4.678a3.308 3.308 0 00-1.482-5.533C7.052.697 4.176-1.237 3.34-.401c-.836-.835 1.141-.305 0 0-.586.158-3.123.005-3.542.445z"/>
    </clipPath>
  </defs>
  <path class="heart__shine" stroke-linecap="round" stroke-linejoin="round" stroke-width=".822" d="M1.325 1.386a3.307 3.307 0 00.055 4.621l4.677 4.678 4.678-4.678A3.308 3.308 0 009.252.474c-1.141-.306-2.36.55-3.195 1.385C5.222 1.023 4.004.168 2.862.474a3.307 3.307 0 00-1.537.912z"/>
  <path class="heart__shadow" clip-path="url(#outline)" d="M-.2.044c-.383.4-.191 2.762-.335 3.297a3.307 3.307 0 00.856 3.195L5 11.214l4.677-4.678a3.308 3.308 0 00-1.482-5.533C7.052.697 4.176-1.237 3.34-.401c-.836-.835 1.141-.305 0 0-.586.158-3.123.005-3.542.445z"/>
  <path class="heart__body" clip-path="url(#inner)" d="M4.611.073a3.307 3.307 0 00-1.418 4.4l2.947 5.921 5.922-2.947a3.308 3.308 0 00.354-5.718c-.985-.653-1.116-2.76-2.174-2.233-.527-1.058-2.704.274-3.884.201a3.308 3.308 0 00-1.747.376z"/>
  <path class="heart__baseline" fill="none" stroke-linecap="round" stroke-linejoin="round" stroke-width=".822" d="M1.325 1.386a3.307 3.307 0 00.055 4.621l4.677 4.678 4.678-4.678A3.308 3.308 0 009.252.474c-1.141-.306-2.36.55-3.195 1.385C5.222 1.023 4.004.168 2.862.474a3.307 3.307 0 00-1.537.912z"/>
  <path class="heart__outline" fill="none" stroke-linecap="round" stroke-linejoin="round" stroke-width=".822" d="M1.325 1.386a3.307 3.307 0 00.055 4.621l4.677 4.678 4.678-4.678A3.308 3.308 0 009.252.474c-1.141-.306-2.36.55-3.195 1.385C5.222 1.023 4.004.168 2.862.474a3.307 3.307 0 00-1.537.912z"/>
</svg>