<svg width="120" height="119" viewBox="0 0 120 119" fill="none" xmlns="http://www.w3.org/2000/svg">
  <path d="M60.1 65.55L60 65.65L59.89 65.55C55.14 61.24 52 58.39 52 55.5C52 53.5 53.5 52 55.5 52C57.04 52 58.54 53 59.07 54.36H60.93C61.46 53 62.96 52 64.5 52C66.5 52 68 53.5 68 55.5C68 58.39 64.86 61.24 60.1 65.55ZM64.5 50C62.76 50 61.09 50.81 60 52.08C58.91 50.81 57.24 50 55.5 50C52.42 50 50 52.41 50 55.5C50 59.27 53.4 62.36 58.55 67.03L60 68.35L61.45 67.03C66.6 62.36 70 59.27 70 55.5C70 52.41 67.58 50 64.5 50Z" fill="hsl(0, 0%, 80%)"/>
</svg>
