<svg width="88" height="134" viewBox="0 0 88 134" fill="none" xmlns="http://www.w3.org/2000/svg">
<g clip-path="url(#clip0_9:248)">
<path d="M43.845 0C19.555 0 0 16.028 0 49.742V131.158C0 132.045 0.017 132.926 0.043 133.803H87.647C87.674 132.926 87.69 132.045 87.69 131.158V49.742C87.69 16.028 68.135 0 43.845 0Z" fill="#FAF9F9"/>
<path d="M17.3848 50.648C20.3075 50.648 22.6768 48.2787 22.6768 45.356C22.6768 42.4333 20.3075 40.064 17.3848 40.064C14.4621 40.064 12.0928 42.4333 12.0928 45.356C12.0928 48.2787 14.4621 50.648 17.3848 50.648Z" fill="black"/>
<path d="M15.385 44.679C16.1157 44.679 16.708 44.0866 16.708 43.356C16.708 42.6253 16.1157 42.033 15.385 42.033C14.6543 42.033 14.062 42.6253 14.062 43.356C14.062 44.0866 14.6543 44.679 15.385 44.679Z" fill="#FAF9F9"/>
<path d="M13.0777 42.6763L21.8369 45.7902L13.0777 48.6123" stroke="black" stroke-width="12" stroke-linejoin="round"/>
<path d="M70.3037 50.648C73.2264 50.648 75.5957 48.2787 75.5957 45.356C75.5957 42.4333 73.2264 40.064 70.3037 40.064C67.381 40.064 65.0117 42.4333 65.0117 45.356C65.0117 48.2787 67.381 50.648 70.3037 50.648Z" fill="black"/>
<path d="M68.3035 44.679C69.0341 44.679 69.6265 44.0866 69.6265 43.356C69.6265 42.6253 69.0341 42.033 68.3035 42.033C67.5728 42.033 66.9805 42.6253 66.9805 43.356C66.9805 44.0866 67.5728 44.679 68.3035 44.679Z" fill="#FAF9F9"/>
<path d="M74.8678 48.4368L65.8635 46.1247L74.3328 42.525" stroke="black" stroke-width="12" stroke-linejoin="round"/>
<path d="M8.69971 56.26C10.1611 56.26 11.3457 55.0754 11.3457 53.614C11.3457 52.1527 10.1611 50.968 8.69971 50.968C7.23836 50.968 6.05371 52.1527 6.05371 53.614C6.05371 55.0754 7.23836 56.26 8.69971 56.26Z" fill="#FAF9F9"/>
<path d="M78.9907 56.26C80.4521 56.26 81.6367 55.0754 81.6367 53.614C81.6367 52.1527 80.4521 50.968 78.9907 50.968C77.5294 50.968 76.3447 52.1527 76.3447 53.614C76.3447 55.0754 77.5294 56.26 78.9907 56.26Z" fill="#FAF9F9"/>
<path d="M49.9922 48.558C49.9922 49.6369 49.7082 50.6968 49.1688 51.6311C48.6294 52.5655 47.8535 53.3415 46.9192 53.881C45.9848 54.4205 44.9248 54.7045 43.8457 54.7045C42.7667 54.7045 41.7067 54.4205 40.7722 53.881C39.8378 53.3416 39.0617 52.5657 38.5221 51.6313C37.9825 50.6969 37.6984 49.637 37.6982 48.558H43.8452H49.9922Z" fill="#B62525"/>
<path d="M46.2762 50.864C45.5044 50.864 44.7643 51.1706 44.2185 51.7163C43.6728 52.2621 43.3662 53.0022 43.3662 53.774C43.3671 54.0858 43.4181 54.3954 43.5172 54.691C44.7057 54.7561 45.8876 54.4747 46.9192 53.881C47.6338 53.4655 48.2573 52.9101 48.7522 52.248C48.4919 51.8253 48.1277 51.4762 47.6943 51.2339C47.2609 50.9917 46.7727 50.8643 46.2762 50.864V50.864Z" fill="#FAF9F9"/>
<ellipse cx="43.7964" cy="51.6723" rx="2.43313" ry="2.43278" fill="#C4C4C4"/>
<path d="M39.2352 51.373L40.7722 49.257L42.3082 51.373L43.8452 49.257L45.3822 51.373L46.9192 49.257L48.4562 51.373L49.9922 48.558H37.6982L39.2352 51.373Z" fill="#FAF9F9"/>
<path d="M22.9442 39.021C22.9442 40.318 21.8842 41.516 20.1642 42.165C18.4442 42.813 16.3262 42.813 14.6062 42.165C12.8862 41.516 11.8262 40.318 11.8262 39.021" fill="#FAF9F9"/>
<path d="M75.8631 39.02C75.8631 40.318 74.8041 41.517 73.0841 42.166C71.3641 42.816 69.2451 42.816 67.5251 42.166C65.8051 41.517 64.7461 40.318 64.7461 39.019" fill="#FAF9F9"/>
</g>
<defs>
<clipPath id="clip0_9:248">
<rect width="87.69" height="133.803" fill="white"/>
</clipPath>
</defs>
</svg>
