<?xml version="1.0" encoding="UTF-8" standalone="no"?>
<svg
   xmlns:dc="http://purl.org/dc/elements/1.1/"
   xmlns:cc="http://creativecommons.org/ns#"
   xmlns:rdf="http://www.w3.org/1999/02/22-rdf-syntax-ns#"
   xmlns:svg="http://www.w3.org/2000/svg"
   xmlns="http://www.w3.org/2000/svg"
   xmlns:sodipodi="http://sodipodi.sourceforge.net/DTD/sodipodi-0.dtd"
   xmlns:inkscape="http://www.inkscape.org/namespaces/inkscape"
   version="1.1"
   id="svg4938"
   viewBox="0 0 300 300"
   height="300"
   width="300"
   sodipodi:docname="faces.svg"
   inkscape:version="0.92.2 5c3e80d, 2017-08-06">
  <sodipodi:namedview
     pagecolor="#ffffff"
     bordercolor="#666666"
     borderopacity="1"
     objecttolerance="10"
     gridtolerance="10"
     guidetolerance="10"
     inkscape:pageopacity="0"
     inkscape:pageshadow="2"
     inkscape:window-width="1917"
     inkscape:window-height="1054"
     id="namedview1021"
     showgrid="false"
     inkscape:zoom="2.3836829"
     inkscape:cx="43.929655"
     inkscape:cy="150"
     inkscape:window-x="0"
     inkscape:window-y="478"
     inkscape:window-maximized="0"
     inkscape:current-layer="g1620"
     inkscape:snap-object-midpoints="true" />
  <defs
     id="defs4940" />
  <metadata
     id="metadata4943">
    <rdf:RDF>
      <cc:Work
         rdf:about="">
        <dc:format>image/svg+xml</dc:format>
        <dc:type
           rdf:resource="http://purl.org/dc/dcmitype/StillImage" />
        <dc:title />
      </cc:Work>
    </rdf:RDF>
  </metadata>
  <path
     style="fill:#803300;fill-opacity:1;stroke:none;stroke-width:8.04627705;stroke-linecap:round;stroke-linejoin:round;stroke-miterlimit:4;stroke-dasharray:none;stroke-opacity:1"
     d="m 274.47833,149.02481 c 2e-5,82.14137 -48.35629,142.53273 -126.33756,142.53273 -72.853162,0 -122.619144,-60.39136 -122.619118,-142.53273 5e-6,-82.14135 50.513732,-115.26422 121.999388,-115.26422 71.48566,0 126.95729,33.12287 126.95729,115.26422 z"
     id="path5634"
     inkscape:connector-curvature="0"
     sodipodi:nodetypes="sssss" />
  <path
     style="fill:#e9c6af;fill-opacity:1;stroke:none;stroke-width:8.04627705;stroke-linecap:round;stroke-linejoin:round;stroke-miterlimit:4;stroke-dasharray:none;stroke-opacity:1"
     d="m 233.04483,235.16834 c 3e-5,26.6973 -38.35509,52.0579 -84.90406,52.0579 -46.54897,0 -81.18565,-25.3606 -81.185626,-52.0579 0,-26.69719 35.256426,-44.62111 81.805366,-44.62111 46.54894,0 84.28432,17.92392 84.28432,44.62111 z"
     id="path5639"
     inkscape:connector-curvature="0"
     sodipodi:nodetypes="csssc" />
  <path
     style="fill:#000000;fill-opacity:1;stroke:none;stroke-width:8.04627705;stroke-linecap:round;stroke-linejoin:round;stroke-miterlimit:4;stroke-dasharray:none;stroke-opacity:1"
     d="m 191.83228,199.8433 c 0,10.26815 -25.53286,32.84609 -40.59281,32.84609 -15.05994,0 -43.07177,-22.57794 -43.07177,-32.84609 0,-10.26815 27.14162,-16.73292 42.20157,-16.73292 15.05995,0 41.46301,6.46477 41.46301,16.73292 z"
     id="path5636"
     inkscape:connector-curvature="0"
     sodipodi:nodetypes="sssss" />
  <ellipse
     style="fill:#803300;fill-opacity:1;stroke:none;stroke-width:8.04627705;stroke-linecap:round;stroke-linejoin:round;stroke-miterlimit:4;stroke-dasharray:none;stroke-opacity:1"
     id="path5793"
     cx="40.442303"
     cy="60.265465"
     rx="31.865808"
     ry="30.992773" />
  <path
     style="fill:#e9c6af;fill-opacity:1;stroke:none;stroke-width:8.04627705;stroke-linecap:round;stroke-linejoin:round;stroke-miterlimit:4;stroke-dasharray:none;stroke-opacity:1"
     d="m 62.542094,58.43451 a 22.192795,21.584774 0 0 0 -22.09979,-19.75491 22.192795,21.584774 0 0 0 -22.19226,21.58529 22.192795,21.584774 0 0 0 22.19226,21.5853 22.192795,21.584774 0 0 0 1.517419,-0.0522 c 1.093325,-1.79296 2.121262,-3.65732 3.314612,-5.34178 2.108187,-2.97581 4.369534,-5.78313 6.778598,-8.42643 2.409065,-2.64328 4.96508,-5.12155 7.660597,-7.44009 0.896951,-0.77152 1.900961,-1.41909 2.828564,-2.15521 z"
     id="path5806"
     inkscape:connector-curvature="0" />
  <ellipse
     ry="30.992773"
     rx="31.865808"
     cy="60.265465"
     cx="-258.95071"
     id="ellipse5814"
     style="fill:#803300;fill-opacity:1;stroke:none;stroke-width:8.04627705;stroke-linecap:round;stroke-linejoin:round;stroke-miterlimit:4;stroke-dasharray:none;stroke-opacity:1"
     transform="scale(-1,1)" />
  <path
     id="path5816"
     d="m 236.85091,58.43451 a 22.192795,21.584774 0 0 1 22.09979,-19.75491 22.192795,21.584774 0 0 1 22.19226,21.58529 22.192795,21.584774 0 0 1 -22.19226,21.5853 22.192795,21.584774 0 0 1 -1.51742,-0.0522 c -1.09333,-1.79296 -2.12127,-3.65732 -3.31461,-5.34178 -2.10819,-2.97581 -4.36953,-5.78313 -6.7786,-8.42643 -2.40907,-2.64328 -4.96507,-5.12155 -7.66059,-7.44009 -0.89696,-0.77152 -1.90097,-1.41909 -2.82857,-2.15521 z"
     style="fill:#e9c6af;fill-opacity:1;stroke:none;stroke-width:8.04627705;stroke-linecap:round;stroke-linejoin:round;stroke-miterlimit:4;stroke-dasharray:none;stroke-opacity:1"
     inkscape:connector-curvature="0" />
  <g
     id="g5936"
     transform="matrix(1.3410461,0,0,1.3410461,-286.51047,-862.61788)">
    <path
       style="fill:#ff0000;fill-opacity:1;stroke:none;stroke-width:6;stroke-linecap:round;stroke-linejoin:round;stroke-miterlimit:4;stroke-dasharray:none;stroke-opacity:1"
       d="m 323.23144,675.8575 c -13.39625,0 -26.02272,1.07931 -37.67187,3.33442 v 11.35333 c 11.64929,-2.25501 24.27565,-3.33443 37.67187,-3.33442 15.1037,0 29.45807,1.37252 42.66602,4.25604 v -11.35498 c -13.20738,-2.88322 -27.56311,-4.25439 -42.66602,-4.25439 z"
       id="path5921"
       inkscape:connector-curvature="0" />
    <path
       id="path5926"
       transform="translate(0,752.36216)"
       d="m 340.69531,-75.849609 a 15.875,7.8125 0 0 1 4.42969,5.412109 15.875,7.8125 0 0 1 -5.41406,5.863281 c 9.11632,0.65256 17.87758,1.865918 26.18554,3.679688 V -72.25 c -8.00689,-1.747935 -16.43955,-2.931738 -25.20117,-3.599609 z"
       style="fill:#e50000;fill-opacity:1;stroke:none;stroke-width:6;stroke-linecap:round;stroke-linejoin:round;stroke-miterlimit:4;stroke-dasharray:none;stroke-opacity:1"
       inkscape:connector-curvature="0" />
  </g>
  <path
     style="fill:#1a1a1a;fill-opacity:1;stroke:none;stroke-width:8.04627705;stroke-linecap:round;stroke-linejoin:round;stroke-miterlimit:4;stroke-dasharray:none;stroke-opacity:1"
     d="M 147.39783,8.44244 C 89.076838,8.44244 45.650205,34.56706 35.710465,94.07687 52.234849,79.97454 73.134214,69.0067 96.439396,63.70035 c 0,0 -3.280011,-16.76164 13.745724,-21.49537 19.46312,-5.4114 24.68049,-5.28852 37.21271,-5.36419 13.67906,-0.0826 20.21645,-0.0947 40.68583,5.36419 19.02477,5.07363 16.09255,22.94904 16.09255,22.94904 23.08883,5.92876 42.70596,14.37843 59.35882,28.92285 C 253.77739,32.34964 206.70824,8.44244 147.39783,8.44244 Z"
     id="path5918"
     inkscape:connector-curvature="0"
     sodipodi:nodetypes="sccsasccs" />
  <g
     style="display:inline"
     inkscape:label="SmileNoTeeth"
     id="g879"
     inkscape:groupmode="layer"
     sodipodi:insensitive="true">
    <g
       id="g877"
       style="display:inline"
       transform="matrix(1.003641,0,0,0.54376592,-0.54613943,116.79652)" />
    <g
       id="g1450">
      <path
         transform="translate(0,-752.36216)"
         inkscape:connector-curvature="0"
         id="path869"
         d="m 234.53418,901.67236 a 15,15 0 0 1 -15,15 15,15 0 0 1 -15,-15 15,15 0 0 1 15,-15 15,15 0 0 1 15,15 z"
         style="display:inline;fill:#000000;fill-opacity:0.90410958;stroke:none;stroke-width:11.28181934;stroke-linecap:round;stroke-linejoin:round;stroke-miterlimit:4;stroke-dasharray:none;stroke-dashoffset:0;stroke-opacity:1" />
      <path
         transform="translate(0,-752.36216)"
         inkscape:connector-curvature="0"
         id="path871"
         d="m 94.248413,901.67236 a 15,15 0 0 1 -15,15 15,15 0 0 1 -15,-15 15,15 0 0 1 15,-15 15,15 0 0 1 15,15 z"
         style="display:inline;fill:#000000;fill-opacity:0.90410958;stroke:none;stroke-width:11.28181934;stroke-linecap:round;stroke-linejoin:round;stroke-miterlimit:4;stroke-dasharray:none;stroke-dashoffset:0;stroke-opacity:1" />
      <path
         sodipodi:nodetypes="csc"
         inkscape:connector-curvature="0"
         id="path1441"
         d="m 95.757812,247.56055 c 6.989628,14.31985 28.490078,24.75195 53.939458,24.75195 25.4493,0 46.94781,-10.43217 53.9375,-24.75195"
         style="fill:none;fill-opacity:0.90410958;fill-rule:nonzero;stroke:#000000;stroke-width:5;stroke-linecap:round;stroke-linejoin:round;stroke-miterlimit:4;stroke-dasharray:none;stroke-dashoffset:0;stroke-opacity:1" />
    </g>
  </g>
  <g
     inkscape:groupmode="layer"
     id="g1462"
     inkscape:label="Indifferent"
     style="display:inline"
     sodipodi:insensitive="true">
    <g
       transform="matrix(1.003641,0,0,0.54376592,-0.54613943,116.79652)"
       style="display:inline"
       id="g1452" />
    <g
       id="g1460">
      <path
         style="display:inline;fill:#000000;fill-opacity:0.90410958;stroke:none;stroke-width:11.28181934;stroke-linecap:round;stroke-linejoin:round;stroke-miterlimit:4;stroke-dasharray:none;stroke-dashoffset:0;stroke-opacity:1"
         d="m 234.53418,901.67236 a 15,15 0 0 1 -15,15 15,15 0 0 1 -15,-15 15,15 0 0 1 15,-15 15,15 0 0 1 15,15 z"
         id="path1454"
         inkscape:connector-curvature="0"
         transform="translate(0,-752.36216)" />
      <path
         style="display:inline;fill:#000000;fill-opacity:0.90410958;stroke:none;stroke-width:11.28181934;stroke-linecap:round;stroke-linejoin:round;stroke-miterlimit:4;stroke-dasharray:none;stroke-dashoffset:0;stroke-opacity:1"
         d="m 94.248413,901.67236 a 15,15 0 0 1 -15,15 15,15 0 0 1 -15,-15 15,15 0 0 1 15,-15 15,15 0 0 1 15,15 z"
         id="path1456"
         inkscape:connector-curvature="0"
         transform="translate(0,-752.36216)" />
    </g>
    <path
       style="fill:none;stroke:#000000;stroke-width:3.96627402;stroke-linecap:round;stroke-linejoin:miter;stroke-miterlimit:4;stroke-dasharray:none;stroke-opacity:1"
       d="m 115.75555,259.9045 v 0 h 67.88191"
       id="path1464"
       inkscape:connector-curvature="0" />
  </g>
  <g
     style="display:inline"
     inkscape:label="NonAmused"
     id="g1476"
     inkscape:groupmode="layer"
     sodipodi:insensitive="true">
    <g
       id="g1466"
       style="display:inline"
       transform="matrix(1.003641,0,0,0.54376592,-0.54613943,116.79652)" />
    <g
       id="g1472">
      <path
         transform="translate(0,-752.36216)"
         inkscape:connector-curvature="0"
         id="path1468"
         d="m 234.53418,901.67236 a 15,15 0 0 1 -15,15 15,15 0 0 1 -15,-15 15,15 0 0 1 15,-15 15,15 0 0 1 15,15 z"
         style="display:inline;fill:#000000;fill-opacity:0.90410958;stroke:none;stroke-width:11.28181934;stroke-linecap:round;stroke-linejoin:round;stroke-miterlimit:4;stroke-dasharray:none;stroke-dashoffset:0;stroke-opacity:1" />
      <g
         id="g1484">
        <path
           inkscape:connector-curvature="0"
           id="path1478"
           d="M 98.863121,149.3102 A 19.614708,18.77567 0 0 1 79.248413,168.08587 19.614708,18.77567 0 0 1 59.633705,149.3102 19.614708,18.77567 0 0 1 79.248413,130.53453 19.614708,18.77567 0 0 1 98.863121,149.3102 Z"
           style="display:inline;fill:#ffffff;fill-opacity:0.90410958;stroke:none;stroke-width:14.43366146;stroke-linecap:round;stroke-linejoin:round;stroke-miterlimit:4;stroke-dasharray:none;stroke-dashoffset:0;stroke-opacity:1" />
        <path
           style="display:inline;fill:#000000;fill-opacity:0.90410958;stroke:none;stroke-width:7.17994118;stroke-linecap:round;stroke-linejoin:round;stroke-miterlimit:4;stroke-dasharray:none;stroke-dashoffset:0;stroke-opacity:1"
           d="m 88.794667,149.3102 a 9.5462545,9.5462545 0 0 1 -9.546254,9.54625 9.5462545,9.5462545 0 0 1 -9.546254,-9.54625 9.5462545,9.5462545 0 0 1 9.546254,-9.54625 9.5462545,9.5462545 0 0 1 9.546254,9.54625 z"
           id="path1470"
           inkscape:connector-curvature="0" />
      </g>
      <path
         style="display:inline;fill:#000000;fill-opacity:0.90410958;stroke:none;stroke-width:11.28181934;stroke-linecap:round;stroke-linejoin:round;stroke-miterlimit:4;stroke-dasharray:none;stroke-dashoffset:0;stroke-opacity:1"
         d="m 234.53418,901.67236 a 15,15 0 0 1 -15,15 15,15 0 0 1 -15,-15 15,15 0 0 1 15,-15 15,15 0 0 1 15,15 z"
         id="path1480"
         inkscape:connector-curvature="0"
         transform="translate(0,-752.36216)" />
      <g
         id="g1490"
         transform="translate(140.28577)">
        <path
           style="display:inline;fill:#ffffff;fill-opacity:0.90410958;stroke:none;stroke-width:14.43366146;stroke-linecap:round;stroke-linejoin:round;stroke-miterlimit:4;stroke-dasharray:none;stroke-dashoffset:0;stroke-opacity:1"
           d="M 98.863121,149.3102 A 19.614708,18.77567 0 0 1 79.248413,168.08587 19.614708,18.77567 0 0 1 59.633705,149.3102 19.614708,18.77567 0 0 1 79.248413,130.53453 19.614708,18.77567 0 0 1 98.863121,149.3102 Z"
           id="path1486"
           inkscape:connector-curvature="0" />
        <path
           inkscape:connector-curvature="0"
           id="path1488"
           d="m 88.794667,149.3102 a 9.5462545,9.5462545 0 0 1 -9.546254,9.54625 9.5462545,9.5462545 0 0 1 -9.546254,-9.54625 9.5462545,9.5462545 0 0 1 9.546254,-9.54625 9.5462545,9.5462545 0 0 1 9.546254,9.54625 z"
           style="display:inline;fill:#000000;fill-opacity:0.90410958;stroke:none;stroke-width:7.17994118;stroke-linecap:round;stroke-linejoin:round;stroke-miterlimit:4;stroke-dasharray:none;stroke-dashoffset:0;stroke-opacity:1" />
      </g>
    </g>
    <path
       inkscape:connector-curvature="0"
       id="path1474"
       d="m 131.16182,259.9045 v 0 h 37.06937"
       style="fill:none;stroke:#000000;stroke-width:2.9309833;stroke-linecap:round;stroke-linejoin:miter;stroke-miterlimit:4;stroke-dasharray:none;stroke-opacity:1" />
    <circle
       style="fill:#ffaaaa;fill-opacity:0.90410958;fill-rule:nonzero;stroke:none;stroke-width:5;stroke-linecap:round;stroke-linejoin:round;stroke-miterlimit:4;stroke-dasharray:none;stroke-dashoffset:0;stroke-opacity:1"
       id="path1492"
       cx="59.571682"
       cy="191.3446"
       r="17.200274" />
    <circle
       r="17.200274"
       cy="191.3446"
       cx="238.18913"
       id="circle1494"
       style="fill:#ffaaaa;fill-opacity:0.90410958;fill-rule:nonzero;stroke:none;stroke-width:5;stroke-linecap:round;stroke-linejoin:round;stroke-miterlimit:4;stroke-dasharray:none;stroke-dashoffset:0;stroke-opacity:1" />
  </g>
  <g
     inkscape:groupmode="layer"
     id="layer5"
     inkscape:label="Smile"
     style="display:inline"
     sodipodi:insensitive="true">
    <path
       transform="translate(0,-752.36216)"
       inkscape:connector-curvature="0"
       id="path4704"
       d="m 234.53418,901.67236 a 15,15 0 0 1 -15,15 15,15 0 0 1 -15,-15 15,15 0 0 1 15,-15 15,15 0 0 1 15,15 z"
       style="display:inline;fill:#000000;fill-opacity:0.90410958;stroke:none;stroke-width:11.28181934;stroke-linecap:round;stroke-linejoin:round;stroke-miterlimit:4;stroke-dasharray:none;stroke-dashoffset:0;stroke-opacity:1" />
    <path
       transform="translate(0,-752.36216)"
       inkscape:connector-curvature="0"
       id="path4708"
       d="m 94.248413,901.67236 a 15,15 0 0 1 -15,15 15,15 0 0 1 -15,-15 15,15 0 0 1 15,-15 15,15 0 0 1 15,15 z"
       style="display:inline;fill:#000000;fill-opacity:0.90410958;stroke:none;stroke-width:11.28181934;stroke-linecap:round;stroke-linejoin:round;stroke-miterlimit:4;stroke-dasharray:none;stroke-dashoffset:0;stroke-opacity:1" />
    <g
       style="display:inline"
       id="g4722">
      <path
         inkscape:connector-curvature="0"
         id="path4718"
         d="M 79.087891,229.17383 A 74.04509,74.04509 0 0 0 150,282.10156 74.04509,74.04509 0 0 0 220.9082,229.27539 102.36262,81.194145 0 0 1 150,251.93945 102.36262,81.194145 0 0 1 79.087891,229.17383 Z"
         style="fill:#000000;fill-opacity:0.90410958;fill-rule:nonzero;stroke:#000000;stroke-width:4.47969532;stroke-linecap:round;stroke-linejoin:round;stroke-miterlimit:4;stroke-dasharray:none;stroke-dashoffset:0;stroke-opacity:1" />
      <path
         inkscape:connector-curvature="0"
         id="path4720"
         d="m 79.087891,229.17383 a 74.04509,74.04509 0 0 0 7.83789,17.40234 A 102.36262,81.194145 0 0 0 150,263.93945 102.36262,81.194145 0 0 0 213.08594,246.6543 74.04509,74.04509 0 0 0 220.9082,229.27539 102.36262,81.194145 0 0 1 150,251.93945 102.36262,81.194145 0 0 1 79.087891,229.17383 Z"
         style="fill:#ffffff;fill-opacity:0.90410958;fill-rule:nonzero;stroke:none;stroke-width:5.51550484;stroke-linecap:round;stroke-linejoin:round;stroke-miterlimit:4;stroke-dasharray:none;stroke-dashoffset:0;stroke-opacity:1" />
    </g>
  </g>
  <g
     style="display:inline"
     inkscape:label="Sad"
     id="g1607"
     inkscape:groupmode="layer"
     sodipodi:insensitive="true">
    <path
       style="display:inline;fill:#000000;fill-opacity:0.90410958;stroke:none;stroke-width:11.28181934;stroke-linecap:round;stroke-linejoin:round;stroke-miterlimit:4;stroke-dasharray:none;stroke-dashoffset:0;stroke-opacity:1"
       d="m 234.53418,901.67236 a 15,15 0 0 1 -15,15 15,15 0 0 1 -15,-15 15,15 0 0 1 15,-15 15,15 0 0 1 15,15 z"
       id="path1597"
       inkscape:connector-curvature="0"
       transform="translate(0,-752.36216)" />
    <path
       style="display:inline;fill:#000000;fill-opacity:0.90410958;stroke:none;stroke-width:11.28181934;stroke-linecap:round;stroke-linejoin:round;stroke-miterlimit:4;stroke-dasharray:none;stroke-dashoffset:0;stroke-opacity:1"
       d="m 94.248413,901.67236 a 15,15 0 0 1 -15,15 15,15 0 0 1 -15,-15 15,15 0 0 1 15,-15 15,15 0 0 1 15,15 z"
       id="path1599"
       inkscape:connector-curvature="0"
       transform="translate(0,-752.36216)" />
    <g
       id="g1605"
       style="display:inline"
       transform="matrix(1,0,0,0.70702126,0,70.433528)">
      <path
         style="fill:#000000;fill-opacity:0.90410958;fill-rule:nonzero;stroke:#000000;stroke-width:2.92887974;stroke-linecap:round;stroke-linejoin:round;stroke-miterlimit:4;stroke-dasharray:none;stroke-dashoffset:0;stroke-opacity:1"
         d="m 198.66979,273.36879 a 50.82149,46.115964 0 0 0 -48.67115,-32.96388 50.82149,46.115964 0 0 0 -48.66846,32.90064 70.257473,50.56846 0 0 1 48.66846,-14.11539 70.257473,50.56846 0 0 1 48.67115,14.17863 z"
         id="path1601"
         inkscape:connector-curvature="0" />
    </g>
  </g>
  <g
     inkscape:groupmode="layer"
     id="g1620"
     inkscape:label="Tired"
     style="display:inline">
    <g
       id="g1671">
      <g
         id="g1650">
        <path
           style="display:inline;fill:#000000;fill-opacity:0.90410958;stroke:none;stroke-width:11.28181934;stroke-linecap:round;stroke-linejoin:round;stroke-miterlimit:4;stroke-dasharray:none;stroke-dashoffset:0;stroke-opacity:1"
           d="m 64.292969,148.44141 a 15,15 0 0 0 -0.04492,0.86914 15,15 0 0 0 15,15 15,15 0 0 0 15,-15 15,15 0 0 0 -2.560547,-8.36133 15,15 0 0 1 -0.03125,0.6289 15,15 0 0 1 -0.224609,1.48243 15,15 0 0 1 -0.371094,1.45312 15,15 0 0 1 -0.513672,1.40821 15,15 0 0 1 -0.652344,1.3496 15,15 0 0 1 -0.783203,1.2793 15,15 0 0 1 -0.908203,1.19336 15,15 0 0 1 -1.021484,1.09766 15,15 0 0 1 -1.126953,0.98828 15,15 0 0 1 -1.21875,0.87304 15,15 0 0 1 -1.300782,0.7461 15,15 0 0 1 -1.36914,0.61133 15,15 0 0 1 -1.421875,0.47265 15,15 0 0 1 -1.462891,0.33008 15,15 0 0 1 -1.488281,0.17969 15,15 0 0 1 -1.0625,0.0371 15,15 0 0 1 -1.496094,-0.0742 15,15 0 0 1 -1.482422,-0.22461 15,15 0 0 1 -1.453125,-0.37109 15,15 0 0 1 -1.408203,-0.51368 15,15 0 0 1 -1.351563,-0.65234 15,15 0 0 1 -1.277343,-0.7832 15,15 0 0 1 -1.19336,-0.90821 15,15 0 0 1 -1.097656,-1.02148 15,15 0 0 1 -0.990234,-1.12695 15,15 0 0 1 -0.6875,-0.96289 z"
           id="path1625"
           inkscape:connector-curvature="0" />
        <path
           transform="translate(0,-752.36216)"
           d="m 78.390003,861.38715 a 28.525383,28.525383 0 0 1 -9.093395,20.88289 28.525383,28.525383 0 0 1 -21.482553,7.56869"
           sodipodi:open="true"
           sodipodi:end="1.642744"
           sodipodi:start="0"
           sodipodi:ry="28.525383"
           sodipodi:rx="28.525383"
           sodipodi:cy="861.38715"
           sodipodi:cx="49.86462"
           sodipodi:type="arc"
           id="path1629"
           style="display:inline;fill:none;fill-opacity:0.90410958;stroke:#000000;stroke-width:4;stroke-linecap:round;stroke-linejoin:round;stroke-miterlimit:4;stroke-dasharray:none;stroke-dashoffset:0;stroke-opacity:1" />
      </g>
      <g
         id="g1658">
        <path
           id="path1627"
           d="m 234.48926,148.44106 a 15,15 0 0 1 0.0449,0.86914 15,15 0 0 1 -15,15 15,15 0 0 1 -15,-15 15,15 0 0 1 2.56055,-8.36133 15,15 0 0 0 0.0312,0.6289 15,15 0 0 0 0.22461,1.48243 15,15 0 0 0 0.37109,1.45312 15,15 0 0 0 0.51367,1.40821 15,15 0 0 0 0.65235,1.3496 15,15 0 0 0 0.7832,1.2793 15,15 0 0 0 0.9082,1.19336 15,15 0 0 0 1.02149,1.09766 15,15 0 0 0 1.12695,0.98828 15,15 0 0 0 1.21875,0.87304 15,15 0 0 0 1.30078,0.7461 15,15 0 0 0 1.36914,0.61133 15,15 0 0 0 1.42188,0.47265 15,15 0 0 0 1.46289,0.33008 15,15 0 0 0 1.48828,0.17969 15,15 0 0 0 1.0625,0.0371 15,15 0 0 0 1.49609,-0.0742 15,15 0 0 0 1.48242,-0.22461 15,15 0 0 0 1.45313,-0.37109 15,15 0 0 0 1.4082,-0.51368 15,15 0 0 0 1.35156,-0.65234 15,15 0 0 0 1.27735,-0.7832 15,15 0 0 0 1.19336,-0.90821 15,15 0 0 0 1.09765,-1.02148 15,15 0 0 0 0.99024,-1.12695 15,15 0 0 0 0.6875,-0.96289 z"
           style="display:inline;fill:#000000;fill-opacity:0.90410958;stroke:none;stroke-width:11.28181934;stroke-linecap:round;stroke-linejoin:round;stroke-miterlimit:4;stroke-dasharray:none;stroke-dashoffset:0;stroke-opacity:1"
           inkscape:connector-curvature="0" />
        <g
           id="g1653">
          <path
             d="m -221.78613,861.38715 a 28.525383,28.525383 0 0 1 -9.09339,20.88289 28.525383,28.525383 0 0 1 -21.48255,7.56869"
             sodipodi:open="true"
             sodipodi:end="1.642744"
             sodipodi:start="0"
             sodipodi:ry="28.525383"
             sodipodi:rx="28.525383"
             sodipodi:cy="861.38715"
             sodipodi:cx="-250.31151"
             sodipodi:type="arc"
             id="path1632"
             style="display:inline;fill:none;fill-opacity:0.90410958;stroke:#000000;stroke-width:4;stroke-linecap:round;stroke-linejoin:round;stroke-miterlimit:4;stroke-dasharray:none;stroke-dashoffset:0;stroke-opacity:1"
             transform="matrix(-1,0,0,1,0,-752.36216)" />
        </g>
      </g>
      <g
         id="g1646">
        <g
           transform="matrix(1,0,0,0.96337766,0,8.8041908)"
           style="display:inline;stroke-width:5.09415007;stroke-miterlimit:4;stroke-dasharray:none"
           id="g1618">
          <path
             inkscape:connector-curvature="0"
             id="path1616"
             d="m 198.66979,273.36879 a 50.82149,46.115964 0 0 0 -48.67115,-32.96388 50.82149,46.115964 0 0 0 -48.66846,32.90064 70.257473,50.56846 0 0 1 48.66846,-14.11539 70.257473,50.56846 0 0 1 48.67115,14.17863 z"
             style="fill:#000000;fill-opacity:0.90410958;fill-rule:nonzero;stroke:#000000;stroke-width:5.09415007;stroke-linecap:round;stroke-linejoin:round;stroke-miterlimit:4;stroke-dasharray:none;stroke-dashoffset:0;stroke-opacity:1" />
        </g>
        <path
           style="fill:#ffffff;fill-opacity:1;fill-rule:nonzero;stroke:none;stroke-width:5;stroke-linecap:round;stroke-linejoin:round;stroke-miterlimit:4;stroke-dasharray:none;stroke-dashoffset:0;stroke-opacity:1"
           d="m 149.99805,240.4043 a 50.82149,44.427089 0 0 0 -33.3125,10.93164 h 66.57422 A 50.82149,44.427089 0 0 0 149.99805,240.4043 Z"
           id="rect1635"
           inkscape:connector-curvature="0" />
      </g>
    </g>
  </g>
  <g
     inkscape:groupmode="layer"
     id="layer4"
     inkscape:label="Concerned"
     style="display:inline"
     sodipodi:insensitive="true">
    <g
       transform="translate(0,-752.36216)"
       id="g4577">
      <path
         style="fill:#000000;fill-opacity:0.90410958;stroke:none;stroke-width:11.28181934;stroke-linecap:round;stroke-linejoin:round;stroke-miterlimit:4;stroke-dasharray:none;stroke-dashoffset:0;stroke-opacity:1"
         d="m 94.248413,901.67236 a 15,15 0 0 1 -15,15 15,15 0 0 1 -15,-15 15,15 0 0 1 15,-15 15,15 0 0 1 15,15 z"
         id="path1046"
         inkscape:connector-curvature="0" />
      <path
         style="fill:#000000;fill-opacity:0.90410958;stroke:none;stroke-width:11.28181934;stroke-linecap:round;stroke-linejoin:round;stroke-miterlimit:4;stroke-dasharray:none;stroke-dashoffset:0;stroke-opacity:1"
         d="m 234.53418,901.67236 a 15,15 0 0 1 -15,15 15,15 0 0 1 -15,-15 15,15 0 0 1 15,-15 15,15 0 0 1 15,15 z"
         id="circle1048"
         inkscape:connector-curvature="0" />
      <path
         style="fill:none;fill-opacity:0.90410958;stroke:#000000;stroke-width:4;stroke-linecap:round;stroke-linejoin:round;stroke-miterlimit:4;stroke-dasharray:none;stroke-dashoffset:0;stroke-opacity:1"
         id="path1066"
         sodipodi:type="arc"
         sodipodi:cx="49.86462"
         sodipodi:cy="861.38715"
         sodipodi:rx="28.525383"
         sodipodi:ry="28.525383"
         sodipodi:start="0"
         sodipodi:end="1.642744"
         sodipodi:open="true"
         d="m 78.390003,861.38715 a 28.525383,28.525383 0 0 1 -9.093395,20.88289 28.525383,28.525383 0 0 1 -21.482553,7.56869" />
      <path
         d="m -221.78613,861.38715 a 28.525383,28.525383 0 0 1 -9.09339,20.88289 28.525383,28.525383 0 0 1 -21.48255,7.56869"
         sodipodi:open="true"
         sodipodi:end="1.642744"
         sodipodi:start="0"
         sodipodi:ry="28.525383"
         sodipodi:rx="28.525383"
         sodipodi:cy="861.38715"
         sodipodi:cx="-250.31151"
         sodipodi:type="arc"
         id="path1068"
         style="fill:none;fill-opacity:0.90410958;stroke:#000000;stroke-width:4;stroke-linecap:round;stroke-linejoin:round;stroke-miterlimit:4;stroke-dasharray:none;stroke-dashoffset:0;stroke-opacity:1"
         transform="scale(-1,1)" />
      <path
         sodipodi:nodetypes="sssss"
         inkscape:connector-curvature="0"
         id="path4569"
         d="m 62.927834,943.70677 c 2e-6,6.95082 -5.634749,12.58557 -12.585567,12.58557 -6.950818,0 -12.58557,-5.63475 -12.585568,-12.58557 -2e-6,-6.95082 5.63475,-24.75162 12.585568,-24.75162 6.950818,0 12.585569,17.8008 12.585567,24.75162 z"
         style="fill:#00ffff;fill-opacity:1;fill-rule:nonzero;stroke:none;stroke-width:5;stroke-linecap:round;stroke-linejoin:round;stroke-miterlimit:4;stroke-dasharray:none;stroke-dashoffset:0;stroke-opacity:1" />
    </g>
  </g>
  <g
     style="display:inline"
     inkscape:label="Sob"
     id="g1510"
     inkscape:groupmode="layer"
     sodipodi:insensitive="true">
    <g
       id="g1583">
      <g
         id="g1565"
         style="display:inline">
        <g
           id="g1508"
           transform="translate(0,-752.36216)"
           style="stroke:#000000;stroke-width:5;stroke-miterlimit:4;stroke-dasharray:none">
          <circle
             style="fill:#000000;fill-opacity:0.90410958;fill-rule:nonzero;stroke:#000000;stroke-width:5;stroke-linecap:round;stroke-linejoin:round;stroke-miterlimit:4;stroke-dasharray:none;stroke-dashoffset:0;stroke-opacity:1"
             id="path1516"
             cx="149.6965"
             cy="1017.3177"
             r="18.458832" />
        </g>
        <g
           transform="translate(0,-752.36216)"
           id="g1524">
          <path
             style="fill:#ffffff;fill-opacity:0.90410958;fill-rule:nonzero;stroke:none;stroke-width:7.0710001;stroke-linecap:round;stroke-linejoin:round;stroke-miterlimit:4;stroke-dasharray:none;stroke-dashoffset:0;stroke-opacity:1"
             d="m 149.69727,246.49609 a 18.458832,18.458832 0 0 0 -16.64649,10.53516 c 0.3414,0.10488 0.69754,0.17773 1.07422,0.17773 h 32.30273 a 18.458832,18.458832 0 0 0 -16.73046,-10.71289 z"
             transform="translate(0,752.36216)"
             id="circle1520"
             inkscape:connector-curvature="0" />
        </g>
      </g>
      <g
         id="g1554">
        <path
           style="display:inline;fill:none;stroke:#000000;stroke-width:6.17396307;stroke-linecap:round;stroke-linejoin:miter;stroke-miterlimit:4;stroke-dasharray:none;stroke-opacity:1"
           d="M 67.813069,149.3102 H 90.683757"
           id="path1512"
           inkscape:connector-curvature="0" />
        <path
           style="fill:#afafe9;fill-opacity:1;fill-rule:nonzero;stroke:none;stroke-width:5;stroke-linecap:round;stroke-linejoin:round;stroke-miterlimit:4;stroke-dasharray:none;stroke-dashoffset:0;stroke-opacity:1"
           d="m 71.466797,149.31055 c -2.024554,0 -3.654297,1.62974 -3.654297,3.65429 v 106.95508 c 6.777508,6.50923 14.265012,12.13357 22.384766,16.75781 V 152.96484 c 0,-2.02455 -1.629743,-3.65429 -3.654297,-3.65429 z"
           id="rect1527"
           inkscape:connector-curvature="0" />
      </g>
      <g
         id="g1559">
        <path
           inkscape:connector-curvature="0"
           id="path1514"
           d="m 208.09884,149.3102 h 22.87068"
           style="display:inline;fill:none;stroke:#000000;stroke-width:6.17396307;stroke-linecap:round;stroke-linejoin:miter;stroke-miterlimit:4;stroke-dasharray:none;stroke-opacity:1" />
        <path
           style="fill:#afafe9;fill-opacity:1;fill-rule:nonzero;stroke:none;stroke-width:5.67132807;stroke-linecap:round;stroke-linejoin:round;stroke-miterlimit:4;stroke-dasharray:none;stroke-dashoffset:0;stroke-opacity:1"
           d="m 211.99609,149.31055 c -2.02455,0 -3.65429,2.09647 -3.65429,4.70117 v 123.08594 c 8.14459,-4.40116 15.62162,-9.73695 22.38476,-15.90235 V 154.01172 c 0,-2.6047 -1.62974,-4.70117 -3.65429,-4.70117 z"
           id="path1546"
           inkscape:connector-curvature="0" />
      </g>
    </g>
  </g>
  <g
     style="display:inline"
     inkscape:label="Happy"
     id="g4615"
     inkscape:groupmode="layer"
     sodipodi:insensitive="true">
    <g
       id="g4652">
      <path
         style="fill:none;fill-opacity:0.90410958;stroke:#000000;stroke-width:8.19863415;stroke-linecap:round;stroke-linejoin:round;stroke-miterlimit:4;stroke-dasharray:none;stroke-dashoffset:0;stroke-opacity:1"
         d="m 68.34773,149.3102 c -10e-7,-6.02028 4.880401,-10.90068 10.900683,-10.90068 6.020282,0 10.900684,4.8804 10.900683,10.90068"
         id="path4617"
         inkscape:connector-curvature="0"
         sodipodi:nodetypes="csc" />
      <path
         sodipodi:nodetypes="csc"
         inkscape:connector-curvature="0"
         id="path4621"
         d="m 208.63349,149.3102 c 0,-6.02028 4.88042,-10.90068 10.90069,-10.90068 6.02028,0 10.90068,4.8804 10.90068,10.90068"
         style="fill:none;fill-opacity:0.90410958;stroke:#000000;stroke-width:8.19863415;stroke-linecap:round;stroke-linejoin:round;stroke-miterlimit:4;stroke-dasharray:none;stroke-dashoffset:0;stroke-opacity:1" />
      <g
         id="g4645">
        <path
           style="fill:#000000;fill-opacity:0.90410958;fill-rule:nonzero;stroke:#000000;stroke-width:4.47969532;stroke-linecap:round;stroke-linejoin:round;stroke-miterlimit:4;stroke-dasharray:none;stroke-dashoffset:0;stroke-opacity:1"
           d="M 79.087891,229.17383 A 74.04509,74.04509 0 0 0 150,282.10156 74.04509,74.04509 0 0 0 220.9082,229.27539 102.36262,81.194145 0 0 1 150,251.93945 102.36262,81.194145 0 0 1 79.087891,229.17383 Z"
           id="path4630"
           inkscape:connector-curvature="0" />
        <path
           style="fill:#ffffff;fill-opacity:0.90410958;fill-rule:nonzero;stroke:none;stroke-width:5.51550484;stroke-linecap:round;stroke-linejoin:round;stroke-miterlimit:4;stroke-dasharray:none;stroke-dashoffset:0;stroke-opacity:1"
           d="m 79.087891,229.17383 a 74.04509,74.04509 0 0 0 7.83789,17.40234 A 102.36262,81.194145 0 0 0 150,263.93945 102.36262,81.194145 0 0 0 213.08594,246.6543 74.04509,74.04509 0 0 0 220.9082,229.27539 102.36262,81.194145 0 0 1 150,251.93945 102.36262,81.194145 0 0 1 79.087891,229.17383 Z"
           id="ellipse4636"
           inkscape:connector-curvature="0" />
      </g>
    </g>
  </g>
  <g
     inkscape:groupmode="layer"
     id="layer3"
     inkscape:label="Shades"
     style="display:inline"
     transform="translate(0,-752.36216)"
     sodipodi:insensitive="true">
    <g
       transform="matrix(1.5734884,0,0,1.5734884,-223.78061,-354.40814)"
       id="layer1-8">
      <g
         id="g4372">
        <path
           sodipodi:nodetypes="cccccssscsscsssccccccsssscc"
           inkscape:connector-curvature="0"
           id="path4689"
           d="m 175.58026,764.63545 c -5.54684,-0.0595 -11.38885,0.15472 -19.43164,1.81641 l -12.20313,2.35937 1.9668,12.81641 c 1.78451,0.25007 4.24739,0.86604 5.41406,2.42773 3.00637,4.0243 1.02387,7.91461 1.70703,15.02149 2.27601,23.6772 10.1596,28.63254 22.36914,30.05664 6.39388,0.74577 19.44548,1.94528 28.36328,-1.2207 8.05947,-2.86125 15.53138,-8.41073 20.58985,-15.30664 5.34742,-7.28984 5.92198,-15.54177 9.24125,-21.92565 2.35233,-4.52418 6.56262,-3.55929 7.89063,0 2.51525,6.74129 3.73164,14.63581 9.07906,21.92565 5.05844,6.89591 12.53037,12.44539 20.58984,15.30664 8.9178,3.16598 21.9694,1.96647 28.36328,1.2207 12.20955,-1.4241 20.09508,-6.37944 22.37109,-30.05664 0.68316,-7.10688 -1.29933,-10.99719 1.70703,-15.02149 1.20511,-1.61315 3.80417,-2.22555 5.59766,-2.45898 l 1.95703,-12.75195 -12.37695,-2.39258 c -12.86847,-2.6587 -20.10562,-1.61027 -29.50781,-1.66797 -3.48845,-0.0214 -7.48048,0.0976 -11.19532,0.48828 -6.92544,0.72827 -13.78649,2.02979 -20.60351,3.45117 -6.80741,1.41938 -12.73274,5.19953 -19.68524,5.06446 -6.70646,-0.13029 -13.30888,-4.24134 -19.86945,-5.63868 -6.93041,-1.47611 -12.63435,-2.64733 -21.0625,-2.87695 -4.08528,-0.1113 -7.70687,-0.5097 -11.19531,-0.48828 -3.52582,0.0216 -6.74807,-0.11272 -10.07617,-0.14844 z"
           style="fill:#000000;fill-opacity:1;stroke:none;stroke-width:8;stroke-linecap:square;stroke-linejoin:round;stroke-miterlimit:4;stroke-dasharray:none;stroke-opacity:1" />
        <path
           sodipodi:nodetypes="ccsscacc"
           inkscape:connector-curvature="0"
           style="fill:#333333;fill-opacity:1;stroke:none;stroke-width:8;stroke-linecap:square;stroke-linejoin:round;stroke-miterlimit:4;stroke-dasharray:none;stroke-opacity:1"
           d="m 182.38959,769.63252 c -8.5978,0.14254 -21.1424,0.60165 -24.27344,10.4414 -2.7918,12.99576 -2.6597,27.92062 4.88867,38.88672 6.30362,9.15775 19.91341,7.36076 30.04899,7.00531 16.1072,-0.56488 29.94768,-13.11023 34.2264,-28.45648 1.64415,-6.60778 3.55218,-11.87093 0.59318,-16.51875 -5.06779,-7.96017 -17.13012,-10.03833 -26.06312,-11.05148 -6.40746,-0.26097 -12.95073,-0.37751 -19.42068,-0.30672 z"
           id="path4694" />
        <path
           inkscape:connector-curvature="0"
           style="fill:#b3b3b3;fill-opacity:1;stroke:none;stroke-width:8;stroke-linecap:square;stroke-linejoin:round;stroke-miterlimit:4;stroke-dasharray:none;stroke-opacity:1"
           id="path4707"
           d="m 157.46945,772.89466 a 3.4764421,1.4421878 0 0 1 -3.45866,1.44217 3.4764421,1.4421878 0 0 1 -3.49404,-1.42742 3.4764421,1.4421878 0 0 1 3.42293,-1.45677 3.4764421,1.4421878 0 0 1 3.52905,1.41252" />
        <path
           sodipodi:nodetypes="ccsscacc"
           inkscape:connector-curvature="0"
           id="path4810"
           d="m 292.5339,769.63252 c 8.5978,0.14254 21.1424,0.60165 24.27344,10.4414 2.7918,12.99576 2.6597,27.92062 -4.88867,38.88672 -6.30362,9.15775 -19.91341,7.36076 -30.04899,7.00531 -16.1072,-0.56488 -29.94768,-13.11023 -34.2264,-28.45648 -1.64415,-6.60778 -3.55218,-11.87093 -0.59318,-16.51875 5.06779,-7.96017 17.13012,-10.03833 26.06312,-11.05148 6.40746,-0.26097 12.95073,-0.37751 19.42068,-0.30672 z"
           style="fill:#333333;fill-opacity:1;stroke:none;stroke-width:8;stroke-linecap:square;stroke-linejoin:round;stroke-miterlimit:4;stroke-dasharray:none;stroke-opacity:1" />
        <path
           inkscape:connector-curvature="0"
           d="m 317.45403,772.89466 a 3.4764421,1.4421878 0 0 0 3.45867,1.44217 3.4764421,1.4421878 0 0 0 3.49404,-1.42742 3.4764421,1.4421878 0 0 0 -3.42293,-1.45677 3.4764421,1.4421878 0 0 0 -3.52905,1.41252"
           id="path4812"
           style="fill:#b3b3b3;fill-opacity:1;stroke:none;stroke-width:8;stroke-linecap:square;stroke-linejoin:round;stroke-miterlimit:4;stroke-dasharray:none;stroke-opacity:1" />
        <path
           sodipodi:nodetypes="ccccc"
           inkscape:connector-curvature="0"
           id="rect4338"
           transform="translate(143.51971,764.62764)"
           d="M 52.107422,5.1132812 35.755859,61.623047 c 4.985062,0.135233 9.950253,-0.03828 14.398438,-0.322266 L 65.994141,6.5664062 C 61.265599,5.4044907 56.591962,5.2279851 52.107422,5.1132812 Z"
           style="fill:#ffffff;fill-opacity:1;stroke:none;stroke-width:6;stroke-linecap:round;stroke-linejoin:round;stroke-miterlimit:4;stroke-dasharray:none;stroke-opacity:1" />
        <path
           inkscape:connector-curvature="0"
           id="rect4348"
           transform="translate(143.51971,764.62764)"
           d="m 42.171875,4.9921875 c -1.101666,0.00143 -2.204272,-2.999e-4 -3.302734,0.011719 -0.921466,0.015277 -1.904704,0.042464 -2.900391,0.076172 L 20.916016,56.091797 c 1.473427,1.556973 3.213181,2.703102 5.134765,3.535156 z"
           style="fill:#ffffff;fill-opacity:1;stroke:none;stroke-width:6;stroke-linecap:round;stroke-linejoin:round;stroke-miterlimit:4;stroke-dasharray:none;stroke-opacity:1" />
      </g>
    </g>
  </g>
  <g
     inkscape:groupmode="layer"
     id="g4666"
     inkscape:label="SweatSmile"
     style="display:inline"
     sodipodi:insensitive="true">
    <g
       id="g4664">
      <path
         style="fill:none;fill-opacity:0.90410958;stroke:#000000;stroke-width:8.19863415;stroke-linecap:round;stroke-linejoin:round;stroke-miterlimit:4;stroke-dasharray:none;stroke-dashoffset:0;stroke-opacity:1"
         d="m 208.63349,149.3102 c 0,-6.02028 4.88042,-10.90068 10.90069,-10.90068 6.02028,0 10.90068,4.8804 10.90068,10.90068"
         id="path4656"
         inkscape:connector-curvature="0"
         sodipodi:nodetypes="csc" />
      <g
         id="g4662">
        <path
           inkscape:connector-curvature="0"
           id="path4658"
           d="M 79.087891,229.17383 A 74.04509,74.04509 0 0 0 150,282.10156 74.04509,74.04509 0 0 0 220.9082,229.27539 102.36262,81.194145 0 0 1 150,251.93945 102.36262,81.194145 0 0 1 79.087891,229.17383 Z"
           style="fill:#000000;fill-opacity:0.90410958;fill-rule:nonzero;stroke:#000000;stroke-width:4.47969532;stroke-linecap:round;stroke-linejoin:round;stroke-miterlimit:4;stroke-dasharray:none;stroke-dashoffset:0;stroke-opacity:1" />
        <path
           inkscape:connector-curvature="0"
           id="path4660"
           d="m 79.087891,229.17383 a 74.04509,74.04509 0 0 0 7.83789,17.40234 A 102.36262,81.194145 0 0 0 150,263.93945 102.36262,81.194145 0 0 0 213.08594,246.6543 74.04509,74.04509 0 0 0 220.9082,229.27539 102.36262,81.194145 0 0 1 150,251.93945 102.36262,81.194145 0 0 1 79.087891,229.17383 Z"
           style="fill:#ffffff;fill-opacity:0.90410958;fill-rule:nonzero;stroke:none;stroke-width:5.51550484;stroke-linecap:round;stroke-linejoin:round;stroke-miterlimit:4;stroke-dasharray:none;stroke-dashoffset:0;stroke-opacity:1" />
      </g>
    </g>
    <path
       style="display:inline;fill:#00ffff;fill-opacity:1;fill-rule:nonzero;stroke:none;stroke-width:5;stroke-linecap:round;stroke-linejoin:round;stroke-miterlimit:4;stroke-dasharray:none;stroke-dashoffset:0;stroke-opacity:1"
       d="m 251.29182,107.86035 c 0,6.95082 -5.63475,12.58557 -12.58557,12.58557 -6.95081,0 -12.58557,-5.63475 -12.58556,-12.58557 -1e-5,-6.95082 5.63475,-24.75162 12.58556,-24.75162 6.95082,0 12.58557,17.8008 12.58557,24.75162 z"
       id="path4668"
       inkscape:connector-curvature="0"
       sodipodi:nodetypes="sssss" />
    <path
       sodipodi:nodetypes="csc"
       inkscape:connector-curvature="0"
       id="path4715"
       d="m 68.34773,149.3102 c -10e-7,-6.02028 4.880401,-10.90068 10.900683,-10.90068 6.020282,0 10.900684,4.8804 10.900683,10.90068"
       style="display:inline;fill:none;fill-opacity:0.90410958;stroke:#000000;stroke-width:8.19863415;stroke-linecap:round;stroke-linejoin:round;stroke-miterlimit:4;stroke-dasharray:none;stroke-dashoffset:0;stroke-opacity:1" />
  </g>
</svg>
