<svg xmlns="http://www.w3.org/2000/svg" height="300" width="300">
  <path d="M274 149c0 82-48 143-126 143-73 0-122-61-122-143S76 34 148 34c71 0 126 33 126 115z" fill="#803300"/>
  <path d="M233 235c0 27-38 52-85 52-46 0-81-25-81-52s35-44 82-44c46 0 84 17 84 44z" fill="#e9c6af"/>
  <path d="M192 200c0 10-26 33-41 33s-43-23-43-33 27-17 42-17 42 7 42 17z"/>
  <ellipse cx="40.4" cy="60.3" rx="31.9" ry="31" fill="#803300"/>
  <path d="M63 58a22 22 0 00-23-19 22 22 0 00-22 21 22 22 0 0022 22 22 22 0 002 0l3-6a88 88 0 0115-15l3-3z" fill="#e9c6af"/>
  <ellipse ry="31" rx="31.9" cy="60.3" cx="-259" transform="scale(-1 1)" fill="#803300"/>
  <path d="M237 58a22 22 0 0122-19 22 22 0 0122 21 22 22 0 01-22 22 22 22 0 01-2 0l-3-6a88 88 0 00-14-15l-3-3z" fill="#e9c6af"/>
  <path d="M147 44c-18 0-35 1-51 4v15a267 267 0 01108 2V49c-18-3-37-5-57-5z" fill="red"/>
  <path d="M170 45a21 10 0 016 7 21 10 0 01-7 8c12 1 24 2 35 5V49l-34-4z" fill="#e50000"/>
  <path d="M147 8C89 8 46 35 36 94c16-14 37-25 60-30 0 0-3-17 14-22 20-5 25-5 37-5 14 0 21 0 41 5 19 5 16 23 16 23 23 6 43 15 60 29-10-62-57-86-117-86z" fill="#1a1a1a"/>
  <path d="M235 149a15 15 0 01-15 15 15 15 0 01-15-15 15 15 0 0115-15 15 15 0 0115 15zM94 149a15 15 0 01-15 15 15 15 0 01-15-15 15 15 0 0115-15 15 15 0 0115 15z" fill-opacity=".9"/>
  <path d="M96 248c7 14 28 24 54 24 25 0 47-10 54-24" fill="none" stroke="#000" stroke-width="5" stroke-linecap="round" stroke-linejoin="round"/>
  <g fill-opacity=".9">
    <path d="M235 149a15 15 0 01-15 15 15 15 0 01-15-15 15 15 0 0115-15 15 15 0 0115 15zM94 149a15 15 0 01-15 15 15 15 0 01-15-15 15 15 0 0115-15 15 15 0 0115 15z"/>
  </g>
  <path d="M116 260v0h68" fill="none" stroke="#000" stroke-width="4" stroke-linecap="round"/>
  <g fill-opacity=".9">
    <path d="M235 149a15 15 0 01-15 15 15 15 0 01-15-15 15 15 0 0115-15 15 15 0 0115 15z"/>
    <path d="M99 149a20 19 0 01-20 19 20 19 0 01-19-19 20 19 0 0119-18 20 19 0 0120 18z" fill="#fff"/>
    <path d="M89 149a10 10 0 01-10 10 10 10 0 01-9-10 10 10 0 019-9 10 10 0 0110 9zM235 149a15 15 0 01-15 15 15 15 0 01-15-15 15 15 0 0115-15 15 15 0 0115 15z"/>
    <g>
      <path d="M239 149a20 19 0 01-19 19 20 19 0 01-20-19 20 19 0 0120-18 20 19 0 0119 18z" fill="#fff"/>
      <path d="M229 149a10 10 0 01-9 10 10 10 0 01-10-10 10 10 0 0110-9 10 10 0 019 9z"/>
    </g>
  </g>
  <path d="M131 260v0h37" fill="none" stroke="#000" stroke-width="2.9" stroke-linecap="round"/>
  <circle cx="59.6" cy="191.3" r="17.2" fill="#faa" fill-opacity=".9"/>
  <circle r="17.2" cy="191.3" cx="238.2" fill="#faa" fill-opacity=".9"/>
  <g fill-opacity=".9">
    <path d="M235 149a15 15 0 01-15 15 15 15 0 01-15-15 15 15 0 0115-15 15 15 0 0115 15zM94 149a15 15 0 01-15 15 15 15 0 01-15-15 15 15 0 0115-15 15 15 0 0115 15z"/>
    <path d="M79 229a74 74 0 0071 53 74 74 0 0071-53 102 81 0 01-71 23 102 81 0 01-71-23z" stroke="#000" stroke-width="4.5" stroke-linecap="round" stroke-linejoin="round"/>
    <path d="M79 229a74 74 0 008 18 102 81 0 0063 17 102 81 0 0063-17 74 74 0 008-18 102 81 0 01-71 23 102 81 0 01-71-23z" fill="#fff"/>
  </g>
  <g>
    <path d="M235 149a15 15 0 01-15 15 15 15 0 01-15-15 15 15 0 0115-15 15 15 0 0115 15zM94 149a15 15 0 01-15 15 15 15 0 01-15-15 15 15 0 0115-15 15 15 0 0115 15z" fill-opacity=".9"/>
    <path d="M199 273a51 46 0 00-49-33 51 46 0 00-49 33 70 51 0 0149-14 70 51 0 0149 14z" fill-opacity=".9" stroke="#000" stroke-width="2.9" stroke-linecap="round" stroke-linejoin="round" transform="matrix(1 0 0 .70702 0 70)"/>
  </g>
  <g>
    <path d="M64 148a15 15 0 000 1 15 15 0 0015 15 15 15 0 0015-15 15 15 0 00-2-8 15 15 0 010 1 15 15 0 01-1 1 15 15 0 010 2 15 15 0 010 1 15 15 0 01-1 1 15 15 0 01-1 2 15 15 0 01-1 1 15 15 0 01-1 1 15 15 0 01-1 1 15 15 0 01-1 1 15 15 0 01-1 0 15 15 0 01-2 1 15 15 0 01-1 1 15 15 0 01-2 0 15 15 0 01-1 0 15 15 0 01-1 0 15 15 0 01-2 0 15 15 0 01-1 0 15 15 0 01-2-1 15 15 0 01-1 0 15 15 0 01-1-1 15 15 0 01-2-1 15 15 0 01-1 0 15 15 0 01-1-1 15 15 0 01-1-2 15 15 0 01-1-1z" fill-opacity=".9"/>
    <path d="M78 109a29 29 0 01-9 21 29 29 0 01-21 7" fill="none" stroke="#000" stroke-width="4" stroke-linecap="round" stroke-linejoin="round"/>
    <path d="M234 148a15 15 0 011 1 15 15 0 01-15 15 15 15 0 01-15-15 15 15 0 012-8 15 15 0 000 1 15 15 0 000 1 15 15 0 001 2 15 15 0 000 1 15 15 0 001 1 15 15 0 001 2 15 15 0 001 1 15 15 0 001 1 15 15 0 001 1 15 15 0 001 1 15 15 0 001 0 15 15 0 002 1 15 15 0 001 1 15 15 0 002 0 15 15 0 001 0 15 15 0 001 0 15 15 0 002 0 15 15 0 001 0 15 15 0 001-1 15 15 0 002 0 15 15 0 001-1 15 15 0 002-1 15 15 0 001 0 15 15 0 001-1 15 15 0 001-2 15 15 0 000-1z" fill-opacity=".9"/>
    <path d="M222 109a29 29 0 009 21 29 29 0 0021 7" fill="none" stroke="#000" stroke-width="4" stroke-linecap="round" stroke-linejoin="round"/>
    <g>
      <path d="M199 273a51 46 0 00-49-33 51 46 0 00-49 33 70 51 0 0149-14 70 51 0 0149 14z" fill-opacity=".9" stroke="#000" stroke-linecap="round" stroke-linejoin="round" transform="matrix(1 0 0 .96338 0 9)" stroke-width="5.1"/>
      <path d="M150 240a51 44 0 00-33 11h66a51 44 0 00-33-11z" fill="#fff"/>
    </g>
  </g>
  <g>
    <path d="M94 149a15 15 0 01-15 15 15 15 0 01-15-15 15 15 0 0115-15 15 15 0 0115 15zM235 149a15 15 0 01-15 15 15 15 0 01-15-15 15 15 0 0115-15 15 15 0 0115 15z" fill-opacity=".9"/>
    <path d="M78 109a29 29 0 01-9 21 29 29 0 01-21 7M222 109a29 29 0 009 21 29 29 0 0021 7" fill="none" stroke="#000" stroke-width="4" stroke-linecap="round" stroke-linejoin="round"/>
    <path d="M63 191a13 13 0 11-25 0c0-7 5-24 12-24s13 17 13 24z" fill="#0ff"/>
  </g>
  <g>
    <circle cx="149.7" cy="1017.3" r="18.5" fill-opacity=".9" stroke-linecap="round" stroke-linejoin="round" stroke="#000" stroke-width="5" transform="translate(0 -752)"/>
    <path d="M150 246a18 18 0 00-17 11h33a18 18 0 00-16-11z" fill="#fff" fill-opacity=".9"/>
    <path d="M68 149h23" fill="none" stroke="#000" stroke-width="6.2" stroke-linecap="round"/>
    <path d="M71 149c-2 0-3 2-3 4v107l22 17V153c0-2-1-4-3-4z" fill="#afafe9"/>
    <g>
      <path d="M208 149h23" fill="none" stroke="#000" stroke-width="6.2" stroke-linecap="round"/>
      <path d="M212 149c-2 0-4 2-4 5v123c8-4 16-10 23-16V154c0-3-2-5-4-5z" fill="#afafe9"/>
    </g>
  </g>
  <g>
    <path d="M68 149a11 11 0 1122 0M209 149a11 11 0 0121 0" fill="none" stroke="#000" stroke-width="8.2" stroke-linecap="round" stroke-linejoin="round"/>
    <g fill-opacity=".9">
      <path d="M79 229a74 74 0 0071 53 74 74 0 0071-53 102 81 0 01-71 23 102 81 0 01-71-23z" stroke="#000" stroke-width="4.5" stroke-linecap="round" stroke-linejoin="round"/>
      <path d="M79 229a74 74 0 008 18 102 81 0 0063 17 102 81 0 0063-17 74 74 0 008-18 102 81 0 01-71 23 102 81 0 01-71-23z" fill="#fff"/>
    </g>
  </g>
  <g>
    <path d="M52 96l-30 3-19 4 3 20c3 1 6 1 8 4 5 6 2 12 3 24 4 37 16 45 35 47 10 1 31 3 45-2 13-5 24-13 32-24 9-12 10-25 15-35 3-7 10-5 12 0 4 11 6 23 14 35 8 11 20 19 33 24 14 5 34 3 45 2 19-2 31-10 35-47 1-12-2-18 2-24 2-3 6-4 9-4l3-20-19-4c-20-4-32-2-47-2h-17l-33 6c-10 2-20 8-31 8-10 0-21-7-31-9l-33-5H68l-16-1z"/>
    <path d="M63 104c-13 0-33 1-38 17-4 20-4 44 8 61 10 14 31 11 47 11 25-1 47-21 54-45 2-10 5-19 1-26-8-12-27-16-41-17l-31-1z" fill="#333"/>
    <path d="M24 109a5 2 0 01-5 3 5 2 0 01-6-3 5 2 0 015-2 5 2 0 016 2" fill="#b3b3b3"/>
    <path d="M237 104c13 0 33 1 38 17 4 20 4 44-8 61-10 14-31 11-47 11-26-1-47-21-54-45-3-10-6-19-1-26 8-12 27-16 41-17l31-1z" fill="#333"/>
    <path d="M276 109a5 2 0 005 3 5 2 0 006-3 5 2 0 00-6-2 5 2 0 00-5 2" fill="#b3b3b3"/>
    <path d="M84 104l-26 89h23l25-86-22-3zM68 104h-9l-24 81 8 5z" fill="#fff"/>
  </g>
  <g>
    <path d="M209 149a11 11 0 0121 0" fill="none" stroke="#000" stroke-width="8.2" stroke-linecap="round" stroke-linejoin="round"/>
    <g fill-opacity=".9">
      <path d="M79 229a74 74 0 0071 53 74 74 0 0071-53 102 81 0 01-71 23 102 81 0 01-71-23z" stroke="#000" stroke-width="4.5" stroke-linecap="round" stroke-linejoin="round"/>
      <path d="M79 229a74 74 0 008 18 102 81 0 0063 17 102 81 0 0063-17 74 74 0 008-18 102 81 0 01-71 23 102 81 0 01-71-23z" fill="#fff"/>
    </g>
    <path d="M251 108a13 13 0 11-25 0c0-7 6-25 13-25s12 18 12 25z" fill="#0ff"/>
    <path d="M68 149a11 11 0 1122 0" fill="none" stroke="#000" stroke-width="8.2" stroke-linecap="round" stroke-linejoin="round"/>
  </g>
</svg>