<?xml version="1.0" encoding="UTF-8" standalone="no"?>
<!-- Created with Inkscape (http://www.inkscape.org/) -->

<svg
   xmlns:dc="http://purl.org/dc/elements/1.1/"
   xmlns:cc="http://creativecommons.org/ns#"
   xmlns:rdf="http://www.w3.org/1999/02/22-rdf-syntax-ns#"
   xmlns:svg="http://www.w3.org/2000/svg"
   xmlns="http://www.w3.org/2000/svg"
   xmlns:xlink="http://www.w3.org/1999/xlink"
   xmlns:sodipodi="http://sodipodi.sourceforge.net/DTD/sodipodi-0.dtd"
   xmlns:inkscape="http://www.inkscape.org/namespaces/inkscape"
   width="289.54459"
   height="180.06883"
   viewBox="0 0 76.608673 47.643211"
   version="1.1"
   id="svg8"
   inkscape:version="0.92.2 5c3e80d, 2017-08-06"
   sodipodi:docname="injectable.svg">
  <defs
     id="defs2">
    <pattern
       inkscape:collect="always"
       xlink:href="#Strips1_1.5white"
       id="pattern10888"
       patternTransform="matrix(37.795276,0,0,37.795276,-113.21428,-519.66249)" />
    <pattern
       inkscape:isstock="true"
       inkscape:stockid="Stripes 1:1.5 white"
       id="Strips1_1.5white"
       patternTransform="translate(0,0) scale(10,10)"
       height="1"
       width="2.5"
       patternUnits="userSpaceOnUse"
       inkscape:collect="always">
      <rect
         id="rect10088"
         height="2"
         width="1"
         y="-0.5"
         x="0"
         style="fill:white;stroke:none" />
    </pattern>
    <pattern
       inkscape:collect="always"
       xlink:href="#Strips2_1"
       id="pattern10872"
       patternTransform="matrix(37.795276,0,0,37.795276,-143.92857,-500.37678)" />
    <pattern
       inkscape:collect="always"
       xlink:href="#Strips1_10"
       id="pattern10853"
       patternTransform="matrix(37.795276,0,0,37.795276,-160.71428,-512.8768)" />
    <pattern
       inkscape:stockid="Stripes 1:10"
       id="Strips1_10"
       patternTransform="translate(0,0) scale(10,10)"
       height="1"
       width="11"
       patternUnits="userSpaceOnUse"
       inkscape:collect="always">
      <rect
         id="rect10121"
         height="2"
         width="1"
         y="-0.5"
         x="0"
         style="fill:black;stroke:none" />
    </pattern>
    <pattern
       inkscape:collect="always"
       xlink:href="#Strips2_1"
       id="pattern10804"
       patternTransform="matrix(37.795276,0,0,37.795276,-160.98215,-542.8768)" />
    <pattern
       inkscape:stockid="Stripes 2:1"
       id="Strips2_1"
       patternTransform="translate(0,0) scale(10,10)"
       height="1"
       width="1.5"
       patternUnits="userSpaceOnUse"
       inkscape:collect="always">
      <rect
         id="rect10142"
         height="2"
         width="1"
         y="-0.5"
         x="0"
         style="fill:black;stroke:none" />
    </pattern>
    <pattern
       patternUnits="userSpaceOnUse"
       width="16.071428"
       height="45.357142"
       patternTransform="matrix(0.26458333,0,0,0.26458333,42.593193,143.63615)"
       id="pattern10801">
      <rect
         ry="2.1428599"
         y="0"
         x="0"
         height="45.357143"
         width="16.071428"
         id="rect9361"
         style="fill:url(#pattern10804);fill-opacity:1;fill-rule:nonzero;stroke:none;stroke-width:3.2314961;stroke-linecap:round;stroke-linejoin:round;stroke-miterlimit:4;stroke-dasharray:none;stroke-dashoffset:0;stroke-opacity:1" />
    </pattern>
    <pattern
       patternUnits="userSpaceOnUse"
       width="64.999998"
       height="61.071427"
       patternTransform="matrix(0.26458333,0,0,0.26458333,42.52232,135.69865)"
       id="pattern10850">
      <rect
         ry="2.1428599"
         y="0"
         x="0"
         height="61.071426"
         width="65"
         id="rect10842"
         style="fill:url(#pattern10853);fill-opacity:1;fill-rule:nonzero;stroke:none;stroke-width:3.2314961;stroke-linecap:round;stroke-linejoin:round;stroke-miterlimit:4;stroke-dasharray:none;stroke-dashoffset:0;stroke-opacity:1" />
    </pattern>
    <pattern
       patternUnits="userSpaceOnUse"
       width="81.785716"
       height="73.571467"
       patternTransform="matrix(0.26458333,0,0,0.26458333,38.0811,132.39136)"
       id="pattern10869">
      <rect
         id="rect10855"
         y="-5.6843419e-14"
         x="0"
         height="73.571465"
         width="81.785713"
         style="fill:url(#pattern10872);fill-opacity:1;stroke:none;stroke-width:3.77952766" />
    </pattern>
    <pattern
       patternUnits="userSpaceOnUse"
       width="81.785716"
       height="73.571467"
       patternTransform="matrix(0.26458333,0,0,0.26458333,29.954613,137.49403)"
       id="pattern10885">
      <rect
         id="rect10874"
         y="0"
         x="0"
         height="73.571465"
         width="81.785713"
         style="fill:url(#pattern10888);fill-opacity:1;stroke:none;stroke-width:3.77952766" />
    </pattern>
  </defs>
  <sodipodi:namedview
     id="base"
     pagecolor="#ffffff"
     bordercolor="#666666"
     borderopacity="1.0"
     inkscape:pageopacity="0.0"
     inkscape:pageshadow="2"
     inkscape:zoom="3.959798"
     inkscape:cx="128.37091"
     inkscape:cy="67.876409"
     inkscape:document-units="mm"
     inkscape:current-layer="g1517"
     showgrid="false"
     inkscape:window-width="1912"
     inkscape:window-height="1053"
     inkscape:window-x="-2"
     inkscape:window-y="0"
     inkscape:window-maximized="0"
     fit-margin-top="5"
     fit-margin-left="5"
     fit-margin-right="5"
     fit-margin-bottom="0"
     units="px" />
  <metadata
     id="metadata5">
    <rdf:RDF>
      <cc:Work
         rdf:about="">
        <dc:format>image/svg+xml</dc:format>
        <dc:type
           rdf:resource="http://purl.org/dc/dcmitype/StillImage" />
        <dc:title></dc:title>
      </cc:Work>
    </rdf:RDF>
  </metadata>
  <g
     inkscape:label="Button"
     inkscape:groupmode="layer"
     id="layer1"
     style="display:inline"
     sodipodi:insensitive="true"
     transform="translate(-48.819176,-138.79874)">
    <g
       id="g1469"
       transform="translate(3.779762,31.561012)">
      <rect
         ry="3.4017856"
         y="128.42261"
         x="51.59375"
         height="26.458334"
         width="63.5"
         id="rect815"
         style="fill:#00ffff;fill-opacity:1;fill-rule:nonzero;stroke:none;stroke-width:0.29797474;stroke-linecap:round;stroke-linejoin:round;stroke-miterlimit:4;stroke-dasharray:none;stroke-dashoffset:0;stroke-opacity:1" />
      <text
         id="text1461"
         y="138.56566"
         x="83.054359"
         style="font-style:normal;font-variant:normal;font-weight:bold;font-stretch:normal;font-size:8.46666622px;line-height:1.25;font-family:sans-serif;-inkscape-font-specification:'sans-serif, Bold';font-variant-ligatures:normal;font-variant-caps:normal;font-variant-numeric:normal;font-feature-settings:normal;text-align:center;letter-spacing:0px;word-spacing:0px;writing-mode:lr-tb;text-anchor:middle;fill:#000000;fill-opacity:1;stroke:none;stroke-width:0.26458332"
         xml:space="preserve"><tspan
           style="font-style:normal;font-variant:normal;font-weight:bold;font-stretch:normal;font-size:8.46666622px;font-family:sans-serif;-inkscape-font-specification:'sans-serif, Bold';font-variant-ligatures:normal;font-variant-caps:normal;font-variant-numeric:normal;font-feature-settings:normal;text-align:center;writing-mode:lr-tb;text-anchor:middle;stroke-width:0.26458332"
           y="138.56566"
           x="83.054359"
           id="tspan1459"
           sodipodi:role="line">Happy</tspan><tspan
           id="tspan1463"
           style="font-style:normal;font-variant:normal;font-weight:bold;font-stretch:normal;font-size:8.46666622px;font-family:sans-serif;-inkscape-font-specification:'sans-serif, Bold';font-variant-ligatures:normal;font-variant-caps:normal;font-variant-numeric:normal;font-feature-settings:normal;text-align:center;writing-mode:lr-tb;text-anchor:middle;stroke-width:0.26458332"
           y="149.14899"
           x="83.054359"
           sodipodi:role="line">Birthday</tspan></text>
    </g>
  </g>
  <g
     style="display:inline"
     inkscape:label="Cake Decoration Two"
     id="g11137"
     inkscape:groupmode="layer"
     sodipodi:insensitive="true"
     transform="translate(-48.819176,-138.79874)">
    <rect
       ry="3.4017856"
       y="159.98361"
       x="55.373512"
       height="26.458334"
       width="63.5"
       id="rect11103"
       style="fill:#00ffff;fill-opacity:1;fill-rule:nonzero;stroke:none;stroke-width:0.29797474;stroke-linecap:round;stroke-linejoin:round;stroke-miterlimit:4;stroke-dasharray:none;stroke-dashoffset:0;stroke-opacity:1" />
    <path
       style="fill:#c87137;fill-opacity:1;fill-rule:nonzero;stroke:none;stroke-width:1.12620378;stroke-linecap:round;stroke-linejoin:round;stroke-miterlimit:4;stroke-dasharray:none;stroke-dashoffset:0;stroke-opacity:1"
       d="m 209.28516,689.16406 v 2.64063 c 0,7.12285 5.73456,12.85742 12.85742,12.85742 h 214.28515 c 7.12286,0 12.85743,-5.73457 12.85743,-12.85742 v -2.64063 z"
       id="rect11141"
       transform="scale(0.26458333)"
       inkscape:connector-curvature="0" />
  </g>
  <g
     inkscape:groupmode="layer"
     id="layer3"
     inkscape:label="Cake Decoration One"
     style="display:inline"
     transform="translate(-48.819176,-138.79874)"
     sodipodi:insensitive="true">
    <rect
       style="fill:#00ffff;fill-opacity:1;fill-rule:nonzero;stroke:none;stroke-width:0.29797474;stroke-linecap:round;stroke-linejoin:round;stroke-miterlimit:4;stroke-dasharray:none;stroke-dashoffset:0;stroke-opacity:1"
       id="rect1574"
       width="63.5"
       height="26.458334"
       x="55.373512"
       y="159.98361"
       ry="3.4017856" />
    <path
       style="fill:#ff0041;fill-opacity:0.53424659;fill-rule:nonzero;stroke:none;stroke-width:0.90433162;stroke-linecap:round;stroke-linejoin:round;stroke-miterlimit:4;stroke-dasharray:none;stroke-dashoffset:0;stroke-opacity:1"
       d="m 58.311339,159.19367 c -1.915439,0 -3.331523,2.04311 -3.986711,3.74446 -0.778328,2.02111 -0.761971,4.73695 0.529167,6.47582 0.861406,1.16012 2.614079,1.3182 4.033715,1.5875 1.321013,0.25059 2.689143,0 4.033714,0 1.344572,0 2.689143,0 4.033715,0 1.344572,0 2.689143,0 4.033715,0 1.344571,0 2.689143,0 4.033714,0 1.344572,0 2.689143,0 4.033715,0 1.344572,0 2.689143,0 4.033715,0 1.344572,0 2.689143,0 4.033715,0 1.344571,0 2.689143,0 4.033714,0 1.344572,0 2.689143,0 4.033715,0 1.344572,0 2.689143,0 4.033715,0 1.344573,0 2.689143,0 4.033713,0 1.34457,0 2.68915,0 4.03372,0 1.34457,0 2.68914,0 4.03371,0 1.34457,0 2.71271,0.25059 4.03372,0 1.41963,-0.2693 3.17231,-0.42738 4.03371,-1.5875 1.29114,-1.73887 1.3075,-4.45471 0.52917,-6.47582 -0.65519,-1.70135 -2.07128,-3.74446 -3.98672,-3.74446 z"
       id="rect1625"
       inkscape:connector-curvature="0"
       sodipodi:nodetypes="saaaaaaaaaaaaaaaaaaass" />
    <g
       id="g9353"
       transform="translate(63.930298)">
      <rect
         transform="rotate(-44.063602)"
         ry="0.56696504"
         y="167.59172"
         x="-91.837227"
         height="1.2284226"
         width="3.3072915"
         id="rect1688"
         style="fill:#ff0000;fill-opacity:0.53424659;fill-rule:nonzero;stroke:none;stroke-width:0.85500002;stroke-linecap:round;stroke-linejoin:round;stroke-miterlimit:4;stroke-dasharray:none;stroke-dashoffset:0;stroke-opacity:1" />
      <rect
         transform="rotate(27.00951)"
         ry="0.56696504"
         y="165.35037"
         x="76.642342"
         height="1.2284226"
         width="3.3072915"
         id="rect1692"
         style="fill:#ff0000;fill-opacity:0.53424659;fill-rule:nonzero;stroke:none;stroke-width:0.85500002;stroke-linecap:round;stroke-linejoin:round;stroke-miterlimit:4;stroke-dasharray:none;stroke-dashoffset:0;stroke-opacity:1" />
      <rect
         transform="rotate(85.231652)"
         style="fill:#ff0000;fill-opacity:0.53424659;fill-rule:nonzero;stroke:none;stroke-width:0.85500002;stroke-linecap:round;stroke-linejoin:round;stroke-miterlimit:4;stroke-dasharray:none;stroke-dashoffset:0;stroke-opacity:1"
         id="rect1694"
         width="3.3072915"
         height="1.2284226"
         x="182.37015"
         y="3.8418069"
         ry="0.56696504" />
      <rect
         transform="rotate(136.79445)"
         ry="0.56696504"
         y="-137.0132"
         x="122.34886"
         height="1.2284226"
         width="3.3072915"
         id="rect1696"
         style="fill:#ff0000;fill-opacity:0.53424659;fill-rule:nonzero;stroke:none;stroke-width:0.85500002;stroke-linecap:round;stroke-linejoin:round;stroke-miterlimit:4;stroke-dasharray:none;stroke-dashoffset:0;stroke-opacity:1" />
      <rect
         transform="rotate(-28.568752)"
         style="fill:#ff0000;fill-opacity:0.53424659;fill-rule:nonzero;stroke:none;stroke-width:0.85500002;stroke-linecap:round;stroke-linejoin:round;stroke-miterlimit:4;stroke-dasharray:none;stroke-dashoffset:0;stroke-opacity:1"
         id="rect1698"
         width="3.3072915"
         height="1.2284226"
         x="-90.99733"
         y="160.46631"
         ry="0.56696504" />
      <rect
         transform="rotate(-134.3704)"
         ry="0.56696504"
         y="-124.27174"
         x="-138.39639"
         height="1.2284226"
         width="3.3072915"
         id="rect1700"
         style="fill:#ff0000;fill-opacity:0.53424659;fill-rule:nonzero;stroke:none;stroke-width:0.85500002;stroke-linecap:round;stroke-linejoin:round;stroke-miterlimit:4;stroke-dasharray:none;stroke-dashoffset:0;stroke-opacity:1" />
      <rect
         transform="rotate(-37.152374)"
         style="fill:#ff0000;fill-opacity:0.53424659;fill-rule:nonzero;stroke:none;stroke-width:0.85500002;stroke-linecap:round;stroke-linejoin:round;stroke-miterlimit:4;stroke-dasharray:none;stroke-dashoffset:0;stroke-opacity:1"
         id="rect1702"
         width="3.3072915"
         height="1.2284226"
         x="-101.10669"
         y="155.27974"
         ry="0.56696504" />
      <rect
         transform="rotate(-72.723448)"
         ry="0.56696504"
         y="77.321815"
         x="-169.66443"
         height="1.2284226"
         width="3.3072915"
         id="rect1704"
         style="fill:#ff0000;fill-opacity:0.53424659;fill-rule:nonzero;stroke:none;stroke-width:0.85500002;stroke-linecap:round;stroke-linejoin:round;stroke-miterlimit:4;stroke-dasharray:none;stroke-dashoffset:0;stroke-opacity:1" />
      <rect
         transform="rotate(36.565643)"
         style="fill:#ff0000;fill-opacity:0.53424659;fill-rule:nonzero;stroke:none;stroke-width:0.85500002;stroke-linecap:round;stroke-linejoin:round;stroke-miterlimit:4;stroke-dasharray:none;stroke-dashoffset:0;stroke-opacity:1"
         id="rect1706"
         width="3.3072915"
         height="1.2284226"
         x="124.33784"
         y="135.06454"
         ry="0.56696504" />
      <rect
         transform="rotate(-45)"
         ry="0.56696504"
         y="150.00922"
         x="-111.69218"
         height="1.2284226"
         width="3.3072915"
         id="rect1708"
         style="fill:#ff0000;fill-opacity:0.53424659;fill-rule:nonzero;stroke:none;stroke-width:0.85500002;stroke-linecap:round;stroke-linejoin:round;stroke-miterlimit:4;stroke-dasharray:none;stroke-dashoffset:0;stroke-opacity:1" />
      <rect
         transform="rotate(30)"
         style="fill:#ff0000;fill-opacity:0.53424659;fill-rule:nonzero;stroke:none;stroke-width:0.85500002;stroke-linecap:round;stroke-linejoin:round;stroke-miterlimit:4;stroke-dasharray:none;stroke-dashoffset:0;stroke-opacity:1"
         id="rect1710"
         width="3.3072915"
         height="1.2284226"
         x="119.8794"
         y="141.70137"
         ry="0.56696504" />
      <rect
         transform="rotate(-55.914112)"
         ry="0.56696504"
         y="139.02425"
         x="-129.55536"
         height="1.2284226"
         width="3.3072915"
         id="rect1712"
         style="fill:#ff0000;fill-opacity:0.53424659;fill-rule:nonzero;stroke:none;stroke-width:0.85500002;stroke-linecap:round;stroke-linejoin:round;stroke-miterlimit:4;stroke-dasharray:none;stroke-dashoffset:0;stroke-opacity:1" />
      <rect
         transform="rotate(-30)"
         style="fill:#ff0000;fill-opacity:0.53424659;fill-rule:nonzero;stroke:none;stroke-width:0.85500002;stroke-linecap:round;stroke-linejoin:round;stroke-miterlimit:4;stroke-dasharray:none;stroke-dashoffset:0;stroke-opacity:1"
         id="rect1714"
         width="3.3072915"
         height="1.2284226"
         x="-60.133072"
         y="178.6705"
         ry="0.56696504" />
      <rect
         transform="rotate(45)"
         ry="0.56696504"
         y="95.646599"
         x="162.2932"
         height="1.2284226"
         width="3.3072915"
         id="rect1716"
         style="fill:#ff0000;fill-opacity:0.53424659;fill-rule:nonzero;stroke:none;stroke-width:0.85500002;stroke-linecap:round;stroke-linejoin:round;stroke-miterlimit:4;stroke-dasharray:none;stroke-dashoffset:0;stroke-opacity:1" />
    </g>
    <path
       sodipodi:nodetypes="saaaaaaaaaaaaaaaaaaass"
       inkscape:connector-curvature="0"
       id="path11305"
       d="m 58.311339,159.19367 c -1.915439,0 -3.283829,-0.0871 -3.986711,1.09863 -0.391626,0.66067 -0.07305,1.76584 0.529167,2.24249 1.054296,0.83446 2.689143,0 4.033715,0 1.344571,0 2.689143,0 4.033714,0 1.344572,0 2.689143,0 4.033715,0 1.344572,0 2.689143,0 4.033715,0 1.344571,0 2.689143,0 4.033714,0 1.344572,0 2.689143,0 4.033715,0 1.344572,0 2.689143,0 4.033715,0 1.344572,0 2.689143,0 4.033715,0 1.344571,0 2.689143,0 4.033714,0 1.344572,0 2.689143,0 4.033715,0 1.344572,0 2.689143,0 4.033715,0 1.344573,0 2.689143,0 4.033713,0 1.34457,0 2.68915,0 4.03372,0 1.34457,0 2.68914,0 4.03371,0 1.34457,0 2.68915,0 4.03372,0 1.34457,0 2.97942,0.83446 4.03371,0 0.60222,-0.47665 0.9208,-1.58182 0.52917,-2.24249 -0.70288,-1.18578 -2.07128,-1.09863 -3.98672,-1.09863 z"
       style="fill:#0000ff;fill-opacity:0.53424659;fill-rule:nonzero;stroke:none;stroke-width:0.90433162;stroke-linecap:round;stroke-linejoin:round;stroke-miterlimit:4;stroke-dasharray:none;stroke-dashoffset:0;stroke-opacity:1" />
  </g>
  <g
     inkscape:groupmode="layer"
     id="layer2"
     inkscape:label="Cake Body"
     style="display:inline"
     transform="translate(-48.819176,-138.79874)">
    <g
       id="g1571">
      <rect
         style="fill:#ff0041;fill-opacity:0.53424659;fill-rule:nonzero;stroke:none;stroke-width:0.29797474;stroke-linecap:round;stroke-linejoin:round;stroke-miterlimit:4;stroke-dasharray:none;stroke-dashoffset:0;stroke-opacity:1"
         id="rect1471"
         width="63.5"
         height="26.458334"
         x="55.373512"
         y="159.98361"
         ry="3.4017856" />
      <g
         transform="matrix(1.3803132,0,0,1.3803132,34.95096,-33.710735)"
         id="g1557">
        <g
           id="g1545"
           transform="translate(0,0.15678771)">
          <path
             id="path1509"
             d="m 35.250229,150.64003 a 2.6458332,2.6458332 0 0 0 2.548681,1.93683 2.6458332,2.6458332 0 0 0 2.546099,-1.93683 z"
             style="fill:#000000;fill-opacity:1;fill-rule:nonzero;stroke:#000000;stroke-width:0.85500002;stroke-linecap:round;stroke-linejoin:round;stroke-miterlimit:4;stroke-dasharray:none;stroke-dashoffset:0;stroke-opacity:1"
             inkscape:connector-curvature="0" />
          <path
             transform="scale(0.26458333)"
             id="path1538"
             d="m 147.54492,572.23828 a 8.5231622,6.3765876 0 0 0 -7.85351,3.9043 9.9999995,9.9999995 0 0 0 3.16992,0.52539 9.9999995,9.9999995 0 0 0 7.9375,-3.94336 8.5231622,6.3765876 0 0 0 -3.25391,-0.48633 z"
             style="fill:#ff0000;fill-opacity:1;fill-rule:nonzero;stroke:none;stroke-width:3;stroke-linecap:round;stroke-linejoin:round;stroke-miterlimit:4;stroke-dasharray:none;stroke-dashoffset:0;stroke-opacity:1"
             inkscape:connector-curvature="0" />
        </g>
        <g
           id="g1517"
           transform="translate(-0.16536259)">
          <g
             transform="translate(0,0.09449405)"
             id="g1499">
            <circle
               style="fill:#000000;fill-opacity:1;fill-rule:nonzero;stroke:none;stroke-width:0.79374999;stroke-linecap:round;stroke-linejoin:round;stroke-miterlimit:4;stroke-dasharray:none;stroke-dashoffset:0;stroke-opacity:1"
               id="path1491"
               cx="29.860117"
               cy="149.02231"
               r="2.4568453" />
            <circle
               style="fill:#ffffff;fill-opacity:1;fill-rule:nonzero;stroke:none;stroke-width:0.52916664;stroke-linecap:round;stroke-linejoin:round;stroke-miterlimit:4;stroke-dasharray:none;stroke-dashoffset:0;stroke-opacity:1"
               id="path1495"
               cx="28.773438"
               cy="148.16243"
               r="0.75595236" />
          </g>
          <g
             transform="translate(16.205729,0.09449405)"
             id="g1505">
            <circle
               r="2.4568453"
               cy="149.02231"
               cx="29.860117"
               id="circle1501"
               style="fill:#000000;fill-opacity:1;fill-rule:nonzero;stroke:none;stroke-width:0.79374999;stroke-linecap:round;stroke-linejoin:round;stroke-miterlimit:4;stroke-dasharray:none;stroke-dashoffset:0;stroke-opacity:1" />
            <circle
               r="0.75595236"
               cy="148.16243"
               cx="28.773438"
               id="circle1503"
               style="fill:#ffffff;fill-opacity:1;fill-rule:nonzero;stroke:none;stroke-width:0.52916664;stroke-linecap:round;stroke-linejoin:round;stroke-miterlimit:4;stroke-dasharray:none;stroke-dashoffset:0;stroke-opacity:1" />
          </g>
          <path
             style="fill:none;fill-opacity:0.98173517;fill-rule:nonzero;stroke:#000000;stroke-width:0.73595905;stroke-linecap:round;stroke-linejoin:round;stroke-miterlimit:4;stroke-dasharray:none;stroke-dashoffset:0;stroke-opacity:1"
             d="m 47.778928,150.39838 -3.80203,-1.50183 4.139559,-1.06195"
             id="path11454"
             inkscape:connector-curvature="0"
             sodipodi:nodetypes="ccc" />
          <path
             sodipodi:nodetypes="ccc"
             inkscape:connector-curvature="0"
             id="path11457"
             d="m 28.147035,150.39838 3.80203,-1.50183 -4.139559,-1.06195"
             style="fill:none;fill-opacity:0.98173517;fill-rule:nonzero;stroke:#000000;stroke-width:0.73595905;stroke-linecap:round;stroke-linejoin:round;stroke-miterlimit:4;stroke-dasharray:none;stroke-dashoffset:0;stroke-opacity:1" />
          <path
             style="fill:none;stroke:#000000;stroke-width:0.62818408;stroke-linecap:round;stroke-linejoin:miter;stroke-miterlimit:4;stroke-dasharray:none;stroke-opacity:1"
             d="m 36.435789,151.76523 h 3.054385"
             id="path11459"
             inkscape:connector-curvature="0" />
        </g>
      </g>
    </g>
  </g>
  <g
     inkscape:groupmode="layer"
     id="layer4"
     inkscape:label="Cake Candles"
     style="display:inline"
     sodipodi:insensitive="true"
     transform="translate(-48.819176,-138.79874)">
    <g
       style="display:inline"
       id="g11062"
       transform="translate(0,1.0583333)">
      <g
         id="g10997">
        <rect
           ry="0.56696504"
           y="147.88838"
           x="72.547806"
           height="12.000744"
           width="4.2522321"
           id="rect9357"
           style="fill:#ececec;fill-opacity:1;fill-rule:nonzero;stroke:none;stroke-width:0.85500002;stroke-linecap:round;stroke-linejoin:round;stroke-miterlimit:4;stroke-dasharray:none;stroke-dashoffset:0;stroke-opacity:1" />
        <g
           id="g10924">
          <path
             sodipodi:nodetypes="sssss"
             inkscape:connector-curvature="0"
             id="path10894"
             d="m 76.185825,146.50039 c 2e-6,1.35107 -0.676901,1.38799 -1.511905,1.38799 -0.835004,0 -1.511907,-0.0369 -1.511905,-1.38799 10e-7,-1.35106 0.676904,-3.50464 1.511905,-3.50464 0.835001,0 1.511904,2.15358 1.511905,3.50464 z"
             style="fill:#ff6600;fill-opacity:1;fill-rule:nonzero;stroke:none;stroke-width:0.85500002;stroke-linecap:round;stroke-linejoin:round;stroke-miterlimit:4;stroke-dasharray:none;stroke-dashoffset:0;stroke-opacity:1" />
          <g
             id="g10907">
            <path
               style="fill:#ffff00;fill-opacity:1;fill-rule:nonzero;stroke:none;stroke-width:0.39678267;stroke-linecap:round;stroke-linejoin:round;stroke-miterlimit:4;stroke-dasharray:none;stroke-dashoffset:0;stroke-opacity:1"
               d="m 75.375555,146.71508 c 0,0.627 -0.314132,0.64413 -0.701635,0.64413 -0.387503,0 -0.701636,-0.0171 -0.701635,-0.64413 10e-7,-0.62699 0.314133,-1.62641 0.701635,-1.62641 0.387501,0 0.701634,0.99942 0.701635,1.62641 z"
               id="path10903"
               inkscape:connector-curvature="0"
               sodipodi:nodetypes="sssss" />
          </g>
        </g>
        <g
           id="g10955"
           transform="translate(8.234045,1.1907827)">
          <g
             id="g10941">
            <path
               sodipodi:nodetypes="sssss"
               inkscape:connector-curvature="0"
               id="path10926"
               d="m 67.43812,144.72973 c 0.608219,1.20643 0.08613,2.22321 -0.748877,2.22321 -0.835004,0 -1.511907,-0.0369 -1.511905,-1.38799 10e-7,-1.35106 0.557171,-3.56572 1.979627,-3.97236 1.007295,-0.28795 -0.854741,0.88405 0.281155,3.13714 z"
               style="fill:#ff6600;fill-opacity:1;fill-rule:nonzero;stroke:none;stroke-width:0.85500002;stroke-linecap:round;stroke-linejoin:round;stroke-miterlimit:4;stroke-dasharray:none;stroke-dashoffset:0;stroke-opacity:1" />
            <path
               style="fill:#ffff00;fill-opacity:1;fill-rule:nonzero;stroke:none;stroke-width:0.41382018;stroke-linecap:round;stroke-linejoin:round;stroke-miterlimit:4;stroke-dasharray:none;stroke-dashoffset:0;stroke-opacity:1"
               d="m 66.847275,145.25785 c 0.409974,0.50943 0.265785,1.04351 -0.129426,1.12802 -0.395204,0.0845 -0.68293,-0.22727 -0.822658,-0.86604 0,0 -0.130599,-1.38191 0.50149,-1.71834 0.447608,-0.23824 -0.315071,0.50493 0.450594,1.45636 z"
               id="path10937"
               inkscape:connector-curvature="0"
               sodipodi:nodetypes="sssss"
               inkscape:transform-center-y="-0.85008903"
               inkscape:transform-center-x="0.044744231" />
          </g>
          <g
             transform="matrix(-1,0,0,1,132.87975,0)"
             id="g10947">
            <path
               style="fill:#ff6600;fill-opacity:1;fill-rule:nonzero;stroke:none;stroke-width:0.85500002;stroke-linecap:round;stroke-linejoin:round;stroke-miterlimit:4;stroke-dasharray:none;stroke-dashoffset:0;stroke-opacity:1"
               d="m 67.43812,144.72973 c 0.608219,1.20643 0.08613,2.22321 -0.748877,2.22321 -0.835004,0 -1.511907,-0.0369 -1.511905,-1.38799 10e-7,-1.35106 0.557171,-3.56572 1.979627,-3.97236 1.007295,-0.28795 -0.854741,0.88405 0.281155,3.13714 z"
               id="path10943"
               inkscape:connector-curvature="0"
               sodipodi:nodetypes="sssss" />
            <path
               inkscape:transform-center-x="0.044744231"
               inkscape:transform-center-y="-0.85008903"
               sodipodi:nodetypes="sssss"
               inkscape:connector-curvature="0"
               id="path10945"
               d="m 66.847275,145.25785 c 0.409974,0.50943 0.265785,1.04351 -0.129426,1.12802 -0.395204,0.0845 -0.68293,-0.22727 -0.822658,-0.86604 0,0 -0.130599,-1.38191 0.50149,-1.71834 0.447608,-0.23824 -0.315071,0.50493 0.450594,1.45636 z"
               style="fill:#ffff00;fill-opacity:1;fill-rule:nonzero;stroke:none;stroke-width:0.41382018;stroke-linecap:round;stroke-linejoin:round;stroke-miterlimit:4;stroke-dasharray:none;stroke-dashoffset:0;stroke-opacity:1" />
          </g>
        </g>
      </g>
      <g
         id="g11023">
        <g
           id="g10919"
           transform="translate(24.899177)">
          <path
             sodipodi:nodetypes="sssss"
             inkscape:connector-curvature="0"
             id="path10915"
             d="m 76.185825,146.50039 c 2e-6,1.35107 -0.676901,1.38799 -1.511905,1.38799 -0.835004,0 -1.511907,-0.0369 -1.511905,-1.38799 10e-7,-1.35106 0.676904,-3.50464 1.511905,-3.50464 0.835001,0 1.511904,2.15358 1.511905,3.50464 z"
             style="fill:#ff6600;fill-opacity:1;fill-rule:nonzero;stroke:none;stroke-width:0.85500002;stroke-linecap:round;stroke-linejoin:round;stroke-miterlimit:4;stroke-dasharray:none;stroke-dashoffset:0;stroke-opacity:1" />
          <path
             style="fill:#ffff00;fill-opacity:1;fill-rule:nonzero;stroke:none;stroke-width:0.39678267;stroke-linecap:round;stroke-linejoin:round;stroke-miterlimit:4;stroke-dasharray:none;stroke-dashoffset:0;stroke-opacity:1"
             d="m 75.375555,146.71508 c 0,0.627 -0.314132,0.64413 -0.701635,0.64413 -0.387503,0 -0.701636,-0.0171 -0.701635,-0.64413 10e-7,-0.62699 0.314133,-1.62641 0.701635,-1.62641 0.387501,0 0.701634,0.99942 0.701635,1.62641 z"
             id="path10917"
             inkscape:connector-curvature="0"
             sodipodi:nodetypes="sssss" />
        </g>
        <rect
           style="fill:#ececec;fill-opacity:0.98173517;fill-rule:nonzero;stroke:none;stroke-width:0.85500002;stroke-linecap:round;stroke-linejoin:round;stroke-miterlimit:4;stroke-dasharray:none;stroke-dashoffset:0;stroke-opacity:1"
           id="rect9359"
           width="4.2522321"
           height="12.000744"
           x="97.446983"
           y="147.88838"
           ry="0.56696504" />
        <g
           transform="translate(33.133222,1.1907827)"
           id="g10969">
          <g
             id="g10961">
            <path
               style="fill:#ff6600;fill-opacity:1;fill-rule:nonzero;stroke:none;stroke-width:0.85500002;stroke-linecap:round;stroke-linejoin:round;stroke-miterlimit:4;stroke-dasharray:none;stroke-dashoffset:0;stroke-opacity:1"
               d="m 67.43812,144.72973 c 0.608219,1.20643 0.08613,2.22321 -0.748877,2.22321 -0.835004,0 -1.511907,-0.0369 -1.511905,-1.38799 10e-7,-1.35106 0.557171,-3.56572 1.979627,-3.97236 1.007295,-0.28795 -0.854741,0.88405 0.281155,3.13714 z"
               id="path10957"
               inkscape:connector-curvature="0"
               sodipodi:nodetypes="sssss" />
            <path
               inkscape:transform-center-x="0.044744231"
               inkscape:transform-center-y="-0.85008903"
               sodipodi:nodetypes="sssss"
               inkscape:connector-curvature="0"
               id="path10959"
               d="m 66.847275,145.25785 c 0.409974,0.50943 0.265785,1.04351 -0.129426,1.12802 -0.395204,0.0845 -0.68293,-0.22727 -0.822658,-0.86604 0,0 -0.130599,-1.38191 0.50149,-1.71834 0.447608,-0.23824 -0.315071,0.50493 0.450594,1.45636 z"
               style="fill:#ffff00;fill-opacity:1;fill-rule:nonzero;stroke:none;stroke-width:0.41382018;stroke-linecap:round;stroke-linejoin:round;stroke-miterlimit:4;stroke-dasharray:none;stroke-dashoffset:0;stroke-opacity:1" />
          </g>
          <g
             id="g10967"
             transform="matrix(-1,0,0,1,132.87975,0)">
            <path
               sodipodi:nodetypes="sssss"
               inkscape:connector-curvature="0"
               id="path10963"
               d="m 67.43812,144.72973 c 0.608219,1.20643 0.08613,2.22321 -0.748877,2.22321 -0.835004,0 -1.511907,-0.0369 -1.511905,-1.38799 10e-7,-1.35106 0.557171,-3.56572 1.979627,-3.97236 1.007295,-0.28795 -0.854741,0.88405 0.281155,3.13714 z"
               style="fill:#ff6600;fill-opacity:1;fill-rule:nonzero;stroke:none;stroke-width:0.85500002;stroke-linecap:round;stroke-linejoin:round;stroke-miterlimit:4;stroke-dasharray:none;stroke-dashoffset:0;stroke-opacity:1" />
            <path
               style="fill:#ffff00;fill-opacity:1;fill-rule:nonzero;stroke:none;stroke-width:0.41382018;stroke-linecap:round;stroke-linejoin:round;stroke-miterlimit:4;stroke-dasharray:none;stroke-dashoffset:0;stroke-opacity:1"
               d="m 66.847275,145.25785 c 0.409974,0.50943 0.265785,1.04351 -0.129426,1.12802 -0.395204,0.0845 -0.68293,-0.22727 -0.822658,-0.86604 0,0 -0.130599,-1.38191 0.50149,-1.71834 0.447608,-0.23824 -0.315071,0.50493 0.450594,1.45636 z"
               id="path10965"
               inkscape:connector-curvature="0"
               sodipodi:nodetypes="sssss"
               inkscape:transform-center-y="-0.85008903"
               inkscape:transform-center-x="0.044744231" />
          </g>
        </g>
      </g>
      <g
         id="g11010">
        <g
           id="g10913"
           transform="translate(12.449594)">
          <path
             sodipodi:nodetypes="sssss"
             inkscape:connector-curvature="0"
             id="path10909"
             d="m 76.185825,146.50039 c 2e-6,1.35107 -0.676901,1.38799 -1.511905,1.38799 -0.835004,0 -1.511907,-0.0369 -1.511905,-1.38799 10e-7,-1.35106 0.676904,-3.50464 1.511905,-3.50464 0.835001,0 1.511904,2.15358 1.511905,3.50464 z"
             style="fill:#ff6600;fill-opacity:1;fill-rule:nonzero;stroke:none;stroke-width:0.85500002;stroke-linecap:round;stroke-linejoin:round;stroke-miterlimit:4;stroke-dasharray:none;stroke-dashoffset:0;stroke-opacity:1" />
          <path
             style="fill:#ffff00;fill-opacity:1;fill-rule:nonzero;stroke:none;stroke-width:0.39678267;stroke-linecap:round;stroke-linejoin:round;stroke-miterlimit:4;stroke-dasharray:none;stroke-dashoffset:0;stroke-opacity:1"
             d="m 75.375555,146.71508 c 0,0.627 -0.314132,0.64413 -0.701635,0.64413 -0.387503,0 -0.701636,-0.0171 -0.701635,-0.64413 10e-7,-0.62699 0.314133,-1.62641 0.701635,-1.62641 0.387501,0 0.701634,0.99942 0.701635,1.62641 z"
             id="path10911"
             inkscape:connector-curvature="0"
             sodipodi:nodetypes="sssss" />
        </g>
        <rect
           style="fill:#ececec;fill-opacity:1;fill-rule:nonzero;stroke:none;stroke-width:0.85500002;stroke-linecap:round;stroke-linejoin:round;stroke-miterlimit:4;stroke-dasharray:none;stroke-dashoffset:0;stroke-opacity:1"
           id="rect9355"
           width="4.2522321"
           height="12.000744"
           x="84.997398"
           y="147.88838"
           ry="0.56696504" />
        <g
           id="g10983"
           transform="translate(20.683639,1.1907827)">
          <g
             id="g10975">
            <path
               sodipodi:nodetypes="sssss"
               inkscape:connector-curvature="0"
               id="path10971"
               d="m 67.43812,144.72973 c 0.608219,1.20643 0.08613,2.22321 -0.748877,2.22321 -0.835004,0 -1.511907,-0.0369 -1.511905,-1.38799 10e-7,-1.35106 0.557171,-3.56572 1.979627,-3.97236 1.007295,-0.28795 -0.854741,0.88405 0.281155,3.13714 z"
               style="fill:#ff6600;fill-opacity:1;fill-rule:nonzero;stroke:none;stroke-width:0.85500002;stroke-linecap:round;stroke-linejoin:round;stroke-miterlimit:4;stroke-dasharray:none;stroke-dashoffset:0;stroke-opacity:1" />
            <path
               style="fill:#ffff00;fill-opacity:1;fill-rule:nonzero;stroke:none;stroke-width:0.41382018;stroke-linecap:round;stroke-linejoin:round;stroke-miterlimit:4;stroke-dasharray:none;stroke-dashoffset:0;stroke-opacity:1"
               d="m 66.847275,145.25785 c 0.409974,0.50943 0.265785,1.04351 -0.129426,1.12802 -0.395204,0.0845 -0.68293,-0.22727 -0.822658,-0.86604 0,0 -0.130599,-1.38191 0.50149,-1.71834 0.447608,-0.23824 -0.315071,0.50493 0.450594,1.45636 z"
               id="path10973"
               inkscape:connector-curvature="0"
               sodipodi:nodetypes="sssss"
               inkscape:transform-center-y="-0.85008903"
               inkscape:transform-center-x="0.044744231" />
          </g>
          <g
             transform="matrix(-1,0,0,1,132.87975,0)"
             id="g10981">
            <path
               style="fill:#ff6600;fill-opacity:1;fill-rule:nonzero;stroke:none;stroke-width:0.85500002;stroke-linecap:round;stroke-linejoin:round;stroke-miterlimit:4;stroke-dasharray:none;stroke-dashoffset:0;stroke-opacity:1"
               d="m 67.43812,144.72973 c 0.608219,1.20643 0.08613,2.22321 -0.748877,2.22321 -0.835004,0 -1.511907,-0.0369 -1.511905,-1.38799 10e-7,-1.35106 0.557171,-3.56572 1.979627,-3.97236 1.007295,-0.28795 -0.854741,0.88405 0.281155,3.13714 z"
               id="path10977"
               inkscape:connector-curvature="0"
               sodipodi:nodetypes="sssss" />
            <path
               inkscape:transform-center-x="0.044744231"
               inkscape:transform-center-y="-0.85008903"
               sodipodi:nodetypes="sssss"
               inkscape:connector-curvature="0"
               id="path10979"
               d="m 66.847275,145.25785 c 0.409974,0.50943 0.265785,1.04351 -0.129426,1.12802 -0.395204,0.0845 -0.68293,-0.22727 -0.822658,-0.86604 0,0 -0.130599,-1.38191 0.50149,-1.71834 0.447608,-0.23824 -0.315071,0.50493 0.450594,1.45636 z"
               style="fill:#ffff00;fill-opacity:1;fill-rule:nonzero;stroke:none;stroke-width:0.41382018;stroke-linecap:round;stroke-linejoin:round;stroke-miterlimit:4;stroke-dasharray:none;stroke-dashoffset:0;stroke-opacity:1" />
          </g>
        </g>
      </g>
    </g>
  </g>
</svg>
