<svg width="200" height="500" viewBox="0 0 200 500" fill="none" xmlns="http://www.w3.org/2000/svg">
<rect width="200" height="500" fill="white"/>
<path d="M128 90C128 90 112 90 100 90C60.2336 90 25.9124 131.811 37 170C47.2288 205.232 100 202 122 210C144 218 150 230.932 150 250C150 269.068 141 285 122 290C103 295 47.2288 294.768 37 330C25.9124 368.189 60.2336 410 100 410C106 410 128 410 128 410" stroke="#7FF40A" stroke-width="20"/>
<path d="M127 80C127 80 163 85.5 163 90C163 94.5 127 100 127 100V80Z" fill="#7FF40A"/>
<path d="M140 406.838H173L167.5 409.338L173 411.838H140V406.838Z" fill="#FF0303"/>
<path d="M127 399.838C127 399.838 130.5 394.838 141 387.338C147.623 382.607 162.438 382.277 164 383.838C166 385.838 167.648 394.359 163 396.838C155.5 400.838 144.67 402.93 143.5 410.338C142 419.838 157.5 418.238 153 426.338C148.5 434.438 127 419.838 127 419.838V399.838Z" fill="#7FF40A"/>
<circle cx="141" cy="396.838" r="6" fill="white"/>
<circle cx="141" cy="396.838" r="3" fill="black"/>
</svg>
