<svg class="heart" xmlns="http://www.w3.org/2000/svg" xmlns:xlink="http://www.w3.org/1999/xlink" viewBox="0 0 24 24">
  <defs>
    <linearGradient id="a">
      <stop class="heart__stopper" offset="0" />
      <stop offset="1" class="heart__ender"/>
    </linearGradient>
    <linearGradient xlink:href="#a" id="b" x1="2.637" y1="16.027" x2="21.614" y2="3.798" gradientUnits="userSpaceOnUse"/>
    <linearGradient xlink:href="#a" id="c" gradientUnits="userSpaceOnUse" x1="29.307" y1="2.069" x2="5.8" y2="26.705"/>
    <linearGradient xlink:href="#a" id="e" gradientUnits="userSpaceOnUse" x1="25.9" y1="14.375" x2="5.81" y2="2.438"/>
    <linearGradient xlink:href="#a" id="d" gradientUnits="userSpaceOnUse" x1="3.428" y1="17.825" x2="18.701" y2="7.034"/>
  </defs>
  <path class="heart__path heart__path--one" d="M6.831 20.44s3.727.514 5.178-.431c2.925-1.905 5.403-4.664 7.457-7.552.908-1.278 1.637-2.902 1.487-4.463" fill="none" stroke="url(#c)" stroke-width="2.5" stroke-linecap="round" stroke-linejoin="round"/>
  <path class="heart__path heart__path--three" d="M10.749 9.478c.576.576 1.868.576 2.444 0 .248-.248.112-.72 0-1.053-.43-1.278-1.382-2.393-2.444-3.222-.822-.642-1.835-1.162-2.875-1.23-1.105-.072-2.338.201-3.2.897-.938.758-1.592 1.998-1.687 3.2-.12 1.504.556 3.074 1.455 4.285 1.293 1.741 5.346 5.724 7.567 7.654" fill="none" stroke="url(#d)" stroke-width="2.5" stroke-linecap="round" stroke-linejoin="round"/>
  <path class="heart__path heart__path--two" d="M20.953 7.994c-.114-1.19-.818-2.388-1.76-3.124-.888-.693-2.136-.983-3.259-.897-.998.077-1.957.606-2.741 1.23-1.055.839-2.015 1.944-2.444 3.222-.112.333-.249.805 0 1.053" fill="none" stroke="url(#e)" stroke-width="2.5" stroke-linecap="round" stroke-linejoin="round"/>
  <path class="heart__stroke" d="M12.1 18.55l-.1.1-.11-.1C7.14 14.24 4 11.39 4 8.5 4 6.5 5.5 5 7.5 5c1.54 0 3.04 1 3.57 2.36h1.86C13.46 6 14.96 5 16.5 5c2 0 3.5 1.5 3.5 3.5 0 2.89-3.14 5.74-7.9 10.05M16.5 3c-1.74 0-3.41.81-4.5 2.08C10.91 3.81 9.24 3 7.5 3 4.42 3 2 5.41 2 8.5c0 3.77 3.4 6.86 8.55 11.53L12 21.35l1.45-1.32C18.6 15.36 22 12.27 22 8.5 22 5.41 19.58 3 16.5 3z"/>
  <path class="heart__fill" d="M16.5 3c-1.74 0-3.41.81-4.5 2.08C10.91 3.81 9.24 3 7.5 3 4.42 3 2 5.41 2 8.5c0 3.77 3.4 6.86 8.55 11.53L12 21.35l1.45-1.32C18.6 15.36 22 12.27 22 8.5 22 5.41 19.58 3 16.5 3z" fill="none" />
</svg>