<?xml version="1.0" encoding="UTF-8" standalone="no"?>
<svg
   xmlns:dc="http://purl.org/dc/elements/1.1/"
   xmlns:cc="http://creativecommons.org/ns#"
   xmlns:rdf="http://www.w3.org/1999/02/22-rdf-syntax-ns#"
   xmlns:svg="http://www.w3.org/2000/svg"
   xmlns="http://www.w3.org/2000/svg"
   xmlns:sodipodi="http://sodipodi.sourceforge.net/DTD/sodipodi-0.dtd"
   xmlns:inkscape="http://www.inkscape.org/namespaces/inkscape"
   version="1.1"
   width="40"
   height="40"
   viewBox="0 0 40 40"
   id="svg4"
   sodipodi:docname="new-heart.svg"
   inkscape:version="0.92.2 5c3e80d, 2017-08-06">
  <metadata
     id="metadata10">
    <rdf:RDF>
      <cc:Work
         rdf:about="">
        <dc:format>image/svg+xml</dc:format>
        <dc:type
           rdf:resource="http://purl.org/dc/dcmitype/StillImage" />
        <dc:title></dc:title>
      </cc:Work>
    </rdf:RDF>
  </metadata>
  <defs
     id="defs8">
    <clipPath
       id="clip0">
      <path
         id="path6719"
         d="M 0,0 H 8844 V 132 H 0 Z"
         inkscape:connector-curvature="0"
         style="fill:#ffffff" />
    </clipPath>
    <clipPath
       id="clip0-4">
      <path
         id="path17250"
         d="M 0,0 H 8844 V 132 H 0 Z"
         inkscape:connector-curvature="0"
         style="fill:#ffffff" />
    </clipPath>
    <clipPath
       id="clip0-0">
      <path
         id="path28994"
         d="M 0,0 H 8844 V 132 H 0 Z"
         inkscape:connector-curvature="0"
         style="fill:#ffffff" />
    </clipPath>
    <clipPath
       id="clip0-48">
      <path
         id="path40690"
         d="M 0,0 H 8844 V 132 H 0 Z"
         inkscape:connector-curvature="0"
         style="fill:#ffffff" />
    </clipPath>
    <clipPath
       id="clip0-7">
      <path
         id="path51039"
         d="M 0,0 H 8844 V 132 H 0 Z"
         inkscape:connector-curvature="0"
         style="fill:#ffffff" />
    </clipPath>
  </defs>
  <sodipodi:namedview
     pagecolor="#ffffff"
     bordercolor="#666666"
     borderopacity="1"
     objecttolerance="10"
     gridtolerance="10"
     guidetolerance="10"
     inkscape:pageopacity="0"
     inkscape:pageshadow="2"
     inkscape:window-width="2039"
     inkscape:window-height="1231"
     id="namedview6"
     showgrid="false"
     inkscape:zoom="3.4766084"
     inkscape:cx="-124.60394"
     inkscape:cy="119.58291"
     inkscape:window-x="0"
     inkscape:window-y="660"
     inkscape:window-maximized="0"
     inkscape:current-layer="layer7"
     fit-margin-top="0"
     fit-margin-left="0"
     fit-margin-right="0"
     fit-margin-bottom="0" />
  <g
     inkscape:groupmode="layer"
     id="layer7"
     inkscape:label="CircleHeart"
     style="opacity:1"
     transform="translate(20.807942,-6.753464)">
    <g
       id="g55643"
       transform="matrix(0.13836119,0,0,0.13836119,328.15023,68.231813)">
      <path
         id="path48129"
         d="m -2444.8747,-178.13226 a 17.731414,17.731414 0 0 0 11.5249,-22.60756 17.731414,17.731414 0 0 0 -22.1643,-11.96871 17.731414,17.731414 0 0 0 -11.9677,22.16427 17.731414,17.731414 0 0 0 22.1643,12.412 z"
         inkscape:connector-curvature="0"
         style="fill:#c9ddec;stroke-width:4.4328537" />
      <path
         id="path48143"
         d="m -2441.1216,-177.67437 a 17.676387,17.676387 0 0 0 15.4668,-19.88594 17.676387,17.676387 0 0 0 -19.886,-15.90875 17.676387,17.676387 0 0 0 -15.9082,20.32785 17.676387,17.676387 0 0 0 20.3274,15.46684 z"
         inkscape:connector-curvature="0"
         style="fill:#d9edf7;stroke-width:4.41909695" />
      <path
         id="path48141"
         d="m -2432.0336,-177.63844 a 18.180714,18.180714 0 0 0 15.9082,-20.90782 18.180714,18.180714 0 0 0 -20.452,-15.90813 18.180714,18.180714 0 0 0 -15.9082,20.45331 18.180714,18.180714 0 0 0 20.452,16.36264 z"
         inkscape:connector-curvature="0"
         style="fill:#d7ebf6;stroke-width:4.54517841" />
      <path
         id="path48139"
         d="m -2420.9465,-179.04313 a 18.677204,18.677204 0 0 0 16.3426,-21.01187 18.677204,18.677204 0 0 0 -21.0119,-16.34255 18.677204,18.677204 0 0 0 -16.809,21.01186 18.677204,18.677204 0 0 0 21.4783,16.34256 z"
         inkscape:connector-curvature="0"
         style="fill:#d4e9f4;stroke-width:4.66930103" />
      <path
         id="path48137"
         d="m -2410.9551,-180.96681 a 18.180666,18.180666 0 0 0 15.9081,-20.45325 18.180666,18.180666 0 0 0 -20.4533,-16.3626 18.180666,18.180666 0 0 0 -15.9081,20.90776 18.180666,18.180666 0 0 0 20.4533,15.90809 z"
         inkscape:connector-curvature="0"
         style="fill:#d2e6f2;stroke-width:4.54516649" />
      <path
         id="path48135"
         d="m -2402.4209,-182.81608 a 18.221133,18.221133 0 0 0 15.4886,-20.95431 18.221133,18.221133 0 0 0 -20.9538,-15.48796 18.221133,18.221133 0 0 0 -15.4886,20.95431 18.221133,18.221133 0 0 0 20.9538,15.48796 z"
         inkscape:connector-curvature="0"
         style="fill:#d0e4f1;stroke-width:4.55528307" />
      <path
         id="path48133"
         d="m -2393.6383,-184.62594 a 18.227202,18.227202 0 0 0 14.5821,-21.87265 18.227202,18.227202 0 0 0 -21.8738,-14.58177 18.227202,18.227202 0 0 0 -14.1256,21.87265 18.227202,18.227202 0 0 0 21.4173,14.58177 z"
         inkscape:connector-curvature="0"
         style="fill:#cee2ef;stroke-width:4.55680084" />
      <path
         id="path48131"
         d="m -2384.9321,-186.73824 a 17.658496,17.658496 0 0 0 13.2439,-22.07313 17.658496,17.658496 0 0 0 -22.0731,-12.8024 17.658496,17.658496 0 0 0 -12.8017,22.07311 17.658496,17.658496 0 0 0 22.0732,12.80242 z"
         inkscape:connector-curvature="0"
         style="fill:#cbdfee;stroke-width:4.41462421" />
      <path
         id="path48127"
         d="m -2377.0272,-189.17033 a 18.70398,18.70398 0 0 0 11.223,-24.31516 18.70398,18.70398 0 0 0 -24.3156,-11.22239 18.70398,18.70398 0 0 0 -11.223,24.31516 18.70398,18.70398 0 0 0 24.3156,11.22239 z"
         inkscape:connector-curvature="0"
         style="fill:#c7dbea;stroke-width:4.67599487" />
      <path
         id="path48125"
         d="m -2367.6464,-193.45604 a 18.782972,18.782972 0 0 0 9.3916,-25.357 18.782972,18.782972 0 0 0 -24.4183,-9.3915 18.782972,18.782972 0 0 0 -9.8605,24.88745 c 4.2254,9.39148 15.0267,14.08722 24.8872,9.39148 z"
         inkscape:connector-curvature="0"
         style="fill:#c4d9e9;stroke-width:4.69574308" />
      <path
         id="path40512"
         d="m -2433.2065,-225.88362 c 7.7544,7.04947 19.3861,7.04947 26.788,-1.05743 7.0495,-7.40194 7.0495,-19.38605 -0.7049,-26.43553 -7.7545,-7.04947 -19.3861,-7.04947 -26.7881,0.70495 -7.0494,7.75442 -7.0494,19.38606 0.705,26.78801 z"
         inkscape:connector-curvature="0"
         style="fill:#c65581;stroke-width:3.52473736" />
      <path
         id="path40514"
         d="m -2440.9609,-233.99052 c 7.0494,7.40195 18.6811,8.1069 26.4355,0.70495 7.7544,-7.04948 8.1069,-18.68111 1.0574,-26.43553 a 18.681108,18.681108 0 0 0 -26.788,-1.05742 18.681108,18.681108 0 0 0 -1.0574,26.788 z"
         inkscape:connector-curvature="0"
         style="fill:#c45580;stroke-width:3.52473736" />
      <path
         id="path40516"
         d="m -2448.7153,-242.80236 c 7.0494,8.10689 18.3286,9.16431 26.4355,2.11484 8.1069,-7.04948 9.1643,-18.32864 2.4673,-26.43553 a 18.681108,18.681108 0 0 0 -26.788,-2.11484 18.681108,18.681108 0 0 0 -2.1148,26.43553 z"
         inkscape:connector-curvature="0"
         style="fill:#c2557f;stroke-width:3.52473736" />
      <path
         id="path40518"
         d="m -2456.1173,-251.61421 a 18.681108,18.681108 0 0 0 26.788,3.17227 18.681108,18.681108 0 0 0 2.8198,-26.78801 18.681108,18.681108 0 0 0 -26.4355,-2.81979 18.681108,18.681108 0 0 0 -3.1723,26.43553 z"
         inkscape:connector-curvature="0"
         style="fill:#c1557e;stroke-width:3.52473736" />
      <path
         id="path40520"
         d="m -2462.8143,-260.42605 c 5.9921,8.45937 17.6237,10.22174 26.4355,3.52474 8.4594,-5.99206 10.2218,-17.62369 3.8772,-26.08306 a 18.681108,18.681108 0 0 0 -26.4355,-3.87721 c -8.4594,6.34452 -10.5742,17.62369 -3.8772,26.43553 z"
         inkscape:connector-curvature="0"
         style="fill:#c0557d;stroke-width:3.52473736" />
      <path
         id="path40522"
         d="m -2469.1588,-269.94284 c 5.6396,8.81184 16.9187,11.27916 25.7306,5.2871 8.8118,-5.99205 11.2791,-17.62368 5.2871,-26.08305 a 18.681108,18.681108 0 0 0 -26.0831,-5.28711 18.681108,18.681108 0 0 0 -5.2871,26.08306 z"
         inkscape:connector-curvature="0"
         style="fill:#bf567d;stroke-width:3.52473736" />
      <path
         id="path40524"
         d="m -2475.5034,-279.45963 a 18.681108,18.681108 0 0 0 25.7306,6.697 18.681108,18.681108 0 0 0 7.0495,-26.08306 18.681108,18.681108 0 0 0 -26.083,-6.697 18.681108,18.681108 0 0 0 -7.0495,26.08306 z"
         inkscape:connector-curvature="0"
         style="fill:#be577d;stroke-width:3.52473736" />
      <path
         id="path40526"
         d="m -2481.1429,-289.3289 a 18.681108,18.681108 0 0 0 25.3781,8.1069 18.681108,18.681108 0 0 0 8.4593,-25.37811 18.681108,18.681108 0 0 0 -25.0256,-8.45937 18.681108,18.681108 0 0 0 -8.8118,25.37811 z"
         inkscape:connector-curvature="0"
         style="fill:#bd587d;stroke-width:3.52473736" />
      <path
         id="path40528"
         d="m -2485.7251,-299.90311 c 3.8772,9.51679 14.8039,14.09895 24.6732,10.57421 a 18.681108,18.681108 0 0 0 10.5742,-24.67316 18.681108,18.681108 0 0 0 -24.6732,-10.57421 18.681108,18.681108 0 0 0 -10.5742,24.67316 z"
         inkscape:connector-curvature="0"
         style="fill:#bd5c7e;stroke-width:3.52473736" />
      <path
         id="path40530"
         d="m -2489.2498,-310.8298 a 18.681108,18.681108 0 0 0 23.2632,12.68906 18.681108,18.681108 0 0 0 13.0416,-23.26327 18.681108,18.681108 0 0 0 -23.6158,-13.04153 18.681108,18.681108 0 0 0 -13.0415,23.61574 z"
         inkscape:connector-curvature="0"
         style="fill:#bc5c7d;stroke-width:3.52473736" />
      <path
         id="path40532"
         d="m -2492.0696,-322.10896 c 1.7624,10.57422 11.2791,17.27122 21.8534,15.50885 10.5742,-1.76237 17.2712,-11.63163 15.5088,-21.85337 -1.7624,-10.57421 -11.6316,-17.27122 -21.8534,-15.50885 -10.5742,1.76237 -17.2712,11.27916 -15.5088,21.85337 z"
         inkscape:connector-curvature="0"
         style="fill:#bd5d7e;stroke-width:3.52473736" />
      <path
         id="path40534"
         d="m -2493.127,-333.38812 c 0,10.57422 8.8118,18.32864 19.7385,17.62369 10.5742,0 18.3286,-8.81184 17.6237,-19.38605 0,-10.57422 -8.8119,-18.68111 -19.3861,-17.97616 -10.5742,0.35247 -18.6811,8.81184 -17.9761,19.73852 z"
         inkscape:connector-curvature="0"
         style="fill:#be5f80;stroke-width:3.52473736" />
      <path
         id="path40536"
         d="m -2493.127,-345.01975 c -0.705,10.57421 7.0494,19.38606 17.6236,20.091 10.5743,1.05743 19.3861,-6.697 20.0911,-16.91873 1.0574,-10.57422 -7.0495,-19.73853 -17.2713,-20.44348 -10.5742,-1.05742 -19.386,6.697 -20.4434,17.27121 z"
         inkscape:connector-curvature="0"
         style="fill:#bf6181;stroke-width:3.52473736" />
      <path
         id="path40538"
         d="m -2491.3647,-356.29891 c -2.1148,10.22174 4.2297,20.09101 14.4515,22.20585 10.5742,2.11484 20.4434,-3.87721 22.5583,-14.09895 2.1148,-10.57421 -4.2297,-20.44348 -14.4514,-22.55832 -10.5743,-2.46732 -20.4435,3.87721 -22.5584,14.09895 z"
         inkscape:connector-curvature="0"
         style="fill:#c06382;stroke-width:3.52473736" />
      <path
         id="path40540"
         d="m -2488.1924,-367.57807 c -3.5247,9.86927 1.0574,20.44348 10.9267,24.67316 9.8692,3.52474 20.7959,-1.40989 24.6731,-10.92668 3.5248,-10.22174 -1.4099,-20.79595 -10.9266,-24.67316 -10.2218,-3.52474 -20.796,1.05742 -24.6732,10.92668 z"
         inkscape:connector-curvature="0"
         style="fill:#c16483;stroke-width:3.52473736" />
      <path
         id="path40542"
         d="m -2483.2578,-377.79981 a 18.681108,18.681108 0 0 0 7.0495,25.73059 c 8.8118,5.2871 20.4435,2.46731 25.7306,-6.697 5.2871,-9.16432 2.4673,-20.44348 -7.0495,-25.73059 a 18.681108,18.681108 0 0 0 -25.7306,6.697 z"
         inkscape:connector-curvature="0"
         style="fill:#c26684;stroke-width:3.52473736" />
      <path
         id="path40544"
         d="m -2476.2083,-387.3166 c -7.0495,8.1069 -6.3445,19.73853 1.7624,26.43553 8.1069,7.04948 19.7385,6.34453 26.788,-1.76236 7.0494,-7.75443 5.992,-19.73853 -2.1149,-26.43553 a 18.681108,18.681108 0 0 0 -26.4355,1.76236 z"
         inkscape:connector-curvature="0"
         style="fill:#c36885;stroke-width:3.52473736" />
      <path
         id="path40546"
         d="m -2468.1014,-395.07102 a 18.681108,18.681108 0 0 0 -2.8198,26.08306 18.681108,18.681108 0 0 0 26.4355,3.52474 18.681108,18.681108 0 0 0 3.1723,-26.78801 18.681108,18.681108 0 0 0 -26.788,-3.17226 z"
         inkscape:connector-curvature="0"
         style="fill:#c46a86;stroke-width:3.52473736" />
      <path
         id="path40548"
         d="m -2458.2321,-401.76802 a 18.681108,18.681108 0 0 0 -8.1069,25.73058 18.681108,18.681108 0 0 0 25.7305,8.1069 18.681108,18.681108 0 0 0 7.7545,-25.73058 18.681108,18.681108 0 0 0 -25.3781,-8.1069 z"
         inkscape:connector-curvature="0"
         style="fill:#c56b87;stroke-width:3.52473736" />
      <path
         id="path40550"
         d="m -2447.6579,-405.9977 a 18.681108,18.681108 0 0 0 -12.3366,23.61574 18.681108,18.681108 0 0 0 23.6157,12.68905 18.681108,18.681108 0 0 0 12.3366,-23.61574 18.681108,18.681108 0 0 0 -23.6157,-12.68905 z"
         inkscape:connector-curvature="0"
         style="fill:#c66d88;stroke-width:3.52473736" />
      <path
         id="path40552"
         d="m -2436.0263,-408.46502 c -10.5742,1.4099 -17.6237,10.57421 -16.9187,21.14842 1.4099,10.57422 10.5742,17.62369 21.1484,16.56627 10.5742,-1.05742 17.6237,-10.57421 16.5663,-21.14842 -1.4099,-10.57422 -10.5743,-17.62369 -21.1485,-16.56627 z"
         inkscape:connector-curvature="0"
         style="fill:#c76f89;stroke-width:3.52473736" />
      <path
         id="path40554"
         d="m -2424.7471,-408.46502 c -10.5742,-0.70495 -19.0336,7.04948 -20.091,17.62369 -0.705,10.57421 7.0494,19.38605 17.6237,20.091 10.5742,0.70495 19.386,-7.04948 20.091,-17.62369 0.7049,-10.57421 -7.0495,-19.38605 -17.6237,-20.091 z"
         inkscape:connector-curvature="0"
         style="fill:#c8708b;stroke-width:3.52473736" />
      <path
         id="path40556"
         d="m -2413.1155,-406.70265 c -10.5742,-2.46732 -20.091,3.52474 -22.5583,14.09895 -2.4673,10.22174 3.5247,20.091 14.0989,22.55832 10.2218,2.46731 20.091,-3.52474 22.5583,-14.09895 2.4674,-10.57421 -3.5247,-20.091 -14.0989,-22.55832 z"
         inkscape:connector-curvature="0"
         style="fill:#c9728c;stroke-width:3.52473736" />
      <path
         id="path40558"
         d="m -2402.1888,-403.53039 c -9.8693,-3.52473 -20.4435,1.05742 -24.3207,10.92669 -3.5247,9.86926 1.0574,20.79595 10.5742,24.67316 10.2217,3.52474 21.1484,-1.05742 24.6732,-10.92669 3.5247,-9.86926 -1.0575,-20.79595 -10.5742,-24.67316 z"
         inkscape:connector-curvature="0"
         style="fill:#ca748d;stroke-width:3.52473736" />
      <path
         id="path40560"
         d="m -2391.6146,-398.59576 a 18.681108,18.681108 0 0 0 -25.7306,7.75443 18.681108,18.681108 0 0 0 7.7544,25.73058 c 9.5168,4.93463 20.796,1.40989 25.7306,-7.75442 4.9347,-9.51679 1.4099,-20.79595 -7.7544,-25.73059 z"
         inkscape:connector-curvature="0"
         style="fill:#cb768e;stroke-width:3.52473736" />
      <path
         id="path40562"
         d="m -2381.7453,-392.6037 a 18.681108,18.681108 0 0 0 -26.4356,4.93463 18.681108,18.681108 0 0 0 4.9347,26.43553 c 8.8118,5.99205 20.4434,3.52474 26.4355,-5.28711 5.992,-8.45937 3.5247,-20.091 -4.9346,-26.08305 z"
         inkscape:connector-curvature="0"
         style="fill:#cc778f;stroke-width:3.52473736" />
      <path
         id="path40564"
         d="m -2372.9335,-385.55423 a 18.681108,18.681108 0 0 0 -26.4355,2.11484 c -7.0495,8.1069 -5.9921,19.73853 2.1148,26.43554 8.1069,7.04947 20.091,5.99205 26.788,-2.11485 7.0495,-8.10689 5.9921,-19.73853 -2.4673,-26.43553 z"
         inkscape:connector-curvature="0"
         style="fill:#cd7990;stroke-width:3.52473736" />
      <path
         id="path40566"
         d="m -2364.4741,-377.79981 a 18.681108,18.681108 0 0 0 -26.4356,-0.35247 18.681108,18.681108 0 0 0 -0.7049,26.43553 c 7.0495,7.75442 19.0336,7.75442 26.788,0.70495 7.4019,-7.40195 7.7544,-19.03358 0.3525,-26.78801 z"
         inkscape:connector-curvature="0"
         style="fill:#ce7b91;stroke-width:3.52473736" />
      <path
         id="path40568"
         d="m -2357.0722,-368.98796 a 18.681108,18.681108 0 0 0 -26.4355,-3.52474 18.681108,18.681108 0 0 0 -3.5247,26.43553 18.681108,18.681108 0 0 0 26.4355,3.52474 18.681108,18.681108 0 0 0 3.5247,-26.43553 z"
         inkscape:connector-curvature="0"
         style="fill:#cf7d92;stroke-width:3.52473736" />
      <path
         id="path40570"
         d="m -2350.3752,-359.82364 a 18.681108,18.681108 0 0 0 -25.7306,-6.69701 18.681108,18.681108 0 0 0 -7.0494,25.73059 18.681108,18.681108 0 0 0 25.7305,7.04947 18.681108,18.681108 0 0 0 7.0495,-25.73058 z"
         inkscape:connector-curvature="0"
         style="fill:#d07e93;stroke-width:3.52473736" />
      <path
         id="path40572"
         d="m -2345.793,-349.24943 c -3.5248,-9.86927 -14.099,-14.45143 -23.9682,-10.92669 a 18.791346,18.791346 0 1 0 13.0415,35.24737 c 9.8693,-3.52473 14.8039,-14.09894 11.2792,-24.32068 z"
         inkscape:connector-curvature="0"
         style="fill:#d18094;stroke-width:3.52473736" />
      <path
         id="path40574"
         d="m -2342.6208,-337.6178 c -1.4098,-10.57421 -10.5742,-17.97616 -21.1484,-16.91874 -10.5742,1.05742 -17.6237,10.57421 -16.5662,20.79595 1.0574,10.57421 10.5742,17.62369 20.7959,16.91874 10.5742,-1.40989 17.6237,-10.57421 16.9187,-21.14842 z"
         inkscape:connector-curvature="0"
         style="fill:#d28296;stroke-width:3.52473736" />
      <path
         id="path40576"
         d="m -2342.9732,-325.98617 c 1.4099,-10.57421 -5.6396,-19.73853 -16.2138,-21.14842 -10.5742,-1.76237 -19.7385,5.28711 -21.1484,15.50884 -1.7624,10.57422 5.2871,20.09101 15.8613,21.5009 10.5742,1.4099 19.7385,-5.2871 21.1484,-15.86132 z"
         inkscape:connector-curvature="0"
         style="fill:#d38497;stroke-width:3.52473736" />
      <path
         id="path40578"
         d="m -2346.1455,-314.70701 c 4.2297,-9.86926 0,-20.79595 -9.8693,-24.67316 a 18.681108,18.681108 0 0 0 -24.6731,9.51679 18.681108,18.681108 0 0 0 9.5168,24.67316 c 9.8692,4.22969 20.7959,0 24.6731,-9.51679 z"
         inkscape:connector-curvature="0"
         style="fill:#d48598;stroke-width:3.52473736" />
      <path
         id="path40580"
         d="m -2352.49,-304.83774 c 7.0495,-8.1069 6.3445,-19.73853 -1.7624,-26.78801 a 18.681108,18.681108 0 0 0 -26.4355,1.76237 c -7.0495,7.75442 -6.3445,19.73853 1.4099,26.43553 8.1069,7.04948 19.7385,6.34453 26.788,-1.40989 z"
         inkscape:connector-curvature="0"
         style="fill:#d58799;stroke-width:3.52473736" />
      <path
         id="path40582"
         d="m -2361.6543,-297.43579 a 18.681108,18.681108 0 0 0 7.0494,-25.73059 18.681108,18.681108 0 0 0 -25.3781,-7.40195 18.681108,18.681108 0 0 0 -7.4019,25.73059 18.681108,18.681108 0 0 0 25.7306,7.04947 z"
         inkscape:connector-curvature="0"
         style="fill:#d6899a;stroke-width:3.52473736" />
      <path
         id="path40584"
         d="m -2372.9335,-293.55858 c 10.5742,-1.76237 17.6237,-11.27916 15.5088,-21.85337 -1.7623,-10.57422 -11.2791,-17.27122 -21.5008,-15.50885 -10.5743,1.76237 -17.6237,11.27916 -15.5089,21.85337 1.7624,10.57421 11.2792,17.27122 21.8534,15.50885 z"
         inkscape:connector-curvature="0"
         style="fill:#d78b9b;stroke-width:3.52473736" />
      <path
         id="path40586"
         d="m -2384.5651,-293.55858 c 10.5742,1.76237 20.091,-4.93464 21.8533,-15.50885 1.7624,-10.22174 -4.9346,-20.091 -15.1563,-21.85337 -10.5742,-1.76237 -20.091,4.93463 -21.8534,15.15637 -2.1148,10.57421 4.5822,20.091 15.1564,22.20585 z"
         inkscape:connector-curvature="0"
         style="fill:#d78c9c;stroke-width:3.52473736" />
      <path
         id="path40588"
         d="m -2395.4918,-297.78827 c 8.8118,5.28711 20.4435,2.46732 25.7306,-7.04947 5.2871,-8.81185 2.4673,-20.09101 -6.697,-25.37811 a 18.681108,18.681108 0 0 0 -25.7306,6.697 18.681108,18.681108 0 0 0 6.697,25.73058 z"
         inkscape:connector-curvature="0"
         style="fill:#d88e9d;stroke-width:3.52473736" />
      <path
         id="path40590"
         d="m -2404.6561,-305.54269 a 18.681108,18.681108 0 0 0 26.788,2.46732 18.681108,18.681108 0 0 0 2.4673,-26.43553 18.681108,18.681108 0 0 0 -26.4355,-2.46732 18.681108,18.681108 0 0 0 -2.8198,26.43553 z"
         inkscape:connector-curvature="0"
         style="fill:#d9909e;stroke-width:3.52473736" />
      <path
         id="path40592"
         d="m -2410.6482,-315.41195 c 4.2297,9.51679 14.8039,14.09894 24.6732,10.57421 a 18.681108,18.681108 0 0 0 10.5742,-24.67316 18.681108,18.681108 0 0 0 -24.6732,-10.57422 18.681108,18.681108 0 0 0 -10.5742,24.67317 z"
         inkscape:connector-curvature="0"
         style="fill:#da919f;stroke-width:3.52473736" />
      <path
         id="path40594"
         d="m -2413.468,-326.69111 c 1.4099,10.57421 10.5742,17.62368 21.1484,15.86131 10.5743,-1.40989 17.6237,-10.57421 16.2138,-21.14842 -1.4099,-10.57421 -10.5742,-17.62369 -21.1484,-16.21379 -10.5742,1.40989 -17.6237,10.57421 -16.2138,21.14842 z"
         inkscape:connector-curvature="0"
         style="fill:#db93a0;stroke-width:3.52473736" />
      <path
         id="path40596"
         d="m -2413.8204,-338.67522 c -1.0575,10.57421 6.3445,19.73853 16.9187,21.14842 10.5742,0.70495 19.386,-6.34452 20.4435,-16.91874 1.4099,-10.57421 -6.3446,-19.73853 -16.5663,-20.79595 -10.5742,-1.05742 -19.7385,6.34453 -21.1484,16.91874 z"
         inkscape:connector-curvature="0"
         style="fill:#dc95a2;stroke-width:3.52473736" />
      <path
         id="path40598"
         d="m -2411.0007,-349.60191 c -3.5247,9.51679 0.705,20.44348 10.5743,24.32069 9.8692,3.52474 21.1484,-1.05742 24.6731,-10.57421 a 18.681108,18.681108 0 0 0 -10.5742,-24.67316 18.681108,18.681108 0 0 0 -24.6732,10.57421 z"
         inkscape:connector-curvature="0"
         style="fill:#dd97a3;stroke-width:3.52473736" />
      <path
         id="path40600"
         d="m -2405.7136,-359.82364 a 18.681108,18.681108 0 0 0 6.3446,25.73058 c 9.1643,5.2871 20.4435,2.46731 26.083,-6.697 5.2871,-9.16432 2.4673,-20.44348 -6.697,-25.73059 a 18.681108,18.681108 0 0 0 -26.083,6.34453 z"
         inkscape:connector-curvature="0"
         style="fill:#de98a4;stroke-width:3.52473736" />
      <path
         id="path40602"
         d="m -2399.369,-369.69291 a 18.681108,18.681108 0 0 0 3.5247,26.43553 18.681108,18.681108 0 0 0 26.0831,-2.81979 18.681108,18.681108 0 0 0 -3.1723,-26.788 18.681108,18.681108 0 0 0 -26.4355,3.52473 z"
         inkscape:connector-curvature="0"
         style="fill:#df9aa5;stroke-width:3.52473736" />
      <path
         id="path40604"
         d="m -2391.6146,-378.15228 c -7.402,7.40195 -7.402,19.03358 0,26.788 7.7544,7.04948 19.3861,7.04948 26.788,-0.35247 7.4019,-7.75442 7.0495,-19.38605 0,-26.788 a 18.681108,18.681108 0 0 0 -26.788,0 z"
         inkscape:connector-curvature="0"
         style="fill:#e09ca6;stroke-width:3.52473736" />
      <path
         id="path40606"
         d="m -2383.1552,-385.9067 a 18.681108,18.681108 0 0 0 -2.4673,26.43553 c 6.697,8.10689 18.3286,9.51679 26.4355,2.46732 8.1069,-6.69701 9.1643,-18.32864 2.4673,-26.43554 a 18.681108,18.681108 0 0 0 -26.4355,-2.46731 z"
         inkscape:connector-curvature="0"
         style="fill:#e19ea7;stroke-width:3.52473736" />
      <path
         id="path40608"
         d="m -2373.9909,-392.95618 a 18.681108,18.681108 0 0 0 -5.2871,26.43553 c 5.992,8.45937 17.6237,10.92669 26.083,5.28711 8.8119,-5.99205 11.2792,-17.62369 5.2871,-26.43553 a 18.681108,18.681108 0 0 0 -26.083,-5.28711 z"
         inkscape:connector-curvature="0"
         style="fill:#e29fa8;stroke-width:3.52473736" />
      <path
         id="path40610"
         d="m -2364.1217,-398.59576 a 18.681108,18.681108 0 0 0 -8.1068,25.37811 18.681108,18.681108 0 0 0 25.3781,8.1069 18.681108,18.681108 0 0 0 8.1069,-25.37811 18.681108,18.681108 0 0 0 -25.3782,-8.1069 z"
         inkscape:connector-curvature="0"
         style="fill:#e3a1a9;stroke-width:3.52473736" />
      <path
         id="path40612"
         d="m -2353.5474,-403.17791 a 18.853226,18.853226 0 1 0 13.394,35.24737 c 9.5168,-3.52474 14.4514,-14.45142 10.5742,-24.32069 -3.5248,-9.86926 -14.099,-14.80389 -23.9682,-10.92668 z"
         inkscape:connector-curvature="0"
         style="fill:#e4a3aa;stroke-width:3.52473736" />
      <path
         id="path40614"
         d="m -2342.6208,-406.70265 a 18.681108,18.681108 0 0 0 -14.0989,22.55832 c 2.4673,10.57421 12.3366,16.56626 22.5583,14.09895 10.5742,-2.11485 16.5663,-12.33658 14.099,-22.55832 -2.4674,-10.22174 -12.3366,-16.56627 -22.5584,-14.09895 z"
         inkscape:connector-curvature="0"
         style="fill:#e5a5ab;stroke-width:3.52473736" />
      <path
         id="path40616"
         d="m -2331.3416,-408.46502 c -10.5742,0.70495 -17.9762,9.86926 -17.2712,20.44348 1.0574,10.57421 9.8693,17.97616 20.4435,17.27121 10.5742,-0.70495 18.3286,-9.86927 17.2712,-20.44348 -0.705,-10.57421 -9.8693,-17.97616 -20.4435,-17.27121 z"
         inkscape:connector-curvature="0"
         style="fill:#e6a6ad;stroke-width:3.52473736" />
      <path
         id="path40618"
         d="m -2319.71,-408.46502 c -10.5742,-1.05742 -19.7385,6.34453 -20.7959,16.91874 -1.0574,10.57421 6.3445,19.73853 16.5663,20.79595 10.5742,1.05742 19.7385,-6.34453 21.1484,-16.91874 1.0574,-10.57421 -6.3446,-19.73853 -16.9188,-20.79595 z"
         inkscape:connector-curvature="0"
         style="fill:#e7a8ae;stroke-width:3.52473736" />
      <path
         id="path40620"
         d="m -2308.4308,-405.9977 c -9.8693,-3.52474 -20.4435,2.11484 -23.6157,12.33658 -3.5248,9.86926 2.1148,20.44347 11.9841,23.61574 10.5742,3.52473 20.7959,-2.11485 23.9682,-11.98411 3.5247,-10.57421 -2.1149,-20.79595 -12.3366,-23.96821 z"
         inkscape:connector-curvature="0"
         style="fill:#e8aaaf;stroke-width:3.52473736" />
      <path
         id="path40622"
         d="m -2297.5041,-401.41554 a 18.681108,18.681108 0 0 0 -25.7306,7.75442 18.681108,18.681108 0 0 0 7.7544,25.37811 c 9.1643,5.2871 20.4435,1.76236 25.3781,-7.40195 5.2871,-9.51679 1.7624,-20.79595 -7.7544,-25.73058 z"
         inkscape:connector-curvature="0"
         style="fill:#e9abb0;stroke-width:3.52473736" />
      <path
         id="path40624"
         d="m -2287.9873,-395.07102 a 18.681108,18.681108 0 0 0 -26.4356,3.17227 18.681108,18.681108 0 0 0 3.1723,26.43553 18.681108,18.681108 0 0 0 26.4355,-3.17227 18.681108,18.681108 0 0 0 -3.1722,-26.43553 z"
         inkscape:connector-curvature="0"
         style="fill:#eaadb1;stroke-width:3.52473736" />
      <path
         id="path40626"
         d="m -2279.528,-387.3166 a 18.681108,18.681108 0 0 0 -26.788,-1.40989 18.681108,18.681108 0 0 0 -1.4099,26.788 c 7.0495,7.75442 18.6812,8.45937 26.4356,1.4099 8.1069,-7.04948 8.8118,-18.68111 1.7623,-26.78801 z"
         inkscape:connector-curvature="0"
         style="fill:#ebafb2;stroke-width:3.52473736" />
      <path
         id="path40628"
         d="m -2272.4785,-377.79981 a 18.681108,18.681108 0 0 0 -26.083,-6.34452 18.681108,18.681108 0 0 0 -6.3446,26.08305 18.681108,18.681108 0 0 0 26.0831,5.99206 18.681108,18.681108 0 0 0 6.3445,-25.73059 z"
         inkscape:connector-curvature="0"
         style="fill:#ecb1b3;stroke-width:3.52473736" />
      <path
         id="path40630"
         d="m -2267.5439,-367.57807 a 18.681108,18.681108 0 0 0 -24.6731,-10.57421 18.681108,18.681108 0 0 0 -10.5742,24.67316 c 4.2297,9.86927 15.1563,14.09895 24.6731,10.57421 a 18.681108,18.681108 0 0 0 10.5742,-24.67316 z"
         inkscape:connector-curvature="0"
         style="fill:#edb2b4;stroke-width:3.52473736" />
      <path
         id="path40632"
         d="m -2264.0191,-356.29891 c -2.1149,-10.57421 -12.3366,-16.91874 -22.5583,-14.09895 -10.5742,2.11485 -16.5663,11.98411 -14.099,22.20585 2.1149,10.57421 11.9841,16.56626 22.5583,14.09895 10.2218,-2.11484 16.5663,-11.98411 14.099,-22.55832 z"
         inkscape:connector-curvature="0"
         style="fill:#eeb4b5;stroke-width:3.52473736" />
      <path
         id="path40634"
         d="m -2262.2567,-345.01975 c -0.705,-10.57421 -9.8693,-18.32863 -20.4435,-17.62368 -10.5742,1.05742 -17.9762,9.86926 -17.2712,20.44347 0.7049,10.57421 9.8692,18.32864 20.4434,17.62369 10.5743,-1.05742 17.9762,-9.86927 17.2713,-20.44348 z"
         inkscape:connector-curvature="0"
         style="fill:#efb6b6;stroke-width:3.52473736" />
      <path
         id="path40636"
         d="m -2261.9043,-333.74059 c 0.3525,-10.57421 -7.4019,-19.03358 -17.9761,-19.73853 -10.5742,-0.70495 -19.3861,7.04948 -20.091,17.62369 -0.3525,10.57421 7.4019,19.38605 17.6237,20.091 10.9266,0.70495 19.7385,-7.04947 20.4434,-17.62369 z"
         inkscape:connector-curvature="0"
         style="fill:#f0b8b8;stroke-width:3.52473736" />
      <path
         id="path40638"
         d="m -2263.6666,-322.10896 c 2.1148,-10.57421 -4.5822,-20.091 -14.8039,-22.20584 -10.5742,-1.76237 -20.4435,4.93463 -22.2059,15.15637 -2.1148,10.57421 4.5822,20.091 15.1564,21.85337 10.5742,2.11484 20.091,-4.58216 21.8534,-14.8039 z"
         inkscape:connector-curvature="0"
         style="fill:#f1b9b9;stroke-width:3.52473736" />
      <path
         id="path40640"
         d="m -2266.134,-311.18227 c 2.8198,-9.86926 -2.8197,-20.091 -12.689,-23.26327 -10.2217,-3.17226 -20.4435,2.46732 -23.6157,12.68906 -3.1723,9.86926 2.4673,20.44347 12.689,23.26326 10.2217,3.17227 20.4435,-2.46731 23.6157,-12.68905 z"
         inkscape:connector-curvature="0"
         style="fill:#f1bbba;stroke-width:3.52473736" />
      <path
         id="path40642"
         d="m -2270.0112,-300.25558 a 18.681108,18.681108 0 0 0 -10.5742,-24.67317 18.681108,18.681108 0 0 0 -24.6731,10.57422 18.681108,18.681108 0 0 0 10.5742,24.67316 18.681108,18.681108 0 0 0 24.6731,-10.57421 z"
         inkscape:connector-curvature="0"
         style="fill:#f2bdbb;stroke-width:3.52473736" />
      <path
         id="path40644"
         d="m -2274.5933,-289.68137 c 4.5821,-9.51679 0.7049,-20.44348 -8.8119,-25.37811 a 18.681108,18.681108 0 0 0 -25.3781,8.81184 18.681108,18.681108 0 0 0 8.8119,25.37811 c 9.8692,4.58216 20.7959,0.70495 25.3781,-8.81184 z"
         inkscape:connector-curvature="0"
         style="fill:#f3bfbc;stroke-width:3.52473736" />
      <path
         id="path40646"
         d="m -2279.8804,-279.81211 c 5.2871,-9.16432 2.1148,-20.091 -7.0495,-25.37811 a 18.681108,18.681108 0 0 0 -26.0831,7.04948 18.681108,18.681108 0 0 0 7.402,25.73058 c 9.1643,5.28711 20.4435,2.11485 25.7306,-7.04947 z"
         inkscape:connector-curvature="0"
         style="fill:#f4c0bd;stroke-width:3.52473736" />
      <path
         id="path40648"
         d="m -2285.8725,-269.94284 c 5.6396,-8.81184 3.5248,-20.09101 -5.6396,-25.73059 a 18.681108,18.681108 0 0 0 -26.083,5.63958 18.681108,18.681108 0 0 0 5.6396,26.08306 c 9.1643,5.63958 20.4434,3.17227 26.083,-5.99205 z"
         inkscape:connector-curvature="0"
         style="fill:#f5c2be;stroke-width:3.52473736" />
      <path
         id="path40650"
         d="m -2292.217,-260.42605 a 18.681108,18.681108 0 0 0 -4.5822,-26.08306 18.681108,18.681108 0 0 0 -26.083,4.22969 18.681108,18.681108 0 0 0 4.5821,26.43553 18.681108,18.681108 0 0 0 26.0831,-4.58216 z"
         inkscape:connector-curvature="0"
         style="fill:#f6c4bf;stroke-width:3.52473736" />
      <path
         id="path40652"
         d="m -2298.914,-251.26173 a 18.681108,18.681108 0 0 0 -3.5247,-26.43553 18.681108,18.681108 0 0 0 -26.4356,3.52473 18.681108,18.681108 0 0 0 3.5248,26.43553 18.681108,18.681108 0 0 0 26.4355,-3.52473 z"
         inkscape:connector-curvature="0"
         style="fill:#f7c5c0;stroke-width:3.52473736" />
      <path
         id="path40654"
         d="m -2305.9635,-242.44989 c 7.0495,-7.75442 5.6396,-19.73853 -2.4673,-26.43553 a 18.681108,18.681108 0 0 0 -26.4355,2.11484 c -7.0495,8.1069 -5.9921,19.73853 2.1148,26.78801 8.1069,6.697 19.7385,5.63958 26.788,-2.46732 z"
         inkscape:connector-curvature="0"
         style="fill:#f8c7c1;stroke-width:3.52473736" />
      <path
         id="path40656"
         d="m -2313.3654,-233.63805 c 7.0494,-7.75442 6.697,-19.38605 -1.0575,-26.788 -7.7544,-7.04948 -19.7385,-7.04948 -26.788,0.70495 -7.0494,8.10689 -7.0494,19.73853 1.0575,26.788 7.7544,7.04948 19.386,7.04948 26.788,-0.70495 z"
         inkscape:connector-curvature="0"
         style="fill:#f9c9c2;stroke-width:3.52473736" />
      <path
         id="path40658"
         d="m -2321.4723,-225.88362 c 7.4019,-7.04948 7.7544,-18.68111 0.7049,-26.43553 a 18.681108,18.681108 0 0 0 -26.788,-0.70495 18.681108,18.681108 0 0 0 -0.7049,26.43553 c 7.0494,7.75442 19.0335,8.10689 26.788,1.05742 z"
         inkscape:connector-curvature="0"
         style="fill:#facbc4;stroke-width:3.52473736" />
      <path
         id="path40660"
         d="m -2330.2842,-218.1292 c 8.1069,-6.697 9.1643,-18.32864 2.4673,-26.43553 a 18.681108,18.681108 0 0 0 -26.4355,-2.46732 18.681108,18.681108 0 0 0 -2.4673,26.43553 c 7.0495,8.1069 18.3286,9.16432 26.4355,2.46732 z"
         inkscape:connector-curvature="0"
         style="fill:#fbccc5;stroke-width:3.52473736" />
      <path
         id="path40662"
         d="m -2339.096,-211.07973 c 8.4594,-6.34453 10.2217,-17.62368 3.8772,-26.43553 -6.3445,-8.45937 -17.6237,-10.22174 -26.4355,-3.87721 a 18.681108,18.681108 0 0 0 -3.8772,26.43553 c 6.3445,8.45937 17.6236,10.22174 26.4355,3.87721 z"
         inkscape:connector-curvature="0"
         style="fill:#fccec6;stroke-width:3.52473736" />
      <path
         id="path40664"
         d="m -2348.6128,-204.7352 a 18.681108,18.681108 0 0 0 5.6396,-25.73058 18.681108,18.681108 0 0 0 -26.0831,-5.63958 18.681108,18.681108 0 0 0 -5.6396,26.08305 18.681108,18.681108 0 0 0 26.0831,5.63958 z"
         inkscape:connector-curvature="0"
         style="fill:#fdd0c7;stroke-width:3.52473736" />
      <path
         id="path40666"
         d="m -2358.1296,-198.39067 a 18.681108,18.681108 0 0 0 7.0495,-26.08306 18.681108,18.681108 0 0 0 -26.0831,-7.04947 18.681108,18.681108 0 0 0 -7.0495,26.08305 18.681108,18.681108 0 0 0 26.0831,7.04948 z"
         inkscape:connector-curvature="0"
         style="fill:#fed2c8;stroke-width:3.52473736" />
      <path
         id="path40668"
         d="m -2367.6464,-193.45604 a 18.681108,18.681108 0 0 0 8.4594,-25.37811 18.681108,18.681108 0 0 0 -25.3781,-8.45937 18.681108,18.681108 0 0 0 -8.4594,25.37811 18.681108,18.681108 0 0 0 25.7306,8.45937 z"
         inkscape:connector-curvature="0"
         style="fill:#ffd2c8;stroke-width:3.52473736" />
      <path
         id="path40670"
         d="m -2387.0009,-192.53173 c 9.5168,4.93463 20.4435,1.05742 25.3781,-8.45937 4.5822,-9.16432 1.0575,-20.44348 -8.1069,-25.37811 a 18.681108,18.681108 0 0 0 -25.3781,8.45937 18.681108,18.681108 0 0 0 8.1069,25.37811 z"
         inkscape:connector-curvature="0"
         style="fill:#c3557f;stroke-width:3.52473736" />
      <path
         id="path40672"
         d="m -2398.6641,-200.15304 a 17.623686,17.623686 0 0 0 24.6732,-6.697 c 5.2871,-8.81185 2.4673,-19.73853 -6.3445,-24.67316 a 17.97616,17.97616 0 0 0 -24.6732,6.697 17.623686,17.623686 0 0 0 6.697,24.67316 z"
         inkscape:connector-curvature="0"
         style="fill:#c3557f;stroke-width:3.52473736" />
      <path
         id="path40674"
         d="m -2406.4185,-204.7352 c 8.8118,5.63958 20.4435,3.52474 26.0831,-5.63958 5.992,-8.81184 3.5247,-20.44348 -5.2871,-26.08306 a 18.681108,18.681108 0 0 0 -26.0831,5.63958 18.681108,18.681108 0 0 0 5.2871,26.08306 z"
         inkscape:connector-curvature="0"
         style="fill:#c3557f;stroke-width:3.52473736" />
      <path
         id="path40676"
         d="m -2415.5828,-211.4322 a 18.681108,18.681108 0 0 0 26.083,-3.87721 18.681108,18.681108 0 0 0 -3.5247,-26.43553 18.681108,18.681108 0 0 0 -26.4355,3.87721 18.681108,18.681108 0 0 0 3.5247,26.43553 z"
         inkscape:connector-curvature="0"
         style="fill:#c3557f;stroke-width:3.52473736" />
      <path
         id="path40678"
         d="m -2424.7471,-218.48168 c 8.1069,7.04948 19.7385,5.99206 26.788,-2.46731 6.697,-7.75442 5.6395,-19.73853 -2.4673,-26.43553 a 18.681108,18.681108 0 0 0 -26.4356,2.46731 c -7.0495,8.1069 -5.992,19.73853 2.1149,26.43553 z"
         inkscape:connector-curvature="0"
         style="fill:#c3557f;stroke-width:3.52473736" />
    </g>
  </g>
  <g
     inkscape:groupmode="layer"
     id="layer3"
     inkscape:label="Outline"
     style="display:inline;opacity:1"
     transform="translate(20.807942,-6.753464)">
    <path
       style="opacity:1;fill:#e0245e;stroke-width:0.63999909"
       inkscape:connector-curvature="0"
       d="m -0.808027,41.793442 c -4.159871,0 -15.999915,-10.751984 -15.999915,-20.927969 0,-4.863994 4.032017,-9.151987 8.575904,-9.151987 3.647991,0 6.144098,2.559996 7.424011,4.351994 1.280093,-1.855997 3.7760092,-4.351994 7.424,-4.351994 4.544053,0 8.576085,4.287993 8.576085,9.151987 0,10.175984 -11.8400591,20.863968 -16.000085,20.927969 z m -7.424011,-27.71196 c -3.263974,0 -6.208006,3.199996 -6.208006,6.783991 0,9.151985 11.200005,18.495972 13.632017,18.559972 2.432002,-0.064 13.631992,-9.407987 13.631992,-18.559972 0,-3.583995 -2.943842,-6.783991 -6.207992,-6.783991 -4.031842,0 -6.271911,4.671993 -6.336015,4.735994 -0.319923,0.895998 -1.791949,0.895998 -2.17598,0 0,0 -2.303998,-4.735994 -6.336016,-4.735994 z"
       id="path40686" />
    <path
       sodipodi:nodetypes="csscssc"
       style="opacity:1;fill:#e0245e;stroke-width:0.5925926"
       inkscape:connector-curvature="0"
       d="M -0.8079418,41.805315 C -4.9560986,41.686796 -16.807942,31.020131 -16.807942,20.886797 c 0,-4.918515 4.029635,-9.185184 8.5925958,-9.185184 3.6740657,0 6.1036819,2.548148 7.4074044,4.385186 1.3036932,-1.837038 3.733324,-4.385186 7.4074098,-4.385186 4.562955,0 8.59259,4.266669 8.59259,9.185184 0,10.074076 -11.8518577,20.799999 -15.9999998,20.918518 z"
       id="path40682" />
  </g>
  <g
     inkscape:groupmode="layer"
     id="layer1"
     inkscape:label="Fill"
     style="display:inline;opacity:1"
     transform="translate(20.807942,-6.753464)" />
</svg>
