<svg xmlns="http://www.w3.org/2000/svg" width="463.2" height="706.26" viewBox="0 0 122.56 186.86">
  <g>
    <g transform="rotate(13.2 423.46 260.76)">
      <g transform="matrix(1.00005 .009 .00435 1.23105 3.63 -10.17)">
        <rect width="3.21" height="36.66" x="23.06" y="173.97" ry="0" fill="#f60"/>
        <rect ry="0" y="173.97" x="24.8" height="36.66" width="3.21" fill="#fc0"/>
        <rect ry="0" y="173.97" x="26.55" height="36.66" width="3.21" fill="#f95"/>
        <rect width="3.21" height="36.66" x="28.3" y="173.97" ry="0" fill="#fc0"/>
        <rect ry="0" y="173.97" x="30.05" height="36.66" width="1.98" fill="#f60"/>
      </g>
      <g transform="translate(5.26 37.53)">
        <ellipse cy="207.33" cx="26.27" rx="4.72" ry="4.63" fill="#fc0"/>
        <circle cx="23.53" cy="210.16" r="3.59" fill="#ffb380"/>
        <circle r="3.87" cy="209.12" cx="29.86" fill="#ff7f2a"/>
        <circle cx="25.51" cy="212.71" r="3.59" fill="#fc0"/>
        <circle r="3.59" cy="211.58" cx="31.37" fill="#fd5"/>
        <circle cx="22.4" cy="212.43" r="3.59" fill="#f60"/>
        <circle r="22.03" cy="212.43" cx="22.4" fill="#f60"/>
      </g>
      <path d="M31.13 191.35h2.65l3.17 12.85H26.9l4.23-12.85z" fill="#999" stroke="#000" stroke-width="2.65" stroke-linecap="round" stroke-linejoin="round"/>
      <g>
        <g transform="matrix(1.00005 .009 .00435 1.23105 -10.27 -10.09)">
          <rect ry="0" y="173.97" x="23.06" height="36.66" width="3.21" fill="#f60"/>
          <rect width="3.21" height="36.66" x="24.8" y="173.97" ry="0" fill="#fc0"/>
          <rect width="3.21" height="36.66" x="26.55" y="173.97" ry="0" fill="#f95"/>
          <rect ry="0" y="173.97" x="28.3" height="36.66" width="3.21" fill="#fc0"/>
          <rect width="1.98" height="36.66" x="30.05" y="173.97" ry="0" fill="#f60"/>
        </g>
        <g transform="translate(-8.64 37.61)">
          <ellipse ry="4.63" rx="4.72" cx="26.27" cy="207.33" fill="#fc0"/>
          <circle r="3.59" cy="210.16" cx="23.53" fill="#ffb380"/>
          <circle cx="29.86" cy="209.12" r="3.87" fill="#ff7f2a"/>
          <circle r="3.59" cy="212.71" cx="25.51" fill="#fc0"/>
          <circle cx="31.37" cy="211.58" r="3.59" fill="#fd5"/>
          <circle r="3.59" cy="212.43" cx="22.4" fill="#f60"/>
          <circle cx="22.4" cy="212.43" r="22.03" fill="#f60"/>
        </g>
        <path d="M17.24 191.43h2.64l3.18 12.86H13l4.24-12.86z" fill="#999" stroke="#000" stroke-width="2.65" stroke-linecap="round" stroke-linejoin="round"/>
      </g>
      <rect width="28.01" height="34.44" x="15.1" y="162.04" ry="2.76" fill="#999" stroke="#000" stroke-width="2.65" stroke-linecap="round" stroke-linejoin="round"/>
    </g>
    <g transform="translate(36.5 -57.14)" stroke="#000" stroke-width="2.65" stroke-linecap="round" stroke-linejoin="round">
      <ellipse cx="-28.2" cy="190.88" rx="5.75" ry="8.15" transform="rotate(-19.79)" fill="#502d16"/>
      <path fill="#803300" d="M38.09 166.72l9.85 2.71-5.05 18.36-9.86-2.71z"/>
      <path fill="#e6e6e6" d="M35.77 171.24l11.86 3.26-2.41 8.78L33.35 180z"/>
    </g>
    <g transform="translate(19.4 -57.14)" stroke="#000" stroke-width="2.65" stroke-linecap="round" stroke-linejoin="round">
      <ellipse transform="rotate(-19.79)" ry="8.15" rx="5.75" cy="190.88" cx="-28.2" fill="#502d16"/>
      <path fill="#803300" d="M38.09 166.72l9.85 2.71-5.05 18.36-9.86-2.71z"/>
      <path fill="#e6e6e6" d="M35.77 171.24l11.86 3.26-2.41 8.78L33.35 180z"/>
    </g>
    <g stroke="#000">
      <path fill="#4d4d4d" stroke-width="2.65" stroke-linecap="round" stroke-linejoin="round" d="M90.16 77.18L80.02 85.2l12.47 15.78 10.14-8.02z"/>
      <path d="M84 73.02a10.2 13.6-44.67 0111.4 4.85 10.2 13.6-44.67 013.02 4.1L82.13 93.37a10.2 13.6-44.67 01-1.25-1.14 10.2 13.6-44.67 01-2.3-16.85A10.2 13.6-44.67 0184 73.02z" fill="#520" stroke-width="2.65" stroke-linecap="round" stroke-linejoin="round"/>
      <g transform="rotate(-36.87 -29.53 38.86)">
        <path fill="#502d16" stroke-width="2.41" stroke-linecap="round" stroke-linejoin="round" d="M29.36 156.46h16.11v7.99H29.36z"/>
        <path d="M34.24 156.4v7.74M40.6 156.58v7.94" fill="none" stroke-width="1.32"/>
        <ellipse ry="3.31" rx="3.4" cy="167.26" cx="47.06" fill="#502d16" stroke-width="2.65" stroke-linecap="round" stroke-linejoin="round"/>
        <rect ry="4.14" y="163.98" x="28" height="12.41" width="18.84" fill="#502d16" stroke-width="2.65" stroke-linecap="round" stroke-linejoin="round"/>
      </g>
    </g>
    <path fill="#502d16" stroke="#000" stroke-width="2.5" stroke-linecap="round" stroke-linejoin="round" d="M53.18 72.76H84.7v38.32H53.18z"/>
    <g stroke="#000" stroke-width="2.65" stroke-linecap="round" stroke-linejoin="round">
      <path d="M60.5 108.98a15.15 22.31 40.87 0017.56-9.64 15.15 22.31 40.87 003.15-26.79 15.15 22.31 40.87 00-3.37-1.94 15.15 22.31 40.87 01-6.67 20.74 15.15 22.31 40.87 01-22.69 8.9A15.15 22.31 40.87 0052 106.3a15.15 22.31 40.87 008.5 2.68z" fill="#520"/>
      <path fill="#ccc" d="M54.15 100.2l5.13-2.4 6.09 13-5.13 2.4zM68.74 90.76l4.6-3.33 8.43 11.63-4.6 3.33zM61.62 97.11l4.63-3.27 8.28 11.73-4.63 3.27z"/>
    </g>
    <g stroke="#000" stroke-linecap="round" stroke-linejoin="round">
      <path fill="#28170b" stroke-width="2.54" d="M50.93 107.14h36.01v6.91h-36z"/>
      <path fill="#ccc" stroke-width="2.65" d="M62.41 103.9h13.04v13.41H62.41z"/>
    </g>
    <g transform="translate(-12.25 -57.7)">
      <path d="M79.37 64.05c-14.08 0-25.64 11.92-28.7 28.1-2.16 11.39-2.2 28.03-2.2 40.65l30.9 5.3h15.46l15.46-5.3c-.34-4.49-1.8-39.1-2.2-40.65-4.08-15.96-14.63-28.1-28.72-28.1z" fill="#ccc" fill-opacity=".9" stroke="#000" stroke-width="2.420907" stroke-linecap="round" stroke-linejoin="round"/>
      <path d="M81.75 66.6c-14.08 0-25.65 11.91-28.7 28.1-2.16 11.38-2.21 28.02-2.21 40.65l.27.04c.05-12.66.37-27.7 2.6-38.4 3.47-16.67 16.23-29.12 31.99-30.07-1.28-.21-2.6-.32-3.95-.32z" fill="#fff" fill-opacity=".9"/>
      <path d="M80.98 64.11v35.27h12V68.32a23.98 23.98 0 00-12-4.21z" fill="#ccc" stroke="#999" stroke-width="2.8230685999999996" stroke-linecap="round" stroke-linejoin="round"/>
      <path d="M51.35 89.11c-.26 1-.49 2.01-.69 3.04-2.15 11.39-2.2 28.03-2.2 40.65l30.91 5.3h15.46l15.46-5.3c-.34-4.49-1.8-39.1-2.2-40.65a55.13 55.13 0 00-.87-3.04z" fill="gray" fill-opacity=".9" stroke="#000" stroke-width="2.6458" stroke-linecap="round" stroke-linejoin="round"/>
      <path d="M50.69 92.04l-.03.11c-.32 1.74-.6 1.5-.84 3.45l30.93 2.11h12.3l15.46-2.11c-.18-3.07-.33-3.1-.42-3.45l-.03-.1z"/>
      <path d="M80.98 92.04h12v46.49h-12z"/>
      <path d="M49.85 97.49c-1.35 10.85-1.39 24.55-1.39 35.31l30.48 5.22v-14.34c0-14.4-14.58-26.09-29.1-26.2z" fill="#1a1a1a"/>
      <path d="M49.04 103.8c-.56 8.83-.58 21.04-.58 29l30.51 5.23c-.2-13.02-14.41-28.34-22.98-31.6z" fill="#ccc"/>
      <path d="M108.55 98.43c-8.07 3-14.06 13.93-14.06 26.97v12.7h.34l15.46-5.3c-.26-3.38-1.15-23.8-1.74-34.37z" fill="#1a1a1a"/>
      <path d="M108.9 105.14c-6.95 5.27-14.22 21.84-14.22 32.83v.12h.15l15.46-5.29c-.2-2.75-.84-16.82-1.39-27.66z" fill="#ccc"/>
      <path d="M79.37 64.05c-14.08 0-25.64 11.92-28.7 28.1-2.16 11.39-2.2 28.03-2.2 40.65l30.9 5.3h15.46l15.46-5.3c-.34-4.49-1.8-39.1-2.2-40.65-4.08-15.96-14.63-28.1-28.72-28.1z" fill="none" stroke="#000" stroke-width="2.420907" stroke-linecap="round" stroke-linejoin="round"/>
      <path d="M79.37 64.05c-14.08 0-25.64 11.92-28.7 28.1-2.16 11.39-2.2 28.03-2.2 40.65l30.9 5.3h15.46l15.46-5.3c-.34-4.49-1.8-39.1-2.2-40.65-4.08-15.96-14.63-28.1-28.72-28.1z" fill="none" stroke="#000" stroke-width="2.420907" stroke-linecap="round" stroke-linejoin="round"/>
      <path fill="gray" stroke="#000" stroke-width="2.42" stroke-linecap="round" stroke-linejoin="round" d="M44.2 94.44h11.63v39.22H44.2z"/>
      <ellipse cx="50.01" cy="94.26" rx="5.75" ry="7.28" fill="#ccc" stroke="#000" stroke-width="2.65" stroke-linecap="round" stroke-linejoin="round"/>
      <path d="M44.22 116.14h7.18M44.22 124.6h7.18M44.22 120.37h7.18" fill="none" stroke="#000" stroke-width="2.65"/>
      <rect ry="1.51" y="91.09" x="47.54" height="6.33" width="4.95" fill="#4d4d4d"/>
    </g>
    <g stroke="#000">
      <path fill="#4d4d4d" stroke-width="2.65" stroke-linecap="round" stroke-linejoin="round" d="M45.51 87.47l4.85-11.99L69 83.01l-4.84 12z"/>
      <path d="M39.8 82.74a13.6 10.2 28.33 007.85 9.56 13.6 10.2 28.33 004.8 1.75l6.33-18.84a13.6 10.2 28.33 00-1.45-.87 13.6 10.2 28.33 00-16.82 2.52 13.6 10.2 28.33 00-.72 5.88z" fill="#520" stroke-width="2.65" stroke-linecap="round" stroke-linejoin="round"/>
      <g transform="rotate(-68 -1.56 103.2)">
        <path fill="#502d16" stroke-width="2.41" stroke-linecap="round" stroke-linejoin="round" d="M29.36 156.46h16.11v7.99H29.36z"/>
        <path d="M34.24 156.4v7.74M40.6 156.58v7.94" fill="none" stroke-width="1.32"/>
        <ellipse ry="3.31" rx="3.4" cy="167.26" cx="47.06" fill="#502d16" stroke-width="2.65" stroke-linecap="round" stroke-linejoin="round"/>
        <rect ry="4.14" y="163.98" x="28" height="12.41" width="18.84" fill="#502d16" stroke-width="2.65" stroke-linecap="round" stroke-linejoin="round"/>
      </g>
    </g>
    <g transform="translate(134.3 -78.98)">
      <circle r="4.28" cy="150.8" cx="-51.85" fill="none" stroke="#000" stroke-width="2.65" stroke-linecap="round" stroke-linejoin="round"/>
      <path stroke="#000" stroke-width=".54" stroke-linecap="round" stroke-linejoin="round" d="M-43.18 133.41h3.44v6.12h-3.44z"/>
      <path d="M-65.17 140.52h12.64l-5.18 38.14-12.64-6.4z" fill="#666" stroke="#000" stroke-width="2.4" stroke-linecap="round" stroke-linejoin="round"/>
      <path fill="#333" stroke="#000" stroke-width="2.55" stroke-linecap="round" stroke-linejoin="round" d="M-70.88 138.19h49.55v9.45h-49.55z"/>
      <path stroke="#000" stroke-width=".54" stroke-linecap="round" stroke-linejoin="round" d="M-59.75 133.15h3.44v6.12h-3.44z"/>
      <path fill="#666" d="M-47.85 142.5h27.8v6.41h-27.8z"/>
      <path fill="none" stroke="#000" stroke-width="2.55" stroke-linecap="round" stroke-linejoin="round" d="M-70.88 138.19h49.55v9.45h-49.55z"/>
      <path stroke="#000" stroke-width="1.11" stroke-linecap="round" stroke-linejoin="round" d="M-35.57 134.47h-30.94v-2.87h30.94z"/>
      <rect transform="scale(-1)" ry="1.95" y="-136.64" x="62.26" height="7.22" width="5.35"/>
      <rect ry="1.95" y="140.65" x="-64.41" height="4.28" width="40.09" fill="red"/>
    </g>
    <g stroke="#000">
      <path fill="#4d4d4d" stroke-width="2.65" stroke-linecap="round" stroke-linejoin="round" d="M48.55 88.08l.06-12.93 20.11.1-.06 12.92z"/>
      <path d="M41.49 85.8a13.6 10.2 6.6 0010.83 5.98 13.6 10.2 6.6 005.1-.15l-1.09-19.85a13.6 10.2 6.6 00-1.66-.28 13.6 10.2 6.6 00-14.7 8.57 13.6 10.2 6.6 001.52 5.73z" fill="#520" stroke-width="2.65" stroke-linecap="round" stroke-linejoin="round"/>
      <g transform="rotate(-89.73 13.04 105.52)">
        <path fill="#502d16" stroke-width="2.41" stroke-linecap="round" stroke-linejoin="round" d="M29.36 156.46h16.11v7.99H29.36z"/>
        <path d="M34.24 156.4v7.74M40.6 156.58v7.94" fill="none" stroke-width="1.32"/>
        <ellipse ry="3.31" rx="3.4" cy="167.26" cx="47.06" fill="#502d16" stroke-width="2.65" stroke-linecap="round" stroke-linejoin="round"/>
        <rect ry="4.14" y="163.98" x="28" height="12.41" width="18.84" fill="#502d16" stroke-width="2.65" stroke-linecap="round" stroke-linejoin="round"/>
      </g>
    </g>
  </g>
</svg>