<svg viewBox="0 0 818 1289" fill="none" xmlns="http://www.w3.org/2000/svg">
<path fill-rule="evenodd" clip-rule="evenodd" d="M710.107 752.567C701.39 718.767 693.374 704.436 677.891 692.688C663.408 681.7 642.267 672.471 611.419 665.729C579.289 660.113 578.379 643.417 570.323 616.583C567.972 608.516 556.326 606.369 551.3 612.184C550.591 611.419 549.852 610.719 549.087 610.086C549.772 606.239 544.169 595.211 544.356 591.531C546.31 553.119 533.743 533.829 502.378 526.659C495.557 525.098 449.224 524.18 442.573 526.019C413.497 534.056 384.874 559.575 389.255 590.315C380.128 602.241 371.195 609.519 357.114 613.362C335.186 616.145 346.202 926.746 384.286 1112.83C400.626 1192.67 791.336 1056.78 773.681 1016.79C776.184 1009.46 771.622 1001.41 773.681 993.836C775.171 988.358 778.987 986.093 780.908 980.669C783.611 973.036 780.671 962.797 777.628 955.008C776.381 951.126 779.924 946.948 780.908 942.987C785.577 924.304 774.885 925.951 767.178 913.461C767.292 913.422 769.297 904.506 769.288 904.55C770.468 898.184 767.511 890.029 764.932 884.715C763.189 881.124 759.456 878.876 755.746 879.288C759.482 866.607 764.207 856.055 769.288 843.838C778.274 822.302 786.819 799.773 799.723 780.28C805.007 772.299 800.739 764.957 792.188 764.413C764.51 762.655 737.135 758.671 710.107 752.567Z" fill="#D08B5B"/>
<path fill-rule="evenodd" clip-rule="evenodd" d="M666.899 755.178L603.72 862.087C603.72 862.087 618.708 863.583 624.773 866.496C630.839 869.41 658.689 904.81 658.689 904.81L663.114 924.304L652.629 940.02L656.718 949.888C656.718 949.888 659.635 943.203 666.899 938.013C674.163 932.823 690.182 924.304 690.182 924.304C690.182 924.304 684.858 921.456 684.858 918.113C684.858 914.77 680.169 900.508 690.182 895.121C700.194 889.733 751.933 877.125 751.933 877.125L804.368 766.534L666.899 755.178Z" fill="#EC7495"/>
<path fill-rule="evenodd" clip-rule="evenodd" d="M385.058 614.087L585.673 649.292L677.891 692.688L692.945 704.285L603.72 862.087L465.949 887.22L430.849 978.379L438.014 1081.13L662.139 1054.42L758.817 1042.93L781.543 1134.67L777.438 1172.41L771.466 1191.54L531.796 1256.24C531.796 1256.24 409.753 1244.41 388.119 1244.41C366.485 1244.41 207.867 1260.16 207.867 1260.16L171.167 1256.24C171.167 1256.24 89.9682 1170.67 77.3744 1140.22C64.7805 1109.76 37.5474 924.638 37.5474 924.638L40.546 896.193L110.7 715.677C110.7 715.677 120.068 707.171 131.878 692.688C143.689 678.206 385.058 614.087 385.058 614.087Z" fill="#9DDADB"/>
<path fill-rule="evenodd" clip-rule="evenodd" d="M748.149 874.846C730.019 875.767 711.869 880.077 695.469 887.886C688.759 891.086 682.679 895.706 680.899 903.306C679.999 907.187 680.219 911.197 680.698 915.117C681.059 918.086 681.149 921.876 683.729 923.886C684.169 924.226 684.639 924.486 685.129 924.676C679.079 927.406 673.318 930.687 668.198 934.066C663.519 937.156 658.709 941.916 656.549 947.286C656.369 946.676 656.189 946.107 656.009 945.566C652.329 934.687 646.659 925.777 637.729 919.786C636.715 916.091 625.832 900.187 615.723 900.787C604.653 901.437 595.749 902.246 585.738 907.336C582.089 907.256 578.448 907.306 574.849 907.466C574.229 907.486 574.259 908.327 574.849 908.396C577.769 908.767 580.689 909.176 583.609 909.656C590.549 910.767 597.469 912.176 604.238 913.926C612.359 916.027 620.759 918.136 628.349 921.806C643.068 928.937 652.179 947.577 650.309 963.796C649.999 966.456 648.969 974.496 645.278 973.666C642.159 972.966 640.919 966.456 639.829 964.046C636.909 957.646 631.649 953.466 625.339 950.636C617.929 947.306 609.999 945.056 602.318 942.437C597.969 940.947 593.619 939.456 589.259 937.976C584.799 936.447 580.559 934.336 575.809 935.406C572.939 936.056 572.609 939.476 574.219 941.437C576.669 944.426 580.309 945.306 583.839 946.536C588.499 948.156 593.149 949.777 597.799 951.396C604.988 953.896 612.519 956.006 619.528 959.066L619.309 959.566C618.738 959.406 618.068 959.976 618.179 960.676C619.229 967.146 620.689 974.626 619.068 981.107C617.789 986.246 613.278 991.937 607.419 990.426C608.339 989.586 608.679 988.136 608.059 986.796C605.738 981.836 575.339 962.256 572.629 969.527C572.539 969.786 572.818 969.976 573.039 969.937C575.349 969.456 579.219 973.396 581.068 974.646C583.738 976.447 586.448 978.206 589.089 980.056C591.979 982.077 594.799 984.197 597.549 986.386C599.709 988.107 601.339 989.896 603.818 990.767C602.519 991.386 601.488 992.536 601.049 994.006C599.929 997.836 597.769 1001.09 594.019 1002.78C590.089 1004.54 585.659 1003.43 581.519 1003.86C575.879 1004.43 570.959 1007.11 566.849 1010.94C558.219 1019 553.889 1033.2 541.819 1037.01C534.609 1039.28 526.609 1037.85 519.309 1036.82C511.159 1035.67 503.219 1034.76 495.009 1035.96C487.149 1037.11 479.719 1039.83 472.539 1043.15C465.809 1046.26 458.369 1049.78 452.399 1054.42C451.169 1050.63 449.929 1046.88 448.988 1043.01C446.769 1033.86 445.569 1024.54 445.278 1015.14C445.009 1006.19 445.509 997.197 446.278 988.286C446.659 983.836 447.259 979.406 447.639 974.956C447.738 973.836 447.939 972.636 448.089 971.437C458.749 965.146 469.948 960.327 481.238 955.367C481.269 955.357 481.299 955.336 481.329 955.327C481.679 955.166 482.019 955.017 482.369 954.867C482.359 954.846 482.349 954.827 482.329 954.806C483.619 954.017 484.519 952.966 485.059 951.786C501.329 940.996 514.929 926.267 525.069 909.086C529.319 901.886 533.409 894.416 538.969 888.107C544.889 881.376 551.919 877.376 560.619 875.296C570.789 872.857 581.269 871.396 591.689 870.566C597.379 870.117 603.738 869.416 609.939 869.447C614.259 869.476 618.488 869.846 622.369 870.916C628.119 872.496 631.479 876.867 635.089 881.286C638.539 885.527 641.969 889.777 645.189 894.197C648.238 898.386 651.119 902.716 653.619 907.256C655.119 909.976 656.509 912.777 657.679 915.666C658.089 916.687 658.629 917.846 658.879 918.906C659.129 919.976 658.669 921.107 659.869 921.107C654.919 921.176 651.629 933.519 656.549 933.229C663.467 932.826 666.945 924.533 665.589 917.176C663.171 904.049 650.112 888.195 647.528 884.836C641.818 877.416 635.929 867.736 626.789 864.286C626.659 864.236 626.519 864.187 626.389 864.146C629.049 861.626 631.149 858.607 633.159 855.536C635.229 852.376 637.698 848.756 638.379 845.006C638.809 842.617 635.839 841.256 634.429 843.346C632.379 846.396 631.389 850.256 629.859 853.607C628.299 857.006 626.399 860.216 624.899 863.646C621.289 862.536 617.389 862.027 613.419 861.857C618.429 855.077 626.988 841.996 628.019 840.316C632.759 832.536 637.269 824.517 641.579 816.486C646.238 807.786 650.229 798.726 654.689 789.926C657.219 784.937 659.769 779.906 662.579 775.066C663.549 773.406 664.589 771.746 665.769 770.236C665.999 769.937 666.289 769.687 666.559 769.406C666.869 769.236 667.189 769.046 667.369 768.947C668.988 768.017 669.559 765.857 670.698 764.486C672.519 762.277 674.659 762.017 677.399 761.986C683.238 761.926 689.099 762.156 694.929 762.316C703.499 762.556 712.059 762.896 720.619 763.346C723.209 763.486 725.789 763.626 728.379 763.786C740.829 764.527 753.269 765.496 765.679 766.687C776.659 767.736 787.639 769.447 798.629 770.267C783.749 805.617 767.249 840.327 748.568 873.827C748.379 874.166 748.238 874.506 748.149 874.846ZM665.589 965.916C663.189 967.017 660.859 968.386 658.689 969.947C659.049 967.517 659.139 964.956 659.039 962.386C660.829 964.306 663.119 965.406 665.589 965.916ZM768.039 905.107C767.869 905.126 767.709 905.216 767.629 905.386C764.309 912.236 765.698 919.886 771.119 925.256C773.959 928.056 780.149 931.216 779.948 935.816C779.778 939.536 775.729 942.656 773.999 945.726C772.389 948.586 771.789 951.726 773.079 954.827C774.729 958.796 779.339 960.376 780.919 964.277C782.919 969.226 779.669 975.197 777.389 979.506C775.269 983.496 772.528 987.486 770.709 991.706C758.519 998.017 730.859 1009.48 727.528 1010.12C723.469 1010.91 719.399 1011.66 715.318 1012.36C707.488 1013.72 699.639 1014.98 691.769 1016.09C687.289 1016.72 682.799 1017.34 678.309 1017.83C674.389 1018.25 669.969 1018.82 666.809 1015.87C660.439 1009.91 664.009 999.916 668.039 993.896C668.119 993.777 668.119 993.666 668.089 993.566C671.889 992.676 675.679 991.636 679.459 990.906C686.729 989.506 694.049 988.327 701.379 987.277C716.439 985.126 731.599 983.706 746.738 982.277C750.488 981.916 750.528 976.017 746.738 976.367C724.988 978.357 703.129 980.246 681.669 984.437C676.289 985.476 670.948 986.656 665.639 987.986C663.129 988.607 660.439 989.577 657.809 989.607C657.649 989.607 657.488 989.607 657.329 989.596C652.179 989.437 651.429 985.027 654.259 981.357C654.609 980.906 654.969 980.456 655.339 980.027C660.339 974.066 666.568 970.086 672.988 965.966C680.179 964.986 687.349 962.806 694.389 961.206C711.769 957.246 729.149 953.286 746.539 949.336C749.948 948.556 748.499 943.316 745.089 944.086C731.889 947.077 718.689 950.066 705.488 953.056L686.169 957.437C682.309 958.306 677.488 960.056 672.948 960.687C670.709 960.996 668.539 961.036 666.579 960.577C660.249 959.077 659.929 951.166 662.659 946.466C665.719 941.187 671.499 937.886 676.629 934.896C685.519 929.706 694.979 925.976 704.219 921.676C705.859 921.316 707.499 920.956 709.139 920.596C718.679 918.496 729.579 917.466 738.559 913.617C741.249 912.476 739.778 908.236 737.119 908.296C730.149 908.447 722.859 910.926 716.049 912.396C708.679 913.996 701.299 915.586 693.929 917.176C693.189 917.336 688.809 918.736 688.149 918.426C687.729 918.226 687.579 916.767 687.439 915.806C686.988 912.646 686.659 909.327 687.149 906.156C688.229 899.046 694.159 895.706 700.159 892.976C713.519 886.906 728.169 883.107 742.749 881.586C746.109 881.236 749.469 881.017 752.849 880.906C756.818 880.786 760.089 880.086 762.099 883.996C765.259 890.156 766.999 898.077 768.039 905.107ZM749.485 1128.45C746.574 1118.38 747.366 1107.63 745.372 1097.36C744.343 1092.07 742.938 1086.81 741.404 1081.64C740.166 1077.46 738.101 1073.02 737.867 1068.66C737.853 1068.36 738.196 1068.2 738.432 1068.33C742.539 1070.68 745.693 1075.77 748.035 1079.76C750.839 1084.53 752.98 1089.53 754.707 1094.79C758.149 1105.26 760.975 1117.9 756.536 1128.45C755.215 1131.59 750.575 1132.22 749.485 1128.45ZM635.877 1204.67C631.539 1201.64 628.378 1197.41 624.699 1193.67C621.081 1190 626.737 1184.34 630.356 1188.02C633.495 1191.2 636.22 1195.18 639.914 1197.76C641.692 1199 642.515 1201.24 641.35 1203.23C640.32 1204.99 637.65 1205.9 635.877 1204.67ZM611.685 1088.32C619.604 1084.9 627.392 1081.17 635.68 1078.7C640.633 1077.23 642.73 1084.95 637.807 1086.41C630.174 1088.69 623.015 1092.07 615.723 1095.23C611.041 1097.25 606.972 1090.36 611.685 1088.32ZM528.055 1085.92C526.118 1081.15 533.861 1079.09 535.769 1083.8C537.966 1089.22 540.484 1094.5 542.681 1099.92C544.616 1104.7 536.875 1106.76 534.967 1102.05C532.77 1096.63 530.251 1091.35 528.055 1085.92ZM445.51 1181.34C444.22 1183.06 442.069 1183.99 440.037 1182.78C438.335 1181.76 437.296 1179.05 438.602 1177.31C442.415 1172.22 446.278 1167.2 450.747 1162.67C454.37 1159 460.024 1164.66 456.404 1168.33C452.413 1172.37 448.916 1176.8 445.51 1181.34ZM433.707 645.952C437.379 648.46 440.596 651.507 443.733 654.642C447.38 658.287 441.722 663.943 438.075 660.298C435.432 657.656 432.766 654.974 429.669 652.86C427.88 651.638 427.077 649.365 428.234 647.387C429.271 645.615 431.922 644.734 433.707 645.952ZM553.798 774.689C551.722 778.846 549.853 782.921 549.735 787.646C549.609 792.793 541.609 792.796 541.736 787.646C541.889 781.463 544.169 776.101 546.89 770.651C549.192 766.038 556.09 770.095 553.798 774.689ZM597.86 671.296C602.161 668.429 606.162 675.362 601.899 678.204C598.443 680.507 594.986 682.812 591.53 685.116C587.231 687.982 583.23 681.05 587.492 678.208C590.948 675.904 594.404 673.6 597.86 671.296ZM406.745 852.069C406.011 857.153 398.303 854.978 399.03 849.943C400.155 842.161 401.528 834.482 403.639 826.902C405.021 821.942 412.736 824.062 411.353 829.029C409.242 836.609 407.869 844.288 406.745 852.069ZM378.696 943.709C373.547 943.6 373.546 935.6 378.696 935.709C383.356 935.808 387.937 937.034 392.432 938.156C397.432 939.405 395.3 947.118 390.305 945.87C386.505 944.921 382.636 943.793 378.696 943.709ZM368.342 1128.31C366.573 1129.17 364.758 1129.94 362.97 1130.76C359.389 1132.4 355.81 1134.04 352.232 1135.68C344.778 1139.1 337.328 1142.54 329.885 1145.98C314.985 1152.88 299.97 1159.53 285.034 1166.35C269.803 1173.31 254.612 1180.36 239.44 1187.45C232.292 1190.79 225.09 1194 217.902 1197.25C211.756 1200.03 204.159 1204.89 197.412 1205.34C197.065 1205.37 196.949 1204.93 197.147 1204.7C199.696 1201.8 203.762 1200.12 207.112 1198.23C210.534 1196.31 214.02 1194.5 217.49 1192.66C224.724 1188.83 231.967 1185.02 239.271 1181.33C253.881 1173.93 268.519 1166.59 283.16 1159.26C298.092 1151.79 313.005 1144.26 328.068 1137.05C335.16 1133.65 342.259 1130.27 349.362 1126.89C353.21 1125.06 357.06 1123.24 360.91 1121.42C362.573 1120.63 364.219 1119.78 365.919 1119.08C368.178 1118.14 369.895 1118.33 372.225 1117.76C376.025 1116.82 377.67 1121.65 374.753 1123.75C372.351 1125.49 371.087 1126.97 368.342 1128.31ZM314.935 1210.34C314.114 1208.34 315.833 1205.92 317.729 1205.42C320 1204.82 321.821 1206.2 322.65 1208.21C324.843 1213.55 327.967 1218.44 331.988 1222.58C335.582 1226.27 329.928 1231.93 326.331 1228.23C321.292 1223.05 317.672 1217 314.935 1210.34ZM275.644 1081.93C271.997 1078.28 277.655 1072.63 281.301 1076.27L291.669 1086.64C295.316 1090.29 289.657 1095.94 286.012 1092.3L275.644 1081.93ZM169.274 1065.03C161.82 1067.21 153.126 1069.22 148.044 1075.58C147.796 1075.89 147.379 1075.49 147.528 1075.18C154.034 1061.69 172.692 1056.96 185.61 1052.24C194.747 1048.9 204.122 1046.12 213.576 1043.65C212.631 1032.86 215.237 1021.3 216.143 1010.57C217.11 999.114 217.897 987.626 218.301 976.132C218.714 964.407 218.814 952.603 218.428 940.875C218.044 929.19 216.527 917.648 215.863 906.002C215.799 904.876 217.367 904.822 217.705 905.753C221.631 916.56 223.308 928.531 224.586 939.926C225.902 951.665 226.339 963.37 226.171 975.177C225.997 987.317 225.291 999.428 224.322 1011.53C223.863 1017.26 223.33 1022.99 222.827 1028.72C222.443 1033.1 222.265 1037.44 221.373 1041.67C227.075 1040.27 232.79 1038.95 238.487 1037.66C256.653 1033.56 274.895 1029.76 292.985 1025.33C301.865 1023.15 310.618 1020.55 319.458 1018.23C327.782 1016.05 336.568 1013.41 345.114 1012.44C348.164 1012.09 348.552 1016.26 346.533 1017.68C339.587 1022.56 330.362 1025.95 322.339 1028.68C314.287 1031.42 305.917 1033.39 297.664 1035.42C280.453 1039.65 263.079 1043.11 245.731 1046.72C228.407 1050.32 211.05 1053.89 193.921 1058.34C185.672 1060.48 177.451 1062.63 169.274 1065.03ZM128.427 851.003C123.973 853.618 119.952 846.701 124.39 844.095C130.197 840.687 136.386 838.126 142.625 835.628C147.413 833.712 149.473 841.452 144.752 843.343C139.145 845.587 133.645 847.941 128.427 851.003ZM112.299 1148.22C107.833 1150.81 103.809 1143.89 108.262 1141.31C114.516 1137.69 121.365 1135.27 127.846 1132.09C132.457 1129.84 136.507 1136.74 131.883 1139C125.403 1142.17 118.553 1144.59 112.299 1148.22ZM105.045 979.505C109.363 983.607 115.126 985.538 120.56 987.693C125.298 989.57 123.22 997.304 118.433 995.407C111.663 992.722 104.767 990.271 99.3884 985.161C95.6464 981.607 101.313 975.96 105.045 979.505ZM152.816 750.38C157.563 752.242 155.484 759.976 150.689 758.095C145.371 756.009 139.879 754.421 134.561 752.335C129.815 750.473 131.893 742.74 136.688 744.62C142.006 746.706 147.498 748.294 152.816 750.38ZM237.089 659.372C242.133 658.522 244.281 666.232 239.216 667.087C232.932 668.148 226.744 669.389 220.784 671.695C215.971 673.557 213.906 665.819 218.657 663.981C224.618 661.675 230.806 660.433 237.089 659.372ZM264.934 880.955C260.309 878.681 264.367 871.785 268.971 874.048C273.823 876.433 278.85 878.277 284.144 879.404C289.185 880.478 287.038 888.189 282.017 887.119C276.059 885.849 270.39 883.638 264.934 880.955ZM291.233 756.14C296.213 754.776 298.319 762.495 293.36 763.855C284.635 766.245 275.652 767.488 266.863 769.615C261.854 770.827 259.735 763.111 264.736 761.901C273.525 759.773 282.509 758.532 291.233 756.14ZM402.799 716.972C407.863 717.909 405.705 725.618 400.673 724.687C395.316 723.696 389.887 723.68 384.456 723.677C379.3 723.675 379.309 715.675 384.456 715.677C390.626 715.68 396.717 715.847 402.799 716.972ZM766.659 758.767C753.589 757.517 740.499 756.517 727.389 755.767C726.778 755.736 726.179 755.697 725.568 755.666C725.499 755.527 725.409 755.396 725.318 755.256C721.039 748.976 717.889 742.697 715.159 735.596C712.549 728.836 710.019 721.867 705.999 715.767C701.414 708.817 695.224 703.379 688.44 698.666C684.325 701.433 680.506 704.673 677.012 708.107C673.335 711.72 667.677 706.064 671.355 702.45C674.46 699.398 677.774 696.579 681.277 694.032C677.232 691.574 673.105 689.264 669.079 686.966C653.988 678.357 638.539 670.396 622.769 663.117C615.439 659.726 608.019 656.716 600.549 653.666C596.528 652.027 592.559 649.916 588.539 648.017C588.829 645.176 587.979 641.996 585.799 640.126C584.189 638.756 582.939 638.246 581.019 637.277C580.589 637.126 580.329 637.036 580.209 636.986C580.299 637.006 580.559 637.086 580.988 637.226C582.009 637.697 582.089 637.556 581.229 636.816C581.179 635.197 577.988 631.777 577.259 630.107C574.719 624.376 573.929 618.316 570.179 613.096C565.009 605.906 556.329 603.187 548.238 605.626C547.399 596.976 547.179 587.947 543.919 580.226C543.829 580.017 543.539 579.926 543.409 580.156C540.009 585.947 539.719 592.396 539.459 599.076C539.209 605.346 539.448 611.756 540.269 617.986C539.749 618.386 539.219 618.767 538.669 619.136C536.089 620.836 533.309 622.146 530.389 623.117C524.829 624.956 518.999 625.756 513.169 626.036C498.119 626.756 482.609 625.236 467.809 622.656C452.839 620.046 429.889 616.126 416.569 608.636C407.778 603.697 399.669 597.666 391.448 591.826C394.429 582.226 395.189 571.906 392.189 563.796C391.829 562.826 390.309 562.646 390.019 563.796C388.139 571.536 387.589 579.316 385.089 586.966C385.049 587.076 385.009 587.197 384.969 587.306C384.189 586.777 383.409 586.256 382.629 585.736C380.829 584.546 378.379 585.437 377.299 587.136C360.028 614.346 332.679 615.906 303.959 620.767C272.528 626.086 240.939 631.826 210.719 642.236C181.819 652.197 154.199 666.697 132.319 688.357C127.366 693.261 122.734 698.486 118.362 703.941C122.592 704.474 126.787 705.304 130.928 706.605C135.831 708.145 133.724 715.866 128.801 714.319C123.479 712.647 118.098 711.82 112.662 711.408C97.7954 731.746 86.2034 754.807 76.1794 777.506C56.9524 821.027 44.4374 867.375 38.6784 914.562C41.8404 912.667 45.0594 910.862 48.3584 909.183C52.9424 906.852 56.9854 913.756 52.3964 916.091C47.3004 918.683 42.3504 921.54 37.5544 924.638C35.4594 945.293 34.6474 966.081 35.1394 986.836C36.3094 1036.32 42.9894 1087.25 58.0994 1134.46C65.5094 1157.63 75.3294 1180.61 89.9594 1200.19C96.5794 1209.06 104.099 1217.06 112.959 1223.73C117.249 1226.97 121.789 1229.86 126.579 1232.3C132.749 1235.46 140.789 1236.5 146.109 1240.97C147.859 1242.44 149.209 1244.38 150.229 1246.57C149.639 1250.73 149.569 1254.9 150.709 1259.06C151.069 1260.36 152.049 1261.42 153.259 1261.93C153.279 1262.29 153.279 1262.64 153.279 1262.98C153.279 1263.14 153.519 1263.18 153.549 1263.02C153.599 1262.71 153.649 1262.4 153.699 1262.08C154.089 1262.21 154.499 1262.27 154.919 1262.27C170.109 1262.32 185.318 1261.95 200.528 1261.44C199.352 1257.83 198.078 1254.26 196.855 1250.66C195.194 1245.77 202.923 1243.68 204.569 1248.53C206 1252.75 207.496 1256.92 208.827 1261.15C225.124 1260.54 241.416 1259.81 257.679 1259.28C292.269 1258.13 326.849 1257.75 361.448 1257.02C415.179 1255.88 469.301 1253.55 523.115 1255.83C524.976 1251.88 527.059 1248.02 529.034 1244.12C531.364 1239.52 538.264 1243.58 535.942 1248.16C534.569 1250.87 533.147 1253.54 531.796 1256.24C542.695 1256.81 553.583 1257.56 564.448 1258.58C582.988 1260.32 601.349 1263.41 619.869 1265.33C638.698 1267.29 657.119 1266.94 675.799 1263.83C679.159 1263.27 681.139 1261.24 681.959 1258.72C681.988 1258.71 682.009 1258.69 682.028 1258.66C682.988 1257.54 683.889 1256.61 684.818 1255.8C685.929 1255.08 687.129 1254.47 688.539 1253.93C691.169 1252.93 693.909 1252.32 696.689 1251.91C699.749 1251.45 702.849 1251.41 705.909 1251.03C708.488 1250.7 711.009 1250.21 713.528 1249.61C718.059 1248.53 722.359 1247.12 726.639 1245.25C730.369 1243.62 733.738 1241.28 736.919 1238.73C743.499 1233.92 749.198 1227.78 754.179 1221.4C757.079 1217.67 759.809 1213.8 762.289 1209.77C766.609 1202.79 770.289 1195.54 774.009 1188.23C775.359 1186.06 776.591 1183.84 777.717 1181.58C770.447 1179.43 763.107 1177.69 755.4 1177.56C750.248 1177.48 750.249 1169.48 755.4 1169.56C764.239 1169.71 772.6 1171.77 780.907 1174.23C781.312 1173.16 781.7 1172.07 782.059 1170.98C783.049 1168.69 783.869 1166.34 784.549 1163.96C784.948 1162.88 785.349 1161.8 785.749 1160.72C786.649 1156.98 787.549 1153.23 788.459 1149.48C790.269 1143.48 791.698 1137.39 792.749 1131.22C793.629 1127.16 794.309 1123.07 794.769 1118.93C796.169 1108.9 797.309 1098.89 797.389 1088.75C797.269 1082.5 796.869 1076.26 796.189 1070.05C795.899 1065.83 795.409 1061.63 794.749 1057.46C793.889 1051.26 793.039 1045.12 791.609 1039C790.539 1034.86 789.469 1030.72 788.399 1026.58C785.729 1017.95 782.579 1009.49 778.948 1001.22C778.749 1000.7 777.738 999.556 777.129 999.546C776.669 999.536 776.028 999.956 776.238 1000.52C776.259 1000.57 776.278 1000.63 776.299 1000.68C776.089 1000.21 775.889 999.726 775.679 999.256C775.499 998.816 774.799 997.937 774.259 997.947C774.229 997.947 774.198 997.947 774.159 997.956C774.299 997.857 774.429 997.726 774.559 997.577C778.149 993.327 780.479 987.736 783.049 982.816C785.179 978.756 787.189 974.476 787.769 969.886C788.278 965.857 787.589 961.886 785.059 958.626C782.179 954.916 776.759 953.176 779.769 947.816C783.189 941.716 788.219 936.426 783.209 929.496C780.659 925.966 776.619 924.027 773.619 920.956C770.169 917.406 768.528 912.656 768.619 907.806C768.829 907.926 769.109 907.867 769.209 907.566C772.109 898.806 770.009 889.187 767.039 880.656C765.419 876.027 761.988 874.756 757.999 874.527C775.278 840.777 791.448 806.486 805.859 771.406C806.339 770.256 806.809 769.107 807.278 767.956C807.979 766.236 806.499 763.947 804.789 763.566C792.329 760.836 779.349 759.966 766.659 758.767Z" fill="white"/>
<path fill-rule="evenodd" clip-rule="evenodd" d="M621.663 340.757C619.292 310.013 622.966 277.789 611.137 248.567C590.513 200.082 532.679 183.916 487.843 165.457C469.881 160.138 409.44 159.394 388.408 152.355C340.809 136.423 329.436 117.441 291.614 147.776C285.229 152.958 281.235 158.59 278.321 166.285L278.441 166.318C277.608 169.526 278.501 172.727 280.376 175.172C263.976 191.97 257.114 217.154 265.528 239.515C292.987 297.704 291.696 329.167 282.848 391.723C271.295 450.123 297.696 471.456 341.42 503.232C339.639 506.691 339.27 511.288 341.591 514.34C392.151 585.539 487.483 619.533 569.163 583.395C602.318 568.607 617.12 533.224 625.567 501.297C635.407 465.548 638.431 427.878 630.42 391.462C627.188 374.62 622.979 357.9 621.663 340.757Z" fill="#D08B5B"/>
<path fill-rule="evenodd" clip-rule="evenodd" d="M259.531 253.543L289.594 273.613L397.206 159.925L361.395 131.68C361.395 131.68 296.426 179.798 283.651 192.498C270.877 205.198 259.531 253.543 259.531 253.543Z" fill="#9FD8E5"/>
<path fill-rule="evenodd" clip-rule="evenodd" d="M330.022 0.137085C336.159 -0.786423 340.794 3.0293 342.999 8.40749L343.114 8.69709C343.823 10.5271 344.611 12.3071 345.459 14.0571C360.817 6.50708 382.731 8.44709 392.45 23.7371C399.385 34.6571 395.154 47.6171 392.54 59.1971L390.824 66.8271C394.141 68.9428 396.643 72.7317 396.526 76.6551L396.512 76.9571L395.813 87.5971C398.028 85.3471 400.054 82.8971 401.86 80.2871C403.108 77.9971 404.455 75.7471 405.902 73.5671C414.414 60.7371 433.523 71.8871 426.498 85.6271C425.151 88.2771 423.634 90.7871 422.008 93.2071C420.171 96.7771 418.665 100.447 417.507 104.217C420.83 105.667 423.385 108.887 423.654 113.747C424.283 125.097 418.335 134.567 408.875 140.517C406.091 142.267 403.217 142.607 400.613 141.957C400.154 142.577 399.695 143.197 399.256 143.827C403.028 146.897 406.431 150.397 409.354 154.277C418.156 152.957 427.007 152.337 435.858 152.317C446.675 147.007 459.628 147.117 471.253 149.107C478.738 150.387 485.922 152.877 493.287 154.667C501.051 156.547 508.934 156.617 516.787 157.897C526.686 159.507 535.368 164.087 540.826 171.397C546.824 171.577 553.13 174.037 558.359 177.377C570.534 185.157 582.638 193.047 594.782 200.877C599.443 203.883 601.186 208.682 600.329 214.035L600.271 214.377L599.862 216.597L600.822 217.963C604.539 223.223 608.583 228.732 610.988 234.537C615.439 240.967 619.46 247.707 623.023 254.657C627.822 263.997 631.784 273.897 634.468 284.057C635.137 286.627 635.806 289.217 636.245 291.837C636.873 295.537 635.905 298.407 635.377 301.957C634.718 306.457 634.478 311.017 633.78 315.527C633.311 318.517 630.776 319.987 628.122 320.067C629.12 327.677 629.838 335.337 630.527 342.937C631.495 353.797 632.153 364.687 632.722 375.577C635.656 379.847 641.653 383.227 645.984 384.397C651.981 386.007 658.268 384.257 663.936 382.207C667.499 380.917 670.422 385.407 668.686 388.407C663.228 397.827 651.552 397.787 642.711 393.617C638.969 391.857 635.686 389.307 633.251 385.987C633.401 389.147 633.56 392.307 633.72 395.477L633.869 398.348C635.666 431.88 639.548 466.566 633.261 499.767C622.374 557.277 574.882 601.067 516.867 604.467C486.423 606.252 461.072 597.241 448.465 592.214C435.858 587.187 440.758 576.938 449.51 579.868C464.586 584.915 492.281 592.434 517.067 589.187C575.483 581.534 625.018 552.275 619.929 426.257C619.207 408.386 616.985 390.507 616.506 372.637C616.047 355.167 616.217 337.687 615.449 320.227L615.192 314.27C614.892 307.309 614.572 300.316 614.052 293.347C613.423 290.647 612.904 287.907 612.136 285.257C610.05 278.047 607.326 271.037 603.943 264.347C603.195 264.917 602.356 265.327 601.448 265.487C594.553 266.727 588.086 266.377 581.63 263.497C578.617 262.167 575.962 260.397 573.487 258.207C572.31 257.177 571.522 256.177 570.903 255.137C567.779 255.187 564.656 254.247 562.7 251.997C560.469 249.433 560.098 246.784 560.972 244.332L561.064 244.087L560.844 244.007C558.21 250.837 552.961 256.847 547.203 260.907C538.102 267.347 526.716 269.207 515.799 269.377C503.745 269.557 491.032 267.697 479.137 265.797C475.993 265.297 472.87 264.727 469.807 263.957C469.687 264.077 469.567 264.217 469.437 264.337C459.229 274.127 444.869 276.647 431.917 271.057C424.432 267.827 418.156 262.627 412.607 256.667C412.528 259.787 412.368 262.907 412.099 265.997L411.987 267.224C411.435 272.979 410.372 279.084 406.031 283.237C399.016 289.967 388.838 287.267 380.745 282.887C380.755 283.097 380.755 283.317 380.755 283.537C382.94 290.977 385.136 298.427 387.331 305.877L387.804 307.464C389.4 312.754 391.151 318.051 391.632 323.587C392.55 334.167 385.525 344.617 373.79 341.067C367.634 339.212 362.703 334.025 357.971 329.871L354.989 327.287C362.703 352.557 368.052 378.727 368.551 405.097C368.581 406.527 367.353 407.607 365.996 407.657C362.823 407.787 359.41 407.157 356.217 405.887C356.037 405.877 355.857 405.867 355.668 405.837C350.219 405.047 345.16 403.077 340.7 400.167C341.727 403.437 342.186 406.947 341.917 410.617C341.847 411.507 340.46 411.817 340.26 410.837C337.686 398.147 322.867 388.557 310.094 390.987C296.383 393.597 286.285 405.417 283.81 418.867C281.155 433.317 286.235 450.027 295.645 461.177C299.976 466.317 305.674 470.607 312.439 471.687C315.533 472.177 318.746 472.007 321.75 471.127C323.027 470.747 324.224 470.217 325.442 469.717C327.218 468.997 329.294 468.887 330.97 468.127C334.772 466.417 338.594 469.927 336.668 473.837C334.992 477.247 333.485 479.547 330.701 481.307C332.956 484.067 335.002 487.907 335.76 488.937C339.632 494.177 343.563 499.127 347.974 503.917C352.465 508.777 357.364 513.217 362.543 517.327L364.72 519.051C369.709 523.016 374.053 526.69 377.572 532.377C380.346 536.867 376.753 542.957 371.554 542.887C355.289 542.657 343.464 528.337 335.041 515.827C333.844 514.037 332.716 512.147 331.669 510.207C331.289 510.817 330.87 511.387 330.401 511.907L331.329 514.407C334.083 521.767 322.219 526.577 318.776 519.707C316.271 514.727 313.367 509.987 310.134 505.507C308.228 505.237 306.362 504.077 305.324 502.577C302.7 498.767 299.756 494.917 297.271 490.857C295.894 489.547 294.477 488.287 293.03 487.057C292.611 487.427 292.182 487.797 291.773 488.187C289.957 492.337 287.712 496.127 284.927 499.697L284.331 500.459C278.997 507.195 272.05 514.089 263.453 515.737C260.828 516.237 258.304 512.967 260.629 510.877C266.646 505.457 273.761 501.767 279.309 495.717C282.043 492.736 284.553 489.454 286.711 486.014L287.203 485.217C287.562 484.627 287.931 484.037 288.31 483.437C285.806 481.727 283.301 480.007 280.796 478.287C273.901 484.19 264.922 486.891 257.295 491.781L256.537 492.277C249.642 496.897 242.377 486.677 247.906 481.067C254 474.906 259.087 467.559 264.486 460.711C261.947 456.025 260.746 450.484 260.295 444.884C260.118 443.299 259.979 441.713 259.84 440.127C255.969 440.187 252.077 438.857 248.784 436.567L247.536 435.677C243.535 436.957 239.334 437.577 235.312 437.467C225.852 437.187 221.981 426.357 227.898 419.507C233.935 412.507 244.503 410.977 252.875 414.377C253.145 414.237 253.424 414.087 253.693 413.937C253.294 412.097 253.383 410.428 253.837 408.962L253.705 408.068C251.864 405.237 250.654 402.005 250.195 398.59C249.832 395.885 249.905 393.204 250.53 390.533C250.738 389.644 251.17 388.723 251.5 387.796C250.82 386.074 250.419 384.294 250.296 382.504C250.105 382.277 249.915 382.044 249.736 381.792C245.582 375.947 246.421 368.904 250.374 364.174C250.392 363.873 250.42 363.572 250.461 363.273C250.23 362.751 250.017 362.224 249.824 361.691C245.961 357.786 243.125 353.087 243.654 347.264C243.964 343.838 245.369 340.754 247.496 338.449C247.118 337.331 247.082 336.036 247.539 334.955C244.146 325.909 244.575 315.014 247.018 304.897C246.479 303.357 246.199 301.687 246.259 299.917C246.539 292.407 253.025 285.507 260.709 285.597C261.634 285.605 262.5 285.726 263.332 285.903L263.343 285.724C263.637 283.47 264.256 281.387 265.159 279.518C264.715 279.357 264.304 279.126 263.944 278.819C259.02 281.451 253.81 283.463 248.348 284.834C244.331 285.842 240.217 281.267 242.714 277.489C243.872 275.736 245.151 274.162 246.528 272.724C244.57 272.735 242.582 272.868 240.571 273.127C236.959 273.597 232.927 271.127 230.582 267.787C227.668 270.627 224.745 273.457 221.821 276.287C214.416 283.477 203.23 278.187 202.063 268.707C199.857 268.117 197.802 267.117 195.995 265.687C184.32 270.767 171.757 273.557 158.914 274.087C149.693 274.467 144.305 263.707 148.616 256.107C151.509 251.007 155.102 246.427 159.243 242.447C152.817 244.417 146.181 245.837 139.405 246.747C135.743 247.237 130.564 244.197 129.097 240.827C123.489 227.867 123.968 214.357 130.424 201.747C130.674 201.247 130.953 200.767 131.222 200.287C131.891 198.617 132.619 196.967 133.408 195.347C125.465 187.047 124.776 174.707 129.057 164.377C127.341 161.587 126.682 158.227 127.85 155.187C131.172 146.437 135.962 138.357 142.01 131.417C141.431 130.297 140.922 129.107 140.493 127.827C137.09 117.477 141.032 104.987 148.985 97.7771C153.984 93.2371 159.732 90.5171 165.869 88.7771C168.454 84.1971 171.777 80.0671 175.648 76.5871C175.798 76.2571 175.948 75.9271 176.117 75.5971C182.145 64.2171 193.122 58.1171 204.887 56.7071C205.346 52.2571 208.339 48.0071 212.69 46.6271C213.888 42.7771 215.674 39.0971 218.129 35.7571C221.99 30.4971 228.407 28.0171 234.454 31.4671C237.767 33.3571 240.94 35.5271 243.914 37.9271C245.25 37.2994 246.764 36.8932 248.472 36.7637L248.904 36.7371L258.743 36.2371C262.864 34.4071 266.975 32.4871 271.097 30.6171C273.571 28.5671 276.336 26.8571 279.349 25.5871C282.762 24.1571 286.255 23.3471 289.757 23.0771C292.601 22.1471 295.465 21.3271 298.379 20.6871C305.225 19.1871 312.389 18.3471 319.494 18.4171C319.64 16.5742 319.712 14.7093 319.698 12.8224L319.684 11.8771C319.524 5.82709 324.344 0.997085 330.022 0.137085ZM323.127 484.187C322.149 484.397 321.161 484.567 320.173 484.687C320.472 485.427 320.772 486.167 321.061 486.907C321.859 487.357 322.668 487.787 323.476 488.187C323.236 486.827 323.097 485.457 323.127 484.187ZM271.858 468.92L271.195 470.144C271.087 470.345 270.981 470.542 270.877 470.737C272.284 470.627 273.701 470.657 275.098 470.817L275.094 470.668C274.915 470.607 274.735 470.551 274.563 470.467C273.599 470.003 272.703 469.483 271.858 468.92ZM299.566 413.067C308.395 413.582 315.875 414.939 323.904 418.809L324.594 419.147C331.689 422.677 343.424 429.197 342.436 438.547C342.156 441.207 340.231 444.007 337.197 443.797C328.884 443.227 324.135 434.827 318.506 429.587C312.828 424.307 305.853 418.877 298.978 415.247C298.006 414.736 298.389 413.119 299.446 413.066L299.566 413.067ZM259.531 289.877C257.416 289.947 258.124 292.007 259.212 290.287C259.302 290.147 259.411 290.007 259.531 289.877ZM373.726 152.355C353.69 152.883 333.526 164.738 318.516 176.721C305.459 187.146 294.184 199.546 284.2 212.911C281.631 219.567 279.426 226.362 277.563 233.207C276.336 237.727 275.567 242.297 274.539 246.857L274.22 248.255C273.413 249.767 272.813 251.394 272.376 253.075C274.195 254.903 276.555 256.212 279.154 256.833C279.991 257.033 280.686 257.466 281.236 258.04C283.328 254.542 285.156 250.85 286.22 246.936L286.259 246.755C290.279 240.156 294.646 233.762 299.327 227.587C312.24 210.537 326.46 194.997 343.553 182.067C356.516 172.267 371.005 164.587 386.413 159.597C382.642 156.548 378.359 154.136 373.726 152.355Z" fill="black"/>
<path fill-rule="evenodd" clip-rule="evenodd" d="M561.534 488.337C564.965 482.283 575.203 483.267 576.768 490.328C579.943 504.642 562.874 517.86 549.91 518.19C537.027 518.517 522.572 507.552 524.437 493.702C524.898 490.276 529.474 490.692 531.034 492.84L531.639 493.664C535.876 499.356 541.467 505.248 549.331 503.86C552.59 503.286 555.55 501.25 557.52 498.629C559.896 495.466 559.635 491.689 561.534 488.337ZM479.615 383.617C481.361 383.136 483.123 383.322 484.67 383.98C488.124 384.613 491.009 387.493 492.023 390.781C492.103 391.065 492.192 391.346 492.291 391.624L492.445 392.04L492.031 390.986C492.222 392.024 493.067 393.115 493.371 394.157C493.745 395.438 493.836 396.893 493.71 398.303C494.808 398.314 495.906 398.351 497.002 398.446L498.061 398.54C503.984 399.091 510.486 400.101 513.998 405.219C515.97 408.095 514.119 413.273 510.496 413.827C504.919 414.68 500.115 411.594 494.557 410.976C489.303 410.391 483.805 410.726 478.619 411.675C467.912 413.632 458.073 417.972 447.639 420.695L446.219 421.056V421.056L446.221 421.049C444.433 421.481 442.403 418.995 444.172 417.541C452.531 410.674 463.233 405.109 473.776 401.72C472.24 399.277 471.765 396.059 472.815 393.436C472.977 392.892 473.179 392.363 473.392 391.836L473.836 390.753V390.753C473.879 390.242 473.977 389.737 474.119 389.242L474.142 389.091V389.091L474.155 389.1V389.1C474.94 386.549 476.99 384.341 479.615 383.617ZM586.26 384.011C588.546 381.724 591.758 382.062 594.144 383.862L594.461 384.11V384.11C596.71 385.109 598.571 387.292 599.793 389.315C601.062 391.416 601.905 393.556 601.938 395.869C607.472 395.887 612.773 397.547 616.836 402.015C618.148 403.457 619.044 405.681 618.322 407.636L617.892 408.799V408.799C616.527 412.492 610.394 414.617 608.309 410.275L608.213 410.063C605.998 404.907 597.495 405.448 592.976 405.975C589.826 406.344 586.715 407.127 583.673 408.004C582.601 408.313 581.539 408.649 580.478 408.991L579.417 409.335C578.851 409.518 575.903 411.119 577.737 410.74C578.23 410.638 578.601 411.356 578.098 411.597C575.912 412.642 573.58 410.561 573.726 408.213C573.979 404.138 580.451 401.903 583.565 400.497L583.752 400.412C584.946 399.86 586.197 399.331 587.488 398.84C586.762 397.76 586.162 396.56 585.663 395.272C585.191 394.056 584.876 392.874 584.703 391.581C584.533 390.949 584.533 390.317 584.703 389.684L584.729 389.503V389.503C584.641 389.085 584.599 388.653 584.605 388.218L584.587 388.049H584.605C584.666 386.526 585.271 385 586.26 384.011ZM549.732 427.416C558.515 430.13 573.005 437.523 568.428 448.934C562.037 459.414 545.088 451.712 536.875 448.326C529.496 445.882 525.654 456.223 532.789 459.34C591.748 482.665 591.531 421.106 551.87 422.01C547.503 422.109 547.366 426.514 549.732 427.416ZM471.727 347.149L473.225 346.712C481.01 344.457 488.957 340.563 495.869 346.639C498.583 349.025 499.142 353.983 497.2 356.959C492.776 363.74 486.215 362.704 479.07 363.282C473.63 363.722 468.271 365.32 463.193 367.317C459.043 368.95 455.194 371.249 451.56 373.813C447.99 376.334 445.551 380.275 441.889 382.544C440.547 383.376 438.997 382.52 438.515 381.171C436.807 376.386 439.693 370.425 442.135 366.348C445.116 361.374 449.644 357.306 454.513 354.228C459.845 350.857 465.74 348.91 471.727 347.149V347.149ZM585.164 342C598.323 341.996 610.985 349.315 618.345 360.044C620.846 363.689 619.013 369.089 615.423 371.188C611.396 373.544 607.09 371.848 604.436 368.472L604.278 368.267C600.057 362.646 594.616 358.219 588.166 355.337C585.019 353.93 581.539 352.789 578.135 352.21L577.035 352.022C575.493 351.763 573.705 351.517 572.31 351.758C571.563 351.856 570.877 352.103 570.245 352.479C570.549 353.143 569.764 353.943 569.039 353.545C565.769 351.749 566.17 348.545 568.871 346.055C572.692 342.532 580.229 342.001 585.164 342Z" fill="black"/>
</svg>
