<svg viewBox="0 0 818 1292" fill="none" xmlns="http://www.w3.org/2000/svg">
<path fill-rule="evenodd" clip-rule="evenodd" d="M790.748 1271.54C810.074 1270.61 802.301 1236.81 800.914 1224.39C785.613 1179.05 789.21 1129.57 783.192 1082.05C779.443 1037.68 774.626 993.448 770.574 949.114C762.616 859.12 705.469 675.916 640.254 646.453C632.039 610.407 598.108 576.759 555.178 576.759C525.898 542.1 490.655 517.707 445.452 522.632C426.772 523.482 408.656 543.294 390.757 547.12C380.735 548.502 291.795 544.945 273.979 555.526C261.569 561.898 250.366 573.673 254.015 588.664C259.837 606.826 241.744 587.174 204.001 606.559C127.038 652.782 173.028 714.619 175.066 716.535C127.038 783.358 85.059 837.57 65.636 919.247C53.048 979.886 54.465 1042.49 43.918 1103.44C40.194 1124.57 34.481 1144.98 28.299 1165.5C21.599 1192.36 18.3411 1259.31 14.6481 1259.9C7.92112 1261.57 18.536 1275.39 25.664 1275.4C223.288 1308.18 424.026 1276.76 622.712 1271.62C678.705 1269.68 734.758 1269.23 790.748 1271.54Z" fill="#D08B5B"/>
<path fill-rule="evenodd" clip-rule="evenodd" d="M391.006 605.962C391.006 626.994 464.036 705.146 489.239 699.99C506.041 696.553 531.428 674.137 565.399 632.741V605.962L558.062 576.809C599.622 578.274 632.224 611.218 640.254 646.453C704.817 675.622 761.472 855.472 770.32 946.387L770.574 949.114C774.626 993.448 779.443 1037.68 783.192 1082.05C789.21 1129.57 785.613 1179.05 800.914 1224.39L801.005 1225.16C802.601 1238.14 809.687 1270.63 790.748 1271.54C734.758 1269.23 678.705 1269.68 622.712 1271.62C424.026 1276.76 223.288 1308.18 25.664 1275.4C18.536 1275.39 7.92112 1261.57 14.6481 1259.9C18.3411 1259.31 21.599 1192.36 28.299 1165.5L29.5708 1161.26C35.2595 1142.16 40.4508 1123.11 43.918 1103.44C54.465 1042.49 53.048 979.886 65.636 919.247C85.059 837.57 127.038 783.358 175.066 716.535C173.028 714.619 127.038 652.782 204.001 606.559C241.744 587.174 259.837 606.826 254.015 588.664C250.366 573.673 261.569 561.898 273.979 555.526C291.795 544.945 380.735 548.502 390.757 547.12C395.413 546.125 400.083 544.048 404.774 541.505L403.961 544.215C395.324 573.161 391.006 593.743 391.006 605.962Z" fill="#B5E59F"/>
<path fill-rule="evenodd" clip-rule="evenodd" d="M491.219 722.433C491.311 721.528 492.531 721.53 492.625 722.433L494.02 735.902C495.718 752.352 497.352 768.77 498.537 785.297C500.014 805.906 501.002 826.51 501.478 847.165C503.138 919.102 503.468 991.077 503.608 1063.03C513.339 1062.36 523.071 1061.71 532.808 1061.08C539.414 1060.65 546.021 1060.25 552.628 1059.84L569.475 1058.82V1058.82L576.411 1058.4C581.098 1058.11 586.423 1056.93 589.7 1061.08C591.012 1062.74 591.67 1064.9 590.447 1066.87C587.626 1071.42 583.293 1071.26 578.392 1071.46C573.768 1071.65 569.144 1071.83 564.52 1072.01C554.611 1072.39 544.703 1072.76 534.791 1073.04C524.389 1073.33 513.992 1073.56 503.594 1073.74C503.489 1104.12 502.232 1134.46 500.873 1164.8L500.258 1178.45C498.595 1215.38 496.806 1252.34 494.265 1289.22C494.056 1292.23 489.785 1292.23 489.578 1289.22C486.716 1247.69 484.828 1206.07 482.956 1164.48C481.598 1134.33 480.808 1104.17 480.432 1074.01C479.057 1074.02 477.683 1074.04 476.309 1074.04C437.282 1074.21 398.265 1074.38 359.238 1074.02C359.303 1074.09 359.367 1074.17 359.41 1074.27C362.234 1080.94 362.503 1089.45 362.434 1096.6C362.355 1104.81 361.25 1112.92 359.36 1120.9C352.589 1149.48 335.123 1175.09 315.231 1196.26L314.581 1196.95C309.889 1201.91 304.506 1206.89 301.625 1213.2C298.682 1219.65 297.661 1227.19 296.209 1234.12L296.039 1234.92L290.361 1261.14C288.557 1269.47 288.045 1281.62 281.451 1287.63C275.299 1293.24 267.149 1290.31 264.254 1283.09C261.993 1277.46 264.245 1271.27 265.584 1265.63L276.075 1221.53C277.799 1214.34 279.683 1207.1 283.403 1200.64C287.214 1194.03 292.801 1189.23 298.502 1184.32C309.297 1175.03 319.207 1164.39 327.588 1152.87C335.966 1141.35 343.126 1128.66 348.147 1115.31C350.661 1108.63 352.721 1101.69 354.142 1094.69C355.493 1088.05 355.481 1081.17 356.926 1074.6C357.025 1074.14 357.408 1073.83 357.847 1073.7C357.743 1073.4 357.902 1073.01 358.312 1072.98L390.23 1070.93C418.601 1069.1 446.972 1067.22 475.318 1065.08L480.327 1064.72V1064.72C479.938 1024.47 480.268 984.217 480.995 943.957C481.661 907.038 481.675 870.109 482.773 833.195C483.319 814.874 484.496 796.596 485.806 778.313C487.146 759.615 489.291 741.075 491.219 722.433ZM191.527 936.498C191.187 934.448 193.766 933.178 194.955 935.053C208.546 956.475 215.099 979.744 217.861 1004.81C220.301 1026.94 219.582 1049.38 218.367 1071.57C217.071 1095.23 215.559 1118.88 214.03 1142.53L211.681 1178.79V1178.79L205.786 1269.7C205.364 1276.2 203.888 1282.11 198.289 1285.14C197.58 1285.73 196.841 1286.26 195.98 1286.72C192.955 1288.34 188.943 1287.52 187.194 1284.42L187.895 1284.88C188.506 1285.26 187.82 1284.73 185.837 1283.27L184.154 1281.09V1281.09C182.931 1279.25 182.15 1277.45 181.836 1275.26C181.348 1271.87 181.98 1268.14 182.202 1264.73L186.066 1205.12V1205.12C189.071 1158.77 192.58 1112.44 195.225 1066.08C196.457 1044.47 197.32 1022.84 196.736 1001.19C196.154 979.66 195.057 957.767 191.527 936.498ZM309.101 537.443L309.855 537.316C336.85 532.832 366.204 533.671 390.875 546.684C391.079 546.791 390.986 547.13 390.757 547.12L382.816 546.803C357.677 545.819 332.616 545.236 307.898 551.142L305.368 551.752C296.466 553.923 287.17 556.581 280.02 562.46C273.186 568.08 269.783 576.749 266.511 584.73L266.073 585.784C262.754 593.666 258.552 601.141 251.275 606.07C241.85 612.453 230.515 611.671 219.708 612.538C200.68 614.067 185.123 627.857 177.383 644.732C172.696 654.95 170.697 666.406 170.301 677.58C170.098 683.269 170.069 689.18 170.827 694.831C171.069 696.638 173.303 703.221 174.442 703.063C176.973 702.712 179.287 704.032 180.076 706.055C186.328 700.015 192.76 694.149 199.399 688.494C215.948 674.401 233.773 661.628 252.545 650.652C266.872 642.274 281.984 633.974 297.633 627.699C296.393 627.673 295.17 627.919 293.987 628.534C293.469 628.805 292.954 628.155 293.363 627.725C298.292 622.539 304.196 621.801 310.148 623.184C311.418 622.78 312.689 622.389 313.965 622.018C314.6 621.833 314.916 622.708 314.398 623.046L312.936 623.98V623.98C319.429 626.155 325.804 630.43 330.851 633.804C345.349 643.493 358.11 655.338 371.046 666.961L373.398 669.068C384.785 679.235 396.461 689.115 409.398 697.271C416.17 701.54 423.283 705.489 430.744 708.426C437.143 710.947 447.562 712.534 450.559 719.297C453.223 722.533 452.11 726.663 448.99 728.841C443.728 734.632 433.202 730.891 426.932 728.479C419.373 725.571 412.05 722.076 405.066 717.977C391.507 710.017 379.005 700.12 367.359 689.592C355.196 678.596 343.723 666.915 331.893 655.574C326.767 650.66 321.76 645.631 316.626 640.724L314.048 638.282C311.428 635.825 307.695 631.995 303.704 629.677C296.185 634.162 288.55 638.462 281.099 643.063C270.698 649.485 260.603 656.37 250.664 663.482C231.53 677.173 213.398 692.507 196.565 708.943C165.693 739.085 139.391 773.505 116.414 809.951L114.669 812.729C101.612 833.589 89.265 855.123 80.5101 878.173C70.8771 903.538 66.1921 930.211 63.6471 957.136C61.1211 983.868 60.2691 1010.74 57.4461 1037.44C54.5511 1064.83 48.8471 1091.62 42.3591 1118.36L40.8117 1124.69C34.9411 1148.64 28.8818 1172.58 25.8641 1197.09C24.2531 1210.18 23.2841 1223.46 23.5031 1236.65C23.7231 1249.93 25.8091 1262.91 27.4921 1276.04C28.1371 1281.08 23.1851 1285.28 18.7541 1285.94C13.6581 1286.71 9.28009 1283.46 7.69609 1278.72C2.75809 1263.97 1.86109 1247.65 2.01609 1232.16C2.17209 1216.44 4.17909 1200.82 7.00309 1185.36C12.5571 1154.97 21.1281 1125.2 28.2981 1095.16C34.6171 1068.69 38.8581 1042.17 41.1441 1015.05C43.5171 986.917 44.9381 958.687 49.2671 930.754C53.5401 903.178 61.5801 876.838 73.7051 851.693C84.7451 828.799 98.5071 807.25 112.935 786.363C130.456 761 149.699 736.865 171.209 714.875C169.277 714.791 167.293 714.167 165.471 713.031C159.897 709.554 157.301 702.753 156.503 696.543C154.635 682.016 155.086 666.85 158.822 652.647C164.849 629.735 180.491 609.377 203.161 601.118C208.996 598.992 215.199 598.216 221.383 598.063C227.251 597.917 233.66 598.682 239.322 596.822C248.334 593.86 252.197 583.246 255.581 575.2L255.737 574.83C260.076 564.577 265.284 555.789 274.682 549.387C284.709 542.556 297.271 539.449 309.101 537.443V537.443ZM565.599 577.991C573.711 575.177 583.853 577.731 591.786 580.189C600.624 582.929 608.791 587.975 615.793 593.968C623.18 600.288 629.285 608.092 633.598 616.81L634.01 617.65C637.949 625.737 642.436 636.839 640.45 645.723C640.393 645.975 640.328 646.218 640.254 646.453C656.349 654.376 671.213 664.3 684.157 676.878C699.229 691.523 711.991 708.188 722.791 726.192C765.684 797.699 773.234 883.579 778.3 965.128L779.563 985.805C782.314 1030.45 785.533 1075 793.896 1119.03L794.506 1122.21C803.444 1168.31 816.24 1214.77 814.944 1262.06C814.555 1276.23 793.613 1276.13 793.006 1262.06C790.72 1209.09 778.358 1157.94 769.987 1105.8C755.258 1014.05 762.638 919.475 741.768 828.653C733.578 793.011 720.891 758.438 702.774 726.623C693.825 710.906 683.586 695.719 671.592 682.16C661.273 670.493 650.548 659.265 638.489 649.457C634.635 653.317 626.936 651.35 624.924 645.723C623.542 641.856 623.945 637.335 623.058 633.284C622.235 629.525 621.1 625.798 619.588 622.258C616.574 615.203 612.15 608.428 607.043 602.718C601.526 596.546 595.185 591.418 588.09 587.184C580.946 582.921 573.133 581.648 565.599 578.533C565.345 578.428 565.321 578.088 565.599 577.991ZM597.115 1068.29C597.127 1067.91 597.566 1067.74 597.836 1067.99C600.68 1070.6 602.399 1074.36 604.492 1077.58C606.906 1081.29 609.441 1084.93 612.099 1088.47C617.425 1095.56 623.354 1102.25 629.33 1108.81C634.888 1114.9 640.812 1120.74 646.957 1126.24C653.615 1132.2 661.076 1137.52 667.125 1144.12C679.747 1157.9 681.786 1176.81 684.449 1194.56L684.741 1196.48C686.365 1207.02 687.82 1217.58 689.132 1228.16C689.77 1233.3 690.406 1238.46 690.926 1243.61L691.085 1245.25C691.548 1250.3 691.673 1255.42 688.773 1259.84C685.668 1264.56 678.609 1266.21 674.412 1261.69C667.201 1253.91 668.553 1240.09 667.615 1230.09C666.84 1221.82 665.961 1213.55 664.977 1205.3L664.476 1201.18C663.316 1191.79 662.374 1182.22 660.227 1173C658.334 1164.87 654.727 1158.74 648.809 1152.86C642.847 1146.93 636.652 1141.4 631.149 1135.02C625.312 1128.25 620.047 1120.99 615.303 1113.41C611.245 1106.93 607.993 1099.88 605.013 1092.84L604.519 1091.66C601.639 1084.79 596.89 1075.85 597.115 1068.29ZM701.227 773.241C701.29 772.283 702.706 772.268 702.727 773.241C702.906 781.481 703.078 789.721 703.249 797.962C704.625 864.364 703.777 930.923 710.439 997.097C713.581 1028.3 719.367 1059.04 726.062 1089.65C729.488 1105.32 733.082 1120.95 736.497 1136.61C739.825 1151.88 743.394 1167.23 746.034 1182.64C748.628 1197.78 750.952 1213.05 751.995 1228.39L752.123 1230.39C752.572 1237.82 754.715 1248.75 750.623 1255.34C746.189 1262.47 737.7 1262.6 732.949 1255.79C728.488 1249.39 729.597 1238.02 728.809 1230.39C728.008 1222.62 727.161 1214.84 726.199 1207.08C724.322 1191.96 721.849 1176.86 719.277 1161.84C713.92 1130.55 706.15 1099.66 700.415 1068.42C694.537 1036.41 690.359 1004.17 690.183 971.581C690.008 938.714 693.487 905.911 695.243 873.116C697.027 839.808 699.055 806.525 701.227 773.241ZM387.547 566.708C389.33 560.705 395.622 556.952 401.76 558.638C407.385 560.184 412.029 567.011 409.83 572.852C407.43 579.226 403.236 584.661 399.7 590.454C396.434 595.807 391.67 600.022 388.343 605.28L392.009 609.232C393.843 611.204 395.683 613.164 397.543 615.09L403.937 621.713C408.918 626.861 413.929 631.981 419.082 636.951C434.234 651.566 449.626 665.701 466.595 678.217C470.458 681.065 474.351 683.897 478.353 686.549L479.845 687.537C482.591 689.335 485.654 691.102 488.971 690.798C497.03 690.058 504.313 681.498 509.851 676.171L510.141 675.894C523.866 662.835 536.575 648.557 547.686 633.205C550.153 629.794 552.542 626.325 554.868 622.815C549.496 616.54 550.779 604.291 550.483 596.681C550.274 591.33 550.258 585.978 550.229 580.623L550.214 579.543C550.149 576.077 549.993 572.752 552.242 569.901C552.373 569.736 552.644 569.741 552.811 569.828C555.892 571.442 556.841 574.145 558.155 577.177L558.293 577.492C559.893 581.131 561.425 584.804 562.975 588.464C564.598 592.296 566.086 596.184 567.594 600.062C568.296 601.866 568.966 603.677 569.621 605.498C570.02 606.661 570.433 607.818 570.857 608.973L570.957 609.062C571.517 609.537 571.992 610.039 572.401 610.557C574.12 611.417 575.486 612.984 576.127 615.286C577.522 620.297 574.635 624.383 572.06 628.36C561.6 644.52 549.676 659.919 536.422 673.888C529.838 680.828 522.913 687.456 515.703 693.743L514.442 694.834C507.966 700.4 500.934 705.672 492.284 706.975C482.161 708.498 473.923 703.463 466.174 697.665L465.401 697.083C458.055 691.522 450.857 685.766 443.883 679.745C429.664 667.469 416.137 654.288 404.132 639.827C392.454 625.761 380.911 610.033 373.713 593.108C373.274 592.077 374.428 590.998 375.332 591.859C378.848 595.206 382.231 598.735 385.574 602.309C385.667 597.048 384.696 591.742 385.236 586.448C385.895 580.013 385.705 572.904 387.547 566.708Z" fill="black"/>
<path fill-rule="evenodd" clip-rule="evenodd" d="M631.418 404.815C629.738 326.234 610.2 239.24 543.226 190.68C538.96 187.583 532.558 189.083 529.022 192.62C526.12 193.188 523.453 194.95 521.68 198.19C482.077 270.625 440.386 341.915 396.626 411.907C368.53 457.163 334.4 502.476 329.897 557.331C329.118 558.368 321.884 566.552 326.099 565.956C327.971 564.975 329.876 564.169 331.879 563.573C337.23 571.39 349.655 570.161 352.608 561.338C362.849 561.633 372.983 564.255 382.74 567.297C406.67 574.803 430.992 582.223 455.414 587.96C535.87 609.358 622.321 582.133 628.75 488.135C637.385 475.942 632.713 421.599 631.418 404.815V404.815Z" fill="#D08B5B"/>
<path fill-rule="evenodd" clip-rule="evenodd" d="M689.956 597.959C678.57 544.399 671.267 490.149 664.73 435.829C661.567 409.519 659.042 383.14 656.118 356.81C653.384 332.279 650.2 307.669 643.814 283.789C637.877 261.599 629.195 239.629 616.402 220.47C604.408 202.509 589.329 187.119 572.016 174.269C537.808 148.879 494.06 135.369 451.511 139.849C445.084 140.529 438.717 141.619 432.421 143.079C434.426 142.489 436.453 141.938 438.498 141.459C439.156 141.3 438.864 140.411 438.218 140.47C265.11 156.231 224.39 457.919 220.688 518.749C220.399 523.48 220.17 528.199 220.001 532.929C218.702 543.48 217.734 554.06 217.275 564.669C216.758 576.909 217.007 589.23 218.134 601.429C219.291 613.938 220.608 626.759 225.818 638.259C229.011 645.339 377.896 635.64 379.433 627.279C382.546 610.399 384.143 592.98 383.166 575.81C382.707 567.579 381.857 559.409 380.101 551.349C379.622 549.149 379.113 545.019 377.827 541.749C391.407 515.89 406.346 490.769 421.723 465.939C453.727 414.239 487.754 363.499 513.908 308.438C527.022 280.849 539.943 251.55 546.13 221.319L547.128 221.519C547.008 221.879 547.088 222.329 547.447 222.579C575.877 242.269 594.878 272.109 607.192 304.06C621.531 341.259 628.486 381.429 627.488 421.289C625.903 484.629 601.943 562.909 534.155 582.929C518.688 587.499 501.984 588.789 486.137 585.449C478.663 583.869 471.338 581.438 464.593 577.839C457.108 573.849 450.961 568.199 443.947 563.55C437.53 559.3 429.956 567.589 433.648 573.879C441.801 587.779 459.344 596.279 474.412 600.459C490.488 604.929 507.443 605.14 523.817 602.3C525.065 602.089 526.302 601.849 527.529 601.589C527.809 605.709 529.575 609.81 532.449 613.14C533.736 614.64 535.323 615.938 537.099 617.029C537.33 621.05 539.914 625.089 544.115 625.97C566.557 630.649 659.76 618.379 682.173 611.688C688.19 609.89 691.233 603.98 689.956 597.959" fill="black"/>
<path fill-rule="evenodd" clip-rule="evenodd" d="M573.059 512.111C579.379 510.638 584.343 515.99 583.101 522.153C581.786 528.677 574.771 530.913 568.889 530.708C562.22 530.477 555.556 529.1 548.854 528.823C541.969 528.539 535.058 528.487 528.169 528.673C521.797 528.845 515.257 529.968 508.935 528.96C506.473 528.567 506.706 525.317 508.308 524.162C513.064 520.732 519.228 519.334 524.834 517.895C530.55 516.427 536.393 515.303 542.255 514.617C548.198 513.922 554.19 513.575 560.172 513.507C562.895 513.476 566.234 514.081 568.889 513.591C570.242 513.34 571.62 512.447 573.059 512.111ZM554.814 427.367C562.366 431.957 573.872 442.66 565.748 454.04C556.186 464.073 542.418 452.569 535.634 447.366C529.343 443.334 522.275 453.705 528.112 458.413C577.136 494.708 597.03 428.567 558.634 421.97C554.406 421.243 552.836 425.947 554.814 427.367ZM500.059 393.092C510.16 391.412 511.927 405.812 501.916 406.818C499.815 407.029 497.726 407.213 495.641 407.396C495.844 408.048 495.979 408.719 496.053 409.409C496.148 409.995 496.219 410.617 496.282 411.328C496.599 414.871 494.087 418.555 491.152 420.273C488.102 422.058 483.724 422.296 480.695 420.273C479.133 419.229 477.573 418.052 476.712 416.326C475.557 414.553 474.927 412.501 474.863 410.395C470.258 411.591 465.569 413.208 460.918 414.065C461.089 414.233 461.257 414.412 461.42 414.609C461.544 414.76 461.374 415.043 461.193 414.904L458.86 414.387V414.387C458.142 414.481 457.424 414.558 456.708 414.603L456.725 414.54V414.54C455.528 414.519 454.548 413.104 455.619 411.972C459.728 407.628 466.14 404.742 471.986 402.328L477.618 400.019C484.82 397.092 492.423 394.362 500.059 393.092ZM581.319 397.546C587.935 396.791 594.486 397.091 601.113 397.495C612.266 398.174 607.588 414.438 598.636 410.683C598.728 411.278 598.752 411.874 598.683 412.429C598.333 415.288 597.401 417.704 594.777 419.24C592.34 420.666 589.251 420.662 586.814 419.24C584.204 417.718 583.027 415.573 582.361 412.786C581.845 410.625 582.052 408.817 582.35 406.677C582.449 405.968 582.758 405.307 583.186 404.713C582.562 404.557 581.937 404.406 581.311 404.265C575.745 402.999 570.254 403.253 564.704 402.451C564.112 402.365 564.018 401.409 564.536 401.166C569.523 398.823 575.863 398.168 581.319 397.546ZM499.039 347.315C502.857 345.858 507.653 348.281 509.602 351.614C511.814 355.396 510.869 359.762 508.139 362.949C503.952 367.838 495.976 370.85 490.098 373.64L489.626 373.865C483.59 376.777 477.389 379.451 471.104 381.781C464.923 384.074 458.493 385.87 452.085 387.412C448.706 388.225 445.255 388.897 441.802 389.321C439.076 389.655 436.974 388.907 434.366 388.907C433.985 388.908 433.866 388.403 434.177 388.209C436.614 386.677 438.423 384.66 441.081 383.241C443.849 381.764 446.627 380.312 449.415 378.874C455.052 375.968 460.48 372.734 465.918 369.479C471.65 366.048 477.252 362.435 482.7 358.567C488.031 354.782 492.944 349.64 499.039 347.315ZM567.076 344.204C571.844 343.279 576.566 345.535 577.977 350.394C579.33 355.049 577.915 356.047 581.524 359.378C584.401 362.032 587.503 364.402 590.633 366.735L595.241 370.16C603.586 376.337 612.001 382.178 621.596 386.347C622.407 386.699 621.938 387.904 621.169 387.92C605.915 388.214 591.288 386.149 577.519 379.32C571.087 376.13 564.625 372.095 560.898 365.727C556.581 358.353 556.707 346.214 567.076 344.204Z" fill="black"/>
<path fill-rule="evenodd" clip-rule="evenodd" d="M609.809 353C633.281 353 646.676 358.048 651.584 358.441L651.732 358.451C653.773 358.582 655.605 358.753 657.526 359.496C664.592 362.217 665.743 369.627 661.619 374.298C661.33 383.961 662.601 395.253 660.42 404.947C657.73 445.818 638.509 452.716 627.584 455.233C622.098 456.497 615.597 457 609.771 455.666C599.831 455.295 590.004 452.184 581.597 446.765C569.888 439.213 561.191 427.606 558.368 413.83C557.031 407.264 556.406 400.429 557.134 393.754L557.242 392.835C553.436 391.014 549.025 390.67 544.479 390.509C542.307 390.432 540.166 390.363 538.087 390.455C536.054 390.682 534.045 390.984 532.031 391.396C529.831 392.059 527.753 393.155 525.835 394.89L525.703 397.423C525.343 403.749 524.512 410.094 523.231 416.3C521.339 425.458 518.297 434.204 511.822 440.699C509.63 443.973 506.918 446.895 503.626 449.425C491.665 458.634 475.415 462.015 460.502 460.742C430.225 458.158 412.724 434.123 408.691 423.85L408.45 423.228C405.537 415.59 403.215 405.681 394.009 404.04L392.051 403.688C387.85 402.899 383.973 401.802 381.51 397.703C380.43 395.913 379.875 393.912 379.739 391.872C378.301 391.982 376.866 392.088 375.436 392.19C364.028 394.603 295.6 396.648 290.138 396.648C290.138 396.648 279.639 401.067 275.207 397.643C272.134 395.263 271.123 392.09 272.815 388.495C275.367 383.086 287.14 379.833 292.368 378.803C292.368 378.803 376.733 379.503 382.805 378.352C386.562 374.478 393.282 375.008 398.898 374.396C403.546 371.081 410.049 368.861 415.186 367.375C416.233 366.978 417.27 366.595 418.278 366.233C427.695 362.88 437.484 361.103 447.422 360.149C457.67 359.175 467.948 359.616 478.136 361.012C482.429 361.594 486.682 362.347 490.906 363.332C498.468 364.329 505.986 365.971 513.551 367.919L515.065 368.313C523.031 370.401 531.217 372.208 539.464 370.792C546.177 369.647 552.634 367.063 558.824 364.269L559.629 363.904C573.24 357.689 594.496 353 609.809 353ZM490.087 375.722C485.065 374.618 482.92 382.361 487.958 383.468C491.526 384.253 494.549 386.052 496.592 389.099L496.807 389.431C499.548 393.793 506.48 389.766 503.72 385.376C500.614 380.436 495.788 376.976 490.087 375.722ZM637.173 370.922C635.403 369.675 632.724 370.6 631.696 372.363C630.565 374.303 631.306 376.464 632.964 377.733L633.133 377.857C634.654 378.929 636.135 380.851 636.321 382.819L636.338 383.066C636.537 388.218 644.544 388.244 644.344 383.066C644.149 378 641.215 373.767 637.173 370.922Z" fill="black"/>
</svg>
