<svg viewBox="0 0 818 1289" fill="none" xmlns="http://www.w3.org/2000/svg">
<rect x="461" y="835" width="229" height="282" fill="white"/>
<path fill-rule="evenodd" clip-rule="evenodd" d="M394.207 559.173C418.892 540.376 480.865 531.923 507.211 550.022C533.233 568.197 536.07 597.589 548.196 624.627C559.637 619.232 578.53 626.958 581.847 637.574C585.961 642.581 586.146 656.649 588.983 663.38C712.425 683.029 731.166 779.267 746.024 888.525C765.68 999.394 810.301 1110.02 790.93 1224.11C793.454 1227.76 795.444 1231.31 797.284 1235.53C801.693 1243.03 796.014 1253.65 787.121 1253.24C775.61 1252.22 764.213 1250.84 752.648 1250.41C720.588 1249.3 688.499 1249.43 656.427 1249.84L652.054 1249.9C490.421 1251.91 328.797 1255.87 167.157 1256.93C161.293 1256.93 158.422 1251.68 159.205 1246.49C160.782 1236.04 162.245 1225.59 163.772 1215.14C125.54 1225.24 84.8961 1227.78 46.7721 1216.2C44.1051 1213.49 52.9861 1214.96 54.3951 1214.55C19.3091 1190.57 29.7871 1140.07 32.8951 1103.69C52.2211 979.036 59.0341 841.118 133.703 734.751C166.006 691.343 213.365 656.975 267.784 649.242L269.294 649.036C285.206 646.914 302.94 646.231 316.852 637.574C332.499 625.083 339.167 602.002 355.629 601.786C361.064 601.715 368.459 608.592 376.416 613.26C377.01 602.99 382.545 594.322 383.767 586.359L383.866 585.678C385.141 576.394 383.395 568.041 394.207 559.173ZM659.495 891.819C624.805 867.719 535.192 879.828 533.14 881.178C528.623 884.149 526.678 884.411 524.235 888.269C521.823 888.589 519.413 888.921 517.005 889.263C512.174 890.841 515.754 896.783 521.334 894.663C517.978 909.138 527.855 919.431 531.787 933.741C533.064 938.387 531.833 946.743 531.787 951.49C532.168 957.543 538.861 964.693 537.745 970.766C533.78 992.355 512.262 1013.41 521.334 1034.35C527.344 1046.18 545.42 1052.21 557.438 1056.23C582.337 1065.78 625.721 1055.87 640.188 1034.35C647.905 1022.88 656.845 993.928 661.446 984.949L662.465 970.706C664.98 935.299 667.217 897.183 659.495 891.819Z" fill="#D08B5B"/>
<path fill-rule="evenodd" clip-rule="evenodd" d="M354.345 601.851L364.273 607.943L421.931 636.445C433.109 639.575 438.698 643.326 438.698 647.698V692.217C438.698 698.174 449.188 711.677 470.167 732.723L489.548 713.402L489.115 710.872C487.271 699.972 486.348 692.68 486.348 688.997C486.348 685.037 505.31 670.001 543.234 643.891L559.825 628.271L558.056 622.891C568.285 623.375 579.379 629.675 581.847 637.574C585.961 642.581 586.146 656.649 588.983 663.38C712.425 683.029 731.166 779.267 746.024 888.525C765.68 999.394 810.301 1110.02 790.93 1224.11C793.454 1227.76 795.444 1231.31 797.284 1235.53C801.693 1243.03 796.014 1253.65 787.121 1253.24C775.61 1252.22 764.213 1250.84 752.648 1250.41C720.588 1249.3 688.499 1249.43 656.427 1249.84L652.054 1249.9C490.421 1251.91 328.797 1255.87 167.157 1256.93C161.293 1256.93 158.422 1251.68 159.205 1246.49C160.782 1236.04 162.245 1225.59 163.772 1215.14C125.54 1225.24 84.8961 1227.78 46.7721 1216.2C44.1051 1213.49 52.9861 1214.96 54.3951 1214.55C19.3091 1190.57 29.7871 1140.07 32.8951 1103.69C52.2211 979.036 59.0341 841.118 133.703 734.751C166.006 691.343 213.365 656.975 267.784 649.242L269.294 649.036L270.815 648.838C286.328 646.863 303.381 645.956 316.852 637.574C332.086 625.413 338.809 603.213 354.345 601.851ZM492.502 863.156C486.847 863.156 475.265 871.938 457.757 889.502L456.214 890.215C435.05 900.046 421.028 908.574 414.151 915.799L413.905 916.06C406.958 923.513 393.199 943.333 372.63 975.519L342.844 993.134H331.573L323.549 1051.34L342.844 1092.9L386.547 1078.18L457.757 1059.41L498.619 1017.95L521.669 1010.21C518.872 1018.29 517.859 1026.33 521.334 1034.35C527.344 1046.18 545.42 1052.21 557.438 1056.23C582.337 1065.78 625.721 1055.87 640.188 1034.35C647.905 1022.88 656.845 993.928 661.446 984.949L662.765 966.446C665.143 932.302 666.909 896.968 659.495 891.819C624.805 867.719 535.192 879.828 533.14 881.178C528.623 884.149 526.678 884.411 524.235 888.269L522.97 888.439L530.082 878.794L527.564 877.449C509.596 867.92 497.909 863.156 492.502 863.156ZM521.334 894.663C518.121 908.52 527.037 918.546 531.253 931.932L520.48 911.308L520.479 894.931C520.758 894.862 521.043 894.774 521.334 894.663Z" fill="#BC9DDB"/>
<path fill-rule="evenodd" clip-rule="evenodd" d="M349.585 599.698C351.98 597.577 355.524 600.242 354.002 603.107C350.582 609.546 347.074 615.647 342.484 621.339C339.701 624.79 336.72 628.054 333.699 631.282C341.452 637.989 348.101 646.316 354.38 654.12C362.409 664.101 370 674.505 379.013 683.638C387.901 692.646 397.73 698.942 409.614 703.141L412.014 703.974C423.952 708.165 436.711 713.825 443.441 725.128C444.768 727.357 442.096 730.111 439.85 728.72C428.157 721.48 414.418 720.024 401.69 715.24C389.395 710.619 378.677 703.507 369.207 694.43C359.753 685.368 351.815 675.058 343.535 664.966C335.347 654.987 326.531 646.464 316.846 638.021C301.9 648.076 284.84 652.451 267.493 656.748L265.6 657.216C248.232 661.516 230.957 666.51 214.663 673.998C200.297 680.599 186.167 688.482 174.465 699.224C162.043 710.624 152.375 725.184 143.526 739.423C123.732 771.279 109.816 806.179 97.5645 841.503C84.8225 878.245 74.1645 915.723 65.5605 953.646C61.1845 972.936 57.6305 992.363 54.7095 1011.93C53.3035 1021.35 52.0545 1030.79 50.9575 1040.25C49.7865 1050.36 49.5175 1060.75 46.4175 1070.47C45.0885 1074.63 41.9505 1076.36 38.8095 1076.22L38.1715 1084.19C37.3256 1094.83 36.5369 1105.47 36.2705 1116.18C35.8286 1133.98 36.029 1151.72 37.3092 1169.48L37.4905 1171.9C38.4965 1184.87 40.7445 1199.43 50.4915 1208.92C60.5855 1218.75 76.1085 1221.84 89.7135 1222.02C121.401 1222.43 151.903 1207.46 179.943 1194.33C208.821 1180.8 236.91 1165.78 264.326 1149.5C278.288 1141.21 292.099 1132.64 305.734 1123.82C312.425 1119.49 319.069 1115.09 325.663 1110.61C329.44 1108.05 333.019 1105.24 336.864 1102.97C334.98 1101.22 334.139 1098.46 335.717 1096.05C324.602 1086.4 319.976 1069.19 319.435 1055.25C318.998 1044.01 320.653 1032.8 321.959 1021.66C322.618 1016.04 323.432 1010.43 324.277 1004.84C324.611 1002.63 324.866 1000.27 325.256 997.937C295.243 1014.43 264.389 1029.12 232.718 1042.17C216.484 1048.86 200.042 1054.87 183.373 1060.38L179.994 1061.49C164.2 1066.66 148.028 1071.55 131.701 1074.5C130.828 1074.66 130.119 1073.37 131.051 1072.96C146.963 1065.94 163.426 1060.02 179.577 1053.55L182.231 1052.47V1052.47C181.926 1052.45 181.61 1052.41 181.28 1052.33C171.808 1050.05 162.41 1046.52 153.12 1043.56C144.498 1040.8 134.811 1039.08 126.752 1034.92C126.132 1034.6 126.479 1033.74 127.083 1033.7C136.141 1033.07 145.974 1035.71 154.855 1037.26L158.191 1037.85C163.78 1038.83 169.493 1039.89 175.055 1041.27C175.256 1039.41 176.297 1037.54 177.778 1036.44C194.075 1024.37 192.42 999.996 194.163 982.021L195.455 968.676C197.728 945.321 200.134 921.969 203.788 898.788C203.983 897.55 205.898 897.905 205.906 899.074C206.094 927.809 203.925 956.411 202.838 985.101L202.669 989.808C202.068 1007.51 201.597 1025.89 190.448 1039.51C192.007 1038.6 194.115 1038.6 195.378 1040.11C196.93 1041.95 197.826 1044.03 197.798 1046.06C207.873 1041.84 217.904 1037.5 227.886 1033.08C259.979 1018.86 291.399 1002.95 321.988 985.736C325.28 983.883 328.409 985.339 330.037 987.782L330.271 987.749C330.311 987.743 330.351 987.739 330.392 987.738L330.625 987.728C330.634 987.728 330.643 987.729 330.651 987.729C334.957 985.363 340.823 987.048 344.518 990.499C344.627 990.603 344.72 990.715 344.817 990.825C349.495 988.725 353.863 985.89 357.827 982.297C365.939 974.945 372.81 965.854 378.8 956.738C389.831 939.948 399.201 921.277 414.102 907.456C426.209 896.227 441.219 889.236 456.966 884.847C456.9 884.387 457.076 883.897 457.394 883.571C458.203 882.742 458.78 882.455 459.825 882.958C459.908 882.999 459.958 883.055 459.992 883.115L461.528 880.49C462.367 879.065 463.228 877.63 463.527 877.253C465.315 875.002 467.155 872.768 469.023 870.581C472.19 866.878 475.799 863.224 479.978 860.656C489.128 855.035 498.747 858.216 508.154 861.288C513.838 863.145 519.503 865.062 525.177 866.947L525.762 867.139C529.993 868.498 534.944 869.687 536.836 874.169C537.585 875.943 537.701 877.784 537.352 879.57C577.535 869.351 622.167 874.046 661.38 886.042C662.885 886.502 664.389 887.74 664.706 889.366C669.199 912.407 671.2 936.036 669.167 959.47C667.413 979.698 662.93 999.521 654.484 1018.04L654.004 1019.09C646.067 1036.25 633.486 1057.41 614.273 1062.78C602.672 1066.03 589.842 1064.12 578.01 1063.52C566.511 1062.94 554.757 1062.86 543.367 1061.05C533.223 1059.44 524.335 1054.89 518.066 1046.65C512.658 1039.53 509.81 1030.93 507.477 1022.38C506.409 1022.72 505.348 1023.08 504.304 1023.49C499.897 1025.21 496.163 1027.98 492.787 1031.25C485.658 1038.16 480.128 1046.54 472.669 1053.13C465.917 1059.09 458.223 1063.73 449.97 1067.3C432.868 1074.69 414.522 1077.64 396.433 1081.56L395.172 1081.83C381.554 1084.82 367.654 1088.49 355.634 1095.58C355.399 1097.67 354.448 1099.63 352.924 1100.92C355.044 1102.91 355.942 1106.06 354.079 1109.02C348.875 1117.28 339.911 1121.97 331.864 1127.26L331.341 1127.6C323.425 1132.85 315.44 1137.99 307.39 1143.03C291.025 1153.28 274.318 1162.96 257.375 1172.22C230.124 1187.1 202.288 1201.15 173.948 1213.88C175.649 1222.25 175.027 1230.88 176.305 1239.31L176.502 1240.51C177.048 1243.63 176.31 1246.25 174.156 1248.29L173.929 1248.5L173.933 1248.47L173.731 1248.66L173.663 1248.72L173.686 1248.7C173.437 1248.93 173.181 1249.14 172.92 1249.32L172.588 1249.53V1249.53C170.513 1250.79 167.843 1250.78 165.719 1249.67L165.477 1249.53L165.069 1249.3C162.263 1247.68 160.328 1243.69 161.492 1240.51C164.353 1232.7 165.434 1224.37 168.076 1216.51L165.98 1217.44V1217.44L163.217 1218.65C133.339 1231.57 100.151 1242.45 67.5965 1233.64C53.2125 1229.75 39.7685 1221.51 32.5715 1208.09C25.4895 1194.89 24.4885 1179.55 24.1125 1164.86C23.6485 1146.73 24.6205 1128.32 27.0115 1110.35C28.6165 1098.28 30.5575 1085.99 33.5515 1074.05C32.0115 1072.69 30.8795 1070.74 30.5805 1068.33C29.1675 1056.92 31.6405 1045.06 33.1545 1033.72C34.6335 1022.64 36.2675 1011.58 38.1155 1000.56C41.8465 978.302 46.1815 956.09 51.2285 934.092C60.2105 894.941 72.0715 856.486 86.3515 818.95L87.6021 815.681C100.798 781.372 116.076 747.795 137.351 717.654C147.528 703.234 158.286 690.16 172.666 679.769C186.138 670.033 201.334 663.023 217.016 657.665C232.715 652.303 248.851 648.71 265.272 646.475C281.949 644.205 299.552 642.813 315.109 635.973C313.141 632.445 314.83 627.682 318.142 625.494C329.288 618.13 339.595 608.55 349.585 599.698ZM706.39 919.92C706.857 919.211 707.966 919.659 707.761 920.498C702.34 942.707 697.251 964.961 693.928 987.594C687.93 1028.44 689.033 1069.83 689.523 1110.98L689.548 1113.11C689.8 1135.27 690.15 1157.44 690.883 1179.6C691.253 1190.8 691.985 1202.1 691.587 1213.31C691.37 1219.39 689.75 1225.13 689.176 1231.14C688.673 1236.39 689.121 1241.72 689.372 1246.98C689.54 1250.48 684.38 1250.33 684.029 1246.98L683.58 1242.65C682.997 1237.17 682.277 1231.73 680.481 1226.48C678.322 1220.18 677.286 1213.98 676.537 1207.36C675.39 1197.21 674.88 1186.96 674.437 1176.75L674.134 1169.68C672.285 1126.97 672.35 1084.07 675.343 1041.41L675.562 1038.36C678.526 998.039 683.669 954.47 706.39 919.92ZM590.835 665.773C589.419 665.191 589.915 663.05 591.483 663.423L594.335 664.103C615.229 669.108 635.745 674.53 655.247 683.843C674.762 693.161 691.284 707.072 704.412 724.178C729.932 757.429 740.537 797.839 748.909 838.211C758.213 883.072 766.684 928.097 776.069 972.944L777.812 981.298C786.496 1023.07 794.695 1064.86 800.736 1107.13L801.17 1110.19C807.263 1153.65 810.927 1198.62 804.279 1242.19C802.964 1250.81 788.618 1248.67 789.179 1240.15C790.799 1215.53 791.959 1191.03 790.838 1166.36C789.716 1141.67 787.401 1117.1 783.95 1092.63C781.046 1072.04 776.717 1051.71 772.886 1031.28L772.285 1028.05C769.077 1010.68 765.77 993.323 762.47 975.966L757.539 949.978C750.148 911.065 742.612 872.118 734.097 833.449L733.592 831.174C725.259 793.972 712.974 755.002 687.979 725.46C662.614 695.479 626.303 680.38 590.835 665.773ZM498.668 1060.37C499.278 1059.01 501.412 1059.16 502.068 1060.37C504.639 1065.11 504.924 1071.17 505.41 1076.52L505.461 1077.07C506.079 1083.6 506.626 1090.16 506.961 1096.71C507.596 1109.15 507.9 1121.58 507.861 1134.03C507.821 1146.79 507.564 1159.54 506.876 1172.29L506.69 1175.7C506.062 1186.78 505.008 1199.13 499.745 1208.82C497.832 1212.34 492.629 1211.3 491.521 1207.74C487.891 1196.09 489.755 1182.27 490.686 1170.33L491.409 1161.01C492.125 1151.7 492.808 1142.38 493.349 1133.05C494.091 1120.29 494.703 1107.52 495.292 1094.75C495.484 1090.6 495.691 1086.46 495.909 1082.31L496.245 1076.09C496.532 1070.89 496.508 1065.18 498.668 1060.37ZM90.5205 1076.89L92.1275 1075.34C97.0605 1070.51 103.294 1063.08 110.587 1063.54C113.495 1063.72 115.348 1066.13 114.745 1069C113.457 1075.11 107.218 1078.29 102.727 1082.02C97.8068 1086.11 93.1698 1090.48 88.5418 1094.89C84.436 1098.81 80.4875 1102.83 76.6337 1106.98L75.1928 1108.54C73.8114 1110.05 63.9743 1118.95 65.0379 1121.26L65.0958 1121.36C65.3918 1121.8 64.8988 1122.41 64.4078 1122.25C60.1598 1120.91 60.4248 1117.27 62.0308 1113.58C65.1168 1106.49 70.5208 1099.94 75.2398 1093.88C79.9461 1087.85 85.0399 1082.22 90.5205 1076.89V1076.89ZM514.062 899.137C510.777 891.373 498.676 891.536 491.806 892C474.506 893.169 455.788 897.546 440.395 905.632C424.436 914.015 413.686 927.447 404.068 942.3L403.618 942.997C394.243 957.57 385.214 974.821 370.534 984.841C363.057 989.946 354.326 994.607 345.254 996.626C344.631 997.721 343.622 998.588 342.299 998.903L341.684 999.044C339.1 999.615 335.086 1000.25 331.619 999.868C331.642 1001.56 331.624 1003.25 331.667 1004.85C331.789 1009.46 331.841 1014.08 331.841 1018.69C331.843 1028.35 331.324 1038.02 331.727 1047.68C332.084 1056.21 333.29 1065.14 337.39 1072.77C340.397 1078.37 344.366 1082.08 349.157 1085.61C360.943 1078.43 374.27 1074.05 387.796 1070.76C404.154 1066.78 420.903 1064.12 436.889 1058.72C444.583 1056.13 451.98 1052.72 458.682 1048.11C465.795 1043.2 471.228 1036.56 476.818 1030.07L477.691 1029.06C483.396 1022.52 489.621 1016.26 497.684 1012.71C504.627 1009.66 513.778 1009.11 519.849 1004.39C523.023 1001.91 523.289 998.322 523.623 994.646C519.735 995.202 515.619 994.311 511.744 993.857L509.736 993.622C506.072 993.186 502.492 992.708 498.885 991.775C498.215 991.602 498.215 990.592 498.885 990.419C503.148 989.318 507.373 988.849 511.744 988.337L512.77 988.209C516.724 987.691 520.881 986.908 524.76 987.778C525.456 985.13 526.461 982.602 527.871 980.07C529.85 976.513 533.595 972.48 534.101 968.325C534.252 967.084 533.963 965.621 533.378 964.524L533.176 964.151C532.93 963.709 532.639 963.265 532.213 962.989C532.166 963.044 532.066 963.107 531.849 963.175C528.864 964.115 526.26 962.654 524.878 960.402C519.011 961.13 512.608 960.885 507.106 961.128L501.543 961.398C495.598 961.67 489.384 961.789 483.799 960.588C483.019 960.421 482.783 959.123 483.564 958.789C490.431 955.852 498.761 954.915 506.113 953.787C510.219 953.156 514.355 952.676 518.473 952.121C521.215 951.751 524.125 951.14 526.966 950.993C534.089 942.126 530.251 928.138 520.338 924.32C516.727 925.907 513.48 924.984 509.535 924.645C505.597 924.307 501.649 924.078 497.695 924.095C489.772 924.13 481.376 926.214 473.53 925.317C472.254 925.17 471.068 923.472 472.337 922.436C478.342 917.535 486.95 915.937 494.573 914.893L496.154 914.681C498.71 914.346 501.818 913.857 505.042 913.566C505.771 912.144 507.079 911.069 509.044 910.802C509.628 910.722 510.215 910.675 510.801 910.625L510.792 910.567V910.567C515.584 910.337 515.376 902.243 514.062 899.137ZM185.993 1050.56C185.908 1050.69 185.815 1050.82 185.717 1050.94L185.565 1051.11L186.353 1050.79L185.993 1050.56V1050.56ZM597.684 881.788C577.514 879.621 557.315 880.078 537.085 880.66C535.467 885.952 529.835 890.462 524.378 890.632C528.652 897.137 529.093 905.941 526.096 912.84C532.459 915.373 537.941 919.923 541.269 926.403C545.884 935.386 545.28 945.382 540.719 953.684C544.612 957.208 546.909 962.931 546.679 968.325C546.422 974.34 542.837 979.478 539.858 984.458C536.639 989.844 536.531 994.586 535.542 1000.62C534.095 1009.45 528.141 1014.8 520.48 1018.14L520.887 1019.75C522.862 1027.43 525.319 1035.55 530.965 1041.17C538.226 1048.4 549.492 1048.33 559.087 1048.79L559.55 1048.81C568.335 1049.25 577.117 1049.77 585.899 1050.27L592.487 1050.63C602.599 1051.19 612.31 1051.26 620.565 1044.57C634.042 1033.66 643.281 1015.6 649.129 999.614C661.403 966.058 661.55 929.233 655.916 894.285C637.021 888.195 617.416 883.908 597.684 881.788ZM429.945 937.46L430.093 937.471C434.246 937.945 437.099 941.308 438.115 945.297C439.591 951.095 438.867 956.337 442.418 961.571C446.071 966.953 448.317 971.262 448.848 977.911C449.066 980.647 448.966 983.376 449.575 986.054L450.017 987.93C450.486 989.931 450.869 991.858 450.636 994.006C450.423 995.965 449.469 997.491 447.504 998.119C441.101 1000.17 436.157 995.449 434.503 989.482C433.074 984.328 434.982 978.186 432.966 973.346C431.849 970.663 429.789 968.419 428.625 965.718C427.472 963.041 426.893 960.244 426.708 957.334C426.357 951.83 431.225 945.217 428.509 940.23C427.931 939.166 428.586 937.428 429.945 937.46ZM344.892 880.662C349.228 879.781 354.147 877.762 358.423 879.44C360.621 880.304 361.707 882.984 359.85 884.847C356.626 888.079 351.94 888.259 347.597 889.021L347.215 889.09C342.08 890.04 336.936 890.941 331.785 891.795C322.094 893.4 312.38 894.819 302.632 896.025C292.62 897.264 282.58 898.367 272.526 899.197L268.634 899.516C260.141 900.195 251.304 900.708 242.971 899.407C241.76 899.218 241.955 897.455 242.971 897.146C252.1 894.383 262.114 893.642 271.552 892.473C281.586 891.228 291.603 889.913 301.594 888.353C311.569 886.795 321.531 885.123 331.456 883.275C335.942 882.441 340.421 881.57 344.892 880.662ZM501.347 871.79C497.542 870.443 493.356 868.447 489.233 869.115C482.123 870.267 475.795 877.194 470.167 881.756L472.992 881.207C487.452 878.428 506.6 875.434 518.738 884.627C518.769 884.574 518.793 884.521 518.828 884.468C519.808 882.98 520.943 881.819 522.182 880.546C522.3 880.435 522.414 880.319 522.527 880.202L523.196 879.49L521.667 878.961C518.392 877.803 514.512 876.309 513.899 876.09L513.857 876.075C509.682 874.661 505.502 873.263 501.347 871.79ZM382.545 568.716C381.95 561.063 393.861 561.126 394.451 568.716C395.738 585.286 392.009 601.699 383.983 616.226C383.924 616.332 383.859 616.426 383.797 616.526C388.817 619.138 393.894 621.644 399.084 623.884C405.723 626.75 412.487 629.36 419.372 631.574C425.6 633.578 433.273 634.369 438.509 638.539C449.55 647.331 445.402 665.577 443.278 677.404L442.946 679.271C441.889 685.357 441.124 691.601 443.69 697.442C446.43 703.681 451.971 708.309 456.914 712.773L457.912 713.678C462.291 717.668 467.295 722.515 470.507 727.923C473.439 721.861 477.436 716.907 481.662 711.33C484.677 707.35 482.531 706.038 480.365 702.15C478.28 698.408 477.262 694.419 477.914 690.15C479.117 682.266 485.418 676.571 491.69 672.292C499.097 667.241 507.364 663.499 515.021 658.8C530.755 649.146 546.078 638.108 559.883 625.849C560.264 625.51 560.924 625.954 560.619 626.417C549.714 643.004 536.927 657.337 521.212 669.503C514.84 674.436 508.146 678.528 501.407 682.83L499.47 684.073C496.764 685.826 493.389 688.168 492.166 691.152C490.935 694.153 493.56 696.419 494.973 698.905C499.46 706.8 497.295 714.166 491.976 720.861L491.728 721.169C486.442 727.683 482.436 733.741 480.52 742.063C476.403 759.94 482.137 778.561 488.14 795.344L488.377 796.005C491.624 805.051 495.075 814.031 497.896 823.222L498.672 825.763C501.228 834.22 503.321 842.561 500.454 851.254C499.479 854.211 495.446 854.91 493.771 852.127C487.862 842.313 486.389 830.503 482.685 819.713C479.075 809.197 474.93 798.871 471.443 788.312C466.953 774.717 463.948 760.083 465.579 745.823C465.531 745.74 465.478 745.662 465.438 745.574L464.295 743.074C461.178 736.304 458.168 730.392 452.5 724.996C446.588 719.367 440.171 714.384 435.519 707.57C425.414 692.769 431.663 676.304 432.884 660.12L433.024 658.136C433.245 654.775 433.367 650.209 431.172 647.883C428.703 645.265 422.913 644.597 419.637 643.438C411.171 640.442 402.828 636.951 394.882 632.759C387.318 628.769 379.991 624.361 373.169 619.197L369.711 616.596C364.255 612.48 358.598 607.984 354.942 602.381C354.52 601.736 355.237 600.695 356.001 601.004C362.105 603.481 367.682 607.421 373.393 610.849C373.482 610.64 373.585 610.429 373.702 610.217C380.768 597.429 383.674 583.261 382.545 568.716ZM577.528 656.331C579.96 649.662 591.044 650.177 590.602 658.101C590.263 664.189 587.679 669.684 585.315 675.211L585.063 675.803C582.623 681.562 579.805 686.969 576.433 692.247C569.99 702.337 562.443 711.701 554.382 720.538C547.074 728.55 537.482 733.449 526.429 732.635C521.772 732.292 517.071 731.107 512.99 728.781C508.143 726.017 502.879 717.718 496.695 719.728C496.097 719.922 495.539 719.046 496.056 718.631C503.195 712.882 511.298 721.796 518.133 723.944C528.432 727.179 539.001 723.602 545.63 715.276C552.551 706.583 558.921 696.85 564.738 687.385C567.692 682.579 570.387 677.591 572.715 672.45C575.064 667.261 575.598 661.622 577.528 656.331ZM560.927 615.289C560.627 614.368 561.771 613.492 562.58 614.018C567.271 617.072 571.336 621.107 575.663 624.644C580.464 628.568 585.3 632.412 590.211 636.197C597.37 641.716 589.067 651.876 582.765 645.847C574.141 637.6 564.696 626.816 560.927 615.289ZM535.172 583.009C537.078 575.661 548.349 578.691 546.707 585.954L546.653 586.175C543.542 598.172 547.973 610.386 557.432 618.163L557.78 618.445C563.764 623.234 555.286 631.606 549.361 626.863C536.426 616.511 531.045 598.926 535.172 583.009Z" fill="black"/>
<path fill-rule="evenodd" clip-rule="evenodd" d="M612.597 248.809C605.534 223.313 606.544 220.555 596.018 196.202C561.111 125.452 327.846 149.141 304.039 219.765C291.124 258.079 294.158 312.038 290.796 345.261C289.767 362.876 288.757 380.492 287.71 398.105C287.348 404.188 286.982 410.27 286.61 416.352C285.884 428.192 285.179 440.032 284.52 451.876C280.134 488.362 298.432 492.073 329.816 490.993C338.114 511.054 351.552 527.8 368.152 541.425C364.146 552.347 378.675 558.001 386.513 562.368C429.155 586.228 481.536 600.783 528.769 587.366C542.647 583.424 599.96 569.771 617.582 527.505C626.236 506.749 643.827 399.264 620.629 302.576L612.597 248.809Z" fill="#D08B5B"/>
<path fill-rule="evenodd" clip-rule="evenodd" d="M463.497 82.506C470.092 81.337 477.468 81.787 481.249 88.277C482.067 89.676 482.586 91.087 482.835 92.477C500.857 88.417 519.568 87.977 537.979 90.637C543.467 91.426 545.393 98.756 542.978 102.947C542.729 103.377 542.479 103.796 542.21 104.207C547.978 104.676 553.735 105.676 559.443 107.217C563.505 108.317 567.297 113.587 565.492 117.907C565.331 118.287 565.161 118.667 564.993 119.046C573.963 120.557 582.534 124.087 590.029 129.787C590.927 130.457 591.755 131.327 592.444 132.317C609.198 130.426 626.452 133.897 641.41 141.997C645.601 144.266 647.627 150.807 644.783 154.887C643.895 156.157 642.967 157.367 641.969 158.537C648.475 160.947 654.233 164.846 658.115 171.197C662.336 178.087 663.633 186.957 661.368 194.537C666.098 199.367 668.573 206.766 666.886 214.186C665.349 220.957 661.208 225.256 655.899 227.837C656.977 231.137 656.109 234.887 653.664 237.436C649.912 241.346 645.422 244.346 640.532 246.317C640.522 247.587 640.203 248.897 639.564 250.117C635.153 258.596 625.643 264.227 615.974 265.077C619.227 278.766 621.901 292.627 624.496 306.407C629.107 330.917 632.678 355.667 634.854 380.516L635.118 383.589C638.662 425.637 639.486 469.688 630.952 511.167C625.514 537.577 609.028 559.837 587.035 574.917C564.672 590.256 537.35 597.887 510.467 599.096C496.756 599.707 482.916 598.546 469.485 595.727C463.107 594.387 456.95 592.487 450.893 590.067C444.377 587.457 439.009 583.607 433.5 579.277C430.636 577.027 432.273 571.717 435.665 571.046C438.09 570.557 440.485 570.027 442.9 569.587C445.115 569.176 447.531 571.397 447.071 573.447L451.743 574.653C453.301 575.055 454.857 575.461 456.41 575.879L458.736 576.516C465.352 578.367 472.118 579.926 478.904 581.037C492.714 583.287 507.084 583.337 520.965 581.587C544.305 578.657 568.145 570.317 586.297 554.947C595.198 547.407 602.612 538.477 607.991 528.107C614.826 514.936 616.892 500.266 618.608 485.697C623.568 443.567 622.041 401.377 618.189 359.237C616.273 338.277 613.659 317.357 610.885 296.487C609.458 285.787 607.921 275.067 606.655 264.327C603.829 263.567 601.135 262.307 598.72 260.477C597.084 259.237 596.126 257.796 595.707 256.327C593.268 255.866 590.931 254.525 589.247 252.258L589.031 251.957C584.61 245.546 576.967 241.877 569.891 239.207C565.6 237.587 561.23 236.176 556.879 234.737C552.348 233.227 547.558 230.997 542.799 230.417C537.4 229.777 531.961 231.407 526.513 230.827C521.563 230.287 517.203 228.506 513.641 224.947C512.394 223.707 511.315 222.277 510.457 220.737C493.842 224.296 476.389 219.807 459.125 220.887C447.769 221.607 437.751 228.647 426.275 228.457C423.141 228.407 420.108 227.307 417.903 225.377C407.076 227.447 396.069 231.426 385.89 234.846C375.832 238.227 366.152 242.777 356.213 246.467C356.203 246.477 356.203 246.477 356.203 246.487C354.906 250.697 351.034 252.516 346.913 251.777C333.431 249.367 322.075 240.846 308.953 237.727C305.341 250.917 301.459 263.936 298.805 277.387C296.12 290.957 294.234 304.707 292.987 318.487C291.729 332.317 291.131 346.287 291.101 360.167C291.091 367.247 291.27 374.346 291.51 381.426C291.704 387.358 292.832 394.857 290.693 400.562L290.502 401.046H290.492C290.232 401.877 289.065 402.377 288.406 401.607C284.385 396.926 283.427 389.477 282.309 383.596C280.952 376.457 280.084 369.247 279.386 362.016C277.988 347.506 277.679 333.057 278.417 318.487C279.864 289.807 284.455 259.516 294.254 232.407C291.24 232.686 289.893 228.237 289.694 225.727C289.312 220.683 290.1 215.33 290.955 210.271L291.848 205.033C292.695 200.09 293.592 195.275 295.272 190.467C299.304 178.926 305.101 168.087 312.326 158.237C327.065 138.147 347.492 122.936 370.752 114.167C372.209 113.617 373.586 113.627 374.804 114.046C395.969 102.617 418.721 93.817 441.832 87.557C448.977 85.627 456.212 83.807 463.497 82.506ZM287.728 404.936C297.338 398.897 317.166 397.317 322.525 410.186C322.744 410.706 322.125 411.166 321.666 411.046L320.355 410.715C315.318 409.464 310.965 408.745 305.8 410.817C301.259 412.637 296.849 415.486 293.845 419.406C286.745 428.677 285.975 441.269 286.637 452.514L286.67 453.057C287.289 462.926 289.814 474.946 299.443 479.826C304.323 482.296 309.602 482.116 314.901 482.076C320.938 482.036 327.105 482.696 332.873 484.557C336.096 485.596 337.613 489.876 334.938 492.387C334.05 493.217 333.122 493.996 332.144 494.696C335.068 497.817 337.942 500.977 340.726 504.307C345.446 509.956 350.465 515.416 355.704 520.586C360.774 525.576 366.142 530.406 371.93 534.546C378.017 538.887 385.302 541.936 390.571 547.256C394.003 550.717 393.415 555.546 390.571 559.046C383.51 567.745 371.493 558.601 364.743 553.457L363.927 552.836C356.912 547.516 350.246 541.776 344.568 535.016C338.78 528.116 333.771 520.776 330.069 512.546C327.893 507.706 326.506 503.137 325.758 498.357C313.623 503.637 298.326 501.956 287.449 494.526C273.009 484.666 268.958 466.567 268.907 450.046L268.909 449.067C269.016 433.009 273.225 414.05 287.728 404.936ZM315.104 428.212L315.549 428.217C320.893 428.333 325.659 430.262 330.198 432.919L330.667 433.197C335.078 435.827 341.404 437.936 343.739 442.857C345.136 445.827 345.037 449.227 342.602 451.686C338.191 456.147 331.535 455.407 326.765 451.926C323.203 449.317 320.858 445.407 317.365 442.766C310.799 437.787 300.441 438.067 293.606 442.377C293.186 442.647 292.778 442.137 292.967 441.737C297.164 433.129 305.483 428.178 315.104 428.212V428.212Z" fill="black"/>
<path fill-rule="evenodd" clip-rule="evenodd" d="M574.581 502.822C571.281 507.137 565.306 510.442 558.614 512.022C552.238 513.528 545.19 513.466 539.109 511.149L538.586 510.941C534.039 509.053 529.675 505.239 528.017 501.26C527.358 499.678 527.135 498.069 527.586 496.569C527.992 495.219 528.943 493.976 530.527 492.909C531.024 492.574 531.692 492.55 532.327 492.662C533.116 492.801 533.893 493.17 534.362 493.668C536.964 496.435 540.739 499.132 545.207 499.086C548.654 499.051 551.47 497.69 554.2 496.151L556.118 495.053C557.969 493.996 559.847 493.004 561.97 492.551C565.772 491.739 570.384 493.222 573.194 495.67C574.419 496.737 575.309 497.991 575.551 499.343C575.754 500.477 575.469 501.661 574.581 502.822ZM554.814 427.367C562.366 431.957 573.872 442.66 565.748 454.039C556.186 464.073 542.418 452.569 535.634 447.366C529.343 443.334 522.275 453.704 528.112 458.413C577.136 494.708 597.031 428.567 558.634 421.97C554.406 421.243 552.836 425.947 554.814 427.367ZM469.623 356.821L471.792 356.226L474.004 355.629L475.5 355.234C485.775 352.544 497.108 350.178 507.297 351.333C511.013 351.755 514.029 353.846 514.555 357.739C514.998 361.024 512.875 365.262 509.262 365.846C497.295 367.782 485.044 367.154 473.022 369.15C467.035 370.143 461.094 371.376 455.13 372.487C450.595 373.333 445.909 373.63 441.335 374.314L442.386 374.46C442.754 374.51 442.662 375.129 442.299 375.104C440.791 374.954 439.281 374.93 437.769 375.036L437.121 375.089C436.134 375.228 435.552 374.05 436.432 373.452C442.005 369.671 446.734 365.573 452.974 362.786C458.371 360.376 463.926 358.389 469.623 356.821ZM563.162 351.022C571.062 343.036 587.862 346.105 597.26 349.758C602.624 351.844 607.724 354.481 611.972 358.426L612.386 358.814L613.024 359.428C615.892 362.235 619.089 366.098 618.634 370.145C618.565 370.762 618.229 371.467 617.532 371.591C613.768 372.258 610.071 370.272 606.595 369.077L604.293 368.287C600.836 367.11 597.357 365.985 593.793 365.172C589.361 364.164 584.84 363.581 580.29 363.639C575.691 363.699 570.751 364.997 566.37 363.171C561.484 361.136 558.951 355.28 563.162 351.022ZM485.116 415.43C483.1 417.488 480.438 418.65 477.031 417.959C474.369 417.419 469.3 414.742 465.251 410.62C462.481 407.8 460.164 404.275 459.535 400.193C459.389 399.245 458.885 398.637 458.225 398.254C457.703 397.952 457.015 397.8 456.266 397.876C455.63 397.94 454.954 398.171 454.432 398.476C453.439 399.057 453.033 399.882 452.951 400.498C452.154 406.442 454.45 412.339 458.029 417.312C462.858 424.022 469.951 428.94 474.119 430.091C481.253 432.062 488.77 430.493 494.312 425.528C498.744 421.558 501.016 416.386 503.123 411.067L503.53 410.036C504.004 408.829 504.474 407.631 504.973 406.446C505.972 404.071 505.652 402.018 504.683 400.418C503.61 398.645 501.629 397.398 499.424 397.014C497.386 396.66 495.205 397.048 493.484 398.292C492.029 399.344 490.856 401.01 490.439 403.474C489.762 407.481 488.19 412.078 485.418 415.111L485.116 415.43ZM607.441 392.24C605.778 391.374 604.478 391.113 602.634 391.666C601.615 391.972 600.607 392.559 599.818 393.348C599.036 394.13 598.472 395.102 598.252 396.181C597.713 398.843 596.256 401.335 594.181 402.96C592.406 404.349 590.167 405.085 587.683 404.669C585.002 404.222 582.449 402.503 580.69 400.476C580.2 399.911 579.798 399.282 579.41 398.645L579.178 398.263C578.311 396.832 577.469 395.502 576.274 394.451C575.821 394.052 575.138 393.775 574.477 393.775C574.208 393.775 573.935 393.818 573.675 393.899C571.008 396.577 570.495 398.608 570.581 400.623C570.671 402.736 571.504 404.875 572.85 406.871C576.007 411.553 582.003 415.392 586.048 416.261C591.589 417.452 597.091 416.023 601.503 412.928C606.042 409.744 609.405 404.801 610.454 399.23C610.706 397.888 610.599 396.44 610.088 395.184C609.589 393.957 608.719 392.906 607.441 392.24Z" fill="black"/>
</svg>
