<svg viewBox="0 0 818 1289" fill="none" xmlns="http://www.w3.org/2000/svg">
<path fill-rule="evenodd" clip-rule="evenodd" d="M774.281 1109.02C770.25 1086.26 766.555 1063.43 763.197 1040.56C761.603 1029.7 760.048 1018.83 758.65 1007.94C757.671 1000.31 756.18 991.591 761.37 985.942C768.673 977.99 775.307 971.184 776.201 959.793C777.042 949.076 773.418 937.393 771.152 926.99C766.4 905.174 760.484 883.628 753.947 862.286C747.306 840.603 740.024 819.124 732.637 797.686C725.731 777.642 719.092 757.417 710.097 738.186C693.026 701.691 664.146 674.664 628.454 656.618C619.577 652.13 601.471 636.108 592.197 632.521C583.671 629.223 583.702 638.854 575.311 635.226C568.603 632.326 562.357 628.459 558.601 621.982C554.523 614.949 544.296 605.113 542.739 596.927C539.44 579.576 543.014 564.807 530.63 551.748C519.636 540.151 504.859 532.206 489.569 527.941C455.933 518.56 411.075 525.119 390.781 556.374C381.088 571.3 377.701 589.342 364.622 601.523C353.201 612.159 355.757 619.431 340.965 624.913C340.127 625.224 317.419 620.353 316.581 620.665C300.399 617.202 284.933 626.895 270.087 632.521C247.954 640.905 226.882 651.819 207.085 664.79C167.166 690.945 132.976 724.908 104.789 763.341C76.3688 802.091 54.3178 845.523 38.6168 890.917C34.8038 901.943 31.3788 913.103 28.3578 924.372C26.6668 930.679 24.8598 937.221 26.9188 943.677C28.6028 948.96 32.3488 952.893 36.7478 956.062C42.7108 960.359 54.6718 963.152 54.4388 971.794C54.2608 978.364 52.0318 985.279 50.9438 991.772C49.6488 999.504 48.5848 1007.28 47.5208 1015.05C42.6808 1050.4 38.9138 1085.95 37.2478 1121.6C35.6078 1156.7 34.2468 1192.52 36.6818 1227.61C36.8428 1229.92 37.5328 1232.05 38.6458 1233.84C37.6068 1234.24 37.5268 1236.18 38.8198 1236.45C39.7258 1236.64 40.6298 1236.84 41.5358 1237.03C43.4178 1238.45 45.7648 1239.32 48.4658 1239.41C50.2968 1239.47 52.1268 1239.55 53.9558 1239.64C73.2568 1243.68 92.5548 1247.49 112.108 1250.38C135.876 1253.88 159.714 1256.74 183.626 1259.07C232.761 1263.85 281.509 1262.26 330.709 1259.69C379.833 1257.11 428.928 1256.51 478.103 1257.79C527.321 1259.07 576.521 1261.21 625.75 1262.09C680.749 1263.07 735.664 1261.57 790.504 1257.19C798.023 1256.6 802.675 1250.61 801.192 1243.15C792.307 1198.4 782.238 1153.96 774.281 1109.02Z" fill="#D08B5B"/>
<path fill-rule="evenodd" clip-rule="evenodd" d="M270.087 632.521L271.162 632.107C285.679 626.436 300.79 617.285 316.582 620.665C317.14 620.457 327.416 622.552 334.454 623.88L327.774 630.853L315.984 633.121C356.657 700.249 404.762 733.813 460.298 733.813C515.835 733.813 557.976 700.249 586.723 633.121L590.646 632.036C591.13 632.148 591.646 632.307 592.198 632.521C601.472 636.108 619.577 652.129 628.454 656.617C664.146 674.664 693.026 701.69 710.097 738.186C718.792 756.776 725.286 776.294 731.947 795.68L732.637 797.685C740.024 819.123 747.306 840.603 753.947 862.286C760.2 882.7 765.885 903.301 770.526 924.146L771.152 926.99C773.418 937.393 777.042 949.075 776.201 959.793C775.883 963.851 774.836 967.327 773.289 970.48L692.843 999.427L731.169 1260.82C696.062 1262.33 660.923 1262.72 625.75 1262.09C576.521 1261.21 527.321 1259.07 478.103 1257.79C430.418 1256.55 382.809 1257.08 335.175 1259.46L323.078 1260.08C276.465 1262.41 230.22 1263.6 183.626 1259.07L180.451 1258.76V1258.76L180.451 1220.52L196.818 1007.61L113.873 991.996L32.4513 952.45C29.9912 949.991 28.0171 947.121 26.9193 943.677C25.0122 937.697 26.4216 931.644 27.9835 925.772L28.3583 924.372C31.3793 913.103 34.8043 901.943 38.6173 890.917C54.3183 845.523 76.3693 802.09 104.789 763.341C132.976 724.908 167.166 690.945 207.085 664.789C226.882 651.819 247.954 640.905 270.087 632.521Z" fill="black"/>
<path fill-rule="evenodd" clip-rule="evenodd" d="M301.235 619.564C306.321 619.343 311.507 620.166 316.581 620.665C317.023 620.708 317.191 621.39 316.693 621.494C307.613 623.391 298.631 625.986 289.713 628.622L285.894 629.752C275.837 632.727 266.075 635.796 256.339 639.764C236.935 647.672 218.506 658.346 201.545 670.609C136.233 717.83 88.9633 789.324 59.1333 863.345C51.0323 883.447 44.1683 904.049 38.6083 924.998C37.2563 930.095 35.9843 935.212 34.7783 940.345C34.4243 941.85 32.8813 945.704 33.7273 947.244C34.4753 948.605 37.3833 949.446 38.7343 950.154L43.2954 952.519C52.1923 957.104 67.0121 964.642 68.4983 965.376L70.8161 966.517C108.727 985.102 149.234 1000.86 191.895 1001.95L192.229 998.31V998.31C194.131 978.169 196.627 957.921 202.075 938.399C202.368 937.35 203.703 937.704 203.825 938.636C206.86 961.747 205.89 985.038 204.831 1008.26C202.956 1049.38 200.466 1090.48 198.253 1131.58C197.145 1152.15 195.713 1172.69 194.42 1193.25C193.125 1213.84 192.706 1234.93 189.749 1255.35C189.09 1259.9 183.758 1262.38 179.72 1261.9C175.252 1261.37 171.815 1257.43 171.794 1252.92C171.74 1241.02 173.235 1228.98 174.066 1217.12C174.855 1205.84 175.702 1194.57 176.57 1183.3C179.742 1142.17 183.391 1101.09 186.766 1059.97C187.962 1045.39 189.254 1030.82 190.584 1016.25C145.391 1014.8 103.17 998.059 62.8923 978.501C62.3093 991.738 60.9013 1004.95 59.5383 1018.13C55.7333 1054.92 52.3783 1091.69 49.8673 1128.59C48.5993 1147.23 47.6763 1165.89 46.8723 1184.55C46.4773 1193.72 46.1553 1202.9 45.9083 1212.07C45.8256 1215.13 45.7509 1218.19 45.6849 1221.25L45.5475 1228.26C45.4351 1232.7 44.9836 1236.81 41.2473 1240.04C37.4523 1243.33 32.3263 1243.5 28.5703 1240.04C23.5423 1235.41 24.4313 1229.11 24.5803 1222.89C24.7043 1217.64 24.8533 1212.4 25.0263 1207.16C25.3733 1196.67 25.8163 1186.19 26.3553 1175.71C28.2414 1139.07 32.0099 1102.58 36.9349 1066.24L38.8575 1052.21C42.4478 1026.13 46.3894 999.456 54.4153 974.333C51.2903 972.779 48.1743 971.214 45.0703 969.642C39.5643 966.854 33.8713 964.238 28.5193 961.161C24.2733 958.72 20.6113 955.372 19.4293 950.431C18.111 944.926 20.1268 938.905 21.466 933.535L21.5823 933.063C22.8953 927.655 24.3093 922.271 25.8013 916.91C31.8513 895.171 39.3323 873.856 48.0873 853.061C65.6173 811.429 88.2443 771.878 115.883 736.117C140.762 703.927 170.152 674.735 204.598 652.841C221.438 642.137 239.384 633.348 258.363 627.134C267.234 624.23 276.886 621.704 286.174 620.664C291.184 620.104 296.201 619.783 301.235 619.564ZM391.349 553.594C397.393 547.104 409.401 553.82 406.499 562.414C399.673 582.633 388.803 601.076 371.839 614.362C355.893 626.852 336.878 634.963 316.4 633.232C316.242 633.218 316.105 633.178 315.984 633.121L317.749 635.515C331.603 654.256 346.219 672.738 363.836 688.056C399.729 719.267 448.599 736.101 495.789 724.126C532.917 714.705 565.627 685.346 575.247 647.93C573.868 648.548 572.229 648.759 570.43 648.368C562.733 646.697 555.113 638.602 550.149 632.798C544.779 626.519 540.585 619.739 537.511 612.075C531.885 598.049 530.081 579.99 537.763 566.403C538.711 564.728 540.897 565.667 541.083 567.302L541.375 569.854C542.856 582.588 544.701 594.905 550.705 606.513C553.643 612.193 557.165 617.737 561.452 622.494C563.746 625.039 566.233 627.471 568.918 629.605C571.534 631.684 574.701 633.188 577.046 635.573L577.476 636.031L577.488 635.949C578.081 630.908 581.616 628.687 585.075 628.826C588.422 628.961 592.354 630.434 593.877 631.14L594.021 631.208C617.373 642.418 638.88 657.029 659.12 673.239C700.976 706.763 732.337 750.588 747.532 802.196C754.99 827.525 759.269 853.624 763.786 879.601L766.568 895.518C770.784 919.499 775.494 943.953 785.012 966.261C787.474 972.032 785.576 977.444 779.539 979.713C772.001 982.547 764.435 985.291 756.857 988.001C760.578 1003.96 762.847 1020.48 765.635 1036.52C771.561 1070.62 778.822 1104.5 785.048 1138.56C788.231 1155.97 791.103 1173.44 794.283 1190.85C795.814 1199.24 797.412 1207.61 798.966 1215.99C799.803 1220.51 800.562 1225.05 801.361 1229.57L801.5 1230.33C801.958 1232.71 802.533 1235.18 801.876 1237.57C801.127 1240.3 799 1242.22 797.101 1244.18C795.538 1245.79 793.279 1245.8 791.364 1244.92L790.734 1244.63C787.314 1243.03 784.634 1241.43 783.421 1237.57C782.653 1235.13 782.376 1232.38 781.874 1229.86C780.911 1225.04 779.998 1220.2 779.136 1215.36C777.412 1205.67 775.728 1195.97 774.084 1186.26L772.548 1177.17C767.278 1145.84 762.273 1114.32 759.743 1082.66C758.62 1068.61 757.431 1054.58 756.23 1040.54L755.329 1030.02C754.189 1016.69 752.796 1003.03 752.599 989.524L748.067 991.133V991.133L725.957 998.949V998.949C720.475 1000.89 713.495 1004.86 707.595 1004.13C704.707 1003.78 702.505 1002.87 700.805 1001.22C702.841 1029.95 705.597 1058.64 709.27 1087.17C712.612 1113.14 716.317 1139.07 720.693 1164.88C722.86 1177.66 725.087 1190.43 727.506 1203.17C728.715 1209.54 729.963 1215.9 731.249 1222.25C731.89 1225.42 732.653 1228.6 733.153 1231.79C733.725 1235.45 732.717 1237.7 730.672 1240.72C728.993 1243.19 725.634 1244.46 722.911 1242.75C719.305 1240.49 717.424 1238.53 716.363 1234.41C715.399 1230.66 714.813 1226.76 714.067 1222.97C712.69 1215.97 711.359 1208.96 710.074 1201.95C707.387 1187.27 704.91 1172.57 702.698 1157.81C694.903 1105.84 689.957 1053.44 687.459 1000.95C686.226 975.054 685.845 949.134 686.064 923.21C686.176 909.922 686.61 896.596 687.55 883.341C688.502 869.924 690.482 856.775 692.25 843.487C692.312 843.019 692.972 842.992 693 843.487C693.837 858.385 695.149 873.266 695.792 888.203C696.406 902.456 696.675 916.731 697.163 930.989C697.804 949.731 698.693 968.484 699.87 987.224C702.001 984.893 705.213 983.549 708.427 984.074C713.083 983.097 718.095 980.654 722.534 979.171L739.268 973.581V973.581C748.065 970.643 756.862 967.725 765.69 964.895C757.797 938.342 752.39 911.393 747.773 884.051L745.714 871.754C741.639 847.55 737.244 823.335 729.862 799.896C722.101 775.254 710.487 752.344 695.08 731.597C679.893 711.15 661.416 693.146 642.392 676.306C626.105 661.89 608.682 648.874 592.07 634.854C592.244 635.783 592.281 636.806 592.128 637.93C588.596 663.78 575.111 687.853 556.318 705.758C518.563 741.729 462.676 749.192 414.354 732.324C367.611 716.008 326.284 677.366 311.683 629.549C311.433 628.731 312.529 628.406 312.969 629.007C313.779 630.117 314.593 631.227 315.408 632.337C315.353 631.896 315.582 631.416 316.126 631.206C333.162 624.628 349.891 615.299 362.661 602.102C368.885 595.669 374.317 588.381 378.605 580.521C380.659 576.756 382.504 572.857 383.976 568.828L384.35 567.786C386.134 562.739 387.625 557.593 391.349 553.594Z" fill="black"/>
<path fill-rule="evenodd" clip-rule="evenodd" d="M621.663 340.757C619.292 310.013 622.966 277.789 611.137 248.567C590.513 200.082 532.679 183.916 487.843 165.457C469.881 160.138 409.44 159.394 388.408 152.355C340.809 136.423 329.436 117.441 291.614 147.776C285.229 152.958 281.235 158.59 278.321 166.285L278.441 166.318C277.608 169.526 278.501 172.727 280.376 175.172C263.976 191.97 257.114 217.154 265.528 239.515C292.987 297.704 291.696 329.167 282.848 391.723C271.295 450.123 297.696 471.456 341.42 503.232C339.639 506.691 339.27 511.288 341.591 514.34C392.151 585.539 487.483 619.533 569.163 583.395C602.318 568.607 617.12 533.224 625.567 501.297C635.407 465.548 638.431 427.878 630.42 391.462C627.188 374.62 622.979 357.9 621.663 340.757Z" fill="#D08B5B"/>
<path fill-rule="evenodd" clip-rule="evenodd" d="M259.531 253.543L289.594 273.613L397.206 159.925L361.395 131.68C361.395 131.68 296.426 179.798 283.651 192.498C270.877 205.198 259.531 253.543 259.531 253.543Z" fill="#9FD8E5"/>
<path fill-rule="evenodd" clip-rule="evenodd" d="M330.022 0.137085C336.159 -0.786423 340.794 3.0293 342.999 8.40749L343.114 8.69709C343.823 10.5271 344.611 12.3071 345.459 14.0571C360.817 6.50708 382.731 8.44709 392.45 23.7371C399.385 34.6571 395.154 47.6171 392.54 59.1971L390.824 66.8271C394.141 68.9428 396.643 72.7317 396.526 76.6551L396.512 76.9571L395.813 87.5971C398.028 85.3471 400.054 82.8971 401.86 80.2871C403.108 77.9971 404.455 75.7471 405.902 73.5671C414.414 60.7371 433.523 71.8871 426.498 85.6271C425.151 88.2771 423.634 90.7871 422.008 93.2071C420.171 96.7771 418.665 100.447 417.507 104.217C420.83 105.667 423.385 108.887 423.654 113.747C424.283 125.097 418.335 134.567 408.875 140.517C406.091 142.267 403.217 142.607 400.613 141.957C400.154 142.577 399.695 143.197 399.256 143.827C403.028 146.897 406.431 150.397 409.354 154.277C418.156 152.957 427.007 152.337 435.858 152.317C446.675 147.007 459.628 147.117 471.253 149.107C478.738 150.387 485.922 152.877 493.287 154.667C501.051 156.547 508.934 156.617 516.787 157.897C526.686 159.507 535.368 164.087 540.826 171.397C546.824 171.577 553.13 174.037 558.359 177.377C570.534 185.157 582.638 193.047 594.782 200.877C599.443 203.883 601.186 208.682 600.329 214.035L600.271 214.377L599.862 216.597L600.822 217.963C604.539 223.223 608.583 228.732 610.988 234.537C615.439 240.967 619.46 247.707 623.023 254.657C627.822 263.997 631.784 273.897 634.468 284.057C635.137 286.627 635.806 289.217 636.245 291.837C636.873 295.537 635.905 298.407 635.377 301.957C634.718 306.457 634.478 311.017 633.78 315.527C633.311 318.517 630.776 319.987 628.122 320.067C629.12 327.677 629.838 335.337 630.527 342.937C631.495 353.797 632.153 364.687 632.722 375.577C635.656 379.847 641.653 383.227 645.984 384.397C651.981 386.007 658.268 384.257 663.936 382.207C667.499 380.917 670.422 385.407 668.686 388.407C663.228 397.827 651.552 397.787 642.711 393.617C638.969 391.857 635.686 389.307 633.251 385.987C633.401 389.147 633.56 392.307 633.72 395.477L633.869 398.348C635.666 431.88 639.548 466.566 633.261 499.767C622.374 557.277 574.882 601.067 516.867 604.467C486.423 606.252 461.072 597.241 448.465 592.214C435.858 587.187 440.758 576.938 449.51 579.868C464.586 584.915 492.281 592.434 517.067 589.187C575.483 581.534 625.018 552.275 619.929 426.257C619.207 408.386 616.985 390.507 616.506 372.637C616.047 355.167 616.217 337.687 615.449 320.227L615.192 314.27C614.892 307.309 614.572 300.316 614.052 293.347C613.423 290.647 612.904 287.907 612.136 285.257C610.05 278.047 607.326 271.037 603.943 264.347C603.195 264.917 602.356 265.327 601.448 265.487C594.553 266.727 588.086 266.377 581.63 263.497C578.617 262.167 575.962 260.397 573.487 258.207C572.31 257.177 571.522 256.177 570.903 255.137C567.779 255.187 564.656 254.247 562.7 251.997C560.469 249.433 560.098 246.784 560.972 244.332L561.064 244.087L560.844 244.007C558.21 250.837 552.961 256.847 547.203 260.907C538.102 267.347 526.716 269.207 515.799 269.377C503.745 269.557 491.032 267.697 479.137 265.797C475.993 265.297 472.87 264.727 469.807 263.957C469.687 264.077 469.567 264.217 469.437 264.337C459.229 274.127 444.869 276.647 431.917 271.057C424.432 267.827 418.156 262.627 412.607 256.667C412.528 259.787 412.368 262.907 412.099 265.997L411.987 267.224C411.435 272.979 410.372 279.084 406.031 283.237C399.016 289.967 388.838 287.267 380.745 282.887C380.755 283.097 380.755 283.317 380.755 283.537C382.94 290.977 385.136 298.427 387.331 305.877L387.804 307.464C389.4 312.754 391.151 318.051 391.632 323.587C392.55 334.167 385.525 344.617 373.79 341.067C367.634 339.212 362.703 334.025 357.971 329.871L354.989 327.287C362.703 352.557 368.052 378.727 368.551 405.097C368.581 406.527 367.353 407.607 365.996 407.657C362.823 407.787 359.41 407.157 356.217 405.887C356.037 405.877 355.857 405.867 355.668 405.837C350.219 405.047 345.16 403.077 340.7 400.167C341.727 403.437 342.186 406.947 341.917 410.617C341.847 411.507 340.46 411.817 340.26 410.837C337.686 398.147 322.867 388.557 310.094 390.987C296.383 393.597 286.285 405.417 283.81 418.867C281.155 433.317 286.235 450.027 295.645 461.177C299.976 466.317 305.674 470.607 312.439 471.687C315.533 472.177 318.746 472.007 321.75 471.127C323.027 470.747 324.224 470.217 325.442 469.717C327.218 468.997 329.294 468.887 330.97 468.127C334.772 466.417 338.594 469.927 336.668 473.837C334.992 477.247 333.485 479.547 330.701 481.307C332.956 484.067 335.002 487.907 335.76 488.937C339.632 494.177 343.563 499.127 347.974 503.917C352.465 508.777 357.364 513.217 362.543 517.327L364.72 519.051C369.709 523.016 374.053 526.69 377.572 532.377C380.346 536.867 376.753 542.957 371.554 542.887C355.289 542.657 343.464 528.337 335.041 515.827C333.844 514.037 332.716 512.147 331.669 510.207C331.289 510.817 330.87 511.387 330.401 511.907L331.329 514.407C334.083 521.767 322.219 526.577 318.776 519.707C316.271 514.727 313.367 509.987 310.134 505.507C308.228 505.237 306.362 504.077 305.324 502.577C302.7 498.767 299.756 494.917 297.271 490.857C295.894 489.547 294.477 488.287 293.03 487.057C292.611 487.427 292.182 487.797 291.773 488.187C289.957 492.337 287.712 496.127 284.927 499.697L284.331 500.459C278.997 507.195 272.05 514.089 263.453 515.737C260.828 516.237 258.304 512.967 260.629 510.877C266.646 505.457 273.761 501.767 279.309 495.717C282.043 492.736 284.553 489.454 286.711 486.014L287.203 485.217C287.562 484.627 287.931 484.037 288.31 483.437C285.806 481.727 283.301 480.007 280.796 478.287C273.901 484.19 264.922 486.891 257.295 491.781L256.537 492.277C249.642 496.897 242.377 486.677 247.906 481.067C254 474.906 259.087 467.559 264.486 460.711C261.947 456.025 260.746 450.484 260.295 444.884C260.118 443.299 259.979 441.713 259.84 440.127C255.969 440.187 252.077 438.857 248.784 436.567L247.536 435.677C243.535 436.957 239.334 437.577 235.312 437.467C225.852 437.187 221.981 426.357 227.898 419.507C233.935 412.507 244.503 410.977 252.875 414.377C253.145 414.237 253.424 414.087 253.693 413.937C253.294 412.097 253.383 410.428 253.837 408.962L253.705 408.068C251.864 405.237 250.654 402.005 250.195 398.59C249.832 395.885 249.905 393.204 250.53 390.533C250.738 389.644 251.17 388.723 251.5 387.796C250.82 386.074 250.419 384.294 250.296 382.504C250.105 382.277 249.915 382.044 249.736 381.792C245.582 375.947 246.421 368.904 250.374 364.174C250.392 363.873 250.42 363.572 250.461 363.273C250.23 362.751 250.017 362.224 249.824 361.691C245.961 357.786 243.125 353.087 243.654 347.264C243.964 343.838 245.369 340.754 247.496 338.449C247.118 337.331 247.082 336.036 247.539 334.955C244.146 325.909 244.575 315.014 247.018 304.897C246.479 303.357 246.199 301.687 246.259 299.917C246.539 292.407 253.025 285.507 260.709 285.597C261.634 285.605 262.5 285.726 263.332 285.903L263.343 285.724C263.637 283.47 264.256 281.387 265.159 279.518C264.715 279.357 264.304 279.126 263.944 278.819C259.02 281.451 253.81 283.463 248.348 284.834C244.331 285.842 240.217 281.267 242.714 277.489C243.872 275.736 245.151 274.162 246.528 272.724C244.57 272.735 242.582 272.868 240.571 273.127C236.959 273.597 232.927 271.127 230.582 267.787C227.668 270.627 224.745 273.457 221.821 276.287C214.416 283.477 203.23 278.187 202.063 268.707C199.857 268.117 197.802 267.117 195.995 265.687C184.32 270.767 171.757 273.557 158.914 274.087C149.693 274.467 144.305 263.707 148.616 256.107C151.509 251.007 155.102 246.427 159.243 242.447C152.817 244.417 146.181 245.837 139.405 246.747C135.743 247.237 130.564 244.197 129.097 240.827C123.489 227.867 123.968 214.357 130.424 201.747C130.674 201.247 130.953 200.767 131.222 200.287C131.891 198.617 132.619 196.967 133.408 195.347C125.465 187.047 124.776 174.707 129.057 164.377C127.341 161.587 126.682 158.227 127.85 155.187C131.172 146.437 135.962 138.357 142.01 131.417C141.431 130.297 140.922 129.107 140.493 127.827C137.09 117.477 141.032 104.987 148.985 97.7771C153.984 93.2371 159.732 90.5171 165.869 88.7771C168.454 84.1971 171.777 80.0671 175.648 76.5871C175.798 76.2571 175.948 75.9271 176.117 75.5971C182.145 64.2171 193.122 58.1171 204.887 56.7071C205.346 52.2571 208.339 48.0071 212.69 46.6271C213.888 42.7771 215.674 39.0971 218.129 35.7571C221.99 30.4971 228.407 28.0171 234.454 31.4671C237.767 33.3571 240.94 35.5271 243.914 37.9271C245.25 37.2994 246.764 36.8932 248.472 36.7637L248.904 36.7371L258.743 36.2371C262.864 34.4071 266.975 32.4871 271.097 30.6171C273.571 28.5671 276.336 26.8571 279.349 25.5871C282.762 24.1571 286.255 23.3471 289.757 23.0771C292.601 22.1471 295.465 21.3271 298.379 20.6871C305.225 19.1871 312.389 18.3471 319.494 18.4171C319.64 16.5742 319.712 14.7093 319.698 12.8224L319.684 11.8771C319.524 5.82709 324.344 0.997085 330.022 0.137085ZM323.127 484.187C322.149 484.397 321.161 484.567 320.173 484.687C320.472 485.427 320.772 486.167 321.061 486.907C321.859 487.357 322.668 487.787 323.476 488.187C323.236 486.827 323.097 485.457 323.127 484.187ZM271.858 468.92L271.195 470.144C271.087 470.345 270.981 470.542 270.877 470.737C272.284 470.627 273.701 470.657 275.098 470.817L275.094 470.668C274.915 470.607 274.735 470.551 274.563 470.467C273.599 470.003 272.703 469.483 271.858 468.92ZM299.566 413.067C308.395 413.582 315.875 414.939 323.904 418.809L324.594 419.147C331.689 422.677 343.424 429.197 342.436 438.547C342.156 441.207 340.231 444.007 337.197 443.797C328.884 443.227 324.135 434.827 318.506 429.587C312.828 424.307 305.853 418.877 298.978 415.247C298.006 414.736 298.389 413.119 299.446 413.066L299.566 413.067ZM259.531 289.877C257.416 289.947 258.124 292.007 259.212 290.287C259.302 290.147 259.411 290.007 259.531 289.877ZM373.726 152.355C353.69 152.883 333.526 164.738 318.516 176.721C305.459 187.146 294.184 199.546 284.2 212.911C281.631 219.567 279.426 226.362 277.563 233.207C276.336 237.727 275.567 242.297 274.539 246.857L274.22 248.255C273.413 249.767 272.813 251.394 272.376 253.075C274.195 254.903 276.555 256.212 279.154 256.833C279.991 257.033 280.686 257.466 281.236 258.04C283.328 254.542 285.156 250.85 286.22 246.936L286.259 246.755C290.279 240.156 294.646 233.762 299.327 227.587C312.24 210.537 326.46 194.997 343.553 182.067C356.516 172.267 371.005 164.587 386.413 159.597C382.642 156.548 378.359 154.136 373.726 152.355Z" fill="#F2F2F2"/>
<path fill-rule="evenodd" clip-rule="evenodd" d="M530.587 523.927C523.864 521.184 517.866 516.61 513.481 510.766C511.957 508.735 511.561 506.59 511.881 504.628C512.241 502.421 513.546 500.422 515.326 499.081C517.112 497.735 519.345 497.072 521.504 497.41C523.381 497.704 525.248 498.731 526.727 500.862L527.035 501.288C529.642 504.815 533.04 507.709 536.91 509.574C540.641 511.372 544.814 512.211 549.132 511.723C557.356 510.794 563.024 506.346 569.049 500.307C569.796 499.544 570.543 498.758 571.294 497.959C571.768 497.234 572.426 496.769 573.157 496.524C573.968 496.253 574.886 496.269 575.726 496.562C576.537 496.845 577.262 497.381 577.747 498.095C578.209 498.773 578.471 499.61 578.386 500.574C577.835 506.833 574.562 512.419 569.914 516.805C564.752 521.677 557.909 525.047 551.466 526.229C544.368 527.531 537.136 526.598 530.587 523.927V523.927ZM554.814 427.367C562.366 431.957 573.872 442.66 565.748 454.04C556.186 464.073 542.418 452.569 535.634 447.366C529.343 443.334 522.275 453.704 528.112 458.413C577.136 494.708 597.031 428.567 558.634 421.97C554.406 421.243 552.836 425.947 554.814 427.367ZM466.963 385.146C467.798 374.79 483.57 372.438 485.139 382.686C486.544 391.866 484.89 400.299 480.755 408.564C476.804 416.46 466.874 412.777 466.123 405.587C465.116 395.949 466.444 391.589 466.963 385.146ZM587.027 380.561C589.226 377.681 592.401 375.715 596.205 376.826C608.09 380.299 604.587 397.172 600.413 405.385C598.145 409.845 590.814 410.976 587.501 407.049C582.101 400.645 579.515 387.856 586.38 381.548C586.566 381.222 586.773 380.893 587.027 380.561ZM480.588 339.83L482.465 339.502C488.273 338.497 495.494 337.532 499.603 342.201C501.782 344.677 502.532 349.279 499.603 351.649C494.451 355.819 488.755 354.203 482.581 354.556C477.493 354.848 472.603 355.69 467.702 357.091C456.95 360.164 448.189 365.774 439.006 371.934C437.801 372.742 436.571 371.201 437.146 370.074C442.447 359.691 452.72 351.162 463.01 345.963C468.502 343.188 474.512 340.886 480.588 339.83ZM576.193 335.179L577.63 335.473C593.267 338.742 613.583 345.271 620.988 360.631C621.271 362.803 620.972 363.268 620.73 363.572L620.649 363.673C620.45 363.933 620.29 364.291 619.349 364.587C619.087 364.525 618.824 364.459 618.557 364.389C615.163 363.499 612.477 362.274 609.877 361.002L607.058 359.613C603.788 358.01 600.488 356.465 596.992 355.324C589.53 352.89 581.854 351.175 574.06 350.26C572.37 350.061 570.744 349.491 569.46 348.514C568.242 347.587 567.311 346.302 566.887 344.595C566.337 342.386 566.495 340.714 567.68 338.721C568.572 337.224 569.847 336.187 571.311 335.591C572.804 334.984 574.503 334.841 576.193 335.179Z" fill="black"/>
<path fill-rule="evenodd" clip-rule="evenodd" d="M575.994 539.31C566.681 531.013 556.242 514.333 542.863 527.531C539.554 531.26 538.214 539.62 533.154 541.26C526.434 543.44 519.774 536.33 517.484 530.87C508.114 500.533 546.848 492.212 568.914 497.113C579.694 501.54 587.634 519.36 588.114 528.66C588.424 534.91 583.134 544.1 575.994 539.31M646.254 492.55C646.163 492.147 646.036 491.783 645.883 491.452C641.764 489.895 638.505 491.483 636.491 494.449C636.557 495.186 636.777 495.933 636.916 496.664C635.362 499.938 633.96 503.989 631.854 506.818C631.438 506.85 631.007 506.806 630.593 506.686C595.68 510.332 612.725 473.803 577.314 464.73C549.941 460.214 500.467 465.387 487.554 493.878C477.37 539.386 425.587 507.676 408.585 484.009C390.444 462.47 378.714 436.15 367.404 410.61C365.014 405.205 357.555 409.07 358.366 414.256C347.912 435.227 348.26 460.417 345.671 483.391C341.267 529.226 336.976 593.504 379.563 621.491C435.05 684.208 573.608 706.34 637.606 648.714C659.76 601.084 657.029 542.977 646.254 492.55" fill="#F2F2F2"/>
</svg>
