<svg viewBox="0 0 818 1289" fill="none" xmlns="http://www.w3.org/2000/svg">
<path fill-rule="evenodd" clip-rule="evenodd" d="M774.281 1109.02C770.25 1086.26 766.555 1063.43 763.197 1040.56C761.603 1029.7 760.048 1018.83 758.65 1007.94C757.671 1000.31 756.18 991.591 761.37 985.942C768.673 977.99 775.307 971.184 776.201 959.793C777.042 949.076 773.418 937.393 771.152 926.99C766.4 905.174 760.484 883.628 753.947 862.286C747.306 840.603 740.024 819.124 732.637 797.686C725.731 777.642 719.092 757.417 710.097 738.186C693.026 701.691 664.146 674.664 628.454 656.618C619.577 652.13 601.471 636.108 592.197 632.521C583.671 629.223 583.702 638.854 575.311 635.226C568.603 632.326 562.357 628.459 558.601 621.982C554.523 614.949 544.296 605.113 542.739 596.927C539.44 579.576 543.014 564.807 530.63 551.748C519.636 540.151 504.859 532.206 489.569 527.941C455.933 518.56 411.075 525.119 390.781 556.374C381.088 571.3 377.701 589.342 364.622 601.523C353.201 612.159 355.757 619.431 340.965 624.913C340.127 625.224 317.419 620.353 316.581 620.665C300.399 617.202 284.933 626.895 270.087 632.521C247.954 640.905 226.882 651.819 207.085 664.79C167.166 690.945 132.976 724.908 104.789 763.341C76.3688 802.091 54.3178 845.523 38.6168 890.917C34.8038 901.943 31.3788 913.103 28.3578 924.372C26.6668 930.679 24.8598 937.221 26.9188 943.677C28.6028 948.96 32.3488 952.893 36.7478 956.062C42.7108 960.359 54.6718 963.152 54.4388 971.794C54.2608 978.364 52.0318 985.279 50.9438 991.772C49.6488 999.504 48.5848 1007.28 47.5208 1015.05C42.6808 1050.4 38.9138 1085.95 37.2478 1121.6C35.6078 1156.7 34.2468 1192.52 36.6818 1227.61C36.8428 1229.92 37.5328 1232.05 38.6458 1233.84C37.6068 1234.24 37.5268 1236.18 38.8198 1236.45C39.7258 1236.64 40.6298 1236.84 41.5358 1237.03C43.4178 1238.45 45.7648 1239.32 48.4658 1239.41C50.2968 1239.47 52.1268 1239.55 53.9558 1239.64C73.2568 1243.68 92.5548 1247.49 112.108 1250.38C135.876 1253.88 159.714 1256.74 183.626 1259.07C232.761 1263.85 281.509 1262.26 330.709 1259.69C379.833 1257.11 428.928 1256.51 478.103 1257.79C527.321 1259.07 576.521 1261.21 625.75 1262.09C680.749 1263.07 735.664 1261.57 790.504 1257.19C798.023 1256.6 802.675 1250.61 801.192 1243.15C792.307 1198.4 782.238 1153.96 774.281 1109.02Z" fill="#D08B5B"/>
<path fill-rule="evenodd" clip-rule="evenodd" d="M270.087 632.521L271.162 632.107C285.679 626.436 300.79 617.285 316.582 620.665C317.14 620.457 327.416 622.552 334.454 623.88L327.774 630.853L315.984 633.121C356.657 700.249 404.762 733.813 460.298 733.813C515.835 733.813 557.976 700.249 586.723 633.121L590.646 632.036C591.13 632.148 591.646 632.307 592.198 632.521C601.472 636.108 619.577 652.129 628.454 656.617C664.146 674.664 693.026 701.69 710.097 738.186C718.792 756.776 725.286 776.294 731.947 795.68L732.637 797.685C740.024 819.123 747.306 840.603 753.947 862.286C760.2 882.7 765.885 903.301 770.526 924.146L771.152 926.99C773.418 937.393 777.042 949.075 776.201 959.793C775.883 963.851 774.836 967.327 773.289 970.48L692.843 999.427L731.169 1260.82C696.062 1262.33 660.923 1262.72 625.75 1262.09C576.521 1261.21 527.321 1259.07 478.103 1257.79C430.418 1256.55 382.809 1257.08 335.175 1259.46L323.078 1260.08C276.465 1262.41 230.22 1263.6 183.626 1259.07L180.451 1258.76V1258.76L180.451 1220.52L196.818 1007.61L113.873 991.996L32.4513 952.45C29.9912 949.991 28.0171 947.121 26.9193 943.677C25.0122 937.697 26.4216 931.644 27.9835 925.772L28.3583 924.372C31.3793 913.103 34.8043 901.943 38.6173 890.917C54.3183 845.523 76.3693 802.09 104.789 763.341C132.976 724.908 167.166 690.945 207.085 664.789C226.882 651.819 247.954 640.905 270.087 632.521Z" fill="#8FA7DF"/>
<path fill-rule="evenodd" clip-rule="evenodd" d="M301.235 619.564C306.321 619.343 311.507 620.166 316.581 620.665C317.023 620.708 317.191 621.39 316.693 621.494C307.613 623.391 298.631 625.986 289.713 628.622L285.894 629.752C275.837 632.727 266.075 635.796 256.339 639.764C236.935 647.672 218.506 658.346 201.545 670.609C136.233 717.83 88.9633 789.324 59.1333 863.345C51.0323 883.447 44.1683 904.049 38.6083 924.998C37.2563 930.095 35.9843 935.212 34.7783 940.345C34.4243 941.85 32.8813 945.704 33.7273 947.244C34.4753 948.605 37.3833 949.446 38.7343 950.154L43.2954 952.519C52.1923 957.104 67.0121 964.642 68.4983 965.376L70.8161 966.517C108.727 985.102 149.234 1000.86 191.895 1001.95L192.229 998.31V998.31C194.131 978.169 196.627 957.921 202.075 938.399C202.368 937.35 203.703 937.704 203.825 938.636C206.86 961.747 205.89 985.038 204.831 1008.26C202.956 1049.38 200.466 1090.48 198.253 1131.58C197.145 1152.15 195.713 1172.69 194.42 1193.25C193.125 1213.84 192.706 1234.93 189.749 1255.35C189.09 1259.9 183.758 1262.38 179.72 1261.9C175.252 1261.37 171.815 1257.43 171.794 1252.92C171.74 1241.02 173.235 1228.98 174.066 1217.12C174.855 1205.84 175.702 1194.57 176.57 1183.3C179.742 1142.17 183.391 1101.09 186.766 1059.97C187.962 1045.39 189.254 1030.82 190.584 1016.25C145.391 1014.8 103.17 998.059 62.8923 978.501C62.3093 991.738 60.9013 1004.95 59.5383 1018.13C55.7333 1054.92 52.3783 1091.69 49.8673 1128.59C48.5993 1147.23 47.6763 1165.89 46.8723 1184.55C46.4773 1193.72 46.1553 1202.9 45.9083 1212.07C45.8256 1215.13 45.7509 1218.19 45.6849 1221.25L45.5475 1228.26C45.4351 1232.7 44.9836 1236.81 41.2473 1240.04C37.4523 1243.33 32.3263 1243.5 28.5703 1240.04C23.5423 1235.41 24.4313 1229.11 24.5803 1222.89C24.7043 1217.64 24.8533 1212.4 25.0263 1207.16C25.3733 1196.67 25.8163 1186.19 26.3553 1175.71C28.2414 1139.07 32.0099 1102.58 36.9349 1066.24L38.8575 1052.21C42.4478 1026.13 46.3894 999.456 54.4153 974.333C51.2903 972.779 48.1743 971.214 45.0703 969.642C39.5643 966.854 33.8713 964.238 28.5193 961.161C24.2733 958.72 20.6113 955.372 19.4293 950.431C18.111 944.926 20.1268 938.905 21.466 933.535L21.5823 933.063C22.8953 927.655 24.3093 922.271 25.8013 916.91C31.8513 895.171 39.3323 873.856 48.0873 853.061C65.6173 811.429 88.2443 771.878 115.883 736.117C140.762 703.927 170.152 674.735 204.598 652.841C221.438 642.137 239.384 633.348 258.363 627.134C267.234 624.23 276.886 621.704 286.174 620.664C291.184 620.104 296.201 619.783 301.235 619.564ZM391.349 553.594C397.393 547.104 409.401 553.82 406.499 562.414C399.673 582.633 388.803 601.076 371.839 614.362C355.893 626.852 336.878 634.963 316.4 633.232C316.242 633.218 316.105 633.178 315.984 633.121L317.749 635.515C331.603 654.256 346.219 672.738 363.836 688.056C399.729 719.267 448.599 736.101 495.789 724.126C532.917 714.705 565.627 685.346 575.247 647.93C573.868 648.548 572.229 648.759 570.43 648.368C562.733 646.697 555.113 638.602 550.149 632.798C544.779 626.519 540.585 619.739 537.511 612.075C531.885 598.049 530.081 579.99 537.763 566.403C538.711 564.728 540.897 565.667 541.083 567.302L541.375 569.854C542.856 582.588 544.701 594.905 550.705 606.513C553.643 612.193 557.165 617.737 561.452 622.494C563.746 625.039 566.233 627.471 568.918 629.605C571.534 631.684 574.701 633.188 577.046 635.573L577.476 636.031L577.488 635.949C578.081 630.908 581.616 628.687 585.075 628.826C588.422 628.961 592.354 630.434 593.877 631.14L594.021 631.208C617.373 642.418 638.88 657.029 659.12 673.239C700.976 706.763 732.337 750.588 747.532 802.196C754.99 827.525 759.269 853.624 763.786 879.601L766.568 895.518C770.784 919.499 775.494 943.953 785.012 966.261C787.474 972.032 785.576 977.444 779.539 979.713C772.001 982.547 764.435 985.291 756.857 988.001C760.578 1003.96 762.847 1020.48 765.635 1036.52C771.561 1070.62 778.822 1104.5 785.048 1138.56C788.231 1155.97 791.103 1173.44 794.283 1190.85C795.814 1199.24 797.412 1207.61 798.966 1215.99C799.803 1220.51 800.562 1225.05 801.361 1229.57L801.5 1230.33C801.958 1232.71 802.533 1235.18 801.876 1237.57C801.127 1240.3 799 1242.22 797.101 1244.18C795.538 1245.79 793.279 1245.8 791.364 1244.92L790.734 1244.63C787.314 1243.03 784.634 1241.43 783.421 1237.57C782.653 1235.13 782.376 1232.38 781.874 1229.86C780.911 1225.04 779.998 1220.2 779.136 1215.36C777.412 1205.67 775.728 1195.97 774.084 1186.26L772.548 1177.17C767.278 1145.84 762.273 1114.32 759.743 1082.66C758.62 1068.61 757.431 1054.58 756.23 1040.54L755.329 1030.02C754.189 1016.69 752.796 1003.03 752.599 989.524L748.067 991.133V991.133L725.957 998.949V998.949C720.475 1000.89 713.495 1004.86 707.595 1004.13C704.707 1003.78 702.505 1002.87 700.805 1001.22C702.841 1029.95 705.597 1058.64 709.27 1087.17C712.612 1113.14 716.317 1139.07 720.693 1164.88C722.86 1177.66 725.087 1190.43 727.506 1203.17C728.715 1209.54 729.963 1215.9 731.249 1222.25C731.89 1225.42 732.653 1228.6 733.153 1231.79C733.725 1235.45 732.717 1237.7 730.672 1240.72C728.993 1243.19 725.634 1244.46 722.911 1242.75C719.305 1240.49 717.424 1238.53 716.363 1234.41C715.399 1230.66 714.813 1226.76 714.067 1222.97C712.69 1215.97 711.359 1208.96 710.074 1201.95C707.387 1187.27 704.91 1172.57 702.698 1157.81C694.903 1105.84 689.957 1053.44 687.459 1000.95C686.226 975.054 685.845 949.134 686.064 923.21C686.176 909.922 686.61 896.596 687.55 883.341C688.502 869.924 690.482 856.775 692.25 843.487C692.312 843.019 692.972 842.992 693 843.487C693.837 858.385 695.149 873.266 695.792 888.203C696.406 902.456 696.675 916.731 697.163 930.989C697.804 949.731 698.693 968.484 699.87 987.224C702.001 984.893 705.213 983.549 708.427 984.074C713.083 983.097 718.095 980.654 722.534 979.171L739.268 973.581V973.581C748.065 970.643 756.862 967.725 765.69 964.895C757.797 938.342 752.39 911.393 747.773 884.051L745.714 871.754C741.639 847.55 737.244 823.335 729.862 799.896C722.101 775.254 710.487 752.344 695.08 731.597C679.893 711.15 661.416 693.146 642.392 676.306C626.105 661.89 608.682 648.874 592.07 634.854C592.244 635.783 592.281 636.806 592.128 637.93C588.596 663.78 575.111 687.853 556.318 705.758C518.563 741.729 462.676 749.192 414.354 732.324C367.611 716.008 326.284 677.366 311.683 629.549C311.433 628.731 312.529 628.406 312.969 629.007C313.779 630.117 314.593 631.227 315.408 632.337C315.353 631.896 315.582 631.416 316.126 631.206C333.162 624.628 349.891 615.299 362.661 602.102C368.885 595.669 374.317 588.381 378.605 580.521C380.659 576.756 382.504 572.857 383.976 568.828L384.35 567.786C386.134 562.739 387.625 557.593 391.349 553.594Z" fill="black"/>
<path fill-rule="evenodd" clip-rule="evenodd" d="M534.131 629.983C498.051 629.983 451.363 602.173 423.442 585.535C423.207 585.389 422.819 585.156 422.403 584.906C421.894 584.6 421.336 584.266 421.067 584.094L419.769 583.262L416.271 583.032C412.905 582.816 409.493 582.46 405.83 581.941L404.766 581.79L403.717 582.019C403.432 582.082 403.118 582.16 402.791 582.244C402.579 582.298 402.279 582.376 402.093 582.415H402.086C401.91 582.345 401.479 582.143 400.735 581.597L399.745 580.871L398.549 580.592C391.003 578.841 385.527 576.799 380.794 573.971L379.872 573.42L378.816 573.224C368.693 571.35 357.569 550.247 351.592 538.91C350.646 537.116 349.775 535.463 348.986 534.017L346.262 529.026L341.143 531.486C334.089 534.878 326.678 536.597 319.117 536.598C293.211 536.6 268.066 516.355 259.327 488.46L259.294 488.357C255.276 476.29 255.176 463.381 255.102 451.976C255.779 435.48 253.542 417.143 232.153 405.905C217.21 396.963 210.685 385.837 213.775 374.563C217.8 359.879 236.69 348.805 257.715 348.805C258.795 348.805 259.892 348.834 260.978 348.889L266.532 349.175L267.226 343.645C268.362 334.581 269.326 331.928 275.529 328.693L278.76 327.007L278.751 323.356C278.704 304.615 272.457 287.28 266.415 270.516C257.607 246.075 249.287 222.988 261.219 198.163C274.959 172.398 298.077 151.14 328.08 136.679C356.15 123.151 388.831 116 422.59 116C449.685 116 476.104 120.751 498.992 129.737L499.142 129.795C557.449 150.891 625.201 203.287 636.225 268.492C640.138 296.117 635.829 324.403 631.636 345.967L631.562 346.346C631.227 346.785 630.533 347.484 630.09 347.93C629.32 348.706 628.524 349.506 627.833 350.444L626.12 352.767L626.864 355.559C635.041 386.214 638.005 414.251 635.675 438.889L635.54 440.309L636.058 441.636C639.53 450.553 638.963 459.341 638.307 469.516C637.991 474.416 637.665 479.481 637.798 484.823C637.863 520.421 628.772 555.989 612.853 582.411C599.885 603.935 575.981 629.657 535.742 629.965C535.152 629.978 534.64 629.983 534.131 629.983" fill="#8FA7DF"/>
<path fill-rule="evenodd" clip-rule="evenodd" d="M634.714 439.019C627.493 398.989 635.827 338.737 607.476 307.537C600.797 278.621 594.31 255.972 561.198 250.291C497.897 241.499 429.648 270.368 387.973 318.247C341.533 364.641 316.372 554.629 394.054 579.544C398.447 580.915 404.782 578.716 406.826 574.335C426.917 535.45 437.877 493.35 448.545 451.228C481.563 459.58 514.141 444.644 546.604 440.048C565.072 436.97 583.956 437.795 601.986 442.906C609.247 444.964 618.126 449.355 625.038 444.81C629.051 446.575 635.353 444.262 634.714 439.019" fill="#D08B5B"/>
<path fill-rule="evenodd" clip-rule="evenodd" d="M639.913 470.007C639.331 465.179 638.336 460.018 635.003 456.274C632.417 447.004 618.811 448.19 611.227 445.323C588.453 440.507 564.845 438.712 541.83 442.899C525.925 444.893 510.675 449.604 495.198 453.51C480.49 457.097 464.026 452.972 450.122 459.435C411.063 439.173 375.754 413.338 340.31 387.407C318.159 372.125 294.213 358.508 277.39 336.964C279.147 332.094 273.015 326.334 269.713 331.823C264.245 342.627 269.63 359.028 282.016 362.007C285.314 366.574 289.112 374.176 295.417 374.259C304.735 382.696 311.888 393.519 324.161 398.129C339.772 408.107 355.144 418.363 370.773 428.297C370.773 428.296 386.602 438.318 386.602 438.318C391.159 441.202 396.879 446.4 402.579 444.692C415.561 452.651 429.179 459.521 442.497 466.892C439.562 492.626 438.419 518.778 426.653 542.505C424.546 550.885 408.419 568.148 412.633 574.521C411.277 574.608 404.776 575.578 406.273 576.964C413.288 577.577 419.292 582.094 425.516 585.048C461.213 601.296 516.245 643.205 555.599 621.253C576.962 620.942 589.843 603.886 603.199 589.883C618.346 574.922 625.612 554.593 630.519 534.31C635.879 513.36 641.83 491.822 639.913 470.007" fill="white"/>
<path fill-rule="evenodd" clip-rule="evenodd" d="M257.342 196.247C303.286 114.119 417.21 95.0491 500.149 125.996C562.641 149.791 626.615 198.787 639.807 267.82C643.527 293.908 640.197 320.994 635.2 346.701C634.683 349.365 632.17 351.209 629.553 351.598C637.494 380.371 642.088 410.178 639.213 440.002L639.228 440.037V440.037C641.578 439.704 643.614 440.258 644.586 442.578C645.329 444.355 644.663 446.922 644.52 448.767C644.318 451.379 644.145 453.994 643.933 456.606C643.71 459.377 643.104 461.904 642.26 464.398C641.934 471.428 641.232 478.483 641.432 484.623C640.582 543.192 618.662 616.268 554.617 631.837C501.779 642.056 451.266 606.996 408.338 580.429C407.336 582.029 406.082 583.5 405.189 584.591C401.161 589.51 394.477 583.331 396.98 578.224L396.876 578.163V578.163C405.493 567.877 412.627 556.66 418.507 544.815C421.472 532.548 427.661 521.336 431.676 509.255C434.26 501.48 436.121 493.471 436.581 485.271C436.905 479.5 436.494 473.729 436.432 467.95C436.094 467.484 435.746 467.025 435.387 466.574C427.253 466.156 417.891 459.267 410.361 456.52C390.02 446.722 370.293 435.645 351.324 423.391C349.484 462.072 337.687 504.648 361.555 539.057C366.458 547.318 372.243 555.02 378.618 562.189C380.898 564.918 381.436 567.057 382.487 570.285C383.619 573.766 379.776 578.207 376.099 576.686C363.353 572.71 349.665 545.299 344.148 533.189C321.304 548.281 290.656 538.69 273.238 519.938C256.36 502.851 250.125 478.607 250.748 455.113L250.769 454.401C251.536 425.919 246.499 419.178 222.813 404.553C203.127 391.265 205.208 365.961 224.759 353.689C236.057 346.863 251.22 343.337 264.324 345.938C262.282 338.224 264.79 326.974 273.895 326.111C273.118 321.441 272.94 316.48 273.546 311.736C268.463 272.334 237.852 235.986 257.342 196.247ZM583.745 445.938C539.48 436.163 496.249 467.059 452.338 457.098L450.953 457.725C449.574 458.36 448.235 459.068 447.146 460.272C445.835 461.723 445.006 463.469 444.771 465.421C444.621 466.665 444.732 467.49 444.408 468.381C444.611 472.07 444.657 475.762 444.561 479.448C445.354 487.259 443.893 495.706 442.006 503.121C437.049 529.639 425.403 555.166 410.498 577.227C436.519 587.291 460.449 602.089 486.347 612.451C561.989 646.633 617.073 593.474 626.89 518.911C629.847 499.62 630.389 480.057 630.844 460.574C630.881 458.871 630.946 457.158 630.994 455.441C614.323 455.669 599.643 449.002 583.745 445.938ZM265.757 350.617C246.949 350.479 220.828 359.276 219.968 379.27C221.259 396.362 242.807 398.934 252.416 410.291C277.755 439.48 252.312 481.482 287.719 511.758C302.323 525.271 321.817 528.627 338.886 517.619C334.767 499.125 336.321 480.238 339.535 461.51C339.544 456.695 339.726 451.883 340.154 447.079C340.559 442.532 341.141 438.031 341.836 433.526L342.272 430.742C342.855 426.889 343.363 422.805 345.142 419.338C333.9 411.895 322.971 403.922 312.433 395.563C312.303 397.493 312.21 399.422 312.135 401.351C312.537 404.988 312.407 408.759 311.942 412.244C311.995 430.938 313.825 449.578 314.673 468.26C314.687 471.424 310.268 471.832 309.344 468.982C305.307 456.523 304.985 443.416 305.505 430.416C305.69 425.778 306.055 421.133 306.612 416.508C305.839 411.578 305.736 406.711 305.174 401.709C304.643 396.988 303.273 392.412 302.616 387.725L291.376 378.668C281.517 370.727 270.492 362.771 265.757 350.617ZM275.715 335.709L275.167 335.137C273.542 333.448 271.031 330.967 270.151 331.429L270.076 331.479C269.943 331.588 269.775 331.557 269.677 331.453C263.192 343.502 275.705 357.231 284.895 364.451C329.647 401.684 378.889 433.855 432.518 456.68C434.388 457.188 437.051 458.734 438.682 460.549C438.988 460.514 439.284 460.457 439.562 460.372C439.862 460.215 440.146 460.029 440.397 459.803C386.578 428.996 334.184 393.098 289.548 349.605C285.583 346.963 282.194 344.128 279.579 340.631C279.51 340.604 279.441 340.58 279.371 340.545C277.538 339.623 276.428 337.724 275.715 335.709ZM580.986 259.571C545.155 245.168 502.794 252.008 467.123 264.23C421.368 280.645 385.544 316.149 363.145 358.692C362.355 360.732 361.574 362.774 360.826 364.83C361.393 369.725 358.827 375.285 357.722 379.898C356.815 383.689 356.544 387.34 356.281 391.205L356.223 392.213C356.188 392.754 356.132 393.262 355.976 393.734C384.905 414.771 415.379 433.584 445.591 452.56C492.867 454.563 536.086 424.188 583.716 432.387C599.301 434.789 614.315 440.906 630.179 441.417C635.982 386.382 615.596 333.824 595.195 283.694L592.771 277.739C590.053 270.997 587.281 263.69 580.986 259.571ZM516.775 143.848C451.318 113.491 371.025 112.662 311.082 152.844C269.062 179.765 247.004 216.875 269.443 265.523C276.34 282.086 280.127 297.742 278.745 315.15L279.258 318.657C279.715 321.774 280.203 324.883 280.944 327.935C282.174 333.002 285.221 337.722 288.213 342.289C308.033 357.548 327.722 372.992 347.886 387.783C367.79 288.497 478.588 223.502 575.398 247.02C581.875 248.385 586.925 251.647 590.98 255.978C596.093 258.405 600.888 261.477 604.791 265.539C606.469 267.286 604.211 270.489 602.127 268.999C600.696 267.976 599.294 266.916 597.902 265.848C600.475 270.621 602.49 275.805 604.237 280.833C611.208 297.802 617.979 314.798 623.692 332.24L624.498 326.788C627.593 305.692 630.234 284.447 626.146 263.257C611.153 213.537 574.474 174.387 529.047 149.994C525.244 149.582 521.455 149.012 517.617 148.828C511.724 148.545 505.836 148.734 499.952 148.303C499.455 148.266 499.407 147.652 499.839 147.475C504.831 145.417 510.768 144.178 516.775 143.848ZM437.416 216.162C463.432 206.523 492.208 199.495 520.004 202.449C523.103 203.275 523.408 208.413 520.004 209.049C512.662 210.418 504.633 209.373 497.152 209.877C433.178 212.645 376.034 253.468 338.698 299.293C360.057 260.786 396.863 232.16 437.416 216.162ZM351.93 178.94L354.046 177.877C365.262 172.278 378.152 166.546 390.789 168.698C394.405 169.313 394.316 174.28 391.739 175.981C381.579 182.684 368.85 184.918 357.84 190.034L356.952 190.456C322.826 206.371 297.487 236.115 279.074 268.329C278.766 268.858 278.027 268.483 278.134 267.93C285.984 228.392 317.026 196.998 351.93 178.94Z" fill="black"/>
<path fill-rule="evenodd" clip-rule="evenodd" d="M530.587 523.927C523.864 521.184 517.866 516.61 513.481 510.766C511.957 508.735 511.561 506.59 511.881 504.628C512.241 502.421 513.546 500.422 515.326 499.081C517.112 497.735 519.345 497.072 521.504 497.41C523.381 497.704 525.248 498.731 526.727 500.862L527.035 501.288C529.642 504.815 533.04 507.709 536.91 509.574C540.641 511.372 544.814 512.211 549.132 511.723C557.356 510.794 563.024 506.346 569.049 500.307C569.796 499.544 570.543 498.758 571.294 497.959C571.768 497.234 572.426 496.769 573.157 496.524C573.968 496.253 574.886 496.269 575.726 496.562C576.537 496.845 577.262 497.381 577.747 498.095C578.209 498.773 578.471 499.61 578.386 500.574C577.835 506.833 574.562 512.419 569.914 516.805C564.752 521.677 557.909 525.047 551.466 526.229C544.368 527.531 537.136 526.598 530.587 523.927V523.927ZM554.814 427.367C562.366 431.957 573.872 442.66 565.748 454.04C556.186 464.073 542.418 452.569 535.634 447.366C529.343 443.334 522.275 453.704 528.112 458.413C577.136 494.708 597.031 428.567 558.634 421.97C554.406 421.243 552.836 425.947 554.814 427.367ZM466.963 385.146C467.798 374.79 483.57 372.438 485.139 382.686C486.544 391.866 484.89 400.299 480.755 408.564C476.804 416.46 466.874 412.777 466.123 405.587C465.116 395.949 466.444 391.589 466.963 385.146ZM587.027 380.561C589.226 377.681 592.401 375.715 596.205 376.826C608.09 380.299 604.587 397.172 600.413 405.385C598.145 409.845 590.814 410.976 587.501 407.049C582.101 400.645 579.515 387.856 586.38 381.548C586.566 381.222 586.773 380.893 587.027 380.561ZM480.588 339.83L482.465 339.502C488.273 338.497 495.494 337.532 499.603 342.201C501.782 344.677 502.532 349.279 499.603 351.649C494.451 355.819 488.755 354.203 482.581 354.556C477.493 354.848 472.603 355.69 467.702 357.091C456.95 360.164 448.189 365.774 439.006 371.934C437.801 372.742 436.571 371.201 437.146 370.074C442.447 359.691 452.72 351.162 463.01 345.963C468.502 343.188 474.512 340.886 480.588 339.83ZM576.193 335.179L577.63 335.473C593.267 338.742 613.583 345.271 620.988 360.631C621.271 362.803 620.972 363.268 620.73 363.572L620.649 363.673C620.45 363.933 620.29 364.291 619.349 364.587C619.087 364.525 618.824 364.459 618.557 364.389C615.163 363.499 612.477 362.274 609.877 361.002L607.058 359.613C603.788 358.01 600.488 356.465 596.992 355.324C589.53 352.89 581.854 351.175 574.06 350.26C572.37 350.061 570.744 349.491 569.46 348.514C568.242 347.587 567.311 346.302 566.887 344.595C566.337 342.386 566.495 340.714 567.68 338.721C568.572 337.224 569.847 336.187 571.311 335.591C572.804 334.984 574.503 334.841 576.193 335.179Z" fill="black"/>
<path fill-rule="evenodd" clip-rule="evenodd" d="M641.257 448.356C639.372 424.473 609.257 414.356 594.257 411.356C544.309 399.614 501.815 429.74 442.257 430.356C436.246 430.45 419.056 429.436 411.062 427.325C370.503 418.109 329.986 408.306 290.19 396.219C284.339 397.589 282.608 405.226 286.625 409.577C324.741 423.094 383.054 435.198 413.848 436.576C413.257 476.356 392.257 516.356 363.257 538.356C409.38 589.361 516.949 606.135 580.255 579.362C611.396 570.016 644.257 486.356 641.257 448.356" fill="white"/>
<path fill-rule="evenodd" clip-rule="evenodd" d="M286.972 397.423C285.257 397.356 286.257 392.356 290.12 393.069C339.964 404.726 402.064 426.93 453.297 426.767C490.986 425.533 524.757 404.543 562.654 404.416C588.129 404.904 620.613 408.527 638.441 428.969C661.956 503.547 609.003 604.983 525.686 605.57L509.916 604.429C456.163 600.469 397.275 594.133 362.627 548.528L362.357 548.76V548.76C357.176 545.284 357.465 537.777 361.868 533.916L361.999 534.122V534.122C362.083 533.986 362.176 533.856 362.266 533.723L362.21 533.548V533.548C363.904 531.77 365.83 530.107 367.581 528.618L367.59 528.647V528.647C393.606 506.972 410.593 474.197 411.571 440.258C402.958 442.624 258.252 412.624 284.083 405.303C302.559 411.549 321.144 417.19 340.104 421.68C340.422 421.501 340.878 421.548 341.053 421.901C364.247 427.609 387.909 430.871 411.602 433.512C411.577 432.38 411.534 431.248 411.476 430.114C369.348 421.913 328.048 409.737 286.972 397.423ZM628.095 427.69C541.686 384.039 498.794 448.528 415.225 430.772C423.968 469.778 402.379 511.829 373.056 537.315C415.662 574.191 434.102 579.775 489.992 585.76L497.294 586.629C508.271 587.93 519.352 589.142 530.364 589.332C587.484 585.175 630.645 525.747 637.104 471.902L637.139 470.415C637.429 456.75 636.801 442.285 630.747 429.766C629.632 429.378 628.663 428.679 628.095 427.69ZM507.799 461.956C510.785 461.284 513.832 464.542 511.981 467.395C506 476.62 491.373 480.194 481.143 481.644C469.296 483.323 457.812 481.999 446.558 477.958C445.955 477.741 445.998 476.675 446.72 476.761C457.406 478.033 468.422 477.102 478.805 474.274C489.333 472.223 497.834 465.221 507.799 461.956ZM588.988 455.311C588.938 453.558 597.556 458.63 598.919 459.313C609.445 465.633 621.629 466.096 633.238 468.577C635.944 469.615 635.94 473.055 633.237 474.093C618.748 477.946 596.759 467.834 588.988 455.311Z" fill="black"/>
<path fill-rule="evenodd" clip-rule="evenodd" d="M639.09 412.432C636.262 420.128 631.958 428.14 626.695 434.617C605.401 452.649 584.71 442.665 574.204 418.226C570.212 400.955 580.811 382.351 592.042 369.646C608.262 353.389 634.733 361.921 642.191 381.247C642.644 383.751 642.918 386.249 643.049 388.739C642.894 396.83 641.919 403.745 639.09 411.432M434.41 396.911C462.462 363.544 514.942 361.76 513.603 413.115C507.577 478.119 406.106 462.164 434.41 396.911ZM647.913 369.076C646.93 367.411 645.839 365.8 644.648 364.259C644.208 363.997 643.955 361.673 642.337 361.501C620.71 337.642 582.717 351.179 568.989 374.953C566.482 377.959 564.437 381.478 562.929 385.196C549.403 382.715 533.634 383.197 521.054 388.306C508.58 355.734 470.815 352.826 445.928 366.743C430.449 374.356 420.412 390.299 405.358 399.057C369.969 401.604 331.988 393.675 297.238 402.552C269.832 408.25 292.742 422.127 297.338 412.866C330.101 403.186 368.916 411.366 402.933 409.185C406.47 415.168 413.253 420.064 420.013 419.855C427.314 484.576 521.698 473.844 524.954 416.311C528.647 410.472 533.24 404.884 539.814 401.246C542.331 400.725 544.762 400.048 546.984 399C550.782 398.464 556.634 400.074 560.128 403.236C572.097 475.052 641.052 466.688 653.375 403.774C653.62 403.524 654.305 402.586 654.831 401.081C659.049 395.504 669.375 393.431 667.725 384.016C666.256 374.599 654.364 374.711 647.913 369.076Z" fill="black"/>
</svg>
