<svg viewBox="0 0 818 1289" fill="none" xmlns="http://www.w3.org/2000/svg">
<path fill-rule="evenodd" clip-rule="evenodd" d="M774.281 1109.02C770.25 1086.26 766.555 1063.43 763.197 1040.56C761.603 1029.7 760.048 1018.83 758.65 1007.94C757.671 1000.31 756.18 991.591 761.37 985.942C768.673 977.99 775.307 971.184 776.201 959.793C777.042 949.076 773.418 937.393 771.152 926.99C766.4 905.174 760.484 883.628 753.947 862.286C747.306 840.603 740.024 819.124 732.637 797.686C725.731 777.642 719.092 757.417 710.097 738.186C693.026 701.691 664.146 674.664 628.454 656.618C619.577 652.13 601.471 636.108 592.197 632.521C583.671 629.223 583.702 638.854 575.311 635.226C568.603 632.326 562.357 628.459 558.601 621.982C554.523 614.949 544.296 605.113 542.739 596.927C539.44 579.576 543.014 564.807 530.63 551.748C519.636 540.151 504.859 532.206 489.569 527.941C455.933 518.56 411.075 525.119 390.781 556.374C381.088 571.3 377.701 589.342 364.622 601.523C353.201 612.159 355.757 619.431 340.965 624.913C340.127 625.224 317.419 620.353 316.581 620.665C300.399 617.202 284.933 626.895 270.087 632.521C247.954 640.905 226.882 651.819 207.085 664.79C167.166 690.945 132.976 724.908 104.789 763.341C76.3688 802.091 54.3178 845.523 38.6168 890.917C34.8038 901.943 31.3788 913.103 28.3578 924.372C26.6668 930.679 24.8598 937.221 26.9188 943.677C28.6028 948.96 32.3488 952.893 36.7478 956.062C42.7108 960.359 54.6718 963.152 54.4388 971.794C54.2608 978.364 52.0318 985.279 50.9438 991.772C49.6488 999.504 48.5848 1007.28 47.5208 1015.05C42.6808 1050.4 38.9138 1085.95 37.2478 1121.6C35.6078 1156.7 34.2468 1192.52 36.6818 1227.61C36.8428 1229.92 37.5328 1232.05 38.6458 1233.84C37.6068 1234.24 37.5268 1236.18 38.8198 1236.45C39.7258 1236.64 40.6298 1236.84 41.5358 1237.03C43.4178 1238.45 45.7648 1239.32 48.4658 1239.41C50.2968 1239.47 52.1268 1239.55 53.9558 1239.64C73.2568 1243.68 92.5548 1247.49 112.108 1250.38C135.876 1253.88 159.714 1256.74 183.626 1259.07C232.761 1263.85 281.509 1262.26 330.709 1259.69C379.833 1257.11 428.928 1256.51 478.103 1257.79C527.321 1259.07 576.521 1261.21 625.75 1262.09C680.749 1263.07 735.664 1261.57 790.504 1257.19C798.023 1256.6 802.675 1250.61 801.192 1243.15C792.307 1198.4 782.238 1153.96 774.281 1109.02Z" fill="#D08B5B"/>
<path fill-rule="evenodd" clip-rule="evenodd" d="M270.087 632.521L271.162 632.107C285.679 626.436 300.79 617.285 316.582 620.665C317.14 620.457 327.416 622.552 334.454 623.88L327.774 630.853L315.984 633.121C356.657 700.249 404.762 733.813 460.298 733.813C515.835 733.813 557.976 700.249 586.723 633.121L590.646 632.036C591.13 632.148 591.646 632.307 592.198 632.521C601.472 636.108 619.577 652.129 628.454 656.617C664.146 674.664 693.026 701.69 710.097 738.186C718.792 756.776 725.286 776.294 731.947 795.68L732.637 797.685C740.024 819.123 747.306 840.603 753.947 862.286C760.2 882.7 765.885 903.301 770.526 924.146L771.152 926.99C773.418 937.393 777.042 949.075 776.201 959.793C775.883 963.851 774.836 967.327 773.289 970.48L692.843 999.427L731.169 1260.82C696.062 1262.33 660.923 1262.72 625.75 1262.09C576.521 1261.21 527.321 1259.07 478.103 1257.79C430.418 1256.55 382.809 1257.08 335.175 1259.46L323.078 1260.08C276.465 1262.41 230.22 1263.6 183.626 1259.07L180.451 1258.76V1258.76L180.451 1220.52L196.818 1007.61L113.873 991.996L32.4513 952.45C29.9912 949.991 28.0171 947.121 26.9193 943.677C25.0122 937.697 26.4216 931.644 27.9835 925.772L28.3583 924.372C31.3793 913.103 34.8043 901.943 38.6173 890.917C54.3183 845.523 76.3693 802.09 104.789 763.341C132.976 724.908 167.166 690.945 207.085 664.789C226.882 651.819 247.954 640.905 270.087 632.521Z" fill="#8FA7DF"/>
<path fill-rule="evenodd" clip-rule="evenodd" d="M301.235 619.564C306.321 619.343 311.507 620.166 316.581 620.665C317.023 620.708 317.191 621.39 316.693 621.494C307.613 623.391 298.631 625.986 289.713 628.622L285.894 629.752C275.837 632.727 266.075 635.796 256.339 639.764C236.935 647.672 218.506 658.346 201.545 670.609C136.233 717.83 88.9633 789.324 59.1333 863.345C51.0323 883.447 44.1683 904.049 38.6083 924.998C37.2563 930.095 35.9843 935.212 34.7783 940.345C34.4243 941.85 32.8813 945.704 33.7273 947.244C34.4753 948.605 37.3833 949.446 38.7343 950.154L43.2954 952.519C52.1923 957.104 67.0121 964.642 68.4983 965.376L70.8161 966.517C108.727 985.102 149.234 1000.86 191.895 1001.95L192.229 998.31V998.31C194.131 978.169 196.627 957.921 202.075 938.399C202.368 937.35 203.703 937.704 203.825 938.636C206.86 961.747 205.89 985.038 204.831 1008.26C202.956 1049.38 200.466 1090.48 198.253 1131.58C197.145 1152.15 195.713 1172.69 194.42 1193.25C193.125 1213.84 192.706 1234.93 189.749 1255.35C189.09 1259.9 183.758 1262.38 179.72 1261.9C175.252 1261.37 171.815 1257.43 171.794 1252.92C171.74 1241.02 173.235 1228.98 174.066 1217.12C174.855 1205.84 175.702 1194.57 176.57 1183.3C179.742 1142.17 183.391 1101.09 186.766 1059.97C187.962 1045.39 189.254 1030.82 190.584 1016.25C145.391 1014.8 103.17 998.059 62.8923 978.501C62.3093 991.738 60.9013 1004.95 59.5383 1018.13C55.7333 1054.92 52.3783 1091.69 49.8673 1128.59C48.5993 1147.23 47.6763 1165.89 46.8723 1184.55C46.4773 1193.72 46.1553 1202.9 45.9083 1212.07C45.8256 1215.13 45.7509 1218.19 45.6849 1221.25L45.5475 1228.26C45.4351 1232.7 44.9836 1236.81 41.2473 1240.04C37.4523 1243.33 32.3263 1243.5 28.5703 1240.04C23.5423 1235.41 24.4313 1229.11 24.5803 1222.89C24.7043 1217.64 24.8533 1212.4 25.0263 1207.16C25.3733 1196.67 25.8163 1186.19 26.3553 1175.71C28.2414 1139.07 32.0099 1102.58 36.9349 1066.24L38.8575 1052.21C42.4478 1026.13 46.3894 999.456 54.4153 974.333C51.2903 972.779 48.1743 971.214 45.0703 969.642C39.5643 966.854 33.8713 964.238 28.5193 961.161C24.2733 958.72 20.6113 955.372 19.4293 950.431C18.111 944.926 20.1268 938.905 21.466 933.535L21.5823 933.063C22.8953 927.655 24.3093 922.271 25.8013 916.91C31.8513 895.171 39.3323 873.856 48.0873 853.061C65.6173 811.429 88.2443 771.878 115.883 736.117C140.762 703.927 170.152 674.735 204.598 652.841C221.438 642.137 239.384 633.348 258.363 627.134C267.234 624.23 276.886 621.704 286.174 620.664C291.184 620.104 296.201 619.783 301.235 619.564ZM391.349 553.594C397.393 547.104 409.401 553.82 406.499 562.414C399.673 582.633 388.803 601.076 371.839 614.362C355.893 626.852 336.878 634.963 316.4 633.232C316.242 633.218 316.105 633.178 315.984 633.121L317.749 635.515C331.603 654.256 346.219 672.738 363.836 688.056C399.729 719.267 448.599 736.101 495.789 724.126C532.917 714.705 565.627 685.346 575.247 647.93C573.868 648.548 572.229 648.759 570.43 648.368C562.733 646.697 555.113 638.602 550.149 632.798C544.779 626.519 540.585 619.739 537.511 612.075C531.885 598.049 530.081 579.99 537.763 566.403C538.711 564.728 540.897 565.667 541.083 567.302L541.375 569.854C542.856 582.588 544.701 594.905 550.705 606.513C553.643 612.193 557.165 617.737 561.452 622.494C563.746 625.039 566.233 627.471 568.918 629.605C571.534 631.684 574.701 633.188 577.046 635.573L577.476 636.031L577.488 635.949C578.081 630.908 581.616 628.687 585.075 628.826C588.422 628.961 592.354 630.434 593.877 631.14L594.021 631.208C617.373 642.418 638.88 657.029 659.12 673.239C700.976 706.763 732.337 750.588 747.532 802.196C754.99 827.525 759.269 853.624 763.786 879.601L766.568 895.518C770.784 919.499 775.494 943.953 785.012 966.261C787.474 972.032 785.576 977.444 779.539 979.713C772.001 982.547 764.435 985.291 756.857 988.001C760.578 1003.96 762.847 1020.48 765.635 1036.52C771.561 1070.62 778.822 1104.5 785.048 1138.56C788.231 1155.97 791.103 1173.44 794.283 1190.85C795.814 1199.24 797.412 1207.61 798.966 1215.99C799.803 1220.51 800.562 1225.05 801.361 1229.57L801.5 1230.33C801.958 1232.71 802.533 1235.18 801.876 1237.57C801.127 1240.3 799 1242.22 797.101 1244.18C795.538 1245.79 793.279 1245.8 791.364 1244.92L790.734 1244.63C787.314 1243.03 784.634 1241.43 783.421 1237.57C782.653 1235.13 782.376 1232.38 781.874 1229.86C780.911 1225.04 779.998 1220.2 779.136 1215.36C777.412 1205.67 775.728 1195.97 774.084 1186.26L772.548 1177.17C767.278 1145.84 762.273 1114.32 759.743 1082.66C758.62 1068.61 757.431 1054.58 756.23 1040.54L755.329 1030.02C754.189 1016.69 752.796 1003.03 752.599 989.524L748.067 991.133V991.133L725.957 998.949V998.949C720.475 1000.89 713.495 1004.86 707.595 1004.13C704.707 1003.78 702.505 1002.87 700.805 1001.22C702.841 1029.95 705.597 1058.64 709.27 1087.17C712.612 1113.14 716.317 1139.07 720.693 1164.88C722.86 1177.66 725.087 1190.43 727.506 1203.17C728.715 1209.54 729.963 1215.9 731.249 1222.25C731.89 1225.42 732.653 1228.6 733.153 1231.79C733.725 1235.45 732.717 1237.7 730.672 1240.72C728.993 1243.19 725.634 1244.46 722.911 1242.75C719.305 1240.49 717.424 1238.53 716.363 1234.41C715.399 1230.66 714.813 1226.76 714.067 1222.97C712.69 1215.97 711.359 1208.96 710.074 1201.95C707.387 1187.27 704.91 1172.57 702.698 1157.81C694.903 1105.84 689.957 1053.44 687.459 1000.95C686.226 975.054 685.845 949.134 686.064 923.21C686.176 909.922 686.61 896.596 687.55 883.341C688.502 869.924 690.482 856.775 692.25 843.487C692.312 843.019 692.972 842.992 693 843.487C693.837 858.385 695.149 873.266 695.792 888.203C696.406 902.456 696.675 916.731 697.163 930.989C697.804 949.731 698.693 968.484 699.87 987.224C702.001 984.893 705.213 983.549 708.427 984.074C713.083 983.097 718.095 980.654 722.534 979.171L739.268 973.581V973.581C748.065 970.643 756.862 967.725 765.69 964.895C757.797 938.342 752.39 911.393 747.773 884.051L745.714 871.754C741.639 847.55 737.244 823.335 729.862 799.896C722.101 775.254 710.487 752.344 695.08 731.597C679.893 711.15 661.416 693.146 642.392 676.306C626.105 661.89 608.682 648.874 592.07 634.854C592.244 635.783 592.281 636.806 592.128 637.93C588.596 663.78 575.111 687.853 556.318 705.758C518.563 741.729 462.676 749.192 414.354 732.324C367.611 716.008 326.284 677.366 311.683 629.549C311.433 628.731 312.529 628.406 312.969 629.007C313.779 630.117 314.593 631.227 315.408 632.337C315.353 631.896 315.582 631.416 316.126 631.206C333.162 624.628 349.891 615.299 362.661 602.102C368.885 595.669 374.317 588.381 378.605 580.521C380.659 576.756 382.504 572.857 383.976 568.828L384.35 567.786C386.134 562.739 387.625 557.593 391.349 553.594Z" fill="black"/>
<path fill-rule="evenodd" clip-rule="evenodd" d="M646.798 293.993C644.528 289.496 643.93 290.18 647.852 286.193C662.252 264.475 626.174 247.722 631.836 224.777C635.411 201.249 608.544 193.054 596.402 175.271C588.113 153.538 583.649 136.686 557.825 137.579C541.437 134.667 524.363 152.637 510.963 145.553C506.127 142.038 504.96 137.243 503.226 132.953C488.619 89.7115 436.655 112.727 415.594 141.58C407.041 154.045 388.088 157.036 376.067 145.489C353.436 128.022 321.71 142.908 315.306 169.424C306.16 197.793 290.031 203.531 262.528 202.681C233.459 208.912 235.776 244.673 254.319 261.991C270.041 291.981 223.363 294.708 232.438 333.255C234.427 343.467 239.003 354.055 245.302 363.335C246.091 368.653 247.954 373.78 250.68 378.417C251.935 380.55 253.406 382.569 254.981 384.477C254.655 384.645 254.335 384.824 254.033 385.031C250.395 387.506 248.645 392.083 249.939 396.354C250.337 397.671 251.011 398.899 251.879 399.973C249.221 400.625 246.696 401.641 244.622 402.846C238.012 406.681 234.016 414.03 233.282 421.523C219.462 441.098 218.362 473.45 237.502 486.434C246.919 492.991 259.625 496.541 264.833 508.783C269.418 520.096 261.122 528.82 266.032 539.421C282.274 575.754 341.689 565.265 364.57 541.897C401.129 596.964 471.101 598.503 530.615 602.557C606.885 599.038 655.218 498.91 631.425 432.964C631.425 432.964 630.546 430.439 630.549 430.439C638.514 405.97 629.787 377.741 630.279 352.393C652.598 351.636 656.255 310.338 646.798 293.993" fill="#8FA7DF"/>
<path fill-rule="evenodd" clip-rule="evenodd" d="M357.823 437.028C357.423 434.569 358.781 431.928 361.913 432.248C375.705 433.618 389.496 435.449 403.097 438.139C434.269 440.52 385.769 520.731 376.263 533.19C364.246 545.863 357.652 492.784 356.854 485.508L356.434 479.34C355.494 465.245 354.843 450.868 357.823 437.028ZM364.08 395.056C389.613 292.107 532.695 227.277 620.857 292.248C624.399 295.788 618.911 301.278 615.368 297.748C613.662 296.059 611.856 294.489 609.96 293.038C634.272 326.698 625.415 372.035 630.147 411.059C636.236 416.543 629.128 423.902 622.453 421.288C610.269 418.248 598.444 414.378 586.06 412.028C569.098 408.871 551.711 407.999 534.579 410.348C527.013 420.072 502.628 422.925 490.423 426.638C461.419 433.955 430.917 434.776 401.97 426.767C388.389 424.513 374.925 418.266 361.471 416.029C356.979 415.637 358.912 410.212 360.154 407.647L360.25 406.788C360.718 402.745 361.512 398.3 364.08 395.056Z" fill="#D08B5B"/>
<path fill-rule="evenodd" clip-rule="evenodd" d="M636.718 451.647C634.606 427.784 610.213 418.607 589.349 417.547C571.836 412.241 553.1 414.757 535.734 419.583C502.148 424.361 469.885 435.952 436.009 439.155C430.16 432.953 419.831 433.329 411.853 431.217C388.421 426.095 365.156 420.232 341.923 414.274C326.425 410.311 311.047 405.936 295.635 401.659C282.359 396.4 265.32 396.9 255.168 386.124C254.051 385.107 252.349 386.408 253.067 387.829C243.46 405.601 399.293 438.902 417.627 442.468C422.721 468.871 408.338 498.033 394.975 520.203C392.136 524.219 388.949 527.983 385.509 531.495C381.777 534.836 368.688 544.329 378.96 547.005C389.55 569.096 414.446 577.886 436.794 583.288C476.889 597.508 520.439 606.198 560.426 586.696C591.5 577.357 602.856 562.571 615.89 533.866C628.43 508.442 640.265 480.592 636.718 451.647" fill="white"/>
<path fill-rule="evenodd" clip-rule="evenodd" d="M464.971 103.181C477.862 102.039 492.234 106.32 500.986 116.222C504.64 120.356 506.623 125.061 508.518 130.032L510.126 134.287C511.062 136.742 512.244 139.523 514.341 141.003C517.71 143.382 521.978 140.632 525.129 139.134C546.128 129.148 579.746 126.284 592.92 150.113C596.886 157.288 597.569 165.829 601.764 172.848C604.646 177.672 609.134 181.399 613.542 184.853L616.707 187.324C626.818 195.265 636.1 203.463 637.819 217.106C638.859 225.372 636.977 234.34 640.541 242.132C643.886 249.446 650.183 254.897 654.004 261.899C658.9 270.87 659.409 284.252 652.424 292.048C663.206 313.721 658.765 341.544 641.326 358.594C639.989 359.901 638.492 360.454 637.04 360.464L637.442 367.483C637.778 373.331 638.132 379.179 638.595 385.015C639.265 393.456 639.884 401.911 640.05 410.379L640.075 411.704C640.196 418.74 640.113 425.282 637.39 431.834C646.76 458.773 644.712 490.84 636.643 517.579C628.98 542.975 614.042 565.884 593.825 583.023C583.648 591.65 572.354 599.462 560.087 604.789C549.006 609.601 537.629 611.166 525.606 610.643C510.722 609.996 495.812 608.386 481.017 606.591L473.516 605.671C460.074 604.009 446.556 602.197 433.431 598.872C419.291 595.29 405.894 589.417 393.787 581.254L392.313 580.254C381.499 572.867 370.568 564.28 362.893 553.6C358.237 557.931 352.019 561.01 346.551 563.169C335.122 567.681 322.31 570.204 310.074 570.929C289.276 572.16 267.026 563.872 258.902 543.163C257.204 538.835 256.472 534.242 256.877 529.599C257.364 524.04 260.079 518.141 257.77 512.698C253.554 502.754 240.76 499.213 232.72 493.241C215.443 480.409 211.28 456.96 218.208 437.339C221.568 427.821 227.164 418.622 233.559 410.83C237.948 405.483 243.856 401.409 250.379 400.963C246.658 395.938 246.854 386.102 251.748 383.606C247.217 379.593 243.274 374.999 239.874 369.704L239.053 368.419C232.634 358.316 226.593 347.372 224.891 335.422C222.938 321.719 225.302 306.44 234.642 295.747C241.929 287.403 255.991 279.597 247.829 266.977C243.509 260.299 238.216 255.222 235.201 247.63C232.29 240.301 231.464 232.308 233.054 224.568C235.848 210.981 246.942 199.404 260.683 196.969C269.196 195.46 278.144 197.224 286.518 194.993C292.577 193.378 297.071 189.248 300.383 184.048C306.986 173.679 309.757 161.343 316.541 151.063C324.448 139.08 337.179 132.689 351.438 132.312C358.687 132.12 366.144 133.406 372.641 136.69C379.232 140.02 385.417 146.47 392.993 147.403C399.877 148.25 405.58 142.456 409.92 137.919C414.865 132.749 419.596 127.508 424.997 122.788C436.329 112.886 449.673 104.534 464.971 103.181ZM588.809 419.464C575.113 416.866 560.908 416.466 547.082 418.258C522.002 421.509 498.74 432.433 473.937 436.966C454.468 440.524 434.759 439.153 415.379 435.845C417.528 440.636 417.838 447.525 416.962 453.501C417.216 467.22 414.116 480.919 408.777 493.806C404.666 503.727 399.109 513.032 392.631 521.579C389.402 525.84 385.966 529.935 382.278 533.806C380.491 535.681 378.652 537.503 376.759 539.271C375.817 540.151 374.863 541.02 373.895 541.873L373.299 542.388V542.388C385.159 550.337 394.887 561.074 407.033 568.775C419.592 576.739 433.229 581.425 447.731 584.424C460.897 587.148 474.285 588.949 487.633 590.552L497.275 591.703C508.23 593.002 519.287 594.215 530.273 594.401C552.726 594.784 572.976 581.731 589.132 567.079C607.46 550.456 622.277 529.671 630.27 506.104C633.471 496.667 635.644 486.878 636.79 476.975C636.965 469.794 637.029 462.622 636.069 455.372C635.373 450.116 634.271 444.966 632.653 439.915C632.093 438.17 631.288 436.497 630.446 434.839C629.335 434.45 628.367 433.752 627.8 432.763L627.674 432.724V432.724L623.035 430.773C611.86 426.095 600.89 421.757 588.809 419.464ZM253.298 403.401C243.551 404.922 236.969 416.261 232.592 424.118C227.122 433.938 223.04 444.214 223.514 455.663C223.872 464.298 226.948 473.245 232.561 479.885C238.785 487.245 248.029 490.202 255.693 495.644C262.43 500.429 268.307 507.224 268.963 515.808C269.341 520.753 267.65 525.423 267.326 530.3C267.065 534.207 267.811 538.154 269.406 541.727C277.599 560.083 300.317 562.716 317.781 560.213C326.587 558.951 335.657 556.994 343.944 553.689C347.662 552.207 351.346 550.292 354.493 547.797C355.199 547.236 355.86 546.632 356.495 546.005C355.339 543.913 354.434 541.615 353.575 539.905C351.083 534.94 348.909 529.802 347.029 524.575C343.285 514.16 340.809 503.311 339.22 492.366C337.594 481.167 336.793 469.898 336.76 458.583C336.744 453.143 336.78 447.698 337.214 442.276L337.342 440.798C337.588 438.163 337.734 435.395 338.229 432.735C317.481 427.598 297.09 421.164 277.105 413.496L274.059 412.315C269.622 410.565 262.711 407.626 257.232 403.806C255.753 404.092 254.442 403.913 253.298 403.401ZM342.938 433.876C343.095 435.795 343.115 437.739 343.178 439.653L343.222 440.798C343.482 446.441 343.464 452.089 343.666 457.735C344.056 468.636 344.779 479.587 346.43 490.374C348.06 501.035 350.547 511.588 354.212 521.737C356.06 526.852 358.23 531.84 360.741 536.663C361.167 537.481 361.702 538.327 362.265 539.194C362.349 539.058 362.442 538.929 362.532 538.796L361.913 536.824C361.808 536.498 361.702 536.172 361.592 535.849C359.919 530.951 358.404 525.998 357.059 520.999C354.488 511.449 352.496 501.718 351.279 491.899C349.989 481.494 349.494 470.98 349.749 460.499L349.846 456.559C350.034 449.829 350.443 442.406 352.433 436.031C349.261 435.342 346.095 434.626 342.938 433.876ZM355.882 436.768C356.475 444.828 355.281 453.447 355.334 461.404C355.399 471.324 356.147 481.229 357.576 491.046C359.003 500.86 360.966 510.571 363.617 520.129C364.886 524.701 366.302 529.232 367.844 533.72C368.468 533.218 369.09 532.712 369.686 532.183C373.763 528.572 377.618 524.712 381.227 520.633C388.184 512.772 394.143 504.019 398.918 494.665C406.78 479.265 411.133 462.484 411.733 445.331C404.207 445.05 396.574 443.794 389.104 442.647L386.31 442.224C377.385 440.897 368.494 439.339 359.649 437.552C358.391 437.298 357.137 437.032 355.882 436.768ZM507.758 467.028C510.737 466.356 513.778 469.614 511.931 472.467C505.962 481.692 491.366 485.266 481.158 486.716C469.336 488.395 457.876 487.071 446.646 483.03C446.044 482.813 446.087 481.747 446.808 481.833C457.471 483.105 468.464 482.174 478.826 479.347C483.919 477.958 488.963 476.147 493.687 473.781C498.334 471.454 502.629 468.185 507.758 467.028ZM316.405 452.529L319.378 452.556C321.881 452.599 324.49 452.818 326.376 454.624C332.554 460.538 322.732 466.902 318.713 470.285L318.585 470.394C312.906 475.235 306.011 483.64 298.003 483.765C295.67 483.802 293.993 481.461 294.575 479.256C296.105 473.464 301.579 470.384 306.157 467.09L314.108 461.37V461.37C314.96 460.757 316.293 460.046 317.567 459.267L317.001 459.215C311.736 458.754 301.831 458.577 299.88 458.561L299.696 458.56C292.73 458.532 285.721 458.785 278.783 459.399C277.805 459.486 277.683 457.998 278.559 457.742C287.107 455.247 295.61 453.659 304.485 452.976C308.452 452.67 312.427 452.52 316.405 452.529V452.529ZM588.776 460.383C588.547 460.113 588.843 459.656 589.173 459.868C590.093 460.458 592.578 461.026 593.711 461.648L597.025 463.481C597.577 463.785 598.131 464.088 598.686 464.387C602.292 466.331 606.071 467.837 609.959 469.114C614.016 470.445 618.197 471.441 622.446 471.903C626.099 472.299 629.444 472.307 632.933 473.649C635.633 474.687 635.629 478.127 632.933 479.163C625.067 482.187 614.804 478.347 607.45 475.178C603.46 473.458 599.704 471.218 596.196 468.655C594.498 467.415 592.909 466.112 591.437 464.602C590.129 463.262 589.939 461.758 588.776 460.383ZM253.077 386.323C252.412 387.577 251.99 388.921 251.811 390.364C252.043 397.602 262.717 402.045 269.246 404.704C281.826 409.825 294.976 413.925 307.943 417.909C318.669 421.206 329.501 424.155 340.417 426.753C340.734 426.573 341.19 426.621 341.363 426.974C347.701 428.47 354.066 429.851 360.454 431.11C369.009 432.794 377.605 434.265 386.233 435.518C394.697 436.749 403.314 437.284 411.764 438.585C411.739 437.452 411.696 436.32 411.638 435.186C407.25 434.382 402.88 433.492 398.538 432.542C373.158 426.988 347.885 420.238 322.916 413.011L311.088 409.571C301.085 406.658 291.084 403.719 281.158 400.565C271.092 397.368 261.108 393.309 253.077 386.323ZM567.04 271.835C535.059 265.544 501.785 268.595 471.272 279.93C441.783 290.884 415.766 309.964 395.957 334.391C386.442 346.125 378.41 359.182 371.951 372.839C365.412 386.664 361.799 401.149 357.309 415.653C375.881 420.382 394.537 424.952 413.352 428.321C426.544 430.683 439.952 432.204 453.372 431.84C466.222 431.49 478.677 428.772 490.99 425.222C514.623 418.404 537.586 409.798 562.497 409.489C583.771 409.225 607.823 413.312 626.741 424.011C626.593 418.466 626.95 412.928 626.848 407.296C626.695 398.802 626.153 390.321 625.589 381.848C624.511 365.625 624.608 349.238 622.86 333.077L622.702 331.658C621.146 318.162 618.096 304.167 609.738 293.161C599.349 279.481 583.081 274.991 567.04 271.835ZM567.435 248.44C518.702 232.275 460.502 246.043 420.198 276.735C398.4 293.335 381.007 314.167 368.016 338.293C361.314 350.741 356.011 363.88 351.825 377.383C348.287 388.798 346.172 400.517 343.581 412.147L353.964 414.804V414.804C354.821 397.559 361.391 380.115 368.643 364.657C376.212 348.524 386.367 333.597 398.262 320.354C420.773 295.294 450.137 277.153 482.412 267.718C514.297 258.397 552.008 255.989 583.879 266.741C599.168 271.898 612.803 279.466 621.863 293.156C611.976 270.809 590.14 255.973 567.435 248.44ZM479.184 113.696C465.04 109.816 451.131 114.886 439.446 122.946C433.352 127.149 427.703 132.177 422.549 137.487C418.231 141.936 414.256 146.691 409.309 150.475C404.607 154.072 399.038 156.672 392.993 156.282C386.172 155.843 380.296 151.974 374.696 148.415C368.266 144.331 362.164 141.763 354.46 141.51C347.259 141.274 339.914 142.624 333.711 146.436C323.414 152.765 319.227 165.142 314.691 175.697L314.036 177.207C309.987 186.453 305.016 195.918 295.935 201.04C282.498 208.624 265.408 201.21 252.76 210.202C240.123 219.186 238.46 237.28 246.04 250.097C252.253 260.601 263.272 269.776 256.889 283.093C252.229 292.813 241.489 297.646 236.594 307.198C229.79 320.476 231.174 337.372 237.628 350.487L239.253 353.783C243.078 361.501 247.198 369.327 252.946 375.714C260.044 383.602 269.056 389.888 278.04 395.636C281.727 396.656 285.449 397.576 289.157 398.505L291.935 399.205C306.389 402.882 320.887 406.383 335.344 410.046L340.604 411.388V411.388C339.79 396.71 343.098 381.585 347.315 367.691C352.056 352.073 359.027 336.78 367.524 322.862C397.881 273.144 450.656 239.807 508.424 233.199C556.635 227.684 614.01 244.849 632.534 294.196C634.24 298.744 628.866 301.252 625.469 299.313C631.754 311.565 634.308 325.513 635.544 339.134C635.722 341.101 635.885 343.071 636.035 345.042C647.411 330.522 648.756 309.485 638.816 293.632C637.113 290.917 638.068 286.696 640.882 285.079L641.082 284.97C645.611 282.638 645.713 277.069 644.296 272.679C642.204 266.196 637.463 260.829 633.704 255.288C629.32 248.821 626.671 242.034 626.153 234.198C625.664 226.796 627.336 218.702 624.137 211.731C621.916 206.892 617.828 203.191 613.803 199.839L613.387 199.493C603.692 191.458 593.693 184.645 588.973 172.417C586.384 165.706 585.529 158.079 580.919 152.315C577.564 148.123 572.758 145.529 567.657 144.126C556.119 140.951 543.721 143.316 532.685 147.268L531.951 147.537C525.595 149.913 519.37 153.383 512.465 150.893C507.089 148.956 504.079 144.097 501.998 139.054C499.796 133.72 498.515 127.892 494.816 123.32C490.884 118.462 485.132 115.327 479.184 113.696ZM253.709 385.27L253.603 385.421V385.421C254.068 385.724 254.531 386.028 255.002 386.317C254.563 385.975 254.137 385.621 253.709 385.27ZM295.469 292.953L299.563 292.672C317.98 291.439 339.928 290.674 354.903 302.667C357.785 304.978 358.875 308.794 356.02 311.666C352.962 314.741 347.821 313.96 343.891 314.054L340.924 314.125C336.292 314.248 331.602 314.469 327.083 315.389C322.555 316.312 317.609 319.026 312.974 317.884C311.478 317.516 310.575 315.823 310.981 314.366C312.889 307.523 322.35 305.935 328.31 305.14C332.387 304.597 336.441 304.462 340.549 304.522C341.466 304.535 342.382 304.567 343.299 304.592C341.463 303.569 339.567 302.665 337.626 301.86C333.456 300.132 329.15 298.81 324.747 297.826C315.139 295.682 305.273 295.078 295.469 294.547C294.441 294.491 294.451 293.025 295.469 292.953ZM322.108 219.917L322.206 219.93C338.403 223.219 352.008 231.913 366.535 239.294C369.887 240.998 373.29 242.605 376.797 243.965L378.321 244.544C380.574 245.425 388.573 248.736 389.79 247.537C390.133 247.2 382.764 239.454 381.99 238.458L381.106 237.315C379.078 234.66 377.365 232.058 377.488 228.522C377.558 226.506 379.753 225.075 381.571 226.174C386.264 229.011 388.518 235.013 392.216 239.008L392.575 239.392C395.186 242.144 398.459 245.037 397.495 249.233C395.471 258.047 382.928 253.064 377.75 251.062C357.913 243.392 341.813 228.442 321.883 221.106C321.182 220.848 321.411 219.865 322.108 219.917V219.917ZM557.406 165.698C558.714 165.534 559.514 166.292 559.589 167.523C559.622 168.075 558.898 168.167 558.63 167.782C558.548 167.666 557.292 173.525 557.237 174.036C557.103 175.269 557.023 176.505 556.907 177.739L556.635 180.541C556.456 182.408 556.289 184.276 556.197 186.154C555.944 191.333 555.947 196.569 556.261 201.752L556.354 203.165C556.366 203.339 556.573 204.631 556.797 206.1C557.095 205.178 557.374 204.249 557.617 203.314C558.818 198.711 558.117 193.64 561.416 189.986C563.343 187.853 566.505 188.749 567.954 190.83C570.376 194.309 569.269 199.367 568.041 203.583L567.078 206.783C565.904 210.655 564.397 215.209 561.264 217.81C558.17 220.38 553.794 220.501 550.86 217.635C548.03 214.872 547.976 210.635 547.894 206.949C547.643 195.633 549.038 184.066 552.944 173.403L553.257 172.563C553.937 170.777 554.846 166.019 557.406 165.698ZM427.795 159.021C432.961 152.968 440.502 174.586 441.945 178.778L443.089 182.1C446.076 190.731 449.517 199.875 455.998 206.251C455.478 203.098 454.192 199.79 453.707 197.161L453.491 195.974C452.676 191.405 452.028 186.622 452.876 182.069C453.161 180.53 454.677 179.154 456.149 178.788C457.039 178.568 457.751 178.559 458.641 178.788C460.156 179.18 461.564 180.514 461.914 182.069C463.325 188.363 463.264 194.987 464.584 201.366L464.749 202.184C465.763 207.348 466.133 212.212 463.443 217.001C462.231 219.157 459.212 219.96 457.102 218.667C448.117 213.163 442.609 204.324 439.25 194.511C437.65 189.837 436.435 185.006 435.307 180.185L434.504 176.737C433.591 172.931 430.149 159.224 428.588 160.052C427.909 160.411 427.318 159.579 427.795 159.021Z" fill="black"/>
<path fill-rule="evenodd" clip-rule="evenodd" d="M530.587 523.927C523.864 521.184 517.866 516.61 513.481 510.766C511.957 508.735 511.561 506.59 511.881 504.628C512.241 502.421 513.546 500.422 515.326 499.081C517.112 497.735 519.345 497.072 521.504 497.41C523.381 497.704 525.248 498.731 526.727 500.862L527.035 501.288C529.642 504.815 533.04 507.709 536.91 509.574C540.641 511.372 544.814 512.211 549.132 511.723C557.356 510.794 563.024 506.346 569.049 500.307C569.796 499.544 570.543 498.758 571.294 497.959C571.768 497.234 572.426 496.769 573.157 496.524C573.968 496.253 574.886 496.269 575.726 496.562C576.537 496.845 577.262 497.381 577.747 498.095C578.209 498.773 578.471 499.61 578.386 500.574C577.835 506.833 574.562 512.419 569.914 516.805C564.752 521.677 557.909 525.047 551.466 526.229C544.368 527.531 537.136 526.598 530.587 523.927V523.927ZM554.814 427.367C562.366 431.957 573.872 442.66 565.748 454.04C556.186 464.073 542.418 452.569 535.634 447.366C529.343 443.334 522.275 453.704 528.112 458.413C577.136 494.708 597.031 428.567 558.634 421.97C554.406 421.243 552.836 425.947 554.814 427.367ZM466.963 385.146C467.798 374.79 483.57 372.438 485.139 382.686C486.544 391.866 484.89 400.299 480.755 408.564C476.804 416.46 466.874 412.777 466.123 405.587C465.116 395.949 466.444 391.589 466.963 385.146ZM587.027 380.561C589.226 377.681 592.401 375.715 596.205 376.826C608.09 380.299 604.587 397.172 600.413 405.385C598.145 409.845 590.814 410.976 587.501 407.049C582.101 400.645 579.515 387.856 586.38 381.548C586.566 381.222 586.773 380.893 587.027 380.561ZM480.588 339.83L482.465 339.502C488.273 338.497 495.494 337.532 499.603 342.201C501.782 344.677 502.532 349.279 499.603 351.649C494.451 355.819 488.755 354.203 482.581 354.556C477.493 354.848 472.603 355.69 467.702 357.091C456.95 360.164 448.189 365.774 439.006 371.934C437.801 372.742 436.571 371.201 437.146 370.074C442.447 359.691 452.72 351.162 463.01 345.963C468.502 343.188 474.512 340.886 480.588 339.83ZM576.193 335.179L577.63 335.473C593.267 338.742 613.583 345.271 620.988 360.631C621.271 362.803 620.972 363.268 620.73 363.572L620.649 363.673C620.45 363.933 620.29 364.291 619.349 364.587C619.087 364.525 618.824 364.459 618.557 364.389C615.163 363.499 612.477 362.274 609.877 361.002L607.058 359.613C603.788 358.01 600.488 356.465 596.992 355.324C589.53 352.89 581.854 351.175 574.06 350.26C572.37 350.061 570.744 349.491 569.46 348.514C568.242 347.587 567.311 346.302 566.887 344.595C566.337 342.386 566.495 340.714 567.68 338.721C568.572 337.224 569.847 336.187 571.311 335.591C572.804 334.984 574.503 334.841 576.193 335.179Z" fill="black"/>
<path fill-rule="evenodd" clip-rule="evenodd" d="M557.56 573.063C557.56 573.063 513.17 579.586 493.3 570.367C473.49 561.178 454.22 552.286 436.25 540.113C417.84 527.642 402.22 512.832 391.07 493.875C380.7 476.237 372.08 457.52 363.4 438.948C362.893 437.863 357.91 427.073 356.15 423.455C353.44 417.845 345.52 419.606 345.52 428.315C345.52 437.023 345.13 502.975 360.35 528.918C374.08 552.35 397.35 568.722 420.47 583.012C446.05 598.813 480.03 615.893 510.55 620.406C538.17 624.486 569.69 613.026 589.69 594.136C610.6 574.38 616.52 547.541 627.31 521.838C629.72 516.094 621.176 512.629 618.67 518.279C613.951 528.918 557.56 573.063 557.56 573.063Z" fill="black"/>
<path fill-rule="evenodd" clip-rule="evenodd" d="M641.257 448.356C639.372 424.473 609.257 414.356 594.257 411.356C544.309 399.614 501.815 429.74 442.257 430.356C436.246 430.45 419.056 429.436 411.062 427.325C370.503 418.109 329.986 408.306 290.19 396.219C284.339 397.589 282.608 405.226 286.625 409.577C324.741 423.094 383.054 435.198 413.848 436.576C413.257 476.356 392.257 516.356 363.257 538.356C409.38 589.361 516.949 606.135 580.255 579.362C611.396 570.016 644.257 486.356 641.257 448.356" fill="white"/>
<path fill-rule="evenodd" clip-rule="evenodd" d="M286.972 397.423C285.257 397.356 286.257 392.356 290.12 393.069C339.964 404.726 402.064 426.93 453.297 426.767C490.986 425.533 524.757 404.543 562.654 404.416C588.129 404.904 620.613 408.527 638.441 428.969C661.956 503.547 609.003 604.983 525.686 605.57L509.916 604.429C456.163 600.469 397.275 594.133 362.627 548.528L362.357 548.76V548.76C357.176 545.284 357.465 537.777 361.868 533.916L361.999 534.122V534.122C362.083 533.986 362.176 533.856 362.266 533.723L362.21 533.548V533.548C363.904 531.77 365.83 530.107 367.581 528.618L367.59 528.647V528.647C393.606 506.972 410.593 474.197 411.571 440.258C402.958 442.624 258.252 412.624 284.083 405.303C302.559 411.549 321.144 417.19 340.104 421.68C340.422 421.501 340.878 421.548 341.053 421.901C364.247 427.609 387.909 430.871 411.602 433.512C411.577 432.38 411.534 431.248 411.476 430.114C369.348 421.913 328.048 409.737 286.972 397.423ZM628.095 427.69C541.686 384.039 498.794 448.528 415.225 430.772C423.968 469.778 402.379 511.829 373.056 537.315C415.662 574.191 434.102 579.775 489.992 585.76L497.294 586.629C508.271 587.93 519.352 589.142 530.364 589.332C587.484 585.175 630.645 525.747 637.104 471.902L637.139 470.415C637.429 456.75 636.801 442.285 630.747 429.766C629.632 429.378 628.663 428.679 628.095 427.69ZM507.799 461.956C510.785 461.284 513.832 464.542 511.981 467.395C506 476.62 491.373 480.194 481.143 481.644C469.296 483.323 457.812 481.999 446.558 477.958C445.955 477.741 445.998 476.675 446.72 476.761C457.406 478.033 468.422 477.102 478.805 474.274C489.333 472.223 497.834 465.221 507.799 461.956ZM588.988 455.311C588.938 453.558 597.556 458.63 598.919 459.313C609.445 465.633 621.629 466.096 633.238 468.577C635.944 469.615 635.94 473.055 633.237 474.093C618.748 477.946 596.759 467.834 588.988 455.311Z" fill="black"/>
</svg>
