<svg viewBox="0 0 830 1289" fill="none" xmlns="http://www.w3.org/2000/svg">
<path fill-rule="evenodd" clip-rule="evenodd" d="M735.555 783.831C721.674 718.069 672.445 667.039 606.237 641.618C593.511 634.42 581.174 603.534 564.071 597.878C561.329 596.971 565.657 604.187 564.071 604.618C558.414 606.155 552.076 606.316 545.831 600.765C534.669 590.844 531.168 561.861 524.381 548.762C488.59 479.676 399.228 506.707 387.256 583.08C378.908 588.521 367.108 593.314 358.021 597.698C348.664 602.213 340.434 613.148 330.791 617.058C322.188 620.546 308.012 618.075 299.342 621.116C259.468 635.103 225.696 652.752 199.219 688.512C193.64 696.054 187.351 705.326 182.274 712.945C156.1 743.076 137.92 776.848 121.176 813.081C74.3298 919.432 61.5878 1037.19 50.1558 1151.77C50.4158 1171.82 37.1118 1227.41 56.7888 1237.03C55.6128 1238.25 56.0388 1240.69 58.2208 1240.67C108.114 1240.17 157.891 1244.63 207.01 1253.32C230.709 1257.5 254.281 1263.25 278.421 1264.19C328.532 1263.85 378.463 1255.45 428.508 1263.4C488.67 1263.4 561.786 1261.64 628.715 1259.07C691.268 1256.67 754.155 1262.1 815.933 1251.46C820.823 1250.68 823.211 1244.72 822.186 1240.45C814.938 1214.04 811.38 1186.85 807.313 1159.82C808.123 1142.49 806.674 1124.39 800.26 1108.24C783.502 999.219 762.013 890.912 735.555 783.831Z" fill="#D08B5B"/>
<path fill-rule="evenodd" clip-rule="evenodd" d="M564.071 605.018C565.657 604.587 561.329 597.371 564.071 598.278C581.174 603.934 593.511 634.82 606.237 642.018C672.445 667.439 721.674 718.469 735.555 784.231C762.013 891.312 783.502 999.619 800.26 1108.64C806.674 1124.79 808.123 1142.89 807.313 1160.22L807.951 1164.49C811.765 1190.11 815.319 1215.83 822.186 1240.85C823.211 1245.12 820.823 1251.08 815.933 1251.86C754.857 1262.38 692.697 1257.19 630.848 1259.39L617.957 1259.87C554.023 1262.22 485.461 1263.8 428.508 1263.8C378.463 1255.85 328.532 1264.25 278.421 1264.59C254.281 1263.65 230.709 1257.9 207.01 1253.72C157.891 1245.03 108.114 1240.57 58.2208 1241.07C56.0388 1241.09 55.6128 1238.65 56.7888 1237.43C37.1118 1227.81 50.4158 1172.22 50.1558 1152.17L51.1891 1141.85C62.383 1030.53 75.7352 916.641 121.176 813.481L122.537 810.548C138.908 775.425 156.807 742.661 182.274 713.345L183.831 711.013C188.602 703.889 194.198 695.699 199.219 688.912C225.696 653.152 259.468 635.503 299.342 621.516C308.012 618.475 322.188 620.946 330.791 617.458C339.81 613.801 347.593 603.999 356.218 599.051L356.218 635.952L481.02 758.89L551.803 650.354L559.001 605.902C560.736 605.793 562.432 605.463 564.071 605.018Z" fill="#ECFE23"/>
<path fill-rule="evenodd" clip-rule="evenodd" d="M715.368 927.128C714.048 933.538 712.198 939.948 709.738 946.019C707.368 951.878 703.798 957.128 701.339 962.918C701.009 963.698 700.469 964.288 699.818 964.738L700.02 966.313V966.313L700.208 967.888C701.434 978.516 702.814 989.115 704.008 999.742L704.589 1005.06C706.938 1027.25 710.648 1049.33 713.528 1071.46C716.348 1093.13 719.219 1114.8 722.288 1136.44C725.458 1158.75 728.688 1181.03 732.458 1203.25C734.049 1212.63 735.71 1222.01 737.441 1231.38L738.778 1238.55C752.538 1241.86 756.298 1261.04 742.288 1268.12C735.929 1271.32 727.759 1270.55 722.518 1265.52C717.071 1260.28 716.845 1250.83 715.581 1243.73L714.364 1237.13C705.252 1187.53 697.345 1137.35 693.648 1087.05C692.698 1074.06 691.898 1061.06 691.378 1048.05C690.883 1035.81 691.12 1023.57 690.931 1011.34L690.868 1008C690.579 994.948 690.818 981.918 691.158 968.868C691.198 967.278 691.268 965.688 691.348 964.088C690.889 963.548 690.558 962.908 690.419 962.288L690.238 961.468C689.788 959.358 690.298 956.888 691.919 955.378C692.618 946.488 693.538 937.608 693.788 928.728C693.808 927.998 694.858 928.019 694.919 928.728C695.509 936.288 696.688 943.868 697.868 951.438C705.458 945.338 711.068 935.278 714.378 926.858C714.618 926.248 715.509 926.468 715.368 927.128ZM535.787 573.707C537.047 579.467 539.537 584.638 542.877 589.448C544.468 591.748 546.277 593.888 548.447 595.678C550.308 597.207 552.428 598.207 554.407 599.538C557.287 599.087 560.297 600.178 562.317 602.297L561.998 599.198C561.897 598.198 563.558 597.998 563.748 598.967C572.497 643.089 580.476 687.239 587.383 731.68L590.41 751.305L593.259 769.73C597.988 800.432 602.563 831.121 606.008 862.047C610.598 903.318 614.457 944.698 617.277 986.137C620.107 1027.87 621.848 1069.63 623.088 1111.44C623.397 1121.98 623.728 1132.51 624.047 1143.05L626.183 1130.45C628.315 1117.84 630.406 1105.23 632.197 1092.57C638.627 1047.26 643.768 1001.63 646.277 955.928C648.578 914.108 647.808 871.458 637.168 830.717C634.487 820.467 631.207 810.377 627.248 800.547C623.407 790.988 618.168 782.127 614.037 772.708C609.237 761.748 607.797 751.408 610.268 739.608C612.428 729.328 616.218 719.658 616.897 709.078C618.168 689.438 611.777 670.417 602.748 653.228C600.367 648.698 597.857 644.228 595.237 639.797C587.308 626.408 578.367 613.507 569.088 601.138C568.588 600.478 569.647 599.748 570.188 600.288C578.647 608.648 587.897 616.868 595.508 625.998C599.207 630.438 602.817 634.967 606.237 639.618C643.758 645.888 675.998 669.257 698.037 700.118C723.047 735.138 735.697 777.288 745.058 818.797C755.468 864.928 764.248 911.478 773.598 957.837C783.277 1005.81 792.907 1053.78 802.647 1101.74C807.487 1125.55 812.328 1149.36 817.157 1173.18C819.607 1185.24 822.178 1197.27 824.867 1209.29C826.248 1215.45 827.728 1221.6 829.008 1227.78C830.447 1234.75 829.107 1239.21 824.388 1244.33C822.647 1246.23 819.897 1246.2 817.737 1245.19L817.062 1244.87L816.409 1244.56C813.737 1243.24 811.641 1241.88 809.978 1238.96C808.147 1235.75 807.857 1232.19 807.228 1228.62C806.067 1222.05 804.918 1215.48 803.758 1208.9C802.025 1199.06 800.141 1189.25 798.222 1179.44L788.599 1130.41C786.032 1117.34 783.462 1104.27 780.877 1091.21C771.647 1044.49 762.407 997.778 753.168 951.068C744.297 906.217 736.447 861.058 726.348 816.467L725.774 813.955L725.19 811.446C716.16 773.006 703.542 735.822 680.647 703.248C663.027 678.198 638.558 655.828 609.737 644.507C611.768 647.428 613.718 650.408 615.578 653.448C627.258 672.528 635.787 695.178 633.787 717.898C632.808 728.998 628.588 739.908 628.987 751.098C629.357 761.038 635.508 769.768 639.758 778.417C649.407 798.018 656.388 818.848 660.888 840.217C669.918 883.127 669.888 927.278 666.777 970.837C663.397 1018.19 656.978 1065.53 649.668 1112.42C645.918 1136.47 640.928 1160.32 637.107 1184.33C635.218 1196.17 632.647 1207.98 630.397 1219.76L629.325 1225.39C628.725 1228.51 628.102 1231.62 627.382 1234.7L626.938 1236.55V1236.88C626.918 1239.15 626.297 1241.03 625.297 1242.53C623.928 1246.92 622.228 1251.2 619.968 1255.31C618.808 1257.41 617.127 1258.59 615.297 1259.02C613.457 1263.23 609.287 1266.47 604.308 1266.45L538.817 1266.2C500.777 1266.05 462.737 1265.8 424.697 1265.59C415.098 1265.54 405.508 1265.36 395.918 1265.11C386.928 1264.86 378.308 1263.78 369.418 1262.66C359.377 1261.4 353.938 1254.29 355.438 1244.26C355.768 1242.05 356.127 1239.85 356.468 1237.65C354.468 1238.31 352.088 1238 350.478 1236.43L348.969 1234.95C346.877 1232.88 345.005 1230.85 343.678 1228.09C342.308 1225.25 341.197 1222.25 339.987 1219.35C337.377 1213.11 334.838 1206.85 332.367 1200.56C327.418 1187.98 322.468 1175.35 317.867 1162.64C308.758 1137.47 300.697 1111.92 293.688 1086.08C281.188 1039.98 272.147 992.988 266.447 945.578L265.085 934.279L264.688 930.941C262.527 912.565 260.708 893.904 261.567 875.568C262.098 864.087 263.877 852.518 268.168 841.797C272.127 831.908 278.237 823.448 284.047 814.608L284.712 813.588L285.381 812.542C290.462 804.513 294.505 796.119 294.707 786.368C294.913 776.473 292.03 766.843 288.807 757.579L288.003 755.295L287.464 753.782C280.607 734.637 272.804 715.762 275.377 694.928C279.178 664.248 297.777 639.518 321.178 620.448C300.367 624.568 279.768 632.707 261.588 643.028C240.117 655.228 220.787 671.328 204.117 689.498C172.617 723.837 150.127 765.038 131.718 807.578C112.447 852.098 98.1573 898.748 87.3883 946.008C76.5583 993.538 69.3083 1041.83 64.3573 1090.31C61.8883 1114.44 59.9473 1138.63 58.3383 1162.83C57.5183 1175.23 56.8983 1187.65 55.9383 1200.03C54.9783 1212.4 54.5473 1224.96 51.5273 1237C50.1173 1242.61 40.6073 1243.18 39.5883 1237C37.3269 1223.2 37.9589 1208.92 38.59 1194.95L38.6473 1193.68C39.2683 1179.76 40.0783 1165.85 41.0373 1151.94C42.9983 1123.51 45.6173 1095.12 49.0373 1066.82C61.0273 967.478 83.1383 868.658 126.508 777.978C146.928 735.268 173.138 693.768 209.598 662.928C226.957 648.257 246.527 636.547 267.617 628.068C286.478 620.478 305.638 616.888 325.678 616.898C335.728 609.198 346.518 602.488 357.297 596.757C357.947 596.408 358.627 597.248 358.088 597.788C357.808 598.058 357.537 598.337 357.258 598.598C358.478 598.678 359.737 599.248 360.867 600.438C364.828 604.587 368.168 609.778 371.157 615.167C375.707 620.848 380.047 626.717 384.588 632.337C391.857 641.337 399.297 650.207 406.828 659.007C419.476 673.796 432.535 688.306 446.153 702.232L448.428 704.547C455.487 711.698 462.638 720.257 470.987 725.917L471.433 726.214C474.956 728.508 477.453 728.925 480.457 725.498C483.188 722.378 485.461 718.758 487.798 715.318L488.338 714.528C500.268 697.198 511.328 679.228 521.338 660.728C525.901 652.309 530.241 643.768 534.36 635.132L535.588 632.538C537.828 627.778 540.258 623.108 542.107 618.207C542.537 617.058 542.957 615.908 543.367 614.768C537.067 610.638 532.188 601.698 530.418 594.698C528.578 587.428 529.508 579.967 532.787 573.318C533.407 572.068 535.487 572.377 535.787 573.707ZM224.999 869.137C224.127 896.778 223.598 924.448 222.297 952.068L221.848 961.497C223.877 963.758 225.067 966.367 224.117 969.948C223.748 971.318 222.657 972.558 221.297 973.018L220.873 981.785C218.944 1021.23 216.681 1060.59 212.547 1099.94C207.377 1149.18 201.397 1198.34 195.428 1247.49C194.578 1254.45 189.737 1259.97 182.207 1258.95C174.588 1257.92 171.498 1251.29 172.498 1244.38C176.428 1217.27 180.207 1190.14 183.518 1162.94L187.288 1131.95C192.016 1093.21 196.854 1054.48 202.428 1015.87C204.758 999.728 207.178 983.598 209.607 967.467L208.758 966.367C205.287 961.858 201.697 957.448 198.147 953.008C191.328 944.448 184.598 935.957 178.348 926.997C178.037 926.547 178.668 925.887 179.117 926.228C187.877 932.698 196.168 939.617 204.508 946.648L211.808 952.827C216.008 924.957 220.168 897.077 223.877 869.137C223.968 868.438 225.018 868.387 224.999 869.137ZM351.008 604.618C345.737 609.587 340.348 614.448 335.037 619.388L333.092 621.206L331.156 623.033C321.822 631.884 312.88 641.097 305.428 651.678C291.748 671.108 283.598 694.797 289.287 718.518C294.008 738.167 304.838 755.978 307.748 776.118C309.207 786.208 308.498 796.348 304.697 805.877C300.817 815.598 294.617 823.928 289.047 832.698C276.947 851.758 275.297 872.678 276.498 894.758C277.758 917.818 280.407 940.887 283.678 963.738C290.297 1010.04 300.277 1055.86 313.487 1100.73C320.098 1123.2 327.907 1145.19 335.678 1167.27C339.547 1178.26 344.058 1188.99 348.707 1199.67C351.157 1205.29 353.668 1210.88 356.218 1216.46C355.277 1208.58 355.277 1200.49 354.817 1192.66C354.157 1181.44 353.317 1170.24 352.547 1159.03C350.978 1136.28 349.578 1113.51 348.328 1090.74C343.898 1009.54 340.638 928.268 340.877 846.938C340.998 806.268 341.828 765.598 343.578 724.967C344.399 705.834 345.987 686.719 347.423 667.612L347.728 663.518C348.998 646.368 350.518 629.178 353.127 612.178C352.355 610.435 351.684 608.67 351.187 606.859L351.008 606.178L351.138 606.198C351.018 605.667 350.978 605.138 351.008 604.618ZM396.589 534.738C396.698 534.268 397.368 534.308 397.488 534.738C400.458 544.738 399.408 555.738 396.849 565.798C395.469 571.248 393.509 576.538 391.139 581.638L390.309 583.423C388.279 587.766 385.992 592.241 382.038 594.948C380.389 596.078 377.438 596.148 375.788 594.948L374.946 594.309C374.808 594.201 374.671 594.091 374.538 593.978C372.999 592.688 372.238 589.838 372.948 587.958C374.778 583.108 378.929 579.548 381.798 575.228C384.339 571.388 386.589 567.338 388.458 563.128C392.488 554.018 394.298 544.348 396.589 534.738Z" fill="black"/>
<path fill-rule="evenodd" clip-rule="evenodd" d="M466.531 172.26C523.191 172.26 606.126 210.176 612.363 246.655C619.713 289.645 636.037 451.299 627.15 504.198C618.262 557.097 583.607 596.184 506.971 596.184C430.334 596.184 373.134 554.303 360 539.922C346.866 525.542 330.952 480.793 330.952 480.793C330.952 480.793 288.993 473.665 288.798 440.147C288.604 406.628 309.876 396.269 309.876 396.269C309.876 396.269 298.396 257.221 322.526 222.781C346.657 188.342 409.87 172.26 466.531 172.26Z" fill="#D08B5B"/>
<path fill-rule="evenodd" clip-rule="evenodd" d="M637.599 349.336C640.702 383.126 641.869 417.206 642.469 451.126C643.048 483.266 640.224 516.786 621.951 544.266C605.976 568.306 581.647 585.756 554.554 595.176C539.136 600.546 522.063 602.536 505.778 603.026C497.366 603.276 488.933 602.917 480.571 602.047C479.518 601.936 478.461 601.842 477.404 601.747C470.321 601.115 463.297 600.487 458.138 595.126C456.511 593.436 456.532 589.966 458.937 588.866C463.517 586.776 466.62 586.556 471.64 587.246C475.8 587.815 479.972 588.266 484.163 588.556C493.144 589.186 502.185 589.206 511.166 588.516C527.672 587.246 544.556 582.576 559.543 575.496C583.044 564.376 603.232 546.155 614.129 522.246C626.621 494.871 625.993 463.214 625.409 433.735L625.385 432.526C624.735 399.826 623.529 367.227 620.695 334.636C619.62 322.308 618.09 310.046 616.559 297.78C616.128 294.327 615.697 290.873 615.276 287.416C614.267 279.056 612.941 270.735 611.314 262.476C610.825 259.982 610.251 257.508 609.677 255.037C609.246 253.177 608.815 251.32 608.421 249.456C607.752 249.565 607.073 249.626 606.375 249.655C602.203 249.796 597.644 248.776 594.549 245.806C593.363 246.616 591.855 247.126 590.04 247.216C578.947 247.766 567.741 247.521 556.56 247.277C550.452 247.143 544.35 247.01 538.279 247.007C521.036 246.997 503.782 247.006 486.528 247.056C483.897 247.064 481.266 247.074 478.634 247.084C464.02 247.14 449.383 247.196 434.788 246.806C431.695 246.724 428.582 246.67 425.458 246.616C412.385 246.389 399.123 246.159 386.35 243.786C381.032 262.727 381.22 283.536 392.308 300.456C395.44 305.227 392.896 310.846 388.815 313.826C384.643 316.867 377.144 321.53 370.727 322.009C370.479 322.57 370.227 323.128 369.976 323.686C369.599 324.522 369.224 325.356 368.86 326.188C365.798 333.181 363.039 340.218 361.108 347.622C360.113 351.439 359.257 355.317 358.536 359.22C358.595 359.904 358.656 360.585 358.729 361.266C358.729 361.328 358.736 361.389 358.745 361.457L358.749 361.486C358.789 361.767 358.839 362.086 358.868 362.266C358.959 362.747 359.049 363.228 359.139 363.709C359.415 365.188 359.692 366.665 359.986 368.137C360.914 372.887 361.632 377.677 362.142 382.486C363.07 391.286 362.98 402.727 354.418 407.936C349.838 410.727 344.349 410.436 339.508 408.565C336.81 407.521 334.447 406.117 332.011 404.67C331.511 404.373 331.008 404.074 330.498 403.776C329.711 403.315 328.908 402.891 328.106 402.469C327.1 401.937 326.095 401.408 325.129 400.806C324.651 400.507 324.192 400.146 323.763 399.766C320.52 400.456 317.355 401.746 315.58 402.626C310.819 404.996 306.639 408.426 303.085 412.366C295.532 420.757 293.267 432.577 294.325 443.547C295.312 453.757 299.314 465.486 307.366 472.276C310.869 475.236 315.241 476.966 319.861 476.917C322.135 476.897 324.232 476.416 326.427 475.836C327.364 475.59 328.395 475.482 329.426 475.374C330.779 475.232 332.13 475.091 333.263 474.637C336.225 473.447 339.879 477.076 338.671 480.056C338.402 480.719 338.168 481.358 337.941 481.975C337.402 483.447 336.908 484.794 336.106 486.026C344.369 499.546 353.42 512.646 363.049 525.216C369.154 533.178 376.021 540.249 382.917 547.351C385.827 550.347 388.742 553.35 391.608 556.426C395.87 561.006 397.646 570.026 389.933 571.986C383.148 573.724 377.877 567.49 373.693 562.543C373.133 561.88 372.592 561.241 372.07 560.646C353.759 539.776 339.918 515.815 333.441 488.766C330.518 490.846 327.164 491.977 323.632 492.466C316.597 493.436 309.483 492.047 303.316 488.477C279.964 474.966 274.316 438.457 285.253 415.577C287.89 410.068 291.786 405.15 296.535 401.331C296.161 400.613 296.013 399.773 296.254 398.87C296.676 397.289 297.14 395.728 297.627 394.172C297.095 393.935 296.706 393.444 296.78 392.716C297.151 388.909 297.515 385.101 297.879 381.293L298.077 379.216C298.031 377.153 297.969 375.09 297.907 373.027C297.764 368.291 297.621 363.551 297.677 358.786C297.733 353.717 297.905 348.65 298.078 343.583C298.276 337.755 298.475 331.927 298.496 326.096C298.561 307.213 298.974 288.339 299.388 269.465C299.807 250.339 300.227 231.213 300.282 212.076C300.341 193.485 300.381 174.866 299.892 156.286C299.887 156.155 299.884 156.026 299.882 155.897C299.88 155.781 299.877 155.665 299.873 155.546C299.812 153.266 299.667 150.868 299.519 148.406C298.701 134.815 297.767 119.301 310.052 111.155C312.437 109.576 315.41 109.556 318.005 110.576C325.469 105.366 334.829 102.855 343.78 101.405C356.975 99.2708 370.259 97.991 383.55 96.7106C387.437 96.3361 391.325 95.9615 395.212 95.5655C404.172 94.6555 413.602 94.3065 422.623 94.5065C427.316 94.6094 432.041 94.4396 436.772 94.2696C441.237 94.1092 445.708 93.9485 450.165 94.0165C460.582 94.1865 471.081 94.5765 481.538 95.4365C481.782 95.4116 482.028 95.3892 482.274 95.3668C482.522 95.3442 482.77 95.3216 483.016 95.2965C498.858 93.7742 514.68 94.5791 530.51 95.3844C534.343 95.5794 538.177 95.7745 542.011 95.9365C560.751 96.7265 580.539 98.6665 597.364 107.655C599.528 108.809 601.361 110.121 602.924 111.583C605.117 111.892 607.207 112.515 609.086 113.562C614.503 112.465 620.55 114.897 621.832 121.196C623.698 130.426 624.406 139.735 623.288 149.096C623.273 149.214 623.26 149.336 623.246 149.46C623.234 149.567 623.222 149.676 623.209 149.786C625.471 158.47 625.32 167.954 623.44 176.519C624.232 187.341 624.684 198.194 624.747 209.029C624.757 210.669 624.78 212.315 624.804 213.965C624.888 219.856 624.972 225.79 624.429 231.628C623.816 238.199 621.118 243.397 616.872 248.387C616.072 249.327 614.72 249.483 613.595 249.255C613.304 249.196 613.05 249.117 612.821 249.021C614.915 253.522 616.651 258.247 618.35 262.87C618.726 263.895 619.101 264.915 619.478 265.926C622.771 274.786 625.964 283.796 628.228 292.976C632.819 311.485 635.842 330.346 637.599 349.336ZM319.604 433.103C318.657 432.448 317.701 431.787 316.667 431.296C316.538 431.235 311.069 429.456 312.127 431.806C312.486 432.586 311.548 433.456 310.88 432.766C308.984 430.836 310.041 428.516 311.848 426.796C315.11 423.686 319.98 424.405 323.982 425.146C329.55 426.176 334.959 428.616 339.649 431.746C344.698 435.116 350.935 439.786 351.933 446.176C352.841 452.046 347.013 458.516 341.016 454.586C337.771 452.456 335.499 449.288 333.218 446.11C331.593 443.844 329.963 441.573 327.973 439.666C325.627 437.426 323.093 435.456 320.409 433.655C320.141 433.475 319.873 433.289 319.604 433.103Z" fill="black"/>
<path fill-rule="evenodd" clip-rule="evenodd" d="M541.853 544.089L543.986 543.522C551.626 541.441 559.554 538.137 566.848 542.665C569.482 544.3 569.879 547.777 567.797 550.027C561.888 556.411 553.166 555.173 545.175 555.237L544.782 555.241C536.742 555.352 528.762 554.951 520.805 553.798C519.756 553.646 519.549 551.903 520.502 551.485C527.43 548.448 534.556 546.053 541.853 544.089V544.089ZM554.814 427.367C562.366 431.957 573.872 442.66 565.748 454.04C556.186 464.073 542.418 452.569 535.634 447.366C529.343 443.334 522.275 453.705 528.112 458.413C577.136 494.708 597.031 428.567 558.634 421.97C554.406 421.243 552.836 425.947 554.814 427.367ZM607.316 367.005C619.498 366.632 619.509 385.985 607.316 385.933C603.676 385.917 600.036 385.916 596.396 385.908C598.511 393.619 597.303 402.814 593.483 409.291C590.963 413.566 584.932 414.343 581.409 410.847C575.327 404.811 574.128 395.984 576.277 387.98L575.835 386.933V386.933C575.691 386.59 575.588 386.243 575.504 385.894C563.739 385.904 551.974 385.933 540.208 385.952L522.56 385.97C511.102 385.974 499.639 386.067 488.18 385.96C488.321 386.173 488.462 386.385 488.577 386.628C489.292 388.133 489.595 390.033 489.82 391.66C490.204 394.452 490.158 397.459 489.718 400.24C489.397 402.272 488.807 404.692 487.676 406.607L487.669 406.647V406.647C487.136 408.919 486.463 411.094 484.706 412.733C484.178 413.224 483.663 413.574 483.119 413.822C482.092 414.897 480.77 415.608 479.033 415.631C478.111 415.641 477.1 415.372 476.12 414.99C474.613 415.116 473.057 414.434 471.724 413.83C470.655 413.345 469.674 412.701 468.883 411.861C468.512 411.773 468.138 411.628 467.764 411.397C465.472 409.987 464.596 407.161 464.477 404.609C464.469 404.454 464.475 404.291 464.47 404.134C464.385 403.788 464.309 403.44 464.251 403.09C463.489 398.555 464.415 393.448 465.385 389.041C465.629 387.938 465.83 386.657 466.129 385.418C463.842 385.329 461.557 385.241 459.27 385.147C453.542 384.913 446.551 385.68 441.252 383.259C440.866 383.084 440.97 382.57 441.252 382.369C446.144 378.872 453.746 378.306 459.638 377.155L460.138 377.054C467.164 375.613 474.186 374.401 481.283 373.366C494.944 371.374 508.78 370.302 522.56 369.53C550.773 367.95 579.074 367.868 607.316 367.005Z" fill="black"/>
</svg>
