<svg xmlns="http://www.w3.org/2000/svg" xmlns:xlink="http://www.w3.org/1999/xlink" version="1.1" viewBox="0 0 400 412.82" data-name="Layer 1" id="Layer_1">
  <defs id="defs4">
    <clipPath id="body">
      <path d="M200.003 30.133c71.1 0 128.69 152.76 128.69 223.86a128.695 128.695 0 11-257.39 0c0-71.1 57.62-223.86 128.7-223.86z" />
    </clipPath>
    <g id="rainbowBlock">
      <rect id="rect852" width="572.001" height="69.969" x="549.26" y="-45.48" ry="0" opacity="1" fill="#fa4d32"/>
      <rect ry="0" y="24.489" x="549.26" height="69.969" width="572.001" id="rect854" opacity="1" fill="#fdb020"/>
      <rect id="rect856" width="572.001" height="69.969" x="549.26" y="94.459" ry="0" opacity="1" fill="#fdf133"/>
      <rect ry="0" y="164.428" x="549.26" height="69.969" width="572.001" id="rect858" opacity="1" fill="#1ce590"/>
      <rect id="rect860" width="572.001" height="69.969" x="549.26" y="234.398" ry="0" opacity="1" fill="#13a1e3"/>
      <rect ry="0" y="304.367" x="549.26" height="69.969" width="572.001" id="rect862" opacity="1" fill="#7e2ae4"/>
      <rect id="rect864" width="572.001" height="69.969" x="549.26" y="374.337" ry="0" opacity="1" fill="#9e4ea5"/>
    </g>
    <g id="rainbowGroup" transform="rotate(-45 474.14 644.488) scale(.70644)" id="g873" fill-opacity="1" fill-rule="nonzero" stroke="none" stroke-width="5" stroke-linecap="round" stroke-linejoin="round" stroke-miterlimit="4" stroke-dasharray="none" stroke-dashoffset="0" stroke-opacity="1">
      <g transform="translate(0, 0)">
        <use xlink:href="#rainbowBlock"/>
      </g>
      <g transform="translate(0, 480)">
        <use xlink:href="#rainbowBlock"/>
      </g>
    </g>
  </defs>
  <g clip-path="url(#body)">
    <use xlink:href="#rainbowGroup"/>
  </g>
  <path id="path12" d="M362.078 153.43l-52.5 18.52s8.13 24.71 8.2 24.88c.07.17 52.29-6.73 52.29-6.73z" class="cls-3" fill="#252526"/>
  <path id="path14" d="M35.708 153.43l52.5 18.52s-8.13 24.71-8.2 24.88c-.07.17-52.29-6.73-52.29-6.73z" class="cls-3" fill="#252526"/>
  <path id="path16" d="M144.868 149.06c13.19.2 16.07 11.17 16.55 13.78a215.77 215.77 0 013.28 27.06 34.65 34.65 0 01-.69 7.57 226.58 226.58 0 00-2.59-18.19c-.48-2.6-3.36-13.58-16.55-13.78-8-.12-33.55.8-59 4.48a360.93 360.93 0 016-17.26 445.49 445.49 0 0153-3.66z" class="cls-4" fill="hsla(0, 0%, 0%, 0.5)"/>
  <path id="path18" d="M327.338 248.28c-46.35-2.39-85.94-17.16-94.88-22.53-7-3.34-15.85-10.39-18.41-28-1.71 19.45 2 37.18 20.22 45.93 1.35.81 36.32 18.12 92.74 21.08.29-3.54.45-7.11.45-10.73.01-1.89-.04-3.8-.12-5.75z" class="cls-4" fill="hsla(0, 0%, 0%, 0.5)"/>
  <path id="path20" d="M70.578 248.28c46.35-2.39 85.94-17.16 94.88-22.53 7-3.34 15.85-10.39 18.41-28 1.71 19.45-2 37.18-20.22 45.93-1.35.81-36.32 18.12-92.74 21.08-.29-3.54-.45-7.11-.45-10.73-.01-1.89.04-3.8.12-5.75z" class="cls-4" fill="hsla(0, 0%, 0%, 0.5)"/>
  <path id="path22" d="M252.778 149.06c-13.19.2-16.07 11.17-16.55 13.78a215.77 215.77 0 00-3.23 27.05 34.65 34.65 0 00.69 7.57c.66-6.54 1.59-12.78 2.59-18.19.48-2.6 3.36-13.58 16.55-13.78 8-.12 33.55.8 59 4.48a360.93 360.93 0 00-6-17.26 445.49 445.49 0 00-53.05-3.65z" class="cls-4" fill="hsla(0, 0%, 0%, 0.5)"/>
  <path id="path24" d="M86.318 135.13c12.68-30.66 27.8-57.13 43.87-76.65 21.81-26.48 44.95-39.91 68.71-39.91 23.76 0 46.86 13.42 68.7 39.9 16.09 19.51 31.26 46 43.87 76.66l.62 1.49-1.6-.21c-4.45-.59-8.09-1-12.53-1.5l-.54-.06-.22-.5c-14.2-33.19-38.49-76.53-69.85-94.65-9.48-5.48-19.06-8.26-28.45-8.26s-19 2.78-28.45 8.26c-31.31 18.09-55.52 61.28-69.84 94.65l-.22.5-.54.06c-4.46.48-8.1.91-12.53 1.5l-1.6.21z" class="cls-5" fill="#56555c"/>
  <path id="path26" d="M328.818 232.25c-3.48-.09-7-.23-10.48-.43l-1.08-.06-.14-1.07c-3.09-24.4-10.15-53-19.87-80.42l-.71-2 2.11.28c4 .54 7.88 1.12 11.58 1.75l.76.13.25.73c9.33 27.41 16 55.69 18.89 79.64l.18 1.49z" class="cls-5" fill="#56555c"/>
  <path id="path28" d="M317.338 170.43c-1.88-6.43-3.91-12.87-6.09-19.27l-.25-.73-.76-.13c-3.7-.63-7.6-1.21-11.58-1.75l-2.11-.28.71 2c2.16 6.09 4.17 12.23 6.05 18.37 6.75.76 10.57 1.3 14.03 1.79z" class="cls-3" fill="#252526"/>
  <path id="path30" d="M68.518 230.24c2.85-24 9.56-52.24 18.89-79.64l.25-.73.76-.13c3.7-.62 7.59-1.21 11.58-1.75l2.11-.28-.71 2c-9.73 27.45-16.78 56-19.87 80.42l-.14 1.07-1.08.06c-3.48.2-7 .34-10.47.43h-1.5z" class="cls-5" fill="#56555c"/>
  <path id="path32" d="M88.428 149.73l-.76.13-.25.73c-2.18 6.41-4.22 12.87-6.1 19.31 6.53-.83 8.43-.73 13.88-1.31 1.92-6.31 4-12.63 6.21-18.88l.71-2-2.12.29c-4 .52-7.87 1.1-11.57 1.73z" class="cls-3" fill="#252526"/>
  <path id="path34" d="M198.898 394.25a140.34 140.34 0 01-130.57-88.88 142.07 142.07 0 01-9.59-57.12v-.88h.88c4.58-.1 7.71-.24 11-.41l1-.05v1a127.72 127.72 0 008.5 52.23 127.41 127.41 0 00210.69 42.06 126.21 126.21 0 0026.84-42 127.66 127.66 0 008.5-52.24v-1l1 .05c4.55.23 7.69.33 11 .41h.88v.88a142.09 142.09 0 01-9.59 57.07 140.19 140.19 0 01-130.54 88.88z" class="cls-5" fill="#56555c"/>
  <path id="path36" d="M71.998 264.28a138.12 138.12 0 01-.34-16.81v-1l-1 .05c-3.29.17-6.42.3-11 .41h-.88v.88a149.06 149.06 0 00.38 16.87h.42c4.23-.07 8.36-.19 12.28-.38z" class="cls-3" fill="#252526"/>
  <path id="path38" d="M338.998 247.37h-.88c-3.31-.08-6.45-.17-11-.41l-1-.05v1a138.07 138.07 0 01-.32 16.65l12.84.55a148.91 148.91 0 00.38-16.86z" class="cls-3" fill="#252526"/>
  <path id="path40" d="M346.248 250.67a305.5 305.5 0 01-79.48-10.24 191.73 191.73 0 01-32.49-11.81l-.26-.19c-21.85-10.47-22.71-31.49-20.68-50.63.51-4.83-1.25-11.24-6.36-14.63a14.46 14.46 0 00-16.06 0c-5.1 3.39-6.87 9.77-6.36 14.59 2 19.16 1.17 40.17-20.68 50.64l-.26.12a191.26 191.26 0 01-32.49 11.94 305.51 305.51 0 01-79.48 10.24h-.12a24.54 24.54 0 01-23.53-18.6c-4.11-16-9.65-40.14-10.29-62.72a22.29 22.29 0 0113.19-21.06c30.18-13.44 91.25-18.43 117.3-18.06 9.58.14 17.94 3.59 24.2 10a65 65 0 0126.6-6.15 65 65 0 0126.54 6.12c4.43-4.53 12.17-9.85 24.2-10 15.63-.22 82.88 2.68 117.3 18a22.18 22.18 0 0113.19 21c-.65 22.63-6.18 46.86-10.29 62.9a24.54 24.54 0 01-23.52 18.58zM252.938 150c-12.65.19-15.25 10.87-15.65 13a216.32 216.32 0 00-3.29 26.94c-.12 10.32 3.58 17.4 11 21 27.6 12.31 59.68 18.39 98.06 18.58a6.51 6.51 0 006.34-4.85c3.65-14.26 8.57-35.46 9.13-54.94a4.58 4.58 0 00-2.72-4.33c-26.33-11.7-82.43-15.72-102.87-15.4zm-210.84 15.44a4.58 4.58 0 00-2.72 4.33c.56 19.44 5.48 40.67 9.13 54.94a6.49 6.49 0 006.31 4.85c38.41-.19 70.51-6.28 98.13-18.6 7.39-3.6 11.08-10.69 11-21.05a214.6 214.6 0 00-3.3-26.9c-.39-2.14-3-12.82-15.65-13-12-.2-73.25 2.22-102.9 15.43z" class="cls-3" fill="#252526"/>
</svg>