<?xml version="1.0" encoding="UTF-8" standalone="no"?>
<svg
   xmlns:dc="http://purl.org/dc/elements/1.1/"
   xmlns:cc="http://creativecommons.org/ns#"
   xmlns:rdf="http://www.w3.org/1999/02/22-rdf-syntax-ns#"
   xmlns:svg="http://www.w3.org/2000/svg"
   xmlns="http://www.w3.org/2000/svg"
   version="1.1"
   viewBox="0 0 400 412.82"
   data-name="Layer 1"
   id="Layer_1">
  <metadata
     id="metadata45">
    <rdf:RDF>
      <cc:Work
         rdf:about="">
        <dc:format>image/svg+xml</dc:format>
        <dc:type
           rdf:resource="http://purl.org/dc/dcmitype/StillImage" />
        <dc:title>Artboard 23</dc:title>
      </cc:Work>
    </rdf:RDF>
  </metadata>
  <defs
     id="defs4">
    <style
       id="style2">.cls-1{fill:#fff;}.cls-2{fill:#fcfbfa;}.cls-3{fill:#252526;}.cls-4{fill:#e0e0e0;}.cls-5{fill:#56555c;}</style>
  </defs>
  <title
     id="title6">Artboard 23</title>
  <path
     id="path8"
     d="M 199.93819,412.82 A 160.34,160.34 0 0 1 50.748193,311.23 c -3,-7.62 -6.3,-15.51 -8.08,-23.63 l -1.8,-12.8 c -15.49,-6.28 -26.4,-20.94 -30.12,-35.46 C 6.2281933,221.66 0.6881933,195.63 -0.0018067,172 c -0.53,-18.77 10.3799997,-36.4 27.1699997,-43.87 11.67,-5.2 27.35,-9.55 46.73,-13 12,-26.560004 25.94,-49.750004 40.679997,-67.630004 26.02,-31.5 54.73,-47.4999998028164 85.36,-47.4999998028164 30.63,0 59.33,15.9999998028164 85.33,47.5199998028164 14.6,17.7 28.42,40.65 40.36,66.950004 19.38,3.31 35.21,7.67 47.19,13 a 45.67,45.67 0 0 1 27.18,43.19 c -0.78,27.25 -7.76,57.11 -10.73,68.68 -3.74,14.63 -14.79,29.41 -30.43,35.6 l -1.84,12.65 c -1.78,8.09 -4.88,16 -7.86,23.58 a 160.22,160.22 0 0 1 -149.2,101.65 z"
     class="cls-1"
     style="fill:#ffffff" />
  <path
     style="fill:#ff0000"
     id="path10"
     d="m 200.00319,30.1325 c 71.1,0 128.69,152.76 128.69,223.86 a 128.695,128.695 0 1 1 -257.389997,0 c 0,-71.1 57.619997,-223.86 128.699997,-223.86 z"
     class="cls-2" />
  <g
     transform="matrix(0.49952852,-0.49952852,0.49952852,0.49952852,-316.84909,524.0341)"
     id="g873">
    <rect
       style="opacity:1;fill:#ff0000;fill-opacity:1;fill-rule:nonzero;stroke:none;stroke-width:5;stroke-linecap:round;stroke-linejoin:round;stroke-miterlimit:4;stroke-dasharray:none;stroke-dashoffset:0;stroke-opacity:1"
       id="rect852"
       width="572.00061"
       height="69.96949"
       x="549.2605"
       y="-45.480171"
       ry="0" />
    <rect
       ry="0"
       y="24.489319"
       x="549.2605"
       height="69.96949"
       width="572.00061"
       id="rect854"
       style="opacity:1;fill:#ff6600;fill-opacity:1;fill-rule:nonzero;stroke:none;stroke-width:5;stroke-linecap:round;stroke-linejoin:round;stroke-miterlimit:4;stroke-dasharray:none;stroke-dashoffset:0;stroke-opacity:1" />
    <rect
       style="opacity:1;fill:#ffcc00;fill-opacity:1;fill-rule:nonzero;stroke:none;stroke-width:5;stroke-linecap:round;stroke-linejoin:round;stroke-miterlimit:4;stroke-dasharray:none;stroke-dashoffset:0;stroke-opacity:1"
       id="rect856"
       width="572.00061"
       height="69.96949"
       x="549.2605"
       y="94.458809"
       ry="0" />
    <rect
       ry="0"
       y="164.4283"
       x="549.2605"
       height="69.96949"
       width="572.00061"
       id="rect858"
       style="opacity:1;fill:#00ff00;fill-opacity:1;fill-rule:nonzero;stroke:none;stroke-width:5;stroke-linecap:round;stroke-linejoin:round;stroke-miterlimit:4;stroke-dasharray:none;stroke-dashoffset:0;stroke-opacity:1" />
    <rect
       style="opacity:1;fill:#00ffff;fill-opacity:1;fill-rule:nonzero;stroke:none;stroke-width:5;stroke-linecap:round;stroke-linejoin:round;stroke-miterlimit:4;stroke-dasharray:none;stroke-dashoffset:0;stroke-opacity:1"
       id="rect860"
       width="572.00061"
       height="69.96949"
       x="549.2605"
       y="234.3978"
       ry="0" />
    <rect
       ry="0"
       y="304.36728"
       x="549.2605"
       height="69.96949"
       width="572.00061"
       id="rect862"
       style="opacity:1;fill:#800080;fill-opacity:1;fill-rule:nonzero;stroke:none;stroke-width:5;stroke-linecap:round;stroke-linejoin:round;stroke-miterlimit:4;stroke-dasharray:none;stroke-dashoffset:0;stroke-opacity:1" />
    <rect
       style="opacity:1;fill:#ff00ff;fill-opacity:1;fill-rule:nonzero;stroke:none;stroke-width:5;stroke-linecap:round;stroke-linejoin:round;stroke-miterlimit:4;stroke-dasharray:none;stroke-dashoffset:0;stroke-opacity:1"
       id="rect864"
       width="572.00061"
       height="69.96949"
       x="549.2605"
       y="374.33676"
       ry="0" />
  </g>
  <path
     id="path12"
     d="m 362.07819,153.43 -52.5,18.52 c 0,0 8.13,24.71 8.2,24.88 0.07,0.17 52.29,-6.73 52.29,-6.73 z"
     class="cls-3"
     style="fill:#252526" />
  <path
     id="path14"
     d="m 35.708193,153.43 52.5,18.52 c 0,0 -8.13,24.71 -8.2,24.88 -0.07,0.17 -52.29,-6.73 -52.29,-6.73 z"
     class="cls-3"
     style="fill:#252526" />
  <path
     id="path16"
     d="m 144.86819,149.06 c 13.19,0.2 16.07,11.17 16.55,13.78 a 215.77,215.77 0 0 1 3.28,27.06 34.65,34.65 0 0 1 -0.69,7.57 c -0.66,-6.54 -1.59,-12.78 -2.59,-18.19 -0.48,-2.6 -3.36,-13.58 -16.55,-13.78 -8,-0.12 -33.55,0.8 -58.999997,4.48 1.84,-5.74 3.83,-11.51 6,-17.26 a 445.49,445.49 0 0 1 52.999997,-3.66 z"
     class="cls-4"
     style="fill:#e0e0e0" />
  <path
     id="path18"
     d="m 327.33819,248.28 c -46.35,-2.39 -85.94,-17.16 -94.88,-22.53 -7,-3.34 -15.85,-10.39 -18.41,-28 -1.71,19.45 2,37.18 20.22,45.93 1.35,0.81 36.32,18.12 92.74,21.08 0.29,-3.54 0.45,-7.11 0.45,-10.73 0.01,-1.89 -0.04,-3.8 -0.12,-5.75 z"
     class="cls-4"
     style="fill:#e0e0e0" />
  <path
     id="path20"
     d="m 70.578193,248.28 c 46.349997,-2.39 85.939997,-17.16 94.879997,-22.53 7,-3.34 15.85,-10.39 18.41,-28 1.71,19.45 -2,37.18 -20.22,45.93 -1.35,0.81 -36.32,18.12 -92.739997,21.08 -0.29,-3.54 -0.45,-7.11 -0.45,-10.73 -0.01,-1.89 0.04,-3.8 0.12,-5.75 z"
     class="cls-4"
     style="fill:#e0e0e0" />
  <path
     id="path22"
     d="m 252.77819,149.06 c -13.19,0.2 -16.07,11.17 -16.55,13.78 a 215.77,215.77 0 0 0 -3.23,27.05 34.65,34.65 0 0 0 0.69,7.57 c 0.66,-6.54 1.59,-12.78 2.59,-18.19 0.48,-2.6 3.36,-13.58 16.55,-13.78 8,-0.12 33.55,0.8 59,4.48 -1.84,-5.74 -3.83,-11.51 -6,-17.26 a 445.49,445.49 0 0 0 -53.05,-3.65 z"
     class="cls-4"
     style="fill:#e0e0e0" />
  <path
     id="path24"
     d="m 86.318193,135.13 c 12.68,-30.66 27.799997,-57.130004 43.869997,-76.650004 21.81,-26.48 44.95,-39.91 68.71,-39.91 23.76,0 46.86,13.42 68.7,39.9 16.09,19.51 31.26,46.000004 43.87,76.660004 l 0.62,1.49 -1.6,-0.21 c -4.45,-0.59 -8.09,-1 -12.53,-1.5 l -0.54,-0.06 -0.22,-0.5 c -14.2,-33.19 -38.49,-76.530004 -69.85,-94.650004 -9.48,-5.48 -19.06,-8.26 -28.45,-8.26 -9.39,0 -19,2.78 -28.45,8.26 -31.31,18.09 -55.52,61.280004 -69.84,94.650004 l -0.22,0.5 -0.539997,0.06 c -4.46,0.48 -8.1,0.91 -12.53,1.5 l -1.6,0.21 z"
     class="cls-5"
     style="fill:#56555c" />
  <path
     id="path26"
     d="m 328.81819,232.25 c -3.48,-0.09 -7,-0.23 -10.48,-0.43 l -1.08,-0.06 -0.14,-1.07 c -3.09,-24.4 -10.15,-53 -19.87,-80.42 l -0.71,-2 2.11,0.28 c 4,0.54 7.88,1.12 11.58,1.75 l 0.76,0.13 0.25,0.73 c 9.33,27.41 16,55.69 18.89,79.64 l 0.18,1.49 z"
     class="cls-5"
     style="fill:#56555c" />
  <path
     id="path28"
     d="m 317.33819,170.43 c -1.88,-6.43 -3.91,-12.87 -6.09,-19.27 l -0.25,-0.73 -0.76,-0.13 c -3.7,-0.63 -7.6,-1.21 -11.58,-1.75 l -2.11,-0.28 0.71,2 c 2.16,6.09 4.17,12.23 6.05,18.37 6.75,0.76 10.57,1.3 14.03,1.79 z"
     class="cls-3"
     style="fill:#252526" />
  <path
     id="path30"
     d="m 68.518193,230.24 c 2.85,-24 9.56,-52.24 18.89,-79.64 l 0.25,-0.73 0.76,-0.13 c 3.7,-0.62 7.59,-1.21 11.58,-1.75 l 2.109997,-0.28 -0.71,2 c -9.729997,27.45 -16.779997,56 -19.869997,80.42 l -0.14,1.07 -1.08,0.06 c -3.48,0.2 -7,0.34 -10.47,0.43 h -1.5 z"
     class="cls-5"
     style="fill:#56555c" />
  <path
     id="path32"
     d="m 88.428193,149.73 -0.76,0.13 -0.25,0.73 c -2.18,6.41 -4.22,12.87 -6.1,19.31 6.53,-0.83 8.43,-0.73 13.88,-1.31 1.92,-6.31 4,-12.63 6.209997,-18.88 l 0.71,-2 -2.119997,0.29 c -4,0.52 -7.87,1.1 -11.57,1.73 z"
     class="cls-3"
     style="fill:#252526" />
  <path
     id="path34"
     d="m 198.89819,394.25 a 140.34,140.34 0 0 1 -130.569997,-88.88 142.07,142.07 0 0 1 -9.59,-57.12 v -0.88 h 0.88 c 4.58,-0.1 7.71,-0.24 11,-0.41 l 1,-0.05 v 1 a 127.72,127.72 0 0 0 8.5,52.23 127.41,127.41 0 0 0 210.689997,42.06 126.21,126.21 0 0 0 26.84,-42 127.66,127.66 0 0 0 8.5,-52.24 v -1 l 1,0.05 c 4.55,0.23 7.69,0.33 11,0.41 h 0.88 v 0.88 a 142.09,142.09 0 0 1 -9.59,57.07 140.19,140.19 0 0 1 -130.54,88.88 z"
     class="cls-5"
     style="fill:#56555c" />
  <path
     id="path36"
     d="m 71.998193,264.28 a 138.12,138.12 0 0 1 -0.34,-16.81 v -1 l -1,0.05 c -3.29,0.17 -6.42,0.3 -11,0.41 h -0.88 v 0.88 a 149.06,149.06 0 0 0 0.38,16.87 h 0.42 c 4.23,-0.07 8.36,-0.19 12.28,-0.38 z"
     class="cls-3"
     style="fill:#252526" />
  <path
     id="path38"
     d="m 338.99819,247.37 h -0.88 c -3.31,-0.08 -6.45,-0.17 -11,-0.41 l -1,-0.05 v 1 a 138.07,138.07 0 0 1 -0.32,16.65 l 12.84,0.55 a 148.91,148.91 0 0 0 0.38,-16.86 z"
     class="cls-3"
     style="fill:#252526" />
  <path
     id="path40"
     d="m 346.24819,250.67 a 305.5,305.5 0 0 1 -79.48,-10.24 191.73,191.73 0 0 1 -32.49,-11.81 l -0.26,-0.19 c -21.85,-10.47 -22.71,-31.49 -20.68,-50.63 0.51,-4.83 -1.25,-11.24 -6.36,-14.63 a 14.46,14.46 0 0 0 -16.06,0 c -5.1,3.39 -6.87,9.77 -6.36,14.59 2,19.16 1.17,40.17 -20.68,50.64 l -0.26,0.12 a 191.26,191.26 0 0 1 -32.49,11.94 305.51,305.51 0 0 1 -79.479997,10.24 h -0.12 a 24.54,24.54 0 0 1 -23.53,-18.6 c -4.11,-16 -9.65,-40.14 -10.29,-62.72 a 22.29,22.29 0 0 1 13.19,-21.06 c 30.18,-13.44 91.249997,-18.43 117.299997,-18.06 9.58,0.14 17.94,3.59 24.2,10 a 65,65 0 0 1 26.6,-6.15 65,65 0 0 1 26.54,6.12 c 4.43,-4.53 12.17,-9.85 24.2,-10 15.63,-0.22 82.88,2.68 117.3,18 a 22.18,22.18 0 0 1 13.19,21 c -0.65,22.63 -6.18,46.86 -10.29,62.9 a 24.54,24.54 0 0 1 -23.52,18.58 z M 252.93819,150 c -12.65,0.19 -15.25,10.87 -15.65,13 a 216.32,216.32 0 0 0 -3.29,26.94 c -0.12,10.32 3.58,17.4 11,21 27.6,12.31 59.68,18.39 98.06,18.58 a 6.51,6.51 0 0 0 6.34,-4.85 c 3.65,-14.26 8.57,-35.46 9.13,-54.94 a 4.58,4.58 0 0 0 -2.72,-4.33 c -26.33,-11.7 -82.43,-15.72 -102.87,-15.4 z M 42.098193,165.44 a 4.58,4.58 0 0 0 -2.72,4.33 c 0.56,19.44 5.48,40.67 9.13,54.94 a 6.49,6.49 0 0 0 6.31,4.85 c 38.41,-0.19 70.509997,-6.28 98.129997,-18.6 7.39,-3.6 11.08,-10.69 11,-21.05 a 214.6,214.6 0 0 0 -3.3,-26.9 c -0.39,-2.14 -3,-12.82 -15.65,-13 -12,-0.2 -73.249997,2.22 -102.899997,15.43 z"
     class="cls-3"
     style="fill:#252526" />
</svg>
