
Open SVG
Paste markup
Demo
Contribute
About
Powered by the incredible SVGO


13.59k → 7.31k 53.81%
<svg xmlns="http://www.w3.org/2000/svg" viewBox="0 0 184.15 266.7">
  <g transform="translate(3019.78 -3032.187)">
    <rect width="570.62" height="2198.292" x="-187.089" y="502.798" ry="4.076" fill="#ff7f2a"/>
    <path d="M277.195-922.196c-148.287-.033-393.054.478-826.205 2.113V29.109c0 251.742 132.758 493.173 369.068 671.181C-92.257 766.342 7.023 821.65 114.291 865.097v1483.7h1856.855V-45.628l-.137-.002c-4.729-244.64-136.916-421.669-368.932-596.441-236.31-178.009-556.816-278.012-891.01-278.012-219.314 0-150.778-2.049-433.872-2.113z" fill="#d45500"/>
    <path d="M942.666-4152.819c-349.022-129.131-998.56 968.79-998.56 968.79l259.889 872.993 744.217-217.292s402.945-1473.356-5.546-1624.49z" fill="#f60"/>
    <path d="M794.746-4146.567c52.944-19.154 102.928-22.897 147.92-6.251a184.524 184.524 0 0134.977 17.346c211.678 369.11-104.471 1525.112-104.471 1525.112l-697.646 203.695-231.42-777.364s492.872-833.107 850.64-962.538z" fill="#f60"/>
    <path d="M111.741-3238.47s385.235-651.166 664.871-752.33c41.381-14.971 80.45-17.898 115.616-4.887a144.23 144.23 0 0127.339 13.558" fill="none" stroke="#000" stroke-width="52.917" stroke-linecap="round" stroke-linejoin="round"/>
    <path d="M-2586.302-3516.307c285.063-239.23 1266.693 575.468 1266.693 575.468l49.609 909.506-773.906 46.302s-876.03-1251.285-542.396-1531.276z" fill="#f95"/>
    <path d="M-2444.933-3560.285c-56.302-.186-104.623 13.14-141.37 43.978a184.518 184.518 0 00-27.082 28.122c-74.86 418.863 612.474 1400.628 612.474 1400.628l725.477-43.405-44.175-809.876s-744.865-618.197-1125.324-619.447z" fill="#f60"/>
    <path d="M-1495.785-2935.582s-582.196-483.19-879.567-484.168c-44.006-.144-81.774 10.27-110.495 34.374a144.225 144.225 0 00-21.169 21.98" fill="none" stroke="#000" stroke-width="52.917" stroke-linecap="round" stroke-linejoin="round"/>
    <ellipse transform="rotate(-9.177)" ry="1389.063" rx="1686.719" cy="-1858.643" cx="-188.945" fill="#f95"/>
    <path d="M-369.284-3202.108c-111.823-.586-224.125 8.161-335.226 26.111-558.354 90.572-1072.48 379.866-1318.587 813.19-96.442 205.782-123.006 421.07-88.725 631.699 63.616 382.623 364.175 749.521 747.253 966.999C-981.49-546.632-497.665-466.624-19.527-541.687c120.774-19.485 239.562-48.637 354.57-87.014 294.178-151.23 532.25-369.878 683.312-627.56 151.06-257.684 208.133-542.5 163.807-817.473-51.117-316.394-233.515-601.59-516.274-807.242-282.76-205.653-648.482-319.108-1035.172-321.132z" fill="#f60"/>
    <circle r="158.75" cy="-1819.667" cx="-1574.271"/>
    <circle cx="449.792" cy="-2295.917" r="158.75"/>
    <ellipse transform="rotate(-10.814)" ry="476.25" rx="701.146" cy="-1352.557" cx="-132.228" fill="#fff"/>
    <ellipse transform="rotate(-7.324)" ry="126.285" rx="164.719" cy="-1516.225" cx="-257.838" fill="#faa"/>
    <path d="M-486.983-1095.73s20.339-114.213 101.696-123.6c81.356-9.388 240.941 42.243 280.055-3.13" fill="none" stroke="#000" stroke-width="53.103" stroke-linecap="round"/>
    <path d="M1098.02-1978.417s787.136-291.041 1088.1-264.583" fill="none" stroke="#000" stroke-width="79.375" stroke-linecap="round"/>
    <path d="M1107.943-1707.219s668.073-175.286 1071.562-85.99" fill="none" stroke="#000" stroke-width="79.375" stroke-linecap="round"/>
    <path d="M1051.719-1452.557s608.541-92.604 1038.49 85.99" fill="none" stroke="#000" stroke-width="79.375" stroke-linecap="round"/>
    <path d="M-1961.735-1216.175s-796.49-33.795-1017.94 170.398" fill="none" stroke="#000" stroke-width="79.375" stroke-linecap="round"/>
    <path d="M-1835.45-1010.377s-740.364 12.977-980.523 324.746" fill="none" stroke="#000" stroke-width="79.375" stroke-linecap="round"/>
    <path d="M-1643.685-809.257s-731.008 162.648-933.75 446.354" fill="none" stroke="#000" stroke-width="79.375" stroke-linecap="round"/>
    <path d="M594.007 2439.165V848.912S874.64 652.468 944.797 67.816" fill="none" stroke="#803300" stroke-width="79.375" stroke-linecap="round"/>
    <path d="M2039.236 2322.463c-47.766 153.037-257.917 194.438-403.247 262.123-250.985 116.893-536.856 140.767-794.654 241.751-206.379 80.843-293.318 179.626-598.35 290.05-308.258 111.59-524.084 118.82-637.084 116.756-496.824-9.074-452.885 106.835-669.24 49.98-175.005-45.99-275.757-199.773-451.522-301.336-316.86-192.004-868.27-196.791-859.764-534.062 8.649-342.945 557.847-515.063 900.491-498.29 316.035 15.472 250.825 503.422 781.7 538.521 379.066 25.063 456.81 4.698 772.756-271.086 297.505-259.688 933.938 223.705 1304.124 86.192 174.072-64.662 350.3-337.191 537.433-266.658 96.442 36.351 148.065 187.675 117.357 286.06z" fill="#a40"/>
    <path d="M-535.781-258.568c219.833 78.46 431.052 59.297 707.6-17.972 200.291-56.356 384.628-150.323 527.598-268.948 142.97-118.624 220.998-199.84 254.12-337.15" fill="none" stroke="red" stroke-width="132.292" stroke-linecap="round" stroke-linejoin="round"/>
  </g>
  <g transform="translate(3019.78 -3032.187)">
    <g transform="matrix(1.62153 0 0 1.62153 250.249 -279.964)">
      <circle r="35.814" cy="59.13" cx="-127.756" fill="none" stroke="#fc0" stroke-width="13.229" stroke-linecap="round" stroke-linejoin="round"/>
      <circle r="161.774" cy="262.982" cx="-127.756" fill="red" stroke="#fc0" stroke-width="7.938" stroke-linecap="square" stroke-linejoin="round"/>
      <circle r="20.411" cy="447.813" cx="-127.756" fill="#fc0"/>
      <rect ry="8.315" y="422.11" x="-160.64" height="16.631" width="65.768" fill="#fc0"/>
      <circle cx="-27.214" cy="309.095" r="30.238" fill="#450" paint-order="markers stroke fill"/>
      <path d="M-287.392 238.036a161.774 161.774 0 00-2.138 24.946 161.774 161.774 0 002.045 24.947H31.88a161.774 161.774 0 002.138-24.947 161.774 161.774 0 00-2.044-24.946z" fill="#fc0"/>
      <rect ry="8.062" y="99.696" x="-145.143" height="337.155" width="34.774" fill="#fc0"/>
      <circle r="27.97" cy="216.869" cx="-205.997" fill="#450" paint-order="markers stroke fill"/>
      <path d="M-285.614 238.036a267.764 161.774 0 00-3.537 24.946 267.764 161.774 0 003.383 24.947h141.76v-49.893z" fill="#fff6d5"/>
      <path d="M-250.064 196.373a139.27 139.27 0 013.761-6.484" fill="#fff6d5" stroke="#fff6d5" stroke-width="15.875" stroke-linecap="round" stroke-linejoin="round"/>
      <path d="M-233.4 172.234a139.27 139.27 0 0169.5-43.75" fill="none" stroke="#fff6d5" stroke-width="15.875" stroke-linecap="round" stroke-linejoin="round"/>
      <path d="M-127.756 427.402a20.41 20.41 0 00-20.41 20.41 20.41 20.41 0 0020.41 20.411 20.41 20.41 0 004.764-.587 20.41 20.41 0 01-15.65-19.824 20.41 20.41 0 0115.648-19.823 20.41 20.41 0 00-4.762-.587z" fill="#fff6d5"/>
      <rect width="41.714" height="16.631" x="-160.64" y="422.11" ry="8.315" fill="#fff6d5"/>
      <path d="M-124.048 424.713A161.774 161.774 0 01-267.42 344.62a161.774 161.774 0 01.56-164.226 161.774 161.774 0 01143.917-79.113" fill="none" stroke="#fff6d5" stroke-width="7.938" stroke-linecap="round" stroke-linejoin="round"/>
      <path d="M-8.516 262.982a119.24 162.33 0 01-98.662 159.894" fill="none" stroke="#fc0" stroke-width="7.938" stroke-linecap="square" stroke-linejoin="round"/>
      <circle r="31.372" cy="351.429" cx="-206.375" fill="#450" paint-order="markers stroke fill"/>
      <path d="M-123.159 425.19a119.24 162.33 0 01-87.285-45.25 119.24 162.33 0 01-36.552-117.012" fill="none" stroke="#fff6d5" stroke-width="7.938" stroke-linecap="square" stroke-linejoin="round"/>
      <circle r="14.363" cy="379.777" cx="-71.437" fill="#450" paint-order="markers stroke fill"/>
      <path d="M-61.74 257.298a66.056 163.195 0 01-50.167 164.113" fill="none" stroke="#fc0" stroke-width="7.938" stroke-linecap="square" stroke-linejoin="round"/>
      <path d="M-123.292 425.804a66.056 163.195 0 01-49.398-43.203 66.056 163.195 0 01-21.12-118.485" fill="none" stroke="#fff6d5" stroke-width="7.938" stroke-linecap="square" stroke-linejoin="round"/>
      <rect width="65.768" height="16.631" x="-160.64" y="88.017" ry="8.315" fill="#fc0"/>
      <rect width="26.756" height="347.36" x="-145.143" y="89.491" ry="8.306" fill="#fff6d5"/>
      <rect ry="8.315" y="88.017" x="-160.64" height="16.631" width="41.955" fill="#fff6d5"/>
      <circle cx="-75.973" cy="167.732" r="21.923" fill="#450" paint-order="markers stroke fill"/>
      <path d="M-126.49 94.922a35.814 35.814 0 01-31.843-17.145 35.814 35.814 0 01-.664-36.159 35.814 35.814 0 0131.193-18.302" fill="none" stroke="#fff6d5" stroke-width="13.229" stroke-linecap="round" stroke-linejoin="round"/>
      <circle r="14.363" cy="211.577" cx="-13.229" fill="#450" paint-order="markers stroke fill"/>
      <circle cx="-66.977" cy="221.288" r="7.259" fill="#450" paint-order="markers stroke fill"/>
      <circle r="7.259" cy="181.51" cx="-29.67" fill="#450" paint-order="markers stroke fill"/>
      <circle cx="-95.966" cy="200.782" r="7.259" fill="#450" paint-order="markers stroke fill"/>
    </g>
    <rect width="44.648" height="88.47" x="62.443" y="-272.723" ry="21.439" transform="rotate(-11.573)" fill="#fc0"/>
  </g>
  <g transform="translate(3019.78 -3032.187)">
    <g transform="matrix(.18223 0 0 .18223 125.384 39.55)">
      <ellipse transform="rotate(32.471)" ry=".869" rx="1.069" cy="-51.885" cx="121.975" fill="#f60"/>
      <path d="M171.583 33.389c-.209-1.08-.082-2.312.463-3.267.093-.163.256-.31.438-.35 4.49-1.015 8.953 2.146 13.446 3.145 6.771 1.505 12.624 4.546 20.363 4.291 3.45-.113 12.275 1.308 11.7 3.924-.627 2.847-9.95 4.816-14.535 5.37-12.488 1.508-17.831-1.61-28.204-8.733-1.232-.846-4.532-2.68-3.671-4.38z" fill="#338000"/>
      <path d="M173.965 29.582a5.24 5.24 0 00-.044 2.178c-.86 1.7 2.439 3.534 3.671 4.38 10.373 7.123 15.717 10.242 28.204 8.734 3.153-.381 8.544-1.431 11.81-2.975.195-.248.328-.503.386-.767.575-2.616-8.25-4.038-11.7-3.924-7.738.255-13.59-2.785-20.362-4.29-4-.89-7.974-3.49-11.965-3.336z" fill="#112b00"/>
      <path d="M156.867 30.138l5.476-.034c.201 0 .417-.139.54-.014 0 0 3.836 9.792 12.94 13.213 4.434 1.666 11.04 3.72 10.106 7.23-.858 3.226-7.711 3.208-11.89 3.142-3.743-.06-7.444-1.44-10.496-3.147-3.77-2.11-7.048-4.997-8.932-8.366-2.74-4.899 2.055-12.023 2.256-12.024z" fill="#cf0"/>
      <path d="M162.897 30.124l-2.326.014c-.2.001-4.995 7.125-2.255 12.024 1.883 3.368 5.161 6.256 8.931 8.366 2.99 1.673 6.6 3.027 10.264 3.138 3.738-.116 7.772-.708 8.418-3.133.934-3.51-5.672-5.564-10.106-7.23-9.017-3.388-12.853-12.994-12.926-13.18z" fill="#250"/>
      <rect ry="5.386" y="8.793" x="145.615" height="10.772" width="44.696" fill="#999"/>
      <path d="M121.346 23.406c-5.815-.307-10.316 3.253-10.905 9.045-.568 5.589 2.693 8.438 12.859 7.279 4.241-.484 5.285-2.343 10.57-.18 1.118.53 5.579 2.886 10.386 1.948 3.337-.652 3.216-6.135 3.216-6.135.394-1.082-8.358-1.273-9.5-1.424-3.027-.407-3.308-2.229-4.13-3.693-2.138-3.81-6.808-6.54-12.496-6.84z" fill="#aad400"/>
      <path d="M121.463 23.414c-5.09.316-8.897 3.744-9.435 9.037-.465 4.578 1.642 7.316 8.005 7.52 1-.028 2.085-.106 3.267-.241 3.08-.351 4.476-1.427 7.033-1.161 1.312-.142 2.812.035 5.124.982.87.411 3.76 1.927 7.264 2.14a11.77 11.77 0 001.535-.193c3.337-.652 3.216-6.135 3.216-6.135.394-1.083-8.358-1.272-9.5-1.424-3.027-.406-3.308-2.229-4.13-3.693-2.123-3.783-6.744-6.5-12.38-6.832z" fill="#4a0"/>
      <path d="M170.376 21.17c-16.601.017-31.276 2.033-33.844 16.508 9.265 3.782 21.073 6.36 33.288 6.364 12.228-.01 24.043-2.6 33.303-6.395-2.584-14.468-16.152-16.469-32.747-16.478z" fill="#c87137"/>
      <path d="M143.05 26.463l5.476-.043c.2-.001.416-.176.54-.017 0 0 3.835 12.419 12.94 16.758 4.434 2.113 11.04 4.719 10.105 9.17-.858 4.092-7.71 4.069-11.89 3.985-3.742-.075-7.443-1.825-10.495-3.991-3.77-2.676-7.048-6.338-8.932-10.611-2.74-6.214 2.055-15.25 2.256-15.251z" fill="#250"/>
      <path d="M149.08 26.445l-2.326.018c-.201.001-4.995 9.037-2.256 15.25 1.884 4.273 5.162 7.936 8.932 10.612 2.989 2.121 6.6 3.84 10.263 3.98 3.739-.147 7.773-.897 8.418-3.973.934-4.452-5.671-7.058-10.105-9.17-9.017-4.298-12.853-16.482-12.927-16.717z" fill="#0ff"/>
      <path d="M169.82 15.24c-16.601.016-30.72 9.14-33.288 21.512 9.265 3.233 21.073 3.314 33.288 3.317 12.228-.009 24.043-.1 33.303-3.343-2.584-12.366-16.708-21.478-33.303-21.486z" fill="#f0f"/>
      <path d="M212.281 27.664c-.914 1.398-2.332 2.63-4.037 3.506-3.747 1.919-8.109 1.762-10.404-.374.023 1.952-1.465 3.056-.142 4.056 2.829 2.129 9.68 1.32 12.538-2.48 1.075-1.431 1.79-3.078 2.045-4.708z" fill="#4a0"/>
      <path d="M211.872 29.29c-.905 1.163-2.159 2.183-3.628 2.939-3.747 1.918-8.109 1.761-10.404-.375.012 1.026-.39 1.817-.586 2.482.084.177.222.348.443.516 2.83 2.129 9.68 1.32 12.54-2.48a11.145 11.145 0 001.635-3.081z" fill="#0ff"/>
      <path d="M171.319 30.64c.04-1.099.442-2.27 1.19-3.078.126-.137.318-.243.505-.242 4.603.025 8.236 4.113 12.388 6.101 6.257 2.996 11.272 7.28 18.868 8.779 3.386.668 11.662 4.046 10.51 6.465-1.252 2.631-10.778 2.445-15.37 1.948-12.506-1.35-17.008-5.595-25.504-14.876-1.01-1.103-3.809-3.635-2.587-5.096z" fill="#338000"/>
      <path d="M174.499 27.47a5.24 5.24 0 00-.534 2.112c-1.222 1.462 1.578 3.993 2.587 5.096 8.496 9.281 12.997 13.526 25.503 14.877 3.157.341 8.646.536 12.176-.23.247-.198.434-.417.55-.66 1.151-2.419-7.125-5.797-10.511-6.466-7.596-1.499-12.611-5.782-18.868-8.778-3.695-1.769-6.98-5.2-10.903-5.95z" fill="#112b00"/>
      <path d="M169.82 15.24a44.803 44.803 0 00-4.07.194c-13.686 2.047-24.652 10.722-27.034 22.008 8.901 2.553 19.828 2.624 31.104 2.627 12.228-.01 24.043-.1 33.303-3.343-2.584-12.366-16.708-21.478-33.303-21.486z" fill="purple"/>
      <path d="M152.06 9.852a5.375 5.375 0 00-5.386 5.386c0 1.22.407 2.34 1.086 3.241a5.364 5.364 0 003.242 1.087h33.923a5.375 5.375 0 005.386-5.387c0-1.22-.407-2.34-1.086-3.241a5.363 5.363 0 00-3.242-1.086z" fill="#333"/>
      <path d="M150.482 8.818a5.373 5.373 0 00-4.867 5.361 5.373 5.373 0 004.867 5.361 5.373 5.373 0 004.866-5.36 5.373 5.373 0 00-4.866-5.362z" fill="#666"/>
      <circle r="1.471" cy="14.179" cx="150.482" fill="#f95"/>
      <path d="M130.638 21.503s-4.348-8.672 2.693-9.214c6.142-.472.73 5.334 8.505 5.198 5.386-.095 5.338-7.276 8.457-3.402" fill="none" stroke="#000" stroke-width="1.323" stroke-linecap="round"/>
      <circle r="2.224" cy="29.56" cx="120.496"/>
      <circle cx="116.007" cy="38.516" r=".244"/>
      <path d="M125.106 32.944c-.354-.021-.466 1.49-.97 2.763-.594 1.5-3.956 3.281-5.758 4.263.345.012.704.015 1.074.012 1.781-.781 4.122-2.14 5.016-3.863.507-.977.977-3.154.638-3.175z"/>
      <g>
        <ellipse ry="1.075" rx="1.217" cy="21.751" cx="130.744" fill="#f60"/>
        <circle cx="121.094" cy="31.235" r="15.781" opacity=".36" fill="#80e5ff"/>
        <path d="M107.958 27.34a13.702 13.702 0 0110.434-9.537" opacity=".36" fill="none" stroke="#fff" stroke-width="1.109" stroke-linecap="round" stroke-linejoin="round"/>
        <path d="M107.688 34.064a13.702 13.702 0 01-.226-4.208" opacity=".36" fill="none" stroke="#fff" stroke-width="1.109" stroke-linecap="round" stroke-linejoin="round"/>
      </g>
      <path d="M138.716 37.442c9.265 3.782 18.89 3.12 31.104 3.124 12.228-.01 24.043-.117 33.303-3.912" fill="purple" stroke="#ff0" stroke-width="2.499" stroke-linecap="round" stroke-linejoin="round"/>
      <path d="M180.36 21.144a13.607 13.607 0 01-18.673.196" fill="none" stroke="#ff0" stroke-width="1.323" stroke-linecap="round" stroke-linejoin="round"/>
      <path d="M160.923 24.952l-5.244 5.244" fill="#ff0" stroke="#ff0" stroke-width="1.323" stroke-linecap="round"/>
      <path d="M180.55 24.952l5.244 5.244" fill="#ff0" stroke="#ff0" stroke-width="1.323" stroke-linecap="round"/>
      <g fill="none" stroke="#000" stroke-width="3.579">
        <path d="M138.406 28.696a17.498 17.498 0 01-3.332 13.062" stroke="#333" stroke-linecap="square" stroke-linejoin="round" stroke-width="3.9684309900000003"/>
      </g>
    </g>
    <path class="star" d="M138.613 46.453l-.702-.308-.65.405.074-.763-.585-.494.748-.165.29-.71.387.662.764.056-.509.572z" fill="#fc0"/>
    <circle class="blob" cx="137.844" cy="45.484" r="1.002" fill="green"/>
    <g class="" transform="translate(157.775 36.725) scale(.00615)">
      <path d="M242.822 893.869c0 61.251-36.059 106.284-94.208 106.284-54.326 0-91.436-45.033-91.436-106.284 0-61.252 37.668-85.951 90.973-85.951 53.306 0 94.67 24.699 94.67 85.95z" fill="#803300"/>
      <path d="M211.925 958.105c0 19.907-28.6 38.819-63.311 38.819s-60.54-18.912-60.54-38.82c0-19.907 26.29-33.273 61.002-33.273 34.71 0 62.85 13.366 62.85 33.274z" fill="#e9c6af"/>
      <path d="M181.194 931.763c0 7.657-19.04 24.493-30.27 24.493s-32.118-16.836-32.118-24.493 20.24-12.477 31.47-12.477 30.918 4.82 30.918 12.477z"/>
      <ellipse ry="23.111" rx="23.762" cy="827.682" cx="68.304" fill="#803300"/>
      <path d="M84.784 826.317a16.549 16.095 0 00-16.48-14.731 16.549 16.095 0 00-16.548 16.095 16.549 16.095 0 0016.548 16.096 16.549 16.095 0 001.132-.039c.815-1.337 1.582-2.727 2.471-3.983a65.703 65.703 0 015.055-6.283 65.597 65.597 0 015.713-5.548c.668-.576 1.417-1.058 2.109-1.607z" fill="#e9c6af"/>
      <ellipse transform="scale(-1 1)" cx="-231.243" cy="827.682" rx="23.762" ry="23.111" fill="#803300"/>
      <path d="M214.764 826.317a16.549 16.095 0 0116.48-14.731 16.549 16.095 0 0116.548 16.095 16.549 16.095 0 01-16.549 16.096 16.549 16.095 0 01-1.131-.039c-.816-1.337-1.582-2.727-2.472-3.983a65.703 65.703 0 00-5.055-6.283 65.597 65.597 0 00-5.712-5.548c-.67-.576-1.418-1.058-2.11-1.607z" fill="#e9c6af"/>
      <path d="M147.731 815.358c-13.396 0-26.022 1.079-37.671 3.334v11.353c11.649-2.255 24.275-3.334 37.671-3.334 15.104 0 29.459 1.373 42.667 4.256v-11.355c-13.208-2.883-27.564-4.254-42.667-4.254z" fill="red"/>
      <path d="M165.195 816.013a15.875 7.813 0 014.43 5.412 15.875 7.813 0 01-5.414 5.863c9.116.653 17.878 1.866 26.186 3.68v-11.356c-8.007-1.748-16.44-2.931-25.202-3.6z" fill="#e50000"/>
      <path d="M148.06 789.038c-43.49 0-75.872 19.481-83.284 63.857 12.322-10.516 27.906-18.695 45.285-22.652 0 0-2.446-12.499 10.25-16.029 14.513-4.035 18.403-3.943 27.749-4 10.2-.061 15.075-.07 30.338 4 14.187 3.784 12 17.113 12 17.113 17.218 4.421 31.846 10.722 44.264 21.568-7.277-46.03-42.375-63.857-86.602-63.857z" fill="#1a1a1a"/>
      <circle r="11.185" cy="894.081" cx="97.242" fill="#faa" fill-opacity=".577"/>
      <circle r="11.185" cx="201.851" cy="894.081" fill="#faa" fill-opacity=".577"/>
      <path d="M96.601 864.041a21.271 21.271 0 01-6.78 15.572 21.271 21.271 0 01-16.02 5.644" fill="none" stroke="#e9afaf" stroke-width="2.983" stroke-linecap="round" stroke-linejoin="round"/>
      <path d="M203.53 864.041a21.271 21.271 0 006.78 15.572 21.271 21.271 0 0016.02 5.644" fill="none" stroke="#e9afaf" stroke-width="2.983" stroke-linecap="round" stroke-linejoin="round"/>
      <g>
        <path d="M77.29 854.608c-6.508-.07-13.363.182-22.8 2.131l-14.318 2.769 2.308 15.038c2.094.293 4.984 1.016 6.352 2.848 3.528 4.722 1.202 9.286 2.003 17.625 2.67 27.781 11.92 33.596 26.247 35.267 7.502.875 22.816 2.282 33.28-1.433 9.456-3.357 18.223-9.868 24.158-17.96 6.274-8.553 6.948-18.235 10.843-25.726 2.76-5.308 7.7-4.176 9.258 0 2.951 7.91 4.379 17.173 10.653 25.726 5.935 8.092 14.702 14.603 24.159 17.96 10.463 3.715 25.777 2.308 33.279 1.433 14.326-1.671 23.578-7.486 26.249-35.267.801-8.339-1.525-12.903 2.003-17.625 1.414-1.893 4.463-2.611 6.567-2.885l2.297-14.962-14.522-2.808c-15.1-3.12-23.591-1.89-34.623-1.957-4.093-.025-8.777.115-13.136.573-8.125.855-16.176 2.382-24.174 4.05-7.988 1.665-14.94 6.1-23.098 5.942-7.869-.153-15.615-4.977-23.313-6.616-8.132-1.732-14.824-3.106-24.713-3.376-4.794-.13-9.043-.598-13.136-.573-4.137.026-7.918-.132-11.823-.174z"/>
        <path d="M85.28 860.471c-10.088.168-24.807.706-28.48 12.251-3.277 15.249-3.122 32.76 5.735 45.627 7.396 10.745 23.365 8.637 35.258 8.22 18.899-.663 35.138-15.383 40.158-33.389 1.93-7.753 4.168-13.928.696-19.382-5.946-9.34-20.099-11.778-30.58-12.967a443.553 443.553 0 00-22.787-.36z" fill="#333"/>
        <path d="M56.04 864.299a4.079 1.692 0 01-4.058 1.692 4.079 1.692 0 01-4.1-1.675 4.079 1.692 0 014.017-1.71 4.079 1.692 0 014.14 1.658" fill="#b3b3b3"/>
        <path d="M214.515 860.471c10.088.168 24.807.706 28.481 12.251 3.276 15.249 3.12 32.76-5.736 45.627-7.396 10.745-23.365 8.637-35.257 8.22-18.9-.663-35.139-15.383-40.16-33.389-1.928-7.753-4.167-13.928-.695-19.382 5.946-9.34 20.1-11.778 30.58-12.967a443.553 443.553 0 0122.787-.36z" fill="#333"/>
        <path d="M243.755 864.299a4.079 1.692 0 004.058 1.692 4.079 1.692 0 004.1-1.675 4.079 1.692 0 00-4.017-1.71 4.079 1.692 0 00-4.14 1.658" fill="#b3b3b3"/>
        <path d="M100.812 860.598l-19.186 66.305c5.85.159 11.675-.045 16.894-.378l18.586-64.222c-5.549-1.363-11.032-1.57-16.294-1.705z" fill="#fff"/>
        <path d="M89.154 860.456c-1.292.002-2.586 0-3.875.014-1.081.018-2.235.05-3.403.09l-17.662 59.853c1.729 1.827 3.77 3.172 6.025 4.148z" fill="#fff"/>
      </g>
    </g>
  </g>
</svg>