<svg class="eggo" xmlns="http://www.w3.org/2000/svg" xmlns:xlink="http://www.w3.org/1999/xlink" version="1.1" data-name="Layer 1" id="Layer_1" viewBox="0 0 386.802 375.68">
  <defs>
    <clipPath id="lensLeft">
      <path d="M182.39 769.633c-8.598.142-21.143.601-24.274 10.44-2.792 12.997-2.66 27.922 4.889 38.888 6.303 9.157 19.913 7.36 30.049 7.005 16.107-.565 29.947-13.11 34.226-28.457 1.644-6.607 3.552-11.87.593-16.518-5.067-7.96-17.13-10.039-26.063-11.052a378.03 378.03 0 00-19.42-.306z" id="path4694" fill="#333" stroke-width="8" stroke-linecap="square"/>
    </clipPath>
    <clipPath id="lensRight">
      <path id="path4810" d="M292.534 769.633c8.598.142 21.142.601 24.273 10.44 2.792 12.997 2.66 27.922-4.888 38.888-6.304 9.157-19.914 7.36-30.05 7.005-16.107-.565-29.947-13.11-34.226-28.457-1.644-6.607-3.552-11.87-.593-16.518 5.068-7.96 17.13-10.039 26.063-11.052a378.03 378.03 0 0119.42-.306z" fill="#333" stroke-width="8" stroke-linecap="square"/>
    </clipPath>
    <g id="shimmer">
      <g transform="rotate(15 66.758 810.754)" fill="white" fill-rule="nonzero" stroke-linecap="round" stroke-dashoffset="0" opacity="0.75">
        <rect ry="0" y="718.406" x="173.242" height="95.878" width="16.297" id="rect1038" stroke-width="2.42"/>
        <rect id="rect1040" width="9.101" height="95.878" x="160.039" y="718.406" ry="0" stroke-width="1.808"/>
      </g>
    </g>
  </defs>
  <path d="M193.385 10.255c71.1 0 128.69 152.76 128.69 223.86a128.695 128.695 0 11-257.39 0c0-71.1 57.62-223.86 128.7-223.86z" id="path1380" fill="#fff"/>
  <path id="path24" d="M80.816 116.56c12.68-30.66 27.8-57.13 43.87-76.65C146.496 13.43 169.636 0 193.396 0c23.76 0 46.86 13.42 68.7 39.9 16.09 19.51 31.26 46 43.87 76.66l.62 1.49-1.6-.21c-4.45-.59-8.09-1-12.53-1.5l-.54-.06-.22-.5c-14.2-33.19-38.49-76.53-69.85-94.65-9.48-5.48-19.06-8.26-28.45-8.26s-19 2.78-28.45 8.26c-31.31 18.09-55.52 61.28-69.84 94.65l-.22.5-.54.06c-4.46.48-8.1.91-12.53 1.5l-1.6.21z" class="cls-5" fill="#56555c"/>
  <path id="path26" d="M323.316 213.68c-3.48-.09-7-.23-10.48-.43l-1.08-.06-.14-1.07c-3.09-24.4-10.15-53-19.87-80.42l-.71-2 2.11.28c4 .54 7.88 1.12 11.58 1.75l.76.13.25.73c9.33 27.41 16 55.69 18.89 79.64l.18 1.49z" class="cls-5" fill="#56555c"/>
  <path id="path30" d="M63.016 211.67c2.85-24 9.56-52.24 18.89-79.64l.25-.73.76-.13c3.7-.62 7.59-1.21 11.58-1.75l2.11-.28-.71 2c-9.73 27.45-16.78 56-19.87 80.42l-.14 1.07-1.08.06c-3.48.2-7 .34-10.47.43h-1.5z" class="cls-5" fill="#56555c"/>
  <path id="path34" d="M193.396 375.68a140.34 140.34 0 01-130.57-88.88 142.07 142.07 0 01-9.59-57.12v-.88h.88c4.58-.1 7.71-.24 11-.41l1-.05v1a127.72 127.72 0 008.5 52.23 127.41 127.41 0 00210.69 42.06 126.21 126.21 0 0026.84-42 127.66 127.66 0 008.5-52.24v-1l1 .05c4.55.23 7.69.33 11 .41h.88v.88a142.09 142.09 0 01-9.59 57.07 140.19 140.19 0 01-130.54 88.88z" class="cls-5" fill="#56555c"/>
  <g id="g1016" transform="matrix(2.06617 0 0 2.06617 -292.606 -1346.86)">
    <g id="g1014" fill="#000" fill-opacity="1" stroke="none" stroke-linecap="square" stroke-linejoin="round" stroke-miterlimit="4" stroke-dasharray="none" stroke-opacity="1">
      <path d="M167.38 763.09l.142 7.659 5.552 1.027c6.33 1.171 19.446 1.945 28.364-1.22 8.06-2.862 15.875-8.172 20.59-15.307 7.254-10.98 5.921-31.998 9.24-38.382 2.353-4.524 6.563-3.559 7.891 0 2.516 6.742 1.854 27.398 9.08 38.382 4.7 7.144 12.53 12.445 20.59 15.306 8.917 3.166 22.036 2.407 28.363 1.22 5.68-1.064 5.65-1.06 5.65-1.06.197-8.093.03-.004.197-8.093-26.005-8.264-40.297-46.102-67.583-46.192-34.11-1.22-44.64 26.266-68.076 46.66z" id="path1000" opacity=".474" stroke-width="8"/>
      <path d="M71.617 246.91l-1 .051c-3.29.17-6.42.308-11 .408h-.879v.881a142.07 142.07 0 00.287 15.96c3.587.984 7.412 1.65 11.473 2.124.523.06 1.194.126 1.758.19a127.72 127.72 0 01-.639-18.614zm254.531.051v1a127.66 127.66 0 01-.593 18.523c.44-.05.977-.102 1.39-.15 4.162-.485 8.075-1.178 11.739-2.201a142.09 142.09 0 00.343-15.832v-.881h-.879c-3.31-.08-6.45-.18-11-.41z" transform="matrix(.48399 0 0 .48399 138.954 642.874)" id="path1035" opacity=".474" stroke-width="16.529"/>
    </g>
  </g>
  <g transform="matrix(2.06617 0 0 2.06617 -297.416 -1475.37)" id="layer1-8">
    <g id="g4372" fill-opacity="1" stroke="none" stroke-linejoin="round" stroke-miterlimit="4" stroke-dasharray="none" stroke-opacity="1">
      <path id="path4689" d="M175.58 764.635c-5.547-.059-11.389.155-19.431 1.817l-12.204 2.36 1.967 12.816c1.785.25 4.248.866 5.414 2.427 3.007 4.025 1.024 7.915 1.707 15.022 2.276 23.677 10.16 28.632 22.37 30.057 6.393.745 19.445 1.945 28.363-1.221 8.06-2.861 15.531-8.41 20.59-15.307 5.347-7.29 5.922-15.542 9.24-21.925 2.353-4.525 6.564-3.56 7.892 0 2.515 6.74 3.731 14.635 9.079 21.925 5.058 6.896 12.53 12.446 20.59 15.307 8.917 3.166 21.969 1.966 28.363 1.22 12.21-1.424 20.095-6.379 22.37-30.056.684-7.107-1.299-10.997 1.708-15.022 1.205-1.613 3.804-2.225 5.597-2.459l1.958-12.752-12.377-2.392c-12.869-2.659-20.106-1.61-29.508-1.668-3.489-.022-7.48.097-11.196.488-6.925.728-13.786 2.03-20.603 3.451-6.807 1.42-12.733 5.2-19.685 5.065-6.707-.13-13.31-4.242-19.87-5.639-6.93-1.476-12.634-2.647-21.062-2.877-4.086-.111-7.707-.51-11.196-.488-3.525.021-6.748-.113-10.076-.149z" fill="#000" stroke-width="8" stroke-linecap="square"/>
      <path d="M182.39 769.633c-8.598.142-21.143.601-24.274 10.44-2.792 12.997-2.66 27.922 4.889 38.888 6.303 9.157 19.913 7.36 30.049 7.005 16.107-.565 29.947-13.11 34.226-28.457 1.644-6.607 3.552-11.87.593-16.518-5.067-7.96-17.13-10.039-26.063-11.052a378.03 378.03 0 00-19.42-.306z" id="path4694" fill="#333" stroke-width="8" stroke-linecap="square"/>
      <path id="path4707" d="M157.47 772.895a3.476 1.442 0 01-3.46 1.442 3.476 1.442 0 01-3.493-1.428 3.476 1.442 0 013.423-1.456 3.476 1.442 0 013.529 1.412" fill="#b3b3b3" stroke-width="8" stroke-linecap="square"/>
      <path id="path4810" d="M292.534 769.633c8.598.142 21.142.601 24.273 10.44 2.792 12.997 2.66 27.922-4.888 38.888-6.304 9.157-19.914 7.36-30.05 7.005-16.107-.565-29.947-13.11-34.226-28.457-1.644-6.607-3.552-11.87-.593-16.518 5.068-7.96 17.13-10.039 26.063-11.052a378.03 378.03 0 0119.42-.306z" fill="#333" stroke-width="8" stroke-linecap="square"/>
      <path d="M317.454 772.895a3.476 1.442 0 003.459 1.442 3.476 1.442 0 003.494-1.428 3.476 1.442 0 00-3.423-1.456 3.476 1.442 0 00-3.53 1.412" id="path4812" fill="#b3b3b3" stroke-width="8" stroke-linecap="square"/>
      <g clip-path="url(#lensLeft)">
        <use xlink:href="#shimmer"/>
      </g>
      <g clip-path="url(#lensRight)">
        <use xlink:href="#shimmer"/>
      </g>
    </g>
  </g>
</svg>