<?xml version="1.0" encoding="UTF-8" standalone="no"?>
<svg
   xmlns:dc="http://purl.org/dc/elements/1.1/"
   xmlns:cc="http://creativecommons.org/ns#"
   xmlns:rdf="http://www.w3.org/1999/02/22-rdf-syntax-ns#"
   xmlns:svg="http://www.w3.org/2000/svg"
   xmlns="http://www.w3.org/2000/svg"
   xmlns:xlink="http://www.w3.org/1999/xlink"
   xmlns:sodipodi="http://sodipodi.sourceforge.net/DTD/sodipodi-0.dtd"
   xmlns:inkscape="http://www.inkscape.org/namespaces/inkscape"
   version="1.1"
   viewBox="0 0 386.80225 375.68002"
   data-name="Layer 1"
   id="Layer_1"
   sodipodi:docname="eggo-jh3y.svg"
   width="386.80225"
   height="375.68002"
   inkscape:version="0.92.2 5c3e80d, 2017-08-06">
  <metadata
     id="metadata45">
    <rdf:RDF>
      <cc:Work
         rdf:about="">
        <dc:format>image/svg+xml</dc:format>
        <dc:type
           rdf:resource="http://purl.org/dc/dcmitype/StillImage" />
        <dc:title></dc:title>
      </cc:Work>
    </rdf:RDF>
  </metadata>
  <sodipodi:namedview
     pagecolor="#ffffff"
     bordercolor="#666666"
     borderopacity="1"
     objecttolerance="10"
     gridtolerance="10"
     guidetolerance="10"
     inkscape:pageopacity="0"
     inkscape:pageshadow="2"
     inkscape:window-width="1669"
     inkscape:window-height="1147"
     id="namedview43"
     showgrid="false"
     inkscape:snap-intersection-paths="true"
     inkscape:snap-bbox="true"
     inkscape:object-paths="true"
     inkscape:zoom="1.1433554"
     inkscape:cx="93.291927"
     inkscape:cy="187.84002"
     inkscape:window-x="743"
     inkscape:window-y="670"
     inkscape:window-maximized="0"
     inkscape:current-layer="Layer_1"
     fit-margin-top="0"
     fit-margin-left="0"
     fit-margin-right="0"
     fit-margin-bottom="0" />
  <defs
     id="defs4">
    <clipPath
       id="body">
      <path
         d="m 200.003,30.133 c 71.1,0 128.69,152.76 128.69,223.86 a 128.695,128.695 0 1 1 -257.39,0 c 0,-71.1 57.62,-223.86 128.7,-223.86 z"
         id="path2"
         inkscape:connector-curvature="0" />
    </clipPath>
    <g
       id="rainbowBlock">
      <rect
         id="rect852"
         width="572.00098"
         height="69.969002"
         x="549.26001"
         y="-45.48"
         ry="0"
         style="opacity:1;fill:#fa4d32" />
      <rect
         ry="0"
         y="24.489"
         x="549.26001"
         height="69.969002"
         width="572.00098"
         id="rect854"
         style="opacity:1;fill:#fdb020" />
      <rect
         id="rect856"
         width="572.00098"
         height="69.969002"
         x="549.26001"
         y="94.459"
         ry="0"
         style="opacity:1;fill:#fdf133" />
      <rect
         ry="0"
         y="164.42799"
         x="549.26001"
         height="69.969002"
         width="572.00098"
         id="rect858"
         style="opacity:1;fill:#1ce590" />
      <rect
         id="rect860"
         width="572.00098"
         height="69.969002"
         x="549.26001"
         y="234.39799"
         ry="0"
         style="opacity:1;fill:#13a1e3" />
      <rect
         ry="0"
         y="304.367"
         x="549.26001"
         height="69.969002"
         width="572.00098"
         id="rect862"
         style="opacity:1;fill:#7e2ae4" />
      <rect
         id="rect864"
         width="572.00098"
         height="69.969002"
         x="549.26001"
         y="374.33701"
         ry="0"
         style="opacity:1;fill:#9e4ea5" />
    </g>
    <g
       id="g873"
       transform="matrix(0.49952851,-0.49952851,0.49952851,0.49952851,-316.84944,524.03377)"
       stroke-miterlimit="4"
       style="fill-opacity:1;fill-rule:nonzero;stroke:none;stroke-width:5;stroke-linecap:round;stroke-linejoin:round;stroke-miterlimit:4;stroke-dasharray:none;stroke-dashoffset:0;stroke-opacity:1">
      <g
         id="g15">
        <use
           xlink:href="#rainbowBlock"
           id="use13"
           x="0"
           y="0"
           width="100%"
           height="100%" />
      </g>
      <g
         transform="translate(0,480)"
         id="g19">
        <use
           xlink:href="#rainbowBlock"
           id="use17"
           x="0"
           y="0"
           width="100%"
           height="100%" />
      </g>
    </g>
    <style
       id="style1372">.cls-1{fill:#fff;}.cls-2{fill:#fcfbfa;}.cls-3{fill:#252526;}.cls-4{fill:#e0e0e0;}.cls-5{fill:#56555c;}</style>
  </defs>
  <path
     style="fill:#ff5555"
     inkscape:connector-curvature="0"
     class="cls-2"
     d="m 193.38517,10.254535 c 71.1,0 128.69,152.759995 128.69,223.859995 a 128.695,128.695 0 1 1 -257.390004,0 c 0,-71.1 57.620004,-223.859995 128.700004,-223.859995 z"
     id="path1380" />
  <g
     clip-path="url(#body)"
     id="g25"
     transform="translate(-5.5018757,-18.57)">
    <use
       xlink:href="#rainbowGroup"
       id="use23"
       x="0"
       y="0"
       width="100%"
       height="100%" />
  </g>
  <path
     id="path24"
     d="m 80.816124,116.56 c 12.68,-30.66 27.799996,-57.13 43.869996,-76.65 21.81,-26.48 44.95,-39.91 68.71,-39.91 23.76,0 46.86,13.42 68.7,39.9 16.09,19.51 31.26,46 43.87,76.66 l 0.62,1.49 -1.6,-0.21 c -4.45,-0.59 -8.09,-1 -12.53,-1.5 l -0.54,-0.06 -0.22,-0.5 c -14.2,-33.19 -38.49,-76.53 -69.85,-94.65 -9.48,-5.48 -19.06,-8.26 -28.45,-8.26 -9.39,0 -19,2.78 -28.45,8.26 -31.31,18.09 -55.52,61.28 -69.839996,94.65 l -0.22,0.5 -0.54,0.06 c -4.46,0.48 -8.1,0.91 -12.53,1.5 l -1.6,0.21 z"
     class="cls-5"
     inkscape:connector-curvature="0"
     style="fill:#56555c" />
  <path
     id="path26"
     d="m 323.31612,213.68 c -3.48,-0.09 -7,-0.23 -10.48,-0.43 l -1.08,-0.06 -0.14,-1.07 c -3.09,-24.4 -10.15,-53 -19.87,-80.42 l -0.71,-2 2.11,0.28 c 4,0.54 7.88,1.12 11.58,1.75 l 0.76,0.13 0.25,0.73 c 9.33,27.41 16,55.69 18.89,79.64 l 0.18,1.49 z"
     class="cls-5"
     inkscape:connector-curvature="0"
     style="fill:#56555c" />
  <path
     id="path30"
     d="m 63.016124,211.67 c 2.85,-24 9.56,-52.24 18.89,-79.64 l 0.25,-0.73 0.76,-0.13 c 3.7,-0.62 7.59,-1.21 11.58,-1.75 l 2.11,-0.28 -0.71,2 c -9.73,27.45 -16.78,56 -19.87,80.42 l -0.14,1.07 -1.08,0.06 c -3.48,0.2 -7,0.34 -10.47,0.43 h -1.5 z"
     class="cls-5"
     inkscape:connector-curvature="0"
     style="fill:#56555c" />
  <path
     id="path34"
     d="M 193.39612,375.68 A 140.34,140.34 0 0 1 62.826124,286.8 a 142.07,142.07 0 0 1 -9.59,-57.12 v -0.88 h 0.88 c 4.58,-0.1 7.71,-0.24 11,-0.41 l 1,-0.05 v 1 a 127.72,127.72 0 0 0 8.5,52.23 127.41,127.41 0 0 0 210.689996,42.06 126.21,126.21 0 0 0 26.84,-42 127.66,127.66 0 0 0 8.5,-52.24 v -1 l 1,0.05 c 4.55,0.23 7.69,0.33 11,0.41 h 0.88 v 0.88 a 142.09,142.09 0 0 1 -9.59,57.07 140.19,140.19 0 0 1 -130.54,88.88 z"
     class="cls-5"
     inkscape:connector-curvature="0"
     style="fill:#56555c" />
  <g
     id="g1016"
     transform="matrix(2.0661737,0,0,2.0661737,-292.60598,-1346.8595)">
    <g
       id="g1014">
      <path
         style="opacity:0.47400004;fill:#000000;fill-opacity:1;stroke:none;stroke-width:8;stroke-linecap:square;stroke-linejoin:round;stroke-miterlimit:4;stroke-dasharray:none;stroke-opacity:1"
         d="m 167.38031,763.09055 0.14166,7.65802 5.55238,1.0273 c 6.3298,1.17113 19.44548,1.94528 28.36328,-1.2207 8.05947,-2.86125 15.87525,-8.17153 20.58985,-15.30664 7.25455,-10.97907 5.92198,-31.99731 9.24125,-38.38119 2.35233,-4.52418 6.56262,-3.55929 7.89063,0 2.51525,6.74129 1.85337,27.39812 9.07906,38.38119 4.70033,7.14452 12.53037,12.44539 20.58984,15.30664 8.9178,3.16598 22.03629,2.40688 28.36328,1.2207 5.68119,-1.06511 5.6506,-1.06034 5.6506,-1.06034 0.19729,-8.09354 0.0306,-0.005 0.19697,-8.09358 -26.00542,-8.2643 -40.29674,-46.10219 -67.58359,-46.19178 -34.10932,-1.2201 -44.63879,26.2663 -68.07521,46.66038 z"
         id="path1000"
         inkscape:connector-curvature="0"
         sodipodi:nodetypes="ccssassasssccc" />
      <path
         style="opacity:0.47400004;fill:#000000;fill-opacity:1;stroke:none;stroke-width:16.52939034;stroke-linecap:square;stroke-linejoin:round;stroke-miterlimit:4;stroke-dasharray:none;stroke-opacity:1"
         d="m 71.617188,246.91016 -1,0.0508 c -3.29,0.17 -6.42,0.3082 -11,0.4082 H 58.738281 V 248.25 a 142.07,142.07 0 0 0 0.28711,15.96094 c 3.58644,0.9826 7.412004,1.64942 11.472656,2.12304 0.522553,0.0609 1.193595,0.12619 1.757812,0.18946 a 127.72,127.72 0 0 1 -0.638671,-18.61328 z m 254.531252,0.0508 v 1 a 127.66,127.66 0 0 1 -0.59375,18.52344 c 0.43967,-0.0498 0.97721,-0.10218 1.39062,-0.1504 4.16192,-0.48543 8.07463,-1.17762 11.73828,-2.20117 a 142.09,142.09 0 0 0 0.34375,-15.83203 v -0.88086 h -0.8789 c -3.31,-0.08 -6.45,-0.18015 -11,-0.41015 z"
         transform="matrix(0.48398641,0,0,0.48398641,138.95448,642.87407)"
         id="path1035"
         inkscape:connector-curvature="0" />
    </g>
  </g>
  <g
     transform="matrix(2.0661737,0,0,2.0661737,-297.41639,-1475.3703)"
     id="layer1-8">
    <g
       id="g4372">
      <path
         sodipodi:nodetypes="cccccssscsscsssccccccsssscc"
         inkscape:connector-curvature="0"
         id="path4689"
         d="m 175.58026,764.63545 c -5.54684,-0.0595 -11.38885,0.15472 -19.43164,1.81641 l -12.20313,2.35937 1.9668,12.81641 c 1.78451,0.25007 4.24739,0.86604 5.41406,2.42773 3.00637,4.0243 1.02387,7.91461 1.70703,15.02149 2.27601,23.6772 10.1596,28.63254 22.36914,30.05664 6.39388,0.74577 19.44548,1.94528 28.36328,-1.2207 8.05947,-2.86125 15.53138,-8.41073 20.58985,-15.30664 5.34742,-7.28984 5.92198,-15.54177 9.24125,-21.92565 2.35233,-4.52418 6.56262,-3.55929 7.89063,0 2.51525,6.74129 3.73164,14.63581 9.07906,21.92565 5.05844,6.89591 12.53037,12.44539 20.58984,15.30664 8.9178,3.16598 21.9694,1.96647 28.36328,1.2207 12.20955,-1.4241 20.09508,-6.37944 22.37109,-30.05664 0.68316,-7.10688 -1.29933,-10.99719 1.70703,-15.02149 1.20511,-1.61315 3.80417,-2.22555 5.59766,-2.45898 l 1.95703,-12.75195 -12.37695,-2.39258 c -12.86847,-2.6587 -20.10562,-1.61027 -29.50781,-1.66797 -3.48845,-0.0214 -7.48048,0.0976 -11.19532,0.48828 -6.92544,0.72827 -13.78649,2.02979 -20.60351,3.45117 -6.80741,1.41938 -12.73274,5.19953 -19.68524,5.06446 -6.70646,-0.13029 -13.30888,-4.24134 -19.86945,-5.63868 -6.93041,-1.47611 -12.63435,-2.64733 -21.0625,-2.87695 -4.08528,-0.1113 -7.70687,-0.5097 -11.19531,-0.48828 -3.52582,0.0216 -6.74807,-0.11272 -10.07617,-0.14844 z"
         style="fill:#000000;fill-opacity:1;stroke:none;stroke-width:8;stroke-linecap:square;stroke-linejoin:round;stroke-miterlimit:4;stroke-dasharray:none;stroke-opacity:1" />
      <path
         sodipodi:nodetypes="ccsscacc"
         inkscape:connector-curvature="0"
         style="fill:#333333;fill-opacity:1;stroke:none;stroke-width:8;stroke-linecap:square;stroke-linejoin:round;stroke-miterlimit:4;stroke-dasharray:none;stroke-opacity:1"
         d="m 182.38959,769.63252 c -8.5978,0.14254 -21.1424,0.60165 -24.27344,10.4414 -2.7918,12.99576 -2.6597,27.92062 4.88867,38.88672 6.30362,9.15775 19.91341,7.36076 30.04899,7.00531 16.1072,-0.56488 29.94768,-13.11023 34.2264,-28.45648 1.64415,-6.60778 3.55218,-11.87093 0.59318,-16.51875 -5.06779,-7.96017 -17.13012,-10.03833 -26.06312,-11.05148 -6.40746,-0.26097 -12.95073,-0.37751 -19.42068,-0.30672 z"
         id="path4694" />
      <path
         style="fill:#b3b3b3;fill-opacity:1;stroke:none;stroke-width:8;stroke-linecap:square;stroke-linejoin:round;stroke-miterlimit:4;stroke-dasharray:none;stroke-opacity:1"
         id="path4707"
         d="m 157.46945,772.89466 a 3.4764421,1.4421878 0 0 1 -3.45866,1.44217 3.4764421,1.4421878 0 0 1 -3.49404,-1.42742 3.4764421,1.4421878 0 0 1 3.42293,-1.45677 3.4764421,1.4421878 0 0 1 3.52905,1.41252"
         inkscape:connector-curvature="0" />
      <path
         sodipodi:nodetypes="ccsscacc"
         inkscape:connector-curvature="0"
         id="path4810"
         d="m 292.5339,769.63252 c 8.5978,0.14254 21.1424,0.60165 24.27344,10.4414 2.7918,12.99576 2.6597,27.92062 -4.88867,38.88672 -6.30362,9.15775 -19.91341,7.36076 -30.04899,7.00531 -16.1072,-0.56488 -29.94768,-13.11023 -34.2264,-28.45648 -1.64415,-6.60778 -3.55218,-11.87093 -0.59318,-16.51875 5.06779,-7.96017 17.13012,-10.03833 26.06312,-11.05148 6.40746,-0.26097 12.95073,-0.37751 19.42068,-0.30672 z"
         style="fill:#333333;fill-opacity:1;stroke:none;stroke-width:8;stroke-linecap:square;stroke-linejoin:round;stroke-miterlimit:4;stroke-dasharray:none;stroke-opacity:1" />
      <path
         d="m 317.45403,772.89466 a 3.4764421,1.4421878 0 0 0 3.45867,1.44217 3.4764421,1.4421878 0 0 0 3.49404,-1.42742 3.4764421,1.4421878 0 0 0 -3.42293,-1.45677 3.4764421,1.4421878 0 0 0 -3.52905,1.41252"
         id="path4812"
         style="fill:#b3b3b3;fill-opacity:1;stroke:none;stroke-width:8;stroke-linecap:square;stroke-linejoin:round;stroke-miterlimit:4;stroke-dasharray:none;stroke-opacity:1"
         inkscape:connector-curvature="0" />
      <g
         id="g1044"
         transform="rotate(15,66.757925,810.75392)">
        <rect
           ry="0"
           y="718.40564"
           x="173.24208"
           height="95.87825"
           width="16.297186"
           id="rect1038"
           style="opacity:0.47400004;fill:#ff0000;fill-opacity:1;fill-rule:nonzero;stroke:none;stroke-width:2.41993213;stroke-linecap:round;stroke-linejoin:round;stroke-miterlimit:4;stroke-dasharray:none;stroke-dashoffset:0;stroke-opacity:1" />
        <rect
           style="opacity:0.47400004;fill:#ff0000;fill-opacity:1;fill-rule:nonzero;stroke:none;stroke-width:1.80838978;stroke-linecap:round;stroke-linejoin:round;stroke-miterlimit:4;stroke-dasharray:none;stroke-dashoffset:0;stroke-opacity:1"
           id="rect1040"
           width="9.1010256"
           height="95.87825"
           x="160.03932"
           y="718.40564"
           ry="0" />
      </g>
    </g>
  </g>
</svg>
