<svg width="200" height="227" viewBox="0 0 200 227" fill="none" xmlns="http://www.w3.org/2000/svg">
<ellipse cx="100" cy="202" rx="100" ry="25" fill="#C4C4C4"/>
<mask id="mask0" mask-type="alpha" maskUnits="userSpaceOnUse" x="0" y="177" width="200" height="50">
<ellipse cx="100" cy="202" rx="100" ry="25" fill="#C4C4C4"/>
</mask>
<g mask="url(#mask0)">
<ellipse cx="100" cy="214" rx="100" ry="25" fill="black"/>
</g>
<mask id="mask1" mask-type="alpha" maskUnits="userSpaceOnUse" x="0" y="0" width="200" height="227">
<path d="M200 0H0V202C0 215.807 44.7715 227 100 227C155.228 227 200 215.807 200 202V0Z" fill="#C4C4C4"/>
</mask>
<g mask="url(#mask1)">
<path d="M100.5 20C53.5558 20 15.5 58.0558 15.5 105V270H185.5V105C185.5 58.0558 147.444 20 100.5 20Z" fill="#C4C4C4"/>
<mask id="mask2" mask-type="alpha" maskUnits="userSpaceOnUse" x="15" y="20" width="171" height="250">
<path d="M100.5 20C53.5558 20 15.5 58.0558 15.5 105V270H185.5V105C185.5 58.0558 147.444 20 100.5 20Z" fill="#C4C4C4"/>
</mask>
<g mask="url(#mask2)">
</g>
<mask id="mask3" mask-type="alpha" maskUnits="userSpaceOnUse" x="15" y="20" width="171" height="250">
<path d="M100.5 20C53.5558 20 15.5 58.0558 15.5 105V270H185.5V105C185.5 58.0558 147.444 20 100.5 20Z" fill="#C4C4C4"/>
</mask>
<g mask="url(#mask3)">
<rect x="45.5" y="164" width="110" height="123" rx="55" fill="#F3ECEC"/>
</g>
<mask id="mask4" mask-type="alpha" maskUnits="userSpaceOnUse" x="60" y="95" width="81" height="50">
<ellipse cx="100.5" cy="120" rx="40" ry="25" fill="#F3ECEC"/>
</mask>
<g mask="url(#mask4)">
<ellipse cx="100.5" cy="120" rx="40" ry="25" fill="#E2E0E0"/>
<ellipse cx="100.5" cy="116" rx="40" ry="25" fill="#F3ECEC"/>
</g>
<ellipse cx="100.5" cy="104" rx="10" ry="6" fill="#FFC6C6"/>
<circle cx="53.5" cy="88" r="7" fill="#323232"/>
<circle cx="147.5" cy="88" r="7" fill="#323232"/>
<path d="M57 66.2727C57 68.6827 42.5778 69 30.8824 69C19.1869 69 9 68.4545 9 67.3636C9 64.9537 26.2457 63 37.9412 63C49.6366 63 57 63.8628 57 66.2727Z" fill="#EF2E2E"/>
<rect x="32" y="61" width="136" height="8" fill="#EF2E2E"/>
<mask id="mask5" mask-type="alpha" maskUnits="userSpaceOnUse" x="22" y="13" width="157" height="57">
<path d="M99.5 13C71 13 29 30.5 22 69.5H78.5H124.5H179C173.5 26.5 128 13 99.5 13Z" fill="#423F3F"/>
</mask>
<g mask="url(#mask5)">
<path d="M-10 13H210V70H120.5V56.5H82V70H-10V13Z" fill="#373737"/>
</g>
<ellipse cx="100.5" cy="13.5" rx="6" ry="2.5" fill="#EF2E2E"/>
<line x1="35.6314" y1="109.151" x2="68.6515" y2="113.869" stroke="#9E9E9E" stroke-width="2" stroke-linecap="round"/>
<line x1="133.631" y1="124.151" x2="166.651" y2="128.869" stroke="#9E9E9E" stroke-width="2" stroke-linecap="round"/>
<line x1="68.6515" y1="121.131" x2="35.6314" y2="125.849" stroke="#9E9E9E" stroke-width="2" stroke-linecap="round"/>
<line x1="166.651" y1="111.131" x2="133.631" y2="115.849" stroke="#9E9E9E" stroke-width="2" stroke-linecap="round"/>
</g>
</svg>
