<?xml version="1.0" encoding="UTF-8" standalone="no"?>
<svg
   xmlns:dc="http://purl.org/dc/elements/1.1/"
   xmlns:cc="http://creativecommons.org/ns#"
   xmlns:rdf="http://www.w3.org/1999/02/22-rdf-syntax-ns#"
   xmlns:svg="http://www.w3.org/2000/svg"
   xmlns="http://www.w3.org/2000/svg"
   id="svg8"
   version="1.1"
   viewBox="0 0 87.690239 133.80319"
   height="133.80319mm"
   width="87.690239mm">
  <defs
     id="defs2">
    <clipPath
       id="clipPath964"
       clipPathUnits="userSpaceOnUse">
      <path
         style="opacity:1;fill:#ff6600;fill-opacity:0.70183488;fill-rule:nonzero;stroke:none;stroke-width:1.84734726;stroke-linecap:round;stroke-linejoin:round;stroke-miterlimit:4;stroke-dasharray:none;stroke-dashoffset:0;stroke-opacity:1"
         d="m 163.23293,149.46736 a 33.072917,5.5783983 0 0 0 -33.07292,5.57847 33.072917,5.5783983 0 0 0 0.48163,0.94775 33.072917,5.5783983 0 0 1 -0.48163,-0.94775 v 9.02942 a 33.809596,30.602362 0 0 0 33.07292,24.4135 33.809596,30.602362 0 0 0 33.07291,-24.30084 v -9.14208 a 33.072917,5.5783983 0 0 0 -33.07291,-5.57847 z"
         id="path966" />
    </clipPath>
    <clipPath
       id="clipPath970"
       clipPathUnits="userSpaceOnUse">
      <path
         style="opacity:1;fill:#ff6600;fill-opacity:0.70183488;fill-rule:nonzero;stroke:none;stroke-width:1.84734726;stroke-linecap:round;stroke-linejoin:round;stroke-miterlimit:4;stroke-dasharray:none;stroke-dashoffset:0;stroke-opacity:1"
         d="m 163.23293,149.46736 a 33.072917,5.5783983 0 0 0 -33.07292,5.57847 33.072917,5.5783983 0 0 0 0.48163,0.94775 33.072917,5.5783983 0 0 1 -0.48163,-0.94775 v 9.02942 a 33.809596,30.602362 0 0 0 33.07292,24.4135 33.809596,30.602362 0 0 0 33.07291,-24.30084 v -9.14208 a 33.072917,5.5783983 0 0 0 -33.07291,-5.57847 z"
         id="path972" />
    </clipPath>
  </defs>
  <metadata
     id="metadata5">
    <rdf:RDF>
      <cc:Work
         rdf:about="">
        <dc:format>image/svg+xml</dc:format>
        <dc:type
           rdf:resource="http://purl.org/dc/dcmitype/StillImage" />
        <dc:title></dc:title>
      </cc:Work>
    </rdf:RDF>
  </metadata>
  <g
     transform="translate(-14.498128,-64.074795)"
     id="layer1">
    <path
       id="path830"
       d="m 14.577514,64.07527 c -0.0438,0 -0.0791,0.03528 -0.0791,0.07906 v 122.08403 c 0.0146,-1.8e-4 0.0287,-0.002 0.0434,-0.002 5.3226,0 5.6224,11.61979 10.93577,11.64115 h 0.0289 c 5.31337,-0.0214 5.61317,-11.64115 10.93577,-11.64115 5.32261,0 5.62289,11.61983 10.93629,11.64115 h 0.0289 c 5.313368,-0.0214 5.613172,-11.64115 10.93577,-11.64115 5.322598,0 5.622402,11.61979 10.935767,11.64115 h 0.02894 c 5.313364,-0.0214 5.613686,-11.64115 10.936283,-11.64115 5.322597,0 5.622402,11.61979 10.935766,11.64115 h 0.02894 c 5.313364,-0.0214 5.613168,-11.64115 10.93577,-11.64115 0.0147,0 0.0288,0.001 0.0434,0.002 V 64.154335 c 0,-0.04378 -0.0353,-0.07906 -0.0791,-0.07906 H 58.342706 Z"
       style="opacity:1;fill:#b3b3b3;fill-opacity:0.70183488;fill-rule:nonzero;stroke:none;stroke-width:1.58814561;stroke-linecap:round;stroke-linejoin:round;stroke-miterlimit:4;stroke-dasharray:none;stroke-dashoffset:0;stroke-opacity:1" />
    <path
       id="path828"
       d="m 58.342991,64.074795 c -24.290255,-10e-6 -43.844863,16.02846 -43.844863,49.741665 v 81.41621 c 0,0.88693 0.01662,1.76785 0.04341,2.64532 h 87.603432 c 0.0268,-0.87746 0.0434,-1.75839 0.0434,-2.64532 v -81.41621 c 0,-33.713205 -19.55512,-49.741665 -43.845369,-49.741665 z"
       style="opacity:1;fill:#c83737;fill-opacity:0.70183488;fill-rule:nonzero;stroke:none;stroke-width:1.12299013;stroke-linecap:round;stroke-linejoin:round;stroke-miterlimit:4;stroke-dasharray:none;stroke-dashoffset:0;stroke-opacity:1" />
    <g
       transform="translate(0.1322175)"
       id="g860">
      <g
         id="g846">
        <circle
           r="5.2916665"
           cy="109.43052"
           cx="31.751348"
           id="path840"
           style="opacity:1;fill:#000000;fill-opacity:0.70183488;fill-rule:nonzero;stroke:none;stroke-width:1.30970323;stroke-linecap:round;stroke-linejoin:round;stroke-miterlimit:4;stroke-dasharray:none;stroke-dashoffset:0;stroke-opacity:1" />
        <circle
           r="1.3229166"
           cy="109.43052"
           cx="31.751348"
           id="path842"
           style="opacity:1;fill:#ffffff;fill-opacity:0.70183488;fill-rule:nonzero;stroke:none;stroke-width:1.45522594;stroke-linecap:round;stroke-linejoin:round;stroke-miterlimit:4;stroke-dasharray:none;stroke-dashoffset:0;stroke-opacity:1" />
      </g>
      <g
         id="g852"
         transform="translate(52.919366)">
        <circle
           style="opacity:1;fill:#000000;fill-opacity:0.70183488;fill-rule:nonzero;stroke:none;stroke-width:1.30970323;stroke-linecap:round;stroke-linejoin:round;stroke-miterlimit:4;stroke-dasharray:none;stroke-dashoffset:0;stroke-opacity:1"
           id="circle848"
           cx="31.751348"
           cy="109.43052"
           r="5.2916665" />
        <circle
           style="opacity:1;fill:#ffffff;fill-opacity:0.70183488;fill-rule:nonzero;stroke:none;stroke-width:1.45522594;stroke-linecap:round;stroke-linejoin:round;stroke-miterlimit:4;stroke-dasharray:none;stroke-dashoffset:0;stroke-opacity:1"
           id="circle850"
           cx="31.751348"
           cy="109.43052"
           r="1.3229166" />
      </g>
    </g>
    <g
       transform="translate(-0.02828058)"
       id="g868">
      <circle
         style="opacity:1;fill:#ffaaaa;fill-opacity:0.70183488;fill-rule:nonzero;stroke:none;stroke-width:1.04860187;stroke-linecap:round;stroke-linejoin:round;stroke-miterlimit:4;stroke-dasharray:none;stroke-dashoffset:0;stroke-opacity:1"
         id="path862"
         cx="23.225588"
         cy="117.689"
         r="2.6458333" />
      <circle
         r="2.6458333"
         cy="117.689"
         cx="93.517471"
         id="circle864"
         style="opacity:1;fill:#ffaaaa;fill-opacity:0.70183488;fill-rule:nonzero;stroke:none;stroke-width:1.04860187;stroke-linecap:round;stroke-linejoin:round;stroke-miterlimit:4;stroke-dasharray:none;stroke-dashoffset:0;stroke-opacity:1" />
    </g>
    <path
       d="m 64.490449,112.63237 a 6.1471992,6.1471992 0 0 1 -3.073599,5.32363 6.1471992,6.1471992 0 0 1 -6.147199,0 6.1471992,6.1471992 0 0 1 -3.0736,-5.32363 l 6.147199,0 z"
       id="path872"
       style="opacity:1;fill:#000000;fill-opacity:0.70183488;fill-rule:nonzero;stroke:none;stroke-width:1.32300007;stroke-linecap:round;stroke-linejoin:round;stroke-miterlimit:4;stroke-dasharray:none;stroke-dashoffset:0;stroke-opacity:1" />
    <path
       id="path874"
       transform="scale(0.26458333)"
       d="m 229.69727,434.41602 a 11,11 0 0 0 -11,11 11,11 0 0 0 0.57421,3.46093 23.233509,23.233509 0 0 0 12.85547,-3.05859 23.233509,23.233509 0 0 0 6.92774,-6.17188 11,11 0 0 0 -9.35742,-5.23046 z"
       style="opacity:1;fill:#ff0000;fill-opacity:0.70183488;fill-rule:nonzero;stroke:none;stroke-width:8.56129074;stroke-linecap:round;stroke-linejoin:round;stroke-miterlimit:4;stroke-dasharray:none;stroke-dashoffset:0;stroke-opacity:1" />
    <path
       id="rect879"
       d="m 53.732852,115.44829 1.536799,-2.11667 1.536799,2.11667 1.536799,-2.11667 1.5368,2.11667 1.536799,-2.11667 1.536799,2.11667 1.536799,-2.81592 H 52.196053 Z"
       style="opacity:1;fill:#ffffff;fill-opacity:0.70183488;fill-rule:nonzero;stroke:none;stroke-width:0.95845294;stroke-linecap:round;stroke-linejoin:round;stroke-miterlimit:4;stroke-dasharray:none;stroke-dashoffset:0;stroke-opacity:1" />
    <path
       id="path883"
       d="m 37.442347,103.09591 c -3e-6,1.29694 -1.0595,2.49537 -2.77939,3.14383 -1.719893,0.64848 -3.838889,0.64848 -5.558782,0 -1.71989,-0.64846 -2.779387,-1.84689 -2.77939,-3.14383"
       style="opacity:1;fill:#ffffff;fill-opacity:0.70183488;fill-rule:nonzero;stroke:#000000;stroke-width:0.75649798;stroke-linecap:round;stroke-linejoin:round;stroke-miterlimit:4;stroke-dasharray:none;stroke-dashoffset:0;stroke-opacity:1" />
    <path
       style="opacity:1;fill:#ffffff;fill-opacity:0.70183488;fill-rule:nonzero;stroke:#000000;stroke-width:0.75688356;stroke-linecap:round;stroke-linejoin:round;stroke-miterlimit:4;stroke-dasharray:none;stroke-dashoffset:0;stroke-opacity:1"
       d="m 90.36157,103.09401 c -3e-6,1.2983 -1.059473,2.49797 -2.779318,3.14712 -1.719849,0.64915 -3.838791,0.64915 -5.55864,0 -1.719846,-0.64915 -2.779316,-1.84882 -2.779318,-3.14712"
       id="path886" />
    <g
       id="g911">
      <g
         transform="translate(-104.88994,-4.9136905)"
         id="g1034">
        <path
           style="opacity:1;fill:#ff6600;fill-opacity:0.70183488;fill-rule:nonzero;stroke:none;stroke-width:6.98210001;stroke-linecap:round;stroke-linejoin:round;stroke-miterlimit:4;stroke-dasharray:none;stroke-dashoffset:0;stroke-opacity:1"
           d="m 616.94336,564.91602 a 125,21.08371 0 0 0 -125,21.08398 125,21.08371 0 0 0 1.82031,3.58203 A 125,21.08371 0 0 1 491.94336,586 v 34.12695 a 127.7843,115.66247 0 0 0 125,92.27149 127.7843,115.66247 0 0 0 125,-91.84571 V 586 a 125,21.08371 0 0 0 -125,-21.08398 z"
           transform="scale(0.26458333)"
           id="rect892" />
        <ellipse
           ry="5.5783982"
           rx="33.072918"
           cy="155.04562"
           cx="163.23318"
           id="path888"
           style="opacity:1;fill:#aa4400;fill-opacity:0.70183488;fill-rule:nonzero;stroke:none;stroke-width:1.40795743;stroke-linecap:round;stroke-linejoin:round;stroke-miterlimit:4;stroke-dasharray:none;stroke-dashoffset:0;stroke-opacity:1" />
        <g
           id="g922"
           transform="translate(-0.06873765)">
          <circle
             r="2.9399648"
             cy="168.1761"
             cx="149.13638"
             id="path916"
             style="opacity:1;fill:#000000;fill-opacity:0.70183488;fill-rule:nonzero;stroke:none;stroke-width:1.32300007;stroke-linecap:round;stroke-linejoin:round;stroke-miterlimit:4;stroke-dasharray:none;stroke-dashoffset:0;stroke-opacity:1" />
          <circle
             style="opacity:1;fill:#000000;fill-opacity:0.70183488;fill-rule:nonzero;stroke:none;stroke-width:1.32300007;stroke-linecap:round;stroke-linejoin:round;stroke-miterlimit:4;stroke-dasharray:none;stroke-dashoffset:0;stroke-opacity:1"
             id="circle918"
             cx="177.46695"
             cy="168.44337"
             r="2.9399648" />
        </g>
        <path
           style="opacity:1;fill:#000000;fill-opacity:0.70183488;fill-rule:nonzero;stroke:none;stroke-width:2.27551723;stroke-linecap:round;stroke-linejoin:round;stroke-miterlimit:4;stroke-dasharray:none;stroke-dashoffset:0;stroke-opacity:1"
           d="m 147.63011,171.95588 c 0.12552,3.62717 3.05945,6.95982 7.78974,8.77968 4.83484,1.86008 10.79131,1.86008 15.62615,0 4.7303,-1.81986 7.66423,-5.15251 7.78975,-8.77968 -0.0932,0.0579 -0.16991,0.12419 -0.26505,0.18112 -0.66422,0.39743 -1.37444,0.7701 -2.12812,1.11589 -0.75368,0.34577 -1.55071,0.66452 -2.38778,0.9524 -0.83706,0.28788 -1.69847,0.53927 -2.57803,0.75518 -0.87956,0.21591 -1.77761,0.39634 -2.68752,0.54028 -0.90991,0.14395 -1.8318,0.2519 -2.75991,0.32387 -0.92812,0.072 -1.86222,0.10744 -2.79641,0.10744 -0.93419,0 -1.86829,-0.0354 -2.79641,-0.10744 -0.92811,-0.072 -1.85,-0.17992 -2.75991,-0.32387 -0.90991,-0.14394 -1.80796,-0.32437 -2.68753,-0.54028 -0.87955,-0.21591 -1.74096,-0.4673 -2.57803,-0.75518 -0.83706,-0.28788 -1.63409,-0.60663 -2.38777,-0.9524 -0.75368,-0.34579 -1.4639,-0.71846 -2.12812,-1.11589 -0.0952,-0.057 -0.1718,-0.1232 -0.26505,-0.18112 z"
           id="path940" />
        <path
           style="opacity:1;fill:#ff2a2a;fill-opacity:0.70183488;fill-rule:nonzero;stroke:none;stroke-width:8.08926582;stroke-linecap:round;stroke-linejoin:round;stroke-miterlimit:4;stroke-dasharray:none;stroke-dashoffset:0;stroke-opacity:1"
           d="m 646.07227,672.87695 a 30.082859,15.625001 0 0 0 -30.06836,15.47071 c 10.50874,0.11131 21.05134,-1.62885 30.46875,-5.25196 5.63706,-2.16871 10.59645,-4.90909 14.76367,-8.07031 a 30.082859,15.625001 0 0 0 -15.16406,-2.14844 z"
           transform="scale(0.26458333)"
           id="path942" />
        <path
           style="fill:none;stroke:#d45500;stroke-width:1.05833328;stroke-linecap:butt;stroke-linejoin:miter;stroke-miterlimit:4;stroke-dasharray:none;stroke-opacity:1"
           d="m 139.38106,155.34715 c 0,0 -1.52952,11.05854 -0.77563,16.51922 1.27733,9.25221 7.18873,17.38784 7.18873,17.38784"
           id="path947"
           clip-path="url(#clipPath970)" />
        <path
           id="path949"
           d="m 187.60314,155.34715 c 0,0 1.52952,11.05854 0.77563,16.51922 -1.27733,9.25221 -7.18873,17.38784 -7.18873,17.38784"
           style="fill:none;stroke:#d45500;stroke-width:1.05833328;stroke-linecap:butt;stroke-linejoin:miter;stroke-miterlimit:4;stroke-dasharray:none;stroke-opacity:1"
           clip-path="url(#clipPath964)" />
        <ellipse
           style="opacity:1;fill:#aa4400;fill-opacity:1;fill-rule:nonzero;stroke:none;stroke-width:1.40795743;stroke-linecap:round;stroke-linejoin:round;stroke-miterlimit:4;stroke-dasharray:none;stroke-dashoffset:0;stroke-opacity:1"
           id="ellipse951"
           cx="163.23318"
           cy="155.04562"
           rx="33.072918"
           ry="5.5783982" />
        <path
           style="opacity:1;fill:#ff2a2a;fill-opacity:1;fill-rule:nonzero;stroke:none;stroke-width:1.72128248;stroke-linecap:round;stroke-linejoin:round;stroke-miterlimit:4;stroke-dasharray:none;stroke-dashoffset:0;stroke-opacity:1"
           d="m 120.3327,123.50588 v 31.54071 h 9.82731 a 33.072916,5.5783982 0 0 0 33.07292,5.57743 33.072916,5.5783982 0 0 0 33.0724,-5.57743 h 9.82834 v -31.54071 z"
           id="rect974" />
        <g
           id="g995"
           transform="translate(9.3730165,60.293244)">
          <g
             transform="translate(-0.20011154)"
             id="g989">
            <path
               style="opacity:1;fill:#008080;fill-opacity:1;fill-rule:nonzero;stroke:none;stroke-width:1.2917093;stroke-linecap:round;stroke-linejoin:round;stroke-miterlimit:4;stroke-dasharray:none;stroke-dashoffset:0;stroke-opacity:1"
               d="m 164.30449,77.273789 v 8.995833 c 0,0 0,0 -8.99583,-4.497916 8.99583,-4.497917 8.99583,-4.497917 8.99583,-4.497917 z"
               id="rect982" />
            <path
               id="path985"
               d="m 143.81607,77.273789 v 8.995833 c 0,0 0,0 8.99583,-4.497916 -8.99583,-4.497917 -8.99583,-4.497917 -8.99583,-4.497917 z"
               style="opacity:1;fill:#008080;fill-opacity:1;fill-rule:nonzero;stroke:none;stroke-width:1.2917093;stroke-linecap:round;stroke-linejoin:round;stroke-miterlimit:4;stroke-dasharray:none;stroke-dashoffset:0;stroke-opacity:1" />
          </g>
          <circle
             r="4.4979167"
             cy="81.771706"
             cx="153.86017"
             id="path980"
             style="opacity:1;fill:#00ff00;fill-opacity:1;fill-rule:nonzero;stroke:none;stroke-width:1.11948144;stroke-linecap:round;stroke-linejoin:round;stroke-miterlimit:4;stroke-dasharray:none;stroke-dashoffset:0;stroke-opacity:1" />
        </g>
        <g
           id="g1003"
           transform="translate(-13.092712,67.622059)">
          <rect
             y="70.781242"
             x="175.78256"
             height="13.65439"
             width="1.0866815"
             id="rect999"
             style="opacity:1;fill:#cccccc;fill-opacity:1;fill-rule:nonzero;stroke:none;stroke-width:0.89880204;stroke-linecap:round;stroke-linejoin:round;stroke-miterlimit:4;stroke-dasharray:none;stroke-dashoffset:0;stroke-opacity:1" />
          <circle
             r="3.96875"
             cy="68.4189"
             cx="176.3259"
             id="path997"
             style="opacity:1;fill:#800080;fill-opacity:1;fill-rule:nonzero;stroke:none;stroke-width:1.05833328;stroke-linecap:round;stroke-linejoin:round;stroke-miterlimit:4;stroke-dasharray:none;stroke-dashoffset:0;stroke-opacity:1" />
        </g>
      </g>
    </g>
  </g>
</svg>
