<svg
   class='jellyfish'
   viewBox="0 0 181.55476 264.79385"
   preserveAspectRatio='xMinYMin'>
  <g
     transform="translate(-52.031246,-761.71177)"
     id="layer1">
    <g
       id="g5313">
      <path
         style="opacity:1;fill:#ffffff;fill-opacity:1;stroke:none;stroke-width:2;stroke-linecap:round;stroke-linejoin:round;stroke-miterlimit:4;stroke-dasharray:none;stroke-opacity:1"
         d="m 142.80273,9.3496094 c -49.705626,2.2e-6 -89.999996,40.2943736 -89.999996,89.9999996 0.03703,6.789731 -2.882055,15.930821 2.400391,20.162111 22.908137,18.34965 57.661355,-8.91222 87.599605,-8.92969 29.94915,0.0547 64.67557,27.38519 87.59375,9.04492 5.31437,-4.25282 2.37602,-13.44883 2.40625,-20.277341 0,-49.705627 -40.29437,-89.9999996 -90,-89.9999996 z"
         id="path5265"
         transform="translate(0,752.36216)" />
      <circle
         style="opacity:1;fill:#000000;fill-opacity:0.78431373;stroke:none;stroke-width:2;stroke-linecap:round;stroke-linejoin:round;stroke-miterlimit:4;stroke-dasharray:none;stroke-opacity:1"
         id="path5280"
         cx="89.18692"
         cy="824.29065"
         r="5" />
      <circle
         r="5"
         cy="823.33936"
         cx="194.77731"
         id="circle5282"
         style="opacity:1;fill:#000000;fill-opacity:0.78431373;stroke:none;stroke-width:2;stroke-linecap:round;stroke-linejoin:round;stroke-miterlimit:4;stroke-dasharray:none;stroke-opacity:1" />
      <path
         id="path5304"
         style="fill:none;fill-rule:evenodd;stroke:#ffffff;stroke-width:11.16620922;stroke-linecap:round;stroke-linejoin:round;stroke-miterlimit:4;stroke-dasharray:none;stroke-opacity:0.60784314"
         d="m 91.815679,873.90397 c -1.884541,4.05555 -10.834449,23.92406 -10.88465,35.58276 -0.05772,13.40521 11.683944,24.13132 11.230414,37.52401 -0.448432,13.24213 -13.440057,22.46192 -13.570084,35.71561 -0.137152,13.97996 13.570084,38.12685 13.570084,38.12685" />
      <path
         id="path5288"
         d="m 156.97134,862.09004 c 0,0 10.61533,23.33088 10.66864,36.38629 0.0548,13.43027 -11.09948,24.17642 -10.66864,37.59414 0.426,13.26688 12.76775,22.50391 12.89127,35.78237 0.13029,14.00609 -12.89127,38.19806 -12.89127,38.19806"
         style="fill:none;fill-rule:evenodd;stroke:#ffffff;stroke-width:10.893507;stroke-linecap:round;stroke-linejoin:round;stroke-miterlimit:4;stroke-dasharray:none;stroke-opacity:0.60784314" />
      <path
         style="fill:none;fill-rule:evenodd;stroke:#ffffff;stroke-width:10.893507;stroke-linecap:round;stroke-linejoin:round;stroke-miterlimit:4;stroke-dasharray:none;stroke-opacity:0.60784314"
         d="m 125.59288,862.09002 c 0,0 -10.61533,23.33088 -10.66864,36.38629 -0.0548,13.43027 11.09948,24.17642 10.66864,37.59414 -0.426,13.26688 -12.76774,22.50391 -12.89127,35.78237 -0.13029,14.00609 12.89127,38.19808 12.89127,38.19808"
         id="path5290" />
      <path
         id="path5292"
         d="m 196.44882,873.02962 c 0,0 10.61533,23.33088 10.66863,36.38629 0.0548,13.43027 -11.09947,24.17642 -10.66863,37.59414 0.426,13.26688 12.76774,22.50391 12.89127,35.78237 0.13029,14.00606 -12.89127,38.19808 -12.89127,38.19808"
         style="fill:none;fill-rule:evenodd;stroke:#ffffff;stroke-width:10.893507;stroke-linecap:round;stroke-linejoin:round;stroke-miterlimit:4;stroke-dasharray:none;stroke-opacity:0.60784314" />
      <path
         style="opacity:1;fill:#000000;fill-opacity:1;stroke:#000000;stroke-width:5.02543926;stroke-linecap:round;stroke-linejoin:round;stroke-miterlimit:4;stroke-dasharray:none;stroke-opacity:1"
         d="m 122.27148,83.111328 a 19.963839,10.689008 0 0 0 -0.0215,0.238281 19.963839,10.689008 0 0 0 19.96484,10.689453 19.963839,10.689008 0 0 0 19.96289,-10.689453 19.963839,10.689008 0 0 0 -0.0156,-0.238281 l -39.89063,0 z"
         transform="translate(0,752.36216)"
         id="path5294" />
    </g>
  </g>
</svg>
