<svg class="domo" xmlns="http://www.w3.org/2000/svg" fill="none" viewBox="0 0 594 572">
  <g class="domo__arm domo__arm--right">
    <path fill="#83533A" d="M513.648 469c9.325 18.801 26.553 22.465 45.354 13.14s26.482-32.127 17.157-50.928c-4.16-8.387-14.438-12.789-18.975-18-4.536-5.212-73.514-148.213-73.514-148.213l-51.959 25.772S503.648 433 505.225 438.984c1.577 5.984 4.263 21.629 8.423 30.016z"/>
    <path fill="url(#paint0_linear)" d="M513.648 469c9.325 18.801 26.553 22.465 45.354 13.14s26.482-32.127 17.157-50.928c-4.16-8.387-14.438-12.789-18.975-18-4.536-5.212-73.514-148.213-73.514-148.213l-51.959 25.772S503.648 433 505.225 438.984c1.577 5.984 4.263 21.629 8.423 30.016z"/>
  </g>
  <g class="domo__arm domo__arm--left">
    <path fill="#83533A" d="M79.396 463c-9.325 18.801-26.552 22.465-45.354 13.14-18.8-9.325-26.482-32.127-17.157-50.928 4.16-8.387 14.438-12.789 18.975-18 4.536-5.212 73.514-148.213 73.514-148.213l51.96 25.772S89.396 427 87.819 432.984c-1.576 5.984-4.263 21.629-8.423 30.016z"/>
    <path fill="url(#paint1_linear)" d="M79.396 463c-9.325 18.801-26.552 22.465-45.354 13.14-18.8-9.325-26.482-32.127-17.157-50.928 4.16-8.387 14.438-12.789 18.975-18 4.536-5.212 73.514-148.213 73.514-148.213l51.96 25.772S89.396 427 87.819 432.984c-1.576 5.984-4.263 21.629-8.423 30.016z"/>
  </g>
  <path class="domo__body" fill="#83533A" d="M142 0c-24.853 0-45 20.147-45 45v484.721c-.02.104-.036.21-.049.317L92.677 565.4A5.002 5.002 0 0097 570.96v.04h180v-.053a5.002 5.002 0 004.219-5.628l-4.143-30.132a5.161 5.161 0 00-.076-.419v-8.403c1.429-12.19 6.415-22.865 19.5-22.865 13.625 0 18.869 11.575 20.5 24.383v7.385a5.161 5.161 0 00-.076.419l-4.143 30.132a5 5 0 004.954 5.681h178.624a5 5 0 004.964-5.6l-4.274-35.362c-.008-.065-.018-.13-.028-.195a2.387 2.387 0 00-.021-.122V45c0-24.853-20.147-45-45-45H142z"/>
  <path fill="url(#paint2_linear)" d="M142 0c-24.853 0-45 20.147-45 45v484.721c-.02.104-.036.21-.049.317L92.677 565.4A5.002 5.002 0 0097 570.96v.04h180v-.053a5.002 5.002 0 004.219-5.628l-4.143-30.132a5.161 5.161 0 00-.076-.419v-8.403c1.429-12.19 6.415-22.865 19.5-22.865 13.625 0 18.869 11.575 20.5 24.383v7.385a5.161 5.161 0 00-.076.419l-4.143 30.132a5 5 0 004.954 5.681h178.624a5 5 0 004.964-5.6l-4.274-35.362c-.008-.065-.018-.13-.028-.195a2.387 2.387 0 00-.021-.122V45c0-24.853-20.147-45-45-45H142z"/>
  <path fill="url(#paint3_linear)" d="M142 0c-24.853 0-45 20.147-45 45v484.721c-.02.104-.036.21-.049.317L92.677 565.4A5.002 5.002 0 0097 570.96v.04h180v-.053a5.002 5.002 0 004.219-5.628l-4.143-30.132a5.161 5.161 0 00-.076-.419v-8.403c1.429-12.19 6.415-22.865 19.5-22.865 13.625 0 18.869 11.575 20.5 24.383v7.385a5.161 5.161 0 00-.076.419l-4.143 30.132a5 5 0 004.954 5.681h178.624a5 5 0 004.964-5.6l-4.274-35.362c-.008-.065-.018-.13-.028-.195a2.387 2.387 0 00-.021-.122V45c0-24.853-20.147-45-45-45H142z"/>
  <path fill="url(#paint4_linear)" d="M142 0c-24.853 0-45 20.147-45 45v484.721c-.02.104-.036.21-.049.317L92.677 565.4A5.002 5.002 0 0097 570.96v.04h180v-.053a5.002 5.002 0 004.219-5.628l-4.143-30.132a5.161 5.161 0 00-.076-.419v-8.403c1.429-12.19 6.415-22.865 19.5-22.865 13.625 0 18.869 11.575 20.5 24.383v7.385a5.161 5.161 0 00-.076.419l-4.143 30.132a5 5 0 004.954 5.681h178.624a5 5 0 004.964-5.6l-4.274-35.362c-.008-.065-.018-.13-.028-.195a2.387 2.387 0 00-.021-.122V45c0-24.853-20.147-45-45-45H142z"/>
  <path fill="url(#paint5_linear)" d="M142 0c-24.853 0-45 20.147-45 45v484.721c-.02.104-.036.21-.049.317L92.677 565.4A5.002 5.002 0 0097 570.96v.04h180v-.053a5.002 5.002 0 004.219-5.628l-4.143-30.132a5.161 5.161 0 00-.076-.419v-8.403c1.429-12.19 6.415-22.865 19.5-22.865 13.625 0 18.869 11.575 20.5 24.383v7.385a5.161 5.161 0 00-.076.419l-4.143 30.132a5 5 0 004.954 5.681h178.624a5 5 0 004.964-5.6l-4.274-35.362c-.008-.065-.018-.13-.028-.195a2.387 2.387 0 00-.021-.122V45c0-24.853-20.147-45-45-45H142z"/>
  <path class="domo__anger" fill="url(#paint6_linear)" d="M142 0c-24.853 0-45 20.147-45 45v484.721c-.02.104-.036.21-.049.317L92.677 565.4A5.002 5.002 0 0097 570.96v.04h180v-.053a5.002 5.002 0 004.219-5.628l-4.143-30.132a5.161 5.161 0 00-.076-.419v-8.403c1.429-12.19 6.415-22.865 19.5-22.865 13.625 0 18.869 11.575 20.5 24.383v7.385a5.161 5.161 0 00-.076.419l-4.143 30.132a5 5 0 004.954 5.681h178.624a5 5 0 004.964-5.6l-4.274-35.362c-.008-.065-.018-.13-.028-.195a2.387 2.387 0 00-.021-.122V45c0-24.853-20.147-45-45-45H142z"/>
  <g class="domo__eyes">
    <ellipse cx="162.922" cy="83" fill="#000" rx="24.922" ry="25"/>
    <ellipse cx="431.922" cy="83" fill="#000" rx="24.922" ry="25"/>
    <path class="domo__eyes--angry" fill="#000" fill-rule="evenodd" d="M413.382 93.806c18.225 0 33-13.208 33-29.5 0-.776-.034-1.545-.1-2.306 6.692 4.483 11.1 12.128 11.1 20.806 0 13.807-11.158 25-24.922 25-9.889 0-18.433-5.779-22.46-14.153 1.112.1 2.24.153 3.382.153zM182 93.806c-18.225 0-33-13.208-33-29.5 0-.776.034-1.545.099-2.306C142.407 66.483 138 74.128 138 82.806c0 13.807 11.158 25 24.922 25 9.889 0 18.433-5.779 22.46-14.153-1.112.1-2.24.153-3.382.153z" clip-rule="evenodd"/>
  </g>
  <rect class="domo__mouth" width="250" height="240" x="172" y="155" fill="#D50000" rx="20"/>
  <g fill="#fff" clip-path="url(#mouth)">
    <path d="M172 126h250v39s-27.5 28-31.25 28-27.75-28-31.25-28-27 28-31.25 28-26.75-28-31.25-28-25 28-29 28-29.5-28-33.5-28-26 28-31.25 28S172 165 172 165v-39zM422 421H172v-39s27.5-28 31.25-28 27.75 28 31.25 28 27-28 31.25-28 26.75 28 31.25 28 25-28 29-28 29.5 28 33.5 28 26-28 31.25-28S422 382 422 382v39z"/>
    <path class="domo__teeth--bottom" d="M172 126h250v39s-27.5 28-31.25 28-27.75-28-31.25-28-27 28-31.25 28-26.75-28-31.25-28-25 28-29 28-29.5-28-33.5-28-26 28-31.25 28S172 165 172 165v-39zM422 421H172v-39s27.5-28 31.25-28 27.75 28 31.25 28 27-28 31.25-28 26.75 28 31.25 28 25-28 29-28 29.5 28 33.5 28 26-28 31.25-28S422 382 422 382v39z"/>
  </g>
  <defs>
    <clipPath id="mouth">
      <rect id="mouth-clip" width="250" height="240" x="172" y="155" rx="20"/>
    </clipPath>
    <linearGradient id="paint0_linear" x1="559.002" x2="457.69" y1="482.14" y2="277.885" gradientUnits="userSpaceOnUse">
      <stop stop-color="#603D2A"/>
      <stop offset="1" stop-color="#603D2A" stop-opacity="0"/>
    </linearGradient>
    <linearGradient id="paint1_linear" x1="34.042" x2="135.354" y1="476.14" y2="271.885" gradientUnits="userSpaceOnUse">
      <stop stop-color="#603D2A"/>
      <stop offset="1" stop-color="#603D2A" stop-opacity="0"/>
    </linearGradient>
    <linearGradient id="paint2_linear" x1="297" x2="297" y1="0" y2="571.5" gradientUnits="userSpaceOnUse">
      <stop offset=".863" stop-color="#83533A" stop-opacity="0"/>
      <stop offset="1" stop-color="#603D2A"/>
    </linearGradient>
    <linearGradient id="paint3_linear" x1="297" x2="297" y1="0" y2="571.5" gradientUnits="userSpaceOnUse">
      <stop stop-color="#603D2A"/>
      <stop offset=".285" stop-color="#603D2A" stop-opacity="0"/>
    </linearGradient>
    <linearGradient id="paint4_linear" x1="501" x2="98" y1="286" y2="286" gradientUnits="userSpaceOnUse">
      <stop offset="0" stop-color="#603D2A"/>
      <stop offset=".538" stop-color="#603D2A" stop-opacity="0"/>
    </linearGradient>
    <linearGradient id="paint5_linear" x1="98" x2="501" y1="286" y2="286" gradientUnits="userSpaceOnUse">
      <stop stop-color="#603D2A"/>
      <stop offset=".501" stop-color="#603D2A" stop-opacity="0"/>
    </linearGradient>
    <linearGradient id="paint6_linear" x1="297" x2="297" y1="0" y2="571.5" gradientUnits="userSpaceOnUse">
      <stop stop-color="#D50000"/>
      <stop offset=".344" stop-color="#D50000" stop-opacity="0"/>
    </linearGradient>
  </defs>
</svg>