<svg width="594" height="572" viewBox="0 0 594 572" fill="none" xmlns="http://www.w3.org/2000/svg">
<path d="M513.648 469C522.973 487.801 540.201 491.465 559.002 482.14C577.803 472.815 585.484 450.013 576.159 431.212C571.999 422.825 561.721 418.423 557.184 413.212C552.648 408 483.67 264.999 483.67 264.999L431.711 290.771C431.711 290.771 503.648 433 505.225 438.984C506.802 444.968 509.488 460.613 513.648 469Z" fill="#83533A"/>
<path d="M513.648 469C522.973 487.801 540.201 491.465 559.002 482.14C577.803 472.815 585.484 450.013 576.159 431.212C571.999 422.825 561.721 418.423 557.184 413.212C552.648 408 483.67 264.999 483.67 264.999L431.711 290.771C431.711 290.771 503.648 433 505.225 438.984C506.802 444.968 509.488 460.613 513.648 469Z" fill="url(#paint0_linear)"/>
<path d="M79.3963 463C70.0708 481.801 52.8436 485.465 34.0425 476.14C15.2413 466.815 7.55978 444.013 16.8852 425.212C21.0454 416.825 31.3235 412.423 35.8599 407.212C40.3963 402 109.374 258.999 109.374 258.999L161.334 284.771C161.334 284.771 89.3963 427 87.8194 432.984C86.2426 438.968 83.5565 454.613 79.3963 463Z" fill="#83533A"/>
<path d="M79.3963 463C70.0708 481.801 52.8436 485.465 34.0425 476.14C15.2413 466.815 7.55978 444.013 16.8852 425.212C21.0454 416.825 31.3235 412.423 35.8599 407.212C40.3963 402 109.374 258.999 109.374 258.999L161.334 284.771C161.334 284.771 89.3963 427 87.8194 432.984C86.2426 438.968 83.5565 454.613 79.3963 463Z" fill="url(#paint1_linear)"/>
<path d="M142 0C117.147 0 97 20.1472 97 45V529.721C96.9806 529.825 96.9644 529.931 96.9515 530.038L92.6769 565.4C92.3431 568.162 94.3186 570.618 97 570.96V571H277V570.947C279.664 570.556 281.598 568.075 281.219 565.319L277.076 535.187C277.056 535.045 277.031 534.905 277 534.768V526.365C278.429 514.175 283.415 503.5 296.5 503.5C310.125 503.5 315.369 515.075 317 527.883V535.268C316.969 535.405 316.944 535.545 316.924 535.687L312.781 565.819C312.368 568.823 314.702 571.5 317.735 571.5H496.359C499.359 571.5 501.683 568.878 501.323 565.9L497.049 530.538C497.041 530.473 497.031 530.408 497.021 530.343C497.015 530.302 497.008 530.261 497 530.221V45C497 20.1472 476.853 0 452 0H142Z" fill="#83533A"/>
<path d="M142 0C117.147 0 97 20.1472 97 45V529.721C96.9806 529.825 96.9644 529.931 96.9515 530.038L92.6769 565.4C92.3431 568.162 94.3186 570.618 97 570.96V571H277V570.947C279.664 570.556 281.598 568.075 281.219 565.319L277.076 535.187C277.056 535.045 277.031 534.905 277 534.768V526.365C278.429 514.175 283.415 503.5 296.5 503.5C310.125 503.5 315.369 515.075 317 527.883V535.268C316.969 535.405 316.944 535.545 316.924 535.687L312.781 565.819C312.368 568.823 314.702 571.5 317.735 571.5H496.359C499.359 571.5 501.683 568.878 501.323 565.9L497.049 530.538C497.041 530.473 497.031 530.408 497.021 530.343C497.015 530.302 497.008 530.261 497 530.221V45C497 20.1472 476.853 0 452 0H142Z" fill="url(#paint2_linear)"/>
<path d="M142 0C117.147 0 97 20.1472 97 45V529.721C96.9806 529.825 96.9644 529.931 96.9515 530.038L92.6769 565.4C92.3431 568.162 94.3186 570.618 97 570.96V571H277V570.947C279.664 570.556 281.598 568.075 281.219 565.319L277.076 535.187C277.056 535.045 277.031 534.905 277 534.768V526.365C278.429 514.175 283.415 503.5 296.5 503.5C310.125 503.5 315.369 515.075 317 527.883V535.268C316.969 535.405 316.944 535.545 316.924 535.687L312.781 565.819C312.368 568.823 314.702 571.5 317.735 571.5H496.359C499.359 571.5 501.683 568.878 501.323 565.9L497.049 530.538C497.041 530.473 497.031 530.408 497.021 530.343C497.015 530.302 497.008 530.261 497 530.221V45C497 20.1472 476.853 0 452 0H142Z" fill="url(#paint3_linear)"/>
<path d="M142 0C117.147 0 97 20.1472 97 45V529.721C96.9806 529.825 96.9644 529.931 96.9515 530.038L92.6769 565.4C92.3431 568.162 94.3186 570.618 97 570.96V571H277V570.947C279.664 570.556 281.598 568.075 281.219 565.319L277.076 535.187C277.056 535.045 277.031 534.905 277 534.768V526.365C278.429 514.175 283.415 503.5 296.5 503.5C310.125 503.5 315.369 515.075 317 527.883V535.268C316.969 535.405 316.944 535.545 316.924 535.687L312.781 565.819C312.368 568.823 314.702 571.5 317.735 571.5H496.359C499.359 571.5 501.683 568.878 501.323 565.9L497.049 530.538C497.041 530.473 497.031 530.408 497.021 530.343C497.015 530.302 497.008 530.261 497 530.221V45C497 20.1472 476.853 0 452 0H142Z" fill="url(#paint4_linear)"/>
<path d="M142 0C117.147 0 97 20.1472 97 45V529.721C96.9806 529.825 96.9644 529.931 96.9515 530.038L92.6769 565.4C92.3431 568.162 94.3186 570.618 97 570.96V571H277V570.947C279.664 570.556 281.598 568.075 281.219 565.319L277.076 535.187C277.056 535.045 277.031 534.905 277 534.768V526.365C278.429 514.175 283.415 503.5 296.5 503.5C310.125 503.5 315.369 515.075 317 527.883V535.268C316.969 535.405 316.944 535.545 316.924 535.687L312.781 565.819C312.368 568.823 314.702 571.5 317.735 571.5H496.359C499.359 571.5 501.683 568.878 501.323 565.9L497.049 530.538C497.041 530.473 497.031 530.408 497.021 530.343C497.015 530.302 497.008 530.261 497 530.221V45C497 20.1472 476.853 0 452 0H142Z" fill="url(#paint5_linear)"/>
<path d="M142 0C117.147 0 97 20.1472 97 45V529.721C96.9806 529.825 96.9644 529.931 96.9515 530.038L92.6769 565.4C92.3431 568.162 94.3186 570.618 97 570.96V571H277V570.947C279.664 570.556 281.598 568.075 281.219 565.319L277.076 535.187C277.056 535.045 277.031 534.905 277 534.768V526.365C278.429 514.175 283.415 503.5 296.5 503.5C310.125 503.5 315.369 515.075 317 527.883V535.268C316.969 535.405 316.944 535.545 316.924 535.687L312.781 565.819C312.368 568.823 314.702 571.5 317.735 571.5H496.359C499.359 571.5 501.683 568.878 501.323 565.9L497.049 530.538C497.041 530.473 497.031 530.408 497.021 530.343C497.015 530.302 497.008 530.261 497 530.221V45C497 20.1472 476.853 0 452 0H142Z" fill="url(#paint6_linear)"/>
<rect x="172" y="155" width="250" height="240" rx="20" fill="#D50000"/>
<ellipse cx="162.922" cy="83" rx="24.9216" ry="25" fill="black"/>
<ellipse cx="431.922" cy="83" rx="24.9216" ry="25" fill="black"/>
<path fill-rule="evenodd" clip-rule="evenodd" d="M413.382 93.8056C431.607 93.8056 446.382 80.598 446.382 64.3056C446.382 63.5297 446.348 62.7608 446.282 62C452.974 66.4827 457.382 74.1278 457.382 82.8056C457.382 96.6127 446.224 107.806 432.46 107.806C422.571 107.806 414.027 102.027 410 93.6526C411.112 93.7537 412.24 93.8056 413.382 93.8056Z" fill="black"/>
<path fill-rule="evenodd" clip-rule="evenodd" d="M182 93.8056C163.775 93.8056 149 80.598 149 64.3056C149 63.5297 149.034 62.7608 149.099 62C142.407 66.4827 138 74.1278 138 82.8056C138 96.6127 149.158 107.806 162.922 107.806C172.811 107.806 181.355 102.027 185.382 93.6526C184.27 93.7538 183.142 93.8056 182 93.8056Z" fill="black"/>
<mask id="mask0" mask-type="alpha" maskUnits="userSpaceOnUse" x="172" y="155" width="250" height="240">
<rect x="172" y="155" width="250" height="240" rx="20" fill="#D50000"/>
</mask>
<g mask="url(#mask0)">
<path d="M172 126H422V165C422 165 394.5 193 390.75 193C387 193 363 165 359.5 165C356 165 332.5 193 328.25 193C324 193 301.5 165 297 165C292.5 165 272 193 268 193C264 193 238.5 165 234.5 165C230.5 165 208.5 193 203.25 193C198 193 172 165 172 165V126Z" fill="white"/>
<path d="M422 421L172 421L172 382C172 382 199.5 354 203.25 354C207 354 231 382 234.5 382C238 382 261.5 354 265.75 354C270 354 292.5 382 297 382C301.5 382 322 354 326 354C330 354 355.5 382 359.5 382C363.5 382 385.5 354 390.75 354C396 354 422 382 422 382L422 421Z" fill="white"/>
</g>
<defs>
<linearGradient id="paint0_linear" x1="559.002" y1="482.14" x2="457.69" y2="277.885" gradientUnits="userSpaceOnUse">
<stop stop-color="#603D2A"/>
<stop offset="1" stop-color="#603D2A" stop-opacity="0"/>
</linearGradient>
<linearGradient id="paint1_linear" x1="34.0425" y1="476.14" x2="135.354" y2="271.885" gradientUnits="userSpaceOnUse">
<stop stop-color="#603D2A"/>
<stop offset="1" stop-color="#603D2A" stop-opacity="0"/>
</linearGradient>
<linearGradient id="paint2_linear" x1="297" y1="0" x2="297" y2="571.5" gradientUnits="userSpaceOnUse">
<stop offset="0.862642" stop-color="#83533A" stop-opacity="0"/>
<stop offset="1" stop-color="#603D2A"/>
</linearGradient>
<linearGradient id="paint3_linear" x1="297" y1="0" x2="297" y2="571.5" gradientUnits="userSpaceOnUse">
<stop stop-color="#603D2A"/>
<stop offset="0.285214" stop-color="#603D2A" stop-opacity="0"/>
</linearGradient>
<linearGradient id="paint4_linear" x1="501" y1="286" x2="98" y2="286" gradientUnits="userSpaceOnUse">
<stop offset="9.40035e-08" stop-color="#603D2A"/>
<stop offset="0.538462" stop-color="#603D2A" stop-opacity="0"/>
</linearGradient>
<linearGradient id="paint5_linear" x1="98" y1="286" x2="501" y2="286" gradientUnits="userSpaceOnUse">
<stop stop-color="#603D2A"/>
<stop offset="0.501241" stop-color="#603D2A" stop-opacity="0"/>
</linearGradient>
<linearGradient id="paint6_linear" x1="297" y1="0" x2="297" y2="571.5" gradientUnits="userSpaceOnUse">
<stop stop-color="#F40000"/>
<stop offset="0.34375" stop-color="#D50000" stop-opacity="0"/>
</linearGradient>
</defs>
</svg>
