<?xml version="1.0" encoding="UTF-8" standalone="no"?>
<svg
   xmlns:dc="http://purl.org/dc/elements/1.1/"
   xmlns:cc="http://creativecommons.org/ns#"
   xmlns:rdf="http://www.w3.org/1999/02/22-rdf-syntax-ns#"
   xmlns:svg="http://www.w3.org/2000/svg"
   xmlns="http://www.w3.org/2000/svg"
   id="svg861"
   version="1.1"
   viewBox="0 0 64.227877 27.003595"
   height="102.06083"
   width="242.75104">
  <defs
     id="defs855" />
  <metadata
     id="metadata858">
    <rdf:RDF>
      <cc:Work
         rdf:about="">
        <dc:format>image/svg+xml</dc:format>
        <dc:type
           rdf:resource="http://purl.org/dc/dcmitype/StillImage" />
        <dc:title></dc:title>
      </cc:Work>
    </rdf:RDF>
  </metadata>
  <g
     transform="translate(-6.900196,-263.7099)"
     id="layer1">
    <path
       id="path1434"
       d="m 38.973847,277.15623 c 0,0 -2.70583,-2.96577 -4.157993,-4.34924 -2.002503,-1.90777 -3.940912,-3.9421 -6.268132,-5.43664 -2.316096,-1.4874 -4.810073,-2.91387 -7.51536,-3.42189 -1.122795,-0.21085 -2.314033,-0.087 -3.421888,0.19188 -2.099616,0.52856 -4.176325,1.41975 -5.884367,2.7503 -1.356767,1.05691 -2.5073558,2.45209 -3.2619865,3.99754 -0.9402626,1.92561 -1.3775501,4.12574 -1.4283743,6.26805 -0.039808,1.67798 0.2872675,3.3885 0.88471,4.95702 0.6013204,1.5787 1.4771147,3.10573 2.6543608,4.31733 1.545301,1.5904 3.456547,2.95758 5.564565,3.64575 1.785873,0.58301 3.78235,0.63549 5.628526,0.28782 1.861449,-0.35054 3.56003,-1.35427 5.180801,-2.33456 1.81922,-1.10032 3.428421,-2.52493 5.020901,-3.93357 3.709398,-3.28118 6.938938,-7.07031 10.521504,-10.48952 1.692126,-1.61497 3.368939,-3.2537 5.180801,-4.73308 1.613635,-1.31753 3.154592,-2.81971 5.052883,-3.67773 1.781672,-0.80531 3.770144,-1.33844 5.724464,-1.27921 2.040268,0.0618 4.099343,0.7049 5.884368,1.69495 1.491844,0.82744 2.795529,2.04715 3.80565,3.42189 1.138283,1.54916 1.895621,3.38931 2.398519,5.24476 0.361562,1.33399 0.547122,2.7496 0.415745,4.12546 -0.155483,1.62832 -0.675095,3.23832 -1.407131,4.70109 -0.753789,1.50624 -1.7748,2.91226 -3.006145,4.0615 -1.201991,1.12184 -2.602818,2.11911 -4.157432,2.65436 -1.701002,0.58565 -3.582762,0.69215 -5.372685,0.51168 -1.818479,-0.18335 -3.611154,-0.77937 -5.244761,-1.59901 -1.833276,-0.91982 -3.405268,-2.30438 -4.95694,-3.64575 -2.811271,-2.43026 -7.834603,-7.93118 -7.834603,-7.93118"
       style="fill:none;stroke:#000000;stroke-width:0.26458332px;stroke-linecap:butt;stroke-linejoin:miter;stroke-opacity:1" />
  </g>
</svg>
