<?xml version="1.0" encoding="UTF-8"?>
<svg width="160.48mm" height="90.925mm" version="1.1" viewBox="0 0 160.4803 90.925102" xmlns="http://www.w3.org/2000/svg" xmlns:cc="http://creativecommons.org/ns#" xmlns:dc="http://purl.org/dc/elements/1.1/" xmlns:rdf="http://www.w3.org/1999/02/22-rdf-syntax-ns#">
 <metadata>
  <rdf:RDF>
   <cc:Work rdf:about="">
    <dc:format>image/svg+xml</dc:format>
    <dc:type rdf:resource="http://purl.org/dc/dcmitype/StillImage"/>
    <dc:title/>
   </cc:Work>
  </rdf:RDF>
 </metadata>
 <g transform="translate(8.3487 -101.75)" display="none">
  <rect x="40.065" y="166.22" width="63.5" height="26.458" ry="0" fill="#f00"/>
  <flowRoot transform="matrix(.26458 0 0 .26458 18.536 65.372)" fill="#000000" font-family="sans-serif" font-size="40px" letter-spacing="0px" word-spacing="0px" style="line-height:1.25" xml:space="preserve"><flowRegion><rect x="137.14" y="406.81" width="225.71" height="122.86"/></flowRegion><flowPara>Ship it</flowPara></flowRoot>
 </g>
 <g transform="translate(8.3487 -101.75)">
  <rect x="40.065" y="166.22" width="63.5" height="26.458" fill="#f0f"/>
  <rect x="41.3" y="167.46" width="61.03" height="23.988" fill="#f0f" stroke="#2b0000" stroke-linecap="square" stroke-width="2.4698"/>
  <g>
   <rect x="40.065" y="164.63" width="5.2917" height="5.2917" fill="#f00"/>
   <circle cx="42.711" cy="167.28" r="1.5875" fill="#d35f5f"/>
   <path d="m40.065 168.87v1.0583h5.2917v-1.0583z" fill="#a02c2c"/>
  </g>
  <g transform="translate(-1.4032)">
   <rect x="41.469" y="187.39" width="2.4853" height="5.2917" fill="#f00"/>
   <path d="m41.469 191.62v1.0583h2.4853v-1.0583z" fill="#a02c2c"/>
  </g>
  <g transform="translate(58.208)">
   <rect x="40.065" y="164.63" width="5.2917" height="5.2917" fill="#f00"/>
   <circle cx="42.711" cy="167.28" r="1.5875" fill="#d35f5f"/>
   <path transform="matrix(.26458 0 0 .26458 40.065 116.71)" d="m0 197.14v4h20v-4z" fill="#a02c2c"/>
  </g>
  <g transform="translate(59.611 1.0967e-5)">
   <rect x="41.469" y="187.39" width="2.4853" height="5.2917" fill="#f00"/>
   <path d="m41.469 191.62v1.0583h2.4853v-1.0583z" fill="#a02c2c"/>
  </g>
  <g fill="#800080">
   <rect x="92.637" y="185.2" width="7.0158" height="4.2095"/>
   <rect transform="scale(1,-1)" x="96.286" y="-183.61" width="3.3676" height="2.8999"/>
   <rect x="48.484" y="190.83" width="10.583" height="1.3229"/>
   <rect x="80.102" y="190.83" width="10.583" height="1.3229"/>
  </g>
  <g transform="matrix(.50503 0 0 .50503 13.265 57.036)">
   <path transform="matrix(.26458 0 0 .26458 40.065 116.71)" d="m141.88 377.91 6.8574 7.0098v-7.0098z"/>
   <path transform="matrix(.26458 0 0 .26458 40.065 116.71)" d="m134.89 377.91 9.7852 10h4.0703v-2.9902l-6.8574-7.0098z" fill="#fc0"/>
   <path transform="matrix(.26458 0 0 .26458 40.065 116.71)" d="m127.89 377.91 9.7852 10h6.9942l-9.7852-10z"/>
   <path transform="matrix(.26458 0 0 .26458 40.065 116.71)" d="m120.9 377.91 9.7852 10h6.9941l-9.7852-10z" fill="#fc0"/>
   <path transform="matrix(.26458 0 0 .26458 40.065 116.71)" d="m113.9 377.91 9.7852 10h6.9961l-9.7852-10z"/>
   <path transform="matrix(.26458 0 0 .26458 40.065 116.71)" d="m106.91 377.91 9.7852 10h6.9961l-9.7852-10z" fill="#fc0"/>
   <path transform="matrix(.26458 0 0 .26458 40.065 116.71)" d="m99.91 377.91 9.7852 10h6.9961l-9.7852-10z"/>
   <path transform="matrix(.26458 0 0 .26458 40.065 116.71)" d="m92.916 377.91 9.7852 10h6.9941l-9.7852-10z" fill="#fc0"/>
   <path transform="matrix(.26458 0 0 .26458 40.065 116.71)" d="m88.742 377.91v2.8828l6.9629 7.1172h6.9961l-9.7852-10z"/>
   <path transform="matrix(.26458 0 0 .26458 40.065 116.71)" d="m88.742 380.79v7.1172h6.9629z" fill="#fc0"/>
  </g>
  <g transform="matrix(.50503 0 0 .50503 58.165 57.036)">
   <path transform="matrix(.26458 0 0 .26458 40.065 116.71)" d="m141.88 377.91 6.8574 7.0098v-7.0098z"/>
   <path transform="matrix(.26458 0 0 .26458 40.065 116.71)" d="m134.89 377.91 9.7852 10h4.0703v-2.9902l-6.8574-7.0098z" fill="#fc0"/>
   <path transform="matrix(.26458 0 0 .26458 40.065 116.71)" d="m127.89 377.91 9.7852 10h6.9942l-9.7852-10z"/>
   <path transform="matrix(.26458 0 0 .26458 40.065 116.71)" d="m120.9 377.91 9.7852 10h6.9941l-9.7852-10z" fill="#fc0"/>
   <path transform="matrix(.26458 0 0 .26458 40.065 116.71)" d="m113.9 377.91 9.7852 10h6.9961l-9.7852-10z"/>
   <path transform="matrix(.26458 0 0 .26458 40.065 116.71)" d="m106.91 377.91 9.7852 10h6.9961l-9.7852-10z" fill="#fc0"/>
   <path transform="matrix(.26458 0 0 .26458 40.065 116.71)" d="m99.91 377.91 9.7852 10h6.9961l-9.7852-10z"/>
   <path transform="matrix(.26458 0 0 .26458 40.065 116.71)" d="m92.916 377.91 9.7852 10h6.9941l-9.7852-10z" fill="#fc0"/>
   <path transform="matrix(.26458 0 0 .26458 40.065 116.71)" d="m88.742 377.91v2.8828l6.9629 7.1172h6.9961l-9.7852-10z"/>
   <path transform="matrix(.26458 0 0 .26458 40.065 116.71)" d="m88.742 380.79v7.1172h6.9629z" fill="#fc0"/>
  </g>
  <g transform="matrix(.26458 0 0 .26458 -70.342 -86.857)">
   <g transform="matrix(1.341 0 0 1.341 -51.157 -297.33)">
    <g transform="matrix(.17507 0 0 .17507 357.19 815.64)">
     <path d="m242.82 893.87c2e-5 61.252-36.059 106.28-94.208 106.28-54.326 0-91.435-45.033-91.435-106.28 4e-6 -61.252 37.667-85.951 90.973-85.951 53.306 0 94.67 24.699 94.67 85.951z" fill="#c9d1ce"/>
     <path d="m211.93 958.1c2e-5 19.908-28.601 38.819-63.312 38.819s-60.539-18.911-60.539-38.819c0-19.908 26.29-33.273 61.001-33.273s62.85 13.366 62.85 33.273z" fill="#a3a9a8"/>
     <path d="m181.19 931.76c0 7.6568-19.04 24.493-30.27 24.493s-32.118-16.836-32.118-24.493 20.239-12.478 31.469-12.478 30.918 4.8207 30.918 12.478z" fill="#323433" fill-opacity=".94118"/>
     <g>
      <ellipse cx="68.304" cy="827.68" rx="23.762" ry="23.111" fill="#c9d1ce"/>
      <path d="m84.784 826.32a16.549 16.095 0 0 0 -16.48 -14.731 16.549 16.095 0 0 0 -16.548 16.096 16.549 16.095 0 0 0 16.548 16.096 16.549 16.095 0 0 0 1.1315 -0.0389c0.81528-1.337 1.5818-2.7272 2.4717-3.9833 1.572-2.219 3.2583-4.3124 5.0547-6.2835 1.7964-1.9711 3.7024-3.8191 5.7124-5.548 0.66884-0.57531 1.4175-1.0582 2.1092-1.6071z" fill="#a3a9a8"/>
      <ellipse transform="scale(-1,1)" cx="-231.24" cy="827.68" rx="23.762" ry="23.111" fill="#c9d1ce"/>
      <path d="m214.76 826.32a16.549 16.095 0 0 1 16.48 -14.731 16.549 16.095 0 0 1 16.548 16.096 16.549 16.095 0 0 1 -16.548 16.096 16.549 16.095 0 0 1 -1.1315 -0.0389c-0.81528-1.337-1.5818-2.7272-2.4717-3.9833-1.572-2.219-3.2583-4.3124-5.0547-6.2835-1.7964-1.9711-3.7024-3.8191-5.7124-5.548-0.66885-0.57531-1.4175-1.0582-2.1092-1.6071z" fill="#a3a9a8"/>
      <path d="m147.73 815.36c-13.396 0-26.023 1.0793-37.672 3.3344v11.353c11.649-2.255 24.276-3.3344 37.672-3.3344 15.104 0 29.458 1.3725 42.666 4.256v-11.355c-13.207-2.8832-27.563-4.2544-42.666-4.2544z" fill="#6a6f6d"/>
      <path d="m165.2 816.01a15.875 7.8125 0 0 1 4.4297 5.4121 15.875 7.8125 0 0 1 -5.4141 5.8633c9.1163 0.65256 17.878 1.8659 26.186 3.6797v-11.355c-8.0069-1.7479-16.44-2.9317-25.201-3.5996z" fill="#a3a9a8"/>
      <path d="m148.06 789.04c-43.489 0-75.872 19.481-83.284 63.856 12.322-10.516 27.906-18.694 45.285-22.651 0 0-2.4459-12.499 10.25-16.029 14.513-4.0352 18.404-3.9436 27.749-4 10.2-0.0616 15.075-0.0706 30.339 4 14.187 3.7833 12 17.113 12 17.113 17.217 4.421 31.845 10.722 44.263 21.567-7.2761-46.029-42.375-63.856-86.602-63.856z" fill="#323433"/>
     </g>
     <circle cx="97.242" cy="894.08" r="11.185" fill="#faa" fill-opacity=".57699"/>
     <circle cx="201.85" cy="894.08" r="11.185" fill="#faa" fill-opacity=".57699"/>
     <path d="m96.601 864.04a21.271 21.271 0 0 1 -6.7808 15.572 21.271 21.271 0 0 1 -16.019 5.6439" fill="none" stroke="#e9afaf" stroke-linecap="round" stroke-linejoin="round" stroke-width="2.9827"/>
     <path transform="scale(-1,1)" d="m-203.53 864.04a21.271 21.271 0 0 1 -6.7808 15.572 21.271 21.271 0 0 1 -16.019 5.6439" fill="none" stroke="#e9afaf" stroke-linecap="round" stroke-linejoin="round" stroke-width="2.9827"/>
     <g>
      <path d="m77.29 854.61c-6.5083-0.0698-13.363 0.18154-22.8 2.1312l-14.318 2.7683 2.3077 15.038c2.0938 0.29341 4.9836 1.0162 6.3525 2.8485 3.5275 4.7218 1.2013 9.2864 2.0029 17.625 2.6705 27.781 11.921 33.595 26.246 35.266 7.5021 0.87503 22.816 2.2824 33.279-1.4323 9.4564-3.3572 18.223-9.8686 24.159-17.96 6.2743-8.5534 6.9484-18.236 10.843-25.726 2.7601-5.3084 7.7001-4.1762 9.2583 0 2.9512 7.9098 4.3784 17.173 10.653 25.726 5.9352 8.0912 14.702 14.603 24.159 17.96 10.464 3.7147 25.777 2.3073 33.279 1.4323 14.326-1.6709 23.578-7.4852 26.249-35.266 0.80157-8.3387-1.5245-12.903 2.0029-17.625 1.414-1.8928 4.4635-2.6113 6.5679-2.8852l2.2962-14.962-14.522-2.8073c-15.099-3.1195-23.591-1.8894-34.622-1.9571-4.0931-0.0251-8.7771 0.11452-13.136 0.57291-8.1258 0.8545-16.176 2.3816-24.175 4.0494-7.9873 1.6654-14.94 6.1008-23.097 5.9423-7.8689-0.15288-15.616-4.9765-23.313-6.616-8.1316-1.732-14.824-3.1062-24.713-3.3756-4.7934-0.13059-9.0427-0.59804-13.136-0.57291-4.1369 0.0253-7.9177-0.13226-11.823-0.17417z" fill="#585b5a"/>
      <path d="m85.28 860.47c-10.088 0.16724-24.807 0.70593-28.481 12.251-3.2757 15.248-3.1207 32.76 5.736 45.627 7.3962 10.745 23.365 8.6366 35.257 8.2195 18.899-0.66279 35.138-15.383 40.159-33.389 1.9291-7.7531 4.1679-13.928 0.696-19.382-5.9462-9.3399-20.099-11.778-30.581-12.967-7.5181-0.3062-15.195-0.44294-22.787-0.35988z" fill="#909694"/>
      <path d="m56.04 864.3a4.079 1.6922 0 0 1 -4.0581 1.6921 4.079 1.6922 0 0 1 -4.0997 -1.6748 4.079 1.6922 0 0 1 4.0162 -1.7093 4.079 1.6922 0 0 1 4.1407 1.6574" fill="#c9d1ce"/>
     </g>
     <path d="m214.52 860.47c10.088 0.16724 24.807 0.70593 28.481 12.251 3.2757 15.248 3.1207 32.76-5.736 45.627-7.3962 10.745-23.365 8.6366-35.257 8.2195-18.899-0.66279-35.138-15.383-40.159-33.389-1.9291-7.7531-4.1679-13.928-0.696-19.382 5.9462-9.3399 20.099-11.778 30.581-12.967 7.5181-0.3062 15.195-0.44294 22.787-0.35988z" fill="#909694" fill-opacity=".9863"/>
     <g>
      <path d="m243.75 864.3a4.079 1.6922 0 0 0 4.0582 1.6921 4.079 1.6922 0 0 0 4.0997 -1.6748 4.079 1.6922 0 0 0 -4.0162 -1.7093 4.079 1.6922 0 0 0 -4.1407 1.6574" fill="#c9d1ce"/>
      <path d="m100.81 860.6-19.186 66.305c5.8491 0.15868 11.675-0.0449 16.894-0.37812l18.585-64.221c-5.5481-1.3633-11.032-1.5704-16.294-1.705z" fill="#fff"/>
      <path d="m89.154 860.46c-1.2926 2e-3 -2.5863-3.5e-4 -3.8752 0.0137-1.0812 0.0179-2.2348 0.0498-3.4031 0.0894l-17.662 59.854c1.7288 1.8268 3.7701 3.1716 6.0248 4.1479z" fill="#fff"/>
     </g>
    </g>
    <text transform="rotate(90)" x="944.96283" y="-499.11206" fill="#b3b3b3" font-family="'JetBrains Mono'" font-size="9.6149px" font-weight="800" letter-spacing="0px" stroke-width=".24037" word-spacing="0px" style="font-feature-settings:normal;font-variant-caps:normal;font-variant-ligatures:normal;font-variant-numeric:normal;line-height:1.25" xml:space="preserve"><tspan x="944.96283" y="-499.11206" fill="#b3b3b3" font-family="'JetBrains Mono'" font-size="9.6149px" font-weight="800" stroke-width=".24037" style="font-feature-settings:normal;font-variant-caps:normal;font-variant-ligatures:normal;font-variant-numeric:normal">C-0rg-1</tspan></text>
   </g>
  </g>
 </g>
 <g transform="translate(8.3487 -101.75)">
  <g transform="matrix(.87979 .47537 -.63382 1.1731 84.276 -61.731)" fill="#333">
   <rect transform="matrix(.92679 -.37557 .58453 .81137 0 0)" x="28.006" y="138.67" width="1.2558" height="12.993"/>
   <rect transform="matrix(.78332 .62162 -.81584 .57828 0 0)" x="153.18" y="10.213" width="1.16" height="7.6494"/>
   <rect transform="matrix(.78332 .62162 -.81584 .57828 0 0)" x="156.27" y="9.4704" width="1.16" height="10.816"/>
  </g>
  <path transform="matrix(.26458 0 0 .26458 40.065 116.71)" d="m256.78 21.791c-7.1059 0-12.828 5.7203-12.828 12.826v169.77c0 6.2816 5.0583 11.338 11.34 11.338h88.338c6.2816 0 11.338-5.0563 11.338-11.338v-76.318c0-6.2816-5.0563-11.338-11.338-11.338h-20.771v-82.113c0-7.1059-5.7203-12.826-12.826-12.826z" fill="#00f"/>
  <path d="m6.9926 159.61v16.536a16.536 16.536 0 0 0 0.04134 1.17 16.536 16.536 0 0 0 0.19947 1.6407 16.536 16.536 0 0 0 0.36174 1.6128 16.536 16.536 0 0 0 0.52142 1.5689 16.536 16.536 0 0 0 0.67489 1.5084 16.536 16.536 0 0 0 0.82269 1.434 16.536 16.536 0 0 0 0.9617 1.3446 16.536 16.536 0 0 0 1.0909 1.2418 16.536 16.536 0 0 0 1.2092 1.1265 16.536 16.536 0 0 0 1.3157 1.0005 16.536 16.536 0 0 0 1.4092 0.86403 16.536 16.536 0 0 0 1.4888 0.71882 16.536 16.536 0 0 0 1.5524 0.56689 16.536 16.536 0 0 0 1.602 0.40876 16.536 16.536 0 0 0 1.634 0.24701 16.536 16.536 0 0 0 1.6511 0.0827h101.4a11.71 11.71 0 0 0 0.82837 -0.0294 11.71 11.71 0 0 0 1.1622 -0.14108 11.71 11.71 0 0 0 1.142 -0.25631 11.71 11.71 0 0 0 1.1105 -0.36897 11.71 11.71 0 0 0 1.0687 -0.47801 11.71 11.71 0 0 0 1.0154 -0.58239 11.71 11.71 0 0 0 0.95188 -0.6811 11.71 11.71 0 0 0 0.87954 -0.77256 11.71 11.71 0 0 0 0.79788 -0.85628 11.71 11.71 0 0 0 0.70848 -0.93224 11.71 11.71 0 0 0 0.61185 -0.99788 11.71 11.71 0 0 0 0.50901 -1.0537 11.71 11.71 0 0 0 0.40153 -1.0997 11.71 11.71 0 0 0 0.28939 -1.1343 11.71 11.71 0 0 0 0.17518 -1.1576 11.71 11.71 0 0 0 0.0584 -1.1689v-12.085h-83.936l-14.794-9.278h-14.379z" fill="#e6e6e6"/>
  <g transform="matrix(.25 0 0 .25 53.862 120.7)">
   <rect x="40.065" y="166.22" width="63.5" height="26.458" fill="#f0f"/>
   <rect x="41.3" y="167.46" width="61.03" height="23.988" fill="#f0f" stroke="#2b0000" stroke-linecap="square" stroke-width="2.4698"/>
   <g>
    <rect x="40.065" y="164.63" width="5.2917" height="5.2917" fill="#f00"/>
    <circle cx="42.711" cy="167.28" r="1.5875" fill="#d35f5f"/>
    <path d="m40.065 168.87v1.0583h5.2917v-1.0583z" fill="#a02c2c"/>
   </g>
   <g transform="translate(-1.4032)">
    <rect x="41.469" y="187.39" width="2.4853" height="5.2917" fill="#f00"/>
    <path d="m41.469 191.62v1.0583h2.4853v-1.0583z" fill="#a02c2c"/>
   </g>
   <g transform="translate(58.208)">
    <rect x="40.065" y="164.63" width="5.2917" height="5.2917" fill="#f00"/>
    <circle cx="42.711" cy="167.28" r="1.5875" fill="#d35f5f"/>
    <path transform="matrix(.26458 0 0 .26458 40.065 116.71)" d="m0 197.14v4h20v-4z" fill="#a02c2c"/>
   </g>
   <g transform="translate(59.611 1.0967e-5)">
    <rect x="41.469" y="187.39" width="2.4853" height="5.2917" fill="#f00"/>
    <path d="m41.469 191.62v1.0583h2.4853v-1.0583z" fill="#a02c2c"/>
   </g>
   <g fill="#800080">
    <rect x="92.637" y="185.2" width="7.0158" height="4.2095"/>
    <rect transform="scale(1,-1)" x="96.286" y="-183.61" width="3.3676" height="2.8999"/>
    <rect x="48.484" y="190.83" width="10.583" height="1.3229"/>
    <rect x="80.102" y="190.83" width="10.583" height="1.3229"/>
   </g>
   <g transform="matrix(.50503 0 0 .50503 13.265 57.036)">
    <path transform="matrix(.26458 0 0 .26458 40.065 116.71)" d="m141.88 377.91 6.8574 7.0098v-7.0098z"/>
    <path transform="matrix(.26458 0 0 .26458 40.065 116.71)" d="m134.89 377.91 9.7852 10h4.0703v-2.9902l-6.8574-7.0098z" fill="#fc0"/>
    <path transform="matrix(.26458 0 0 .26458 40.065 116.71)" d="m127.89 377.91 9.7852 10h6.9942l-9.7852-10z"/>
    <path transform="matrix(.26458 0 0 .26458 40.065 116.71)" d="m120.9 377.91 9.7852 10h6.9941l-9.7852-10z" fill="#fc0"/>
    <path transform="matrix(.26458 0 0 .26458 40.065 116.71)" d="m113.9 377.91 9.7852 10h6.9961l-9.7852-10z"/>
    <path transform="matrix(.26458 0 0 .26458 40.065 116.71)" d="m106.91 377.91 9.7852 10h6.9961l-9.7852-10z" fill="#fc0"/>
    <path transform="matrix(.26458 0 0 .26458 40.065 116.71)" d="m99.91 377.91 9.7852 10h6.9961l-9.7852-10z"/>
    <path transform="matrix(.26458 0 0 .26458 40.065 116.71)" d="m92.916 377.91 9.7852 10h6.9941l-9.7852-10z" fill="#fc0"/>
    <path transform="matrix(.26458 0 0 .26458 40.065 116.71)" d="m88.742 377.91v2.8828l6.9629 7.1172h6.9961l-9.7852-10z"/>
    <path transform="matrix(.26458 0 0 .26458 40.065 116.71)" d="m88.742 380.79v7.1172h6.9629z" fill="#fc0"/>
   </g>
   <g transform="matrix(.50503 0 0 .50503 58.165 57.036)">
    <path transform="matrix(.26458 0 0 .26458 40.065 116.71)" d="m141.88 377.91 6.8574 7.0098v-7.0098z"/>
    <path transform="matrix(.26458 0 0 .26458 40.065 116.71)" d="m134.89 377.91 9.7852 10h4.0703v-2.9902l-6.8574-7.0098z" fill="#fc0"/>
    <path transform="matrix(.26458 0 0 .26458 40.065 116.71)" d="m127.89 377.91 9.7852 10h6.9942l-9.7852-10z"/>
    <path transform="matrix(.26458 0 0 .26458 40.065 116.71)" d="m120.9 377.91 9.7852 10h6.9941l-9.7852-10z" fill="#fc0"/>
    <path transform="matrix(.26458 0 0 .26458 40.065 116.71)" d="m113.9 377.91 9.7852 10h6.9961l-9.7852-10z"/>
    <path transform="matrix(.26458 0 0 .26458 40.065 116.71)" d="m106.91 377.91 9.7852 10h6.9961l-9.7852-10z" fill="#fc0"/>
    <path transform="matrix(.26458 0 0 .26458 40.065 116.71)" d="m99.91 377.91 9.7852 10h6.9961l-9.7852-10z"/>
    <path transform="matrix(.26458 0 0 .26458 40.065 116.71)" d="m92.916 377.91 9.7852 10h6.9941l-9.7852-10z" fill="#fc0"/>
    <path transform="matrix(.26458 0 0 .26458 40.065 116.71)" d="m88.742 377.91v2.8828l6.9629 7.1172h6.9961l-9.7852-10z"/>
    <path transform="matrix(.26458 0 0 .26458 40.065 116.71)" d="m88.742 380.79v7.1172h6.9629z" fill="#fc0"/>
   </g>
   <g transform="matrix(.26458 0 0 .26458 -70.342 -86.857)">
    <g transform="matrix(1.341 0 0 1.341 -51.157 -297.33)">
     <text transform="rotate(90)" x="944.96283" y="-499.11206" fill="#b3b3b3" font-family="'JetBrains Mono'" font-size="9.6149px" font-weight="800" letter-spacing="0px" stroke-width=".24037" word-spacing="0px" style="font-feature-settings:normal;font-variant-caps:normal;font-variant-ligatures:normal;font-variant-numeric:normal;line-height:1.25" xml:space="preserve"><tspan x="944.96283" y="-499.11206" fill="#b3b3b3" font-family="'JetBrains Mono'" font-size="9.6149px" font-weight="800" stroke-width=".24037" style="font-feature-settings:normal;font-variant-caps:normal;font-variant-ligatures:normal;font-variant-numeric:normal">C-0rg-1</tspan></text>
    </g>
   </g>
  </g>
  <g transform="matrix(.029898 -.0067603 .0067603 .029898 8.2913 142.31)">
   <g transform="matrix(1.341 0 0 1.341 -51.157 -297.33)">
    <g>
     <path d="m242.82 893.87c2e-5 61.252-36.059 106.28-94.208 106.28-54.326 0-91.435-45.033-91.435-106.28 4e-6 -61.252 37.667-85.951 90.973-85.951 53.306 0 94.67 24.699 94.67 85.951z" fill="#803300"/>
     <path d="m211.93 958.1c2e-5 19.908-28.601 38.819-63.312 38.819s-60.539-18.911-60.539-38.819c0-19.908 26.29-33.273 61.001-33.273s62.85 13.366 62.85 33.273z" fill="#e9c6af"/>
     <path d="m181.19 931.76c0 7.6568-19.04 24.493-30.27 24.493s-32.118-16.836-32.118-24.493 20.239-12.478 31.469-12.478 30.918 4.8207 30.918 12.478z"/>
     <ellipse cx="68.304" cy="827.68" rx="23.762" ry="23.111" fill="#803300"/>
     <path d="m84.784 826.32a16.549 16.095 0 0 0 -16.48 -14.731 16.549 16.095 0 0 0 -16.548 16.096 16.549 16.095 0 0 0 16.548 16.096 16.549 16.095 0 0 0 1.1315 -0.0389c0.81528-1.337 1.5818-2.7272 2.4717-3.9833 1.572-2.219 3.2583-4.3124 5.0547-6.2835 1.7964-1.9711 3.7024-3.8191 5.7124-5.548 0.66884-0.57531 1.4175-1.0582 2.1092-1.6071z" fill="#e9c6af"/>
     <ellipse transform="scale(-1,1)" cx="-231.24" cy="827.68" rx="23.762" ry="23.111" fill="#803300"/>
     <path d="m214.76 826.32a16.549 16.095 0 0 1 16.48 -14.731 16.549 16.095 0 0 1 16.548 16.096 16.549 16.095 0 0 1 -16.548 16.096 16.549 16.095 0 0 1 -1.1315 -0.0389c-0.81528-1.337-1.5818-2.7272-2.4717-3.9833-1.572-2.219-3.2583-4.3124-5.0547-6.2835-1.7964-1.9711-3.7024-3.8191-5.7124-5.548-0.66885-0.57531-1.4175-1.0582-2.1092-1.6071z" fill="#e9c6af"/>
    </g>
    <g transform="translate(-175.5 139.5)">
     <path d="m323.23 675.86c-13.396 0-26.023 1.0793-37.672 3.3344v11.353c11.649-2.255 24.276-3.3344 37.672-3.3344 15.104 0 29.458 1.3725 42.666 4.256v-11.355c-13.207-2.8832-27.563-4.2544-42.666-4.2544z" fill="#f00"/>
     <path transform="translate(0 752.36)" d="m340.7-75.85a15.875 7.8125 0 0 1 4.4297 5.4121 15.875 7.8125 0 0 1 -5.4141 5.8633c9.1163 0.65256 17.878 1.8659 26.186 3.6797v-11.355c-8.0069-1.7479-16.44-2.9317-25.201-3.5996z" fill="#e50000"/>
    </g>
    <path d="m148.06 789.04c-43.489 0-75.872 19.481-83.284 63.856 12.322-10.516 27.906-18.694 45.285-22.651 0 0-2.4459-12.499 10.25-16.029 14.513-4.0352 18.404-3.9436 27.749-4 10.2-0.0616 15.075-0.0706 30.339 4 14.187 3.7833 12 17.113 12 17.113 17.217 4.421 31.845 10.722 44.263 21.567-7.2761-46.029-42.375-63.856-86.602-63.856z" fill="#1a1a1a"/>
    <circle cx="97.242" cy="894.08" r="11.185" fill="#faa" fill-opacity=".57699"/>
    <circle cx="201.85" cy="894.08" r="11.185" fill="#faa" fill-opacity=".57699"/>
    <path d="m96.601 864.04a21.271 21.271 0 0 1 -6.7808 15.572 21.271 21.271 0 0 1 -16.019 5.6439" fill="none" stroke="#e9afaf" stroke-linecap="round" stroke-linejoin="round" stroke-width="2.9827"/>
    <path transform="scale(-1,1)" d="m-203.53 864.04a21.271 21.271 0 0 1 -6.7808 15.572 21.271 21.271 0 0 1 -16.019 5.6439" fill="none" stroke="#e9afaf" stroke-linecap="round" stroke-linejoin="round" stroke-width="2.9827"/>
    <g transform="matrix(1.1733 0 0 1.1733 -128.72 -42.561)">
     <g>
      <path d="m175.58 764.64c-5.5468-0.0595-11.389 0.15472-19.432 1.8164l-12.203 2.3594 1.9668 12.816c1.7845 0.25007 4.2474 0.86604 5.4141 2.4277 3.0064 4.0243 1.0239 7.9146 1.707 15.021 2.276 23.677 10.16 28.633 22.369 30.057 6.3939 0.74577 19.445 1.9453 28.363-1.2207 8.0595-2.8612 15.531-8.4107 20.59-15.307 5.3474-7.2898 5.922-15.542 9.2412-21.926 2.3523-4.5242 6.5626-3.5593 7.8906 0 2.5152 6.7413 3.7316 14.636 9.0791 21.926 5.0584 6.8959 12.53 12.445 20.59 15.307 8.9178 3.166 21.969 1.9665 28.363 1.2207 12.21-1.4241 20.095-6.3794 22.371-30.057 0.68316-7.1069-1.2993-10.997 1.707-15.021 1.2051-1.6132 3.8042-2.2256 5.5977-2.459l1.957-12.752-12.377-2.3926c-12.868-2.6587-20.106-1.6103-29.508-1.668-3.4884-0.0214-7.4805 0.0976-11.195 0.48828-6.9254 0.72827-13.786 2.0298-20.604 3.4512-6.8074 1.4194-12.733 5.1995-19.685 5.0645-6.7065-0.13029-13.309-4.2413-19.869-5.6387-6.9304-1.4761-12.634-2.6473-21.062-2.877-4.0853-0.1113-7.7069-0.5097-11.195-0.48828-3.5258 0.0216-6.7481-0.11272-10.076-0.14844z"/>
      <path d="m182.39 769.63c-8.5978 0.14254-21.142 0.60165-24.273 10.441-2.7918 12.996-2.6597 27.921 4.8887 38.887 6.3036 9.1578 19.913 7.3608 30.049 7.0053 16.107-0.56488 29.948-13.11 34.226-28.456 1.6442-6.6078 3.5522-11.871 0.59318-16.519-5.0678-7.9602-17.13-10.038-26.063-11.051-6.4075-0.26097-12.951-0.37751-19.421-0.30672z" fill="#333"/>
      <path d="m157.47 772.89a3.4764 1.4422 0 0 1 -3.4587 1.4422 3.4764 1.4422 0 0 1 -3.494 -1.4274 3.4764 1.4422 0 0 1 3.4229 -1.4568 3.4764 1.4422 0 0 1 3.529 1.4125" fill="#b3b3b3"/>
      <path d="m292.53 769.63c8.5978 0.14254 21.142 0.60165 24.273 10.441 2.7918 12.996 2.6597 27.921-4.8887 38.887-6.3036 9.1578-19.913 7.3608-30.049 7.0053-16.107-0.56488-29.948-13.11-34.226-28.456-1.6442-6.6078-3.5522-11.871-0.59318-16.519 5.0678-7.9602 17.13-10.038 26.063-11.051 6.4075-0.26097 12.951-0.37751 19.421-0.30672z" fill="#333"/>
      <path d="m317.45 772.89a3.4764 1.4422 0 0 0 3.4587 1.4422 3.4764 1.4422 0 0 0 3.494 -1.4274 3.4764 1.4422 0 0 0 -3.4229 -1.4568 3.4764 1.4422 0 0 0 -3.529 1.4125" fill="#b3b3b3"/>
      <path transform="translate(143.52 764.63)" d="m52.107 5.1133-16.352 56.51c4.9851 0.13523 9.9503-0.03828 14.398-0.32227l15.84-54.734c-4.7285-1.1619-9.4022-1.3384-13.887-1.4531z" fill="#fff"/>
      <path transform="translate(143.52 764.63)" d="m42.172 4.9922c-1.1017 0.00143-2.2043-2.999e-4 -3.3027 0.011719-0.92147 0.015277-1.9047 0.042464-2.9004 0.076172l-15.053 51.012c1.4734 1.557 3.2132 2.7031 5.1348 3.5352z" fill="#fff"/>
     </g>
    </g>
   </g>
  </g>
  <g>
   <path transform="matrix(.26458 0 0 .26458 40.065 116.71)" d="m-119.06 251.08a62.5 62.5 0 0 0 0.85547 1.9121 62.5 62.5 0 0 0 3.1094 5.4199 62.5 62.5 0 0 0 3.6348 5.082 62.5 62.5 0 0 0 4.123 4.6934 62.5 62.5 0 0 0 4.5703 4.2578 62.5 62.5 0 0 0 4.9727 3.7812 62.5 62.5 0 0 0 5.3262 3.2656 62.5 62.5 0 0 0 5.627 2.7168 62.5 62.5 0 0 0 5.8672 2.1426 62.5 62.5 0 0 0 6.0547 1.5449 62.5 62.5 0 0 0 6.1758 0.9336 62.5 62.5 0 0 0 6.2402 0.3125h383.24a44.26 44.26 0 0 0 3.1309 -0.11133 44.26 44.26 0 0 0 4.3926 -0.5332 44.26 44.26 0 0 0 4.3164 -0.96875 44.26 44.26 0 0 0 4.1973 -1.3945 44.26 44.26 0 0 0 4.0391 -1.8066 44.26 44.26 0 0 0 3.8379 -2.2012 44.26 44.26 0 0 0 3.5976 -2.5742 44.26 44.26 0 0 0 3.3242 -2.9199 44.26 44.26 0 0 0 3.0156 -3.2363 44.26 44.26 0 0 0 2.6777 -3.5234 44.26 44.26 0 0 0 2.3125 -3.7715 44.26 44.26 0 0 0 1.9238 -3.9824 44.26 44.26 0 0 0 1.5176 -4.1562 44.26 44.26 0 0 0 1.0938 -4.2871 44.26 44.26 0 0 0 0.0898 -0.5957z" fill="#f00"/>
   <path transform="matrix(.26458 0 0 .26458 40.065 116.71)" d="m-114.27 259.57a62.5 62.5 0 0 0 2.8086 3.9277 62.5 62.5 0 0 0 4.123 4.6934 62.5 62.5 0 0 0 4.5703 4.2578 62.5 62.5 0 0 0 4.9727 3.7812 62.5 62.5 0 0 0 5.3262 3.2656 62.5 62.5 0 0 0 5.627 2.7168 62.5 62.5 0 0 0 5.8672 2.1426 62.5 62.5 0 0 0 6.0547 1.5449 62.5 62.5 0 0 0 6.1758 0.9336 62.5 62.5 0 0 0 6.2402 0.3125h383.24a44.26 44.26 0 0 0 3.1309 -0.11133 44.26 44.26 0 0 0 4.3926 -0.5332 44.26 44.26 0 0 0 4.3164 -0.96875 44.26 44.26 0 0 0 4.1973 -1.3945 44.26 44.26 0 0 0 4.0391 -1.8066 44.26 44.26 0 0 0 3.8379 -2.2012 44.26 44.26 0 0 0 3.5976 -2.5742 44.26 44.26 0 0 0 3.3242 -2.9199 44.26 44.26 0 0 0 3.0156 -3.2363 44.26 44.26 0 0 0 2.6777 -3.5234 44.26 44.26 0 0 0 2.3125 -3.7715 44.26 44.26 0 0 0 1.9238 -3.9824 44.26 44.26 0 0 0 0.20117 -0.55273z" fill="#4d4d4d"/>
   <circle cx="144.46" cy="109.42" r="7.6706" fill="#f00"/>
   <circle cx="123.99" cy="123.97" r="2.6686" fill="#f00"/>
   <rect x="103.02" y="152.64" width="32.553" height="1.8709" ry=".93544" fill="#333"/>
   <rect x="104.61" y="126.64" width="13.283" height="3.9289" ry="0" fill="#333"/>
  </g>
  <g transform="translate(.18759)" fill="#333">
   <circle cx="109.19" cy="158.08" r=".92604"/>
   <circle cx="129.03" cy="158.08" r=".92604"/>
   <circle cx="124.07" cy="158.08" r=".92604"/>
   <circle cx="114.15" cy="158.08" r=".92604"/>
   <circle cx="119.11" cy="158.08" r=".92604"/>
  </g>
  <path d="m106.25 126.64-1.6392 3.0334v0.89555h1.4304l2.1229-3.929z" fill="#0ff"/>
  <path d="m108.77 126.64-2.1234 3.929h1.0635l2.1229-3.929z" fill="#0ff"/>
  <g>
   <circle cx="109.1" cy="136.74" r="1.6838"/>
   <circle cx="108.54" cy="136.08" r=".56127" fill="#f00"/>
   <g transform="translate(5.6127 .18709)">
    <circle cx="115.37" cy="136.55" r="1.6838"/>
    <circle cx="114.81" cy="135.9" r=".56127" fill="#f00"/>
   </g>
   <g transform="translate(.53464 -.14032)">
    <path d="m111.86 137.09a2.6458 2.6458 0 0 0 2.6458 2.6458 2.6458 2.6458 0 0 0 2.6458 -2.6458z"/>
    <path transform="matrix(.26458 0 0 .26458 40.065 116.71)" d="m285.49 81.904a6.364 6.364 0 0 0 -6.1856 4.9023 10 10 0 0 0 2.043 0.22461 10 10 0 0 0 7.9062 -3.8848 6.364 6.364 0 0 0 -3.7637 -1.2422z" fill="#f00"/>
   </g>
   <circle cx="115.04" cy="138.27" r=".51449" fill="#ff0"/>
  </g>
  <circle cx="-.67807" cy="109.42" r="7.6706" fill="#f00"/>
 </g>
</svg>
