<svg class="stan" viewBox="0 0 701 742" fill="none" xmlns="http://www.w3.org/2000/svg">
  <path d="M245.16 670.592h-35.023v35.294H245.16v35.294h-70.046V600.003H140.091v-35.294H105.068v-35.294H70.046V494.12H35.023v-35.294H0V247.06H35.023v70.589H70.046v35.294h35.022v35.294h70.046v-35.294H210.137v-35.294H245.16v-35.295h35.022V247.06H315.205V35.294H350.228V0H665.433v35.294H700.456v176.472H525.342v35.294H630.41v35.294H490.319v70.589h70.046v70.589H525.342v-35.295H490.319V494.12H455.296v35.295h-35.022v35.294H385.251v141.177H420.274v35.294h-70.046v-70.588H245.16Zm105.068 0v-35.295H315.205v-35.294H280.182v35.294H245.16v35.295h105.068Zm70.046-600.003V52.94H385.251v35.295H420.274V70.589Z" fill="#333"/>
  <g class="stan__eyes">
	  <path class="stan__eyelid stan__eyelid--top" d="M374 40h65v61h-65z"/>
	  <path class="stan__eyelid stan__eyelid--bottom" d="M374 40h65v61h-65z"/>
  </g>
  <path class="stan__star" d="m422.547 23.39 5.518 32.391 28.585 16.203-29.101 15.257-6.576 32.193-23.503-22.962-32.65 3.694 14.575-29.448-13.602-29.91 32.511 4.761 24.243-22.179Z" fill="#FBBC05"/>
</svg>