<svg
  class='ghost__image-body'
  preserveAspectRatio='xMinYMin'
  viewBox="0 0 100 130"
   >
  <g
     transform="translate(0,-922.36216)"
     id="layer1">
    <path
      class='ghost__path'
       id="path4149"
       d="m 87.104126,985.99028 c 3e-6,18.29482 23.310064,51.08502 7.251515,64.80642 -4.508673,3.8525 -10.735588,-6.2194 -16.533188,-5.808 -4.489803,0.3185 -7.636172,5.7797 -12.112396,6.2655 -5.152434,0.559 -9.879869,-4.3961 -15.050164,-4.066 -4.493939,0.2869 -8.076853,5.0762 -12.578149,5.1722 -4.822196,0.1028 -8.903453,-4.2416 -13.677721,-4.9617 -6.489307,-0.9788 -15.1515178,5.9929 -19.6454524,0.9765 -14.2159436,-15.8688 8.0865824,-46.7737 6.6754904,-65.00824 -1.7280703,-22.33068 -1.210964,-29.61106 6.765096,-41.60022 7.976059,-11.98915 18.994883,-19.4046 31.165941,-19.4046 12.171058,0 23.189882,7.41545 31.165941,19.4046 7.97606,11.98916 6.573083,25.92871 6.573087,44.22354 z"
       style="fill-opacity:1;stroke:none;stroke-width:10;stroke-linecap:round;stroke-linejoin:round;stroke-miterlimit:4;stroke-dasharray:none;stroke-opacity:1" />
    <circle
    class='ghost__eyes'
       r="5"
       cy="961.0423"
       cx="19.056681"
       id="path4152"
       style="fill:#000000;fill-opacity:1;stroke:none;stroke-width:10;stroke-linecap:round;stroke-linejoin:round;stroke-miterlimit:4;stroke-dasharray:none;stroke-opacity:1" />
    <circle
    class='ghost__eyes'
       style="fill:#000000;fill-opacity:1;stroke:none;stroke-width:10;stroke-linecap:round;stroke-linejoin:round;stroke-miterlimit:4;stroke-dasharray:none;stroke-opacity:1"
       id="circle4156"
       cx="76.471283"
       cy="960.05237"
       r="5" />
    <path
       id="path4158"
       d="m 79.58852,970.29888 c -5e-6,2.4602 -14.18229,4.45458 -31.677023,4.45458 -17.494733,0 -31.677018,-1.99438 -31.677023,-4.45458 5e-6,-2.4602 14.380271,0.099 31.875004,0.099 17.494733,0 31.479037,-2.55919 31.479042,-0.099 z"
       style="fill:#000000;fill-opacity:1;stroke:none;stroke-width:10;stroke-linecap:round;stroke-linejoin:round;stroke-miterlimit:4;stroke-dasharray:none;stroke-opacity:1" />
    <g
    class='ghost__eyes ghost__eyes--busted'
       id="g4167">
      <rect
         style="fill:#000000;fill-opacity:1;stroke:none;stroke-width:10;stroke-linecap:round;stroke-linejoin:round;stroke-miterlimit:4;stroke-dasharray:none;stroke-opacity:1"
         id="rect4162"
         width="2"
         height="15"
         x="692.03461"
         y="658.58441"
         transform="matrix(0.70710678,0.70710678,-0.70710678,0.70710678,0,0)" />
      <rect
         transform="matrix(-0.70710678,0.70710678,-0.70710678,-0.70710678,0,0)"
         y="-700.53461"
         x="665.08441"
         height="15"
         width="2"
         id="rect4165"
         style="fill:#000000;fill-opacity:1;stroke:none;stroke-width:10;stroke-linecap:round;stroke-linejoin:round;stroke-miterlimit:4;stroke-dasharray:none;stroke-opacity:1" />
    </g>
    <g
    class='ghost__eyes ghost__eyes--busted'
       transform="translate(57.414617,-0.98990468)"
       id="g4171">
      <rect
         transform="matrix(0.70710678,0.70710678,-0.70710678,0.70710678,0,0)"
         y="658.58441"
         x="692.03461"
         height="15"
         width="2"
         id="rect4173"
         style="fill:#000000;fill-opacity:1;stroke:none;stroke-width:10;stroke-linecap:round;stroke-linejoin:round;stroke-miterlimit:4;stroke-dasharray:none;stroke-opacity:1" />
      <rect
         style="fill:#000000;fill-opacity:1;stroke:none;stroke-width:10;stroke-linecap:round;stroke-linejoin:round;stroke-miterlimit:4;stroke-dasharray:none;stroke-opacity:1"
         id="rect4175"
         width="2"
         height="15"
         x="665.08441"
         y="-700.53461"
         transform="matrix(-0.70710678,0.70710678,-0.70710678,-0.70710678,0,0)" />
    </g>
  </g>
</svg>
