<svg
   class='ghost__image-body'
   viewBox="0 0 100 130"
   preserveAspectRatio='xMinYMin'>
  <g
     transform="translate(0,-922.36216)"
     id="layer1">
    <path
      class='ghost__path'
       id="path4149"
       d="m 87.104126,985.99028 c 3e-6,18.29482 23.310064,51.08502 7.251515,64.80642 -4.508673,3.8525 -10.735588,-6.2194 -16.533188,-5.808 -4.489803,0.3185 -7.636172,5.7797 -12.112396,6.2655 -5.152434,0.559 -9.879869,-4.3961 -15.050164,-4.066 -4.493939,0.2869 -8.076853,5.0762 -12.578149,5.1722 -4.822196,0.1028 -8.903453,-4.2416 -13.677721,-4.9617 -6.489307,-0.9788 -15.1515178,5.9929 -19.6454524,0.9765 -14.2159436,-15.8688 8.0865824,-46.7737 6.6754904,-65.00824 -1.7280703,-22.33068 -1.210964,-29.61106 6.765096,-41.60022 7.976059,-11.98915 18.994883,-19.4046 31.165941,-19.4046 12.171058,0 23.189882,7.41545 31.165941,19.4046 7.97606,11.98916 6.573083,25.92871 6.573087,44.22354 z"
       style="fill-opacity:1;stroke:none;stroke-width:10;stroke-linecap:round;stroke-linejoin:round;stroke-miterlimit:4;stroke-dasharray:none;stroke-opacity:1" />
    <path
       id="path4158"
       d="m 64.541935,968.77294 c -10e-7,1.76535 -11.355147,5.78254 -17.039796,5.78254 -5.684647,0 -16.023096,-4.26665 -16.023098,-6.03199 2e-6,-1.76535 11.896477,3.67918 17.581124,3.67918 5.684648,0 15.481769,-5.19507 15.48177,-3.42973 z"
       style="fill:#000000;fill-opacity:1;stroke:none;stroke-width:10;stroke-linecap:round;stroke-linejoin:round;stroke-miterlimit:4;stroke-dasharray:none;stroke-opacity:1" />
    <g
      class='ghost__eyes ghost__eyes--busted'
       transform="translate(18.907238,-4.0586249)"
       id="g4171">
      <rect
         transform="matrix(0.70710678,0.70710678,-0.70710678,0.70710678,0,0)"
         y="658.58441"
         x="692.03461"
         height="15"
         width="2"
         id="rect4173"
         style="fill:#000000;fill-opacity:1;stroke:none;stroke-width:10;stroke-linecap:round;stroke-linejoin:round;stroke-miterlimit:4;stroke-dasharray:none;stroke-opacity:1" />
      <rect
         style="fill:#000000;fill-opacity:1;stroke:none;stroke-width:10;stroke-linecap:round;stroke-linejoin:round;stroke-miterlimit:4;stroke-dasharray:none;stroke-opacity:1"
         id="rect4175"
         width="2"
         height="15"
         x="665.08441"
         y="-700.53461"
         transform="matrix(-0.70710678,0.70710678,-0.70710678,-0.70710678,0,0)" />
    </g>
    <g
      class='ghost__eyes ghost__eyes--busted'
       id="g4215"
       transform="translate(38.309414,-3.8606434)">
      <rect
         style="fill:#000000;fill-opacity:1;stroke:none;stroke-width:10;stroke-linecap:round;stroke-linejoin:round;stroke-miterlimit:4;stroke-dasharray:none;stroke-opacity:1"
         id="rect4217"
         width="2"
         height="15"
         x="692.03461"
         y="658.58441"
         transform="matrix(0.70710678,0.70710678,-0.70710678,0.70710678,0,0)" />
      <rect
         transform="matrix(-0.70710678,0.70710678,-0.70710678,-0.70710678,0,0)"
         y="-700.53461"
         x="665.08441"
         height="15"
         width="2"
         id="rect4219"
         style="fill:#000000;fill-opacity:1;stroke:none;stroke-width:10;stroke-linecap:round;stroke-linejoin:round;stroke-miterlimit:4;stroke-dasharray:none;stroke-opacity:1" />
    </g>
    <path
      class='ghost__eyes'
       id="circle4221"
       d="m 62.069108,959.55738 c 0,2.70675 -2.194256,-3.01825 -4.901009,-3.01825 -2.706753,0 -4.901009,5.725 -4.901009,3.01825 0,-2.70675 2.194256,-4.90101 4.901009,-4.90101 2.706753,0 4.901009,2.19426 4.901009,4.90101 z"
       style="fill:#000000;fill-opacity:1;stroke:none;stroke-width:10;stroke-linecap:round;stroke-linejoin:round;stroke-miterlimit:4;stroke-dasharray:none;stroke-opacity:1" />
    <path
      class='ghost__eyes'
       style="fill:#000000;fill-opacity:1;stroke:none;stroke-width:10;stroke-linecap:round;stroke-linejoin:round;stroke-miterlimit:4;stroke-dasharray:none;stroke-opacity:1"
       d="m 42.666932,959.55738 c 0,2.70675 -2.194256,-3.01825 -4.901009,-3.01825 -2.706753,0 -4.901009,5.725 -4.901009,3.01825 0,-2.70675 2.194256,-4.90101 4.901009,-4.90101 2.706753,0 4.901009,2.19426 4.901009,4.90101 z"
       id="path4224" />
  </g>
</svg>
