<svg width="60" height="60" viewBox="0 0 60 60" fill="none" xmlns="http://www.w3.org/2000/svg">
<path d="M38 28.0001C36.58 25.5701 33.5 24.6901 31 26.0001V21.0001H29V26.0001C26.5 24.6901 23.42 25.5701 22 28.0001C20 31.0001 25 40 27 40C29 40 29 39 30 39C31 39 31 40 33 40C35 40 40 31.0001 38 28.0001ZM36.25 31.3801C35.63 33.8501 34.41 36.12 32.7 38C32.5 38 32.27 37.9 32.1 37.75C30.87 36.76 29.13 36.76 27.9 37.75C27.73 37.9 27.5 38 27.3 38C25.59 36.13 24.36 33.8501 23.75 31.3901C23.5 30.6601 23.45 29.8701 23.66 29.1201C24.24 28.0901 25.32 27.4301 26.5 27.4001C27.06 27.4101 27.61 27.5401 28.11 27.7901L29 28.2401H31L31.89 27.7901C32.39 27.5401 32.94 27.4101 33.5 27.4001C34.68 27.4301 35.76 28.0801 36.34 29.1101C36.55 29.8601 36.5 30.6501 36.25 31.3801ZM29 23.0001C23.38 26.0701 22.11 21.7801 22.11 21.7801C22.11 21.7801 24.77 18.1901 29 23.0001Z" fill="hsl(110, 80%, 50%)" />
</svg>
