<svg width="301" height="288" viewBox="0 0 301 288" fill="none" xmlns="http://www.w3.org/2000/svg">
<path d="M131.5 145.25L149.125 162.875L171.625 140.5L153.875 122.75L131.5 145.25ZM138 163C142 163 163 163 163 163V126.125H138V163ZM150.5 68.875C130.609 68.875 111.532 76.7768 97.467 90.842C83.4018 104.907 75.5 123.984 75.5 143.875C75.5 163.766 83.4018 182.843 97.467 196.908C111.532 210.973 130.609 218.875 150.5 218.875C170.391 218.875 189.468 210.973 203.533 196.908C217.598 182.843 225.5 163.766 225.5 143.875C225.5 102.375 191.875 68.875 150.5 68.875ZM131.5 156.375H169V131.375H131.5V156.375ZM129.375 140.5L151.875 162.875L169.5 145.25L147.125 122.75L129.375 140.5ZM171.625 140.375L154 122.75L131.5 145.125L149.25 162.875L171.625 140.375ZM163 126.125H138V163H163V126.125ZM169 131.375H131.5V156.375H169V131.375ZM169.563 145.188L147.063 122.813L129.438 140.438L151.813 162.938L169.563 145.188Z" fill="black"/>
</svg>
