<?xml version="1.0" encoding="UTF-8" standalone="no"?>
<!-- Created with Inkscape (http://www.inkscape.org/) -->

<svg
   xmlns:dc="http://purl.org/dc/elements/1.1/"
   xmlns:cc="http://creativecommons.org/ns#"
   xmlns:rdf="http://www.w3.org/1999/02/22-rdf-syntax-ns#"
   xmlns:svg="http://www.w3.org/2000/svg"
   xmlns="http://www.w3.org/2000/svg"
   xmlns:sodipodi="http://sodipodi.sourceforge.net/DTD/sodipodi-0.dtd"
   xmlns:inkscape="http://www.inkscape.org/namespaces/inkscape"
   width="79.375mm"
   height="79.375mm"
   viewBox="0 0 79.375 79.375"
   version="1.1"
   id="svg8"
   inkscape:version="0.92.2 5c3e80d, 2017-08-06"
   sodipodi:docname="splatted.svg">
  <defs
     id="defs2" />
  <sodipodi:namedview
     id="base"
     pagecolor="#ffffff"
     bordercolor="#666666"
     borderopacity="1.0"
     inkscape:pageopacity="0.0"
     inkscape:pageshadow="2"
     inkscape:zoom="1.979899"
     inkscape:cx="131.31983"
     inkscape:cy="89.39806"
     inkscape:document-units="mm"
     inkscape:current-layer="layer1"
     showgrid="false"
     fit-margin-top="0"
     fit-margin-left="0"
     fit-margin-right="0"
     fit-margin-bottom="0"
     inkscape:window-width="1460"
     inkscape:window-height="1098"
     inkscape:window-x="919"
     inkscape:window-y="208"
     inkscape:window-maximized="0" />
  <metadata
     id="metadata5">
    <rdf:RDF>
      <cc:Work
         rdf:about="">
        <dc:format>image/svg+xml</dc:format>
        <dc:type
           rdf:resource="http://purl.org/dc/dcmitype/StillImage" />
        <dc:title></dc:title>
      </cc:Work>
    </rdf:RDF>
  </metadata>
  <g
     inkscape:label="Layer 1"
     inkscape:groupmode="layer"
     id="layer1"
     transform="translate(-21.922617,-146.56548)">
    <path
       style="opacity:1;fill:#999999;fill-opacity:1;fill-rule:nonzero;stroke:none;stroke-width:0.38592169;stroke-linecap:round;stroke-linejoin:round;stroke-miterlimit:4;stroke-dasharray:none;stroke-dashoffset:0;stroke-opacity:1"
       d="m 60.006498,148.03547 c 5.581258,-0.12247 10.981114,2.02159 16.45514,3.11726 5.917547,1.18444 13.567971,-0.6479 17.715004,3.73643 3.826535,4.0455 3.172344,10.98052 2.53372,16.5123 -0.63941,5.53859 -6.326834,9.94504 -6.237165,15.51969 0.08307,5.16406 6.780256,9.04726 6.237165,14.18335 -0.447997,4.23678 -4.516763,7.30228 -7.478206,10.3651 -3.741646,3.86973 -7.565834,8.51033 -12.770518,9.88363 -4.444211,1.17265 -9.052753,-1.91225 -13.64881,-1.96086 -5.390879,-0.057 -10.704152,2.62526 -16.054236,1.96086 -5.760752,-0.7154 -12.328199,-1.99104 -16.245022,-6.27549 -3.269193,-3.57604 -3.01103,-9.23085 -4.003702,-13.97324 -0.912876,-4.36118 -1.7234,-8.79259 -1.780921,-13.24791 -0.07122,-5.51661 1.101924,-10.98 1.780921,-16.45513 0.75042,-6.05106 -1.818869,-13.84585 2.53372,-18.11592 4.245676,-4.16518 11.858676,-1.09459 17.715004,-2.13281 4.466919,-0.7919 8.712426,-3.01774 13.247906,-3.11726 z"
       id="rect815"
       inkscape:connector-curvature="0"
       sodipodi:nodetypes="aaaaaaaaaaaaaaaaa" />
  </g>
</svg>
