<svg width="301" height="288" viewBox="0 0 301 288" fill="none" xmlns="http://www.w3.org/2000/svg">
<path d="M44.875 231.875L62.5 249.5L85 227.125L67.25 209.375L44.875 231.875ZM138 280.75C142 280.75 163 280.75 163 280.75V243.875H138V280.75ZM150.5 68.875C130.609 68.875 111.532 76.7768 97.467 90.842C83.4018 104.907 75.5 123.984 75.5 143.875C75.5 163.766 83.4018 182.843 97.467 196.908C111.532 210.973 130.609 218.875 150.5 218.875C170.391 218.875 189.468 210.973 203.533 196.908C217.598 182.843 225.5 163.766 225.5 143.875C225.5 102.375 191.875 68.875 150.5 68.875ZM250.5 156.375H288V131.375H250.5V156.375ZM216 227.125L238.5 249.5L256.125 231.875L233.75 209.375L216 227.125ZM256.125 55.875L238.5 38.25L216 60.625L233.75 78.375L256.125 55.875ZM163 7H138V43.875H163V7ZM50.5 131.375H13V156.375H50.5V131.375ZM85 60.625L62.5 38.25L44.875 55.875L67.25 78.375L85 60.625Z" fill="black"/>
</svg>
