<svg width="300" height="289" viewBox="0 0 300 289" fill="none" xmlns="http://www.w3.org/2000/svg">
<path d="M237.875 250.125L255.5 232.5L233.125 210L215.375 227.75L237.875 250.125ZM286.75 157C286.75 153 286.75 132 286.75 132L249.875 132L249.875 157L286.75 157ZM74.875 144.5C74.875 164.391 82.7768 183.468 96.842 197.533C110.907 211.598 129.984 219.5 149.875 219.5C169.766 219.5 188.843 211.598 202.908 197.533C216.973 183.468 224.875 164.391 224.875 144.5C224.875 124.609 216.973 105.532 202.908 91.467C188.843 77.4017 169.766 69.5 149.875 69.5C108.375 69.5 74.875 103.125 74.875 144.5ZM162.375 44.5L162.375 6.99999L137.375 6.99999L137.375 44.5L162.375 44.5ZM233.125 79L255.5 56.5L237.875 38.875L215.375 61.25L233.125 79ZM61.875 38.875L44.25 56.5L66.625 79L84.375 61.25L61.875 38.875ZM13 132L13 157L49.875 157L49.875 132L13 132ZM137.375 244.5L137.375 282L162.375 282L162.375 244.5L137.375 244.5ZM66.625 210L44.25 232.5L61.875 250.125L84.375 227.75L66.625 210Z" fill="black"/>
</svg>
