<svg class="truck__logo" xmlns="http://www.w3.org/2000/svg" viewBox="0 0 202 67.5">
  <path d="M168 57l-3 2-1-1 2-7c3-5 6-10 11-14l3-1v1l-4 7-8 13zm-26-11s-3-1-4-4 1-5 3-6h3l1 2-1 2-2 6zm-12 12l-1-2c0-3 4-10 7-13l5 5c-2 4-9 13-11 10zm47 1l-2-1 5-8 9-17h-6l-1 2-2-2c-2-1-4 0-5 1-7 4-12 12-16 18 0 0-4 7-7 7-2 0-1-2-1-3 0-4 2-8 4-11l10-9c8-7 14-15 15-17h-2c-6 8-18 20-21 22 1-4 11-22 20-31l1-1 7-5v1l-1 4-1 2 2-1 2-7-2-1c-2-1-5 1-7 3-12 9-22 22-31 40l-3 1 2-7 1-2-2-4h-5c-6 3-11 9-14 14-2 4-4 7-4 11-1 3 0 6 2 7l5-1c6-3 10-10 14-16h3v2c-3 7-4 11-2 13 3 4 8 0 12-5-1 6 3 7 5 7l7-5c0 1 0 5 2 5l5-2c5-2 11-12 13-15h-2l-9 11zM96 23h6l3-5h-6zm96-15c-5 3-10 5-15 4l-5 6c8 2 17-3 21-7 5-4 8-10 8-10s-4 4-9 7zm-51-1c-1 11-9 17-11 18-2 0-4 0-2-5 3-6 8-11 13-14v1zm-16 28c-1-2-2-2-4-2-5 0-10 4-12 10-2 3-3 6-3 10l8-7 3-7c1-1 3-4 5-3s1 6-1 11l-7 10c-3 2-7 4-10 2-2-1-3-3-3-7 1-9 5-17 11-26 7-8 14-17 23-21l5-1s-9 5-13 14c-1 2-2 5-1 8l3 1c5-1 9-6 11-10a24 24 0 003-12c3-1 7 1 7 1l15 9 5-5-2-1-9-5c-6-4-12-3-15-2l-2 1c-2-2-6-2-8-1-9 2-18 9-27 20-7 8-11 16-13 23-2 5-2 13 2 17 3 4 8 3 11 2 8-4 14-11 17-20 1-3 2-7 1-9zm-80-9l-1 3h-2l-3-3c-1-3 2-5 3-6h3l1 2-1 4zm-3 5v1l-3 4-6 7-2-1c-2-1-1-3 0-5a46 46 0 016-10c1 2 3 4 5 4zm35-2l5-7c3-3 4-2 4-1a579 579 0 01-14 22h-2v-1c0-2 2-7 7-13zM46 17c-4-2-11 3-17 11-6 7-8 16-6 20 4 4 11-3 14-6l1-1 5-7 2-3h3s-5 7-4 11c0 1 0 6 4 7 5 1 10-3 14-7l1-1v1c-2 5 0 7 2 7 4 1 9-5 9-5 0 2-1 4 1 5s4 0 5-1c6-4 10-10 13-15h-2s-5 8-9 10h-1v-2l14-23h-7v1l-1-1c-4-5-12 3-19 13l-9 11s-5 5-7 1l-1-4c3-8 7-14 12-18l4-1v2l-3 1c-1 2-2 3-1 5 2 3 7-3 6-7 0-2 0-3-2-4h-5l-8 6c-2 3-7 6-8 6 0-1 4-9 0-12zm32 41c-8-5-18-6-34-1-17 4-23 7-31 1-3-2-4-6-3-12 2-10 7-19 15-30 5-5 10-10 16-12 4-1 4 3 3 3l-2 1-2 4c0 3 3 2 4 1 2-2 4-6 2-10l-3-2c-6 0-11 2-16 5C17 13 9 23 4 34c-2 6-5 16-1 23 3 6 8 8 15 8l15-3c4-1 24-8 31 4 0 0 2-4 8-4 4-1 11 1 16 4l-10-8z" fill="#fff"/>
</svg>