<?xml version="1.0" encoding="UTF-8" standalone="no"?>
<svg
   xmlns:dc="http://purl.org/dc/elements/1.1/"
   xmlns:cc="http://creativecommons.org/ns#"
   xmlns:rdf="http://www.w3.org/1999/02/22-rdf-syntax-ns#"
   xmlns:svg="http://www.w3.org/2000/svg"
   xmlns="http://www.w3.org/2000/svg"
   xmlns:xlink="http://www.w3.org/1999/xlink"
   version="1.1"
   id="svg4265"
   preserveAspectRatio="xMinYMin"
   viewBox="0 0 400 100"
   class="worktop">
  <metadata
     id="metadata4296">
    <rdf:RDF>
      <cc:Work
         rdf:about="">
        <dc:format>image/svg+xml</dc:format>
        <dc:type
           rdf:resource="http://purl.org/dc/dcmitype/StillImage" />
        <dc:title></dc:title>
      </cc:Work>
    </rdf:RDF>
  </metadata>
  <defs
     id="defs4">
    <pattern
       patternTransform="matrix(1.3063451,-0.35003379,16.415052,61.261867,0,0)"
       id="pattern5782"
       xlink:href="#Strips1_10" />
    <pattern
       xlink:href="#Strips1_10"
       id="pattern5770"
       patternTransform="matrix(1.301894,-0.34884141,15.183253,56.664678,29.525874,0.55709196)" />
    <pattern
       id="Strips1_10"
       patternTransform="translate(0,0) scale(10,10)"
       height="1"
       width="11"
       patternUnits="userSpaceOnUse">
      <rect
         id="rect4943"
         height="2"
         width="1"
         y="-0.5"
         x="0"
         style="fill:black;stroke:none" />
    </pattern>
    <pattern
       xlink:href="#Checkerboardwhite"
       id="pattern5671"
       patternTransform="matrix(9.6592583,-2.5881905,2.5881905,9.6592583,3.6640572e-6,-952.36206)" />
    <pattern
       id="Checkerboardwhite"
       patternTransform="translate(0,0) scale(10,10)"
       height="2"
       width="2"
       patternUnits="userSpaceOnUse">
      <rect
         id="rect4981"
         height="1"
         width="1"
         y="0"
         x="0"
         style="fill:white;stroke:none" />
      <rect
         id="rect4983"
         height="1"
         width="1"
         y="1"
         x="1"
         style="fill:white;stroke:none" />
    </pattern>
  </defs>
  <rect
     style="fill:#b2967a;fill-opacity:1;stroke:none;stroke-width:0.5;stroke-linecap:round;stroke-linejoin:round;stroke-miterlimit:4;stroke-dasharray:none"
     id="rect5051"
     width="400"
     height="100"
     x="0"
     y="0"
     ry="50" />
  <rect
     ry="50"
     y="0"
     x="0"
     height="100"
     width="400"
     id="rect5059"
     style="opacity:0.3;fill:url(#pattern5782);fill-opacity:1;stroke:none;stroke-width:0.5;stroke-linecap:round;stroke-linejoin:round;stroke-miterlimit:4;stroke-dasharray:none" />
  <path
     id="rect4178"
     d="M 50 0 C 22.3 0 0 22.3 0 50 C 0 77.7 22.3 100 50 100 L 120.8457 100 L 94.050781 0 L 50 0 z "
     style="fill:#ff0000;fill-opacity:1;stroke:none;stroke-width:0.59430015;stroke-linecap:round;stroke-linejoin:round;stroke-miterlimit:4;stroke-dasharray:none;stroke-opacity:1" />
  <path
     id="rect5663"
     d="M 50 0 C 22.3 0 0 22.3 0 50 C 0 77.7 22.3 100 50 100 L 120.8457 100 L 94.050781 0 L 50 0 z "
     style="fill:url(#pattern5671);fill-opacity:1;stroke:none;stroke-width:0.59430015;stroke-linecap:round;stroke-linejoin:round;stroke-miterlimit:4;stroke-dasharray:none;stroke-opacity:1" />
  <path
     id="rect5991"
     d="M 268.41797 0 L 295.21484 100 L 350 100 C 377.01785 100 398.88793 78.781646 399.94922 52.033203 L 399.94922 47.966797 C 398.88793 21.218354 377.01785 0 350 0 L 268.41797 0 z "
     style="opacity:1;fill:#666666;fill-opacity:1;stroke:none;stroke-width:0.5;stroke-linecap:round;stroke-linejoin:round;stroke-miterlimit:4;stroke-dasharray:none;stroke-opacity:1" />
  <g
     id="layer3">
    <circle
       style="opacity:1;fill:#bfbfbf;fill-opacity:1;stroke:none;stroke-width:0.5;stroke-linecap:round;stroke-linejoin:round;stroke-miterlimit:4;stroke-dasharray:none;stroke-opacity:1"
       id="path5775"
       cx="50"
       cy="50"
       r="50" />
  </g>
  <path
     id="rect5780"
     d="M 268.41797 0 L 295.21484 100 L 350 100 C 377.7 100 400 77.7 400 50 C 400 22.3 377.7 0 350 0 L 268.41797 0 z "
     style="fill:#333333;fill-opacity:1;stroke:none;stroke-width:0.69435036;stroke-linecap:round;stroke-linejoin:round;stroke-miterlimit:4;stroke-dasharray:none;stroke-opacity:1" />
  <path
     id="rect5791"
     d="m 306.11914,0 -21.35742,5.7226562 c -1.63527,0.4381717 -2.59833,2.1069048 -2.16016,3.7421876 0.43817,1.6352812 2.1069,2.6002832 3.74219,2.1621092 L 329.73242,0 306.11914,0 Z"
     style="opacity:1;fill:#4d4d4d;fill-opacity:1;stroke:none;stroke-width:0.5;stroke-linecap:round;stroke-linejoin:round;stroke-miterlimit:4;stroke-dasharray:none;stroke-opacity:1" />
  <path
     id="rect5795"
     d="M 395.26758 71.304688 L 308.56055 94.541016 C 306.92527 94.979189 305.96027 96.647921 306.39844 98.283203 C 306.59485 99.016241 307.04589 99.603018 307.62305 100 L 311.78906 100 L 390.9082 78.802734 C 392.56772 76.445014 394.03024 73.94073 395.26758 71.304688 z "
     style="opacity:1;fill:#4d4d4d;fill-opacity:1;stroke:none;stroke-width:0.5;stroke-linecap:round;stroke-linejoin:round;stroke-miterlimit:4;stroke-dasharray:none;stroke-opacity:1" />
  <path
     id="rect5805"
     d="M 377.13672 92.03125 L 347.39648 100 L 350 100 C 360.02209 100 369.32883 97.069194 377.13672 92.03125 z "
     style="opacity:1;fill:#4d4d4d;fill-opacity:1;stroke:none;stroke-width:0.5;stroke-linecap:round;stroke-linejoin:round;stroke-miterlimit:4;stroke-dasharray:none;stroke-opacity:1" />
  <path
     id="path5818"
     d="M 399.81055 54.222656 L 304.59375 79.738281 C 302.95848 80.176453 301.99347 81.845188 302.43164 83.480469 C 302.86981 85.115752 304.5405 86.078799 306.17578 85.640625 L 398.82422 60.814453 C 399.29457 58.666241 399.62443 56.466404 399.81055 54.222656 z "
     style="fill:#4d4d4d;fill-opacity:1;stroke:none;stroke-width:0.69435036;stroke-linecap:round;stroke-linejoin:round;stroke-miterlimit:4;stroke-dasharray:none;stroke-opacity:1" />
  <path
     id="rect5811"
     d="M 392.95117 24.330078 L 296.66211 50.130859 C 295.02683 50.569032 294.06183 52.237769 294.5 53.873047 C 294.93817 55.508329 296.60691 56.473327 298.24219 56.035156 L 395.80664 29.890625 C 394.96677 27.971264 394.01582 26.113208 392.95117 24.330078 z "
     style="opacity:1;fill:#4d4d4d;fill-opacity:1;stroke:none;stroke-width:0.5;stroke-linecap:round;stroke-linejoin:round;stroke-miterlimit:4;stroke-dasharray:none;stroke-opacity:1" />
  <path
     id="rect5813"
     d="M 360.88281 1.1914062 L 288.72852 20.525391 C 287.09323 20.963563 286.12823 22.632297 286.56641 24.267578 C 287.00458 25.902859 288.67331 26.86786 290.30859 26.429688 L 371.29883 4.7285156 C 368.00953 3.1851072 364.52127 1.9934142 360.88281 1.1914062 z "
     style="opacity:1;fill:#4d4d4d;fill-opacity:1;stroke:none;stroke-width:0.5;stroke-linecap:round;stroke-linejoin:round;stroke-miterlimit:4;stroke-dasharray:none;stroke-opacity:1" />
  <path
     id="rect5815"
     d="M 381.88477 11.429688 L 292.69336 35.328125 C 291.05808 35.766297 290.09503 37.435032 290.5332 39.070312 C 290.97138 40.705593 292.64011 41.670594 294.27539 41.232422 L 387.06055 16.371094 C 385.45629 14.60313 383.72609 12.951724 381.88477 11.429688 z "
     style="opacity:1;fill:#4d4d4d;fill-opacity:1;stroke:none;stroke-width:0.5;stroke-linecap:round;stroke-linejoin:round;stroke-miterlimit:4;stroke-dasharray:none;stroke-opacity:1" />
  <path
     id="path5809"
     d="M 398.70117 38.652344 L 300.625 64.933594 C 298.98971 65.371769 298.02863 67.042451 298.4668 68.677734 C 298.90497 70.313016 300.57371 71.276065 302.20898 70.837891 L 399.7207 44.707031 C 399.50576 42.646421 399.15686 40.629386 398.70117 38.652344 z "
     style="fill:#4d4d4d;fill-opacity:1;stroke:none;stroke-width:0.69435036;stroke-linecap:round;stroke-linejoin:round;stroke-miterlimit:4;stroke-dasharray:none;stroke-opacity:1" />
</svg>
