<svg
  class="patty"
  preserveAspectRatio="xMinYMin"
  viewBox="0 0 70 70">
  <g
     id="g4827">
    <g
       transform="translate(-315,-15)"
       id="layer5">
      <circle
         style="opacity:1;fill-opacity:1;stroke:none;stroke-width:0.5;stroke-linecap:round;stroke-linejoin:round;stroke-miterlimit:4;stroke-dasharray:none;stroke-opacity:1"
         class="patty__meat"
         cx="350"
         cy="50"
         r="35" />
      <path
         style="opacity:1;fill-opacity:1;stroke:none;stroke-width:0.5;stroke-linecap:round;stroke-linejoin:round;stroke-miterlimit:4;stroke-dasharray:none;stroke-opacity:1"
         d="m 361.35156,16.931641 -37.74023,10.111328 a 35,35 0 0 0 -5.05274,7.683593 l 51.08008,-13.6875 a 35,35 0 0 0 -8.28711,-4.107421 z"
         class="patty__line" />
      <path
         style="opacity:1;fill-opacity:1;stroke:none;stroke-width:0.5;stroke-linecap:round;stroke-linejoin:round;stroke-miterlimit:4;stroke-dasharray:none;stroke-opacity:1"
         d="M 377.56445,28.453125 315.38477,45.113281 A 35,35 0 0 0 315,50 a 35,35 0 0 0 0.0547,1.529297 l 65.9785,-17.679688 a 35,35 0 0 0 -3.46875,-5.396484 z"
         class="patty__line" />
      <path
         style="opacity:1;fill-opacity:1;stroke:none;stroke-width:0.5;stroke-linecap:round;stroke-linejoin:round;stroke-miterlimit:4;stroke-dasharray:none;stroke-opacity:1"
         d="m 384.1543,42.550781 -67.45899,18.076172 a 35,35 0 0 0 2.36914,5.693359 l 65.88867,-17.654296 a 35,35 0 0 0 -0.79882,-6.115235 z"
         class="patty__line" />
      <path
         style="opacity:1;fill-opacity:1;stroke:none;stroke-width:0.5;stroke-linecap:round;stroke-linejoin:round;stroke-miterlimit:4;stroke-dasharray:none;stroke-opacity:1"
         d="m 383.91211,58.482422 -59.08008,15.832031 a 35,35 0 0 0 5.75391,4.785156 l 50.74609,-13.597656 a 35,35 0 0 0 2.58008,-7.019531 z"
         class="patty__line" />
      <path
         style="opacity:1;fill-opacity:1;stroke:none;stroke-width:0.5;stroke-linecap:round;stroke-linejoin:round;stroke-miterlimit:4;stroke-dasharray:none;stroke-opacity:1"
         d="m 371.33203,77.720703 -25.9043,6.941406 A 35,35 0 0 0 350,85 35,35 0 0 0 371.33203,77.720703 Z"
         class="patty__line" />
    </g>
    <circle
       style="opacity:1;fill:none;fill-opacity:1;stroke:#111;stroke-width:4;stroke-linecap:round;stroke-linejoin:round;stroke-miterlimit:4;stroke-dasharray:none;stroke-opacity:1"
       id="circle4790"
       cx="35"
       cy="35"
       r="33" />
  </g>
</svg>
